<?xml version="1.0" encoding="utf-8"?>
<!-- Generator: Adobe Illustrator 25.0.1, SVG Export Plug-In . SVG Version: 6.00 Build 0)  -->
<svg version="1.1" id="Layer_1" xmlns="http://www.w3.org/2000/svg" xmlns:xlink="http://www.w3.org/1999/xlink" x="0px" y="0px"
	 viewBox="0 0 125 125" style="enable-background:new 0 0 125 125;" xml:space="preserve">
<style type="text/css">
	.st0{fill:#D2D1D3;}
</style>
<path class="st0" d="M19,64.4c-2.4,0.2-4.2,2.2-4.2,4.6v9.7c0,0.7,0.6,1.4,1.4,1.4c0.7,0,1.4-0.6,1.4-1.4v-8.3
	c0-0.3,0.1-0.7,0.7-0.7c0.4,0,0.5,0.4,0.5,0.7v24.9c0,0.5,0.2,1,0.6,1.4s0.9,0.6,1.4,0.6s1-0.2,1.4-0.6s0.6-0.9,0.6-1.4V80.9
	c0-0.3,0.2-0.6,0.6-0.6c0.3,0,0.6,0.2,0.6,0.6v14.3c0,0.5,0.2,1,0.5,1.4c0.4,0.4,0.9,0.6,1.4,0.6s1-0.2,1.4-0.6s0.6-0.9,0.5-1.4
	V70.4c0-0.3,0.1-0.7,0.5-0.7c0.6,0,0.7,0.4,0.7,0.7v8.3c0,0.7,0.6,1.3,1.4,1.3c0.7,0,1.3-0.6,1.4-1.3V69c0-2.4-1.8-4.4-4.2-4.6
	c-0.1,0-0.2,0-0.3,0h-7.6C19.1,64.4,19.1,64.4,19,64.4 M26.5,59.6c0-1.4-0.8-2.7-2.2-3.2c-1.3-0.5-2.8-0.2-3.8,0.8s-1.3,2.5-0.8,3.8
	s1.8,2.2,3.2,2.2c0.9,0,1.8-0.4,2.5-1C26.2,61.4,26.5,60.5,26.5,59.6 M80.3,88.5c-0.1,0.3-0.2,1,0.4,1.3c0.8,0.3,1.2-0.4,1.2-0.4
	l1.5-4.8c0,0,0.3-0.3,0.3,0v11.2c0,0.8,0.6,1.4,1.4,1.4s1.4-0.6,1.4-1.4v-4.4c0,0-0.1-0.6,0.4-0.6s0.4,0.6,0.4,0.6v4.4
	c0,0.8,0.6,1.4,1.4,1.4s1.4-0.6,1.4-1.4V84.6c0-0.3,0.2-0.1,0.2-0.1l1.2,3.3c0,0,0.5,1.5,0.7,1.5c0.5,0.2,1.1,0,1.4-0.6
	c0.1-0.3,0.1-0.7-0.1-1l0,0c0-0.1-1.7-4.3-2-4.9C90.8,81,89.7,81,88.6,81s-1.7,0-1.7,0s-0.7,0-2.1,0s-1.9,0.8-3.5,4.8
	C81,86.5,80.3,88.3,80.3,88.5L80.3,88.5z M86.9,79.9c1.1,0,2.1-0.7,2.5-1.7s0.2-2.2-0.6-3c-0.8-0.8-2-1-3-0.6s-1.7,1.4-1.7,2.5
	c0,0.7,0.3,1.4,0.8,1.9C85.4,79.6,86.1,79.9,86.9,79.9 M46.1,68.9l-2.7,8.9c0,0-0.5,1.6,0.9,2s1.8-1.2,1.8-1.2l2.2-7.5
	c0,0,0.1-0.6,0.6-0.4c0.4,0.1,0.3,0.7,0.3,0.7l-3.9,14h3.6v10c0,1,0.8,1.7,1.7,1.7c1,0,1.7-0.8,1.7-1.7v-10h1v10
	c0,1,0.8,1.7,1.7,1.7c1,0,1.7-0.8,1.7-1.7v-10h3.6l-3.8-14c0,0-0.2-0.6,0.3-0.7c0.4-0.1,0.6,0.4,0.6,0.4l2.2,7.5
	c0,0,0.4,1.6,1.8,1.2c1.4-0.4,0.9-2,0.9-2l-2.7-8.9c0,0-1-2.6-3.2-2.6h-7C47,66.3,46.1,68.9,46.1,68.9 M56,61.4c0-1.3-0.8-2.5-2-3
	s-2.7-0.2-3.6,0.7c-0.9,0.9-1.2,2.4-0.7,3.6c0.5,1.2,1.7,2,3,2C54.5,64.7,56,63.3,56,61.4 M65.8,68.9l-2.7,8.9c0,0-0.5,1.6,0.9,2
	c1.4,0.4,1.8-1.2,1.8-1.2l2.2-7.5c0,0,0.1-0.6,0.6-0.5c0.4,0.1,0.3,0.7,0.3,0.7l-3.9,14h3.6v10c0,1,0.8,1.7,1.7,1.7
	c1,0,1.7-0.8,1.7-1.7v-10h1v10c0,1,0.8,1.7,1.7,1.7c1,0,1.7-0.8,1.7-1.7v-10H80l-3.8-14c0,0-0.2-0.6,0.3-0.7
	c0.4-0.1,0.6,0.4,0.6,0.4l2.2,7.5c0,0,0.4,1.6,1.8,1.2s0.9-2,0.9-2l-2.8-8.9c0,0-1-2.6-3.2-2.6h-7C66.8,66.3,65.8,68.9,65.8,68.9
	 M75.8,61.4c0-1.3-0.8-2.5-2-3s-2.7-0.2-3.6,0.7s-1.2,2.4-0.7,3.6c0.5,1.2,1.7,2,3,2C74.3,64.7,75.8,63.3,75.8,61.4 M104.1,64.4
	c2.4,0.2,4.2,2.2,4.2,4.6v9.7c0,0.7-0.6,1.3-1.4,1.3c-0.7,0-1.3-0.6-1.4-1.3v-8.3c0-0.3-0.1-0.7-0.7-0.7c-0.4,0-0.5,0.4-0.5,0.7
	v24.9c0,1.1-0.9,1.9-1.9,1.9c-1.1,0-1.9-0.8-1.9-1.9V80.9c0-0.3-0.2-0.6-0.6-0.6c-0.3,0-0.6,0.2-0.6,0.6v14.3c0,1.1-0.9,1.9-1.9,1.9
	c-1.1,0-1.9-0.9-1.9-1.9V70.4c0-0.3-0.1-0.7-0.5-0.7c-0.6,0-0.7,0.4-0.7,0.7v8.3c0,0.7-0.6,1.3-1.4,1.3c-0.7,0-1.3-0.6-1.4-1.3V69
	c0-2.4,1.8-4.4,4.2-4.6c0.1,0,0.2,0,0.3,0h7.6C103.9,64.4,104,64.4,104.1,64.4 M96.5,59.6c0-1.4,0.8-2.7,2.2-3.2
	c1.3-0.5,2.8-0.2,3.8,0.8s1.3,2.5,0.8,3.8s-1.8,2.2-3.2,2.2c-0.9,0-1.8-0.4-2.5-1C96.9,61.4,96.5,60.5,96.5,59.6 M75.7,31.6
	l-0.6-3.8l-0.6,3.8H75.7z M74.2,25.6H76l1.8,9.1h-1.5l-0.4-2.1h-1.6L74,34.8h-1.6L74.2,25.6z M68,33.7l2.4-6.9h-2.3v-1.2h4v0.9
	l-2.6,7.1h2.6v1.1H68V33.7z M63.7,25.6h3.8v1.2h-2.2v2.6H67v1.2h-1.7v3h2.2v1.1h-3.9v-9.1H63.7z M59.8,29.5c1,0,1.3-0.4,1.3-1.4
	c0-0.9-0.3-1.4-1.2-1.4h-0.6v2.8H59.8z M57.6,25.6h2.2c1.8,0,2.9,0.6,2.9,2.4c0,1.1-0.3,1.9-1.1,2.2l1.3,4.5h-1.7L60,30.6h-0.8v4.2
	h-1.7L57.6,25.6L57.6,25.6z M53.8,33.6c1,0,1.3-0.5,1.3-1.5c0-1.1-0.4-1.6-1.4-1.6h-0.6v3.1H53.8z M53.7,29.4c1,0,1.3-0.4,1.3-1.4
	s-0.5-1.2-1.5-1.2h-0.3v2.6H53.7z M51.5,25.6h2.3c1.6,0,2.7,0.5,2.7,2.3c0,1.1-0.5,1.7-1.3,1.9c1.1,0.2,1.6,1,1.6,2.3
	c0,1.7-0.9,2.7-2.5,2.7h-2.6v-9.2C51.7,25.6,51.5,25.6,51.5,25.6z M48.8,32.3v-4.2c0-0.8-0.1-1.3-0.9-1.3c-0.8,0-0.9,0.6-0.9,1.3
	v4.2c0,0.8,0.1,1.4,0.9,1.4S48.8,33.1,48.8,32.3z M45.2,31.9v-3.4c0-1.9,0.7-3,2.6-3c2,0,2.6,1.1,2.6,3v3.4c0,1.8-0.7,3-2.6,3
	S45.2,33.8,45.2,31.9z M42,29.5c0.9,0,1.2-0.3,1.2-1.3s-0.1-1.4-1.2-1.4h-0.6v2.7C41.4,29.5,42,29.5,42,29.5z M39.7,25.6h2.7
	c1.6,0,2.3,0.9,2.3,2.6c0,1.8-1,2.5-2.4,2.5h-0.9v4.1h-1.7L39.7,25.6z M34.4,31.6l-0.6-3.8l-0.6,3.8H34.4z M32.8,25.6h1.8l1.8,9.1
	h-1.5l-0.4-2.1H33l-0.4,2.1H31L32.8,25.6z M27.7,33.6c1.1,0,1.2-0.6,1.2-1.7v-3.5c0-1.1-0.1-1.5-1.2-1.5h-0.5v6.8L27.7,33.6z
	 M25.5,25.6h2.2c2.2,0,2.9,0.9,2.9,2.8v3.3c0,2-0.7,3-2.8,3h-2.2v-9.1C25.6,25.6,25.5,25.6,25.5,25.6z M83.3,17.4v-4.2
	c0-0.8-0.1-1.3-0.9-1.3s-0.9,0.6-0.9,1.3v4.2c0,0.8,0.1,1.4,0.9,1.4C83.1,18.7,83.3,18.1,83.3,17.4z M79.7,17v-3.4
	c0-1.9,0.7-3,2.6-3c2,0,2.6,1.1,2.6,3V17c0,1.8-0.7,3-2.6,3C80.4,20,79.7,18.8,79.7,17z M77.1,16.7l-0.6-3.8l-0.6,3.8H77.1z M76,9
	c-0.3,0-0.4,0.2-0.4,0.5h-0.8c0-0.8,0.2-1.4,1-1.4c0.6,0,0.9,0.5,1.4,0.5c0.3,0,0.4-0.2,0.4-0.5h0.7c0,0.7-0.1,1.4-0.9,1.4
	C76.8,9.5,76.4,9,76,9L76,9z M75.6,10.7h1.8l1.8,9.1h-1.5l-0.4-2.1h-1.6l-0.4,2.1h-1.6L75.6,10.7z M71.7,14v-0.8
	c0-0.8,0-1.4-0.9-1.4c-0.8,0-0.9,0.7-0.9,1.5v4c0,1,0.2,1.5,0.9,1.5c0.8,0,0.9-0.6,0.9-1.5v-0.8h1.6v0.7c0,1.5-0.5,2.7-2.2,2.8v0.6
	c0.8,0,1.4,0.4,1.4,1.1c0,0.8-0.7,1.1-1.5,1.1c-0.3,0-0.5,0-0.8-0.1V22c0.2,0.1,0.4,0.1,0.6,0.1c0.4,0,0.7-0.1,0.7-0.4
	c0-0.4-0.5-0.6-1-0.6v-1c-1.7-0.2-2.2-1.4-2.2-3v-3.3c0-1.9,0.6-3.1,2.6-3.1c1.9,0,2.5,1,2.5,2.6V14H71.7z M65.7,16.7L65,12.8
	l-0.6,3.8h1.3C65.7,16.6,65.7,16.7,65.7,16.7z M64.1,10.7h1.8l1.8,9.1h-1.5l-0.4-2.1h-1.6l-0.4,2.1h-1.6L64.1,10.7z M56.8,16.9v-3.3
	c0-1.9,0.6-3.1,2.6-3.1c1.9,0,2.5,1,2.5,2.6V14h-1.6v-0.8c0-0.8,0-1.4-0.9-1.4c-0.8,0-0.9,0.7-0.9,1.5v4c0,1,0.2,1.5,0.9,1.5
	c0.8,0,0.9-0.6,0.9-1.5v-0.8h1.6v0.7c0,1.6-0.5,2.8-2.5,2.8C57.4,20,56.8,18.7,56.8,16.9z M54.1,10.7h1.6v9.1h-1.6V10.7z M50.1,18.7
	c1.1,0,1.2-0.6,1.2-1.7v-3.5c0-1.1-0.1-1.5-1.2-1.5h-0.5v6.8L50.1,18.7L50.1,18.7z M48,10.7h2.2c2.2,0,2.9,0.9,2.9,2.8v3.3
	c0,2-0.7,3-2.8,3H48V10.7z M45.2,16.7l-0.6-3.8L44,16.7H45.2z M43.7,10.7h1.8l1.8,9.1h-1.5l-0.4-2.1h-1.6l-0.4,2.1h-1.6L43.7,10.7z
	 M38.4,14.6c1,0,1.3-0.4,1.3-1.4c0-0.9-0.3-1.4-1.2-1.4h-0.6v2.8L38.4,14.6z M36.2,10.7h2.2c1.8,0,2.9,0.6,2.9,2.4
	c0,1.1-0.3,1.9-1.1,2.2l1.3,4.5h-1.7l-1.1-4.2h-0.8v4.2h-1.7L36.2,10.7z M32.3,14.6c1,0,1.3-0.4,1.3-1.4c0-0.9-0.3-1.4-1.2-1.4h-0.6
	v2.8L32.3,14.6z M30.1,10.7h2.2c1.8,0,2.9,0.6,2.9,2.4c0,1.1-0.3,1.9-1.1,2.2l1.3,4.5h-1.7l-1.1-4.2h-0.8v4.2h-1.7L30.1,10.7z
	 M25.5,10.7h3.8v1.2h-2.2v2.6h1.7v1.2h-1.7v3h2.2v1.1h-3.9v-9.1C25.4,10.7,25.5,10.7,25.5,10.7z M8.9,15.4c-0.7,0.4-2.7,0.9-3.5,1.3
	v-3.4C6.3,13,9,11.7,9.9,10.7h3.6v23.9H8.9V15.4z"/>
<path class="st0" d="M33,78.5c-0.5-0.8-1.8-0.5-1.9,0.5c0,0.2,0,0.3,0.1,0.4l2.8,5c0.1,0.2,0.2,0.4,0.2,0.7v10.8
	c0,0.4,0.1,0.7,0.4,1c0.3,0.3,0.6,0.4,1,0.4s0.7-0.1,1-0.4s0.4-0.6,0.4-1v-4.2c0,0-0.1-0.6,0.4-0.6s0.4,0.6,0.4,0.6v4.2
	c0,0.7,0.6,1.4,1.4,1.4c0.7,0,1.4-0.6,1.4-1.4V85.1c0-0.2,0.1-0.5,0.2-0.7l2.6-4.6c0,0,0.3-0.7,0.3-0.8c0-0.6-0.4-1-1-1
	c-0.3,0-0.7,0.2-0.8,0.5l0,0c-0.1,0.1-1.4,2.4-1.8,2.8c-0.4,0.5-0.8,0.4-0.8,0.4H36c0,0-0.4,0-0.9-0.4C34.3,80.8,33.1,78.6,33,78.5
	L33,78.5z M12.8,97.3h-0.1c-0.4-0.1-0.7-0.5-0.6-0.9L15.2,80c0.1-0.4,0.5-0.7,0.9-0.6c0.4,0.1,0.7,0.5,0.6,0.9l-3.1,16.4
	C13.5,97,13.2,97.3,12.8,97.3z"/>
<path class="st0" d="M37.3,83.8l3.1,2.3l1.5,5.4h-9.2l1.5-5.4L37.3,83.8z M37.3,79.9c1.1,0,2.1-0.7,2.5-1.7s0.2-2.2-0.6-3
	s-2-1-3-0.6s-1.7,1.4-1.7,2.5c0,0.7,0.3,1.4,0.8,1.9C35.9,79.6,36.6,79.9,37.3,79.9"/>
</svg>
