<?xml version="1.0" encoding="utf-8"?>
<!-- Generator: Adobe Illustrator 25.0.1, SVG Export Plug-In . SVG Version: 6.00 Build 0)  -->
<svg version="1.1" id="Layer_1" xmlns="http://www.w3.org/2000/svg" xmlns:xlink="http://www.w3.org/1999/xlink" x="0px" y="0px"
	 viewBox="0 0 125 125" style="enable-background:new 0 0 125 125;" xml:space="preserve">
<style type="text/css">
	.st0{fill:#D2D1D3;}
</style>
<path class="st0" d="M41,67.2L29.9,78.3c-0.1,0.1-0.1,0.2,0,0.3L41,89.7c0.1,0.1,0.3,0,0.3-0.1V67.4C41.3,67.2,41.1,67.1,41,67.2z
	 M51.4,100.1l11.1,11.1c0.1,0.1,0.2,0.1,0.3,0l11.1-11.1c0.1-0.1,0-0.3-0.1-0.3H51.5C51.3,99.7,51.3,100,51.4,100.1z M84.2,89.7
	l11.1-11.1c0.1-0.1,0.1-0.2,0-0.3L84.2,67.2c-0.1-0.1-0.3,0-0.3,0.1v22.2C83.9,89.7,84.1,89.8,84.2,89.7z M73.8,56.8L62.7,45.7
	c-0.1-0.1-0.2-0.1-0.3,0l-11,11.1c-0.1,0.1,0,0.3,0.1,0.3h22.2C73.8,57.2,73.9,56.9,73.8,56.8z M74.1,67.3H51
	c-0.1,0-0.3,0.1-0.2,0.3v6.9c0,0.1,0.1,0.3,0.2,0.3h23.1c0.1,0,0.3-0.1,0.3-0.3v-6.9C74.4,67.5,74.3,67.3,74.1,67.3 M74.1,82.1H51
	c-0.1,0-0.3,0.1-0.2,0.3v6.9c0,0.1,0.1,0.3,0.2,0.3h23.1c0.1,0,0.3-0.1,0.3-0.3v-6.9C74.4,82.2,74.3,82.1,74.1,82.1 M102.4,32.1
	l1.4-0.3c0,1.1,0.3,1.8,1,1.8c0.5,0,0.8-0.4,0.8-0.9c0-0.8-0.4-1.2-1-1.7l-1.2-1c-0.7-0.6-1.1-1.2-1.1-2.2c0-1.4,0.9-2.3,2.4-2.3
	c1.7,0,2.2,1.2,2.3,2.5l-1.4,0.2c0-0.9-0.2-1.5-0.9-1.5c-0.5,0-0.8,0.4-0.8,0.9c0,0.6,0.3,1,0.7,1.4l1.1,1c0.7,0.6,1.4,1.4,1.4,2.7
	c0,1.3-0.9,2.2-2.3,2.2C103.3,34.9,102.5,33.9,102.4,32.1z M98.1,25.6h3.8v1.2h-2.2v2.6h1.7v1.2h-1.7v3h2.2v1.1H98L98.1,25.6
	L98.1,25.6z M94.3,33.6c1.1,0,1.2-0.6,1.2-1.7v-3.5c0-1.1-0.1-1.5-1.2-1.5h-0.5v6.8L94.3,33.6z M92.1,25.6h2.2
	c2.2,0,2.9,0.9,2.9,2.8v3.3c0,2-0.7,3-2.8,3h-2.2L92.1,25.6L92.1,25.6z M89.4,31.6l-0.6-3.8l-0.6,3.8H89.4z M87.9,25.6h1.8l1.8,9.1
	H90l-0.4-2.1H88l-0.4,2.1H86L87.9,25.6z M82.8,33.6c1.1,0,1.2-0.6,1.2-1.7v-3.5c0-1.1-0.1-1.5-1.2-1.5h-0.5v6.8L82.8,33.6z
	 M80.6,25.6h2.2c2.2,0,2.9,0.9,2.9,2.8v3.3c0,2-0.7,3-2.8,3h-2.2L80.6,25.6L80.6,25.6z M76.2,25.6h1.7v8H80v1.1h-3.9L76.2,25.6
	L76.2,25.6z M73.5,31.6l-0.6-3.8l-0.6,3.8H73.5z M71.9,25.6h1.8l1.8,9.1H74l-0.4-2.1H72l-0.4,2.1H70L71.9,25.6z M64.4,31.8v-6.2H66
	V32c0,0.9,0.1,1.6,0.9,1.6s1-0.8,1-1.6v-6.4h1.6v6.2c0,1.9-0.5,3.1-2.6,3.1C65,34.9,64.4,33.7,64.4,31.8z M58.4,31.8v-3.1
	c0-2,0.6-3.2,2.6-3.2c1.9,0,2.5,1,2.5,2.7v0.5h-1.6v-0.5c0-0.9-0.1-1.4-0.9-1.4c-0.9,0-0.9,0.7-0.9,1.5v3.8c0,0.9,0.2,1.5,1,1.5
	s1-0.6,1-1.6v-0.9h-1v-1h2.5v4.6h-1.1l-0.1-0.9c-0.2,0.6-0.7,1-1.5,1C59,34.9,58.4,33.7,58.4,31.8z M55.7,25.6h1.6v9.1h-1.6V25.6z
	 M50.2,32.1l1.4-0.3c0,1.1,0.3,1.8,1,1.8c0.5,0,0.8-0.4,0.8-0.9c0-0.8-0.4-1.2-1-1.7l-1.2-1c-0.7-0.6-1.1-1.2-1.1-2.2
	c0-1.4,0.9-2.3,2.4-2.3c1.7,0,2.2,1.2,2.3,2.5l-1.4,0.2c0-0.9-0.2-1.5-0.9-1.5c-0.5,0-0.8,0.4-0.8,0.9c0,0.6,0.3,1,0.7,1.4l1.1,1
	c0.7,0.6,1.4,1.4,1.4,2.7c0,1.3-0.9,2.2-2.3,2.2C51,34.9,50.3,33.9,50.2,32.1z M45.9,25.6h3.8v1.2h-2.2v2.6h1.7v1.2h-1.7v3h2.2v1.1
	h-3.9v-9.1H45.9z M42.1,33.6c1.1,0,1.2-0.6,1.2-1.7v-3.5c0-1.1-0.1-1.5-1.2-1.5h-0.5v6.8L42.1,33.6z M39.9,25.6H42
	c2.2,0,2.9,0.9,2.9,2.8v3.3c0,2-0.7,3-2.8,3h-2.2V25.6z M93.6,17.2l1.4-0.3c0,1.1,0.3,1.8,1,1.8c0.5,0,0.8-0.4,0.8-0.9
	c0-0.8-0.4-1.2-1-1.7l-1.2-1c-0.7-0.6-1.1-1.2-1.1-2.2c0-1.4,0.9-2.3,2.4-2.3c1.7,0,2.2,1.2,2.3,2.5l-1.4,0.2c0-0.9-0.2-1.5-0.9-1.5
	c-0.5,0-0.8,0.4-0.8,0.9c0,0.6,0.3,1,0.7,1.4l1.1,1c0.7,0.6,1.4,1.4,1.4,2.7S97.4,20,96,20C94.5,20,93.7,19,93.6,17.2z M91.2,16.7
	l-0.6-3.8L90,16.7H91.2z M89.6,10.7h1.8l1.8,9.1h-1.5l-0.4-2.1h-1.6l-0.4,2.1h-1.6L89.6,10.7z M84.5,18.7c1.1,0,1.2-0.6,1.2-1.7
	v-3.5c0-1.1-0.1-1.5-1.2-1.5H84v6.8L84.5,18.7L84.5,18.7z M82.4,10.7h2.2c2.2,0,2.9,0.9,2.9,2.8v3.3c0,2-0.7,3-2.8,3h-2.2L82.4,10.7
	L82.4,10.7z M77.3,17.4v-4.2c0-0.8-0.1-1.3-0.9-1.3s-0.9,0.6-0.9,1.3v4.2c0,0.8,0.1,1.4,0.9,1.4C77.2,18.7,77.3,18.1,77.3,17.4z
	 M73.7,17v-3.4c0-1.9,0.7-3,2.6-3c2,0,2.6,1.1,2.6,3V17c0,1.8-0.7,3-2.6,3C74.4,20,73.7,18.8,73.7,17z M71.2,16.7l-0.6-3.8L70,16.7
	H71.2z M70.1,9c-0.3,0-0.4,0.2-0.4,0.5h-0.8c0-0.8,0.2-1.4,1-1.4c0.6,0,0.9,0.5,1.4,0.5c0.3,0,0.4-0.2,0.4-0.5h0.7
	c0,0.7-0.1,1.4-0.9,1.4C70.9,9.5,70.5,9,70.1,9L70.1,9z M69.7,10.7h1.8l1.8,9.1h-1.5l-0.4-2.1h-1.6l-0.4,2.1h-1.6L69.7,10.7z
	 M65.9,14v-0.8c0-0.8,0-1.4-0.9-1.4c-0.8,0-0.9,0.7-0.9,1.5v4c0,1,0.2,1.5,0.9,1.5c0.8,0,0.9-0.6,0.9-1.5v-0.8h1.6v0.7
	c0,1.5-0.5,2.7-2.2,2.8v0.6c0.8,0,1.4,0.4,1.4,1.1c0,0.8-0.7,1.1-1.5,1.1c-0.3,0-0.5,0-0.8-0.1V22c0.2,0.1,0.4,0.1,0.6,0.1
	c0.4,0,0.7-0.1,0.7-0.4c0-0.4-0.5-0.6-1-0.6v-1c-1.7-0.2-2.2-1.4-2.2-3v-3.3c0-1.9,0.6-3.1,2.6-3.1c1.9,0,2.5,1,2.5,2.6V14H65.9z
	 M56.4,16.9v-6.2H58v6.4c0,0.9,0.1,1.6,0.9,1.6c0.8,0,1-0.8,1-1.6v-6.4h1.6v6.2c0,1.9-0.5,3.1-2.6,3.1C56.9,20,56.4,18.8,56.4,16.9z
	 M52.6,18.7c1.1,0,1.2-0.6,1.2-1.7v-3.5c0-1.1-0.1-1.5-1.2-1.5h-0.5v6.8L52.6,18.7L52.6,18.7z M50.5,10.7h2.2c2.2,0,2.9,0.9,2.9,2.8
	v3.3c0,2-0.7,3-2.8,3h-2.2v-9.1C50.6,10.7,50.5,10.7,50.5,10.7z M45.9,10.7h3.8v1.2h-2.2v2.6h1.7v1.2h-1.7v3h2.2v1.1h-3.9v-9.1
	C45.8,10.7,45.9,10.7,45.9,10.7z M42.1,14.6c1,0,1.3-0.4,1.3-1.4c0-0.9-0.3-1.4-1.2-1.4h-0.6v2.8L42.1,14.6z M39.9,10.7h2.2
	c1.8,0,2.9,0.6,2.9,2.4c0,1.1-0.3,1.9-1.1,2.2l1.3,4.5h-1.7l-1.1-4.2h-0.8v4.2h-1.7C39.9,19.8,39.9,10.7,39.9,10.7z"/>
<path class="st0" d="M28.3,22.8c0,2.1,0,4.1,0,6.2c0,1-0.3,2.1-0.8,3c-1,2-2.7,2.9-4.9,3.1c-1,0.1-2,0-3-0.3
	c-2.1-0.7-3.3-2.2-3.8-4.3c-0.2-0.7-0.2-1.5-0.3-2.3c0-3.6,0-7.3,0-10.9c0-1,0.2-1.9,0.5-2.9c0.7-2.4,2.6-3.8,5.1-3.9
	c1.1-0.1,2.1,0,3.2,0.3c2.2,0.7,3.4,2.3,3.8,4.5c0.1,0.6,0.2,1.3,0.2,2C28.3,19.1,28.3,21,28.3,22.8L28.3,22.8z M20.2,22.7
	L20.2,22.7c0,1.8-0.1,3.6,0,5.3c0,0.7,0.1,1.4,0.3,2.1s0.7,1,1.4,1c0.7,0,1.2-0.4,1.4-1s0.3-1.3,0.3-1.9c0-3.6,0-7.1,0-10.7
	c0-0.7-0.1-1.4-0.3-2c-0.2-0.7-0.7-1-1.5-1s-1.2,0.3-1.4,1c-0.1,0.5-0.2,1-0.3,1.5C20.2,18.9,20.2,20.8,20.2,22.7z"/>
<path class="st0" d="M8.7,34.6c0-6.4,0-12.7,0-19.1c-1.2,0.4-2.3,0.8-3.4,1.2c0-0.1-0.1-0.2-0.1-0.2c0-1,0-1.9,0-2.9
	c0-0.1,0.2-0.3,0.3-0.4c1.2-0.7,2.4-1.3,3.6-2.1c0.4-0.3,0.8-0.5,1.3-0.4c0.9,0,1.8,0,2.8,0c0,8,0,15.9,0,23.8
	C11.7,34.6,10.2,34.6,8.7,34.6z"/>
</svg>
