<?xml version="1.0" encoding="utf-8"?>
<!-- Generator: Adobe Illustrator 25.0.1, SVG Export Plug-In . SVG Version: 6.00 Build 0)  -->
<svg version="1.1" id="Layer_1" xmlns="http://www.w3.org/2000/svg" xmlns:xlink="http://www.w3.org/1999/xlink" x="0px" y="0px"
	 viewBox="0 0 125 125" style="enable-background:new 0 0 125 125;" xml:space="preserve">
<style type="text/css">
	.st0{fill:#D2D1D3;}
</style>
<path class="st0" d="M81.9,85.1c0,0.2-0.2,0.4-0.4,0.4h-4.8c-0.2,0-0.4-0.2-0.4-0.4v-3c0-0.2,0.2-0.4,0.4-0.4h4.8
	c0.2,0,0.4,0.2,0.4,0.4V85.1z M81.9,90.6c0,0.2-0.2,0.4-0.4,0.4h-4.8c-0.2,0-0.4-0.2-0.4-0.4v-3c0-0.2,0.2-0.4,0.4-0.4h4.8
	c0.2,0,0.4,0.2,0.4,0.4V90.6z M81.9,96.1c0,0.2-0.2,0.4-0.4,0.4h-4.8c-0.2,0-0.4-0.2-0.4-0.4v-3c0-0.2,0.2-0.4,0.4-0.4h4.8
	c0.2,0,0.4,0.2,0.4,0.4V96.1z M81.9,101.6c0,0.2-0.2,0.4-0.4,0.4h-4.8c-0.2,0-0.4-0.2-0.4-0.4v-3c0-0.2,0.2-0.4,0.4-0.4h4.8
	c0.2,0,0.4,0.2,0.4,0.4V101.6z M81.9,107.1c0,0.2-0.2,0.4-0.4,0.4h-4.8c-0.2,0-0.4-0.2-0.4-0.4v-3c0-0.2,0.2-0.4,0.4-0.4h4.8
	c0.2,0,0.4,0.2,0.4,0.4V107.1z M74.6,84.1v6.6c0,0.2-0.2,0.4-0.4,0.4h-4.8c-0.2,0-0.4-0.2-0.4-0.4v-0.8v-0.1l0,0l0,0c0,0,0,0,0-0.1
	c0.6-0.9,3.4-4.3,4.5-5.7l0.1-0.1c0.1-0.1,0.2-0.2,0.3-0.2c0.2,0,0.4,0.2,0.4,0.4L74.6,84.1z M74.6,96.1c0,0.2-0.2,0.4-0.4,0.4h-4.7
	c-0.2,0-0.4-0.2-0.4-0.4v-3c0-0.2,0.2-0.4,0.4-0.4h4.8c0.2,0,0.4,0.2,0.4,0.4L74.6,96.1z M74.6,101.6c0,0.2-0.2,0.4-0.4,0.4h-4.7
	c-0.2,0-0.4-0.2-0.4-0.4v-3c0-0.2,0.2-0.4,0.4-0.4h4.8c0.2,0,0.4,0.2,0.4,0.4L74.6,101.6z M74.6,107.1c0,0.2-0.2,0.4-0.4,0.4h-4.7
	c-0.2,0-0.4-0.2-0.4-0.4v-3c0-0.2,0.2-0.4,0.4-0.4h4.8c0.2,0,0.4,0.2,0.4,0.4L74.6,107.1z M77.1,79.3L77.1,79.3
	c1.2-1.5,3-3.7,3.9-4.8l0.1-0.1c0.2-0.3,0.7-0.2,0.8,0.2v5c0,0.2-0.2,0.4-0.4,0.4h-4C77.1,80,76.9,79.6,77.1,79.3L77.1,79.3z
	 M83.7,68.4c-0.1-0.3-0.4-0.4-0.6-0.2l0,0L83,68.4L67.2,88.3l-0.1,0.1C67,88.5,67,88.6,67,88.7v24.4c0,0.2,0.2,0.4,0.4,0.4h15.9
	c0.2,0,0.4-0.2,0.4-0.4V68.6C83.7,68.6,83.7,68.5,83.7,68.4z M102.7,94.7c0,0.2-0.1,0.3-0.3,0.3H85.9c-0.2,0-0.3-0.1-0.3-0.3v-3.3
	c0-0.2,0.1-0.3,0.3-0.3h16.4c0.2,0,0.3,0.1,0.3,0.3L102.7,94.7L102.7,94.7z M62.1,69.9c0,0.1-0.1,0.2-0.2,0.2h-3.7
	c-0.1,0-0.2-0.1-0.2-0.2v-4.1c0-0.1,0.1-0.2,0.2-0.2h3.7c0.1,0,0.2,0.1,0.2,0.2V69.9z M62.1,79.2c0,0.1-0.1,0.2-0.2,0.2h-3.7
	c-0.1,0-0.2-0.1-0.2-0.2v-4.1c0-0.1,0.1-0.2,0.2-0.2h3.7c0.1,0,0.2,0.1,0.2,0.2V79.2z M62.1,88.6c0,0.1-0.1,0.2-0.2,0.2h-3.7
	c-0.1,0-0.2-0.1-0.2-0.2v-4.1c0-0.1,0.1-0.2,0.2-0.2h3.7c0.1,0,0.2,0.1,0.2,0.2V88.6z M62.1,97.9c0,0.1-0.1,0.2-0.2,0.2h-3.7
	c-0.1,0-0.2-0.1-0.2-0.2v-4.1c0-0.1,0.1-0.2,0.2-0.2h3.7c0.1,0,0.2,0.1,0.2,0.2V97.9z M62.1,107.3c0,0.1-0.1,0.2-0.2,0.2h-3.7
	c-0.1,0-0.2-0.1-0.2-0.2v-4.1c0-0.1,0.1-0.2,0.2-0.2h3.7c0.1,0,0.2,0.1,0.2,0.2V107.3z M54.9,69.9c0,0.1-0.1,0.2-0.2,0.2H51
	c-0.1,0-0.2-0.1-0.2-0.2v-4.1c0-0.1,0.1-0.2,0.2-0.2h3.7c0.1,0,0.2,0.1,0.2,0.2V69.9z M54.9,79.2c0,0.1-0.1,0.2-0.2,0.2H51
	c-0.1,0-0.2-0.1-0.2-0.2v-4.1c0-0.1,0.1-0.2,0.2-0.2h3.7c0.1,0,0.2,0.1,0.2,0.2V79.2z M54.9,88.6c0,0.1-0.1,0.2-0.2,0.2H51
	c-0.1,0-0.2-0.1-0.2-0.2v-4.1c0-0.1,0.1-0.2,0.2-0.2h3.7c0.1,0,0.2,0.1,0.2,0.2V88.6z M54.9,97.9c0,0.1-0.1,0.2-0.2,0.2H51
	c-0.1,0-0.2-0.1-0.2-0.2v-4.1c0-0.1,0.1-0.2,0.2-0.2h3.7c0.1,0,0.2,0.1,0.2,0.2V97.9z M54.9,107.3c0,0.1-0.1,0.2-0.2,0.2H51
	c-0.1,0-0.2-0.1-0.2-0.2v-4.1c0-0.1,0.1-0.2,0.2-0.2h3.7c0.1,0,0.2,0.1,0.2,0.2V107.3z M64.4,58.1h-16c-0.2,0-0.4,0.2-0.4,0.4V113
	c0,0.2,0.2,0.4,0.4,0.4h16c0.2,0,0.4-0.2,0.4-0.4V58.5C64.8,58.3,64.6,58.1,64.4,58.1 M100.8,101.7c0,0.2-0.2,0.4-0.4,0.4h-4.9
	c-0.2,0-0.4-0.2-0.4-0.4v-3c0-0.2,0.2-0.4,0.4-0.4h4.9c0.2,0,0.4,0.2,0.4,0.4V101.7z M100.8,107.1c0,0.2-0.2,0.4-0.4,0.4h-4.9
	c-0.2,0-0.4-0.2-0.4-0.4v-3c0-0.2,0.2-0.4,0.4-0.4h4.9c0.2,0,0.4,0.2,0.4,0.4V107.1z M93.4,101.7c0,0.2-0.2,0.4-0.4,0.4h-4.9
	c-0.2,0-0.4-0.2-0.4-0.4v-3c0-0.2,0.2-0.4,0.4-0.4H93c0.2,0,0.4,0.2,0.4,0.4V101.7z M93.4,107.1c0,0.2-0.2,0.4-0.4,0.4h-4.9
	c-0.2,0-0.4-0.2-0.4-0.4v-3c0-0.2,0.2-0.4,0.4-0.4H93c0.2,0,0.4,0.2,0.4,0.4V107.1z M102.3,96.4H86c-0.2,0-0.4,0.2-0.4,0.4v16.5
	c0,0.2,0.2,0.4,0.4,0.4h16.3c0.2,0,0.4-0.2,0.4-0.4V96.8C102.7,96.6,102.5,96.4,102.3,96.4 M45.3,99.8H28.9c-0.2,0-0.4,0.2-0.4,0.4
	v12.9c0,0.2,0.2,0.4,0.4,0.4h5.3v-8.1c0-0.2,0.2-0.4,0.4-0.4h4.9c0.2,0,0.4,0.2,0.4,0.4v8.1h5.4c0.2,0,0.4-0.2,0.4-0.4v-12.9
	C45.8,99.9,45.6,99.8,45.3,99.8z M29,98.3h16.5c0.3,0,0.5-0.4,0.3-0.7l0,0L37.5,87l-0.1-0.1c-0.1-0.1-0.2-0.1-0.3-0.1
	s-0.2,0-0.3,0.1l0,0l0,0.1l-8,10.5l-0.1,0.1C28.4,97.9,28.6,98.3,29,98.3z M85.6,47l1.4-0.3c0,1.1,0.3,1.8,1,1.8
	c0.5,0,0.8-0.4,0.8-0.9c0-0.8-0.4-1.2-1-1.8l-1.2-1c-0.6-0.6-1.1-1.2-1.1-2.2c0-1.4,0.9-2.3,2.4-2.3c1.7,0,2.2,1.2,2.3,2.5l-1.4,0.3
	c0-0.9-0.2-1.5-0.9-1.5c-0.5,0-0.8,0.4-0.8,0.9c0,0.6,0.3,0.9,0.7,1.4l1.1,1c0.7,0.6,1.4,1.4,1.4,2.7s-0.9,2.2-2.3,2.2
	C86.5,49.8,85.7,48.9,85.6,47z M83.2,40.6h1.6v9.1h-1.6V40.6z M78.8,40.6h3.8v1.2h-2.2v2.6h1.7v1.2h-1.7v3h2.2v1.1h-3.8V40.6
	L78.8,40.6z M73,40.6h1.5l1.2,6.5l1.1-6.5h1.5l-1.8,9.1h-1.6L73,40.6z M70.9,37.7h1.6L71.1,40h-0.9L70.9,37.7z M71.2,46.5l-0.6-3.8
	L70,46.5H71.2z M69.7,40.6h1.8l1.8,9.1h-1.6l-0.4-2.1h-1.6l-0.4,2.1h-1.6L69.7,40.6z M65.1,41.8h-1.5v-1.2h4.5v1.2h-1.4v7.9H65
	L65.1,41.8L65.1,41.8z M58.5,40.6h1.2l2.2,5.2v-5.2h1.4v9.1h-1.1L60,44.2v5.5h-1.4L58.5,40.6L58.5,40.6z M54.1,40.6H58v1.2h-2.2v2.6
	h1.7v1.2h-1.7v3H58v1.1h-3.9V40.6L54.1,40.6z M50.7,41.8h-1.5v-1.2h4.6v1.2h-1.4v7.9h-1.7C50.7,49.7,50.7,41.8,50.7,41.8z M44.4,47
	l1.4-0.3c0,1.1,0.3,1.8,1,1.8c0.5,0,0.8-0.4,0.8-0.9c0-0.8-0.4-1.2-1-1.8l-1.2-1c-0.6-0.6-1.1-1.2-1.1-2.2c0-1.4,0.9-2.3,2.4-2.3
	c1.7,0,2.2,1.2,2.3,2.5l-1.4,0.3c0-0.9-0.2-1.5-0.9-1.5c-0.5,0-0.8,0.4-0.8,0.9c0,0.6,0.3,0.9,0.7,1.4l1.1,1
	c0.7,0.6,1.4,1.4,1.4,2.7s-0.9,2.2-2.3,2.2C45.3,49.8,44.5,48.9,44.4,47z M38.7,46.7v-6.2h1.6v6.4c0,0.9,0.1,1.6,0.9,1.6
	c0.9,0,0.9-0.8,0.9-1.6v-6.4h1.6v6.2c0,1.9-0.5,3.1-2.6,3.1C39.2,49.8,38.7,48.7,38.7,46.7z M33.4,47l1.4-0.3c0,1.1,0.3,1.8,1,1.8
	c0.5,0,0.8-0.4,0.8-0.9c0-0.8-0.4-1.2-1-1.8l-1.2-1c-0.6-0.6-1.1-1.2-1.1-2.2c0-1.4,0.9-2.3,2.4-2.3c1.7,0,2.2,1.2,2.3,2.5l-1.4,0.3
	c0-0.9-0.2-1.5-0.9-1.5c-0.5,0-0.8,0.4-0.8,0.9c0,0.6,0.3,0.9,0.7,1.4l1.1,1c0.7,0.6,1.4,1.4,1.4,2.7s-0.9,2.2-2.3,2.2
	C34.3,49.8,33.5,48.9,33.4,47z M87.8,32.1l1.4-0.3c0,1.1,0.3,1.8,1,1.8c0.5,0,0.8-0.4,0.8-0.9c0-0.8-0.4-1.2-1-1.8l-1.2-1
	c-0.6-0.6-1.1-1.2-1.1-2.2c0-1.4,0.9-2.3,2.4-2.3c1.7,0,2.2,1.2,2.3,2.5L91,28.2c0-0.9-0.2-1.5-0.9-1.5c-0.5,0-0.8,0.4-0.8,0.9
	c0,0.6,0.3,0.9,0.7,1.4l1.1,1c0.7,0.6,1.4,1.4,1.4,2.7c0,1.3-0.9,2.2-2.3,2.2C88.7,34.9,87.9,33.9,87.8,32.1z M83.7,25.6h3.8v1.2
	h-2.2v2.6H87v1.2h-1.7v3h2.2v1.1h-3.9L83.7,25.6L83.7,25.6z M80,33.6c1.1,0,1.2-0.6,1.2-1.8v-3.5c0-1.1-0.1-1.6-1.2-1.6h-0.5v6.8
	L80,33.6z M77.8,25.6H80c2.2,0,2.9,0.9,2.9,2.8v3.3c0,2-0.7,3-2.8,3h-2.2L77.8,25.6L77.8,25.6z M75.3,31.6l-0.6-3.8l-0.6,3.8H75.3z
	 M73.8,25.6h1.8l1.8,9.1h-1.6l-0.4-2.1h-1.6l-0.4,2.1h-1.6L73.8,25.6z M68.8,33.6c1.1,0,1.2-0.6,1.2-1.8v-3.5c0-1.1-0.1-1.6-1.2-1.6
	h-0.5v6.8L68.8,33.6z M66.6,25.6h2.2c2.2,0,2.9,0.9,2.9,2.8v3.3c0,2-0.7,3-2.8,3h-2.2L66.6,25.6L66.6,25.6z M64.1,25.6h1.6v9.1h-1.6
	V25.6z M58.3,25.6h1.2l2.2,5.2v-5.2h1.4v9.1H62l-2.2-5.5v5.5h-1.4L58.3,25.6z M52.3,31.8v-6.2H54V32c0,0.9,0.1,1.6,0.9,1.6
	c0.9,0,0.9-0.8,0.9-1.6v-6.4h1.6v6.2c0,1.9-0.5,3.1-2.6,3.1S52.3,33.7,52.3,31.8z M45.3,25.6H47l1.3,6.3l1.3-6.3h1.7l0.2,9.1h-1.2
	l-0.1-6.3l-1.3,6.3h-1l-1.3-6.4l-0.1,6.4h-1.3L45.3,25.6z M42.7,32.3v-4.2c0-0.8-0.1-1.3-0.9-1.3c-0.8,0-0.9,0.6-0.9,1.3v4.2
	c0,0.8,0.1,1.4,0.9,1.4C42.6,33.7,42.7,33.1,42.7,32.3z M39.1,31.9v-3.4c0-1.9,0.7-3,2.6-3c2,0,2.6,1.1,2.6,3v3.4c0,1.8-0.7,3-2.6,3
	S39.1,33.8,39.1,31.9z M33.5,31.9v-3.3c0-1.9,0.6-3.1,2.6-3.1c1.9,0,2.5,1,2.5,2.6v0.8H37v-0.8c0-0.8,0-1.4-0.9-1.4
	s-0.9,0.6-0.9,1.5v4c0,1,0.2,1.5,0.9,1.5c0.8,0,0.9-0.6,0.9-1.5v-0.8h1.6v0.7c0,1.6-0.5,2.8-2.5,2.8S33.5,33.6,33.5,31.9z
	 M70.6,10.7h3.8v1.2h-2.2v2.6H74v1.2h-1.7v3h2.2v1.1h-3.9V10.7z M63.1,17.2l1.4-0.3c0,1.1,0.3,1.8,1,1.8c0.5,0,0.8-0.4,0.8-0.9
	c0-0.8-0.4-1.2-1-1.8l-1.2-1c-0.6-0.6-1.1-1.2-1.1-2.2c0-1.4,0.9-2.3,2.4-2.3c1.7,0,2.2,1.2,2.3,2.5l-1.4,0.3c0-0.9-0.2-1.5-0.9-1.5
	c-0.5,0-0.8,0.4-0.8,0.9c0,0.6,0.3,0.9,0.7,1.4l1.1,1c0.7,0.6,1.4,1.4,1.4,2.7S66.9,20,65.5,20C63.9,20,63.1,19,63.1,17.2z
	 M58.9,10.7h3.8v1.2h-2.2v2.6h1.7v1.2h-1.7v3h2.2v1.1h-3.9L58.9,10.7L58.9,10.7z M55.3,18.7c1.1,0,1.2-0.6,1.2-1.8v-3.5
	c0-1.1-0.1-1.6-1.2-1.6h-0.5v6.8L55.3,18.7L55.3,18.7z M53.1,10.7h2.2c2.2,0,2.9,0.9,2.9,2.8v3.3c0,2-0.7,3-2.8,3h-2.2v-9.1H53.1z
	 M50.5,16.7l-0.6-3.8l-0.6,3.8H50.5z M49,10.7h1.8l1.8,9.1H51l-0.4-2.1H49l-0.4,2.1H47L49,10.7z M44.1,18.7c1.1,0,1.2-0.6,1.2-1.8
	v-3.5c0-1.1-0.1-1.6-1.2-1.6h-0.5v6.8L44.1,18.7L44.1,18.7z M41.9,10.7h2.2c2.2,0,2.9,0.9,2.9,2.8v3.3c0,2-0.7,3-2.8,3H42v-9.1H41.9
	z M39.3,10.7h1.6v9.1h-1.6V10.7z M33.5,16.9v-3.3c0-1.9,0.6-3.1,2.6-3.1c1.9,0,2.5,1,2.5,2.6V14H37v-0.8c0-0.8,0-1.4-0.9-1.4
	s-0.9,0.6-0.9,1.5v4c0,1,0.2,1.5,0.9,1.5c0.8,0,0.9-0.6,0.9-1.5v-0.8h1.6v0.7c0,1.6-0.5,2.8-2.5,2.8S33.5,18.7,33.5,16.9z"/>
<g>
	<g>
		<path class="st0" d="M8.6,15.7c-1.1,0.4-2.2,0.8-3.3,1.2c0-0.2,0-0.3,0-0.4c0-0.8,0-1.7,0-2.5c0-0.3,0.1-0.5,0.4-0.6
			c1.4-0.6,2.7-1.3,3.9-2.3C9.7,11,9.9,11,10.1,11c0.9,0,1.8,0,2.6,0c0.4,0,0.5,0.1,0.5,0.5c0,4.6,0,9.2,0,13.8c0,2.8,0,5.7,0,8.5
			c0,0.5,0,0.5-0.5,0.5c-1.2,0-2.3,0-3.5,0c-0.4,0-0.5-0.1-0.5-0.5c0-5.9,0-11.7,0-17.6C8.6,16.1,8.6,15.9,8.6,15.7z"/>
		<path class="st0" d="M18.4,15.7c-1.1,0.4-2.2,0.8-3.4,1.2c0-0.2,0-0.4,0-0.6c0-0.8,0-1.5,0-2.3c0-0.3,0.1-0.4,0.4-0.6
			c1.1-0.6,2.3-1.2,3.4-1.9c0.5-0.4,1-0.6,1.7-0.5c0.6,0,1.3,0,2,0c0.4,0,0.5,0.1,0.5,0.5c0,5.7,0,11.4,0,17.2c0,1.7,0,3.5,0,5.2
			c0,0.4-0.1,0.5-0.5,0.5c-1.2,0-2.4,0-3.5,0c-0.4,0-0.5-0.1-0.5-0.5c0-5.9,0-11.7,0-17.6C18.4,16.1,18.4,15.9,18.4,15.7z"/>
	</g>
</g>
</svg>
