<?xml version="1.0" encoding="utf-8"?>
<!-- Generator: Adobe Illustrator 25.0.1, SVG Export Plug-In . SVG Version: 6.00 Build 0)  -->
<svg version="1.1" id="Layer_1" xmlns="http://www.w3.org/2000/svg" xmlns:xlink="http://www.w3.org/1999/xlink" x="0px" y="0px"
	 viewBox="0 0 125 125" style="enable-background:new 0 0 125 125;" xml:space="preserve">
<style type="text/css">
	.st0{fill:#D2D1D3;}
</style>
<path class="st0" d="M94.5,64.9c-5.6-4.4-12.9-4.5-15.6-3.8l-0.3,0.1c-3.1,0.7-8.1,1.9-13.9,9.1l-0.1,0.1l-0.1,0.1
	c-0.1,0.1-0.1,0.2-0.1,0.3c0,0.1,0,0.2,0.1,0.2l0.1,0.2c0.7,1.2,1.6,2.8,2.4,4.2l0,0c0.1,0.2,0.3,0.3,0.4,0.3s0.3,0,0.3-0.1l0.1-0.1
	c5.1-7.1,9.2-8.1,11.9-8.8l0.3-0.1c1.4-0.3,6.8-0.3,10.7,2.8c3,2.4,4.6,6.2,4.6,11.4c0,8.6-4.2,12-7.7,13.3
	c-5.4,2-10.7-0.7-10.7-0.7l-0.2-0.1c-3-1.3-7.5-4-11.7-12.5c-8.5-17-15.6-18.6-20.3-19.7h-0.3c-2.1-0.5-9.6-0.8-15.4,3.8
	c-3.1,2.4-6.7,7.2-6.7,15.9c0,5.3,1.1,8.8,3.9,12.5c0.6,0.8,6.9,8.9,19,6.6c1.9-0.4,4.6-1.3,7.5-3.5l2.7,2.4c0.2,0.2,0.4,0.1,0.6,0
	c0.1-0.1,0.1-0.2,0.1-0.3v-0.1L58,86.5v-0.1c0-0.1,0-0.2-0.1-0.3C57.8,86,57.7,86,57.6,86h-0.1h-0.1L46,89.2h-0.2
	c-0.1,0-0.2,0.1-0.2,0.1c-0.2,0.2-0.1,0.5,0,0.6l0.1,0.1l2.5,2.3c-1.6,1.1-3.1,1.6-4.2,1.8c-8.8,1.7-13.1-4.1-13.3-4.3v-0.1
	c-2-2.7-2.7-5-2.7-9c0-5.1,1.5-9,4.5-11.4c3.8-3,9-3.1,10.5-2.7h0.3c3.8,0.9,9.1,2.1,16.4,16.6c3.8,7.6,8.5,12.5,14.4,15.1
	c2.8,1.4,5.9,2.1,9.1,2.1c2.2,0,4.3-0.4,6.3-1.1C92.9,98,101,93.6,101,80.6C101.2,72.1,97.6,67.3,94.5,64.9 M95.8,47l1.4-0.3
	c0,1.1,0.3,1.8,1,1.8c0.5,0,0.8-0.4,0.8-0.9c0-0.8-0.4-1.2-1-1.8l-1.2-1c-0.6-0.6-1.1-1.2-1.1-2.2c0-1.4,0.9-2.3,2.4-2.3
	c1.7,0,2.2,1.2,2.3,2.5L99,43.2c0-0.9-0.2-1.5-0.9-1.5c-0.5,0-0.8,0.4-0.8,0.9c0,0.6,0.3,0.9,0.7,1.4l1.1,1c0.7,0.6,1.4,1.4,1.4,2.7
	s-0.9,2.2-2.3,2.2C96.6,49.8,95.9,48.9,95.8,47z M93.3,40.6h1.6v9.1h-1.6V40.6z M88.8,40.6h3.8v1.2h-2.2v2.6h1.7v1.2h-1.7v3h2.2v1.1
	h-3.9L88.8,40.6L88.8,40.6z M82.8,40.6h1.5l1.2,6.5l1.1-6.5h1.5l-1.8,9.1h-1.6L82.8,40.6z M80.5,37.7h1.6L80.8,40h-0.9L80.5,37.7z
	 M80.9,46.5l-0.6-3.8l-0.6,3.8H80.9z M79.4,40.6h1.8l1.8,9.1h-1.6L81,47.6h-1.6L79,49.7h-1.6L79.4,40.6z M72.6,47l1.4-0.3
	c0,1.1,0.3,1.8,1,1.8c0.5,0,0.8-0.4,0.8-0.9c0-0.8-0.4-1.2-1-1.8l-1.2-1c-0.6-0.6-1.1-1.2-1.1-2.2c0-1.4,0.9-2.3,2.4-2.3
	c1.7,0,2.2,1.2,2.3,2.5l-1.4,0.3c0-0.9-0.2-1.5-0.9-1.5c-0.5,0-0.8,0.4-0.8,0.9c0,0.6,0.3,0.9,0.7,1.4l1.1,1
	c0.7,0.6,1.4,1.4,1.4,2.7s-0.9,2.2-2.3,2.2C73.5,49.8,72.7,48.9,72.6,47z M67.1,40.6h1.2l2.2,5.2v-5.2h1.4v9.1h-1.1l-2.2-5.5v5.5H67
	L67.1,40.6L67.1,40.6z M64.5,47.2V43c0-0.8-0.1-1.3-0.9-1.3c-0.8,0-0.9,0.6-0.9,1.3v4.2c0,0.8,0.1,1.4,0.9,1.4S64.5,48,64.5,47.2z
	 M60.9,46.8v-3.4c0-1.9,0.7-3,2.6-3c1.9,0,2.6,1.1,2.6,3v3.4c0,1.8-0.7,3-2.6,3S60.9,48.7,60.9,46.8z M57.7,44.5
	c0.9,0,1.2-0.3,1.2-1.3s-0.1-1.4-1.2-1.4h-0.6v2.7H57.7z M55.4,40.6h2.7c1.6,0,2.3,0.9,2.3,2.6c0,1.8-1,2.5-2.5,2.5H57v4.1h-1.7
	L55.4,40.6L55.4,40.6z M50,47l1.4-0.3c0,1.1,0.3,1.8,1,1.8c0.5,0,0.8-0.4,0.8-0.9c0-0.8-0.4-1.2-1-1.8l-1.2-1
	c-0.6-0.6-1.1-1.2-1.1-2.2c0-1.4,0.9-2.3,2.4-2.3c1.7,0,2.2,1.2,2.3,2.5l-1.4,0.3c0-0.9-0.2-1.5-0.9-1.5c-0.5,0-0.8,0.4-0.8,0.9
	c0,0.6,0.3,0.9,0.7,1.4l1.1,1c0.7,0.6,1.4,1.4,1.4,2.7s-0.9,2.2-2.3,2.2C50.8,49.8,50,48.9,50,47z M45.7,40.6h3.8v1.2h-2.2v2.6H49
	v1.2h-1.7v3h2.2v1.1h-3.9L45.7,40.6L45.7,40.6z M41.9,44.5c0.9,0,1.3-0.4,1.3-1.4c0-0.9-0.3-1.4-1.2-1.4h-0.6v2.8L41.9,44.5z
	 M39.7,40.6h2.2c1.8,0,2.9,0.6,2.9,2.4c0,1.1-0.3,1.9-1.1,2.2l1.3,4.5h-1.7l-1.1-4.2h-0.8v4.2h-1.7L39.7,40.6L39.7,40.6z M83.9,32.3
	v-4.2c0-0.8-0.1-1.3-0.9-1.3s-0.9,0.6-0.9,1.3v4.2c0,0.8,0.1,1.4,0.9,1.4S83.9,33.1,83.9,32.3z M80.3,31.9v-3.4c0-1.9,0.7-3,2.6-3
	c2,0,2.6,1.1,2.6,3v3.4c0,1.8-0.7,3-2.6,3S80.3,33.8,80.3,31.9z M77.9,31.6l-0.6-3.8l-0.6,3.8H77.9z M76.7,23.9
	c-0.3,0-0.4,0.2-0.4,0.5h-0.8c0-0.8,0.2-1.4,0.9-1.4c0.6,0,0.9,0.5,1.4,0.5c0.3,0,0.4-0.2,0.4-0.4H79c0,0.7-0.1,1.4-0.9,1.4
	C77.6,24.4,77.2,23.9,76.7,23.9L76.7,23.9z M76.4,25.6h1.8l1.8,9.1h-1.6L78,32.6h-1.6L76,34.7h-1.6L76.4,25.6z M72.6,28.9v-0.8
	c0-0.8,0-1.4-0.9-1.4s-0.9,0.6-0.9,1.5v4c0,1,0.2,1.5,0.9,1.5c0.8,0,0.9-0.6,0.9-1.5v-0.8h1.6v0.7c0,1.6-0.5,2.7-2.2,2.8v0.6
	c0.8,0,1.4,0.4,1.4,1.1c0,0.8-0.7,1.1-1.5,1.1c-0.3,0-0.6,0-0.8-0.1v-0.7c0.2,0.1,0.4,0.1,0.6,0.1c0.4,0,0.7-0.1,0.7-0.4
	c0-0.4-0.5-0.6-1-0.6v-1c-1.7-0.2-2.2-1.4-2.2-3v-3.3c0-1.9,0.6-3.1,2.6-3.1c1.9,0,2.5,1,2.5,2.6V29L72.6,28.9L72.6,28.9z
	 M63.2,31.8v-6.2h1.6V32c0,0.9,0.1,1.6,0.9,1.6s0.9-0.8,0.9-1.6v-6.4h1.6v6.2c0,1.9-0.5,3.1-2.6,3.1C63.7,34.9,63.2,33.7,63.2,31.8z
	 M59.5,33.6c1.1,0,1.2-0.6,1.2-1.8v-3.5c0-1.1-0.1-1.6-1.2-1.6H59v6.8L59.5,33.6z M57.3,25.6h2.2c2.2,0,2.9,0.9,2.9,2.8v3.3
	c0,2-0.7,3-2.8,3h-2.2L57.3,25.6L57.3,25.6z M54.7,32.3v-4.2c0-0.8-0.1-1.3-0.9-1.3c-0.8,0-0.9,0.6-0.9,1.3v4.2
	c0,0.8,0.1,1.4,0.9,1.4C54.6,33.7,54.7,33.1,54.7,32.3z M51.1,31.9v-3.4c0-1.9,0.7-3,2.6-3c2,0,2.6,1.1,2.6,3v3.4c0,1.8-0.7,3-2.6,3
	S51.1,33.8,51.1,31.9z M47.5,29.5c0.9,0,1.3-0.4,1.3-1.4c0-0.9-0.3-1.4-1.2-1.4H47v2.8H47.5z M45.3,25.6h2.2c1.8,0,2.9,0.6,2.9,2.4
	c0,1.1-0.3,1.9-1.1,2.2l1.3,4.5h-1.7l-1.1-4.2H47v4.2h-1.7V25.6L45.3,25.6z M42,29.5c0.9,0,1.2-0.3,1.2-1.3s-0.1-1.4-1.2-1.4h-0.6
	v2.7C41.4,29.5,42,29.5,42,29.5z M39.7,25.6h2.7c1.6,0,2.3,0.9,2.3,2.6c0,1.8-1,2.5-2.5,2.5h-0.9v4.1h-1.7L39.7,25.6L39.7,25.6z
	 M84.4,10.7h3.8v1.2H86v2.6h1.7v1.2H86v3h2.2v1.1h-3.9v-9.1H84.4z M79.4,17.4v-4.2c0-0.8-0.1-1.3-0.9-1.3s-0.9,0.6-0.9,1.3v4.2
	c0,0.8,0.1,1.4,0.9,1.4C79.3,18.7,79.4,18.1,79.4,17.4z M75.8,17v-3.4c0-1.9,0.7-3,2.6-3c2,0,2.6,1.1,2.6,3V17c0,1.8-0.7,3-2.6,3
	S75.8,18.8,75.8,17z M68.7,10.7h1.7l1.3,6.3l1.3-6.3h1.7l0.2,9.1h-1.2l-0.1-6.3l-1.3,6.3h-1L70,13.4l-0.1,6.4h-1.2V10.7z M62.5,16.9
	v-6.2h1.6v6.4c0,0.9,0.1,1.6,0.9,1.6s0.9-0.8,0.9-1.6v-6.4h1.6v6.2c0,1.9-0.5,3.1-2.6,3.1C63,20,62.5,18.8,62.5,16.9z M57.1,17.2
	l1.4-0.3c0,1.1,0.3,1.8,1,1.8c0.5,0,0.8-0.4,0.8-0.9c0-0.8-0.4-1.2-1-1.8l-1.2-1c-0.6-0.6-1.1-1.2-1.1-2.2c0-1.4,0.9-2.3,2.4-2.3
	c1.7,0,2.2,1.2,2.3,2.5l-1.4,0.3c0-0.9-0.2-1.5-0.9-1.5c-0.5,0-0.8,0.4-0.8,0.9c0,0.6,0.3,0.9,0.7,1.4l1.1,1
	c0.7,0.6,1.4,1.4,1.4,2.7S60.9,20,59.5,20C57.9,20,57.1,19,57.1,17.2z M51.5,10.7h1.2l2.2,5.2v-5.2h1.4v9.1h-1.1L53,14.3v5.5h-1.4
	v-9.1H51.5z M48.9,17.4v-4.2c0-0.8-0.1-1.3-0.9-1.3s-1,0.5-1,1.3v4.2c0,0.8,0.1,1.4,0.9,1.4C48.8,18.7,48.9,18.1,48.9,17.4
	L48.9,17.4z M45.3,17v-3.4c0-1.9,0.7-3,2.6-3c2,0,2.6,1.1,2.6,3V17c0,1.8-0.7,3-2.6,3S45.3,18.8,45.3,17z M39.6,16.9v-3.3
	c0-1.9,0.6-3.1,2.6-3.1c1.9,0,2.5,1,2.5,2.6V14H43v-0.8c0-0.8,0-1.4-0.9-1.4s-0.9,0.6-0.9,1.5v4c0,1,0.2,1.5,0.9,1.5
	c0.8,0,0.9-0.6,0.9-1.5v-0.8h1.6v0.7c0,1.6-0.5,2.8-2.5,2.8C40.2,20,39.6,18.7,39.6,16.9z"/>
<path class="st0" d="M20.8,31.1c0.3,0,0.4,0,0.6,0c2,0,4,0,6,0c0.4,0,0.5,0.1,0.5,0.5c0,0.9,0,1.7,0,2.5c0,0.3-0.1,0.4-0.4,0.4
	c-3.8,0-7.6,0-11.3,0c-0.3,0-0.4-0.1-0.4-0.4c0-0.8,0-1.6,0-2.5c0-0.2,0.1-0.5,0.2-0.6c2.2-3.4,4.4-6.8,6.6-10.2
	c0.7-1.1,1.3-2.1,1.4-3.4c0.1-0.7,0-1.4-0.1-2c-0.2-0.8-0.7-1.2-1.4-1.2c-0.9-0.1-1.6,0.3-1.9,1c-0.4,0.8-0.5,1.8-0.5,2.7
	c0,1,0,1-1,1s-2,0-3,0c-0.2,0-0.4,0-0.4-0.3c0-1.8,0.1-3.5,0.9-5.1c1-1.9,2.5-2.7,4.5-2.9c1.4-0.1,2.7-0.1,3.9,0.4
	c1.8,0.7,2.8,2.1,3.2,4c0.5,2.6-0.2,4.9-1.6,7.1c-1.9,2.8-3.8,5.7-5.7,8.5C21,30.7,21,30.9,20.8,31.1z"/>
<path class="st0" d="M8.7,15.5c-1.2,0.4-2.3,0.8-3.4,1.2c0-0.4,0-0.7,0-1.1c0-0.6,0-1.1,0-1.7c0-0.4,0.1-0.5,0.5-0.7
	c1.2-0.6,2.3-1.2,3.4-2c0.4-0.3,0.8-0.5,1.3-0.4c0.7,0,1.5,0,2.2,0c0.4,0,0.5,0.1,0.5,0.5c0,4.9,0,9.9,0,14.8c0,2.7,0,5.3,0,8
	c0,0.4-0.1,0.6-0.5,0.5c-1.1,0-2.3,0-3.4,0c-0.4,0-0.5-0.1-0.5-0.5c0-6,0-12,0-18C8.7,16,8.7,15.8,8.7,15.5z"/>
</svg>
