<?xml version="1.0" encoding="utf-8"?>
<!-- Generator: Adobe Illustrator 25.0.1, SVG Export Plug-In . SVG Version: 6.00 Build 0)  -->
<svg version="1.1" id="Layer_1" xmlns="http://www.w3.org/2000/svg" xmlns:xlink="http://www.w3.org/1999/xlink" x="0px" y="0px"
	 viewBox="0 0 125 125" style="enable-background:new 0 0 125 125;" xml:space="preserve">
<style type="text/css">
	.st0{fill:#D2D1D3;}
</style>
<path class="st0" d="M82.5,85.6c-0.5-0.1-2.7-3.2-1-5.1c0.3-0.3-0.6-1.3-0.3-1.3c0.9-0.1,1.4,0.5,1.7,1.4c0,0.4,0,0.7,0,1.1
	C82.9,83,82.8,84.3,82.5,85.6 M77.1,95.4c-0.2,0-0.4-0.1-0.6-0.2c-1.1-0.5-0.9,0.3-1.5,0.1c-0.5-0.2,0.6-1.4-1-0.4s-1.1-0.2-1.8-1.9
	c-0.7-1.7,0.8-3.7,2-4.1c1.7-0.6,2.7-0.7,3.5-0.9c2.3-0.6,2.8-2,3.3-1.1c0.1,0.2,0.2,0.3,0.2,0.4c0.2,0.4,0.3,0.8,0.3,1.3
	C80.6,91.1,79.1,93.5,77.1,95.4 M63.4,101c-1.9,0-3.7-0.3-5.5-0.8c-0.3-0.2-0.4-0.6-0.2-0.9c0.6-1.6,2.4-2.2,3.8-2.3
	c3.1-0.3,7.3,2.1,8,1.7c0.6-0.4,2-2.1,4-2c1.3,0,1.3,0.3,1.8,0.4C71.8,99.7,67.7,101,63.4,101 M60.8,88.4c-0.3,0.4-1,3.7-1.5,3.3
	c-0.5-0.4,0.2-3.8,0.3-4.1C60.4,86.2,62.1,86.3,60.8,88.4 M68.8,84.5c-0.4,0.3-1.4,0.2-1.9-0.2s0.3-1,0.6-1
	C68.1,83.3,69.1,84.2,68.8,84.5 M77.3,84.6c-0.2-0.1-0.4-0.3-0.6-0.8s0.3-0.7,0.6-0.6c0.4,0.2,0.9,0.8,0.9,1.1
	C78.3,84.7,77.5,84.6,77.3,84.6 M78.1,85.2c0.6,0,1.6,0.9,1.2,1.2c-0.4,0.3-1.4,0.2-1.9-0.2S77.8,85.2,78.1,85.2 M57.3,92.9
	c-0.4,1.5-0.8,2-1.2,2.5s-1.8,1.1-2.7,1s-1-2.4-1-3.7c0-0.4-0.6,0.8-0.9-1.7c-0.2-1.6-1.2,0.2-1.3-0.9s-0.6-0.9-1.1-1.5
	c-0.6-0.7-1.2,0.1-2,0.4s-0.4,0.5-1.5,0.2c0,0,0,0-0.1,0c-1-2.4-1.5-5-1.5-7.6c0-0.6,0-1.3,0.1-1.9c0-0.1,0.1-0.1,0.1-0.2
	c1-1.2,1-1.5,1-1.5l1.1-0.4c1.1,0.2,2.2,0.4,3.2,0.8c1.1,0.4,2.9,1.4,3.9,1c0.7-0.3,1.3-0.7,1.3-1.3c-0.1-0.8-0.7-1-1.4-0.4
	c-0.3,0.2-0.9-1.2-1.3-1.1c-0.5,0.1,0.6,1.6,0.2,1.7c-0.4,0.1-1.2-1.6-1.3-1.9s-0.7-0.9-1.3-0.4c-1.2,1.1-3,1-3.4,1.3
	c-1.1,0.9-1.4-0.3-1.4-1c0-0.2,0.1-0.3,0.1-0.5c0.4-0.4,1.7-0.5,2.2-0.2s0.9-0.1,1.1-0.3c0.2-0.2,0.1-0.5,0-0.8s0.3-0.5,0.5-0.5
	c0.3-0.1,1.1-0.7,1.5-0.9c0.3-0.2,2.2-0.4,3,0c0.6,0.3,1.5,0.2,1.9-0.4c0.4-0.5,0.9-0.9,1.4-1.2c0.3-0.1-0.7-1-1.5,0
	s-1.2,1.1-1.6,1.1c-0.4,0-2.6-0.6-2.9-1.3c-0.3-0.7,0.7-1.2,1.5-1.6s3.1-0.4,3.7-0.5c1.2-0.3,2.7-0.9,3.4-0.3
	c0.8,0.5-3.2,1.4-1.9,2.1c0.5,0.3,2.5-1.2,3.2-1.6c1.7-0.9-1.6-1.2-1.2-2.9c0.5-2-4-1.2-6.3-1.1c5.3-3.4,11.9-4,17.7-1.6
	c6,2.1,10.4,7.1,11.8,13.2c0,0.3,0,0.6-0.1,0.9c-0.2,0.7-1.5,1.3-2.3,0.2c-0.2-0.3-1-1.1-1,0.3c0,1.3,1.3,1.5,0.1,2.3
	c-1.2,0.8-1.5,0.6-2,0.8c-0.6,0.2-1.1,1.6-1,2.3c0.1,0.7,1.9,2.8,0.6,2.7c-0.3,0-2.6-1.6-3-2.6c-0.4-1.1-0.8-2.1-1.2-2.9
	c-0.3-0.8-1.1-1-1.8-0.5c-0.7,0.5,0.2,0.9-0.3,2c-0.5,1-0.9,1.9-1.6,1.1c-1.9-2.2-4.7-1.1-5.1-3.5c-0.2-1.3-1.4-1.2-2.3-1.9
	c-0.9-0.7-1.5-1.1-1.6-0.6s3,2.9,3.2,3.6c0.3,0.9-0.9,1.8-1.9,2c-0.9,0.2-1.3-0.5-2.2-1.5c-0.9-0.9-1.3-1.6-1.4-0.9
	c-0.1,1.1,0.9,2.6,1.8,3.2c0.8,0.5,1.7,0.7,1.4,1.5s0,0.3-0.9,1.2s-1,1.2-1,2.4c0.1,1.2-0.3,1.3-0.4,2.3
	C58.1,92.3,57.7,91.4,57.3,92.9 M46.9,71.5L46.9,71.5c0.4-0.5,1.1-0.6,1.6-0.7s1.1,0.2,1.2,0.5s-1.2,0.9-1.5,1.1
	c-0.7,0.6-1.7,1.9-2.3,2c-0.2,0-0.3,0-0.5,0C45.8,73.3,46.3,72.4,46.9,71.5 M47.9,69.5c0.3-0.4,1.1-1.4,1.2-1.6
	c0.2-0.3,0.6-0.3,0.9-0.4c0.3,0,0.7,0.1,0.7,0.3c0,0.2-0.1,1.1-0.3,1.2c-0.4,0.4-1.5,1-2.1,0.9C48,70,47.8,69.6,47.9,69.5 M109.7,81
	c-3.3-4.7-18.3-23.3-46.2-23.3S20.6,76.2,17.2,80.9c-0.1,0.2-0.3,0.4-0.4,0.5c0.1,0.2,0.2,0.3,0.4,0.5c3.3,4.7,18.3,23.3,46.2,23.3
	s42.9-18.5,46.3-23.2c0.1-0.2,0.3-0.4,0.4-0.5C109.9,81.4,109.8,81.2,109.7,81 M77.8,46.5l-0.6-3.8l-0.6,3.8H77.8z M76.3,40.6h1.8
	l1.8,9.1h-1.6L78,47.6h-1.6L76,49.7h-1.6L76.3,40.6z M67.7,40.6h1.7l1.3,6.3l1.3-6.3h1.7l0.2,9.1h-1.2l-0.1-6.3l-1.3,6.3h-1L69,43.3
	l-0.1,6.4h-1.2V40.6z M64.8,40.6h1.6v9.1h-1.6V40.6z M60.3,40.6H62v8h2.2v1.1h-3.9L60.3,40.6L60.3,40.6z M54.4,46.8v-3.3
	c0-1.9,0.6-3.1,2.6-3.1c1.9,0,2.5,1,2.5,2.6v0.8h-1.6V43c0-0.8,0-1.4-0.9-1.4s-0.9,0.6-0.9,1.5v4c0,1,0.2,1.5,0.9,1.5
	c0.8,0,0.9-0.6,0.9-1.5v-0.8h1.6V47c0,1.6-0.5,2.8-2.5,2.8S54.4,48.6,54.4,46.8z M49.6,47.2V43c0-0.8-0.1-1.3-0.9-1.3
	c-0.8,0-0.9,0.6-0.9,1.3v4.2c0,0.8,0.1,1.4,0.9,1.4C49.5,48.6,49.6,48,49.6,47.2z M46,46.8v-3.4c0-1.9,0.7-3,2.6-3
	c2,0,2.6,1.1,2.6,3v3.4c0,1.8-0.7,3-2.6,3S46,48.7,46,46.8z M42.4,48.5c1.1,0,1.2-0.6,1.2-1.8v-3.5c0-1.1-0.1-1.6-1.2-1.6h-0.5v6.8
	L42.4,48.5L42.4,48.5z M40.2,40.6h2.2c2.2,0,2.9,0.9,2.9,2.8v3.3c0,2-0.7,3-2.8,3h-2.2v-9.1H40.2z M112.4,25.6h1.7v8h2.2v1.1h-3.9
	L112.4,25.6L112.4,25.6z M109.7,31.6l-0.6-3.8l-0.6,3.8H109.7z M108.2,25.6h1.8l1.8,9.1h-1.6l-0.4-2.1h-1.6l-0.4,2.1h-1.6
	L108.2,25.6z M103.2,33.6c1,0,1.3-0.5,1.3-1.5c0-1.1-0.4-1.6-1.4-1.6h-0.6v3.1H103.2z M103.1,29.4c1,0,1.2-0.4,1.2-1.4
	s-0.5-1.2-1.5-1.2h-0.3v2.6H103.1z M100.9,25.6h2.3c1.6,0,2.7,0.5,2.7,2.3c0,1.1-0.5,1.7-1.3,1.9c1.1,0.2,1.6,1,1.6,2.3
	c0,1.8-0.9,2.7-2.5,2.7h-2.6L100.9,25.6L100.9,25.6z M98.3,32.3v-4.2c0-0.8-0.1-1.3-0.9-1.3s-0.9,0.6-0.9,1.3v4.2
	c0,0.8,0.1,1.4,0.9,1.4S98.3,33.1,98.3,32.3z M94.7,31.9v-3.4c0-1.9,0.7-3,2.6-3c2,0,2.6,1.1,2.6,3v3.4c0,1.8-0.7,3-2.6,3
	C95.4,34.9,94.7,33.8,94.7,31.9z M90.6,25.6h1.7v8h2.2v1.1h-3.9L90.6,25.6L90.6,25.6z M84.4,31.8v-3.1c0-2,0.6-3.1,2.6-3.1
	c1.9,0,2.5,1,2.5,2.7v0.5H88v-0.5c0-0.9-0.1-1.4-0.9-1.4c-0.9,0-0.9,0.7-0.9,1.6v3.8c0,0.9,0.2,1.6,1,1.6s1-0.6,1-1.6v-0.9h-1v-1
	h2.5V35h-1.1l-0.1-0.9c-0.3,0.6-0.7,1-1.6,1C85.1,34.9,84.4,33.7,84.4,31.8z M79.5,31.6l-0.6-3.8l-0.6,3.8H79.5z M78,25.6h1.8
	l1.8,9.1H80l-0.4-2.1H78l-0.4,2.1H76L78,25.6z M74.2,28.9v-0.8c0-0.8,0-1.4-0.9-1.4s-0.9,0.6-0.9,1.5v4c0,1,0.2,1.5,0.9,1.5
	c0.8,0,0.9-0.6,0.9-1.5v-0.8h1.6v0.7c0,1.6-0.5,2.7-2.2,2.8v0.6c0.8,0,1.4,0.4,1.4,1.1c0,0.8-0.7,1.1-1.5,1.1c-0.3,0-0.6,0-0.8-0.1
	v-0.7c0.2,0.1,0.4,0.1,0.6,0.1c0.4,0,0.7-0.1,0.7-0.4c0-0.4-0.5-0.6-1-0.6v-1c-1.7-0.2-2.2-1.4-2.2-3v-3.3c0-1.9,0.6-3.1,2.6-3.1
	c1.9,0,2.5,1,2.5,2.6V29L74.2,28.9L74.2,28.9z M65.1,25.6h1.2l2.2,5.2v-5.2h1.4v9.1h-1.1l-2.2-5.5v5.5H65L65.1,25.6L65.1,25.6z
	 M62.4,31.6l-0.6-3.8l-0.6,3.8H62.4z M60.9,25.6h1.8l1.8,9.1H63l-0.4-2.1H61l-0.4,2.1H59L60.9,25.6z M55.8,33.6
	c1.1,0,1.2-0.6,1.2-1.8v-3.5c0-1.1-0.1-1.6-1.2-1.6h-0.5v6.8L55.8,33.6z M53.7,25.6h2.2c2.2,0,2.9,0.9,2.9,2.8v3.3c0,2-0.7,3-2.8,3
	h-2.2v-9.1H53.7z M47.5,31.8v-6.2h1.6V32c0,0.9,0.1,1.6,0.9,1.6s1-0.8,1-1.6v-6.4h1.6v6.2c0,1.9-0.5,3.1-2.6,3.1
	S47.5,33.7,47.5,31.8z M40.4,25.6h1.7l1.3,6.3l1.3-6.3h1.7l0.2,9.1h-1.2l-0.1-6.3L44,34.7h-1l-1.3-6.4l-0.1,6.4h-1.3L40.4,25.6z
	 M104.3,16.7l-0.6-3.8l-0.6,3.8H104.3z M102.8,10.7h1.8l1.8,9.1h-1.6l-0.4-2.1h-1.6l-0.4,2.1h-1.6L102.8,10.7z M96.3,16.7l-0.6-3.8
	l-0.6,3.8H96.3z M94.8,10.7h1.8l1.8,9.1h-1.6l-0.4-2.1h-1.6l-0.4,2.1H93L94.8,10.7z M89.6,14.6c0.9,0,1.3-0.4,1.3-1.4
	c0-0.9-0.3-1.4-1.2-1.4h-0.6v2.8L89.6,14.6z M87.5,10.7h2.2c1.8,0,2.9,0.6,2.9,2.4c0,1.1-0.3,1.9-1.1,2.2l1.3,4.5H91l-1.1-4.2h-0.8
	v4.2h-1.7L87.5,10.7L87.5,10.7z M83.8,11.9h-1.4v-1.2H87v1.2h-1.4v7.9h-1.7L83.8,11.9L83.8,11.9z M77.1,10.7h1.2l2.2,5.2v-5.2h1.4
	v9.1h-1.1l-2.2-5.5v5.5h-1.4L77.1,10.7L77.1,10.7z M74.5,17.4v-4.2c0-0.8-0.1-1.3-0.9-1.3s-0.9,0.6-0.9,1.3v4.2
	c0,0.8,0.1,1.4,0.9,1.4C74.4,18.7,74.5,18.1,74.5,17.4L74.5,17.4z M71,17v-3.4c0-1.9,0.7-3,2.6-3c2,0,2.6,1.1,2.6,3V17
	c0,1.8-0.7,3-2.6,3C71.6,20,71,18.8,71,17z M65.2,16.9v-3.3c0-1.9,0.6-3.1,2.6-3.1c1.9,0,2.5,1,2.5,2.6V14h-1.6v-0.8
	c0-0.8,0-1.4-0.9-1.4s-0.9,0.6-0.9,1.5v4c0,1,0.2,1.5,0.9,1.5c0.8,0,0.9-0.6,0.9-1.5v-0.8h1.6v0.7c0,1.6-0.5,2.8-2.5,2.8
	C65.8,20,65.2,18.7,65.2,16.9z M60.4,17.4v-4.2c0-0.8-0.1-1.3-0.9-1.3c-0.8,0-0.9,0.6-0.9,1.3v4.2c0,0.8,0.1,1.4,0.9,1.4
	S60.4,18.1,60.4,17.4z M56.8,17v-3.4c0-1.9,0.7-3,2.6-3c2,0,2.6,1.1,2.6,3V17c0,1.8-0.7,3-2.6,3S56.8,18.8,56.8,17z M54.4,16.7
	l-0.6-3.8l-0.6,3.8H54.4z M53.2,9c-0.3,0-0.4,0.2-0.4,0.5H52C52,8.6,52.2,8,53,8c0.6,0,0.9,0.5,1.4,0.5c0.3,0,0.4-0.2,0.4-0.4h0.7
	c0,0.7-0.1,1.4-0.9,1.4C54.1,9.5,53.7,9,53.2,9L53.2,9z M52.8,10.7h1.8l1.8,9.1h-1.6l-0.4-2.1h-1.6l-0.4,2.1H51L52.8,10.7z M49.1,14
	v-0.8c0-0.8,0-1.4-0.9-1.4s-0.9,0.6-0.9,1.5v4c0,1,0.2,1.5,0.9,1.5c0.8,0,0.9-0.6,0.9-1.5v-0.8h1.6v0.7c0,1.6-0.5,2.7-2.2,2.8v0.6
	c0.8,0,1.4,0.4,1.4,1.1c0,0.8-0.7,1.1-1.5,1.1c-0.3,0-0.6,0-0.8-0.1V22c0.2,0.1,0.4,0.1,0.6,0.1c0.4,0,0.7-0.1,0.7-0.4
	c0-0.4-0.5-0.6-1-0.6v-1c-1.7-0.2-2.2-1.4-2.2-3v-3.2c0-1.9,0.6-3.1,2.6-3.1c1.9,0,2.5,1,2.5,2.6V14C50.6,14,49.1,14,49.1,14z
	 M43.1,16.7l-0.6-3.8l-0.6,3.8H43.1z M41.6,10.7h1.8l1.8,9.1h-1.6l-0.4-2.1h-1.6l-0.4,2.1h-1.6L41.6,10.7z"/>
<path class="st0" d="M20.7,24c0-1.1,0-2.2,0-3.3c0.3,0,0.6,0,0.9,0c1.3,0,2-0.6,2.3-1.9c0.2-1.1,0.3-2.2,0-3.3
	c-0.3-1.2-1.3-1.7-2.4-1.3c-0.8,0.3-1,1-1.1,1.7s-0.1,1.4-0.1,2c0,0.2,0,0.4-0.3,0.4c-1.4,0-2.7,0-4.2,0c0-0.5,0-0.9,0-1.3
	c0.1-0.9,0.1-1.7,0.4-2.5c0.6-2,2-3.3,4-3.8c1.5-0.3,3-0.3,4.4,0.1c2.3,0.7,3.5,2.3,3.9,4.6c0.2,1.2,0.2,2.4-0.2,3.6
	c-0.4,1.4-1.1,2.5-2.5,3c-0.1,0-0.1,0.1-0.1,0.1c0.1,0,0.1,0.1,0.2,0.1c1.4,0.6,2.2,1.8,2.5,3.3c0.4,2,0.3,4.1-0.4,6
	c-0.8,2.2-2.5,3.4-4.8,3.5c-0.9,0.1-1.9,0-2.8-0.1c-1.9-0.3-3.2-1.5-3.9-3.3c-0.5-1.4-0.6-2.9-0.6-4.5c0.3,0,0.7,0,1,0
	c1,0,2,0,3.1,0c0.4,0,0.4,0.1,0.5,0.5c0.1,0.8,0.1,1.7,0.3,2.5c0.3,1.1,1.5,1.6,2.5,1.1c0.7-0.3,0.8-0.9,0.9-1.6
	c0.2-1.2,0.2-2.3-0.1-3.5c-0.3-1.4-1-2-2.4-2.1C21.2,24,21,24,20.7,24z"/>
<path class="st0" d="M8.8,34.6c0-6.4,0-12.7,0-19.1c-1.1,0.4-2.2,0.8-3.4,1.2c0-0.2,0-0.4,0-0.6c0-0.8,0-1.6,0-2.3
	c0-0.3,0.1-0.4,0.3-0.5c1.4-0.6,2.8-1.3,4-2.3c0.1-0.1,0.2-0.1,0.3-0.1c1.1,0,2.2,0,3.4,0c0,7.9,0,15.8,0,23.8
	C11.8,34.6,10.4,34.6,8.8,34.6z"/>
</svg>
