<?xml version="1.0" encoding="utf-8"?>
<!-- Generator: Adobe Illustrator 25.0.0, SVG Export Plug-In . SVG Version: 6.00 Build 0)  -->
<svg version="1.1" id="Layer_1" xmlns="http://www.w3.org/2000/svg" xmlns:xlink="http://www.w3.org/1999/xlink" x="0px" y="0px"
	 viewBox="0 0 125 125" style="enable-background:new 0 0 125 125;" xml:space="preserve">
<style type="text/css">
	.st0{fill:#56C02B;}
</style>
<path class="st0" d="M33.1,64.5c0-3.7,3-6.6,6.6-6.6c0.1,0,0.3,0,0.4,0c0.2-2.7,1.6-5.1,3.8-6.7c2.2-1.6,4.9-2,7.5-1.3
	c2.6,0.7,4.7,2.5,5.8,5c1.1,2.4,1.1,5.2-0.1,7.6c5,1.1,8.4,5.8,7.8,10.9c-0.6,5.1-4.9,8.9-10,8.9c-0.4,0-13.4-0.1-13.4-0.1
	c-2.8,0-5.4-1.7-6.5-4.3c-1.1-2.6-0.6-5.6,1.4-7.7C34.4,69.1,33.1,66.9,33.1,64.5z M64.1,59.6l0,0.3c0,0.2,0.1,0.3,0.3,0.4
	c0.1,0.1,0.3,0.1,0.4,0.1c0,0,0.1,0,0.1,0c0.1,0,0.2-0.1,0.3-0.2c0.3-0.2,1.1-0.5,2.3-0.5c1.2,0,3,0.3,4.8,1.8l0,0
	c0.1,0.1,0.3,0.2,0.5,0.2h0c0.2,0,0.3-0.1,0.5-0.2l0,0c2-2.2,4.2-2.5,5.4-2.5c0.8,0,1.4,0.2,1.6,0.3c0.1,0.1,0.2,0.1,0.3,0.2
	c0.1,0,0.1,0,0.2,0c0,0,0.1,0,0.1,0c0.2-0.1,0.4-0.3,0.3-0.5l0-0.2c0-0.1-0.1-0.3-0.2-0.4c-1.2-1-2.5-1.6-3.9-1.6
	c-2.2,0-3.9,1.3-4.6,1.9c-0.6-0.4-2.2-1.3-4.1-1.3c-1.6,0-3.1,0.7-4.4,2C64.1,59.3,64.1,59.4,64.1,59.6 M77,50.2
	c-0.1,0.1-0.2,0.2-0.3,0.3l-0.1,0.2c0,0.2,0,0.3,0.1,0.5c0.1,0.1,0.2,0.2,0.4,0.2c0,0,0,0,0.1,0c0.1,0,0.2,0,0.3-0.1
	c0.1,0,0.3,0,0.4,0c0.3,0,2.7,0.1,4.4,2.8l0,0c0.1,0.2,0.2,0.3,0.4,0.3c0.1,0,0.1,0,0.2,0c0.1,0,0.2,0,0.3-0.1l0,0
	c0.9-0.4,1.8-0.7,2.7-0.7c1.6,0,2.5,0.6,2.8,0.9c0,0.1,0.1,0.2,0.2,0.2c0.1,0,0.1,0.1,0.2,0.1c0,0,0.1,0,0.1,0c0,0,0,0,0,0
	c0.2,0,0.4-0.2,0.5-0.4l0-0.2c0,0,0-0.1,0-0.1c0-0.1,0-0.2-0.1-0.3c-1.2-2.1-2.9-2.5-4.1-2.5c-0.7,0-1.5,0.1-2.2,0.4
	c-0.6-0.8-2-2.3-4.1-2.3C78.5,49.6,77.7,49.8,77,50.2 M80.8,74.5c-0.8-0.6-2.8-2-5.3-2c-1.8,0-3.4,0.7-4.9,2.1
	c-0.1,0.1-0.2,0.2-0.2,0.4v0.3c0,0.2,0,0.3,0.2,0.4c0.1,0.1,0.3,0.1,0.4,0.1c0,0,0.1,0,0.1,0c0.1,0,0.2-0.1,0.3-0.2
	c0.3-0.2,1.2-0.5,2.5-0.5c1.3,0,3.8,0.3,6.3,2.6l0,0c0.1,0.1,0.3,0.2,0.5,0.2c0.2,0,0.4-0.1,0.5-0.2l0,0c2.5-2.3,5-2.6,6.3-2.6
	c1.2,0,2.1,0.3,2.5,0.5c0.1,0.1,0.2,0.2,0.3,0.2c0.1,0,0.2,0,0.3,0c0.2-0.1,0.4-0.3,0.4-0.5v-0.3c0-0.1-0.1-0.3-0.2-0.4
	c-1.5-1.4-3.2-2.2-5-2.2C83.6,72.5,81.6,73.9,80.8,74.5 M92.4,105.8H31.3c-0.2,0-0.3,0.1-0.3,0.3v3.8c0,0.2,0.1,0.3,0.3,0.3h61.2
	c0.2,0,0.3-0.1,0.3-0.3v-3.8C92.7,105.9,92.6,105.8,92.4,105.8 M92.4,98.4H31.3c-0.2,0-0.3,0.1-0.3,0.3v3.7c0,0.2,0.1,0.3,0.3,0.3
	h61.2c0.2,0,0.3-0.1,0.3-0.3v-3.7C92.7,98.5,92.6,98.4,92.4,98.4 M51.7,84.7c0.2,0,0.3,0.1,0.3,0.3v9.2c0,0.2-0.1,0.3-0.3,0.3H48
	c-0.2,0-0.3-0.1-0.3-0.3V85c0-0.2,0.1-0.3,0.3-0.3H51.7z M81,25.6h3.8v1.2h-2.2v2.6h1.7v1.2h-1.7v3h2.2v1.1H81V25.6z M77.2,29.5
	c0.9,0,1.3-0.4,1.3-1.4c0-0.9-0.3-1.4-1.2-1.4h-0.6v2.8L77.2,29.5z M75,25.6h2.2c1.8,0,2.9,0.6,2.9,2.4c0,1.1-0.3,1.9-1.1,2.2
	l1.3,4.5h-1.7l-1.1-4.2h-0.8v4.2H75L75,25.6L75,25.6z M71.4,26.9H70v-1.2h4.6v1.2h-1.4v7.9h-1.7L71.4,26.9L71.4,26.9z M65.1,32.1
	l1.4-0.3c0,1.1,0.3,1.8,1,1.8c0.5,0,0.8-0.4,0.8-0.9c0-0.8-0.4-1.2-1-1.8l-1.2-1c-0.6-0.6-1.1-1.2-1.1-2.2c0-1.4,0.9-2.3,2.4-2.3
	c1.7,0,2.2,1.2,2.3,2.5l-1.4,0.3c0-0.9-0.2-1.5-0.9-1.5c-0.5,0-0.8,0.4-0.8,0.9c0,0.6,0.3,0.9,0.7,1.4l1.1,1
	c0.7,0.6,1.4,1.4,1.4,2.7c0,1.3-0.9,2.2-2.3,2.2C65.9,34.9,65.1,33.9,65.1,32.1z M60.8,25.6h3.8v1.2h-2.2v2.6h1.7v1.2h-1.7v3h2.2
	v1.1h-3.9V25.6z M57,29.5c0.9,0,1.3-0.4,1.3-1.4c0-0.9-0.3-1.4-1.2-1.4h-0.6v2.8L57,29.5z M54.8,25.6H57c1.8,0,2.9,0.6,2.9,2.4
	c0,1.1-0.3,1.9-1.1,2.2l1.3,4.5h-1.7l-1.1-4.2h-0.8v4.2h-1.7L54.8,25.6L54.8,25.6z M51,29.5c0.9,0,1.3-0.4,1.3-1.4
	c0-0.9-0.3-1.4-1.2-1.4h-0.6v2.8L51,29.5z M48.8,25.6H51c1.8,0,2.9,0.6,2.9,2.4c0,1.1-0.3,1.9-1.1,2.2l1.3,4.5h-1.7l-1.1-4.2h-0.8
	v4.2h-1.7L48.8,25.6L48.8,25.6z M44.3,25.6h3.8v1.2H46v2.6h1.7v1.2H46v3h2.2v1.1h-3.9L44.3,25.6L44.3,25.6z M40.7,26.9h-1.5v-1.2
	h4.5v1.2h-1.4v7.9h-1.7V26.9z M56.9,16.7l-0.6-3.8l-0.6,3.8H56.9z M55.3,10.7h1.8l1.8,9.1h-1.6L57,17.7h-1.6L55,19.8h-1.6L55.3,10.7
	z M50.3,18.7c1.1,0,1.2-0.6,1.2-1.8v-3.5c0-1.1-0.1-1.6-1.2-1.6h-0.5v6.8L50.3,18.7L50.3,18.7z M48.1,10.7h2.2
	c2.2,0,2.9,0.9,2.9,2.8v3.3c0,2-0.7,3-2.8,3h-2.2V10.7z M45.3,10.7H47v9.1h-1.6V10.7z M39.4,10.7h1.5l1.2,6.5l1.1-6.5h1.5l-1.9,9.1
	h-1.6L39.4,10.7z"/>
<path class="st0" d="M19.6,19.9c0.5-0.2,0.9-0.5,1.4-0.7c1-0.4,2.1-0.5,3.2-0.3c1.4,0.3,2.4,1.2,3,2.5c0.6,1.2,0.7,2.5,0.9,3.8
	c0.1,1.8,0,3.6-0.4,5.4c-0.3,1.7-1.2,3.1-2.8,3.8C23.7,35,22.3,35,21,35c-0.6,0-1.1-0.1-1.7-0.3c-1.6-0.4-2.7-1.5-3.2-3.1
	c-0.3-1.1-0.5-2.2-0.4-3.4c0-0.3,0.1-0.4,0.4-0.4c1.2,0,2.4,0,3.5,0c0.3,0,0.3,0.1,0.4,0.3c0.1,0.8,0.2,1.5,0.3,2.3
	c0.2,0.8,0.7,1.3,1.6,1.2c0.7,0,1.3-0.2,1.6-1.1c0.1-0.3,0.2-0.7,0.2-1c0.1-1.5,0.1-3,0.1-4.5c0-0.5-0.1-1.1-0.3-1.6
	c-0.2-0.9-0.8-1.3-1.6-1.3c-0.8,0-1.4,0.3-1.8,1c-0.2,0.3-0.3,0.6-0.3,0.9c-0.1,0.2-0.2,0.3-0.4,0.3c-1,0-2,0-3.1,0
	c-0.3,0-0.4-0.1-0.4-0.4c0-2,0.1-4,0.1-6c0-0.9,0.1-1.8,0.1-2.7c0-1.3,0.1-2.7,0.1-4c0-0.3,0.1-0.3,0.4-0.3c3.4,0,6.8,0,10.2,0
	c0.3,0,0.4,0.1,0.4,0.4c0,1,0,1.9,0,2.9c0,0.4-0.1,0.5-0.5,0.5c-2,0-4,0-6,0c-0.7,0-0.7,0-0.7,0.7c-0.1,1.4-0.2,2.8-0.2,4.3
	C19.6,19.7,19.6,19.8,19.6,19.9z"/>
<path class="st0" d="M8.4,15.5c-1.2,0.4-2.3,0.8-3.4,1.2c0-0.5,0-1,0-1.4c0-0.5,0-1,0-1.5c0-0.2,0.1-0.4,0.3-0.4
	c1.4-0.7,2.8-1.3,4-2.4c0.1-0.1,0.3-0.1,0.5-0.1c0.9,0,1.8,0,2.7,0c0.4,0,0.5,0.1,0.5,0.5c0,2.5,0,4.9,0,7.4c0,5.1,0,10.2,0,15.4
	c0,0.6,0,0.6-0.5,0.6c-1.1,0-2.3,0-3.5,0c-0.4,0-0.5-0.1-0.5-0.5c0-6,0-12,0-18C8.4,15.9,8.4,15.7,8.4,15.5z"/>
</svg>
