<?xml version="1.0" encoding="utf-8"?>
<!-- Generator: Adobe Illustrator 25.0.1, SVG Export Plug-In . SVG Version: 6.00 Build 0)  -->
<svg version="1.1" id="Layer_1" xmlns="http://www.w3.org/2000/svg" xmlns:xlink="http://www.w3.org/1999/xlink" x="0px" y="0px"
	 viewBox="0 0 125 125" style="enable-background:new 0 0 125 125;" xml:space="preserve">
<style type="text/css">
	.st0{fill:#D2D1D3;}
</style>
<path class="st0" d="M37.7,89c-0.3-0.1-0.5-0.1-0.8-0.2C36.9,88.8,37.2,88.9,37.7,89 M86.9,109.8H76c-0.4,0-0.8,0.1-1.1,0.4
	c-0.3,0.3-0.5,0.7-0.5,1.1s0.2,0.8,0.5,1.1c0.3,0.3,0.7,0.4,1.1,0.4h10.9c0.8,0,1.5-0.7,1.5-1.6C88.4,110.5,87.8,109.8,86.9,109.8
	 M86.9,92.7H76c-0.9,0-1.6,0.7-1.6,1.6s0.7,1.6,1.6,1.6h10.9c0.4,0,0.8-0.2,1.1-0.5c0.3-0.3,0.5-0.7,0.5-1.1s-0.2-0.8-0.5-1.1
	C87.8,92.9,87.4,92.7,86.9,92.7 M85.6,69.2c1.5,0.2,2.8-1.1,2.8-1.1s-1-1.5-2.5-1.7s-2.8,1.1-2.8,1.1S84.2,69,85.6,69.2 M88.3,57.4
	c-1.2,1.2-1,3.4-1,3.4s2.1,0.2,3.3-1c1.2-1.2,1-3.4,1-3.4S89.5,56.2,88.3,57.4 M86.2,64.4c0,0,1.3,1.3,2.8,1.2
	c1.5-0.1,2.6-1.6,2.6-1.6s-1.3-1.3-2.8-1.2C87.2,62.8,86.2,64.4,86.2,64.4 M81.1,66.1c0,0,1.2-1.6,0.9-3.2c-0.3-1.6-2.2-2.5-2.2-2.5
	S78.6,62,79,63.6S81.1,66.1,81.1,66.1 M83.1,56.8c0,0-1.2,1.6-0.9,3.2c0.3,1.6,2.2,2.5,2.2,2.5s1.2-1.6,0.9-3.2
	C84.9,57.8,83.1,56.8,83.1,56.8 M72.3,47l1.4-0.3c0,1.1,0.3,1.8,1,1.8c0.5,0,0.8-0.4,0.8-0.9c0-0.8-0.4-1.2-1-1.8l-1.2-1
	c-0.6-0.6-1.1-1.2-1.1-2.2c0-1.4,0.9-2.3,2.4-2.3c1.7,0,2.2,1.2,2.3,2.5l-1.4,0.3c0-0.9-0.2-1.5-0.9-1.5c-0.5,0-0.8,0.4-0.8,0.9
	c0,0.6,0.3,0.9,0.7,1.4l1.1,1c0.7,0.6,1.4,1.4,1.4,2.7s-0.9,2.2-2.3,2.2C73.1,49.8,72.3,48.9,72.3,47z M67.9,40.6h3.8v1.2h-2.2v2.6
	h1.7v1.2h-1.7v3h2.2v1.1h-3.9L67.9,40.6L67.9,40.6z M63,48.6l2.5-6.9h-2.3v-1.2h4v0.9l-2.5,7.2h2.6v1.1H63V48.6L63,48.6z M60.6,46.5
	L60,42.7l-0.6,3.8H60.6z M59,40.6h1.8l1.8,9.1H61l-0.4-2.1H59l-0.4,2.1H57L59,40.6z M51.6,46.8v-3.3c0-1.9,0.6-3.1,2.6-3.1
	c1.9,0,2.5,1,2.5,2.6v0.8h-1.6V43c0-0.8,0-1.4-0.9-1.4s-0.9,0.6-0.9,1.5v4c0,1,0.2,1.5,0.9,1.5c0.8,0,0.9-0.6,0.9-1.5v-0.8h1.6V47
	c0,1.6-0.5,2.8-2.5,2.8C52.3,49.8,51.6,48.6,51.6,46.8z M49,40.6h1.6v9.1H49V40.6z M44.5,40.6h3.7v1.2h-2.1v2.7h1.7v1.2h-1.7v4.2
	h-1.7L44.5,40.6L44.5,40.6z M39.9,40.6h3.8v1.2h-2.2v2.6h1.7v1.2h-1.7v3h2.2v1.1h-3.9L39.9,40.6L39.9,40.6z M91.6,32.1l1.4-0.3
	c0,1.1,0.3,1.8,1,1.8c0.5,0,0.8-0.4,0.8-0.9c0-0.8-0.4-1.2-1-1.8l-1.2-1c-0.6-0.6-1.1-1.2-1.1-2.2c0-1.4,0.9-2.3,2.4-2.3
	c1.7,0,2.2,1.2,2.3,2.5l-1.4,0.3c0-0.9-0.2-1.5-0.9-1.5c-0.5,0-0.8,0.4-0.8,0.9c0,0.6,0.3,0.9,0.7,1.4l1.1,1
	c0.7,0.6,1.4,1.4,1.4,2.7c0,1.3-0.9,2.2-2.3,2.2C92.4,34.9,91.6,33.9,91.6,32.1z M87.2,25.6H91v1.2h-2.2v2.6h1.7v1.2h-1.7v3H91v1.1
	h-3.9L87.2,25.6L87.2,25.6z M84.5,32.3v-4.2c0-0.8-0.1-1.3-0.9-1.3s-0.9,0.6-0.9,1.3v4.2c0,0.8,0.1,1.4,0.9,1.4S84.5,33.1,84.5,32.3
	z M83,23.9c-0.3,0-0.4,0.2-0.4,0.5h-0.8c0-0.8,0.2-1.4,0.9-1.4c0.6,0,0.9,0.5,1.4,0.5c0.3,0,0.4-0.2,0.4-0.4h0.7
	c0,0.7-0.1,1.4-0.9,1.4C83.8,24.4,83.4,23.9,83,23.9z M80.9,31.9v-3.4c0-1.9,0.7-3,2.6-3s2.6,1.1,2.6,3v3.4c0,1.8-0.7,3-2.6,3
	S80.9,33.8,80.9,31.9z M78.5,28.9v-0.8c0-0.8,0-1.4-0.9-1.4s-0.9,0.6-0.9,1.5v4c0,1,0.2,1.5,0.9,1.5c0.8,0,0.9-0.6,0.9-1.5v-0.8h1.6
	v0.7c0,1.6-0.5,2.7-2.2,2.8v0.6c0.8,0,1.4,0.4,1.4,1.1c0,0.8-0.7,1.1-1.5,1.1c-0.3,0-0.6,0-0.8-0.1v-0.7c0.2,0.1,0.4,0.1,0.6,0.1
	c0.4,0,0.7-0.1,0.7-0.4c0-0.4-0.5-0.6-1-0.6v-1c-1.7-0.2-2.2-1.4-2.2-3v-3.3c0-1.9,0.6-3.1,2.6-3.1c1.9,0,2.5,1,2.5,2.6V29
	L78.5,28.9L78.5,28.9z M72.3,25.6H74v9.1h-1.6L72.3,25.6L72.3,25.6z M66.1,31.8v-6.2h1.6V32c0,0.9,0.1,1.6,0.9,1.6s0.9-0.8,0.9-1.6
	v-6.4h1.6v6.2c0,1.9-0.5,3.1-2.6,3.1S66.1,33.7,66.1,31.8z M62.4,26.9H61v-1.2h4.5v1.2h-1.4v7.9h-1.7L62.4,26.9L62.4,26.9z
	 M58.7,25.6h1.6v9.1h-1.6V25.6z M55,26.9h-1.5v-1.2H58v1.2h-1.4v7.9H55V26.9z M48.4,32.1l1.4-0.3c0,1.1,0.3,1.8,1,1.8
	c0.5,0,0.8-0.4,0.8-0.9c0-0.8-0.4-1.2-1-1.8l-1.2-1c-0.6-0.6-1.1-1.2-1.1-2.2c0-1.4,0.9-2.3,2.4-2.3c1.7,0,2.2,1.2,2.3,2.5l-1.4,0.3
	c0-0.9-0.2-1.5-0.9-1.5c-0.5,0-0.8,0.4-0.8,0.9c0,0.6,0.3,0.9,0.7,1.4l1.1,1c0.7,0.6,1.4,1.4,1.4,2.7c0,1.3-0.9,2.2-2.3,2.2
	C49.3,34.9,48.5,33.9,48.4,32.1z M42.8,25.6H44l2.2,5.2v-5.2h1.4v9.1h-1.1l-2.2-5.5v5.5h-1.4L42.8,25.6L42.8,25.6z M39.9,25.6h1.6
	v9.1h-1.6V25.6z M96.6,10.7h3.8v1.2h-2.2v2.6h1.7v1.2h-1.7v3h2.2v1.1h-3.9L96.6,10.7L96.6,10.7z M91.3,16.7l-0.6-3.8L90,16.7H91.3z
	 M89.8,10.7h1.8l1.8,9.1h-1.6l-0.4-2.1h-1.6l-0.4,2.1h-1.6L89.8,10.7z M85.9,14v-0.8c0-0.8,0-1.4-0.9-1.4s-0.9,0.6-0.9,1.5v4
	c0,1,0.2,1.5,0.9,1.5c0.8,0,0.9-0.6,0.9-1.5v-0.8h1.6v0.7c0,1.6-0.5,2.7-2.2,2.8v0.6c0.8,0,1.4,0.4,1.4,1.1c0,0.8-0.7,1.1-1.5,1.1
	c-0.3,0-0.6,0-0.8-0.1V22c0.2,0.1,0.4,0.1,0.6,0.1c0.4,0,0.7-0.1,0.7-0.4c0-0.4-0.5-0.6-1-0.6v-1c-1.7-0.2-2.2-1.4-2.2-3v-3.2
	c0-1.9,0.6-3.1,2.6-3.1c1.9,0,2.5,1,2.5,2.6V14C87.4,14,85.9,14,85.9,14z M79.7,10.7h1.6v9.1h-1.6V10.7z M75.9,11.9h-1.5v-1.2H79
	v1.2h-1.4v7.9h-1.7V11.9z M69.4,17.2l1.4-0.3c0,1.1,0.3,1.8,1,1.8c0.5,0,0.8-0.4,0.8-0.9c0-0.8-0.4-1.2-1-1.8l-1.2-1
	c-0.6-0.6-1.1-1.2-1.1-2.2c0-1.4,0.9-2.3,2.4-2.3c1.7,0,2.2,1.2,2.3,2.5l-1.4,0.3c0-0.9-0.2-1.5-0.9-1.5c-0.5,0-0.8,0.4-0.8,0.9
	c0,0.6,0.3,0.9,0.7,1.4l1.1,1c0.7,0.6,1.4,1.4,1.4,2.7S73.2,20,71.8,20C70.3,20,69.5,19,69.4,17.2z M63.4,16.9v-6.2H65v6.4
	c0,0.9,0.1,1.6,0.9,1.6s0.9-0.8,0.9-1.6v-6.4h1.6v6.2c0,1.9-0.5,3.1-2.6,3.1C64,20,63.4,18.8,63.4,16.9z M59.5,18.9
	c0.9,0,1.2-0.2,1.2-1.1v-7.1h1.7v7.1c0,1.5-0.4,2.3-2.1,2.3h-0.8C59.5,20.1,59.5,18.9,59.5,18.9z M55.2,20.8c0.4-0.1,0.8-0.5,0.7-1
	h-0.8v-1.5h1.5v1.4c0,1-0.4,1.5-1.3,1.7L55.2,20.8z M50.5,18.8l2.5-6.9h-2.3v-1.2h4v0.9l-2.5,7.2h2.5v1.1h-4.1v-1.1H50.5z M48,16.7
	l-0.6-3.8l-0.6,3.8H48z M46.5,10.7h1.8l1.8,9.1h-1.6l-0.4-2.1h-1.6l-0.4,2.1h-1.6L46.5,10.7z M42.2,14.6c0.9,0,1.2-0.3,1.2-1.3
	s-0.1-1.4-1.2-1.4h-0.6v2.7H42.2z M39.9,10.7h2.7c1.6,0,2.3,0.9,2.3,2.6c0,1.8-1,2.5-2.5,2.5h-0.9v4.1h-1.7L39.9,10.7L39.9,10.7z"/>
<path class="st0" d="M34.5,104.2c0,0.8-0.6,1.5-1.3,1.5h-0.8c-0.7,0-1.3-0.7-1.3-1.5v-2.7c0-0.8,0.6-1.5,1.3-1.5h0.8
	c0.7,0,1.3,0.7,1.3,1.5V104.2z M55.4,95.7c0.7,0,1.4,0,2.2-0.1v5.7h-2.2V95.7z M86.5,96.9H76.4c-0.5,0-0.9,0.4-0.9,0.9v3.1l-6.6,0.7
	l-9.7-0.2v-5.9c1.3-0.2,2.6-0.4,3.8-0.8c9.3-2.6,11.3-8.4,11.1-13.8c-0.2-5.4,1.5-7.5,4-8.5c0.7-0.3,1.4-0.4,2.1-0.6
	c0,1.3,0.3,2.9,0.9,4.7c0.2,0,0.4,0,0.6,0c-0.6-1.9-0.9-3.4-0.9-4.8c0.7-0.1,1.5-0.1,2.2-0.1c-0.7-0.4-1.5-0.9-2.1-1.5
	c0.4-2.6,1.9-4.1,3.5-5.8c0.9-0.9,1.8-1.8,2.5-2.9l-0.6-0.3c-0.7,1-1.6,1.9-2.4,2.8c-1.5,1.6-3.1,3.2-3.6,5.7
	c-0.6-0.5-1.1-1-1.6-1.6c-2.3-2.6-5.3-0.7-9.5,3.2c-4.2,3.9-9.5,4.1-14.7-1.2c-6.8-7-12.8-7-16.9-6.6c2.8,1.2,3.8,3.8,5.2,10.4
	c1.5,7,5.2,10.1,10.3,10.6c-2.4,0.4-3,0.7-6.8,3.4c-3,2.1-7.2,1.4-8.9,1c3.1,1,6.8,4.2,10.1,5.4c1.9,0.7,4,1.1,6,1.2v5.6l-18.4-0.4
	v4l33.4-0.7l6.6,0.7v3.1c0,0.5,0.4,0.9,0.9,0.9h10.1c0.5,0,0.9-0.4,0.9-0.9v-9.9C87.4,97.3,87,96.9,86.5,96.9z"/>
<path class="st0" d="M20.3,21.1c1.2-1.3,2.7-1.4,4.2-1.1c1.9,0.3,2.9,1.5,3.5,3.2c0.5,1.4,0.6,2.8,0.5,4.2c-0.1,1.4-0.2,2.8-0.8,4.2
	c-0.9,2.2-2.6,3.3-4.9,3.4c-0.9,0-1.8,0-2.6-0.2c-1.9-0.4-3.1-1.7-3.8-3.5c-0.5-1.1-0.7-2.3-0.7-3.5c0-3.3,0-6.6,0-9.8
	c0-1.4,0.2-2.8,0.8-4.1c0.8-1.9,2.2-2.9,4.3-3.2c1.1-0.2,2.3-0.1,3.4,0.1c2.2,0.4,3.4,1.8,3.8,3.9c0.1,0.6,0.1,1.3,0.2,2
	c0,0.3-0.1,0.3-0.3,0.3c-1.2,0-2.4,0-3.6,0C24,17,24,16.9,24,16.6c-0.1-0.5-0.1-1-0.2-1.5c-0.2-0.7-0.6-1-1.2-1.1
	c-0.9-0.1-1.4,0.2-1.7,0.8c-0.2,0.4-0.3,0.9-0.3,1.3C20.5,17.7,20.5,19.4,20.3,21.1C20.2,21.1,20.2,21.1,20.3,21.1z M20.2,26.8
	c0,0.5,0,1.1,0,1.6c0.1,0.6,0.1,1.3,0.3,1.9c0.1,0.6,0.5,1.1,1.1,1.3c1,0.3,1.8-0.2,2-1.3c0.4-1.8,0.4-3.6,0.1-5.3
	c-0.2-1.2-0.9-1.8-1.9-1.6c-0.6,0.1-1.1,0.3-1.5,0.8c-0.1,0.2-0.2,0.4-0.2,0.6C20.2,25.4,20.2,26.1,20.2,26.8z"/>
<path class="st0" d="M8.6,34.6c0-6.4,0-12.7,0-19.1c-1.2,0.4-2.3,0.8-3.4,1.2c0-0.2-0.1-0.3-0.1-0.4c0-0.9,0-1.7,0-2.5
	c0-0.3,0.1-0.4,0.3-0.5c1.4-0.6,2.8-1.3,4-2.4c0.1-0.1,0.3-0.1,0.4-0.1c0.9,0,1.9,0,2.8,0c0.3,0,0.4,0.1,0.4,0.4c0,1.3,0,2.6,0,3.9
	c0,6.3,0,12.6,0,18.9c0,0.6,0,0.6-0.6,0.6c-1.1,0-2.3,0-3.4,0C8.9,34.7,8.8,34.6,8.6,34.6z"/>
</svg>
