<?xml version="1.0" encoding="utf-8"?>
<!-- Generator: Adobe Illustrator 25.0.0, SVG Export Plug-In . SVG Version: 6.00 Build 0)  -->
<svg version="1.1" id="Layer_1" xmlns="http://www.w3.org/2000/svg" xmlns:xlink="http://www.w3.org/1999/xlink" x="0px" y="0px"
	 viewBox="0 0 125 125" style="enable-background:new 0 0 125 125;" xml:space="preserve">
<style type="text/css">
	.st0{fill:#19486A;}
</style>
<path class="st0" d="M74.4,77c3.4-3.1,5.3-7.5,5.3-12c0-0.7,0-1.4-0.1-2.1c5.1,0.6,9.4,4.1,11,9c1.6,4.9,0.2,10.3-3.7,13.7
	C84.4,80.9,79.7,77.7,74.4,77 M85.5,93.3c0,4.7-2.5,9-6.5,11.3c-4,2.3-9,2.4-13.1,0.1c2.9-3,4.5-7.1,4.5-11.3c0-1.1-0.1-2.1-0.3-3.1
	c4.7,2.6,10.3,2.8,15.1,0.4C85.4,91.5,85.5,92.4,85.5,93.3 M41,93.4c0-0.9,0.1-1.8,0.3-2.7c4.8,2.3,10.4,2.2,15-0.4
	c-1,5.2,0.6,10.6,4.4,14.4c-4.1,2.4-9.1,2.4-13.1,0.1S40.9,98.1,41,93.4 M35.3,75.9c0-6.7,5-12.3,11.7-13c-0.1,0.7-0.1,1.4-0.1,2.1
	c0,4.6,1.9,9,5.4,12.1c-5.3,0.6-10,3.8-12.6,8.5C36.9,83.1,35.3,79.6,35.3,75.9 M63.2,51.9c5.2,0,9.9,3.1,12,7.9
	c-5.3,0.9-9.7,4.4-12,9.2c-2.3-4.8-6.7-8.3-12-9.2C53.3,55,58,51.9,63.2,51.9 M66.4,81.7c3.1-1.6,6.8-1.9,10.1-0.9
	c3.4,1.1,6.1,3.5,7.7,6.7c-3.1,1.6-6.8,1.9-10.1,0.9C70.7,87.3,67.9,84.9,66.4,81.7 M60.1,81.8c-1.6,3.1-4.3,5.5-7.6,6.6
	s-7,0.8-10.1-0.8c1.6-3.1,4.3-5.5,7.7-6.6C53.3,79.8,57,80.1,60.1,81.8 M50.3,63c3.4,0.5,6.6,2.3,8.7,5.2c2.1,2.8,2.9,6.3,2.4,9.8
	c-3.4-0.5-6.6-2.3-8.7-5.2C50.6,70,49.7,66.4,50.3,63 M63.3,102.7c-2.5-2.4-4-5.8-4-9.3c0-3.5,1.4-6.9,3.9-9.4c2.5,2.4,4,5.8,4,9.3
	C67.2,96.8,65.8,100.2,63.3,102.7 M76.3,65c0,6.5-4.8,12-11.2,12.9c-0.6-3.4,0.3-7,2.4-9.8c2.1-2.8,5.2-4.7,8.6-5.2
	C76.3,63.6,76.3,64.3,76.3,65 M94.5,75.9c0-8.8-7-16.1-15.8-16.4c-2.3-6.6-8.5-10.9-15.5-10.9s-13.1,4.4-15.5,10.9
	c-6.9,0.3-12.9,4.8-15,11.3c-2.1,6.6,0.1,13.8,5.5,18c-1.9,6.6,0.5,13.8,6.1,17.8s13.2,4.1,18.9,0.2c5.7,3.8,13.2,3.7,18.8-0.4
	c5.6-4.1,8-11.1,6.1-17.7C92.2,85.7,94.5,80.9,94.5,75.9 M112.8,32.3v-4.2c0-0.8-0.1-1.3-0.9-1.3c-0.8,0-0.9,0.6-0.9,1.3v4.2
	c0,0.8,0.1,1.4,0.9,1.4C112.7,33.7,112.8,33.1,112.8,32.3z M109.3,31.9v-3.4c0-1.9,0.7-3,2.6-3s2.6,1.1,2.6,3v3.4c0,1.8-0.7,3-2.6,3
	S109.3,33.8,109.3,31.9z M106.7,31.6l-0.6-3.8l-0.6,3.8H106.7z M105.6,23.9c-0.3,0-0.4,0.2-0.4,0.5h-0.8c0-0.8,0.2-1.4,0.9-1.4
	c0.6,0,0.9,0.5,1.4,0.5c0.3,0,0.4-0.2,0.4-0.4h0.7c0,0.7-0.1,1.4-0.9,1.4C106.4,24.4,106,23.9,105.6,23.9L105.6,23.9z M105.2,25.6
	h1.8l1.8,9.1h-1.6l-0.4-2.1h-1.6l-0.4,2.1h-1.6L105.2,25.6z M101.3,28.9v-0.8c0-0.8,0-1.4-0.9-1.4s-0.9,0.6-0.9,1.5v4
	c0,1,0.2,1.5,0.9,1.5c0.8,0,0.9-0.6,0.9-1.5v-0.8h1.6v0.7c0,1.6-0.5,2.7-2.2,2.8v0.6c0.8,0,1.4,0.4,1.4,1.1c0,0.8-0.7,1.1-1.5,1.1
	c-0.3,0-0.6,0-0.8-0.1v-0.7c0.2,0.1,0.4,0.1,0.6,0.1c0.4,0,0.7-0.1,0.7-0.4c0-0.4-0.5-0.6-1-0.6v-1c-1.7-0.2-2.2-1.4-2.2-3v-3.3
	c0-1.9,0.6-3.1,2.6-3.1c1.9,0,2.5,1,2.5,2.6v0.8L101.3,28.9L101.3,28.9z M95.3,31.6l-0.6-3.8l-0.6,3.8H95.3z M93.8,25.6h1.8l1.8,9.1
	h-1.6l-0.4-2.1h-1.6l-0.4,2.1h-1.6L93.8,25.6z M89,26.9h-1.5v-1.2H92v1.2h-1.4v7.9H89V26.9z M82.2,25.6h1.2l2.2,5.2v-5.2h1.4v9.1
	h-1.1l-2.2-5.5v5.5h-1.4L82.2,25.6L82.2,25.6z M77.6,25.6h3.8v1.2h-2.2v2.6h1.7v1.2h-1.7v3h2.2v1.1h-3.9V25.6z M70.2,25.6H72
	l1.3,6.3l1.3-6.3h1.7l0.2,9.1h-1.2l-0.1-6.3l-1.3,6.3h-1l-1.3-6.4l-0.1,6.4h-1.2L70.2,25.6z M65.5,25.6h3.8v1.2h-2.2v2.6h1.7v1.2
	h-1.7v3h2.2v1.1h-3.9V25.6z M61,25.6h1.7v8h2.2v1.1H61L61,25.6L61,25.6z M57.6,29.5c0.9,0,1.2-0.3,1.2-1.3s-0.1-1.4-1.2-1.4H57v2.7
	C57,29.5,57.6,29.5,57.6,29.5z M55.3,25.6H58c1.6,0,2.3,0.9,2.3,2.6c0,1.8-1,2.5-2.5,2.5H57v4.1h-1.6V25.6z M48,25.6h1.7l1.3,6.3
	l1.3-6.3h1.7l0.2,9.1H53l-0.1-6.3l-1.3,6.3h-1l-1.3-6.4l-0.1,6.4h-1.2L48,25.6z M45,25.6h1.6v9.1H45V25.6z M37.9,25.6h3.8v1.2h-2.2
	v2.6h1.7v1.2h-1.7v3h2.2v1.1h-3.9L37.9,25.6L37.9,25.6z M34.1,33.6c1.1,0,1.2-0.6,1.2-1.8v-3.5c0-1.1-0.1-1.6-1.2-1.6h-0.5v6.8
	L34.1,33.6z M31.9,25.6h2.2c2.2,0,2.9,0.9,2.9,2.8v3.3c0,2-0.7,3-2.8,3h-2.2V25.6z M109.4,17.2l1.4-0.3c0,1.1,0.3,1.8,1,1.8
	c0.5,0,0.8-0.4,0.8-0.9c0-0.8-0.4-1.2-1-1.8l-1.2-1c-0.6-0.6-1.1-1.2-1.1-2.2c0-1.4,0.9-2.3,2.4-2.3c1.7,0,2.2,1.2,2.3,2.5l-1.4,0.3
	c0-0.9-0.2-1.5-0.9-1.5c-0.5,0-0.8,0.4-0.8,0.9c0,0.6,0.3,0.9,0.7,1.4l1.1,1c0.7,0.6,1.4,1.4,1.4,2.7c0,1.3-0.9,2.2-2.3,2.2
	C110.3,20,109.5,19,109.4,17.2z M107,17.4v-4.2c0-0.8-0.1-1.3-0.9-1.3c-0.8,0-0.9,0.6-0.9,1.3v4.2c0,0.8,0.1,1.4,0.9,1.4
	C106.9,18.7,107,18.1,107,17.4z M103.4,17v-3.4c0-1.9,0.7-3,2.6-3c2,0,2.6,1.1,2.6,3V17c0,1.8-0.7,3-2.6,3
	C104.1,20,103.4,18.8,103.4,17z M100.7,10.7h1.6v9.1h-1.6V10.7z M96.1,10.7h3.8v1.2h-2.2v2.6h1.7v1.2h-1.7v3h2.2v1.1h-3.9V10.7z
	 M88.8,10.7h1.7l1.3,6.3l1.3-6.3h1.7l0.2,9.1h-1.2l-0.1-6.3l-1.3,6.3h-1L90,13.5l-0.1,6.4h-1.2L88.8,10.7z M81.6,10.7h3.8v1.2h-2.2
	v2.6H85v1.2h-1.7v3h2.2v1.1h-3.9V10.7z M73.5,17.2l1.4-0.3c0,1.1,0.3,1.8,1,1.8c0.5,0,0.8-0.4,0.8-0.9c0-0.8-0.4-1.2-1-1.8l-1.2-1
	c-0.6-0.6-1.1-1.2-1.1-2.2c0-1.4,0.9-2.3,2.4-2.3c1.7,0,2.2,1.2,2.3,2.5l-1.4,0.3c0-0.9-0.2-1.5-0.9-1.5c-0.5,0-0.8,0.4-0.8,0.9
	c0,0.6,0.3,0.9,0.7,1.4l1.1,1c0.7,0.6,1.4,1.4,1.4,2.7c0,1.3-0.9,2.2-2.3,2.2C74.4,20,73.6,19,73.5,17.2z M71.1,16.7l-0.6-3.8
	l-0.6,3.8H71.1z M69.5,10.7h1.8l1.8,9.1h-1.6l-0.4-2.1h-1.6l-0.4,2.1h-1.6L69.5,10.7z M65.3,10.7H67v9.1h-1.6V10.7z M61.4,14.6
	c0.9,0,1.3-0.4,1.3-1.4c0-0.9-0.3-1.4-1.2-1.4h-0.6v2.8L61.4,14.6z M59.2,10.7h2.2c1.8,0,2.9,0.6,2.9,2.4c0,1.1-0.3,1.9-1.1,2.2
	l1.3,4.5h-1.7l-1.1-4.2h-0.8v4.2h-1.7L59.2,10.7L59.2,10.7z M54.7,10.7h3.8v1.2h-2.2v2.6H58v1.2h-1.7v3h2.2v1.1h-3.9L54.7,10.7
	L54.7,10.7z M48.7,16.9v-3.3c0-1.9,0.6-3.1,2.6-3.1c1.9,0,2.5,1,2.5,2.6V14h-1.6v-0.8c0-0.8,0-1.4-0.9-1.4c-0.9,0-0.9,0.6-0.9,1.5v4
	c0,1,0.2,1.5,0.9,1.5c0.8,0,0.9-0.6,0.9-1.5v-0.8h1.6v0.7c0,1.6-0.5,2.8-2.5,2.8C49.3,20,48.7,18.7,48.7,16.9z M45,14.6
	c0.9,0,1.3-0.4,1.3-1.4c0-0.9-0.3-1.4-1.2-1.4h-0.6v2.8L45,14.6z M42.8,10.7H45c1.8,0,2.9,0.6,2.9,2.4c0,1.1-0.3,1.9-1.1,2.2
	l1.3,4.5h-1.7l-1.1-4.2h-0.8v4.2h-1.7L42.8,10.7L42.8,10.7z M40,16.7l-0.6-3.8l-0.6,3.8H40z M38.5,10.7h1.8l1.8,9.1h-1.6l-0.4-2.1
	h-1.6l-0.4,2.1h-1.6L38.5,10.7z M34.2,14.6c0.9,0,1.2-0.3,1.2-1.3s-0.1-1.4-1.2-1.4h-0.6v2.7H34.2z M31.9,10.7h2.7
	c1.6,0,2.3,0.9,2.3,2.6c0,1.8-1,2.5-2.5,2.5h-0.9v4.1h-1.7V10.7z"/>
<path class="st0" d="M17.5,34.7c1.7-6.8,3.3-13.5,5-20.4c-2.2,0-4.3,0-6.5,0c0-1.2,0-2.3,0-3.4c3.6,0,7.2,0,10.9,0
	c0,0.2,0,0.3,0,0.5c0.2,2-0.3,3.9-0.8,5.9C24.7,23,23.3,28.7,22,34.4c-0.1,0.3-0.2,0.4-0.5,0.4c-1.2,0-2.4,0-3.6,0
	C17.8,34.7,17.7,34.7,17.5,34.7z"/>
<path class="st0" d="M8.8,34.7c0-6.4,0-12.7,0-19.1c-1.2,0.4-2.3,0.8-3.5,1.2c0-0.3,0-0.6,0-0.8c0-0.7,0-1.5,0-2.3
	c0-0.2,0.1-0.3,0.3-0.4C7,12.7,8.5,12,9.7,10.9c0.1-0.1,0.1-0.1,0.2-0.1c1.1,0,2.3,0,3.4,0c0,8,0,15.9,0,23.8
	C11.8,34.7,10.3,34.7,8.8,34.7z"/>
</svg>
