<?xml version="1.0" encoding="utf-8"?>
<!-- Generator: Adobe Illustrator 25.0.0, SVG Export Plug-In . SVG Version: 6.00 Build 0)  -->
<svg version="1.1" id="Layer_1" xmlns="http://www.w3.org/2000/svg" xmlns:xlink="http://www.w3.org/1999/xlink" x="0px" y="0px"
	 viewBox="0 0 125 125" style="enable-background:new 0 0 125 125;" xml:space="preserve">
<style type="text/css">
	.st0{fill:#DDA83A;}
</style>
<path class="st0" d="M45.9,56.7c-0.3,0.4-6.7,9.6,0.1,17c3.1,3.4,2.8,6.4,2,8.5h4.4c0.9-3,0.5-6.8-3-10.6c-5-5.5,0.1-12.9,0.1-13
	c0.6-0.8,0.3-1.9-0.7-2.5C47.8,55.6,46.5,55.9,45.9,56.7 M61.2,82.2h4.4c0.9-3,0.5-6.8-3-10.6c-5-5.5,0.1-12.9,0.1-13
	c0.6-0.8,0.3-1.9-0.7-2.4c-1-0.5-2.3-0.2-2.9,0.6c-0.3,0.4-6.7,9.6,0.1,17C62.3,77.2,62.1,80.2,61.2,82.2 M72.2,56.7
	c-0.3,0.4-6.7,9.6,0.1,17c3.1,3.4,2.8,6.4,2,8.5h4.4c0.9-3,0.5-6.8-3-10.6c-5-5.5,0.1-12.9,0.1-13c0.6-0.9,0.3-1.9-0.7-2.5
	C74.1,55.6,72.8,55.9,72.2,56.7 M49.8,111.1v1.8c0,0,0,0,0,0c0,0,0,0,0,0c0,0.4,0.4,0.8,0.8,0.8h20.9c0.5,0,0.8-0.4,0.8-0.8v-2
	C83.9,107,92.7,97.6,94.6,86c0,0,0,0,0-0.1c0,0,0-0.1,0-0.1c0-0.5-0.4-0.8-0.8-0.8H27.6c-0.5,0-0.8,0.4-0.8,0.8l0,0.4
	C28.8,97.8,37.8,107.4,49.8,111.1 M86.4,40.6h1.7v8h2.2v1.1h-3.9L86.4,40.6L86.4,40.6z M81.6,40.6h3.8v1.2h-2.2v2.6H85v1.2h-1.7v3
	h2.2v1.1h-3.9V40.6z M75.4,40.6h1.5l1.2,6.5l1.1-6.5h1.5l-1.8,9.1h-1.6L75.4,40.6z M72.9,37.7h1.6L73.1,40h-0.9L72.9,37.7z
	 M73.3,46.5l-0.6-3.8L72,46.5H73.3z M71.8,40.6h1.8l1.8,9.1h-1.6l-0.4-2.1h-1.6l-0.4,2.1h-1.6L71.8,40.6z M66.7,41.8h-1.5v-1.2h4.5
	v1.2h-1.4v7.9h-1.7V41.8z M59.7,40.6h1.2l2.2,5.2v-5.2h1.4v9.1h-1.1l-2.2-5.5v5.5h-1.4V40.6z M55,40.6h3.8v1.2h-2.2v2.6h1.7v1.2
	h-1.7v3h2.2v1.1H55L55,40.6L55,40.6z M51.1,41.8h-1.5v-1.2h4.5v1.2h-1.4v7.9h-1.7V41.8z M44.4,47l1.4-0.3c0,1.1,0.3,1.8,1,1.8
	c0.5,0,0.8-0.4,0.8-0.9c0-0.8-0.4-1.2-1-1.8l-1.2-1c-0.6-0.6-1.1-1.2-1.1-2.2c0-1.4,0.9-2.3,2.4-2.3c1.7,0,2.2,1.2,2.3,2.5l-1.4,0.3
	c0-0.9-0.2-1.5-0.9-1.5c-0.5,0-0.8,0.4-0.8,0.9c0,0.6,0.3,0.9,0.7,1.4l1.1,1c0.7,0.6,1.4,1.4,1.4,2.7c0,1.3-0.9,2.2-2.3,2.2
	C45.3,49.8,44.5,48.9,44.4,47z M38.3,46.7v-6.2h1.6v6.4c0,0.9,0.1,1.6,0.9,1.6c0.9,0,0.9-0.8,0.9-1.6v-6.4h1.6v6.2
	c0,1.9-0.5,3.1-2.6,3.1S38.3,48.7,38.3,46.7z M32.6,47l1.4-0.3c0,1.1,0.3,1.8,1,1.8c0.5,0,0.8-0.4,0.8-0.9c0-0.8-0.4-1.2-1-1.8
	l-1.2-1c-0.6-0.6-1.1-1.2-1.1-2.2c0-1.4,0.9-2.3,2.4-2.3c1.7,0,2.2,1.2,2.3,2.5l-1.4,0.3c0-0.9-0.2-1.5-0.9-1.5
	c-0.5,0-0.8,0.4-0.8,0.9c0,0.6,0.3,0.9,0.7,1.4l1.1,1c0.7,0.6,1.4,1.4,1.4,2.7c0,1.3-0.9,2.2-2.3,2.2C33.4,49.8,32.6,48.9,32.6,47z
	 M98.5,31.6l-0.6-3.8l-0.6,3.8H98.5z M96.9,25.6h1.8l1.8,9.1H99l-0.4-2.1H97l-0.4,2.1h-1.6L96.9,25.6z M91.5,29.5
	c0.9,0,1.3-0.4,1.3-1.4c0-0.9-0.3-1.4-1.2-1.4H91v2.8L91.5,29.5z M89.3,25.6h2.2c1.8,0,2.9,0.6,2.9,2.4c0,1.1-0.3,1.9-1.1,2.2
	l1.3,4.5h-1.7l-1.1-4.2H91v4.2h-1.7V25.6z M82.9,31.8v-6.2h1.6V32c0,0.9,0.1,1.6,0.9,1.6s0.9-0.8,0.9-1.6v-6.4h1.6v6.2
	c0,1.9-0.5,3.1-2.6,3.1S82.9,33.7,82.9,31.8z M79.1,26.9h-1.5v-1.2h4.5v1.2h-1.4v7.9h-1.7L79.1,26.9L79.1,26.9z M74,25.6h1.7v8h2.2
	v1.1H74L74,25.6L74,25.6z M67.5,31.8v-6.2h1.6V32c0,0.9,0.1,1.6,0.9,1.6s0.9-0.8,0.9-1.6v-6.4h1.6v6.2c0,1.9-0.5,3.1-2.6,3.1
	C68.1,34.9,67.5,33.7,67.5,31.8z M61.4,31.9v-3.3c0-1.9,0.6-3.1,2.6-3.1c1.9,0,2.5,1,2.5,2.6v0.8h-1.6v-0.8c0-0.8,0-1.4-0.9-1.4
	c-0.9,0-0.9,0.6-0.9,1.5v4c0,1,0.2,1.5,0.9,1.5c0.8,0,0.9-0.6,0.9-1.5v-0.8h1.6v0.7c0,1.6-0.5,2.8-2.5,2.8
	C62,34.9,61.4,33.6,61.4,31.9z M58.6,25.6h1.6v9.1h-1.6V25.6z M54.4,29.5c0.9,0,1.3-0.4,1.3-1.4c0-0.9-0.3-1.4-1.2-1.4h-0.6v2.8
	L54.4,29.5z M52.3,25.6h2.2c1.8,0,2.9,0.6,2.9,2.4c0,1.1-0.3,1.9-1.1,2.2l1.3,4.5h-1.7l-1.1-4.2h-0.8v4.2h-1.7L52.3,25.6L52.3,25.6z
	 M45.9,31.8v-3.1c0-2,0.6-3.1,2.6-3.1c1.9,0,2.5,1,2.5,2.7v0.5h-1.6v-0.5c0-0.9-0.1-1.4-0.9-1.4c-0.9,0-0.9,0.7-0.9,1.6v3.8
	c0,0.9,0.2,1.6,1,1.6s1-0.6,1-1.6v-0.9h-1v-1H51v4.6h-1.1l-0.1-0.9c-0.2,0.6-0.9,1.1-1.6,1C46.5,34.9,45.9,33.7,45.9,31.8z
	 M43.1,31.6l-0.6-3.8l-0.6,3.8H43.1z M41.6,25.6h1.8l1.8,9.1h-1.6l-0.4-2.1h-1.6l-0.4,2.1h-1.5L41.6,25.6z M32.8,25.6h3.8v1.2h-2.2
	v2.6h1.7v1.2h-1.7v3h2.2v1.1h-3.8L32.8,25.6L32.8,25.6z M78,17.4v-4.2c0-0.8-0.1-1.3-0.9-1.3c-0.8,0-0.9,0.6-0.9,1.3v4.2
	c0,0.8,0.1,1.4,0.9,1.4C77.9,18.7,78,18.1,78,17.4L78,17.4z M74.4,17v-3.4c0-1.9,0.7-3,2.6-3c2,0,2.6,1.1,2.6,3V17
	c0,1.8-0.7,3-2.6,3C75.1,20,74.4,18.8,74.4,17z M70.5,14.6c0.9,0,1.3-0.4,1.3-1.4c0-0.9-0.3-1.4-1.2-1.4H70v2.8L70.5,14.6z
	 M68.3,10.7h2.2c1.8,0,2.9,0.6,2.9,2.4c0,1.1-0.3,1.9-1.1,2.2l1.3,4.5h-1.7l-1.1-4.2H70v4.2h-1.7L68.3,10.7z M63.6,10.7h3.8v1.2
	h-2.2v2.6h1.7v1.2h-1.7v3h2.2v1.1h-3.9V10.7z M58.5,18.8l2.5-6.9h-2.3v-1.2h4v0.9l-2.5,7.2h2.6v1.1h-4.1L58.5,18.8L58.5,18.8z
	 M51.4,10.7h3.8v1.2H53v2.6h1.7v1.2H53v3h2.2v1.1h-3.9L51.4,10.7L51.4,10.7z M43.8,10.7h1.7l1.3,6.3l1.3-6.3h1.7l0.2,9.1h-1.2
	l-0.1-6.3l-1.3,6.3h-1l-1.3-6.4L45,19.8h-1.2L43.8,10.7z M40.8,17.4v-4.2c0-0.8-0.1-1.3-0.9-1.3S39,12.4,39,13.2v4.2
	c0,0.8,0.1,1.4,0.9,1.4C40.7,18.7,40.8,18.1,40.8,17.4L40.8,17.4z M37.3,17v-3.4c0-1.9,0.7-3,2.6-3s2.6,1.1,2.6,3V17
	c0,1.8-0.7,3-2.6,3C38,20,37.3,18.8,37.3,17z M32.8,10.7h3.8v1.2h-2.1v2.7h1.7v1.2h-1.7v4.2h-1.6L32.8,10.7L32.8,10.7z M9.6,31.4
	l5.8-9c1.3-2,2.5-3.6,2.5-5.8c0-1.5-0.6-2.4-1.7-2.4c-1.7,0-2.2,1.6-2.2,3.5v1.1H9.6v-1.2c0-4.2,1.8-7.3,6.5-7.3
	c4.2,0,6.3,2.3,6.3,6.3c0,2.9-1.5,5-3.1,7.4L14.7,31h7.1v3.6H9.6V31.4z"/>
</svg>
