<?xml version="1.0" encoding="utf-8"?>
<!-- Generator: Adobe Illustrator 25.0.1, SVG Export Plug-In . SVG Version: 6.00 Build 0)  -->
<svg version="1.1" id="Layer_1" xmlns="http://www.w3.org/2000/svg" xmlns:xlink="http://www.w3.org/1999/xlink" x="0px" y="0px"
	 viewBox="0 0 125 125" style="enable-background:new 0 0 125 125;" xml:space="preserve">
<style type="text/css">
	.st0{fill:#D2D1D3;}
</style>
<path class="st0" d="M45.8,56.6c-0.3,0.4-6.7,9.6,0.1,17c3.1,3.4,2.8,6.4,2,8.5h4.4c0.9-3,0.5-6.7-3-10.6c-5-5.5,0.1-12.9,0.1-13
	c0.6-0.8,0.3-1.9-0.7-2.4C47.7,55.5,46.4,55.8,45.8,56.6 M61,82.1h4.4c0.9-3,0.5-6.7-3-10.6c-5-5.5,0.1-12.9,0.1-13
	c0.6-0.8,0.3-1.9-0.7-2.4s-2.3-0.2-2.9,0.6c-0.3,0.4-6.7,9.6,0.1,17C62.2,77,61.9,80,61,82.1 M72.1,56.6c-0.3,0.4-6.7,9.6,0.1,17
	c3.1,3.4,2.8,6.4,2,8.5h4.4c0.9-3,0.5-6.8-3-10.6c-5-5.5,0.1-12.9,0.1-13c0.6-0.9,0.3-1.9-0.7-2.4C74,55.5,72.7,55.8,72.1,56.6
	 M49.7,110.8v1.8l0,0l0,0c0,0.4,0.4,0.8,0.8,0.8h20.8c0.5,0,0.8-0.4,0.8-0.8v-2c11.7-3.8,20.4-13.3,22.3-24.8c0,0,0,0,0-0.1v-0.1
	c0-0.5-0.4-0.8-0.8-0.8h-66c-0.5,0-0.8,0.4-0.8,0.8V86C28.8,97.7,37.7,107.2,49.7,110.8 M86.2,40.5h1.7v8h2.2v1.1h-3.9L86.2,40.5
	L86.2,40.5z M81.5,40.5h3.8v1.2h-2.2v2.6h1.7v1.2h-1.7v3h2.2v1.1h-3.9L81.5,40.5L81.5,40.5z M75.3,40.5h1.5l1.2,6.4l1.1-6.4h1.5
	l-1.8,9.1h-1.6L75.3,40.5z M72.7,37.6h1.6L73,39.9h-0.9L72.7,37.6z M73.1,46.4l-0.6-3.8l-0.6,3.8H73.1z M71.6,40.5h1.8l1.8,9.1h-1.5
	l-0.4-2.1h-1.6l-0.4,2.1h-1.6L71.6,40.5z M66.6,41.7h-1.5v-1.2h4.5v1.2h-1.4v7.9h-1.7L66.6,41.7L66.6,41.7z M59.6,40.5h1.2l2.2,5.2
	v-5.2h1.4v9.1h-1.1L61,44.1v5.5h-1.4V40.5z M54.8,40.5h3.8v1.2h-2.2v2.6h1.7v1.2h-1.7v3h2.2v1.1h-3.9L54.8,40.5L54.8,40.5z M51,41.7
	h-1.5v-1.2H54v1.2h-1.4v7.9H51V41.7z M44.3,46.9l1.4-0.3c0,1.1,0.3,1.8,1,1.8c0.5,0,0.8-0.4,0.8-0.9c0-0.8-0.4-1.2-1-1.8l-1.2-1
	c-0.6-0.6-1.1-1.2-1.1-2.2c0-1.4,0.9-2.3,2.4-2.3c1.7,0,2.2,1.2,2.3,2.5L47.5,43c0-0.9-0.2-1.5-0.9-1.5c-0.5,0-0.8,0.4-0.8,0.9
	c0,0.6,0.3,0.9,0.7,1.4l1.1,1c0.7,0.6,1.4,1.4,1.4,2.7s-0.9,2.2-2.3,2.2C45.2,49.7,44.4,48.8,44.3,46.9z M38.2,46.6v-6.2h1.6v6.4
	c0,0.9,0.1,1.6,0.9,1.6c0.9,0,0.9-0.8,0.9-1.6v-6.4h1.6v6.2c0,1.9-0.5,3.1-2.6,3.1C38.7,49.7,38.2,48.6,38.2,46.6z M32.5,46.9
	l1.4-0.3c0,1.1,0.3,1.8,1,1.8c0.5,0,0.8-0.4,0.8-0.9c0-0.8-0.4-1.2-1-1.8l-1.2-1c-0.6-0.6-1.1-1.2-1.1-2.2c0-1.4,0.9-2.3,2.4-2.3
	c1.7,0,2.2,1.2,2.3,2.5L35.7,43c0-0.9-0.2-1.5-0.9-1.5c-0.5,0-0.8,0.4-0.8,0.9c0,0.6,0.3,0.9,0.7,1.4l1.1,1c0.7,0.6,1.4,1.4,1.4,2.7
	s-0.9,2.2-2.3,2.2C33.4,49.7,32.6,48.8,32.5,46.9z M98.3,31.5l-0.6-3.8L97,31.5H98.3z M96.7,25.6h1.8l1.8,9.1h-1.5l-0.4-2.1h-1.6
	l-0.4,2.1h-1.6L96.7,25.6z M91.3,29.5c0.9,0,1.3-0.4,1.3-1.4c0-0.9-0.3-1.4-1.2-1.4h-0.6v2.8H91.3z M89.1,25.6h2.2
	c1.8,0,2.9,0.6,2.9,2.4c0,1.1-0.3,1.8-1.1,2.2l1.3,4.5h-1.7l-1.1-4.2h-0.8v4.2h-1.7C89.1,34.7,89.1,25.6,89.1,25.6z M82.8,31.7v-6.2
	h1.6v6.4c0,0.9,0.1,1.6,0.9,1.6s0.9-0.8,0.9-1.6v-6.4h1.6v6.2c0,1.9-0.5,3.1-2.6,3.1S82.8,33.7,82.8,31.7z M78.9,26.8h-1.5v-1.2H82
	v1.2h-1.4v7.9H79L78.9,26.8L78.9,26.8z M73.8,25.6h1.7v8h2.2v1.1h-3.9L73.8,25.6L73.8,25.6z M67.4,31.7v-6.2H69v6.4
	c0,0.9,0.1,1.6,0.9,1.6c0.9,0,0.9-0.8,0.9-1.6v-6.4h1.6v6.2c0,1.9-0.5,3.1-2.6,3.1C67.9,34.8,67.4,33.7,67.4,31.7z M61.3,31.8v-3.3
	c0-1.9,0.6-3,2.6-3c1.9,0,2.5,1,2.5,2.6v0.8h-1.6v-0.8c0-0.8,0-1.4-0.9-1.4S63,27.3,63,28.2v4c0,1,0.2,1.5,0.9,1.5
	c0.8,0,0.9-0.6,0.9-1.5v-0.8h1.6V32c0,1.6-0.5,2.8-2.5,2.8C61.9,34.8,61.3,33.6,61.3,31.8z M58.5,25.6h1.6v9.1h-1.6V25.6z
	 M54.3,29.5c0.9,0,1.3-0.4,1.3-1.4c0-0.9-0.3-1.4-1.2-1.4h-0.6v2.8H54.3z M52.2,25.6h2.2c1.8,0,2.9,0.6,2.9,2.4
	c0,1.1-0.3,1.8-1.1,2.2l1.3,4.5h-1.7l-1.1-4.2h-0.8v4.2h-1.7L52.2,25.6L52.2,25.6z M45.8,31.7v-3.1c0-2,0.6-3.1,2.6-3.1
	c1.9,0,2.5,1,2.5,2.7v0.5h-1.6v-0.5c0-0.9-0.1-1.4-0.9-1.4c-0.9,0-0.9,0.7-0.9,1.5v3.8c0,0.9,0.2,1.5,1,1.5s1-0.6,1-1.6v-0.9h-1v-1
	H51v4.6h-1.1l-0.1-0.9c-0.2,0.6-0.9,1.1-1.5,1C46.4,34.8,45.8,33.6,45.8,31.7z M43.1,31.5l-0.6-3.8l-0.6,3.8H43.1z M41.5,25.6h1.8
	l1.8,9.1h-1.5l-0.4-2.1h-1.6l-0.4,2.1h-1.5L41.5,25.6z M32.8,25.6h3.8v1.2h-2.2v2.6h1.7v1.2h-1.7v3h2.2v1.1h-3.8V25.6L32.8,25.6z
	 M77.8,17.3v-4.2c0-0.8-0.1-1.3-0.9-1.3S76,12.4,76,13.1v4.2c0,0.8,0.1,1.4,0.9,1.4C77.7,18.7,77.8,18.1,77.8,17.3L77.8,17.3z
	 M74.3,16.9v-3.4c0-1.8,0.7-3,2.6-3c2,0,2.6,1.1,2.6,3v3.4c0,1.8-0.7,3-2.6,3S74.3,18.8,74.3,16.9z M70.4,14.6
	c0.9,0,1.3-0.4,1.3-1.4c0-0.9-0.3-1.4-1.2-1.4h-0.6v2.8L70.4,14.6z M68.2,10.7h2.2c1.8,0,2.9,0.6,2.9,2.4c0,1.1-0.3,1.8-1.1,2.2
	l1.3,4.5h-1.7l-1.1-4.2h-0.8v4.2h-1.7L68.2,10.7z M63.4,10.7h3.8v1.2H65v2.6h1.7v1.2H65v3h2.2v1.1h-3.9L63.4,10.7L63.4,10.7z
	 M58.4,18.7l2.4-6.9h-2.3v-1.2h4v0.9L60,18.7h2.6v1.1h-4.1L58.4,18.7L58.4,18.7z M51.3,10.7h3.8v1.2h-2.2v2.6h1.7v1.2h-1.7v3h2.2
	v1.1h-3.9L51.3,10.7L51.3,10.7z M43.8,10.7h1.7l1.3,6.3l1.3-6.3h1.7l0.2,9.1h-1.2l-0.1-6.3l-1.3,6.3h-1L45,13.4l-0.1,6.4h-1.2
	L43.8,10.7z M40.8,17.3v-4.2c0-0.8-0.1-1.3-0.9-1.3S39,12.4,39,13.1v4.2c0,0.8,0.1,1.4,0.9,1.4C40.6,18.7,40.8,18.1,40.8,17.3
	L40.8,17.3z M37.2,16.9v-3.4c0-1.8,0.7-3,2.6-3s2.6,1.1,2.6,3v3.4c0,1.8-0.7,3-2.6,3S37.2,18.8,37.2,16.9z M32.8,10.7h3.7v1.2h-2.1
	v2.7h1.7v1.2h-1.7V20h-1.6L32.8,10.7L32.8,10.7z M9.5,31.3l5.8-8.9c1.3-2,2.5-3.6,2.5-5.8c0-1.5-0.6-2.4-1.7-2.4
	c-1.7,0-2.1,1.6-2.1,3.5v1.1H9.5v-1.2c0-4.2,1.8-7.3,6.5-7.3c4.2,0,6.3,2.3,6.3,6.3c0,2.9-1.5,4.9-3.1,7.4l-4.5,7h7.1v3.6H9.5V31.3z
	"/>
</svg>
