<?xml version="1.0" encoding="utf-8"?>
<!-- Generator: Adobe Illustrator 25.0.1, SVG Export Plug-In . SVG Version: 6.00 Build 0)  -->
<svg version="1.1" id="Layer_1" xmlns="http://www.w3.org/2000/svg" xmlns:xlink="http://www.w3.org/1999/xlink" x="0px" y="0px"
	 viewBox="0 0 125 125" style="enable-background:new 0 0 125 125;" xml:space="preserve">
<style type="text/css">
	.st0{fill:#D2D1D3;}
</style>
<path class="st0" d="M104.8,78.2c0-3.5-2.3-6.4-5.7-6.4c-1.7,0-3.8,1.9-4.9,3c-1.1-1.2-3.1-3-4.8-3c-3.4,0-5.9,2.9-5.9,6.4
	c0,1.7,0.6,3.3,1.8,4.5l8.8,8.8l8.8-8.8C104.2,81.6,104.8,79.9,104.8,78.2z M78.3,29.5c1,0,1.3-0.4,1.3-1.4c0-0.9-0.3-1.4-1.2-1.4
	h-0.6v2.8H78.3z M76.1,25.6h2.2c1.8,0,2.9,0.6,2.9,2.4c0,1.1-0.3,1.9-1.1,2.2l1.3,4.5h-1.7l-1.1-4.2h-0.8v4.2h-1.7
	C76.1,34.7,76.1,25.6,76.1,25.6z M73.2,31.6l-0.6-3.8L72,31.6H73.2z M71.6,25.6h1.8l1.8,9.1h-1.5l-0.4-2.1h-1.6l-0.4,2.1h-1.6
	L71.6,25.6z M66.6,26.9h-1.5v-1.2h4.5v1.2h-1.4v7.9h-1.7L66.6,26.9L66.6,26.9z M60,32.1l1.4-0.3c0,1.1,0.3,1.8,1,1.8
	c0.5,0,0.8-0.4,0.8-0.9c0-0.8-0.4-1.2-1-1.7L61,30c-0.7-0.6-1.1-1.2-1.1-2.2c0-1.4,0.9-2.3,2.4-2.3c1.7,0,2.2,1.2,2.3,2.5l-1.4,0.2
	c0-0.9-0.2-1.5-0.9-1.5c-0.5,0-0.8,0.4-0.8,0.9c0,0.6,0.3,1,0.7,1.4l1.1,1c0.7,0.6,1.4,1.4,1.4,2.7c0,1.3-0.9,2.2-2.3,2.2
	C60.8,34.9,60,33.9,60,32.1z M55.4,25.6h3.8v1.2H57v2.6h1.7v1.2H57v3h2.2v1.1h-3.9v-9.1H55.4z M51.4,30.6h2.7v1h-2.7V30.6z
	 M43.9,25.6h1.7L47,32l1.3-6.3H50l0.2,9.1H49l-0.1-6.4l-1.3,6.4h-1l-1.3-6.4l-0.1,6.4h-1.3L43.9,25.6z M39,25.6h3.8v1.2h-2.2v2.6
	h1.7v1.2h-1.7v3h2.2v1.1H39V25.6z M35.1,33.6c1,0,1.3-0.5,1.3-1.5c0-1.1-0.4-1.6-1.4-1.6h-0.6v3.1H35.1z M35,29.4
	c1,0,1.3-0.4,1.3-1.4s-0.5-1.2-1.5-1.2h-0.3v2.6H35z M32.8,25.6h2.3c1.6,0,2.7,0.5,2.7,2.3c0,1.1-0.5,1.7-1.3,1.9
	c1.1,0.2,1.6,1,1.6,2.3c0,1.7-0.9,2.7-2.6,2.7h-2.6v-9.2H32.8z M64.1,10.7h3.8v1.2h-2.2v2.6h1.7v1.2h-1.7v3H68v1.1h-3.9V10.7z
	 M56.6,10.7h3.8v1.2h-2.2v2.6H60v1.2h-1.7v3h2.2v1.1h-3.9V10.7z M52.6,18.7c1.1,0,1.2-0.6,1.2-1.7v-3.5c0-1.1-0.1-1.5-1.2-1.5h-0.5
	v6.8L52.6,18.7L52.6,18.7z M50.4,10.7h2.2c2.2,0,2.9,0.9,2.9,2.8v3.3c0,2-0.7,3-2.8,3h-2.2v-9.1H50.4z M46.8,7.8h1.6L47,10.1h-0.9
	L46.8,7.8z M44,16.9v-6.2h1.6v6.4c0,0.9,0.1,1.6,0.9,1.6c0.8,0,1-0.8,1-1.6v-6.4h1.6v6.2c0,1.9-0.5,3.1-2.6,3.1
	C44.5,20,44,18.8,44,16.9z M41.2,16.7l-0.6-3.8L40,16.7H41.2z M39.6,10.7h1.8l1.8,9.1h-1.5l-0.4-2.1h-1.6l-0.4,2.1h-1.6L39.6,10.7z
	 M32.6,17.2l1.4-0.3c0,1.1,0.3,1.8,1,1.8c0.5,0,0.8-0.4,0.8-0.9c0-0.8-0.4-1.2-1-1.7l-1.2-1c-0.7-0.6-1.1-1.2-1.1-2.2
	c0-1.4,0.9-2.3,2.4-2.3c1.7,0,2.2,1.2,2.3,2.5l-1.4,0.2c0-0.9-0.2-1.5-0.9-1.5c-0.5,0-0.8,0.4-0.8,0.9c0,0.6,0.3,1,0.7,1.4l1.1,1
	c0.7,0.6,1.4,1.4,1.4,2.7S36.4,20,35,20C33.4,20,32.6,19,32.6,17.2z M9.5,27.8V27H14v0.8c0,2.3,0.4,3.4,1.9,3.4s1.9-1.2,1.9-3.5
	c0-2.4-0.6-3.7-2.7-3.8c-0.3,0-0.5,0-0.8,0v-3.3H15c2.1,0,2.7-1.1,2.7-3.5c0-1.9-0.4-3-1.9-3s-1.8,1.3-1.9,3.2v1.1H9.5v-1.3
	c0-4.2,2.4-6.6,6.4-6.6c4.1,0,6.4,2.2,6.4,6.4c0,2.8-1.3,4.8-3,5.2c1.7,0.6,3,2.2,3,5.6c0,4.3-1.7,7.4-6.4,7.4
	C11.1,35,9.5,32.1,9.5,27.8z"/>
<path class="st0" d="M67.2,106.1L67.2,106.1c-0.8,0-1.3-0.5-1.4-1.2l-4.5-26.1l-6.8,12.6c-0.3,0.6-0.9,0.8-1.5,0.7
	c-0.6-0.1-1.1-0.6-1.2-1.2l-2.9-20.2l-5.3,11.9c-0.2,0.5-0.7,0.9-1.3,0.9H21.8c-0.8,0-1.4-0.6-1.4-1.4s0.6-1.4,1.4-1.4h19.6
	l6.9-15.6c0.3-0.6,0.9-0.9,1.5-0.8s1.1,0.6,1.2,1.2l3,20.8l6.7-12.4c0.3-0.5,0.9-0.8,1.5-0.7c0.6,0.1,1.1,0.6,1.2,1.2l4.2,24.2
	L82.7,48c0.2-0.6,0.7-1,1.3-1c0.6,0,1.2,0.3,1.4,0.8l8,16.5c0.2,0.3,0.2,0.7,0.1,1.1s-0.4,0.7-0.7,0.8c-0.3,0.2-0.7,0.2-1.1,0.1
	s-0.7-0.4-0.8-0.7l-6.4-13.1L68.6,105C68.4,105.7,67.9,106.1,67.2,106.1z"/>
</svg>
