<?xml version="1.0" encoding="utf-8"?>
<!-- Generator: Adobe Illustrator 25.0.0, SVG Export Plug-In . SVG Version: 6.00 Build 0)  -->
<svg version="1.1" id="Layer_1" xmlns="http://www.w3.org/2000/svg" xmlns:xlink="http://www.w3.org/1999/xlink" x="0px" y="0px"
	 viewBox="0 0 125 125" style="enable-background:new 0 0 125 125;" xml:space="preserve">
<style type="text/css">
	.st0{fill:#C5192D;}
</style>
<path class="st0" d="M93.7,95.5H93l2.7,9.4l2.7-9.4h-0.7h0.7V57.9H93v37.5H93.7z M57.9,67.2v35.9l22.7-6.8V54L57.9,67.2z M55.4,67.1
	L32.8,54v42.2l22.6,6.8L55.4,67.1L55.4,67.1z M90.9,25.6h3.8v1.2h-2.2v2.6h1.7v1.2h-1.7v3h2.2v1.1h-3.9V25.6z M86.8,33.6
	c1.1,0,1.2-0.6,1.2-1.8v-3.5c0-1.1-0.1-1.6-1.2-1.6h-0.5v6.8L86.8,33.6z M84.7,25.6h2.2c2.2,0,2.9,0.9,2.9,2.8v3.3c0,2-0.7,3-2.8,3
	h-2.2L84.7,25.6L84.7,25.6z M81.7,31.6l-0.6-3.8l-0.6,3.8H81.7z M80.2,25.6H82l1.8,9.1h-1.6l-0.4-2.1h-1.6l-0.4,2.1h-1.6L80.2,25.6z
	 M74.8,33.6c1.1,0,1.2-0.6,1.2-1.8v-3.5c0-1.1-0.1-1.6-1.2-1.6h-0.5v6.8L74.8,33.6z M72.7,25.6h2.2c2.2,0,2.9,0.9,2.9,2.8v3.3
	c0,2-0.7,3-2.8,3h-2.2L72.7,25.6L72.7,25.6z M69.7,25.6h1.6v9.1h-1.6V25.6z M64.9,25.6h1.7v8h2.2v1.1h-3.9L64.9,25.6L64.9,25.6z
	 M62,31.6l-0.6-3.8l-0.6,3.8H62z M60.5,25.6h1.8l1.8,9.1h-1.6l-0.4-2.1h-1.6l-0.4,2.1h-1.6L60.5,25.6z M52.7,31.8v-6.2h1.6V32
	c0,0.9,0.1,1.6,0.9,1.6s0.9-0.8,0.9-1.6v-6.4h1.6v6.2c0,1.9-0.5,3.1-2.6,3.1C53.3,34.9,52.7,33.7,52.7,31.8z M49.9,32.3v-4.2
	c0-0.8-0.1-1.3-0.9-1.3S48,27.3,48,28.1v4.2c0,0.8,0.1,1.4,0.9,1.4S49.9,33.1,49.9,32.3z M49.2,34.9c-0.1,0-0.1,0-0.2,0
	c-2,0-2.6-1.1-2.6-3v-3.4c0-1.9,0.7-3,2.6-3c2,0,2.6,1.1,2.6,3v3.4c0,1.3-0.3,2.3-1.3,2.7c0.3,0.3,0.6,0.6,0.9,0.9l-0.3,1.1
	C50.4,36.3,49.6,35.6,49.2,34.9z M39,25.6h3.8v1.2h-2.2v2.6h1.7v1.2h-1.7v3h2.2v1.1H39L39,25.6L39,25.6z M35,33.6
	c1.1,0,1.2-0.6,1.2-1.8v-3.5c0-1.1-0.1-1.6-1.2-1.6h-0.5v6.8L35,33.6z M32.8,25.6H35c2.2,0,2.9,0.9,2.9,2.8v3.3c0,2-0.7,3-2.8,3
	h-2.2V25.6z M77.2,17.4v-4.2c0-0.8-0.1-1.3-0.9-1.3c-0.8,0-0.9,0.6-0.9,1.3v4.2c0,0.8,0.1,1.4,0.9,1.4
	C77.1,18.7,77.2,18.1,77.2,17.4z M73.6,17v-3.4c0-1.9,0.7-3,2.6-3c2,0,2.6,1.1,2.6,3V17c0,1.8-0.7,3-2.6,3
	C74.3,20,73.6,18.8,73.6,17z M70.9,16.7l-0.6-3.8l-0.6,3.8H70.9z M69.7,9c-0.3,0-0.4,0.2-0.4,0.5h-0.8c0-0.8,0.2-1.4,0.9-1.4
	c0.6,0,0.9,0.5,1.4,0.5c0.3,0,0.4-0.2,0.4-0.4H72c0,0.7-0.1,1.4-0.9,1.4C70.6,9.5,70.2,9,69.7,9L69.7,9z M69.4,10.7h1.8l1.8,9.1
	h-1.6L71,17.7h-1.6l-0.4,2.1h-1.6L69.4,10.7z M65.3,14v-0.8c0-0.8,0-1.4-0.9-1.4c-0.9,0-0.9,0.6-0.9,1.5v4c0,1,0.2,1.5,0.9,1.5
	c0.8,0,0.9-0.6,0.9-1.5v-0.8h1.6v0.7c0,1.6-0.5,2.7-2.2,2.8v0.6c0.8,0,1.4,0.4,1.4,1.1c0,0.8-0.7,1.1-1.5,1.1c-0.3,0-0.6,0-0.8-0.1
	v-0.7c0.2,0.1,0.4,0.1,0.6,0.1c0.4,0,0.7-0.1,0.7-0.4c0-0.4-0.5-0.6-1-0.6v-1c-1.7-0.2-2.2-1.4-2.2-3v-3.2c0-1.9,0.6-3.1,2.6-3.1
	c1.9,0,2.5,1,2.5,2.6V14L65.3,14z M59.1,16.7l-0.6-3.8l-0.6,3.8H59.1z M57.5,10.7h1.8l1.8,9.1h-1.6l-0.4-2.1h-1.6l-0.4,2.1h-1.6
	L57.5,10.7z M50,16.9v-3.3c0-1.9,0.6-3.1,2.6-3.1c1.9,0,2.5,1,2.5,2.6V14h-1.6v-0.8c0-0.8,0-1.4-0.9-1.4c-0.9,0-0.9,0.6-0.9,1.5v4
	c0,1,0.2,1.5,0.9,1.5c0.8,0,0.9-0.6,0.9-1.5v-0.8h1.6v0.7c0,1.6-0.5,2.8-2.5,2.8C50.6,20,50,18.7,50,16.9z M43.8,16.9v-6.2h1.6v6.4
	c0,0.9,0.1,1.6,0.9,1.6c0.9,0,0.9-0.8,0.9-1.6v-6.4h1.6v6.2c0,1.9-0.5,3.1-2.6,3.1C44.3,20,43.8,18.8,43.8,16.9z M39.8,18.7
	c1.1,0,1.2-0.6,1.2-1.8v-3.5c0-1.1-0.1-1.6-1.2-1.6h-0.5v6.8L39.8,18.7L39.8,18.7z M37.6,10.7h2.2c2.2,0,2.9,0.9,2.9,2.8v3.3
	c0,2-0.7,3-2.8,3h-2.2V10.7z M32.8,10.7h3.8v1.2h-2.2v2.6h1.7v1.2h-1.7v3h2.2v1.1h-3.8L32.8,10.7L32.8,10.7z M16.4,25.6V15.4
	l-3.7,10.2L16.4,25.6L16.4,25.6z M16.4,29H9.2v-3.5l6.2-14.7h5.3v14.8H23V29h-2.3v5.6h-4.3V29z"/>
<path class="st0" d="M98.3,53c0-0.7-0.3-1.4-0.8-1.9c-0.5-0.5-1.2-0.8-1.9-0.8s-1.4,0.3-1.9,0.8c-0.5,0.5-0.8,1.2-0.8,1.9v2.9h5.3
	L98.3,53L98.3,53z M85.4,55.8L83,53.9v43.4l-25.1,8.1h-2.5l-25-7V53.9L28,55.8v44.4l27.3,7.5H58l25.2-8l2.2-0.6V55.8z"/>
</svg>
