<?xml version="1.0" encoding="utf-8"?>
<!-- Generator: Adobe Illustrator 25.0.1, SVG Export Plug-In . SVG Version: 6.00 Build 0)  -->
<svg version="1.1" id="Layer_1" xmlns="http://www.w3.org/2000/svg" xmlns:xlink="http://www.w3.org/1999/xlink" x="0px" y="0px"
	 viewBox="0 0 125 125" style="enable-background:new 0 0 125 125;" xml:space="preserve">
<style type="text/css">
	.st0{fill:#D2D1D3;}
</style>
<path class="st0" d="M62.3,90.9c-6.1,0-11.6-3.7-13.9-9.3c-2.3-5.6-1-12.1,3.3-16.5c4.3-4.3,10.8-5.6,16.5-3.3
	c5.6,2.3,9.3,7.8,9.3,13.9C77.4,84.2,70.6,90.9,62.3,90.9 M91.3,47.2H75.6c-0.1,0-0.2,0.1-0.2,0.2v5.2c0,0.1,0.1,0.2,0.2,0.2h6.2
	l-6.9,6.9c-6.2-4.8-14.6-5.7-21.6-2.3S41.8,68,41.8,75.9c0,10.4,7.8,19,17.8,20.3v6h-6.2c-0.1,0-0.2,0.1-0.2,0.2v5.6
	c0,0.1,0.1,0.2,0.2,0.2h6.2v5.9c0,0.1,0.1,0.2,0.2,0.2h5.6c0.1,0,0.2-0.1,0.2-0.2v-5.9h6.2c0.1,0,0.2-0.1,0.2-0.2v-5.6
	c0-0.1-0.1-0.2-0.2-0.2h-6.2v-6.1c7-1.1,12.8-5.8,15.6-12.3c2.7-6.5,1.9-14-2.2-19.7l6.8-6.8v5.8c0,0.1,0.1,0.2,0.2,0.2h5.2
	c0.1,0,0.2-0.1,0.2-0.2V47.4C91.5,47.3,91.4,47.2,91.3,47.2 M78.1,32.3v-4.2c0-0.8-0.1-1.3-0.9-1.3s-0.9,0.6-0.9,1.3v4.2
	c0,0.8,0.1,1.4,0.9,1.4S78.1,33.1,78.1,32.3z M74.5,31.9v-3.4c0-1.9,0.7-3,2.6-3s2.6,1.1,2.6,3v3.4c0,1.8-0.7,3-2.6,3
	S74.5,33.8,74.5,31.9z M70.6,29.5c0.9,0,1.3-0.4,1.3-1.4c0-0.9-0.3-1.4-1.2-1.4h-0.6v2.8H70.6z M68.4,25.6h2.2
	c1.8,0,2.9,0.6,2.9,2.4c0,1.1-0.3,1.9-1.1,2.2l1.3,4.5H72l-1.1-4.2H70v4.2h-1.7L68.4,25.6z M63.6,25.6h3.8v1.2h-2.2v2.6H67v1.2h-1.7
	v3h2.2v1.1h-3.9V25.6z M57.5,25.6h1.2l2.2,5.2v-5.2h1.4v9.1h-1.1L59,29.2v5.5h-1.4v-9.1H57.5z M54,22.8h1.4l1,2.1h-1.1l-0.6-1.4
	l-0.6,1.4H53L54,22.8z M52.8,25.6h3.8v1.2h-2.2v2.6h1.7v1.2h-1.7v3h2.2v1.1h-3.9L52.8,25.6L52.8,25.6z M46.3,31.8v-3.1
	c0-2,0.6-3.1,2.6-3.1c1.9,0,2.5,1,2.5,2.7v0.5h-1.6v-0.5c0-0.9-0.1-1.4-0.9-1.4c-0.9,0-0.9,0.7-0.9,1.6v3.8c0,0.9,0.2,1.6,1,1.6
	s1-0.6,1-1.6v-0.9h-1v-1h2.5V35h-1.1l-0.1-0.9c-0.3,0.6-0.7,1-1.6,1C47,34.9,46.3,33.7,46.3,31.8z M39,25.6h3.8v1.2h-2.2v2.6h1.7
	v1.2h-1.7v3h2.2v1.1H39V25.6L39,25.6z M35,33.6c1.1,0,1.2-0.6,1.2-1.8v-3.5c0-1.1-0.1-1.6-1.2-1.6h-0.5v6.8L35,33.6z M32.8,25.6H35
	c2.2,0,2.9,0.9,2.9,2.8v3.3c0,2-0.7,3-2.8,3h-2.2v-9.1H32.8z M77.2,10.7H81v1.2h-2.2v2.6h1.7v1.2h-1.7v3H81v1.1h-3.9L77.2,10.7
	L77.2,10.7z M73.1,18.7c1.1,0,1.2-0.6,1.2-1.8v-3.5c0-1.1-0.1-1.6-1.2-1.6h-0.5v6.8L73.1,18.7L73.1,18.7z M70.9,10.7h2.2
	c2.2,0,2.9,0.9,2.9,2.8v3.3c0,2-0.7,3-2.8,3H71L70.9,10.7L70.9,10.7z M68,16.7l-0.6-3.8l-0.6,3.8H68z M66.4,10.7h1.8l1.8,9.1h-1.5
	l-0.4-2.1h-1.6l-0.4,2.1h-1.6L66.4,10.7z M61.1,18.7c1.1,0,1.2-0.6,1.2-1.8v-3.5c0-1.1-0.1-1.6-1.2-1.6h-0.5v6.8L61.1,18.7
	L61.1,18.7z M58.9,10.7h2.2c2.2,0,2.9,0.9,2.9,2.8v3.3c0,2-0.7,3-2.8,3H59L58.9,10.7L58.9,10.7z M54.2,10.7h1.7v8h2.2v1.1h-3.9V10.7
	z M51.3,16.7l-0.6-3.8L50,16.7H51.3z M49.7,10.7h1.8l1.8,9.1h-1.6l-0.4-2.1h-1.6l-0.4,2.1h-1.6L49.7,10.7z M42,16.9v-6.2h1.6v6.4
	c0,0.9,0.1,1.6,0.9,1.6s0.9-0.8,0.9-1.6v-6.4H47v6.2c0,1.9-0.5,3.1-2.6,3.1C42.5,20,42,18.8,42,16.9z M35.7,16.8v-3.1
	c0-2,0.6-3.1,2.6-3.1c1.9,0,2.5,1,2.5,2.7v0.5h-1.6v-0.5c0-0.9-0.1-1.4-0.9-1.4c-0.9,0-0.9,0.7-0.9,1.6v3.8c0,0.9,0.2,1.6,1,1.6
	s1-0.6,1-1.6v-0.9h-1v-1h2.5V20h-1.1l-0.1-1c-0.2,0.6-0.9,1.1-1.6,1C36.3,20,35.7,18.8,35.7,16.8z M32.8,10.7h1.6v9.1h-1.6V10.7z
	 M9.7,27.7h4.4c0,2.6,0.3,4,2,3.9s1.8-2,1.8-5.1c0-2.5-0.3-4.4-2-4.4c-1.1,0-1.7,0.7-2,2.2h-4l0.3-13.6h11v3.9h-7.3l-0.2,5.3
	c0.5-0.6,1.7-1.1,3-1.2c3.7-0.3,5.5,2.6,5.5,7.5c0,5.1-1,8.7-6.4,8.7C10.7,35,9.7,32.1,9.7,27.7z"/>
<path class="st0" d="M71.5,77.5H53.2c-0.1,0-0.2,0.1-0.2,0.2v4.4c0,0.1,0.1,0.2,0.2,0.2h18.3c0.1,0,0.2-0.1,0.2-0.2v-4.4
	C71.7,77.6,71.6,77.5,71.5,77.5 M71.5,69.6H53.2c-0.1,0-0.2,0.1-0.2,0.2v4.4c0,0.1,0.1,0.2,0.2,0.2h18.3c0.1,0,0.2-0.1,0.2-0.2v-4.4
	C71.7,69.7,71.6,69.6,71.5,69.6"/>
</svg>
