<?xml version="1.0" encoding="utf-8"?>
<!-- Generator: Adobe Illustrator 25.0.0, SVG Export Plug-In . SVG Version: 6.00 Build 0)  -->
<svg version="1.1" id="Layer_1" xmlns="http://www.w3.org/2000/svg" xmlns:xlink="http://www.w3.org/1999/xlink" x="0px" y="0px"
	 viewBox="0 0 125 125" style="enable-background:new 0 0 125 125;" xml:space="preserve">
<style type="text/css">
	.st0{fill:#26BDE2;}
</style>
<path class="st0" d="M82.5,60.2c-1.2-0.5-2.8-0.3-4.3,0.3c-5.7,2.3-9.5,3.1-15.5,1.3c-3.8-1.2-7.3-3.6-11.4-2.1
	c-2.8,1-5.3,1.9-8.4,1.9l-1.8-9.2h42.8L82.5,60.2z M68,87.6c-1.5,1.4-3.5,2-5.5,1.9c-2,0.1-4-0.5-5.5-1.9c-3.4-3.4-2.2-7.7-1-9.9
	c0.7-1.4,6-9.3,6.4-9.9v-0.1l0,0l0,0v0.1c0.4,0.7,5.7,8.6,6.4,9.9C70.2,79.9,71.5,84.2,68,87.6z M85.7,50.5
	c-0.1-0.1-0.3-0.2-0.4-0.2H39.6c-0.2,0-0.3,0.1-0.4,0.2c-0.1,0.1-0.1,0.3-0.1,0.4l7.7,46.4c0,0.3,0.3,0.4,0.5,0.4h9.4l0.6,7.6h-4
	l9.2,9.2l9.2-9.2h-4l0.6-7.6h9.6c0.3,0,0.5-0.2,0.5-0.5l7.2-46.4C85.8,50.7,85.8,50.6,85.7,50.5z M95,32.3v-4.2
	c0-0.8-0.1-1.3-0.9-1.3c-0.8,0-0.9,0.6-0.9,1.3v4.2c0,0.8,0.1,1.4,0.9,1.4C94.9,33.7,95,33.1,95,32.3z M91.4,31.9v-3.4
	c0-1.9,0.7-3,2.6-3c2,0,2.6,1.1,2.6,3v3.4c0,1.8-0.7,3-2.6,3C92.1,34.9,91.4,33.8,91.4,31.9z M87.7,26.9h-1.5v-1.2h4.5v1.2h-1.4v7.9
	h-1.7V26.9z M80.7,25.6h1.2l2.2,5.2v-5.2h1.4v9.1h-1.1l-2.2-5.5v5.5h-1.4L80.7,25.6z M75.9,25.6h3.8v1.2h-2.2v2.6h1.7v1.2h-1.7v3
	h2.2v1.1h-3.9V25.6z M68.4,25.6h1.7l1.3,6.3l1.3-6.3h1.7l0.2,9.1h-1.3l-0.1-6.4L72,34.8h-1l-1.3-6.4l-0.1,6.4h-1.3L68.4,25.6z
	 M65.3,31.6l-0.6-3.8l-0.6,3.8H65.3z M63.8,25.6h1.8l1.8,9.1h-1.5l-0.4-2.1h-1.6l-0.4,2.1H62L63.8,25.6z M57.7,25.6h3.8v1.2h-2.2
	v2.6H61v1.2h-1.7v3h2.2v1.1h-3.9V25.6z M51.6,25.6h1.2l2.2,5.2v-5.2h1.4v9.1h-1.1L53,29.3v5.5h-1.4V25.6z M48.6,31.6L48,27.8
	l-0.6,3.8H48.6z M47.1,25.6h1.8l1.8,9.1h-1.5l-0.4-2.1h-1.6l-0.4,2.1h-1.6L47.1,25.6z M40,32.1l1.4-0.3c0,1.1,0.3,1.8,1,1.8
	c0.5,0,0.8-0.4,0.8-0.9c0-0.8-0.4-1.2-1-1.7l-1.2-1c-0.7-0.6-1.1-1.2-1.1-2.2c0-1.4,0.9-2.3,2.4-2.3c1.7,0,2.2,1.2,2.3,2.5l-1.4,0.2
	c0-0.9-0.2-1.5-0.9-1.5c-0.5,0-0.8,0.4-0.8,0.9c0,0.6,0.3,1,0.7,1.4l1.1,1c0.7,0.6,1.4,1.4,1.4,2.7c0,1.3-0.9,2.2-2.3,2.2
	C40.9,34.9,40.1,33.9,40,32.1z M32.8,25.6h3.8v1.2h-2.2v2.6h1.7v1.2h-1.7v3h2.2v1.1h-3.9V25.6z M92.3,10.7H94v8h2.2v1.1h-3.9V10.7z
	 M87.6,10.7h3.8v1.2h-2.2v2.6H91v1.2h-1.7v3h2.2v1.1h-3.9V10.7z M81.4,10.7h1.5l1.2,6.5l1.1-6.5h1.5l-1.8,9.1h-1.6L81.4,10.7z
	 M78.8,7.8h1.6L79,10.1h-0.9L78.8,7.8z M79.2,16.7l-0.6-3.8L78,16.7H79.2z M77.7,10.7h1.8l1.8,9.1h-1.5l-0.4-2.1h-1.6l-0.4,2.1h-1.6
	L77.7,10.7z M72.7,11.9h-1.5v-1.2h4.5v1.2h-1.4v7.9h-1.7V11.9z M68.9,17.4v-4.2c0-0.8-0.1-1.3-0.9-1.3c-0.8,0-0.9,0.6-0.9,1.3v4.2
	c0,0.8,0.1,1.4,0.9,1.4C68.8,18.7,68.9,18.1,68.9,17.4z M65.4,17v-3.4c0-1.9,0.7-3,2.6-3c2,0,2.6,1.1,2.6,3V17c0,1.8-0.7,3-2.6,3
	C66,20,65.4,18.8,65.4,17z M61.9,14.6c0.9,0,1.2-0.3,1.2-1.3s-0.1-1.4-1.2-1.4h-0.6v2.7H61.9z M59.6,10.7h2.7c1.6,0,2.3,0.9,2.3,2.6
	c0,1.8-1,2.5-2.4,2.5h-0.9v4.1h-1.7V10.7z M54,16.7l-0.6-3.8l-0.6,3.8H54z M52.5,10.7h1.8l1.8,9.1h-1.6l-0.4-2.1h-1.6l-0.4,2.1h-1.6
	L52.5,10.7z M44.7,16.9v-6.2h1.6v6.4c0,0.9,0.1,1.6,0.9,1.6c0.8,0,1-0.8,1-1.6v-6.4h1.6v6.2c0,1.9-0.5,3.1-2.6,3.1
	C45.3,20,44.7,18.8,44.7,16.9z M38.4,16.8v-3.1c0-2,0.6-3.2,2.6-3.2c1.9,0,2.5,1,2.5,2.7v0.5h-1.6v-0.5c0-0.9-0.1-1.4-0.9-1.4
	c-0.9,0-0.9,0.7-0.9,1.5v3.8c0,0.9,0.2,1.5,1,1.5c0.8,0,1-0.6,1-1.6v-0.9h-1v-1h2.5v4.6h-1.1L42.4,19c-0.2,0.6-0.7,1-1.5,1
	C39,20,38.4,18.8,38.4,16.8z M35.3,7.8h1.6l-1.3,2.3h-0.9L35.3,7.8z M35.7,16.7l-0.6-3.8l-0.6,3.8H35.7z M34.2,10.7H36l1.8,9.1h-1.5
	l-0.4-2.1h-1.6l-0.4,2.1h-1.6L34.2,10.7z M18.2,27.4c0-2.4-0.1-4.2-1.8-4.2c-0.8,0-1.5,0.4-1.8,1.1v3.8c0,1.8,0.4,3.4,1.9,3.4
	C17.9,31.6,18.2,30,18.2,27.4z M9.9,27.1v-8.5c0-4.7,1.3-8.2,6.4-8.2c4.4,0,6,2.2,6.1,6.1v0.4h-4.3c0-2-0.2-3-1.7-3
	c-1.4,0-1.8,1.2-1.8,4.8v2.4c0.5-0.9,1.7-1.4,3.1-1.4c3.8-0.1,5.2,2.9,5.2,6.9c0,4.9-1.5,8.3-6.4,8.3C11.8,34.9,9.9,31.6,9.9,27.1z"
	/>
</svg>
