<?xml version="1.0" encoding="utf-8"?>
<!-- Generator: Adobe Illustrator 25.0.1, SVG Export Plug-In . SVG Version: 6.00 Build 0)  -->
<svg version="1.1" id="Layer_1" xmlns="http://www.w3.org/2000/svg" xmlns:xlink="http://www.w3.org/1999/xlink" x="0px" y="0px"
	 viewBox="0 0 125 125" style="enable-background:new 0 0 125 125;" xml:space="preserve">
<style type="text/css">
	.st0{fill:#D2D1D3;}
</style>
<path class="st0" d="M94.7,79.2c0-0.8-0.7-1.5-1.4-1.5h-8.1c-0.7,0-1.4,0.7-1.4,1.5s0.7,1.5,1.4,1.5h8.1
	C93.9,80.7,94.7,80,94.7,79.2 M41.4,79.2c0-0.8-0.7-1.5-1.4-1.5h-8.1c-0.7,0-1.4,0.7-1.4,1.5s0.7,1.5,1.4,1.5H40
	C40.6,80.7,41.3,80,41.4,79.2 M62.5,88.8c-4.7,0-8.8-3.5-9.5-8.2s2.1-9.2,6.6-10.6v3.6c-2.6,1.3-3.9,4.2-3.3,7.1
	c0.7,2.8,3.2,4.8,6.1,4.8s5.4-2,6.1-4.8c0.7-2.8-0.7-5.8-3.3-7.1V70c4.5,1.4,7.4,5.9,6.7,10.6C71.3,85.3,67.3,88.8,62.5,88.8
	 M61.2,68.2c0-0.6,0.6-1.3,1.4-1.3c0.8,0,1.4,0.7,1.4,1.3v6.3c0,0.6-0.6,1.3-1.4,1.3c-0.8,0-1.4-0.7-1.4-1.3
	C61.2,74.5,61.2,68.2,61.2,68.2z M62.5,60.9c-7.5,0-14.2,4.5-17.1,11.4c-2.9,6.9-1.3,14.8,4,20.1c5.3,5.3,13.2,6.9,20.1,4
	c7-2.8,11.5-9.6,11.5-17C81,69.2,72.7,60.9,62.5,60.9 M78.1,25.6h1.7v8H82v1.1h-3.9V25.6z M73.5,25.6h3.8v1.2h-2.2v2.6h1.7v1.2h-1.7
	v3h2.2v1.1h-3.9L73.5,25.6L73.5,25.6z M67.5,25.6H69l1.2,6.5l1.1-6.5h1.5L71,34.7h-1.6L67.5,25.6z M66.1,22.7h1.6L66.3,25h-0.9
	L66.1,22.7z M65.1,25.6h1.6v9.1h-1.6V25.6z M59.4,32.1l1.4-0.3c0,1.1,0.3,1.8,1,1.8c0.5,0,0.8-0.4,0.8-0.9c0-0.8-0.4-1.2-1-1.7
	l-1.2-1c-0.7-0.6-1.1-1.2-1.1-2.2c0-1.4,0.9-2.3,2.4-2.3c1.7,0,2.2,1.2,2.3,2.5l-1.4,0.2c0-0.9-0.2-1.5-0.9-1.5
	c-0.5,0-0.8,0.4-0.8,0.9c0,0.6,0.3,1,0.7,1.4l1.1,1c0.7,0.6,1.4,1.4,1.4,2.7c0,1.3-0.9,2.2-2.3,2.2C60.3,34.9,59.5,33.9,59.4,32.1z
	 M54.2,32.1l1.4-0.3c0,1.1,0.3,1.8,1,1.8c0.5,0,0.8-0.4,0.8-0.9c0-0.8-0.4-1.2-1-1.7l-1.2-1c-0.7-0.6-1.1-1.2-1.1-2.2
	c0-1.4,0.9-2.3,2.4-2.3c1.7,0,2.2,1.2,2.3,2.5l-1.4,0.2c0-0.9-0.2-1.5-0.9-1.5c-0.5,0-0.8,0.4-0.8,0.9c0,0.6,0.3,1,0.7,1.4l1.1,1
	c0.7,0.6,1.4,1.4,1.4,2.7c0,1.3-0.9,2.2-2.3,2.2C55,34.9,54.3,33.9,54.2,32.1z M49.8,25.6h3.8v1.2h-2.2v2.6h1.7v1.2h-1.7v3h2.2v1.1
	h-3.9v-9.1H49.8z M43.8,31.8v-3.3c0-1.9,0.6-3.1,2.6-3.1c1.9,0,2.5,1,2.5,2.6v0.8h-1.6V28c0-0.8,0-1.4-0.9-1.4
	c-0.8,0-0.9,0.7-0.9,1.5v4c0,1,0.2,1.5,0.9,1.5c0.8,0,0.9-0.6,0.9-1.5v-0.8h1.6V32c0,1.6-0.5,2.8-2.5,2.8
	C44.4,34.9,43.8,33.6,43.8,31.8z M41.3,31.6l-0.6-3.8L40,31.6H41.3z M39.7,25.6h1.8l1.8,9.1h-1.5l-0.4-2.1h-1.6l-0.4,2.1h-1.6
	L39.7,25.6z M31.2,25.6H35v1.2h-2.2v2.6h1.7v1.2h-1.7v3H35v1.1h-3.9v-9.1H31.2z M92.6,16.7L92,12.8l-0.6,3.8h1.2V16.7z M91.1,10.7
	h1.8l1.8,9.1h-1.5l-0.4-2.1h-1.6l-0.4,2.1h-1.6L91.1,10.7z M86.8,14.6c0.9,0,1.2-0.3,1.2-1.3s-0.1-1.4-1.2-1.4h-0.6v2.7H86.8z
	 M84.5,10.7h2.7c1.6,0,2.3,0.9,2.3,2.6c0,1.8-1,2.5-2.4,2.5h-0.9v4.1h-1.7V10.7z M77.1,10.7h1.7l1.3,6.3l1.3-6.3h1.7l0.2,9.1h-1.2
	L82,13.5l-1.3,6.4h-1l-1.3-6.4l-0.1,6.4H77L77.1,10.7z M74.1,10.7h1.6v9.1h-1.6V10.7z M69.6,10.7h1.7v8h2.2v1.1h-3.9
	C69.6,19.8,69.6,10.7,69.6,10.7z M64.3,16.7l-0.6-3.8L63,16.7H64.3z M62.8,10.7h1.8l1.8,9.1h-1.5l-0.4-2.1h-1.6l-0.4,2.1h-1.6
	L62.8,10.7z M58.6,10.7h1.6v9.1h-1.6V10.7z M52.3,16.8v-3.1c0-2,0.6-3.2,2.6-3.2c1.9,0,2.5,1,2.5,2.7v0.5h-1.6v-0.5
	c0-0.9-0.1-1.4-0.9-1.4c-0.9,0-0.9,0.7-0.9,1.5v3.8c0,0.9,0.2,1.5,1,1.5s1-0.6,1-1.6v-0.9h-1v-1h2.5v4.6h-1.1L56.3,19
	c-0.2,0.6-0.7,1-1.5,1C52.9,20,52.3,18.8,52.3,16.8z M48.6,14.6c1,0,1.3-0.4,1.3-1.4c0-0.9-0.3-1.4-1.2-1.4H48v2.8L48.6,14.6z
	 M46.4,10.7h2.2c1.8,0,2.9,0.6,2.9,2.4c0,1.1-0.3,1.9-1.1,2.2l1.3,4.5H50l-1.1-4.2H48v4.2h-1.7v-9.1H46.4z M41.8,10.7h3.8v1.2h-2.2
	v2.6h1.7v1.2h-1.7v3h2.2v1.1h-3.9v-9.1H41.8z M35.8,10.7H37l2.2,5.2v-5.2h1.4v9.1h-1.1l-2.2-5.5v5.5h-1.4v-9.1H35.8z M31.2,10.7H35
	v1.2h-2.2v2.6h1.7v1.2h-1.7v3H35v1.1h-3.9v-9.1H31.2z M15.5,14.2H9v-3.5h11v3l-5,20.9h-4.4L15.5,14.2z"/>
<path class="st0" d="M80.9,68.6c0.4,0.7,1.4,0.9,2,0.6l7-4c0.6-0.3,0.9-1.3,0.5-2s-1.4-0.9-2-0.6l-7,4
	C80.8,66.9,80.5,67.9,80.9,68.6 M52,60.8c0.7-0.4,0.9-1.4,0.6-2l-4-7c-0.3-0.6-1.3-0.9-2-0.5s-0.9,1.4-0.6,2l4,7
	C50.3,60.9,51.3,61.2,52,60.8 M73.1,60.8c0.7,0.4,1.7,0.1,2-0.5l4-7c0.3-0.6,0.1-1.6-0.6-2s-1.7-0.1-2,0.5l-4,7
	C72.1,59.4,72.4,60.4,73.1,60.8 M44.2,68.7c0.4-0.7,0.1-1.7-0.5-2l-7-4c-0.6-0.3-1.6-0.1-2,0.6c-0.4,0.7-0.1,1.7,0.5,2l7,4
	C42.8,69.6,43.7,69.4,44.2,68.7 M62.6,58c0.8,0,1.5-0.7,1.5-1.4v-8.1c0-0.7-0.7-1.4-1.5-1.4s-1.5,0.7-1.5,1.4v8.1
	C61,57.3,61.7,58,62.6,58 M34.7,95.2c0.4,0.7,1.4,0.9,2,0.6l7-4c0.6-0.3,0.9-1.3,0.5-2s-1.4-0.9-2-0.6l-7,4
	C34.6,93.5,34.3,94.5,34.7,95.2 M78.6,107c0.7-0.4,0.9-1.4,0.6-2l-4-7c-0.3-0.6-1.3-0.9-2-0.5s-0.9,1.4-0.6,2l4,7
	C76.9,107.2,77.8,107.5,78.6,107 M46.6,107.1c0.7,0.4,1.7,0.1,2-0.5l4-7c0.3-0.6,0.1-1.6-0.6-2c-0.7-0.4-1.7-0.1-2,0.5l-4,7
	C45.6,105.7,45.9,106.7,46.6,107.1 M90.4,95.2c0.4-0.7,0.1-1.7-0.5-2l-7-4c-0.6-0.3-1.6-0.1-2,0.6s-0.1,1.7,0.5,2l7,4
	C89,96.1,90,95.9,90.4,95.2 M62.6,111.3c0.8,0,1.5-0.7,1.5-1.4v-8.1c0-0.7-0.7-1.4-1.5-1.4s-1.5,0.8-1.5,1.4v8.1
	C61,110.6,61.7,111.3,62.6,111.3"/>
</svg>
