<?xml version="1.0" encoding="utf-8"?>
<!-- Generator: Adobe Illustrator 25.0.1, SVG Export Plug-In . SVG Version: 6.00 Build 0)  -->
<svg version="1.1" id="Layer_1" xmlns="http://www.w3.org/2000/svg" xmlns:xlink="http://www.w3.org/1999/xlink" x="0px" y="0px"
	 viewBox="0 0 125 125" style="enable-background:new 0 0 125 125;" xml:space="preserve">
<style type="text/css">
	.st0{fill:#D2D1D3;}
</style>
<path class="st0" d="M49.4,81.2L36.7,93.3c-0.5,0.5-0.7,0.8-0.7,1.8v18.1c0,0.4,0.3,0.7,0.7,0.7h13.1c0.4,0,0.7-0.3,0.7-0.7V81.5
	C50.5,81.1,50.2,80.4,49.4,81.2 M86,65.5L73.3,77.6c-0.5,0.5-0.7,0.8-0.7,1.8v33.9c0,0.4,0.3,0.7,0.7,0.7h13.1
	c0.4,0,0.7-0.3,0.7-0.7V65.8C87.2,65.4,86.9,64.7,86,65.5 M79.2,47.2V43c0-0.8-0.1-1.3-0.9-1.3s-0.9,0.6-0.9,1.3v4.2
	c0,0.8,0.1,1.4,0.9,1.4C79.1,48.6,79.2,48,79.2,47.2z M75.6,46.8v-3.4c0-1.9,0.7-3,2.6-3c2,0,2.6,1.1,2.6,3v3.4c0,1.8-0.7,3-2.6,3
	C76.3,49.8,75.6,48.7,75.6,46.8z M69.8,46.8v-3.3c0-1.9,0.6-3.1,2.6-3.1c1.9,0,2.5,1,2.5,2.6v0.8h-1.6V43c0-0.8,0-1.4-0.9-1.4
	c-0.8,0-0.9,0.6-0.9,1.5v4c0,1,0.2,1.5,0.9,1.5c0.8,0,0.9-0.6,0.9-1.5v-0.8h1.6V47c0,1.6-0.5,2.8-2.5,2.8S69.8,48.6,69.8,46.8z
	 M67.2,40.6h1.6v9.1h-1.6V40.6z M59.9,40.6h1.7l1.3,6.3l1.3-6.3h1.7l0.2,9.1h-1.2l-0.1-6.3l-1.3,6.3h-1l-1.3-6.4L61,49.7h-1.3
	L59.9,40.6z M57.1,47.2V43c0-0.8-0.1-1.3-0.9-1.3s-0.9,0.6-0.9,1.3v4.2c0,0.8,0.1,1.4,0.9,1.4C57,48.6,57.1,48,57.1,47.2z
	 M55.5,37.8h1.4l1,2.1h-1.1l-0.6-1.4l-0.6,1.4h-1.1L55.5,37.8z M53.5,46.8v-3.4c0-1.9,0.7-3,2.6-3c2,0,2.6,1.1,2.6,3v3.4
	c0,1.8-0.7,3-2.6,3S53.5,48.7,53.5,46.8z M47.8,40.6H49l2.2,5.2v-5.2h1.4v9.1h-1.1l-2.2-5.5v5.5h-1.4L47.8,40.6L47.8,40.6z
	 M45.2,47.2V43c0-0.8-0.1-1.3-0.9-1.3c-0.8,0-0.9,0.6-0.9,1.3v4.2c0,0.8,0.1,1.4,0.9,1.4C45.1,48.6,45.2,48,45.2,47.2z M41.6,46.8
	v-3.4c0-1.9,0.7-3,2.6-3c2,0,2.6,1.1,2.6,3v3.4c0,1.8-0.7,3-2.6,3S41.6,48.7,41.6,46.8z M35.8,46.8v-3.3c0-1.9,0.6-3.1,2.6-3.1
	c1.9,0,2.5,1,2.5,2.6v0.8h-1.6V43c0-0.8,0-1.4-0.9-1.4s-0.9,0.6-0.9,1.5v4c0,1,0.2,1.5,0.9,1.5c0.8,0,0.9-0.6,0.9-1.5v-0.8h1.6V47
	c0,1.6-0.5,2.8-2.5,2.8C36.4,49.8,35.8,48.6,35.8,46.8z M31.4,40.6h3.8v1.2H33v2.6h1.7v1.2H33v3h2.2v1.1h-3.8L31.4,40.6L31.4,40.6z
	 M94.4,32.3v-4.2c0-0.8-0.1-1.3-0.9-1.3s-0.9,0.6-0.9,1.3v4.2c0,0.8,0.1,1.4,0.9,1.4S94.4,33.1,94.4,32.3L94.4,32.3z M90.8,31.9
	v-3.4c0-1.9,0.7-3,2.6-3c2,0,2.6,1.1,2.6,3v3.4c0,1.8-0.7,3-2.6,3S90.8,33.8,90.8,31.9z M87.4,26.9h-1.5v-1.2h4.5v1.2H89v7.9h-1.7
	L87.4,26.9L87.4,26.9z M80.6,25.6h1.2l2.2,5.2v-5.2h1.4v9.1h-1.1L82,29.3v5.5h-1.4V25.6L80.6,25.6z M76.1,25.6h3.8v1.2h-2.2v2.6h1.7
	v1.2h-1.7v3H80v1.1h-3.9V25.6z M68.8,25.6h1.7l1.3,6.3l1.3-6.3h1.7l0.2,9.1h-1.2l-0.1-6.3l-1.3,6.3h-1L70,28.4l-0.1,6.4h-1.2
	L68.8,25.6z M65.9,25.6h1.6v9.1h-1.6V25.6z M59.9,31.9v-3.3c0-1.9,0.6-3.1,2.6-3.1c1.9,0,2.5,1,2.5,2.6v0.8h-1.6v-0.8
	c0-0.8,0-1.4-0.9-1.4s-0.9,0.6-0.9,1.5v4c0,1,0.2,1.5,0.9,1.5c0.8,0,0.9-0.6,0.9-1.5v-0.8H65v0.7c0,1.6-0.5,2.8-2.5,2.8
	S59.9,33.6,59.9,31.9z M54.6,32.1l1.4-0.3c0,1.1,0.3,1.8,1,1.8c0.5,0,0.8-0.4,0.8-0.9c0-0.8-0.4-1.2-1-1.8l-1.2-1
	c-0.6-0.6-1.1-1.2-1.1-2.2c0-1.4,0.9-2.3,2.4-2.3c1.7,0,2.2,1.2,2.3,2.5l-1.4,0.3c0-0.9-0.2-1.5-0.9-1.5c-0.5,0-0.8,0.4-0.8,0.9
	c0,0.6,0.3,0.9,0.7,1.4l1.1,1c0.7,0.6,1.4,1.4,1.4,2.7c0,1.3-0.9,2.2-2.3,2.2C55.4,34.9,54.6,33.9,54.6,32.1z M50.2,25.6H54v1.2
	h-2.2v2.6h1.7v1.2h-1.7v3H54v1.1h-3.9v-9.1H50.2z M46.4,29.5c0.9,0,1.3-0.4,1.3-1.4c0-0.9-0.3-1.4-1.2-1.4h-0.6v2.8H46.4z
	 M44.2,25.6h2.2c1.8,0,2.9,0.6,2.9,2.4c0,1.1-0.3,1.9-1.1,2.2l1.3,4.5h-1.7l-1.1-4.2h-0.8v4.2h-1.7L44.2,25.6L44.2,25.6z M38.3,31.9
	v-3.3c0-1.9,0.6-3.1,2.6-3.1c1.9,0,2.5,1,2.5,2.6v0.8h-1.6v-0.8c0-0.8,0-1.4-0.9-1.4S40,27.3,40,28.2v4c0,1,0.2,1.5,0.9,1.5
	c0.8,0,0.9-0.6,0.9-1.5v-0.8h1.6v0.7c0,1.6-0.5,2.8-2.5,2.8C38.8,34.9,38.3,33.6,38.3,31.9z M31.4,25.6h3.8v1.2H33v2.6h1.7v1.2H33v3
	h2.2v1.1h-3.8L31.4,25.6L31.4,25.6z M109.7,10.7h3.8v1.2h-2.2v2.6h1.7v1.2h-1.7v3h2.2v1.1h-3.9L109.7,10.7L109.7,10.7z M106.1,11.9
	h-1.5v-1.2h4.5v1.2h-1.4v7.9H106L106.1,11.9L106.1,11.9z M99.3,10.7h1.2l2.2,5.2v-5.2h1.4v9.1H103l-2.2-5.5v5.5h-1.4L99.3,10.7
	L99.3,10.7z M94.8,10.7h3.8v1.2h-2.2v2.6h1.7v1.2h-1.7v3h2.2v1.1h-3.9L94.8,10.7L94.8,10.7z M88.8,16.9v-3.3c0-1.9,0.6-3.1,2.6-3.1
	c1.9,0,2.5,1,2.5,2.6V14h-1.6v-0.8c0-0.8,0-1.4-0.9-1.4s-0.9,0.6-0.9,1.5v4c0,1,0.2,1.5,0.9,1.5c0.8,0,0.9-0.6,0.9-1.5v-0.8h1.6v0.7
	c0,1.6-0.5,2.8-2.5,2.8S88.8,18.7,88.8,16.9z M84.4,10.7h3.8v1.2H86v2.6h1.7v1.2H86v3h2.2v1.1h-3.9L84.4,10.7L84.4,10.7z M80.6,18.7
	c1.1,0,1.2-0.6,1.2-1.8v-3.5c0-1.1-0.1-1.6-1.2-1.6h-0.5v6.8L80.6,18.7L80.6,18.7z M78.5,10.7h2.2c2.2,0,2.9,0.9,2.9,2.8v3.3
	c0,2-0.7,3-2.8,3h-2.2L78.5,10.7L78.5,10.7z M73.4,17.4v-4.2c0-0.8-0.1-1.3-0.9-1.3s-0.9,0.6-0.9,1.3v4.2c0,0.8,0.1,1.4,0.9,1.4
	C73.3,18.7,73.4,18.1,73.4,17.4z M69.8,17v-3.4c0-1.9,0.7-3,2.6-3s2.6,1.1,2.6,3V17c0,1.8-0.7,3-2.6,3S69.8,18.8,69.8,17z
	 M63.7,10.7h1.7v3.8h1.9v-3.8H69v9.1h-1.7v-4.1h-1.9v4.1h-1.7V10.7z M59.2,10.7h1.7v8h2.2v1.1h-3.9V10.7L59.2,10.7z M56.5,16.7
	l-0.6-3.8l-0.6,3.8H56.5z M55,10.7h1.8l1.8,9.1H57l-0.4-2.1H55l-0.4,2.1H53L55,10.7z M49.9,18.7c1,0,1.3-0.5,1.3-1.5
	c0-1.1-0.4-1.6-1.3-1.6h-0.6v3.1H49.9z M49.8,14.4c1,0,1.2-0.4,1.2-1.4s-0.5-1.2-1.5-1.2h-0.3v2.6H49.8z M47.6,10.7h2.3
	c1.6,0,2.7,0.5,2.7,2.3c0,1.1-0.5,1.7-1.3,1.9c1.1,0.2,1.6,1,1.6,2.3c0,1.8-0.9,2.7-2.5,2.7h-2.6L47.6,10.7L47.6,10.7z M44.9,16.7
	l-0.6-3.8l-0.6,3.8H44.9z M43.4,10.7h1.8l1.8,9.1h-1.6L45,17.7h-1.6L43,19.8h-1.6L43.4,10.7z M38.1,14.6c0.9,0,1.3-0.4,1.3-1.4
	c0-0.9-0.3-1.4-1.2-1.4h-0.6v2.8L38.1,14.6z M36,10.7h2.2c1.8,0,2.9,0.6,2.9,2.4c0,1.1-0.3,1.9-1.1,2.2l1.3,4.5h-1.7l-1.1-4.2h-0.8
	v4.2H36V10.7L36,10.7z M32.3,11.9h-1.5v-1.2h4.5v1.2H34v7.9h-1.7V11.9z M17.7,16.6c0-1.6-0.5-2.8-1.7-2.8s-1.7,1.2-1.7,2.8
	c0,2.3,0.5,3.7,1.7,3.7C17.2,20.3,17.7,19,17.7,16.6z M17.9,27.9c0-1.9-0.2-3.8-1.9-3.8s-1.9,1.9-1.9,3.8c0,1.6,0.2,3.7,1.9,3.7
	S17.9,29.5,17.9,27.9L17.9,27.9z M9.6,27.6c0-2.6,0.9-4.6,2.8-5.6c-1.3-0.9-2.4-2.6-2.4-5.2c-0.1-4,2-6.4,6-6.4s6.1,2.5,6,6.4
	c-0.1,2.7-1.1,4.4-2.4,5.3c1.8,0.9,2.8,3,2.8,5.6C22.5,32,20.7,35,16,35C11.2,35,9.5,32,9.6,27.6z"/>
<path class="st0" d="M91.8,50.8c0-0.1,0-0.2-0.1-0.3s-0.1-0.1-0.2-0.1h-0.2l-9.7,2.2h-0.2c-0.1,0-0.1,0-0.2,0.1s-0.1,0.4,0,0.5
	l0.1,0.1l2.2,2.2L61.4,77.7L51.3,67.5c-0.1-0.1-0.3-0.1-0.4,0l-2.8,2.8L31.8,86.6c-0.1,0.1-0.1,0.3,0,0.4l2.8,2.8
	c0.1,0.1,0.3,0.1,0.4,0l16.1-16.1l7.4,7.4l0,0l2.8,2.8c0.1,0.1,0.3,0.1,0.4,0l25-25l2.3,2.3c0.2,0.2,0.6,0.1,0.6-0.2l0,0l2.1-9.9
	L91.8,50.8z"/>
<path class="st0" d="M67.8,83.4l-6.2,6.2c-0.1,0.1-0.3,0.1-0.4,0l-5.6-5.7c-1-1-1.2-0.2-1.2,0.2v29.2c0,0.4,0.3,0.7,0.7,0.7h13.2
	c0.4,0,0.7-0.3,0.7-0.7V83.6C69,83.2,68.7,82.5,67.8,83.4"/>
</svg>
