<?xml version="1.0" encoding="utf-8"?>
<!-- Generator: Adobe Illustrator 25.0.0, SVG Export Plug-In . SVG Version: 6.00 Build 0)  -->
<svg version="1.1" id="Layer_1" xmlns="http://www.w3.org/2000/svg" xmlns:xlink="http://www.w3.org/1999/xlink" x="0px" y="0px"
	 viewBox="0 0 125 125" style="enable-background:new 0 0 125 125;" xml:space="preserve">
<style type="text/css">
	.st0{fill:#FD6924;}
</style>
<path class="st0" d="M93.1,100.5l-13.4,7.8V92.7L93.1,85V100.5z M48.8,108.2V93.9l12.4,7.2L48.8,108.2z M46.7,108.2l-13.4-7.8V85
	l13.4,7.8L46.7,108.2L46.7,108.2z M61.2,65.3l-12.4,7.2V58.2L61.2,65.3z M77.7,72.5l-12.4-7.2l12.4-7.2V72.5z M65.3,83.2l13.4-7.8
	l13.4,7.8L78.7,91L65.3,83.2z M62.2,81.4l-12.4-7.2L62.2,67C62.2,67,62.2,81.4,62.2,81.4z M76.6,74.3l-12.4,7.2V67.1L76.6,74.3z
	 M62.2,99.3l-12.4-7.2L62.2,85V99.3z M94.7,82.3l-15-8.6V56.4c0-0.4-0.2-0.7-0.5-0.9l-15.5-8.9c-0.3-0.2-0.7-0.2-1,0l-15.5,8.9
	c-0.3,0.2-0.5,0.5-0.5,0.9v17.3l-15,8.6c-0.3,0.2-0.5,0.5-0.5,0.9V101c0,0.4,0.2,0.7,0.5,0.9l15.5,8.9c0.3,0.2,0.7,0.2,1,0l15-8.6
	l15,8.6c0.2,0.1,0.3,0.1,0.5,0.1s0.3,0,0.5-0.1l15.5-8.9c0.3-0.2,0.5-0.5,0.5-0.9V83.2C95.2,82.8,95,82.5,94.7,82.3z M101,31.4
	l-0.6-3.8l-0.6,3.8H101z M99.5,25.5h1.8l1.8,9.1h-1.6l-0.4-2.1h-1.6l-0.4,2.1h-1.6L99.5,25.5z M94.6,29.4c0.9,0,1.3-0.4,1.3-1.4
	c0-0.9-0.3-1.4-1.2-1.4h-0.6v2.8H94.6z M92.4,25.5h2.2c1.8,0,2.9,0.6,2.9,2.4c0,1.1-0.3,1.9-1.1,2.2l1.3,4.5H96l-1.1-4.2h-0.8v4.2
	h-1.7L92.4,25.5L92.4,25.5z M86.6,31.6v-6.2h1.6v6.4c0,0.9,0.1,1.6,0.9,1.6s0.9-0.8,0.9-1.6v-6.4h1.6v6.2c0,1.9-0.5,3.1-2.6,3.1
	C87.1,34.7,86.6,33.6,86.6,31.6z M83.3,26.7h-1.5v-1.2h4.5v1.2H85v7.9h-1.7V26.7z M76.5,31.6v-6.2h1.6v6.4c0,0.9,0.1,1.6,0.9,1.6
	s0.9-0.8,0.9-1.6v-6.4h1.6v6.2c0,1.9-0.5,3.1-2.6,3.1S76.5,33.6,76.5,31.6z M73,29.4c0.9,0,1.3-0.4,1.3-1.4c0-0.9-0.3-1.4-1.2-1.4
	h-0.6v2.8H73z M70.9,25.5h2.2c1.8,0,2.9,0.6,2.9,2.4c0,1.1-0.3,1.9-1.1,2.2l1.3,4.5h-1.7l-1.1-4.2h-0.8v4.2h-1.7L70.9,25.5
	L70.9,25.5z M67.5,26.7H66v-1.2h4.5v1.2h-1.4v7.9h-1.7L67.5,26.7L67.5,26.7z M61.4,31.9l1.4-0.3c0,1.1,0.3,1.8,1,1.8
	c0.5,0,0.8-0.4,0.8-0.9c0-0.8-0.4-1.2-1-1.8l-1.2-1c-0.6-0.6-1.1-1.2-1.1-2.2c0-1.4,0.9-2.3,2.4-2.3c1.7,0,2.2,1.2,2.3,2.5L64.6,28
	c0-0.9-0.2-1.5-0.9-1.5c-0.5,0-0.8,0.4-0.8,0.9c0,0.6,0.3,0.9,0.7,1.4l1.1,1c0.7,0.6,1.4,1.4,1.4,2.7c0,1.3-0.9,2.2-2.3,2.2
	C62.2,34.7,61.5,33.8,61.4,31.9z M57.4,25.5h3.8v1.2H59v2.6h1.7v1.2H59v3h2.2v1.1h-3.9v-9.1H57.4z M55,31.4l-0.6-3.8l-0.6,3.8H55z
	 M53.4,25.5h1.8l1.8,9.1h-1.6L55,32.5h-1.6L53,34.6h-1.6L53.4,25.5z M48.5,29.4c0.9,0,1.3-0.4,1.3-1.4c0-0.9-0.3-1.4-1.2-1.4H48v2.8
	H48.5z M46.3,25.5h2.2c1.8,0,2.9,0.6,2.9,2.4c0,1.1-0.3,1.9-1.1,2.2l1.3,4.5h-1.7l-1.1-4.2H48v4.2h-1.7V25.5L46.3,25.5z M42.2,25.5
	H46v1.2h-2.1v2.7h1.7v1.2h-1.7v4.2h-1.7V25.5L42.2,25.5z M36.7,25.5h1.2l2.2,5.2v-5.2h1.4v9.1h-1.1l-2.2-5.5v5.5h-1.4L36.7,25.5z
	 M34.2,25.5h1.6v9.1h-1.6V25.5z M27.8,25.5h3.8v1.2h-2.2v2.6h1.7v1.2h-1.7v3h2.2v1.1h-3.8V25.5z M112.2,17.2V13
	c0-0.8-0.1-1.3-0.9-1.3s-0.9,0.6-0.9,1.3v4.2c0,0.8,0.1,1.4,0.9,1.4S112.2,18,112.2,17.2z M108.6,16.8v-3.4c0-1.9,0.7-3,2.6-3
	c2,0,2.6,1.1,2.6,3v3.4c0,1.9-0.7,3-2.6,3C109.3,19.8,108.6,18.7,108.6,16.8z M106.5,16.5l-0.6-3.8l-0.6,3.8H106.5z M105.3,8.8
	c-0.3,0-0.4,0.2-0.4,0.5h-0.8c0-0.8,0.2-1.4,0.9-1.4c0.6,0,0.9,0.5,1.4,0.5c0.3,0,0.4-0.2,0.4-0.4h0.7c0,0.7-0.1,1.4-0.9,1.4
	C106.1,9.3,105.8,8.8,105.3,8.8L105.3,8.8z M105,10.5h1.8l1.8,9.1H107l-0.4-2.1H105l-0.4,2.1H103L105,10.5z M101.4,13.8V13
	c0-0.8,0-1.4-0.9-1.4s-0.9,0.6-0.9,1.5v4c0,1,0.2,1.5,0.9,1.5c0.8,0,0.9-0.6,0.9-1.5v-0.8h1.6V17c0,1.6-0.5,2.7-2.2,2.8v0.6
	c0.8,0,1.4,0.4,1.4,1.1c0,0.8-0.7,1.1-1.5,1.1c-0.3,0-0.6,0-0.8-0.1v-0.7c0.2,0.1,0.4,0.1,0.6,0.1c0.4,0,0.7-0.1,0.7-0.4
	c0-0.4-0.5-0.6-1-0.6v-1c-1.7-0.2-2.2-1.4-2.2-3v-3.3c0-1.9,0.6-3.1,2.6-3.1c1.9,0,2.5,1,2.5,2.6v0.8L101.4,13.8L101.4,13.8z
	 M95.7,16.5l-0.6-3.8l-0.6,3.8H95.7z M94.2,10.5H96l1.8,9.1h-1.6l-0.4-2.1h-1.6l-0.4,2.1h-1.6L94.2,10.5z M87.5,10.5H89l1.2,6.5
	l1.1-6.5h1.5L91,19.7h-1.6L87.5,10.5z M85.6,17.2V13c0-0.8-0.1-1.3-0.9-1.3s-0.9,0.6-0.9,1.3v4.2c0,0.8,0.1,1.4,0.9,1.4
	S85.6,18,85.6,17.2z M82.1,16.8v-3.4c0-1.9,0.7-3,2.6-3s2.6,1.1,2.6,3v3.4c0,1.9-0.7,3-2.6,3S82.1,18.7,82.1,16.8z M76.6,10.5h1.2
	l2.2,5.2v-5.2h1.4v9.1h-1.1L78,14.2v5.5h-1.4V10.5L76.6,10.5z M74.2,10.5h1.6v9.1h-1.6V10.5z M70,20.6c0.4-0.1,0.8-0.5,0.7-1H70
	v-1.5h1.5v1.4c0,1-0.4,1.5-1.3,1.7L70,20.6z M67.7,16.5l-0.6-3.8l-0.6,3.8H67.7z M66.2,10.5H68l1.8,9.1h-1.5l-0.4-2.1h-1.6l-0.4,2.1
	h-1.6L66.2,10.5z M62.4,10.5H64v9.1h-1.6V10.5z M58.8,14.4c0.9,0,1.3-0.4,1.3-1.4c0-0.9-0.3-1.4-1.2-1.4h-0.6v2.8L58.8,14.4z
	 M56.6,10.5h2.2c1.8,0,2.9,0.6,2.9,2.4c0,1.1-0.3,1.9-1.1,2.2l1.3,4.5h-1.7l-1.1-4.2h-0.8v4.2h-1.6L56.6,10.5L56.6,10.5z M53.2,11.8
	h-1.5v-1.2h4.6v1.2h-1.4v7.9h-1.7C53.2,19.7,53.2,11.8,53.2,11.8z M47.1,17l1.4-0.3c0,1.1,0.3,1.8,1,1.8c0.5,0,0.8-0.4,0.8-0.9
	c0-0.8-0.4-1.2-1-1.8l-1.2-1c-0.6-0.6-1.1-1.2-1.1-2.2c0-1.4,0.9-2.3,2.4-2.3c1.7,0,2.2,1.2,2.3,2.5l-1.4,0.3c0-0.9-0.2-1.5-0.9-1.5
	c-0.5,0-0.8,0.4-0.8,0.9c0,0.6,0.3,0.9,0.7,1.4l1.1,1c0.7,0.6,1.4,1.4,1.4,2.7c0,1.3-0.9,2.2-2.3,2.2C48,19.8,47.2,18.8,47.1,17z
	 M44.3,7.6h1.6l-1.3,2.3h-0.9L44.3,7.6z M41.5,16.7v-6.2h1.6v6.4c0,0.9,0.1,1.6,0.9,1.6c0.9,0,0.9-0.8,0.9-1.6v-6.4h1.6v6.2
	c0,1.9-0.5,3.1-2.6,3.1S41.5,18.6,41.5,16.7z M38,18.5c1.1,0,1.2-0.6,1.2-1.8v-3.5c0-1.1-0.1-1.6-1.2-1.6h-0.5v6.8L38,18.5L38,18.5z
	 M35.9,10.5H38c2.2,0,2.9,0.9,2.9,2.8v3.3c0,2-0.7,3-2.8,3h-2.2V10.5z M30.3,10.5h1.2l2.2,5.2v-5.2H35v9.1h-1.1l-2.2-5.5v5.5h-1.4
	L30.3,10.5L30.3,10.5z M27.8,10.5h1.6v9.1h-1.6V10.5z M17.8,21v-3.8c0-1.8-0.3-3.4-1.8-3.4s-1.8,1.5-1.8,4.1c0,2.5,0,4.2,1.8,4.2
	C16.9,22.1,17.5,21.5,17.8,21z M9.9,28.8v-0.3h4.3c0,2,0.2,3,1.7,3c1.4,0,1.8-1.2,1.8-4.8v-2.4c-0.5,0.9-1.6,1.4-3,1.4
	c-3.9,0.1-5.2-3.1-5.2-7.1c0-4.8,1.8-8.1,6.4-8.1c4.5,0,6.4,3.1,6.4,7.6v8.7c0,4.7-1.3,8.2-6.5,8.2C11.6,35,9.9,32.8,9.9,28.8z"/>
</svg>
