<?xml version="1.0" encoding="utf-8"?>
<!-- Generator: Adobe Illustrator 24.1.2, SVG Export Plug-In . SVG Version: 6.00 Build 0)  -->
<svg version="1.1" id="Layer_1" xmlns="http://www.w3.org/2000/svg" xmlns:xlink="http://www.w3.org/1999/xlink" x="0px" y="0px"
	 viewBox="0 0 125 125" style="enable-background:new 0 0 125 125;" xml:space="preserve">
<style type="text/css">
	.st0{fill:#E5233B;}
</style>
<g>
	<g>
		<path class="st0" d="M43.5,79.4c-0.9,1.7-1.9,3.4-2.8,5c-0.3,0.6-0.3,1.3-0.1,1.9c0.4,1.6,0.9,3.2,1.3,4.8c0,0.1,0.1,0.2,0.1,0.4
			c-0.5,0-0.9,0-1.4,0c0,0.5,0,1,0,1.4c0,1,0,1.9,0,2.9c0,0.8-0.5,1.4-1.3,1.4s-1.4-0.5-1.4-1.4s0-1.7,0-2.5c0-0.6,0-1.2,0-1.8
			c-0.3,0-0.5,0-0.8,0c0,0.2,0,0.3,0,0.5c0,1.3,0,2.6,0,3.8c0,1-0.9,1.7-1.8,1.3c-0.6-0.2-0.8-0.7-0.8-1.3c0-1.3,0-2.6,0-3.8
			c0-0.2,0-0.3,0-0.5c-0.5,0-0.9,0-1.5,0c0.2-0.6,0.3-1.2,0.5-1.8c0.3-1.1,0.6-2.1,0.9-3.2c0.2-0.8,0.2-1.6-0.3-2.4
			c-0.9-1.5-1.7-3.1-2.6-4.7c-0.1,0.1-0.2,0.2-0.2,0.3c-0.4,0.4-1,0.6-1.5,0.3c-0.5-0.2-0.8-0.6-0.8-1.2c0-2.6,0-5.3,0-7.9
			c0-0.2,0-0.5-0.1-0.7c-0.1-0.3-0.3-0.5-0.6-0.5c-0.3,0-0.4,0.2-0.5,0.5c0,0.2,0,0.5,0,0.7c0,8.1,0,16.2,0,24.3
			c0,1.1-0.6,1.9-1.5,2c-1.2,0.3-2.3-0.6-2.4-1.9c0-1.1,0-2.2,0-3.2c0-3.6,0-7.2,0-10.7c0-0.1,0-0.2,0-0.4c0-0.3-0.3-0.5-0.6-0.5
			c-0.3,0-0.5,0.2-0.5,0.5c0,0.1,0,0.2,0,0.4c0,4.5,0,9.1,0,13.7c0,0.3,0,0.7-0.1,1c-0.3,0.9-1.2,1.4-2.1,1.2
			c-0.9-0.1-1.6-0.9-1.6-1.9c0-0.1,0-0.3,0-0.4c0-8.1,0-16.1,0-24.2c0-0.2,0-0.4,0-0.5c-0.1-0.2-0.3-0.4-0.4-0.4
			c-0.3-0.1-0.5,0.1-0.6,0.3c-0.1,0.2-0.1,0.4-0.1,0.6c0,2.6,0,5.2,0,7.9c0,0.6-0.2,1-0.6,1.3c-0.1,0.1-0.1,0.2-0.2,0.3
			c-1,5.5-2.1,10.9-3.1,16.4c-0.1,0.6-0.4,0.8-0.9,0.7c-0.4-0.1-0.6-0.5-0.5-1c1-5.4,2-10.8,3-16.1c0-0.2-0.1-0.3-0.1-0.5
			c-0.1-0.3-0.3-0.6-0.3-0.9c0-3.3,0-6.6,0-9.8c0-2.4,2.1-4.4,4.5-4.4c2.5,0,5.1,0,7.6,0c2.4,0,4.5,2.1,4.5,4.6c0,2.9,0,5.9,0,8.8
			c0,0.2,0,0.3,0,0.5c0.1-0.1,0.2-0.1,0.2-0.1c0.6-0.4,1.1-0.3,1.5,0.3c0.3,0.5,0.6,1,0.9,1.5c0.2,0.3,0.4,0.6,0.6,0.9
			c0.3,0.5,0.8,0.8,1.5,0.8c0.9,0,1.8,0,2.7,0c0.6,0,1-0.2,1.4-0.7c0.5-0.7,0.9-1.4,1.3-2.1c0.6-0.9,0.9-1,1.8-0.6
			c0.9-3.1,1.9-6.1,2.8-9.2c0.3-0.9,0.8-1.6,1.5-2.1c0.5-0.4,1.1-0.6,1.8-0.6c2.2,0,4.5,0,6.7,0c0.9,0,1.7,0.3,2.3,1
			c0.5,0.6,0.9,1.2,1.1,1.9c0.9,2.8,1.7,5.6,2.6,8.4c0.1,0.3,0.1,0.7,0.1,1c0,0.6-0.4,1.1-0.9,1.2c-0.6,0.2-1.1,0-1.5-0.5
			c-0.2-0.3-0.3-0.6-0.4-0.9c-0.7-2.3-1.4-4.7-2.1-7c-0.1-0.3-0.1-0.7-0.6-0.6c-0.3,0.1-0.4,0.4-0.2,0.9c1.2,4.4,2.4,8.8,3.6,13.2
			c0.1,0.2,0.1,0.4,0.2,0.6c-1,0-1.9,0-2.8,0c-0.8,0-0.7-0.1-0.7,0.7c0,3.1,0,6.1,0,9.2c0,0.7-0.3,1.2-0.9,1.6
			c-0.6,0.3-1.2,0.3-1.7,0c-0.6-0.4-0.8-1-0.8-1.7c0-3.1,0-6.1,0-9.2c0-0.1,0-0.2,0-0.3c0-0.2-0.1-0.3-0.3-0.3
			c-0.7-0.1-0.7,0-0.7,0.6c0,3.1,0,6.2,0,9.3c0,1-0.6,1.8-1.5,1.8c-1,0.1-1.8-0.7-1.9-1.7c0-0.5,0-1,0-1.5c0-2.6,0-5.2,0-7.7
			c0-0.9,0.1-0.8-0.8-0.8c-0.8,0-1.5,0-2.3,0c-0.2,0-0.3,0-0.5,0c0.2-0.7,0.4-1.4,0.6-2.1c1.1-3.9,2.1-7.7,3.2-11.6
			c0.1-0.2,0.1-0.4,0.1-0.5c0-0.2-0.2-0.4-0.3-0.5c-0.3-0.1-0.5,0.1-0.5,0.3c-0.2,0.5-0.3,1.1-0.5,1.6c-0.6,1.9-1.1,3.8-1.7,5.7
			c-0.1,0.2-0.1,0.5-0.2,0.7c-0.5,0.9-1.5,1.1-2.2,0.3C43.6,79.5,43.5,79.5,43.5,79.4z"/>
		<path class="st0" d="M95.7,83.1c0-4.1,0-8.1,0-12.2c0-0.2,0-0.4-0.1-0.6c-0.1-0.3-0.2-0.5-0.5-0.4c-0.3,0-0.5,0.2-0.6,0.5
			c0,0.2,0,0.3,0,0.5c0,2.7,0,5.4,0,8c0,1-0.9,1.6-1.8,1.3c-0.5-0.2-0.8-0.6-0.8-1.1c0-3.4,0-6.8,0-10.2c0-2,1.8-3.9,3.8-4.1
			c0.3-0.1,0.7-0.1,1.1-0.1c2.3,0,4.6,0,6.9,0s4.1,1.5,4.6,3.7c0.1,0.3,0.1,0.6,0.1,1c0,3.2,0,6.3,0,9.5c0,1.2-1,1.9-2,1.4
			c-0.5-0.3-0.7-0.8-0.7-1.4c0-2.7,0-5.4,0-8.1c0-0.5-0.2-0.7-0.5-0.8c-0.3-0.1-0.5,0.1-0.6,0.4c-0.1,0.2-0.1,0.5-0.1,0.7
			c0,8.1,0,16.2,0,24.4c0,1.1-0.6,1.9-1.6,2c-1.1,0.2-2.2-0.7-2.2-1.9c0-4.7,0-9.3,0-14c0-0.2,0-0.4-0.1-0.6s-0.3-0.4-0.5-0.4
			c-0.2-0.1-0.5,0.1-0.5,0.4c0,0.2-0.1,0.4-0.1,0.6c0,4.6,0,9.2,0,13.8c0,1.1-0.6,1.8-1.7,2s-2.2-0.7-2.2-1.9c0-4,0-8,0-12
			C95.7,83.3,95.7,83.2,95.7,83.1z"/>
		<path class="st0" d="M80,85.6c-1.1,0-2.1,0-3.1,0c-0.4,0-0.5,0.1-0.5,0.5c0,3.2,0,6.3,0,9.5c0,1-0.7,1.8-1.7,1.8S73,96.7,73,95.7
			c0-1.9,0-3.8,0-5.7c0-1.2,0-2.4,0-3.7c0-0.6,0-0.6-0.6-0.6c-0.1,0-0.2,0-0.4,0c0,0.2,0,0.3,0,0.5c0,3.2,0,6.3,0,9.5
			c0,0.9-0.6,1.5-1.4,1.7c-0.8,0.1-1.6-0.4-1.9-1.2c-0.1-0.2-0.1-0.5-0.1-0.8c0-3.1,0-6.1,0-9.2c0-0.5,0-0.5-0.6-0.5c-1,0-2,0-3,0
			c0.1-0.2,0.1-0.3,0.1-0.5c1.2-4.4,2.4-8.8,3.6-13.3c0.1-0.2,0.1-0.4,0.1-0.6c0-0.1-0.2-0.3-0.3-0.3c-0.1,0-0.3,0.1-0.5,0.2
			c0,0.1,0,0.3,0,0.4c-0.7,2.3-1.4,4.7-2.1,7c-0.1,0.2-0.2,0.5-0.3,0.7C65.2,80,64.7,80.2,64,80c-0.6-0.2-1-0.6-1-1.3
			c0-0.3,0.1-0.6,0.1-0.9c0.9-2.9,1.7-5.8,2.7-8.6c0.4-1.3,1.3-2.4,2.8-2.7c0.2,0,0.4,0,0.5,0c2.2,0,4.4,0,6.6,0
			c1.1,0,1.9,0.4,2.5,1.2c0.4,0.5,0.7,1.1,1,1.8c0.9,2.7,1.7,5.5,2.6,8.3c0.1,0.3,0.2,0.7,0.2,1.1c-0.1,0.8-0.4,1.1-1.1,1.3
			c-0.6,0.1-1.2-0.2-1.4-0.8c-0.3-0.8-0.5-1.5-0.7-2.3c-0.5-1.8-1.1-3.6-1.6-5.4c0-0.1-0.1-0.2-0.1-0.3c-0.1-0.1-0.3-0.2-0.4-0.2
			s-0.3,0.2-0.3,0.3c-0.1,0.2,0,0.4,0.1,0.6c1.2,4.4,2.4,8.9,3.7,13.3C80,85.3,80,85.4,80,85.6z"/>
		<path class="st0" d="M90.2,84.6c0,0.2-0.1,0.3-0.1,0.5c0,3.6,0,7.2,0,10.8c0,1.1-1,1.7-1.9,1.3c-0.6-0.2-0.8-0.7-0.8-1.3
			c0-1.4,0-2.8,0-4.3c0-0.3,0.1-0.7-0.4-0.8c-0.3-0.1-0.5,0.2-0.5,0.8c0,1.4,0,2.9,0,4.3c0,0.6-0.5,1.2-1.1,1.3
			c-0.7,0.1-1.3-0.3-1.5-0.9c-0.1-0.3-0.1-0.6-0.1-0.9c0-3.5,0-6.9,0-10.4c0-0.2,0-0.3,0-0.5c-0.1,0-0.1,0-0.1-0.1
			c-0.1,0.1-0.2,0.3-0.2,0.4c-0.5,1.4-0.9,2.8-1.3,4.2c-0.2,0.5-0.5,0.7-0.9,0.7c-0.5,0-0.9-0.5-0.8-1c0-0.1,0-0.2,0.1-0.3
			c0.8-2,1.6-4.1,2.5-6.1c0.4-1,1.2-1.4,2.3-1.4c1.4,0.1,2.8,0,4.3,0.1c1.1,0,1.6,0.7,2,1.6c0.7,1.7,1.3,3.4,2,5
			c0.1,0.3,0.3,0.7,0.1,1c-0.2,0.4-0.5,0.6-0.9,0.7c-0.3,0-0.5-0.1-0.6-0.4c-0.5-1.4-1-2.7-1.5-4.1c-0.1-0.2-0.1-0.3-0.2-0.4
			C90.3,84.5,90.3,84.6,90.2,84.6z"/>
		<path class="st0" d="M15.5,34.7c-1.5,0-3,0-4.5,0c0-6.4,0-12.7,0-19.1c-1.2,0.4-2.3,0.8-3.5,1.2c0-1.1,0-2.2,0-3.3
			c0.9-0.5,1.8-0.9,2.7-1.4c0.5-0.3,1-0.7,1.5-1c0.2-0.1,0.5-0.3,0.7-0.3c0.9,0,1.8,0,2.7,0c0.4,0,0.5,0.1,0.5,0.5
			c0,5.6,0,11.3,0,16.9c0,2,0,3.9,0,5.9C15.5,34.3,15.5,34.4,15.5,34.7z"/>
		<path class="st0" d="M100.1,56.2c1.9,0,3.5,1.5,3.5,3.5c0,1.9-1.5,3.5-3.5,3.5c-1.9,0-3.4-1.5-3.4-3.5
			C96.6,57.8,98.2,56.2,100.1,56.2z"/>
		<path class="st0" d="M23.1,56.2c1.9,0,3.5,1.5,3.5,3.4s-1.5,3.5-3.5,3.5c-1.9,0-3.4-1.5-3.4-3.5C19.7,57.7,21.2,56.2,23.1,56.2z"
			/>
		<path class="st0" d="M75.8,61.5c0,1.8-1.4,3.3-3.3,3.3c-1.8,0-3.3-1.5-3.3-3.3s1.5-3.3,3.3-3.3C74.4,58.3,75.8,59.7,75.8,61.5z"/>
		<path class="st0" d="M56.1,61.5c0,1.8-1.4,3.3-3.3,3.3c-1.8,0-3.3-1.4-3.3-3.3c0-1.8,1.4-3.3,3.3-3.3
			C54.6,58.2,56.1,59.7,56.1,61.5z"/>
		<path class="st0" d="M31.2,30.2c0-0.7,0-1.4,0-2.1c0.1-2,1.3-2.6,2.8-2.4c1.6,0.1,2.3,0.8,2.3,2.6c0.1,1.5,0.1,3-0.1,4.5
			c-0.1,1.8-1.3,2.3-2.7,2.2c-1.7-0.1-2.3-1-2.4-2.6C31.2,31.6,31.2,30.9,31.2,30.2L31.2,30.2z M34.8,30.3L34.8,30.3
			c0-0.9,0-1.7,0-2.5c0-0.6-0.3-0.9-0.9-0.9c-0.6,0-0.9,0.3-0.9,1c0,1.7,0,3.3,0,5c0,0.4,0.1,0.7,0.5,0.9c0.7,0.3,1.3-0.1,1.3-0.9
			C34.8,32,34.8,31.1,34.8,30.3z"/>
		<path class="st0" d="M52,30.3c0.4,1.5,0.8,3,1.2,4.5c-0.5,0-1,0-1.5,0c-0.1,0-0.2-0.2-0.2-0.3c-0.3-1.1-0.6-2.3-0.9-3.5
			c-0.1-0.4-0.4-0.4-0.6-0.4c-0.3,0-0.2,0.3-0.2,0.5c0,1.2,0,2.4,0,3.6c-0.5,0-1.1,0-1.6,0c0-3,0-6,0-9c0.8,0,1.6,0,2.4,0
			c0.2,0,0.4,0,0.5,0c1.6,0.2,2.1,1.1,1.9,3C53.1,29.4,52.8,30,52,30.3z M49.8,29.6c0.2,0,0.4,0,0.6,0c0.8,0,1.2-0.4,1.2-1.2
			c0-0.1,0-0.2,0-0.3c0-1.1-0.6-1.3-1.6-1.2c-0.1,0-0.2,0.1-0.2,0.2C49.8,27.9,49.8,28.7,49.8,29.6z"/>
		<path class="st0" d="M30.3,19.9c-0.3,0-0.6,0-0.9,0c-0.1,0-0.2-0.2-0.3-0.3c-0.6-1.5-1.2-2.9-1.8-4.4c-0.1-0.2-0.1-0.3-0.3-0.4
			c0,1.7,0,3.4,0,5.1c-0.5,0-0.9,0-1.4,0c0-3,0-6,0-9.1c0.3,0,0.6,0,0.9,0c0.1,0,0.2,0.2,0.3,0.3c0.6,1.4,1.2,2.8,1.8,4.2
			c0.1,0.1,0.1,0.3,0.3,0.4c0-0.1,0-0.3,0-0.4c0-1.4,0-2.7,0-4.1c0-0.3,0.1-0.5,0.4-0.4c0.3,0,0.6,0,0.9,0
			C30.3,13.8,30.3,16.8,30.3,19.9z"/>
		<path class="st0" d="M31.4,15.3c0-0.9-0.1-1.8,0-2.7c0.1-1.2,0.8-1.8,1.9-1.9c0.5-0.1,1-0.1,1.4,0c0.9,0.2,1.5,0.8,1.7,1.8
			c0.1,0.3,0.1,0.7,0.1,1c0,1.2,0,2.4,0,3.6c0,0.3-0.1,0.7-0.2,1.1c-0.3,1-1,1.6-2,1.6c-0.1,0-0.3,0-0.4,0c-1.7,0-2.6-0.8-2.6-2.5
			C31.3,16.7,31.3,16,31.4,15.3L31.4,15.3z M33,15.3L33,15.3c0,0.6,0,1.2,0,1.8c0,0.3,0,0.7,0.1,1c0.1,0.5,0.4,0.7,0.9,0.7
			s0.9-0.2,0.9-0.7c0-1.8,0-3.7,0-5.5c0-0.5-0.4-0.7-0.8-0.7c-0.7,0-1,0.3-1,1.1C33,13.8,33,14.5,33,15.3z"/>
		<path class="st0" d="M27.2,34.8c-0.5,0-1,0-1.6,0c0-3,0-6,0-9c0.1,0,0.2,0,0.3,0c0.8,0,1.6,0,2.4,0c1.2,0,1.9,0.6,2.1,1.8
			c0.1,0.5,0.1,1.1,0,1.6c-0.2,1-0.9,1.6-1.9,1.6c-0.3,0-0.6,0-0.9,0s-0.4,0.1-0.4,0.4c0,1,0,2.1,0,3.1
			C27.2,34.5,27.2,34.6,27.2,34.8z M27.2,26.9c0,0.9,0,1.8,0,2.7c0.6-0.1,1.2,0.2,1.5-0.4s0.3-1.3,0-1.9
			C28.5,26.7,27.8,26.9,27.2,26.9z"/>
		<path class="st0" d="M41,25.8c0.5,0,0.9,0,1.5,0c-0.1,0.7-0.2,1.3-0.4,1.9c-0.5,2.3-0.9,4.5-1.4,6.8c-0.1,0.3-0.2,0.4-0.5,0.4
			c-0.4,0-0.9,0.1-1.1-0.1c-0.2-0.2-0.2-0.7-0.3-1.1c-0.5-2.5-1-5.1-1.5-7.6c0-0.1,0-0.2-0.1-0.3c0.4,0,0.8,0,1.2,0
			c0.1,0,0.2,0.2,0.2,0.3c0.3,1.8,0.7,3.5,1,5.3c0,0.2,0.1,0.3,0.2,0.5C40.3,29.8,40.7,27.8,41,25.8z"/>
		<path class="st0" d="M89.7,77.3c0,1.5-1.2,2.7-2.7,2.7s-2.7-1.2-2.7-2.7s1.2-2.8,2.7-2.8S89.7,75.7,89.7,77.3z"/>
		<path class="st0" d="M40.1,77.3c0,1.5-1.2,2.7-2.7,2.7s-2.7-1.2-2.7-2.7s1.2-2.7,2.7-2.7C38.9,74.5,40.1,75.7,40.1,77.3z"/>
		<path class="st0" d="M45.1,33.7c0.7,0,1.4,0,2.2,0c0,0.4,0,0.7,0,1.1c-0.6,0-1.2,0-1.9,0c-0.6,0-1.2,0-1.9,0c0-3,0-6,0-9
			c1.2,0,2.5,0,3.7,0c0,0.3,0,0.7,0,1.1c-0.7,0-1.4,0-2.1,0c0,0.9,0,1.7,0,2.6c0.5,0,1.1,0,1.6,0c0,0.4,0,0.7,0,1.2
			c-0.4,0-0.9,0-1.3,0c-0.3,0-0.4,0.1-0.4,0.4C45.1,31.9,45.1,32.8,45.1,33.7z"/>
		<path class="st0" d="M58.6,25.8C58.6,25.8,58.7,25.8,58.6,25.8c1.4-0.1,1.4-0.1,1.9,1.2c0.2,0.7,0.5,1.5,0.8,2.3
			c0.1-0.3,0.2-0.6,0.3-0.9c0.2-0.8,0.5-1.5,0.7-2.3c0.1-0.2,0.1-0.3,0.4-0.3c0.4,0,0.8,0,1.2,0c-0.2,0.6-0.3,1.1-0.5,1.6
			c-0.4,1.2-0.8,2.4-1.1,3.6c-0.1,0.4-0.2,0.8-0.2,1.2c0,0.9,0,1.8,0,2.7c-0.5,0-1,0-1.5,0c0-0.5,0-1,0-1.4c0.1-1.4-0.2-2.7-0.6-4
			c-0.4-1.1-0.7-2.2-1.1-3.2C58.6,26,58.6,25.9,58.6,25.8z"/>
		<path class="st0" d="M56.9,34.8c-0.6,0-1.1,0-1.6,0c0-2.6,0-5.2,0-7.9c-0.5,0-1,0-1.5,0c0-0.4,0-0.8,0-1.1c1.5,0,3.1,0,4.6,0
			c0,0.4,0,0.7,0,1.1c-0.3,0-0.7,0-1,0c-0.4,0-0.5,0.1-0.5,0.5c0,2.3,0,4.6,0,6.9C56.9,34.4,56.9,34.6,56.9,34.8z"/>
	</g>
</g>
</svg>
