<?xml version="1.0" encoding="utf-8"?>
<!-- Generator: Adobe Illustrator 25.0.1, SVG Export Plug-In . SVG Version: 6.00 Build 0)  -->
<svg version="1.1" id="Layer_1" xmlns="http://www.w3.org/2000/svg" xmlns:xlink="http://www.w3.org/1999/xlink" x="0px" y="0px"
	 viewBox="0 0 125 125" style="enable-background:new 0 0 125 125;" xml:space="preserve">
<style type="text/css">
	.st0{fill:#D2D1D3;}
</style>
<g>
	<g>
		<path class="st0" d="M30.5,22.8c0,2.1,0,4.1,0,6.2c0,1-0.3,2.1-0.8,3c-1,2-2.7,2.9-4.9,3.1c-1,0.1-2,0-3-0.3
			c-2.1-0.7-3.3-2.2-3.8-4.3c-0.2-0.7-0.2-1.5-0.3-2.3c0-3.6,0-7.3,0-10.9c0-1,0.2-1.9,0.5-2.9c0.7-2.4,2.6-3.8,5.1-3.9
			c1.1-0.1,2.1,0,3.2,0.3c2.2,0.7,3.4,2.3,3.8,4.5c0.1,0.6,0.2,1.3,0.2,2C30.5,19.1,30.5,21,30.5,22.8L30.5,22.8z M22.4,22.7
			L22.4,22.7c0,1.8-0.1,3.6,0,5.3c0,0.7,0.1,1.4,0.3,2.1c0.2,0.7,0.7,1,1.4,1c0.7,0,1.2-0.4,1.4-1c0.2-0.6,0.3-1.3,0.3-1.9
			c0-3.6,0-7.1,0-10.7c0-0.7-0.1-1.4-0.3-2c-0.2-0.7-0.7-1-1.5-1s-1.2,0.3-1.4,1c-0.1,0.5-0.2,1-0.3,1.5
			C22.4,18.9,22.4,20.8,22.4,22.7z"/>
		<path class="st0" d="M62.7,67.4c3.7,0,7.5,0,11.2,0c0.5,0,0.6,0,0.6,0.6c0,2.1,0,4.2,0,6.3c0,0.5,0,0.6-0.6,0.6
			c-7.5,0-14.9,0-22.4,0c-0.6,0-0.6,0-0.6-0.6c0-2.1,0-4.3,0-6.4c0-0.4,0.1-0.5,0.5-0.5C55.2,67.4,58.9,67.4,62.7,67.4z"/>
		<path class="st0" d="M62.7,89.7c-3.7,0-7.4,0-11.2,0c-0.6,0-0.6,0-0.6-0.6c0-2.1,0-4.3,0-6.4c0-0.4,0.1-0.5,0.5-0.5
			c7.5,0,15,0,22.4,0c0.5,0,0.6,0,0.6,0.6c0,2.1,0,4.2,0,6.3c0,0.6,0,0.6-0.6,0.6C70.1,89.7,66.4,89.7,62.7,89.7z"/>
		<path class="st0" d="M41.3,67.2c0.1,0.3,0.1,0.5,0.1,0.7c0,3.8,0,7.6,0,11.5c0,3.3,0,6.6,0,9.9c0,0.1,0,0.3,0,0.4
			c-0.1,0.1-0.2,0.1-0.3,0.1s-0.2-0.1-0.2-0.2c-3.5-3.5-7-7-10.5-10.5c-0.4-0.4-0.4-0.5,0-0.8c3.5-3.5,7-7,10.6-10.6
			C40.9,67.4,41.1,67.3,41.3,67.2z"/>
		<path class="st0" d="M62.7,99.8c3.6,0,7.1,0,10.7,0c0.2,0,0.3,0.1,0.5,0.1c-0.1,0.1-0.1,0.3-0.2,0.4c-3.5,3.5-7,7-10.6,10.6
			c-0.4,0.4-0.4,0.4-0.8,0c-3.5-3.5-7-7-10.6-10.6c-0.1-0.1-0.1-0.1-0.2-0.2c-0.1-0.2-0.1-0.3,0.1-0.3c0.1,0,0.2,0,0.4,0
			C55.6,99.8,59.1,99.8,62.7,99.8z"/>
		<path class="st0" d="M62.7,57.2c-3.6,0-7.2,0-10.8,0c-0.2,0-0.3-0.1-0.5-0.1c0.1-0.1,0.1-0.3,0.2-0.4c3.5-3.5,7-7,10.6-10.6
			c0.4-0.4,0.4-0.4,0.8,0c3.5,3.5,7,7,10.5,10.5c0.1,0.1,0.2,0.2,0.2,0.2c0,0.1-0.1,0.3-0.1,0.3c-0.1,0.1-0.2,0-0.3,0
			C69.8,57.2,66.3,57.2,62.7,57.2z"/>
		<path class="st0" d="M84.1,67.2c0.2,0.2,0.4,0.3,0.5,0.4c3.5,3.5,7,7,10.6,10.6c0.4,0.4,0.4,0.4,0,0.8c-3.6,3.4-7.2,7-10.7,10.5
			c-0.1,0.1-0.3,0.2-0.4,0.2c0-0.2-0.1-0.3-0.1-0.5c0-7.2,0-14.4,0-21.5C84,67.6,84,67.4,84.1,67.2z"/>
		<path class="st0" d="M10.9,34.6c0-6.4,0-12.7,0-19.1c-1.2,0.4-2.3,0.8-3.4,1.2c0-0.1-0.1-0.2-0.1-0.2c0-1,0-1.9,0-2.9
			c0-0.1,0.2-0.3,0.3-0.4c1.2-0.7,2.4-1.3,3.6-2.1c0.4-0.3,0.8-0.5,1.3-0.4c0.9,0,1.8,0,2.8,0c0,8,0,15.9,0,23.8
			C13.9,34.6,12.4,34.6,10.9,34.6z"/>
		<path class="st0" d="M57,34.7c0.2,0.2,0.2,0.4,0.4,0.5c0.5,0.3,0.5,0.7,0.3,1.1c0,0.1-0.1,0.2-0.1,0.4c-0.1-0.1-0.3-0.1-0.4-0.2
			c-0.3-0.3-0.6-0.5-0.9-0.9C56,35,55.5,34.9,55,34.9c-1.1-0.1-1.9-1-1.9-2.3C53,31,53,29.4,53,27.9c0.1-1.4,0.8-2.1,2.3-2.2
			s2.7,0.4,2.8,2.2c0.1,1.6,0.1,3.3,0,5C58.1,33.6,57.7,34.3,57,34.7z M54.7,30.2L54.7,30.2c0,0.7,0,1.5,0,2.2c0,0.2,0,0.4,0.1,0.6
			c0.1,0.5,0.5,0.7,1,0.7s0.8-0.3,0.8-0.8c0-1.8,0-3.5,0-5.3c0-0.6-0.5-0.9-1.1-0.8c-0.5,0.1-0.7,0.4-0.7,1
			C54.6,28.6,54.7,29.4,54.7,30.2z"/>
		<path class="st0" d="M50.5,19.9c0-0.2,0-0.3,0-0.5c0-2.7,0-5.4,0-8.1c0-0.4,0.1-0.6,0.5-0.5c0.9,0.1,1.8,0,2.7,0.1
			c1,0.1,1.6,0.7,1.7,1.7c0.1,1.8,0.1,3.6,0,5.4c-0.1,1.2-0.8,1.7-2.1,1.9c-0.2,0-0.4,0-0.5,0C52,19.9,51.3,19.9,50.5,19.9z
			 M52.1,18.7c1.2,0.2,1.7-0.2,1.7-1.4c0-1.4,0-2.8,0-4.2c0-1-0.2-1.2-1.2-1.2c-0.4,0-0.5,0.1-0.5,0.5c0,2,0,3.9,0,5.9
			C52.1,18.5,52.1,18.6,52.1,18.7z"/>
		<path class="st0" d="M72.8,19.9c0-3,0-6,0-9.1c0.8,0,1.5,0,2.3,0c0.2,0,0.5,0,0.7,0.1c1.2,0.2,1.9,0.9,1.9,2.1
			c0,1.5,0.1,3.1,0,4.6c0,1.4-0.8,2.2-2.2,2.3C74.6,19.9,73.7,19.9,72.8,19.9z M74.4,11.9c0,2.3,0,4.5,0,6.8c0.2,0,0.4,0,0.6,0
			c0.7,0,1-0.3,1.1-1c0-0.2,0-0.5,0-0.7c0-1.3,0-2.6,0-4c0-0.6-0.2-1-0.7-1.1C75.1,12,74.8,12,74.4,11.9z"/>
		<path class="st0" d="M41.6,15.8c0,1.4,0,2.7,0,4.1c-0.6,0-1.1,0-1.6,0c0-3,0-6,0-9.1c0.8,0,1.5,0,2.3,0c0.3,0,0.5,0,0.8,0.1
			c1.3,0.2,2,1.1,1.9,2.4c0,0.3,0,0.7-0.1,1s-0.2,0.6-0.5,0.8c-0.5,0.3-0.4,0.6-0.3,1c0.3,1.2,0.7,2.3,1,3.5c0,0.1,0,0.2,0.1,0.3
			c-0.5,0-1.1,0-1.6,0c-0.3-1.2-0.6-2.4-0.9-3.6C42.4,15.7,42.4,15.7,41.6,15.8z M41.6,14.7c0.6,0,1.2,0.1,1.6-0.5
			c0.3-0.5,0.3-1.5-0.1-1.9c-0.4-0.5-1-0.4-1.5-0.4C41.6,12.9,41.6,13.7,41.6,14.7z"/>
		<path class="st0" d="M47.5,34.8c-0.3,0-0.6,0-0.8,0c-0.1,0-0.3-0.2-0.3-0.3c-0.6-1.5-1.2-3-1.9-4.4c-0.1-0.1-0.1-0.3-0.3-0.4
			c0,1.7,0,3.4,0,5.2c-0.5,0-0.9,0-1.4,0c0-3,0-6,0-9c0.3,0,0.6,0,1,0c0.1,0,0.2,0.2,0.3,0.3c0.6,1.4,1.2,2.8,1.8,4.2
			c0.1,0.1,0.1,0.3,0.3,0.4c0-1.6,0-3.3,0-4.9c0.5,0,0.9,0,1.3,0C47.5,28.8,47.5,31.8,47.5,34.8z"/>
		<path class="st0" d="M56.4,10.8c0.5,0,1,0,1.6,0c0,0.2,0,0.4,0,0.5c0,2,0,3.9,0,5.9c0,0.3,0.1,0.7,0.2,1c0.1,0.4,0.4,0.6,0.8,0.6
			c0.4,0,0.7-0.2,0.8-0.6c0.1-0.3,0.1-0.7,0.1-1c0-2,0-3.9,0-5.9c0-0.2,0-0.3,0-0.5c0.5,0,0.9,0,1.4,0c0.1,0,0.2,0.2,0.2,0.3
			c0,1.9,0,3.9,0,5.8c0,0.6-0.1,1.1-0.2,1.6c-0.2,0.7-0.7,1.2-1.5,1.4c-0.5,0.1-1.1,0.1-1.6,0c-1-0.2-1.5-0.8-1.7-1.8
			c-0.1-0.4-0.1-0.7-0.1-1.1C56.3,15,56.4,12.9,56.4,10.8z"/>
		<path class="st0" d="M62.7,25.8c0.5,0,1,0,1.5,0c0,0.2,0,0.3,0,0.5c0,1.9,0,3.8,0,5.7c0,0.5-0.1,1-0.2,1.6
			c-0.2,0.7-0.7,1.2-1.5,1.4c-0.6,0.1-1.2,0.1-1.7,0c-1-0.2-1.4-0.9-1.6-1.8c-0.1-0.4-0.1-0.7-0.1-1.1c0-1.9,0-3.8,0-5.6
			c0-0.2,0-0.3,0-0.5c0.5,0,1,0,1.5,0c0,0.2,0,0.3,0,0.5c0,1.9,0,3.7,0,5.6c0,0.4,0.1,0.8,0.1,1.2c0.1,0.4,0.5,0.7,0.9,0.7
			s0.7-0.2,0.8-0.7c0.1-0.4,0.1-0.8,0.1-1.1c0-1.9,0-3.8,0-5.6C62.6,26.1,62.6,26,62.7,25.8z"/>
		<path class="st0" d="M67.4,14.1c-0.6,0-1.1,0-1.6,0c0-0.5,0-0.9,0-1.3c0-0.5-0.3-0.8-0.7-0.9c-0.6-0.1-0.9,0.2-1,0.7
			C64,12.8,64,13,64,13.2c0,1.4,0,2.8,0,4.2c0,0.2,0,0.5,0.1,0.7c0.1,0.5,0.4,0.7,0.9,0.7s0.8-0.3,0.8-0.8c0-0.3,0-0.7,0-1
			c0-0.2,0-0.3,0-0.5c0.5,0,1,0,1.5,0c0,0.9,0.1,1.9-0.5,2.7c-0.1,0.1-0.1,0.2-0.2,0.2c-0.8,0.7-1.8,0.7-2.8,0.4
			c-0.9-0.2-1.3-0.9-1.5-1.7c-0.1-0.5-0.1-1.1-0.1-1.6c0-1.3,0-2.6,0.1-3.8s0.7-1.8,2-1.9c0.5-0.1,0.9,0,1.4,0.1
			c0.9,0.2,1.3,0.8,1.5,1.6C67.4,13,67.4,13.5,67.4,14.1z"/>
		<path class="st0" d="M66.6,25.7c0.5,0,1,0,1.5,0c0.1,0,0.3,0.1,0.3,0.2c0.6,2.9,1.2,5.8,1.8,8.8c-0.5,0-0.9,0-1.3,0
			c-0.1,0-0.2-0.2-0.2-0.3c-0.1-0.5-0.2-1-0.3-1.5c0-0.2-0.1-0.3-0.4-0.3c-0.4,0-0.8,0-1.3,0c-0.1,0.7-0.3,1.4-0.4,2.1
			c-0.5,0-1,0-1.5,0C65.4,31.8,66,28.8,66.6,25.7z M68.1,31.6c-0.2-1.2-0.4-2.4-0.6-3.5h-0.1c-0.2,1.2-0.4,2.3-0.6,3.5
			C67.3,31.6,67.7,31.6,68.1,31.6z"/>
		<path class="st0" d="M92.9,28.3c-0.1-0.3-0.1-0.7-0.2-0.9c-0.1-0.4-0.5-0.6-0.8-0.5c-0.4,0.1-0.7,0.3-0.7,0.7
			c-0.1,0.6,0.2,1,0.6,1.4s0.9,0.8,1.3,1.2c0.8,0.7,1.4,1.6,1.3,2.7c0,1.3-0.9,2.3-2.4,2.2s-2.3-1-2.3-2.5c0-0.1,0.1-0.3,0.2-0.3
			c0.4-0.1,0.7-0.2,1.2-0.2c0.1,0.3,0.1,0.6,0.2,0.8s0.2,0.5,0.3,0.6c0.2,0.3,0.6,0.4,0.9,0.3c0.3-0.1,0.5-0.4,0.5-0.7
			c0.1-0.6-0.2-1.1-0.6-1.5c-0.5-0.5-1.1-1-1.6-1.4c-0.9-0.8-1.1-1.7-0.9-2.8c0.2-1,1.1-1.6,2.3-1.6c1.4,0.1,2,0.7,2.2,2.2
			c0,0.1-0.1,0.3-0.2,0.3C93.7,28.2,93.3,28.2,92.9,28.3z"/>
		<path class="st0" d="M46,10.8c1.3,0,2.5,0,3.8,0c0,0.4,0,0.7,0,1.1c-0.6,0-1.1,0-1.7,0c-0.4,0-0.5,0.1-0.5,0.5c0,0.7,0,1.4,0,2.2
			c0.6,0,1.1,0,1.7,0c0,0.4,0,0.7,0,1.1c-0.4,0-0.9,0-1.3,0c-0.3,0-0.4,0.1-0.4,0.4c0,0.8,0,1.5,0,2.3c0,0.3,0.1,0.4,0.4,0.4
			c0.6,0,1.2,0,1.8,0c0,0.4,0,0.7,0,1.1c-1.3,0-2.5,0-3.8,0C46,16.9,46,13.9,46,10.8z"/>
		<path class="st0" d="M72,10.8c0,0.4,0,0.7,0,1.1c-0.7,0-1.4,0-2.1,0c0,0.9,0,1.8,0,2.7c0.5,0,1.1,0,1.6,0c0,0.4,0,0.7,0,1.1
			c-0.5,0-1.1,0-1.6,0c0,1,0,2,0,3.1c0.7,0,1.4,0,2.1,0c0,0.4,0,0.7,0,1.1c-1.3,0-2.5,0-3.7,0c0-3,0-6,0-9
			C69.5,10.8,70.8,10.8,72,10.8z"/>
		<path class="st0" d="M52.4,25.8c0,0.4,0,0.7,0,1.1c-0.7,0-1.4,0-2.1,0c0,0.9,0,1.8,0,2.6c0.5,0,1.1,0,1.7,0c0,0.4,0,0.8,0,1.2
			c-0.4,0-0.8,0-1.2,0s-0.5,0.1-0.5,0.5c0,0.7,0,1.4,0,2c0,0.4,0.1,0.5,0.5,0.5c0.6,0,1.1,0,1.7,0c0,0.4,0,0.7,0,1.1
			c-1.3,0-2.5,0-3.8,0c0-3,0-6,0-9C49.9,25.8,51.1,25.8,52.4,25.8z"/>
		<path class="st0" d="M85.4,25.7c0.5,0,0.9,0,1.3,0c0.7,0,1.4,0,2,0c0.3,0,0.4,0.1,0.4,0.3c0,0.9,0.1,0.8-0.8,0.8
			c-0.4,0-0.9,0-1.4,0c0,0.9,0,1.7,0,2.6c0.5,0,1.1,0,1.6,0c0,0.4,0,0.7,0,1.2c-0.4,0-0.9,0-1.3,0c-0.3,0-0.4,0.1-0.4,0.4
			c0,0.9,0,1.7,0,2.7c0.7,0,1.4,0,2.2,0c0,0.4,0,0.7,0,1.1c-1.3,0-2.5,0-3.8,0C85.4,31.8,85.4,28.8,85.4,25.7z"/>
		<path class="st0" d="M78.9,26.9c-0.5,0-1,0-1.5,0c0-0.4,0-0.7,0-1.1c1.5,0,3,0,4.6,0c0,0.4,0,0.7,0,1.1c-0.3,0-0.7,0-1,0
			s-0.5,0.1-0.5,0.5c0,2.3,0,4.6,0,6.9c0,0.2,0,0.3,0,0.5c-0.6,0-1.1,0-1.6,0C78.9,32.2,78.9,29.6,78.9,26.9z"/>
		<path class="st0" d="M70.9,25.8c0.5,0,1,0,1.6,0c0,2.6,0,5.3,0,7.9c0.7,0,1.4,0,2.2,0c0,0.4,0,0.7,0,1.1c-1.2,0-2.5,0-3.8,0
			C70.9,31.8,70.9,28.8,70.9,25.8z"/>
		<path class="st0" d="M41.6,34.8c-0.5,0-1,0-1.6,0c0-3,0-6,0-9c0.5,0,1,0,1.6,0C41.6,28.8,41.6,31.8,41.6,34.8z"/>
		<path class="st0" d="M76.9,25.7c0,3.1,0,6,0,9c-0.5,0-1,0-1.5,0c0-0.1,0-0.3,0-0.4c0-2.7,0-5.4,0-8.2c0-0.3,0.1-0.5,0.5-0.5
			C76.1,25.8,76.5,25.7,76.9,25.7z"/>
		<path class="st0" d="M82.6,25.8c0.5,0,1,0,1.5,0c0,3,0,6,0,9c-0.5,0-1,0-1.5,0C82.6,31.8,82.6,28.8,82.6,25.8z"/>
	</g>
</g>
</svg>
