<?xml version="1.0" encoding="utf-8"?>
<!-- Generator: Adobe Illustrator 25.0.1, SVG Export Plug-In . SVG Version: 6.00 Build 0)  -->
<svg version="1.1" id="Layer_1" xmlns="http://www.w3.org/2000/svg" xmlns:xlink="http://www.w3.org/1999/xlink" x="0px" y="0px"
	 viewBox="0 0 125 125" style="enable-background:new 0 0 125 125;" xml:space="preserve">
<style type="text/css">
	.st0{fill:#D2D1D3;}
</style>
<g>
	<g>
		<path class="st0" d="M62.5,81.2c0,10.3,0,20.6,0,30.9c0,0.2,0.1,0.4,0,0.5c-0.1,0.2-0.2,0.3-0.4,0.4c-0.1,0.1-0.2,0-0.3,0
			c-5.9,0-11.8,0-17.7,0c-0.7,0-0.8-0.1-0.8-0.8c0-20.7,0-41.4,0-62.1c0-0.7,0.1-0.8,0.8-0.8c5.9,0,11.8,0,17.7,0
			c0.7,0,0.7,0,0.7,0.7C62.5,60.5,62.5,70.8,62.5,81.2z M59.4,103.5c0-0.7,0-1.4,0-2.1c0-0.4-0.1-0.5-0.5-0.5c-1.3,0-2.5,0-3.8,0
			c-0.3,0-0.5,0.1-0.5,0.5c0,1.4,0,2.9,0,4.3c0,0.3,0.2,0.5,0.5,0.5c1.3,0,2.6,0,3.8,0c0.3,0,0.5-0.2,0.5-0.5
			C59.4,104.9,59.4,104.2,59.4,103.5z M51.2,103.5c0-0.7,0-1.4,0-2.2c0-0.3-0.1-0.5-0.5-0.5c-1.3,0-2.6,0-3.8,0
			c-0.3,0-0.5,0.2-0.5,0.5c0,1.4,0,2.8,0,4.3c0,0.3,0.2,0.5,0.5,0.5c1.3,0,2.6,0,3.8,0c0.3,0,0.5-0.2,0.5-0.5
			C51.2,105,51.2,104.3,51.2,103.5z M51.2,82c0-0.7,0-1.4,0-2.1c0-0.5-0.1-0.6-0.6-0.6c-1.2,0-2.4,0-3.7,0c-0.4,0-0.6,0.2-0.6,0.6
			c0,1.4,0,2.8,0,4.2c0,0.4,0.1,0.5,0.5,0.5c1.3,0,2.5,0,3.8,0c0.3,0,0.5-0.1,0.5-0.5C51.2,83.4,51.2,82.7,51.2,82z M59.4,82
			c0-0.7,0-1.4,0-2.1c0-0.4-0.1-0.6-0.5-0.6c-1.3,0-2.5,0-3.8,0c-0.4,0-0.5,0.2-0.5,0.5c0,1.4,0,2.8,0,4.2c0,0.3,0.1,0.5,0.5,0.5
			c1.3,0,2.5,0,3.8,0c0.3,0,0.5-0.1,0.5-0.5C59.4,83.4,59.4,82.7,59.4,82z M51.2,71.2c0-0.7,0-1.4,0-2.1c0-0.3-0.1-0.5-0.5-0.5
			c-1.3,0-2.5,0-3.8,0c-0.4,0-0.5,0.2-0.5,0.5c0,1.4,0,2.8,0,4.2c0,0.4,0.2,0.6,0.6,0.6c1.2,0,2.5,0,3.8,0c0.4,0,0.5-0.2,0.5-0.5
			C51.2,72.6,51.2,71.9,51.2,71.2z M59.4,71.2c0-0.7,0-1.4,0-2.2c0-0.3-0.1-0.5-0.5-0.5c-1.3,0-2.5,0-3.8,0c-0.3,0-0.5,0.2-0.5,0.5
			c0,1.4,0,2.9,0,4.3c0,0.3,0.2,0.5,0.5,0.5c1.3,0,2.5,0,3.8,0c0.3,0,0.5-0.1,0.5-0.5C59.4,72.6,59.4,71.9,59.4,71.2z M51.2,92.7
			c0-0.7,0-1.4,0-2.1c0-0.3-0.1-0.5-0.5-0.5c-1.3,0-2.6,0-3.8,0c-0.4,0-0.5,0.2-0.5,0.5c0,1.4,0,2.8,0,4.2c0,0.3,0.1,0.5,0.5,0.5
			c1.3,0,2.6,0,3.8,0c0.3,0,0.5-0.1,0.5-0.5C51.2,94.2,51.2,93.5,51.2,92.7z M51.2,60.4c0-0.7,0-1.4,0-2.1c0-0.4-0.1-0.6-0.5-0.6
			c-1.3,0-2.5,0-3.8,0c-0.4,0-0.5,0.1-0.5,0.5c0,1.4,0,2.8,0,4.2c0,0.3,0.1,0.5,0.5,0.5c1.3,0,2.6,0,3.8,0c0.4,0,0.5-0.2,0.5-0.5
			C51.2,61.8,51.2,61.1,51.2,60.4z M59.4,60.5c0-0.7,0-1.4,0-2.1c0-0.4-0.1-0.5-0.5-0.5c-1.3,0-2.5,0-3.8,0c-0.3,0-0.5,0.1-0.5,0.5
			c0,1.4,0,2.9,0,4.3c0,0.3,0.1,0.5,0.5,0.5c1.3,0,2.6,0,3.9,0c0.3,0,0.5-0.1,0.5-0.5C59.4,61.9,59.4,61.1,59.4,60.5z M59.4,92.7
			c0-0.7,0-1.4,0-2.1c0-0.3-0.1-0.5-0.5-0.5c-1.3,0-2.6,0-3.8,0c-0.4,0-0.5,0.2-0.5,0.5c0,1.4,0,2.8,0,4.2c0,0.3,0.1,0.5,0.5,0.5
			c1.3,0,2.6,0,3.8,0c0.3,0,0.5-0.1,0.5-0.5C59.4,94.2,59.4,93.5,59.4,92.7z"/>
		<path class="st0" d="M84.3,87c0,8.4,0,16.8,0,25.2c0,0.7-0.1,0.8-0.7,0.8c-5.9,0-11.8,0-17.7,0c-0.6,0-0.7-0.1-0.7-0.7
			c0-9.2,0-18.3,0-27.5c0-0.3,0.1-0.6,0.3-0.9c4.3-5.4,8.5-10.8,12.8-16.2c1.6-2.1,3.3-4.2,4.9-6.3c0.1-0.1,0.2-0.3,0.3-0.4
			c0.1-0.1,0.3-0.2,0.5-0.2c0.1,0,0.2,0.2,0.3,0.4c0.1,0.1,0,0.3,0,0.5C84.3,70.2,84.3,78.6,84.3,87z M73.9,82.8L73.9,82.8
			c0-1.2,0-2.4,0-3.6c0-0.3-0.1-0.6-0.4-0.7s-0.5,0.1-0.7,0.3c-1.6,2.1-3.3,4.1-5,6.2c-0.3,0.4-0.5,0.9-0.4,1.4
			c0,0.6,0.2,0.8,0.8,0.8c1.6,0,3.2,0,4.8,0c0.8,0,0.9-0.1,0.9-1C73.9,85.1,73.9,84,73.9,82.8z M79,80.9c0.9,0,1.7,0,2.5,0
			c0.5,0,0.7-0.2,0.7-0.7c0-1,0-2,0-3.1c0-0.4-0.2-0.7-0.6-0.7c-1.8,0-3.5,0-5.2,0c-0.5,0-0.6,0.2-0.6,0.7c0,1,0,2.1,0,3.1
			c0,0.5,0.2,0.7,0.7,0.7C77.3,80.9,78.2,80.9,79,80.9z M70.6,95.5c-0.9,0-1.7,0-2.6,0c-0.5,0-0.6,0.2-0.6,0.6c0,1.1,0,2.1,0,3.2
			c0,0.5,0.2,0.6,0.7,0.6c1.7,0,3.4,0,5.2,0c0.5,0,0.6-0.2,0.6-0.6c0-1,0-2.1,0-3.1c0-0.5-0.1-0.6-0.7-0.6
			C72.4,95.5,71.5,95.5,70.6,95.5z M79,87.2c0.9,0,1.7,0,2.6,0c0.5,0,0.7-0.2,0.7-0.7c0-1,0-2,0-3c0-0.5-0.2-0.6-0.7-0.6
			c-1.7,0-3.5,0-5.2,0c-0.5,0-0.6,0.1-0.6,0.6c0,1,0,2,0,3.1c0,0.5,0.2,0.7,0.7,0.7C77.3,87.2,78.2,87.2,79,87.2z M79,95.5
			c-0.9,0-1.7,0-2.6,0c-0.5,0-0.6,0.2-0.6,0.6c0,1,0,2.1,0,3.1c0,0.5,0.2,0.7,0.6,0.7c1.7,0,3.4,0,5.2,0c0.5,0,0.7-0.2,0.7-0.7
			c0-1,0-2.1,0-3.1c0-0.5-0.2-0.6-0.6-0.6C80.7,95.5,79.9,95.5,79,95.5z M70.7,106.2c0.9,0,1.7,0,2.5,0c0.5,0,0.7-0.2,0.7-0.7
			c0-1,0-2,0-3c0-0.6-0.1-0.7-0.7-0.7c-1.7,0-3.4,0-5.1,0c-0.5,0-0.7,0.2-0.7,0.7c0,1,0,2,0,3c0,0.5,0.2,0.7,0.7,0.7
			C68.9,106.2,69.8,106.2,70.7,106.2z M79,89.1c-0.9,0-1.7,0-2.6,0c-0.5,0-0.7,0.1-0.7,0.7c0,1,0,2,0,3c0,0.5,0.2,0.7,0.7,0.7
			c1.7,0,3.4,0,5.1,0c0.5,0,0.7-0.2,0.7-0.7c0-1,0-2,0-3c0-0.5-0.2-0.7-0.7-0.7C80.7,89.1,79.9,89.1,79,89.1z M79,101.8
			c-0.9,0-1.7,0-2.6,0c-0.5,0-0.7,0.2-0.7,0.6c0,1,0,2.1,0,3.1c0,0.5,0.2,0.6,0.7,0.6c1.7,0,3.4,0,5.1,0c0.5,0,0.7-0.2,0.7-0.7
			c0-1,0-2,0-3c0-0.5-0.2-0.7-0.7-0.7C80.7,101.8,79.9,101.8,79,101.8z M70.7,89.1c-0.9,0-1.8,0-2.6,0c-0.5,0-0.6,0.2-0.6,0.6
			c0,1,0,2.1,0,3.1c0,0.5,0.2,0.7,0.7,0.7c1.7,0,3.4,0,5.2,0c0.5,0,0.6-0.2,0.6-0.7c0-1,0-2.1,0-3.1c0-0.5-0.1-0.6-0.6-0.6
			C72.4,89.1,71.5,89.1,70.7,89.1z M82.3,71.1L82.3,71.1c0-0.9,0-1.8,0-2.7c0-0.3-0.1-0.6-0.4-0.7c-0.2,0-0.5,0.1-0.7,0.3
			c-1.5,1.8-3,3.6-4.4,5.5c-0.1,0.2-0.2,0.5-0.1,0.7c0.1,0.3,0.4,0.3,0.6,0.3c1.4,0,2.7,0,4.1,0c0.7,0,0.9-0.2,0.9-0.9
			C82.3,72.7,82.3,71.9,82.3,71.1z"/>
		<path class="st0" d="M86.6,103.2c0-3.1,0-6.1,0-9.2c0-0.6,0.1-0.7,0.7-0.7c6.1,0,12.1,0,18.2,0c0.6,0,0.7,0.1,0.7,0.7
			c0,6.1,0,12.2,0,18.3c0,0.6-0.1,0.7-0.7,0.7c-6.1,0-12.1,0-18.2,0c-0.6,0-0.7-0.1-0.7-0.7C86.6,109.4,86.6,106.3,86.6,103.2z
			 M100.8,95.5c-0.9,0-1.8,0-2.6,0c-0.6,0-0.7,0.2-0.7,0.8c0,1,0,1.9,0,2.9c0,0.5,0.2,0.7,0.7,0.8c1.8,0,3.5,0,5.2,0
			c0.5,0,0.7-0.2,0.7-0.7c0-1,0-2,0-3c0-0.6-0.2-0.7-0.7-0.7C102.5,95.5,101.7,95.5,100.8,95.5z M92.2,95.5L92.2,95.5
			c-0.9,0-1.8,0-2.6,0c-0.5,0-0.7,0.2-0.7,0.7c0,1,0,2,0,3c0,0.5,0.2,0.7,0.7,0.7c1.8,0,3.5,0,5.3,0c0.5,0,0.7-0.2,0.7-0.7
			c0-1,0-2,0-3c0-0.6-0.2-0.8-0.8-0.8C93.9,95.5,93.1,95.5,92.2,95.5z M92.2,106.2c0.9,0,1.8,0,2.6,0c0.5,0,0.7-0.2,0.7-0.7
			c0-1,0-2,0-3c0-0.5-0.2-0.7-0.7-0.7c-1.7,0-3.5,0-5.2,0c-0.5,0-0.7,0.2-0.7,0.7c0,1,0,2,0,3c0,0.5,0.2,0.7,0.7,0.7
			C90.5,106.2,91.4,106.2,92.2,106.2z M100.8,106.2c0.9,0,1.8,0,2.7,0c0.5,0,0.7-0.2,0.7-0.7c0-1,0-2,0-3c0-0.5-0.2-0.7-0.7-0.7
			c-1.8,0-3.5,0-5.3,0c-0.5,0-0.7,0.2-0.7,0.7c0,1,0,2,0,3c0,0.5,0.2,0.7,0.7,0.7C99.1,106.2,99.9,106.2,100.8,106.2z"/>
		<path class="st0" d="M30.7,97.3c3.1,0,6.1,0,9.2,0c0.6,0,0.7,0.1,0.7,0.7c0,4.8,0,9.5,0,14.3c0,0.6-0.1,0.7-0.7,0.7
			c-1.8,0-3.6,0-5.4,0c-0.4,0-0.5-0.1-0.5-0.5c0-2.8,0-5.6,0-8.5c0-0.7-0.1-0.9-0.9-0.9c-1.7,0-3.4,0-5,0c-0.6,0-0.8,0.2-0.8,0.8
			c0,2.8,0,5.7,0,8.5c0,0.4-0.1,0.5-0.5,0.5c-1.8,0-3.5,0-5.2,0c-0.6,0-0.7-0.1-0.7-0.7c0-4.8,0-9.5,0-14.3c0-0.6,0.1-0.7,0.7-0.7
			C24.5,97.3,27.6,97.3,30.7,97.3z"/>
		<path class="st0" d="M30.8,95.5c-3,0-6,0-9,0c-0.1,0-0.2,0-0.3,0c-0.2-0.1-0.4-0.1-0.5-0.3c-0.1-0.1,0-0.4,0.1-0.5
			c0.9-1.2,1.8-2.4,2.7-3.5c2.1-2.8,4.3-5.6,6.4-8.4c0.5-0.6,0.6-0.6,1.1,0c3.1,4,6.1,7.9,9.2,11.9c0.1,0.2,0.2,0.5,0.1,0.6
			c-0.1,0.2-0.4,0.3-0.6,0.3C36.9,95.5,33.8,95.5,30.8,95.5z"/>
		<path class="st0" d="M20.9,15.5c-1.2,0.4-2.3,0.8-3.4,1.2c0-0.5,0-0.9,0-1.3c0-0.5,0-1.1,0-1.6c0-0.3,0.1-0.4,0.3-0.5
			c1.4-0.6,2.8-1.3,3.9-2.3c0.1-0.1,0.3-0.1,0.5-0.1c0.9,0,1.8,0,2.6,0c0.4,0,0.5,0.1,0.5,0.5c0,6.9,0,13.7,0,20.6
			c0,0.7,0,1.5,0,2.3c0,0.3-0.1,0.4-0.4,0.4c-1.2,0-2.4,0-3.6,0c-0.4,0-0.5-0.1-0.5-0.5c0-6,0-11.9,0-17.9
			C20.9,16,20.9,15.8,20.9,15.5z"/>
		<path class="st0" d="M10.9,15.5c-1.2,0.4-2.3,0.8-3.4,1.2c0-0.7,0.1-1.3,0-1.9c-0.1-1,0.2-1.5,1.2-1.9c1.1-0.5,2.1-1.2,3.1-1.9
			c0.1-0.1,0.3-0.2,0.5-0.2c0.9,0,1.8,0,2.7,0c0.3,0,0.4,0.1,0.4,0.4c0,7.6,0,15.3,0,22.9c0,0.4-0.1,0.5-0.5,0.4c-1.1,0-2.3,0-3.5,0
			c-0.4,0-0.5-0.1-0.5-0.5c0-6,0-12,0-18C10.9,15.9,10.9,15.8,10.9,15.5z"/>
		<path class="st0" d="M96.4,91.7c-3,0-6.1,0-9.1,0c-0.7,0-0.7,0-0.7-0.7c0-1,0-2.1,0-3.1c0-0.6,0.1-0.6,0.6-0.6c4.5,0,8.9,0,13.4,0
			c1.6,0,3.2,0,4.9,0c0.5,0,0.6,0.1,0.6,0.6c0,1.1,0,2.2,0,3.2c0,0.5-0.1,0.6-0.6,0.6C102.5,91.7,99.4,91.7,96.4,91.7z"/>
		<path class="st0" d="M74.8,32c0.1-0.6,0.3-1.2,0.4-1.8c0.3-1.3,0.6-2.7,0.8-4c0.1-0.3,0.2-0.5,0.5-0.4c0.2,0,0.5,0,0.7,0
			c0.3,0,0.4,0.1,0.4,0.4c0,2.3,0.1,4.6,0.1,6.9c0,0.4,0,0.8,0.1,1.2c0,0.3-0.1,0.5-0.4,0.4c-0.9,0-0.7,0.1-0.8-0.8
			c0-1.6-0.1-3.3-0.1-4.9c0-0.1,0-0.2-0.1-0.3c0,0.1-0.1,0.2-0.1,0.3c-0.4,1.8-0.7,3.5-1.1,5.2c-0.1,0.3-0.2,0.5-0.5,0.5
			s-0.5-0.1-0.6-0.5c-0.3-1.7-0.7-3.4-1.1-5.1c0-0.1-0.1-0.3-0.2-0.4c0,0.1,0,0.2,0,0.3c0,1.7-0.1,3.4-0.1,5.2
			c0,0.4-0.1,0.6-0.5,0.5l0,0c-0.6,0-0.6,0-0.6-0.6c0-1.7,0.1-3.5,0.1-5.2c0-0.9,0.1-1.9,0.1-2.8c0-0.3,0.1-0.4,0.4-0.4
			c1.3-0.1,1.2-0.1,1.5,1.2c0.3,1.5,0.6,3.1,0.9,4.6c0,0.1,0.1,0.2,0.1,0.3C74.7,32,74.8,32,74.8,32z"/>
		<path class="st0" d="M69.2,28.8c-0.1,0.5-0.2,1-0.3,1.5c-0.3,1.3-0.6,2.7-0.8,4c-0.1,0.3-0.2,0.5-0.5,0.5s-0.5-0.1-0.6-0.5
			c-0.3-1.7-0.7-3.5-1.1-5.2c0-0.1-0.1-0.3-0.2-0.4c0,0.2,0,0.3,0,0.5c0,1.7-0.1,3.5-0.1,5.2c0,0.3-0.1,0.4-0.4,0.4
			c-0.9,0-0.8,0.1-0.8-0.8c0-2.1,0.1-4.2,0.1-6.3c0-0.5,0.1-1.1,0.1-1.6c0-0.3,0.1-0.3,0.4-0.4c1.2,0,1.2,0,1.5,1.1
			c0.3,1.6,0.7,3.2,1,4.9c0,0.1,0,0.1,0.1,0.3c0.1-0.2,0.1-0.3,0.1-0.4c0.4-1.8,0.8-3.6,1.1-5.5c0.1-0.4,0.2-0.5,0.7-0.5
			c1,0,1,0,1.1,1c0,1.9,0.1,3.7,0.1,5.6c0,0.7,0,1.3,0.1,2c0,0.3-0.1,0.5-0.4,0.4c-0.9,0-0.7,0.1-0.8-0.7c0-1.7-0.1-3.3-0.1-5
			c0-0.1,0-0.2,0-0.3C69.3,28.8,69.3,28.8,69.2,28.8z"/>
		<path class="st0" d="M76.9,15c0.2,0.1,0.3,0.2,0.5,0.2c0.6,0.3,0.9,0.8,0.9,1.4s0,1.1-0.1,1.7c-0.2,0.9-1,1.5-2.1,1.5
			c-0.8,0-1.7,0-2.5,0c-0.2,0-0.3-0.1-0.3-0.3c0-2.8,0-5.6,0-8.4c0-0.1,0.1-0.3,0.2-0.3c1,0,1.9-0.1,2.9,0.1
			c1.5,0.2,1.8,1.3,1.7,2.6c-0.1,0.6-0.3,1.1-1,1.3C77,14.9,76.9,15,76.9,15z M74.8,17.2c0,0.3,0,0.6,0,0.8c0,0.8-0.1,0.8,0.8,0.8
			c0.8,0,1.2-0.4,1.2-1.2c0-0.1,0-0.3,0-0.4c0-1.1-0.5-1.6-1.6-1.5c-0.3,0-0.3,0.1-0.3,0.4C74.8,16.4,74.8,16.8,74.8,17.2z
			 M74.8,13.2L74.8,13.2c0,0.2,0,0.3,0,0.5c0,0.9-0.2,0.8,0.9,0.8c0.4,0,0.8-0.2,0.9-0.6c0.1-0.4,0.1-0.9,0.1-1.3
			c0-0.2-0.3-0.5-0.5-0.6c-0.3-0.1-0.6-0.1-1-0.1c-0.1,0-0.3,0.2-0.3,0.3C74.8,12.5,74.8,12.9,74.8,13.2z"/>
		<path class="st0" d="M44.8,30.3c0-1.3,0-2.7,0-4c0-0.4,0.1-0.5,0.5-0.5c0.9,0.1,1.8,0,2.6,0.1c1.1,0.1,1.8,0.9,1.8,2
			c0,1.5,0,3.1,0,4.6c0,1.4-0.9,2.2-2.4,2.3c-0.7,0-1.4,0-2.1,0c-0.3,0-0.4-0.1-0.4-0.4C44.9,33,44.8,31.6,44.8,30.3z M46.4,30.3
			c0,1,0,2,0,3c0,0.1,0.1,0.3,0.2,0.4c0.7,0.3,1.6-0.2,1.6-1c0-1.5,0-3.1,0-4.6c0-1-0.3-1.2-1.3-1.2c-0.3,0-0.4,0.1-0.4,0.4
			C46.4,28.3,46.4,29.3,46.4,30.3z"/>
		<path class="st0" d="M58.3,30.2c0-0.9,0-1.8,0.1-2.7c0.1-1.2,0.9-1.9,2.1-1.9c0.4,0,0.8,0,1.1,0c1,0.2,1.7,0.9,1.7,1.9
			c0.1,1.7,0.1,3.5,0,5.2c-0.1,1.3-0.9,2-2.2,2c-0.3,0-0.7,0-1,0c-1.2-0.2-1.8-1.1-1.8-2.5C58.4,31.6,58.4,30.9,58.3,30.2
			C58.4,30.2,58.3,30.2,58.3,30.2z M60,30.3L60,30.3c0,0.8,0,1.5,0,2.3c0,0.2,0,0.4,0.1,0.5c0.1,0.5,0.4,0.7,0.9,0.7
			s0.8-0.2,0.9-0.7c0.1-0.2,0.1-0.4,0.1-0.7c0-1.4,0-2.8,0-4.2c0-0.2,0-0.5-0.1-0.7c-0.1-0.4-0.4-0.6-0.8-0.7c-0.7,0-1,0.3-1.1,1
			C59.9,28.6,60,29.4,60,30.3z"/>
		<path class="st0" d="M40.5,29.6c0,0.1,0,0.3,0,0.4c0,1.4,0,2.9,0,4.3c0,0.4-0.1,0.5-0.5,0.5c-0.9,0-0.8,0.1-0.8-0.8
			c0-2.6,0-5.1,0-7.7c0-0.2-0.1-0.5,0.2-0.6c0.5-0.1,0.9,0,1,0.3c0.6,1.4,1.2,2.8,1.8,4.2c0.1,0.1,0.1,0.3,0.3,0.4
			c0-0.1,0-0.3,0-0.4c0-1.4,0-2.7,0-4c0-0.4,0.1-0.5,0.5-0.5c0.9,0,0.8-0.1,0.8,0.8c0,2.6,0,5.1,0,7.7c0,0.2,0.1,0.4-0.2,0.5
			c-0.5,0.1-0.8,0-0.9-0.3c-0.6-1.5-1.2-3-1.8-4.4c-0.1-0.2-0.2-0.3-0.2-0.5C40.6,29.6,40.5,29.6,40.5,29.6z"/>
		<path class="st0" d="M63.5,14.7c0,0.1,0,0.3,0,0.4c0,1.4,0,2.9,0,4.3c0,0.3-0.1,0.5-0.5,0.5c-0.9,0-0.8,0.1-0.8-0.8
			c0-2.5,0-5.1,0-7.6c0-0.2-0.1-0.5,0.2-0.6c0.5-0.1,0.8,0,1,0.4c0.6,1.4,1.2,2.8,1.8,4.2c0.1,0.1,0.1,0.2,0.3,0.3
			c0-0.1,0-0.3,0-0.4c0-1.4,0-2.7,0-4.1c0-0.4,0.1-0.5,0.5-0.5c0.9,0,0.8-0.1,0.8,0.8c0,2.6,0,5.1,0,7.7c0,0.2,0.1,0.5-0.2,0.5
			c-0.3,0-0.7,0.2-0.9-0.3c-0.6-1.5-1.2-2.9-1.8-4.4c-0.1-0.2-0.2-0.4-0.3-0.5C63.6,14.6,63.5,14.6,63.5,14.7z"/>
		<path class="st0" d="M86.1,29.6c0,0.1,0,0.3,0,0.4c0,1.4,0,2.9,0,4.3c0,0.3-0.1,0.5-0.5,0.5c-1,0-0.8,0.1-0.8-0.9
			c0-2.5,0-5.1,0-7.6c0-0.2-0.1-0.5,0.2-0.5c0.5-0.1,0.8,0,1,0.3c0.6,1.4,1.2,2.8,1.8,4.2c0.1,0.1,0.1,0.3,0.2,0.4h0.1
			c0-0.1,0-0.3,0-0.4c0-1.4,0-2.7,0-4.1c0-0.3,0.1-0.5,0.5-0.5c0.9,0,0.8-0.1,0.8,0.8c0,2.6,0,5.1,0,7.7c0,0.2,0.1,0.5-0.2,0.5
			c-0.3,0-0.7,0.2-0.9-0.3c-0.6-1.5-1.2-3-1.9-4.5c-0.1-0.1-0.1-0.2-0.2-0.4C86.2,29.6,86.1,29.6,86.1,29.6z"/>
		<path class="st0" d="M82.3,29.3c0-1,0-2.1,0-3.1c0-0.3,0.1-0.5,0.4-0.5c1.1,0,1.1,0,1.1,1.1c0,1.8,0,3.6,0,5.5
			c0,0.4-0.1,0.8-0.2,1.2c-0.3,0.9-0.9,1.4-1.9,1.4c-0.5,0-1.1,0-1.6-0.2c-0.5-0.1-0.9-0.5-1.1-1s-0.3-1-0.3-1.5c0-2,0-4,0-6
			c0-0.3,0.1-0.5,0.5-0.5c1.1,0,1.1,0,1.1,1c0,1.8,0,3.5,0,5.2c0,0.3,0,0.6,0.1,0.9c0.1,0.5,0.4,0.8,0.9,0.8c0.4,0,0.8-0.3,0.9-0.7
			c0.1-0.2,0.1-0.4,0.1-0.7C82.3,31.4,82.3,30.3,82.3,29.3L82.3,29.3z"/>
		<path class="st0" d="M42.3,14.4c0-1,0-2.1,0-3.1c0-0.3,0.1-0.4,0.4-0.5c1.1,0,1.1,0,1.1,1.1c0,1.8,0,3.6,0,5.3
			c0,0.4-0.1,0.8-0.2,1.2c-0.3,1-0.9,1.5-1.9,1.5c-0.3,0-0.7,0-1,0c-1.1-0.2-1.6-0.8-1.8-1.9c-0.1-0.4-0.1-0.9-0.1-1.3
			c0-1.8,0-3.6,0-5.4c0-0.3,0.1-0.5,0.5-0.5c1.1,0,1.1,0,1.1,1c0,1.7,0,3.4,0,5.1c0,0.4,0,0.7,0.1,1.1c0.1,0.5,0.5,0.8,0.9,0.8
			s0.8-0.3,0.9-0.7c0.1-0.2,0.1-0.4,0.1-0.7C42.3,16.4,42.3,15.4,42.3,14.4z"/>
		<path class="st0" d="M91.4,15.4c0,0.8,0,1.5,0,2.3c0,0.7,0.2,1,0.7,1.2c0.5,0.1,1-0.1,1.1-0.7c0.1-0.4,0.1-0.8,0.1-1.2
			c0-0.3,0.1-0.4,0.4-0.4c1.3,0,1.1-0.2,1.1,1.1c0,0.9-0.2,1.7-1,2.1c-1,0.5-2,0.5-2.9-0.1c-0.8-0.5-1-1.4-1-2.2c0-1.3,0-2.7,0-4
			c0-0.4,0.1-0.8,0.2-1.2c0.3-0.9,0.9-1.3,1.8-1.4c0.3,0,0.7,0,1.1,0c1.1,0.1,1.8,0.8,1.8,1.9c0,0.3,0,0.6,0,1
			c0.1,0.5-0.3,0.5-0.6,0.4c-0.3-0.1-0.9,0.3-0.9-0.4c0-0.3,0-0.7-0.1-1c-0.1-0.5-0.3-0.7-0.7-0.7c-0.6,0-0.9,0.2-1,0.7
			c-0.1,0.3-0.1,0.6-0.1,0.9C91.4,14.1,91.4,14.7,91.4,15.4L91.4,15.4z"/>
		<path class="st0" d="M52.7,30.3c0.1-0.9,0-1.8,0.2-2.7c0.2-1.2,0.9-1.8,2.2-1.8c0.3,0,0.7,0,1,0.1c1,0.2,1.6,0.9,1.6,2.1
			c0,1.4,0.2,1.1-1.1,1.1c-0.3,0-0.5-0.1-0.4-0.4c0-0.3,0-0.6,0-0.9c0-0.6-0.3-0.9-0.9-0.9c-0.6,0-0.9,0.3-1,0.8s-0.1,0.9-0.1,1.4
			c0,1.3,0,2.5,0.1,3.8c0,0.4,0.2,0.8,0.6,0.9c0.6,0.2,1.1-0.2,1.2-0.8c0-0.4,0-0.7,0-1.1c0-0.3,0.1-0.3,0.3-0.3
			c1.4,0,1.2-0.2,1.2,1.1c0,1.5-0.8,2.3-2.3,2.3c-1.7,0-2.6-0.8-2.6-2.5C52.8,31.6,52.8,30.9,52.7,30.3
			C52.8,30.3,52.7,30.3,52.7,30.3z"/>
		<path class="st0" d="M33.3,34.8c0.2-1.2,0.5-2.3,0.7-3.4c0.3-1.7,0.7-3.5,1.1-5.2c0.1-0.3,0.2-0.5,0.6-0.5c1.2,0,1.2,0,1.4,1.1
			c0.5,2.5,1,5,1.5,7.4c0,0.1,0,0.2,0.1,0.4c-0.4,0-0.8,0-1.2,0c-0.1,0-0.2-0.2-0.2-0.3c-0.1-0.5-0.2-1-0.3-1.4
			c0-0.2-0.1-0.4-0.4-0.3c-0.3,0-0.6,0-1,0c-0.3,0-0.4,0.1-0.5,0.4c-0.1,0.5-0.2,0.9-0.3,1.4c0,0.1-0.2,0.3-0.3,0.3
			C34.1,34.8,33.8,34.8,33.3,34.8z M36,28.1C35.9,28.1,35.9,28.1,36,28.1c-0.3,1.2-0.5,2.4-0.7,3.6c0.4,0,0.7,0,1,0s0.3-0.1,0.3-0.4
			c-0.1-0.5-0.1-1-0.2-1.4C36.2,29.3,36.1,28.7,36,28.1z"/>
		<path class="st0" d="M67.4,19.9c0.2-1.1,0.4-2,0.6-3c0.4-1.9,0.8-3.7,1.1-5.6c0.1-0.3,0.2-0.4,0.5-0.4c1.2,0,1.3,0,1.5,1.2
			c0.5,2.5,1,5,1.5,7.4c0.1,0.3,0,0.4-0.3,0.4c-1,0-1,0-1.2-1v-0.1c-0.2-1.2-0.3-1.3-1.5-1.1c-0.1,0-0.3,0.2-0.3,0.4
			c-0.1,0.5-0.2,1-0.3,1.4c0,0.1-0.1,0.3-0.2,0.3C68.3,19.9,67.8,19.9,67.4,19.9z M70.1,13.1L70.1,13.1c-0.1,0.1-0.2,0.1-0.2,0.1
			c-0.2,1.1-0.4,2.2-0.5,3.2c-0.1,0.3,0.2,0.3,0.3,0.3c0.3-0.1,0.7,0.2,0.9-0.2v-0.1C70.5,15.4,70.3,14.3,70.1,13.1z"/>
		<path class="st0" d="M59,19.9c-0.4,0-0.8,0-1.2,0c-0.1,0-0.2-0.2-0.3-0.4c-0.1-0.5-0.2-1-0.3-1.4c0-0.1-0.2-0.2-0.3-0.3h-0.1
			c-1.5,0-1.1-0.2-1.4,1.2c-0.2,1.2,0.1,0.9-1.2,1c-0.3,0-0.4-0.1-0.3-0.4c0.6-2.8,1.1-5.5,1.7-8.3c0.1-0.3,0.2-0.4,0.5-0.4
			c1.2,0,1.2,0,1.5,1.3c0.5,2.5,1,5,1.5,7.5C58.9,19.7,58.9,19.7,59,19.9z M55.7,16.8c0.4,0,0.6,0,0.9,0c0.3,0,0.4-0.1,0.4-0.4
			c-0.2-1-0.3-2-0.5-3c0-0.1-0.1-0.1-0.2-0.3C56.1,14.3,55.9,15.5,55.7,16.8z"/>
		<path class="st0" d="M112.5,13.4c-0.1-0.3-0.1-0.6-0.2-0.9c-0.1-0.5-0.5-0.7-0.9-0.6c-0.4,0.1-0.7,0.4-0.7,0.8
			c0,0.6,0.2,1,0.6,1.3c0.5,0.4,1,0.8,1.4,1.2c0.9,0.8,1.4,1.8,1.1,3.1c-0.2,0.9-1,1.6-1.9,1.6c-1.6,0-2.6-0.8-2.7-2.3
			c0-0.3,0.1-0.5,0.4-0.5c0.9-0.2,0.8-0.2,1.1,0.6c0.2,0.7,0.5,1,1,1c0.4,0,0.7-0.3,0.7-0.7c0.1-0.6-0.1-1.1-0.5-1.5
			s-0.9-0.8-1.3-1.2c-0.2-0.2-0.5-0.4-0.7-0.7c-0.7-0.7-0.9-2-0.5-2.9c0.2-0.5,0.6-0.8,1.2-1c0.5-0.2,1.1-0.2,1.6-0.1
			c0.9,0.2,1.6,1.3,1.5,2.2c0,0.1-0.1,0.2-0.2,0.2C113.2,13.2,112.9,13.3,112.5,13.4z"/>
		<path class="st0" d="M47.8,13.4c-0.1-0.3-0.1-0.6-0.2-0.8c-0.2-0.5-0.5-0.7-1-0.6c-0.5,0.1-0.8,0.5-0.7,1c0.1,0.4,0.3,0.7,0.5,1
			c0.4,0.4,0.9,0.8,1.3,1.2c0.9,0.8,1.5,1.7,1.4,3c-0.1,1-0.9,1.8-1.9,1.9c-1.7,0.1-2.6-0.6-2.8-2.3c0-0.3,0.1-0.4,0.3-0.5
			c0.3-0.1,0.6-0.2,0.9-0.1c0.2,0.1,0.2,0.5,0.2,0.8c0.2,0.6,0.5,0.9,1.1,0.9c0.3,0,0.6-0.2,0.6-0.5c0.2-0.6,0-1.1-0.4-1.6
			c-0.6-0.6-1.2-1.1-1.8-1.7c-0.8-0.7-1.1-1.6-0.9-2.7c0.2-0.8,0.7-1.3,1.5-1.5c0.4-0.1,0.9-0.1,1.4,0c1.1,0.2,1.5,1.1,1.5,2
			c0,0.1-0.1,0.3-0.3,0.3C48.5,13.2,48.2,13.3,47.8,13.4z"/>
		<path class="st0" d="M36.8,13.4c-0.1-0.3-0.1-0.6-0.2-0.8c-0.2-0.5-0.5-0.8-1-0.6c-0.5,0.1-0.8,0.5-0.6,1c0.1,0.4,0.3,0.7,0.5,1
			c0.4,0.4,0.8,0.7,1.2,1.1c0.4,0.4,0.8,0.8,1.1,1.3c0.6,1,0.5,2.3-0.2,3.1c-1.2,1.2-3.4,0.6-3.9-0.9v-0.1c-0.3-1-0.2-1.3,0.9-1.3
			c0.1,0,0.2,0.1,0.2,0.2c0.1,0.3,0.1,0.6,0.2,0.9c0.2,0.5,0.6,0.7,1.1,0.6c0.4-0.1,0.6-0.6,0.5-1.1c-0.1-0.6-0.4-1-0.8-1.3
			c-0.5-0.4-1-0.9-1.5-1.3c-0.9-0.7-1.1-1.6-0.9-2.7c0.2-0.9,0.7-1.4,1.6-1.5c0.4-0.1,0.9-0.1,1.3,0c0.9,0.1,1.6,1.2,1.6,2.1
			c0,0.1-0.1,0.2-0.2,0.3C37.5,13.2,37.2,13.3,36.8,13.4z"/>
		<path class="st0" d="M107.4,28.3c0-0.2-0.1-0.4-0.1-0.6c-0.1-0.6-0.5-1-1-0.9c-0.6,0.1-0.9,0.6-0.7,1.2c0.1,0.4,0.4,0.7,0.7,1
			c0.5,0.5,1.1,0.9,1.6,1.4c0.7,0.7,1,1.6,0.9,2.6c-0.1,0.9-0.8,1.6-1.7,1.8c-1.7,0.2-2.7-0.6-3-2.2c0-0.3,0-0.5,0.3-0.5
			c0.3-0.1,0.6-0.2,0.9-0.1c0.2,0.1,0.2,0.5,0.2,0.8c0,0.1,0.1,0.3,0.2,0.4c0.2,0.5,0.6,0.6,1.1,0.5c0.3-0.1,0.6-0.5,0.5-1
			c-0.1-0.6-0.3-1-0.7-1.4c-0.5-0.5-1-0.9-1.5-1.3c-0.9-0.8-1.1-1.7-0.8-2.8c0.1-0.3,0.2-0.6,0.4-0.8c0.8-0.8,1.7-0.8,2.7-0.6
			c0.9,0.2,1.2,1,1.3,1.9c0,0.2,0,0.4-0.3,0.4C108.1,28.2,107.7,28.2,107.4,28.3z"/>
		<path class="st0" d="M99.9,30.3c0-1.3,0-2.7,0-4c0-0.3,0.1-0.5,0.5-0.5c1,0,1.9,0,2.9,0c0.4,0,0.4,0.2,0.4,0.5s0.1,0.6-0.4,0.5
			c-0.4,0-0.9,0-1.3,0c-0.3,0-0.5,0.1-0.5,0.4c0,0.6,0,1.3,0,1.9c0,0.3,0.1,0.4,0.4,0.4s0.6,0,0.9,0s0.4,0.1,0.4,0.4
			c0,0.1,0,0.3,0,0.4c-0.1,0.1-0.2,0.3-0.3,0.3c-0.3,0-0.7,0-1,0s-0.4,0.1-0.4,0.4c0,0.8,0,1.6,0,2.4c0,0.3,0.1,0.4,0.4,0.4
			c0.5,0,0.9,0,1.4,0s0.3,0.3,0.4,0.6c0,0.3,0,0.5-0.4,0.5c-1,0-2,0-3,0c-0.3,0-0.4-0.1-0.4-0.4C100,33,99.9,31.6,99.9,30.3z"/>
		<path class="st0" d="M83.3,15.3c0-1.4,0-2.7,0-4c0-0.4,0.1-0.5,0.5-0.5c1,0,1.9,0,2.9,0c0.4,0,0.4,0.2,0.4,0.5s0,0.6-0.4,0.5
			c-0.5,0-0.9,0-1.4,0c-0.3,0-0.4,0.1-0.4,0.4c0,0.7,0,1.3,0,2c0,0.3,0.1,0.3,0.3,0.3c0.3,0,0.7,0,1,0s0.3,0.1,0.3,0.3
			c0,0.1,0,0.2,0,0.4c0,0.3-0.1,0.4-0.4,0.4c-0.1,0-0.1,0-0.2,0c-1.1,0-1.1,0-1.1,1.1c0,0.5,0,1.1,0,1.6c0,0.3,0.1,0.4,0.4,0.4
			c0.5,0,0.9,0,1.4,0s0.3,0.3,0.3,0.6c0,0.3,0,0.5-0.4,0.5c-1,0-2,0-3,0c-0.3,0-0.4-0.1-0.4-0.4C83.3,18.1,83.3,16.7,83.3,15.3z"/>
		<path class="st0" d="M105.1,15.4c0-1.4,0-2.7,0-4.1c0-0.3,0.1-0.4,0.4-0.4c1,0,1.9,0,2.9,0c0.4,0,0.4,0.2,0.4,0.5s0.1,0.6-0.4,0.6
			s-0.9,0-1.3,0c-0.3,0-0.4,0.1-0.4,0.4c0,0.7,0,1.3,0,2c0,0.3,0.1,0.4,0.4,0.4s0.6,0,0.9,0s0.4,0.1,0.4,0.4c0,0.1,0,0.2,0,0.3
			c0,0.3-0.1,0.4-0.4,0.4c-0.1,0-0.1,0-0.2,0c-1.1,0-1.1,0-1.1,1.1c0,0.5,0,1.1,0,1.6c0,0.3,0.1,0.4,0.4,0.4c0.5,0,1,0,1.5,0
			s0.3,0.3,0.3,0.6c0,0.3,0,0.5-0.4,0.5c-1,0-2,0-3,0c-0.3,0-0.4-0.1-0.4-0.4C105.1,18.1,105.1,16.7,105.1,15.4z"/>
		<path class="st0" d="M99.1,15.9c0-1.1,0-2.3,0-3.5c0-0.4-0.1-0.5-0.5-0.5c-0.1,0-0.2,0-0.4,0c-0.7,0-0.9-0.2-0.7-0.9
			c0-0.1,0.2-0.2,0.3-0.2c1.3,0,2.6,0,3.9,0c0.3,0,0.4,0.1,0.3,0.3c0,0.1,0,0.1,0,0.2c0,0.6,0,0.6-0.6,0.6c-1,0-0.9-0.1-0.9,0.9
			c0,2.2,0,4.3,0,6.5c0,0.4-0.1,0.5-0.5,0.5c-1,0-1,0-1-1.1C99.1,17.8,99.1,16.9,99.1,15.9z"/>
		<path class="st0" d="M50.8,15.9c0-1.2,0-2.3,0-3.5c0-0.3-0.1-0.5-0.5-0.5c-0.1,0-0.2,0-0.4,0c-0.8,0-0.8-0.1-0.7-0.8
			c0-0.1,0.2-0.3,0.3-0.3c1.3,0,2.7,0,4,0c0.1,0,0.3,0.2,0.3,0.3c0.1,0.8,0.1,0.8-0.7,0.8s-0.8-0.1-0.8,0.8c0,2.2,0,4.4,0,6.6
			c0,0.4-0.1,0.5-0.5,0.5c-1,0-1,0-1-1C50.8,17.9,50.8,16.9,50.8,15.9z"/>
		<path class="st0" d="M93.9,30.9c0-1.2,0-2.3,0-3.5c0-0.4-0.1-0.5-0.5-0.5c-0.2,0-0.3,0-0.5,0c-0.6,0-0.6,0-0.6-0.6
			c0-0.5,0-0.5,0.6-0.5c1.2,0,2.4,0,3.5,0c0.5,0,0.4,0.3,0.4,0.6c0,0.3,0,0.6-0.5,0.5l0,0c-1.1,0-1-0.2-1,1c0,2.1,0,4.3,0,6.4
			c0,0.4-0.1,0.5-0.5,0.5c-1,0-1,0-1-1C93.9,32.8,93.9,31.8,93.9,30.9z"/>
		<path class="st0" d="M79,15.3c0-1.4,0-2.7,0-4c0-0.4,0.1-0.5,0.5-0.5c1.1,0,1.1,0,1.1,1.1c0,2.1,0,4.2,0,6.3c0,0.6,0,0.6,0.6,0.6
			c0.4,0,0.8,0,1.2,0c0.5,0,0.4,0.3,0.4,0.6c0,0.3,0,0.5-0.4,0.5c-1,0-2,0-3,0c-0.3,0-0.4-0.1-0.4-0.4C79,18.1,79,16.7,79,15.3z"/>
		<path class="st0" d="M97.4,30.3c0-1.4,0-2.7,0-4.1c0-0.3,0.1-0.5,0.4-0.4c0.3,0,0.5,0,0.8,0s0.4,0.1,0.4,0.4c0,1,0,2.1,0,3.1
			c0,1.7,0,3.4,0,5c0,0.4-0.1,0.5-0.5,0.5c-1.1,0-1.1,0-1.1-1.1C97.4,32.5,97.4,31.4,97.4,30.3z"/>
		<path class="st0" d="M90.5,30.3c0-1.4,0-2.7,0-4c0-0.3,0.1-0.5,0.5-0.5c1.1,0,1.1,0,1.1,1.1c0,2.5,0,5,0,7.4
			c0,0.4-0.1,0.5-0.5,0.5c-1,0-1,0-1-1C90.5,32.6,90.5,31.4,90.5,30.3z"/>
		<path class="st0" d="M104.1,15.4c0,1.3,0,2.7,0,4c0,0.3-0.1,0.5-0.5,0.5c-1.1,0-1.1,0-1.1-1.1c0-2.5,0-5,0-7.4
			c0-0.4,0.1-0.5,0.5-0.5c1,0,1,0,1,1C104.1,13,104.1,14.2,104.1,15.4z"/>
		<path class="st0" d="M97.1,15.4c0,1.3,0,2.7,0,4c0,0.3-0.1,0.5-0.5,0.5c-1.1,0-1.1,0-1.1-1.1c0-2.5,0-5,0-7.5
			c0-0.4,0.1-0.5,0.5-0.5c1,0,1,0,1,1C97.1,13,97.1,14.2,97.1,15.4z"/>
		<path class="st0" d="M61.1,15.4c0,1.3,0,2.7,0,4c0,0.3-0.1,0.5-0.5,0.5c-1.1,0-1.1,0-1.1-1.1c0-2.5,0-4.9,0-7.4
			c0-0.5,0-0.5,0.6-0.6c1,0,1,0,1,1C61.1,13,61.1,14.2,61.1,15.4z"/>
	</g>
</g>
</svg>
