<?xml version="1.0" encoding="utf-8"?>
<!-- Generator: Adobe Illustrator 24.1.2, SVG Export Plug-In . SVG Version: 6.00 Build 0)  -->
<svg version="1.1" id="Layer_1" xmlns="http://www.w3.org/2000/svg" xmlns:xlink="http://www.w3.org/1999/xlink" x="0px" y="0px"
	 viewBox="0 0 125 125" style="enable-background:new 0 0 125 125;" xml:space="preserve">
<style type="text/css">
	.st0{fill:#BE8B2F;}
</style>
<g>
	<g>
		<path class="st0" d="M48.7,92.5c-0.5-0.5-1-0.9-1.4-1.3c-0.4-0.3-0.8-0.7-1.1-1C46,90,45.9,89.8,46,89.6c0-0.1,0.2-0.3,0.4-0.3
			c3.1-0.9,6.2-1.8,9.4-2.6c0.6-0.2,1.2-0.3,1.8-0.5c0.7-0.2,0.9,0,0.8,0.7c-0.2,1.1-0.3,2.2-0.5,3.2c-0.4,2.3-0.7,4.6-1.1,6.9
			c-0.1,0.5-0.2,1-0.2,1.4c-0.1,0.5-0.3,0.6-0.7,0.2c-0.8-0.7-1.5-1.4-2.3-2.1c-0.2-0.2-0.4-0.2-0.7,0c-2.3,1.7-4.8,2.9-7.7,3.3
			c-6.9,1.1-13-0.6-17.8-5.9c-2.3-2.5-3.8-5.5-4.2-9c-0.2-1.7-0.3-3.4-0.3-5.1c0.1-3.7,0.8-7.2,2.7-10.4c2.4-4.1,6-6.6,10.5-7.9
			c1.5-0.4,3.1-0.7,4.7-0.8c6.4-0.3,11.6,2.1,15.9,6.6c3.1,3.3,5.5,7.1,7.6,11.1c1.2,2.3,2.3,4.7,3.8,6.8c1.9,2.8,4.1,5.2,7.1,6.9
			c2.2,1.2,4.4,2.2,6.9,2.5c5.4,0.6,11.1-1.9,13-8.3c0.6-2.2,0.9-4.4,0.7-6.7c-0.1-2.2-0.5-4.4-1.5-6.4c-1.6-3.4-4.3-5.3-7.8-6.3
			c-1.8-0.5-3.6-0.8-5.4-0.6c-2.1,0.3-4.1,0.9-6,2.1c-2.4,1.5-4.3,3.5-6.1,5.7c-0.3,0.4-0.6,0.8-0.9,1.2c-0.3,0.4-0.6,0.4-0.9-0.1
			c-0.8-1.4-1.6-2.9-2.5-4.3c-0.1-0.2-0.1-0.5,0-0.7c2.6-3.3,5.6-6.1,9.5-7.8c1.9-0.8,3.9-1.4,5.9-1.7c3.5-0.4,6.9,0.2,10.1,1.5
			c5.8,2.4,9.2,6.8,10.5,12.9c0.3,1.4,0.4,2.9,0.5,4.4c0.2,3.5-0.2,6.9-1.6,10.2c-2.4,5.7-6.7,9.2-12.8,10.4
			c-3.6,0.7-7.1,0.2-10.5-1c-3.6-1.3-6.7-3.3-9.4-6.1c-2.1-2.1-3.9-4.5-5.3-7.1c-1.2-2.1-2.3-4.3-3.5-6.5c-1.6-2.9-3.5-5.7-5.7-8.1
			c-2.4-2.6-5.3-4.2-8.8-4.8c-1.9-0.3-3.7-0.2-5.5,0.3c-2.7,0.6-5,1.9-6.8,4c-1.4,1.7-2.2,3.7-2.6,5.9c-0.3,1.7-0.4,3.4-0.3,5.2
			c0.1,2.9,0.9,5.6,2.8,7.9C33,92,35.3,93.4,38,94c3.6,0.8,7.1,0.6,10.3-1.4C48.4,92.7,48.5,92.6,48.7,92.5z"/>
		<path class="st0" d="M22.8,31.1c0.3,0,0.4,0,0.6,0c2,0,4,0,6,0c0.4,0,0.5,0.1,0.5,0.5c0,0.9,0,1.7,0,2.5c0,0.3-0.1,0.4-0.4,0.4
			c-3.8,0-7.6,0-11.3,0c-0.3,0-0.4-0.1-0.4-0.4c0-0.8,0-1.6,0-2.5c0-0.2,0.1-0.5,0.2-0.6c2.2-3.4,4.4-6.8,6.6-10.2
			c0.7-1.1,1.3-2.1,1.4-3.4c0.1-0.7,0-1.4-0.1-2c-0.2-0.8-0.7-1.2-1.4-1.2c-0.9-0.1-1.6,0.3-1.9,1c-0.4,0.8-0.5,1.8-0.5,2.7
			c0,1,0,1-1,1s-2,0-3,0c-0.2,0-0.4,0-0.4-0.3c0-1.8,0.1-3.5,0.9-5.1c1-1.9,2.5-2.7,4.5-2.9c1.4-0.1,2.7-0.1,3.9,0.4
			c1.8,0.7,2.8,2.1,3.2,4c0.5,2.6-0.2,4.9-1.6,7.1c-1.9,2.8-3.8,5.7-5.7,8.5C23,30.7,23,30.9,22.8,31.1z"/>
		<path class="st0" d="M10.7,15.5c-1.2,0.4-2.3,0.8-3.4,1.2c0-0.4,0-0.7,0-1.1c0-0.6,0-1.1,0-1.7c0-0.4,0.1-0.5,0.5-0.7
			c1.2-0.6,2.3-1.2,3.4-2c0.4-0.3,0.8-0.5,1.3-0.4c0.7,0,1.5,0,2.2,0c0.4,0,0.5,0.1,0.5,0.5c0,4.9,0,9.9,0,14.8c0,2.7,0,5.3,0,8
			c0,0.4-0.1,0.6-0.5,0.5c-1.1,0-2.3,0-3.4,0c-0.4,0-0.5-0.1-0.5-0.5c0-6,0-12,0-18C10.7,16,10.7,15.8,10.7,15.5z"/>
		<path class="st0" d="M73.5,28.8c0,0.1-0.1,0.2-0.1,0.2c-0.4,1.7-0.7,3.5-1.1,5.2c-0.1,0.5-0.3,0.7-0.8,0.5c-0.1,0-0.2-0.2-0.2-0.4
			c-0.4-1.8-0.8-3.7-1.2-5.5c0,0,0-0.1-0.1-0.1c0,0.4-0.1,0.8-0.1,1.2c0,1.5,0,2.9,0,4.4c0,0.3-0.1,0.5-0.5,0.5
			c-0.8,0-0.7,0.1-0.7-0.7c0-2.6,0.1-5.3,0.1-7.9c0-0.3,0.1-0.4,0.4-0.4c1.3,0,1.3,0,1.5,1.3c0.3,1.5,0.6,3.1,0.9,4.6
			c0,0.1,0.1,0.2,0.1,0.5c0.1-0.2,0.1-0.3,0.2-0.5c0.4-1.8,0.8-3.7,1.2-5.5c0.1-0.3,0.2-0.4,0.5-0.4s0.6,0,0.8,0
			c0.3,0,0.4,0.1,0.4,0.4c0,0.8,0,1.6,0,2.4c0,1.8,0.1,3.7,0.1,5.5c0,0.7,0,0.7-0.7,0.7c-0.4,0-0.4-0.1-0.4-0.5
			c0-1.7-0.1-3.5-0.1-5.2C73.6,29,73.6,28.9,73.5,28.8L73.5,28.8z"/>
		<path class="st0" d="M84.4,15c1.4,0.7,1.9,2.2,1.2,3.7c-0.4,0.9-1.1,1.1-2,1.2c-0.8,0.1-1.6,0-2.4,0c-0.3,0-0.3-0.1-0.3-0.3
			c0-2.8,0-5.6,0-8.3c0-0.1,0.2-0.3,0.2-0.3c1,0,2,0,3.1,0.1c0.9,0.1,1.4,0.8,1.4,1.6c0,0.4,0,0.8-0.1,1.2c-0.1,0.5-0.4,0.9-0.9,1
			C84.5,14.9,84.5,15,84.4,15z M82.3,17.2L82.3,17.2c0,0.2,0,0.5,0,0.7c0,1-0.2,0.9,0.9,0.9c0.5,0,0.9-0.2,1-0.7
			c0.1-0.4,0.2-0.7,0.1-1.1c-0.1-1.1-0.6-1.4-1.7-1.3c-0.2,0-0.3,0.1-0.3,0.3C82.3,16.4,82.3,16.8,82.3,17.2z M82.9,14.5
			c0.5,0,1-0.1,1.1-0.6c0.1-0.4,0.1-0.9,0.1-1.3c0-0.3-0.3-0.6-0.6-0.6c-0.3-0.1-0.6-0.1-0.9-0.1s-0.4,0.1-0.4,0.4
			c0,0.6,0,1.1,0,1.7C82.3,14.5,82.3,14.5,82.9,14.5z"/>
		<path class="st0" d="M51.2,45.2c0-1.4,0-2.7,0-4c0-0.3,0.1-0.5,0.5-0.5c0.9,0.1,1.7,0,2.6,0.1c1.1,0.1,1.8,0.9,1.8,2
			c0,1.5,0,3.1,0,4.6c0,1.4-0.9,2.2-2.3,2.2c-0.7,0-1.4,0-2.1,0c-0.3,0-0.5-0.1-0.5-0.5C51.2,47.9,51.2,46.6,51.2,45.2z M54.4,45.2
			C54.5,45.2,54.5,45.2,54.4,45.2c0-0.7,0-1.4,0-2.1c0-1-0.3-1.3-1.3-1.3c-0.3,0-0.4,0.1-0.4,0.4c0,1.2,0,2.4,0,3.5
			c0,0.8,0,1.7,0,2.5c0,0.1,0.1,0.4,0.2,0.4c0.8,0.1,1.5-0.1,1.5-1.1C54.4,46.8,54.4,46,54.4,45.2z"/>
		<path class="st0" d="M88.5,30.3c0-0.9,0-1.8,0.1-2.7c0.2-1.2,0.9-1.8,2.1-1.8c0.4,0,0.8,0,1.2,0.1c1,0.2,1.7,1,1.7,2.1
			c0,1.6,0.1,3.2,0,4.8c0,1.4-0.9,2.2-2.3,2.2c-0.3,0-0.7,0-1-0.1c-1.1-0.2-1.8-1.1-1.8-2.4C88.5,31.7,88.5,31,88.5,30.3L88.5,30.3z
			 M90.1,30.2c0,0.9,0,1.7,0,2.5c0,0.6,0.4,1,0.9,1c0.6,0,0.9-0.2,1-0.9c0-0.2,0.1-0.4,0.1-0.6c0-1.3,0-2.7,0-4c0-0.3,0-0.5-0.1-0.8
			c-0.1-0.5-0.4-0.7-0.8-0.7c-0.7,0-1,0.3-1,1C90.1,28.6,90.1,29.4,90.1,30.2z"/>
		<path class="st0" d="M101.6,45.2c0-0.9,0-1.8,0.1-2.7c0.2-1.2,1-1.8,2.2-1.8c0.3,0,0.6,0,1,0c1,0.2,1.6,0.7,1.8,1.7
			c0.3,1.9,0.3,3.8,0,5.7c-0.2,1.1-1,1.7-2.1,1.7c-0.4,0-0.8,0-1.2-0.1c-1-0.2-1.5-0.9-1.6-1.8c0-0.2-0.1-0.3-0.1-0.5
			C101.6,46.7,101.6,46,101.6,45.2L101.6,45.2z M103.2,45.2c0,0.8,0,1.6,0,2.3c0,0.2,0,0.4,0.1,0.5c0.1,0.5,0.4,0.7,1,0.7
			c0.5,0,0.8-0.2,0.8-0.7c0-1.9,0-3.7,0-5.6c0-0.5-0.4-0.7-0.9-0.7c-0.6,0-1,0.3-1,1.1S103.2,44.4,103.2,45.2z"/>
		<path class="st0" d="M76.9,45.2c0-1.3,0-2.7,0-4c0-0.4,0.1-0.5,0.5-0.5c0.9,0.1,1.7,0,2.5,0.1c1.1,0.1,1.8,0.9,1.9,2
			c0,1.6,0,3.1,0,4.7c0,1.3-0.9,2.2-2.3,2.2c-0.7,0-1.4,0-2.2,0c-0.3,0-0.5-0.1-0.4-0.5l0,0C76.9,47.9,76.9,46.5,76.9,45.2z
			 M78.5,45.2c0,1,0,2,0,3c0,0.1,0.1,0.4,0.2,0.4c0.7,0.3,1.5-0.3,1.5-1c0-1.5,0-3.1,0-4.6c0-1-0.3-1.2-1.3-1.2
			c-0.3,0-0.5,0.1-0.5,0.5C78.5,43.2,78.5,44.2,78.5,45.2z"/>
		<path class="st0" d="M76,45.5c-0.1,0.7-0.1,1.7-0.2,2.6c-0.2,1.1-1,1.7-2.1,1.7c-0.4,0-0.8,0-1.2-0.1c-1.1-0.2-1.7-1.1-1.7-2.3
			c0-1.5,0-3,0-4.5s0.9-2.3,2.4-2.3c0.3,0,0.6,0,0.8,0c1.1,0.2,1.8,1,1.8,2.2C75.9,43.6,76,44.4,76,45.5z M72.4,45.2
			c0,0.9,0,1.7,0,2.6c0,0.6,0.3,0.9,0.9,0.9s0.9-0.2,1-0.8c0-0.2,0.1-0.5,0.1-0.7c0-1.1,0-2.1,0-3.2c0-0.5,0-1-0.1-1.5
			c0-0.3-0.2-0.6-0.5-0.7c-0.7-0.3-1.4,0.1-1.4,0.9C72.4,43.5,72.4,44.3,72.4,45.2z"/>
		<path class="st0" d="M52.9,29.6c0,0.6,0,1.1,0,1.7c0,1,0,2,0,3.1c0,0.3-0.1,0.5-0.4,0.5c-1.1,0-0.9,0.1-0.9-0.9c0-2.5,0-5,0-7.5
			c0-0.2-0.1-0.5,0.2-0.6c0.5-0.1,0.9,0,1.1,0.3c0.5,1.2,1,2.3,1.5,3.5c0.2,0.4,0.3,0.8,0.5,1.2H55c0-0.1,0-0.3,0-0.4
			c0-1.4,0-2.7,0-4.1c0-0.3,0.1-0.5,0.5-0.5c1,0,0.8-0.1,0.8,0.8c0,2.6,0,5.1,0,7.7c0,0.2,0.1,0.5-0.2,0.5s-0.7,0.2-0.9-0.3
			c-0.6-1.5-1.2-3-1.9-4.5c-0.1-0.2-0.2-0.3-0.2-0.5C53,29.5,52.9,29.6,52.9,29.6z"/>
		<path class="st0" d="M70.4,15.8c0-0.1,0-0.3,0-0.4c0-1.4,0-2.7,0-4.1c0-0.3,0.1-0.5,0.5-0.5c1,0,0.8-0.1,0.8,0.8
			c0,2.6,0,5.1,0,7.7c0,0.2,0.1,0.5-0.2,0.5c-0.3,0-0.7,0.2-0.9-0.3c-0.6-1.5-1.2-2.9-1.8-4.3c-0.1-0.2-0.2-0.4-0.4-0.6
			c0,0.1,0,0.3,0,0.4c0,1.5,0,3,0,4.4c0,0.3-0.1,0.5-0.5,0.5C66.8,19.9,67,20,67,19c0-2.5,0-5.1,0-7.6c0-0.2-0.1-0.5,0.2-0.5
			c0.5-0.1,0.9,0,1,0.3c0.6,1.4,1.2,2.8,1.8,4.2c0.1,0.2,0.2,0.3,0.2,0.5C70.3,15.9,70.3,15.8,70.4,15.8z"/>
		<path class="st0" d="M44.9,19.9c-0.5,0-0.9,0-1.3,0c-0.1,0-0.3-0.2-0.3-0.4c-0.3-1.1-0.6-2.2-0.9-3.3c-0.1-0.2-0.1-0.5-0.4-0.5
			c-0.5,0-0.5,0-0.5,0.5c0,1.1,0,2.2,0,3.2c0,0.3-0.1,0.4-0.4,0.4c-1.1,0-1.1,0-1.1-1.1c0-2.5,0-4.9,0-7.4c0-0.4,0.1-0.6,0.5-0.5
			c0.9,0.1,1.8,0,2.7,0.1c1.1,0.1,1.7,0.9,1.7,2c0,0.4,0,0.9-0.1,1.2c-0.1,0.4-0.4,0.7-0.7,1c-0.2,0.2-0.3,0.4-0.2,0.7
			c0.3,1.2,0.7,2.4,1,3.6C44.8,19.5,44.8,19.7,44.9,19.9z M41.4,13.3L41.4,13.3c0,0.4,0,0.7,0,1.1c0,0.1,0.1,0.3,0.2,0.3
			c0.4,0.2,1.2-0.1,1.4-0.4c0.4-0.6,0.4-1.3,0.1-1.9c-0.3-0.6-0.9-0.5-1.4-0.5c-0.1,0-0.3,0.2-0.3,0.3
			C41.4,12.6,41.4,12.9,41.4,13.3z"/>
		<path class="st0" d="M60.8,15.3c0-0.9,0-1.9,0.2-2.8c0.2-1.1,0.9-1.6,2-1.7c0.4,0,0.9,0,1.3,0c1,0.2,1.7,1.1,1.7,2.3
			c0,1.5,0,3,0,4.5s-0.9,2.4-2.4,2.3c-0.4,0-0.8,0-1.1-0.1c-0.9-0.2-1.5-1.1-1.5-2.1C60.9,16.9,60.9,16.1,60.8,15.3
			C60.9,15.3,60.8,15.3,60.8,15.3z M64.4,15.3c0-0.8,0-1.7,0-2.5c0-0.6-0.3-0.9-0.8-1c-0.7-0.1-1,0.2-1.1,0.8c0,0.2-0.1,0.5-0.1,0.7
			c0,1.3,0,2.6,0,3.8c0,0.3,0,0.6,0.1,0.8c0.1,0.3,0.2,0.6,0.6,0.7c0.7,0.3,1.3-0.2,1.3-0.9C64.4,17,64.4,16.2,64.4,15.3z"/>
		<path class="st0" d="M70,49.7c-0.5,0-0.9,0-1.3,0c-0.1,0-0.3-0.2-0.3-0.4c-0.3-1.1-0.6-2.3-0.9-3.4c-0.1-0.2-0.2-0.3-0.4-0.4
			c-0.4,0-0.5,0.1-0.5,0.5c0,1.1,0,2.2,0,3.3c0,0.3-0.1,0.4-0.4,0.4c-1.1,0-1.1,0-1.1-1.1c0-2.5,0-4.9,0-7.4c0-0.4,0.1-0.5,0.5-0.5
			c0.9,0.1,1.7,0,2.5,0.1c1.2,0.1,1.8,0.9,1.8,2.1c0,0.4,0,0.9-0.2,1.3c-0.1,0.3-0.4,0.7-0.7,0.9c-0.2,0.2-0.2,0.3-0.2,0.5
			c0.3,1.2,0.7,2.4,1,3.7C69.9,49.4,70,49.5,70,49.7z M66.5,43.2c0,0.4,0,0.7,0,1.1c0,0.1,0.1,0.3,0.2,0.3c0.6,0.2,1.5-0.2,1.6-0.8
			c0.1-0.3,0.1-0.7,0.1-1c-0.1-1-0.8-1.1-1.6-1c-0.1,0-0.2,0.2-0.2,0.3C66.5,42.4,66.5,42.8,66.5,43.2z"/>
		<path class="st0" d="M50.6,30.3c-0.1,0.9,0,1.9-0.2,2.8c-0.2,1.1-1,1.8-2.1,1.8c-0.4,0-0.7,0-1.1,0c-1.1-0.2-1.8-1-1.8-2.3
			c0-1.5,0-3.1,0-4.6c0-1.4,0.9-2.2,2.3-2.3c0.3,0,0.7,0,1,0c1.1,0.2,1.8,1,1.8,2.2C50.6,28.7,50.5,29.5,50.6,30.3L50.6,30.3z
			 M47,30.3c0,0.8,0,1.7,0,2.5c0,0.6,0.3,1,0.9,1c0.6,0,0.9-0.3,1-0.9c0.1-0.4,0.1-0.7,0.1-1.1c0-1.4,0-2.7-0.1-4.1
			c0-0.7-0.4-1-1.1-0.9c-0.5,0-0.8,0.4-0.8,1C47,28.6,47,29.5,47,30.3z"/>
		<path class="st0" d="M46.7,44.5c0,0.2,0,0.3,0,0.5c0,1.4,0,2.9,0,4.3c0,0.4-0.1,0.5-0.5,0.5c-0.9,0-0.8,0.1-0.8-0.8
			c0-2.5,0-5.1,0-7.6c0-0.2-0.2-0.5,0.2-0.6c0.5-0.1,0.9,0,1,0.4c0.6,1.4,1.2,2.8,1.8,4.2c0.1,0.2,0.1,0.3,0.2,0.4h0.1
			c0-0.2,0.1-0.3,0.1-0.5c0-1.4,0-2.7,0-4.1c0-0.4,0.1-0.5,0.5-0.5c0.9,0,0.8-0.1,0.8,0.8c0,2.5,0,5.1,0,7.6c0,0.2,0.2,0.5-0.2,0.6
			c-0.6,0.1-0.8,0-1-0.4c-0.6-1.5-1.2-2.9-1.8-4.4c-0.1-0.2-0.1-0.3-0.2-0.5C46.8,44.5,46.7,44.5,46.7,44.5z"/>
		<path class="st0" d="M111.1,45.7c0-0.1,0-0.3,0-0.4c0-1.4,0-2.7,0-4.1c0-0.3,0.1-0.5,0.4-0.5c1,0,0.9-0.1,0.9,0.9
			c0,2.6,0,5.1,0,7.7c0,0.2-0.1,0.5-0.2,0.5c-0.4,0.2-0.8,0-0.9-0.3c-0.6-1.5-1.2-3-1.9-4.5c-0.1-0.2-0.1-0.3-0.2-0.4h-0.1
			c0,0.1,0,0.3,0,0.4c0,1.5,0,2.9,0,4.4c0,0.3-0.1,0.5-0.5,0.5c-1,0-0.8,0.1-0.8-0.9c0-2.5,0-5.1,0-7.6c0-0.2-0.1-0.5,0.2-0.5
			c0.5-0.1,0.8,0,1,0.3c0.6,1.4,1.2,2.7,1.8,4.1c0.1,0.2,0.2,0.3,0.2,0.5C111,45.7,111.1,45.7,111.1,45.7z"/>
		<path class="st0" d="M96,29.6c0,0.2,0,0.3,0,0.5c0,1.4,0,2.9,0,4.3c0,0.3-0.1,0.5-0.5,0.5c-0.9,0-0.8,0.1-0.8-0.8
			c0-2.5,0-5.1,0-7.6c0-0.2-0.1-0.5,0.2-0.6c0.5-0.1,0.8,0,1,0.4c0.6,1.4,1.2,2.8,1.8,4.2c0.1,0.1,0.1,0.3,0.3,0.4
			c0-0.1,0-0.3,0-0.4c0-1.4,0-2.7,0-4.1c0-0.3,0.1-0.5,0.4-0.5c1,0,0.8-0.1,0.8,0.9c0,2.6,0,5.1,0,7.7c0,0.2-0.1,0.5-0.2,0.5
			c-0.4,0.2-0.8,0-0.9-0.3c-0.6-1.5-1.3-3-1.9-4.5c-0.1-0.1-0.1-0.3-0.2-0.4C96.1,29.6,96,29.6,96,29.6z"/>
		<path class="st0" d="M64,29.4c0,1,0,2,0,3c0,0.3,0.1,0.5,0.1,0.8c0.1,0.4,0.5,0.6,0.9,0.6s0.7-0.2,0.8-0.6c0.1-0.3,0.1-0.7,0.1-1
			c0-2,0-3.9,0-5.9c0-0.4,0.1-0.5,0.5-0.5c1,0,1,0,1,1.1c0,1.8,0,3.6,0,5.3c0,0.5-0.1,1-0.2,1.4c-0.1,0.2-0.2,0.4-0.3,0.6
			c-0.7,0.9-1.7,0.8-2.7,0.7s-1.5-0.8-1.6-1.7c-0.1-0.3-0.1-0.5-0.1-0.8c0-2,0-4.1,0-6.2c0-0.3,0.1-0.4,0.4-0.4c1.1,0,1.1,0,1.1,1.1
			C64,27.7,64,28.5,64,29.4L64,29.4z"/>
		<path class="st0" d="M82.8,44.3c0-1.1,0-2.1,0-3.2c0-0.3,0.1-0.4,0.4-0.4c1.1,0,1.1,0,1.1,1c0,1.6,0,3.3,0,4.9
			c0,0.4,0.1,0.9,0.2,1.3c0.1,0.5,0.4,0.7,0.9,0.7s0.8-0.2,0.9-0.7c0.1-0.4,0.1-0.7,0.1-1.1c0-1.9,0-3.8,0-5.7
			c0-0.4,0.1-0.5,0.5-0.5c1.1,0,1.1,0,1.1,1.1c0,1.7,0,3.4,0,5.1c0,0.5-0.1,1.1-0.2,1.6c-0.2,0.9-0.9,1.4-1.8,1.4
			c-0.4,0-0.9,0-1.3,0c-1-0.2-1.6-1-1.7-2.2C82.8,46.5,82.8,45.4,82.8,44.3L82.8,44.3z"/>
		<path class="st0" d="M90.3,45.2c0,0.8,0,1.6,0,2.5c0,0.7,0.3,1,0.9,1c0.5,0,0.9-0.3,0.9-0.8c0-0.4,0-0.7,0-1.1
			c0-0.3,0.1-0.3,0.3-0.3c1.4,0,1.2-0.2,1.2,1.1c0,1.4-0.8,2.2-2.3,2.2c-0.3,0-0.6,0-1-0.1c-1.1-0.3-1.7-1.1-1.7-2.4
			c0-1.4,0-2.9,0-4.3c0-0.9,0.2-1.7,1.1-2.1c1-0.5,2-0.5,2.9,0.1c0.6,0.4,0.8,1,0.9,1.7v0.1c0,1.3,0.3,1.1-1.2,1.1
			c-0.2,0-0.3-0.1-0.3-0.3c0-0.3,0-0.7,0-1c0-0.5-0.3-0.8-0.7-0.8c-0.5-0.1-0.9,0.1-1,0.6c-0.1,0.2-0.1,0.4-0.1,0.6
			C90.3,43.6,90.3,44.4,90.3,45.2L90.3,45.2z"/>
		<path class="st0" d="M41.3,30.3c0,0.8,0,1.6,0,2.5c0,0.7,0.3,1,0.9,1.1c0.5,0,0.9-0.3,0.9-0.8c0-0.4,0.1-0.8,0.1-1.2
			c0-0.2,0.1-0.3,0.3-0.3c1.3,0,1.1-0.2,1.1,1.1c0,0.9-0.2,1.7-1.1,2.1c-1,0.4-2,0.4-2.9-0.2c-0.7-0.5-0.9-1.3-0.9-2
			c0-1.4,0-2.8,0-4.3c0-0.4,0.1-0.9,0.3-1.3c0.2-0.7,0.8-1.1,1.5-1.1c0.5-0.1,1-0.1,1.4,0c1,0.2,1.6,0.9,1.6,1.9c0,0.1,0,0.2,0,0.2
			c0,1.1,0,1.2-1.2,1c-0.1,0-0.2-0.2-0.3-0.3c-0.1-0.3-0.1-0.7-0.1-1c0-0.5-0.2-0.8-0.6-0.8c-0.5-0.1-0.9,0.1-1.1,0.6
			c-0.1,0.2-0.1,0.4-0.1,0.6C41.3,28.7,41.3,29.5,41.3,30.3L41.3,30.3z"/>
		<path class="st0" d="M44.7,49.7c-0.4,0-0.8,0-1.2,0c-0.1,0-0.3-0.2-0.3-0.3C43.1,49,43,48.5,43,48c0-0.3-0.1-0.4-0.4-0.3
			c-0.3,0-0.6,0-1,0c-0.3,0-0.4,0.1-0.5,0.4c-0.1,0.5-0.2,0.9-0.2,1.4c0,0.3-0.1,0.4-0.4,0.3c-0.3,0-0.7,0-1.1,0
			c0.1-0.6,0.2-1.1,0.3-1.7c0.5-2.3,0.9-4.6,1.4-6.9c0.1-0.3,0.2-0.5,0.5-0.4c0.3,0,0.5,0,0.8,0s0.5,0.1,0.5,0.4
			c0.6,2.7,1.1,5.5,1.7,8.2C44.6,49.4,44.6,49.5,44.7,49.7z M42.1,43C42,43,42,43,42.1,43c-0.2,0.9-0.4,1.8-0.5,2.7
			c-0.2,1-0.2,1,0.9,1c0.2,0,0.3-0.1,0.3-0.3c-0.1-0.5-0.2-1-0.2-1.5C42.3,44.2,42.2,43.6,42.1,43z"/>
		<path class="st0" d="M59.5,45.2c0-1.3,0-2.7,0-4c0-0.3,0.1-0.5,0.4-0.5c0.8,0,1.6,0,2.4,0c1,0,1.8,0.6,2,1.6
			c0.1,0.6,0.1,1.2,0,1.7c-0.1,1-0.9,1.6-1.9,1.6c-0.3,0-0.6,0-0.8,0c-0.3,0-0.5,0.1-0.5,0.5c0,1.1,0,2.1,0,3.2
			c0,0.3-0.1,0.5-0.5,0.5c-1.1,0-1.1,0-1.1-1.1C59.5,47.5,59.5,46.3,59.5,45.2z M61,43.2c0,0.4,0,0.7,0,1.1c0,0.1,0.1,0.3,0.2,0.3
			c0.8,0.3,1.6-0.2,1.6-1c0-0.1,0-0.2,0-0.3c0-1.2-0.2-1.4-1.4-1.4c-0.3,0-0.4,0.1-0.4,0.4C61.1,42.5,61,42.8,61,43.2z"/>
		<path class="st0" d="M76,30.3c0-1.4,0-2.7,0-4c0-0.4,0.1-0.5,0.5-0.5c0.8,0,1.5,0,2.3,0c1.2,0,2,0.7,2.1,1.9c0,0.5,0.1,0.9,0,1.4
			c-0.2,1-1,1.6-2,1.7c-0.2,0-0.5,0-0.7,0c-0.3,0-0.4,0.1-0.4,0.4c0,1.1,0,2.1,0,3.2c0,0.3-0.1,0.5-0.4,0.5c-1.2,0-1.2,0-1.2-1.1
			C76,32.5,76,31.4,76,30.3z M77.6,29.6c1.4,0.3,1.8-0.1,1.8-1.4s-0.6-1.3-1.6-1.3c-0.1,0-0.2,0.1-0.2,0.2
			C77.5,27.9,77.6,28.7,77.6,29.6z"/>
		<path class="st0" d="M55.5,15.3c0-1.3,0-2.7,0-4c0-0.3,0.1-0.5,0.5-0.5c0.8,0,1.5,0,2.3,0c1.2,0,1.9,0.7,2.1,1.9
			c0.1,0.4,0.1,0.9,0,1.3c-0.2,1.1-0.9,1.7-2.1,1.7c-0.1,0-0.2,0-0.2,0c-0.9,0-0.9,0-0.9,0.9c0,0.9,0,1.9,0,2.8
			c0,0.3-0.1,0.4-0.4,0.4c-0.3,0-0.6,0-0.8,0c-0.3,0-0.4-0.1-0.4-0.4C55.5,18.1,55.5,16.7,55.5,15.3z M57,14.7c0.3,0,0.5,0,0.6,0
			c0.8,0,1.1-0.3,1.2-1.1c0.1-1.4-0.3-1.7-1.5-1.6c-0.1,0-0.3,0.2-0.3,0.2C57,13,57,13.8,57,14.7z"/>
		<path class="st0" d="M53.3,13.4c-0.1-0.4-0.1-0.6-0.2-0.9c-0.1-0.4-0.5-0.6-0.9-0.6c-0.4,0.1-0.7,0.3-0.7,0.8
			c-0.1,0.5,0.1,0.9,0.5,1.2c0.5,0.4,1,0.9,1.4,1.3c0.8,0.7,1.4,1.6,1.4,2.8c-0.1,1.1-0.9,2-2,2c-1.6,0-2.3-0.6-2.6-2.1
			c-0.1-0.5-0.1-0.6,0.5-0.7c0.3-0.1,0.6-0.2,0.7-0.1c0.1,0.1,0.1,0.4,0.2,0.7c0.2,0.7,0.5,1,1,1c0.4,0,0.7-0.3,0.7-0.7
			c0.1-0.7-0.1-1.2-0.6-1.6s-1-0.9-1.4-1.3c-1-0.8-1.3-1.8-1-3c0.2-0.8,0.8-1.2,1.6-1.4c0.3-0.1,0.6-0.1,0.9,0
			c1.2,0.2,1.8,0.8,1.9,2c0,0.1-0.1,0.3-0.2,0.3C54,13.2,53.6,13.3,53.3,13.4z"/>
		<path class="st0" d="M75.8,13.4c-0.1-0.3-0.1-0.6-0.2-0.8c-0.2-0.5-0.5-0.7-1-0.7c-0.5,0.1-0.8,0.5-0.7,1c0.1,0.4,0.2,0.7,0.5,1
			c0.4,0.4,0.9,0.8,1.3,1.2c0.6,0.6,1.2,1.2,1.4,2c0.3,1.4-0.3,2.6-1.6,2.8c-1.4,0.2-2.6-0.2-2.9-1.9c0-0.1,0-0.2-0.1-0.3
			c-0.1-0.3,0-0.5,0.4-0.6c0.3,0,0.6-0.2,0.8-0.1c0.2,0.1,0.1,0.5,0.2,0.7c0.1,0.6,0.5,0.9,1,0.9s0.9-0.5,0.8-1s-0.3-1-0.7-1.3
			c-0.5-0.5-1-0.9-1.6-1.4c-0.8-0.7-1.1-1.6-0.9-2.7c0.2-0.8,0.7-1.3,1.5-1.5c0.5-0.1,0.9-0.1,1.4,0c0.9,0.1,1.6,1.2,1.5,2.1
			c0,0.1-0.1,0.2-0.2,0.3C76.5,13.2,76.2,13.3,75.8,13.4z"/>
		<path class="st0" d="M58.4,32c0.1,0.4,0.1,0.8,0.3,1.1c0.1,0.3,0.4,0.6,0.7,0.7c0.6,0.2,1-0.2,1-0.8c0-0.5-0.2-1-0.6-1.4
			c-0.5-0.5-1.1-1-1.6-1.4c-0.9-0.7-1.2-1.7-1-2.8c0.1-0.3,0.2-0.6,0.4-0.9c0.7-0.8,1.7-0.9,2.6-0.6c0.8,0.2,1.3,0.9,1.4,1.8
			c0,0.1,0,0.2,0,0.4c-0.4,0.1-0.8,0.2-1.2,0.3c-0.1-0.3-0.1-0.5-0.1-0.7c-0.1-0.6-0.5-0.8-1-0.7c-0.5,0.1-0.7,0.5-0.7,1.1
			c0,0.5,0.3,0.8,0.6,1.1c0.5,0.4,0.9,0.8,1.4,1.2c0.7,0.6,1.2,1.4,1.3,2.4c0.1,1.2-0.6,2.2-1.8,2.3c-0.5,0.1-1.1,0-1.6-0.2
			c-0.8-0.3-1.1-1-1.3-1.7s-0.1-0.7,0.6-0.9C58,32,58.2,32,58.4,32z"/>
		<path class="st0" d="M91,15.3c0-1.4,0-2.7,0-4c0-0.3,0.1-0.5,0.4-0.5c1,0,1.9,0,2.9,0c0.4,0,0.4,0.2,0.4,0.5s0,0.6-0.4,0.5
			c-0.5,0-0.9,0-1.4,0c-0.3,0-0.4,0.1-0.4,0.4c0,0.7,0,1.3,0,2c0,0.2,0.1,0.3,0.3,0.3c0.3,0,0.7,0,1,0c0.2,0,0.4,0.1,0.3,0.3
			c0,0.1,0,0.2,0,0.2c0.1,0.4-0.1,0.5-0.5,0.5c-1.2,0-1.2,0-1.2,1.2c0,0.5,0,1.1,0,1.6c0,0.3,0.1,0.3,0.3,0.3c0.5,0,1,0,1.5,0
			s0.4,0.3,0.4,0.6c0,0.3,0,0.5-0.4,0.5c-1,0-2,0-3,0c-0.3,0-0.4-0.1-0.4-0.4C91,18.1,91,16.7,91,15.3z"/>
		<path class="st0" d="M45.8,15.3c0-1.4,0-2.7,0-4c0-0.4,0.1-0.5,0.5-0.5c0.9,0,1.9,0,2.8,0c0.5,0,0.4,0.2,0.4,0.6
			c0,0.3,0,0.5-0.4,0.5s-0.9,0-1.3,0c-0.3,0-0.5,0.1-0.5,0.4c0,0.6,0,1.3,0,1.9c0,0.3,0.1,0.4,0.4,0.4c0.3,0,0.7,0,1,0
			s0.4,0.1,0.4,0.3c0,0.1,0,0.2,0,0.3c0,0.3-0.1,0.4-0.4,0.4c-0.3,0-0.7,0-1,0c-0.2,0-0.3,0.1-0.3,0.3c0,0.8,0,1.6,0,2.4
			c0,0.3,0.1,0.3,0.3,0.3c0.5,0,0.9,0,1.4,0c0.4,0,0.4,0.2,0.4,0.5s0,0.5-0.4,0.5c-1,0-1.9,0-2.9,0c-0.3,0-0.4-0.1-0.4-0.4
			C45.8,18.1,45.8,16.7,45.8,15.3z"/>
		<path class="st0" d="M84,30.9c0,1.2,0,2.4,0,3.5c0,0.3-0.1,0.4-0.4,0.4c-1.2,0-1.2,0-1.2-1.2c0-2,0-4.1,0-6.1c0-0.6,0-0.6-0.7-0.6
			c-0.1,0-0.2,0-0.3,0c-0.4,0.1-0.6-0.1-0.5-0.5c0-0.6,0-0.6,0.6-0.6c1.2,0,2.4,0,3.5,0c0.5,0,0.4,0.3,0.4,0.6c0,0.3,0,0.5-0.5,0.5
			c-1,0-1,0-1,1C84,28.9,84,29.9,84,30.9z"/>
		<path class="st0" d="M95.5,45.7c0-1.2,0-2.3,0-3.5c0-0.3-0.1-0.5-0.4-0.4c-0.2,0-0.5,0-0.7,0c-0.3,0-0.3-0.1-0.3-0.3
			c0-0.1,0-0.1,0-0.2c0-0.6,0-0.6,0.6-0.6c1.2,0,2.3,0,3.5,0c0.3,0,0.5,0.1,0.5,0.4c0,0.7,0,0.7-0.7,0.7c-0.9,0-0.8,0-0.8,0.8
			c0,2.2,0,4.5,0,6.7c0,0.3-0.1,0.5-0.4,0.5c-1.2,0-1.2,0-1.2-1.1C95.5,47.6,95.5,46.7,95.5,45.7z"/>
		<path class="st0" d="M86.7,15.4c0-1.4,0-2.7,0-4.1c0-0.3,0.1-0.5,0.5-0.5c1.1,0,1.1,0,1.1,1.1c0,2.1,0,4.3,0,6.4
			c0,0.6,0,0.6,0.6,0.6c0.4,0,0.8,0,1.2,0c0.5,0,0.3,0.3,0.3,0.6c0,0.2,0.1,0.5-0.3,0.5c-1,0-2,0-3,0c-0.3,0-0.3-0.2-0.3-0.4
			C86.7,18.1,86.7,16.7,86.7,15.4z"/>
		<path class="st0" d="M99,45.2c0-1.4,0-2.7,0-4c0-0.3,0.1-0.4,0.4-0.4c1.1,0,1.1,0,1.1,1.1c0,2.5,0,4.9,0,7.4
			c0,0.4-0.1,0.6-0.5,0.5c-1,0-1,0-1-1C99,47.5,99,46.4,99,45.2z"/>
		<path class="st0" d="M78,15.3c0-1.3,0-2.7,0-4c0-0.3,0.1-0.5,0.5-0.5c1.1,0,1.1,0,1.1,1.1c0,2.5,0,5,0,7.4c0,0.4-0.1,0.5-0.5,0.5
			c-1,0-1,0-1-1C78,17.7,78,16.5,78,15.3z"/>
		<path class="st0" d="M86,30.3c0-1.4,0-2.7,0-4c0-0.3,0.1-0.5,0.5-0.5c1.1,0,1.1,0,1.1,1.1c0,2.5,0,4.9,0,7.4
			c0,0.4-0.1,0.5-0.5,0.5c-1,0-1,0-1-1C86,32.6,86,31.4,86,30.3z"/>
	</g>
</g>
</svg>
