<?xml version="1.0" encoding="utf-8"?>
<!-- Generator: Adobe Illustrator 25.0.1, SVG Export Plug-In . SVG Version: 6.00 Build 0)  -->
<svg version="1.1" id="Layer_1" xmlns="http://www.w3.org/2000/svg" xmlns:xlink="http://www.w3.org/1999/xlink" x="0px" y="0px"
	 viewBox="0 0 125 125" style="enable-background:new 0 0 125 125;" xml:space="preserve">
<style type="text/css">
	.st0{fill:#D2D1D3;}
</style>
<g>
	<g>
		<path class="st0" d="M16.9,78.9C26.1,66,43,55,64.2,55.2c21.3,0.2,37.5,11.9,45.9,23.8C88,110,40.3,111.2,16.9,78.9z M57.6,77.9
			c0.1,0,0.1,0,0.2,0c0.1,0.1,0.2,0.2,0.4,0.3c0.5,0.6,1.1,1.2,1.6,1.8c0.3,0.3,0.7,0.7,1.2,0.6c0.8-0.1,1.5-0.5,2-1.2
			c0.3-0.4,0.3-0.8-0.1-1.2c-0.2-0.3-0.5-0.5-0.7-0.7c-0.7-0.7-1.4-1.4-2.1-2.1C60,75.3,60,75,60,74.9c0.2,0,0.4,0,0.5,0.1
			c0.1,0,0.1,0.1,0.2,0.1c0.8,0.5,1.5,0.9,2.3,1.4c0.4,0.2,0.7,0.6,0.8,1.1c0.2,1,0.7,1.5,1.7,1.8c0.1,0,0.2,0.1,0.3,0.1
			c1.2,0.3,2.4,0.8,3.3,1.8c0.2,0.3,0.5,0.3,0.8,0c0.5-0.7,1.1-1.5,0.8-2.5c-0.1-0.3,0-0.6,0.3-0.8c0.7-0.4,1.4-0.2,1.7,0.6
			c0.3,0.9,0.7,1.7,1,2.6c0.6,1.5,1.8,2.2,3.1,3c0.1,0.1,0.4,0,0.5-0.1s0.1-0.3,0.1-0.5c-0.2-0.4-0.4-0.9-0.6-1.2
			c-0.6-0.9-0.5-1.8,0.1-2.7c0.2-0.3,0.5-0.5,0.8-0.6c0.6-0.2,1.2-0.5,1.8-0.8c0.6-0.3,0.6-0.6,0.3-1.2c-0.3-0.5-0.4-0.9-0.3-1.4
			c0-0.4,0.3-0.5,0.6-0.3c0.2,0.1,0.3,0.3,0.5,0.5c0.6,0.7,1.7,0.7,2.1-0.1c0.2-0.4,0.3-1,0.2-1.4c-0.9-3.7-2.8-6.9-5.6-9.5
			C73,61,68,59.3,62.2,59.8c-2.9,0.3-5.6,1.2-8.1,2.7c-0.1,0.1-0.2,0.1-0.3,0.2c0.3,0.1,0.5,0.1,0.7,0c1.2-0.1,2.3-0.2,3.5-0.2
			c0.5,0,1,0.1,1.4,0.3c0.5,0.2,0.6,0.5,0.5,1c-0.1,0.5,0,0.9,0.4,1.3c0.3,0.3,0.7,0.5,1,0.8s0.3,0.5-0.1,0.7
			c-0.8,0.5-1.5,0.9-2.3,1.3c-0.2,0.1-0.5,0.2-0.8,0.3c-0.2,0-0.3-0.1-0.5-0.2c0.1-0.1,0.1-0.3,0.2-0.4c0.3-0.2,0.6-0.4,0.9-0.6
			c0.3-0.2,0.6-0.3,0.9-0.5c0.3-0.2,0.3-0.4-0.1-0.5c-0.4-0.1-0.8-0.2-1.2-0.1c-1.5,0.4-3,0.6-4.6,0.7c-0.9,0.1-1.7,0.4-2.3,1
			c-0.6,0.5-0.6,1,0.1,1.4c0.7,0.3,1.4,0.6,2.2,0.8c0.5,0.2,0.9-0.1,1.3-0.4c0.2-0.2,0.5-0.5,0.7-0.7c0.5-0.5,1-0.5,1.4,0.1
			c-0.2,0.2-0.5,0.3-0.7,0.5s-0.5,0.4-0.7,0.6c-0.6,0.7-1.2,0.8-2,0.5c-1.2-0.4-2.3-0.4-3.4,0.3c-0.3,0.2-0.7,0.4-1,0.6
			s-0.6,0.3-0.4,0.8c0.1,0.3,0,0.6-0.3,0.7c-0.2,0.1-0.6,0.2-0.8,0.1c-0.5-0.2-1-0.2-1.5-0.1c-0.9,0.2-1,0.7-0.9,1.5
			c0.2,0.6,0.6,0.8,1.1,0.5c0.3-0.1,0.6-0.3,0.9-0.3c1-0.2,1.9-0.4,2.7-1.1c0.2-0.2,0.6-0.2,0.8,0s0.3,0.4,0.5,0.6
			c0.3,0.5,0.5,0.9,0.8,1.4c0.1,0.2,0.3,0.2,0.4,0.4c0.1,0,0.1-0.1,0.2-0.1c-0.1-0.3-0.1-0.5-0.2-0.8c-0.1-0.3-0.1-0.5-0.2-0.8
			c0.1,0,0.1-0.1,0.2-0.1c0.3,0.3,0.5,0.6,0.8,0.9c0.2,0.3,0.4,0.4,0.7,0.2c0.4-0.2,0.8-0.2,1,0.1c0.2,0.3,0.2,0.8,0,1.1
			c-0.6,0.6-1.2,0.9-2,0.7c-0.7-0.2-1.5-0.5-2.2-0.7c-1.2-0.4-2.4-0.7-3.6-1c-0.6-0.1-1.1,0.1-1.5,0.5c-0.3,0.3-0.6,0.8-0.8,1.2
			c-0.1,0.2-0.2,0.3-0.3,0.5c-0.3,3.1,0.2,6.1,1.3,8.9c0.2,0.5,0.8,0.8,1.4,0.5c0.4-0.2,0.9-0.5,1.3-0.7c0.5-0.3,0.7-0.2,1.1,0.2
			c0.1,0.1,0.2,0.2,0.3,0.3c0.4,0.2,0.7,0.6,0.7,1.1s0.1,0.5,0.6,0.3c0.4-0.1,0.6,0,0.7,0.4c0.1,0.4,0.1,0.7,0.2,1.1
			c0.1,0.4,0.2,0.8,0.7,0.8c0,0.3,0,0.5,0,0.7c0.1,0.8,0.2,1.6,0.4,2.3c0.1,0.3,0.3,0.6,0.7,0.6c1,0,2-0.3,2.7-1.1
			c0.6-0.6,0.9-1.4,1.1-2.3c0.1-0.5,0.3-1,0.8-1.2c0.1,0,0.2-0.1,0.2-0.2c0.2-0.9,0.7-1.6,0.5-2.5c-0.2-1.1,0.3-1.9,1.1-2.5
			c0.1-0.1,0.2-0.2,0.3-0.3c0.6-0.6,0.8-1.4-0.2-1.9c-0.2-0.1-0.3-0.2-0.4-0.2c-1.2-0.7-1.8-1.7-2.1-3
			C57.5,78.4,57.6,78.1,57.6,77.9z M75,91.9c0,0.2,0,0.2,0,0.3c0,0.2,0.1,0.4,0.1,0.6c0.2-0.1,0.3-0.1,0.5-0.2
			c0.2,0,0.5-0.1,0.7-0.1s0.4,0.1,0.5,0.2c0.2,0.1,0.4,0.1,0.6-0.1c1.6-1.7,2.9-3.6,3.9-5.8c0.4-0.8,0.3-1.5-0.1-2.3
			c-0.3-0.6-0.4-0.7-1-0.3c-0.9,0.7-2,1-3.1,1.3c-0.9,0.2-1.9,0.5-2.8,0.7c-1.5,0.5-2.6,2.4-2.2,3.9c0.2,0.6,0.4,1.2,0.6,1.9
			c0.2,0.8,0.5,0.9,1.1,0.5C74.3,92.4,74.6,92.2,75,91.9z M75.3,94.7c0-0.1,0-0.1,0-0.2c-1.2-0.6-2.4-0.6-3.5,0.1
			c-0.6,0.3-1.2,0.8-1.7,1.3c-0.3,0.3-0.7,0.4-1.1,0.2c-1.2-0.4-2.3-0.8-3.5-1.1c-1.6-0.5-3.2-0.8-4.9-0.3c-1.1,0.3-2.1,0.9-2.7,2
			c-0.3,0.6-0.1,1,0.6,1.2c2.3,0.6,4.7,0.8,7,0.6c2.9-0.3,5.5-1.1,8-2.6C74,95.5,74.7,95.1,75.3,94.7z M81.2,76.6
			c0.1,0.3,0.2,0.5,0.3,0.6c0.2,0.3,0.2,0.6-0.1,0.9c-0.2,0.3-0.4,0.6-0.4,1c-0.3,1.5,0.4,2.7,1.3,3.8c0.1,0.1,0.1,0.1,0.3,0.1
			c0.3-1.7,0.6-3.4,0.3-5.1c0-0.3-0.3-0.7-0.5-0.9C82.1,76.7,81.7,76.6,81.2,76.6z M45.4,71.8c0,0.1,0.1,0.1,0.1,0.2
			c0.2,0,0.3,0,0.5,0c0.2-0.1,0.5-0.2,0.7-0.4c0.9-0.8,1.7-1.8,2.8-2.3l0,0c0.3-0.3,0.3-0.5-0.1-0.7c-0.6-0.4-2.1-0.2-2.5,0.5
			C46.4,69.8,46,70.8,45.4,71.8z M59.1,88.3C59.1,88.3,59.2,88.3,59.1,88.3c0.1,0.2,0.1,0.3,0.1,0.5c0,0.1,0.1,0.2,0.2,0.4
			c0.1-0.1,0.3-0.2,0.3-0.3c0.2-0.3,0.3-0.6,0.4-1c0.3-0.9,0.7-1.8,1-2.7c0.1-0.2,0.1-0.3,0.1-0.5c0-0.5-0.3-0.7-0.7-0.5
			c-0.5,0.2-0.9,0.6-1,1.1C59.4,86.3,59.3,87.3,59.1,88.3z M48.7,67.6c0.4-0.2,0.9-0.4,1.3-0.6c0.6-0.3,0.7-0.8,0.8-1.4
			c0-0.3-0.1-0.6-0.4-0.6c-0.5-0.1-1,0-1.3,0.4c-0.4,0.5-0.7,0.9-1.1,1.4c-0.2,0.2-0.1,0.4,0.1,0.6C48.3,67.5,48.5,67.5,48.7,67.6z
			 M78.8,84.2c0.2-0.1,0.6-0.2,0.7-0.5c0.1-0.1-0.2-0.5-0.3-0.7c-0.1-0.1-0.3-0.2-0.4-0.3c-0.5-0.2-0.8-0.1-1.1,0.2
			c-0.3,0.3-0.2,0.6,0.1,0.8C78.1,83.9,78.4,84,78.8,84.2z M68.1,82.3c0.2-0.1,0.5-0.3,0.8-0.4c-0.1-0.3-0.3-0.5-0.4-0.7
			c-0.1-0.1-0.2-0.2-0.3-0.2c-0.5-0.2-0.9-0.2-1.2,0.3c-0.2,0.3-0.2,0.6,0.1,0.7C67.4,82.1,67.7,82.2,68.1,82.3z M77.8,82.1
			c0.5,0,0.8-0.2,0.6-0.5c-0.3-0.4-0.6-0.7-0.9-1c-0.3-0.2-0.6,0.1-0.6,0.4C76.8,81.7,77.2,82.1,77.8,82.1z"/>
		<path class="st0" d="M22.9,24c0-1.1,0-2.2,0-3.3c0.3,0,0.6,0,0.9,0c1.3,0,2-0.6,2.3-1.9c0.2-1.1,0.3-2.2,0-3.3
			c-0.3-1.2-1.3-1.7-2.4-1.3c-0.8,0.3-1,1-1.1,1.7s-0.1,1.4-0.1,2c0,0.2,0,0.4-0.3,0.4c-1.4,0-2.7,0-4.2,0c0-0.5,0-0.9,0-1.3
			c0.1-0.9,0.1-1.7,0.4-2.5c0.6-2,2-3.3,4-3.8c1.5-0.3,3-0.3,4.4,0.1c2.3,0.7,3.5,2.3,3.9,4.6c0.2,1.2,0.2,2.4-0.2,3.6
			c-0.4,1.4-1.1,2.5-2.5,3c-0.1,0-0.1,0.1-0.1,0.1c0.1,0,0.1,0.1,0.2,0.1c1.4,0.6,2.2,1.8,2.5,3.3c0.4,2,0.3,4.1-0.4,6
			c-0.8,2.2-2.5,3.4-4.8,3.5c-0.9,0.1-1.9,0-2.8-0.1c-1.9-0.3-3.2-1.5-3.9-3.3c-0.5-1.4-0.6-2.9-0.6-4.5c0.3,0,0.7,0,1,0
			c1,0,2,0,3.1,0c0.4,0,0.4,0.1,0.5,0.5c0.1,0.8,0.1,1.7,0.3,2.5c0.3,1.1,1.5,1.6,2.5,1.1c0.7-0.3,0.8-0.9,0.9-1.6
			c0.2-1.2,0.2-2.3-0.1-3.5c-0.3-1.4-1-2-2.4-2.1C23.4,24,23.2,24,22.9,24z"/>
		<path class="st0" d="M11,34.6c0-6.4,0-12.7,0-19.1c-1.1,0.4-2.2,0.8-3.4,1.2c0-0.2,0-0.4,0-0.6c0-0.8,0-1.6,0-2.3
			c0-0.3,0.1-0.4,0.3-0.5c1.4-0.6,2.8-1.3,4-2.3c0.1-0.1,0.2-0.1,0.3-0.1c1.1,0,2.2,0,3.4,0c0,7.9,0,15.8,0,23.8
			C14,34.6,12.6,34.6,11,34.6z"/>
		<path class="st0" d="M59.5,19.9c-1.2,0.1-1.2,0.1-1.2-1.1c0-1.4,0-2.7-0.1-4.1c0-0.3,0-0.5-0.1-0.8c-0.3,1.4-0.6,2.7-0.9,4.1
			c-0.1,0.5-0.2,1.1-0.3,1.6c-0.1,0.3-0.2,0.3-0.5,0.3c-0.2,0-0.5,0.2-0.6-0.3c-0.4-1.8-0.8-3.7-1.2-5.5c0-0.1,0-0.1-0.1-0.2
			c-0.1,0-0.1,0-0.2,0c0,2,0,3.9,0,5.9c-0.5,0-0.9,0-1.3,0c0-0.5,0-1,0-1.5c0-2.4,0.1-4.7,0.1-7.1c0-0.4,0.1-0.5,0.5-0.5
			c1.2,0,1.2,0,1.4,1.1c0.3,1.6,0.7,3.2,1,4.8c0,0.1,0.1,0.2,0.2,0.3c0.2-0.8,0.3-1.6,0.5-2.4c0.2-1.1,0.5-2.3,0.7-3.5
			c0.1-0.2,0.2-0.3,0.4-0.3s0.5,0,0.7,0c0.6,0,0.6,0,0.6,0.6c0,0.7,0,1.5,0,2.2c0,1.9,0.1,3.8,0.1,5.7
			C59.5,19.6,59.5,19.7,59.5,19.9z"/>
		<path class="st0" d="M58.6,30.3c0.1-1,0-1.9,0.2-2.9c0.2-1.1,0.9-1.6,2-1.7c0.3,0,0.5,0,0.8,0c1.5,0.1,2.2,0.9,2.3,2.3
			c0,1.5,0,3,0,4.4c0,1.6-0.9,2.5-2.6,2.5c-1.6,0-2.4-0.8-2.6-2.4C58.6,31.8,58.7,31,58.6,30.3L58.6,30.3z M62.2,30.3
			c0-0.8,0-1.6,0-2.5c0-0.7-0.3-1-0.9-1c-0.6,0-1,0.3-1,0.9c0,1.6,0,3.2,0,4.8c0,0.1,0,0.2,0,0.4c0.1,0.7,0.8,1,1.4,0.7
			c0.4-0.2,0.4-0.6,0.5-0.9C62.2,31.9,62.2,31.1,62.2,30.3z"/>
		<path class="st0" d="M68.2,25.8c0.5,0,0.9,0,1.3,0c0,3,0,6,0,9c-0.3,0-0.6,0-0.9,0c-0.1,0-0.2-0.2-0.3-0.3
			c-0.6-1.5-1.2-2.9-1.8-4.4c-0.1-0.1-0.1-0.3-0.3-0.4c0,1.7,0,3.4,0,5.1c-0.5,0-0.9,0-1.4,0c0-3,0-6,0-9c0.3,0,0.6,0,0.9,0
			c0.1,0,0.3,0.2,0.3,0.3c0.6,1.4,1.2,2.8,1.8,4.2c0.1,0.1,0.1,0.3,0.2,0.4h0.1C68.2,29.1,68.2,27.4,68.2,25.8z"/>
		<path class="st0" d="M45.2,14.1c-0.5,0-1,0-1.5,0c0-0.5-0.1-0.9-0.1-1.4c-0.1-0.5-0.3-0.8-0.8-0.8c-0.6,0-0.9,0.2-1,0.7
			c-0.1,0.2-0.1,0.5-0.1,0.7c0,1.3,0,2.6,0,4c0,0.3,0,0.6,0.1,0.8c0.1,0.5,0.5,0.7,0.9,0.7c0.5,0,0.8-0.3,0.8-0.8
			c0.1-0.5,0.1-1,0.1-1.5c0.5,0,1,0,1.5,0c0,0.9,0,1.7-0.4,2.5c-0.3,0.5-0.7,0.8-1.2,0.9S42.4,20,41.9,20c-1-0.2-1.6-0.8-1.8-1.9
			C40,17.7,40,17.3,40,16.9c0-1.4,0-2.7,0.1-4.1c0.1-1.6,1.2-2.2,2.7-2.1c1.5,0.1,2.1,0.7,2.2,2.2C45.2,13.3,45.2,13.7,45.2,14.1z"
			/>
		<path class="st0" d="M50.7,29c-0.5,0-1,0-1.5,0c0-0.4,0-0.9,0-1.2c0-0.6-0.3-0.9-0.7-0.9c-0.6-0.1-1,0.2-1,0.8
			c0,0.5-0.1,1-0.1,1.5c0,1.2,0,2.4,0.1,3.7c0,0.4,0.1,0.7,0.5,0.8c0.6,0.3,1.2-0.1,1.3-0.8c0-0.5,0-0.9,0-1.4c0.5,0,1,0,1.6,0
			c-0.1,0.7-0.1,1.4-0.3,2c-0.3,1-1,1.4-2.2,1.4c-1.6,0-2.5-0.8-2.6-2.3c-0.1-1.6-0.1-3.1,0-4.7c0.1-1.4,0.8-2.1,2.2-2.2
			c0.4,0,0.7,0,1.1,0.1c1,0.2,1.5,0.9,1.6,2.1C50.7,28.2,50.7,28.5,50.7,29z"/>
		<path class="st0" d="M41.8,32.7c-0.1,0.7-0.3,1.4-0.4,2.1c-0.5,0-1,0-1.5,0c0.6-3,1.2-6,1.8-9c0.5,0,1,0,1.5,0
			c0.1,0,0.3,0.2,0.3,0.3c0.6,2.9,1.2,5.8,1.8,8.7c0,0,0,0,0,0.1c-0.4,0-0.9,0-1.3,0c-0.1,0-0.2-0.2-0.2-0.3c-0.1-0.5-0.2-1-0.3-1.5
			c0-0.1-0.2-0.3-0.3-0.3C42.7,32.7,42.3,32.7,41.8,32.7z M43.2,31.6c-0.2-1.2-0.4-2.4-0.6-3.5h-0.1c-0.2,1.2-0.4,2.3-0.6,3.5
			C42.4,31.6,42.8,31.6,43.2,31.6z"/>
		<path class="st0" d="M65.5,19.9c-0.5,0-0.9,0-1.2,0c-0.1,0-0.2-0.2-0.3-0.3c-0.1-0.5-0.2-1-0.3-1.5c0-0.2-0.1-0.3-0.4-0.3
			c-0.3,0-0.5,0-0.8,0c-0.4-0.1-0.6,0.2-0.6,0.5c-0.1,0.5-0.2,1-0.3,1.6c-0.5,0-1,0-1.5,0c0.2-1,0.4-2,0.6-3
			c0.4-1.9,0.8-3.7,1.1-5.6c0.1-0.3,0.2-0.5,0.6-0.5c1.2,0,1.2,0,1.5,1.3c0.5,2.5,1,5,1.5,7.6C65.5,19.7,65.5,19.8,65.5,19.9z
			 M63.5,16.7c-0.2-1.2-0.4-2.4-0.6-3.6h-0.1c-0.2,1.2-0.4,2.3-0.6,3.6C62.6,16.7,63,16.7,63.5,16.7z"/>
		<path class="st0" d="M73.5,15.7c-0.5,0-0.9,0-1.3,0c-0.3,0-0.4,0.1-0.4,0.3c0,0.8,0,1.6,0,2.4c0,0.3,0.1,0.4,0.4,0.4
			c0.5,0,0.9,0,1.4,0c0.3,0,0.5,0.1,0.4,0.4c0,0.1,0,0.3,0,0.4s-0.2,0.3-0.3,0.3c-1.1,0-2.1,0-3.2,0c-0.2,0-0.3-0.1-0.3-0.3
			c0-0.1,0-0.1,0-0.2c0-2.7,0-5.4,0-8.1c0-0.4,0.1-0.5,0.5-0.5c0.9,0,1.9,0,2.8,0c0.3,0,0.5,0.1,0.5,0.4c0,0.7,0.1,0.7-0.7,0.7
			c-0.4,0-0.7,0-1.1,0c-0.2,0-0.3,0.1-0.3,0.3c0,0.7,0,1.3,0,2c0,0.3,0.1,0.3,0.3,0.3c0.4,0,0.9,0,1.4,0
			C73.5,15,73.5,15.3,73.5,15.7z"/>
		<path class="st0" d="M68.3,12c0,2.7,0,5.3,0,7.9c-0.6,0-1.1,0-1.6,0c0-0.2,0-0.3,0-0.5c0-2.3,0-4.6,0-6.9c0-0.4-0.1-0.5-0.5-0.5
			c-0.3,0-0.6,0-1,0c0-0.3,0-0.6,0-1c0-0.1,0.2-0.2,0.3-0.2c1.3,0,2.7,0,4,0c0.1,0,0.3,0.2,0.3,0.3c0.1,0.8,0.1,0.9-0.8,0.9
			C68.8,12,68.6,12,68.3,12z"/>
		<path class="st0" d="M51,26.9c0-0.4,0-0.7,0-1.1c1.5,0,3,0,4.6,0c0,0.3,0,0.7,0,1.1c-0.3,0-0.7,0-1,0s-0.5,0.1-0.5,0.5
			c0,1.5,0,3.1,0,4.6c0,0.8,0,1.6,0,2.5c0,0.3-0.1,0.4-0.4,0.4c-0.4,0-0.8,0-1.2,0c0-0.2,0-0.4,0-0.5c0-2.3,0-4.6,0-6.9
			c0-0.4-0.1-0.6-0.5-0.5C51.7,26.9,51.3,26.9,51,26.9z"/>
		<path class="st0" d="M46.1,19.9c0-0.2,0-0.3,0-0.5c0-2.7,0-5.4,0-8.1c0-0.4,0.1-0.5,0.5-0.5c1.1,0,1.1,0,1.1,1c0,2.2,0,4.3,0,6.5
			c0,0.4,0.1,0.5,0.5,0.5s0.9,0,1.3,0c0.3,0,0.4,0.1,0.4,0.4c0,0.1,0,0.3,0,0.4c0,0.2-0.1,0.3-0.3,0.3
			C48.4,19.9,47.3,19.9,46.1,19.9z"/>
		<path class="st0" d="M57.6,34.8c-0.5,0-1,0-1.5,0c0-3,0-6,0-9c0.5,0,1,0,1.5,0C57.6,28.8,57.6,31.8,57.6,34.8z"/>
		<path class="st0" d="M50.5,19.9c0-0.2,0-0.3,0-0.5c0-2.7,0-5.4,0-8.2c0-0.4,0.1-0.5,0.5-0.5c0.2,0,0.5,0,0.7,0
			c0.3,0,0.4,0.1,0.4,0.4c0,2.7,0,5.5,0,8.2c0,0.3-0.1,0.4-0.4,0.4C51.3,19.9,51,19.9,50.5,19.9z"/>
	</g>
</g>
</svg>
