<?xml version="1.0" encoding="utf-8"?>
<!-- Generator: Adobe Illustrator 25.0.1, SVG Export Plug-In . SVG Version: 6.00 Build 0)  -->
<svg version="1.1" id="Layer_1" xmlns="http://www.w3.org/2000/svg" xmlns:xlink="http://www.w3.org/1999/xlink" x="0px" y="0px"
	 viewBox="0 0 125 125" style="enable-background:new 0 0 125 125;" xml:space="preserve">
<style type="text/css">
	.st0{fill:#D2D1D3;}
</style>
<g>
	<g>
		<path class="st0" d="M36.5,70.3c-0.5-0.4-1-0.7-1.4-1.2c-1.8-1.9-2.4-4.2-1.5-6.6c0.8-2.5,2.7-4,5.2-4.4c0.4-0.1,0.8,0,1.2-0.1
			c0.1,0,0.3-0.2,0.3-0.3c0.3-3.7,3.1-6.9,7-7.8c4.8-1.1,9.8,2.2,10.7,7c0.3,1.8,0.1,3.5-0.6,5.2c0,0.1-0.1,0.2-0.1,0.3v0.1
			c0.1,0,0.3,0.1,0.4,0.1c4,1.2,6.5,3.9,7.2,8c1,5.7-3,10.6-8.1,11.4c-0.8,0.1-1.6,0.1-2.4,0.2c-1.5,0-3,0-4.4,0
			c-2.9,0-5.7,0-8.6-0.1c-3.3-0.1-6-2.5-6.5-5.7c-0.4-2.1,0.1-4.1,1.5-5.8c0.1-0.1,0.1-0.2,0.2-0.3C36.5,70.4,36.5,70.3,36.5,70.3z"
			/>
		<path class="st0" d="M61.9,102.7c-10,0-20,0-30,0c-0.8,0-0.8,0-0.8-0.8c0-1,0-1.9,0-2.9c0-0.5,0.1-0.6,0.6-0.6c0.1,0,0.2,0,0.2,0
			c20,0,40,0,60,0c0.7,0,0.7,0,0.7,0.7c0,1,0,1.9,0,2.9c0,0.6,0,0.6-0.6,0.6c-3.8,0-7.7,0-11.5,0C74.4,102.7,68.1,102.7,61.9,102.7z
			"/>
		<path class="st0" d="M62,105.9c10,0,20.1,0,30.1,0c0.7,0,0.7,0,0.7,0.7c0,1,0,2,0,3c0,0.3-0.1,0.5-0.5,0.5c-0.1,0-0.2,0-0.2,0
			c-20,0-40.1,0-60.1,0c-0.8,0-0.8,0-0.8-0.8c0-0.9,0-1.9,0-2.8c0-0.6,0-0.6,0.6-0.6C41.8,105.9,51.9,105.9,62,105.9z"/>
		<path class="st0" d="M21.8,19.9c0.5-0.2,0.9-0.5,1.4-0.7c1-0.4,2.1-0.5,3.2-0.3c1.4,0.3,2.4,1.2,3,2.5c0.6,1.2,0.7,2.5,0.9,3.8
			c0.1,1.8,0,3.6-0.4,5.4c-0.3,1.7-1.2,3.1-2.8,3.8C25.9,35,24.5,35,23.2,35c-0.6,0-1.1-0.1-1.7-0.3c-1.6-0.4-2.7-1.5-3.2-3.1
			c-0.3-1.1-0.5-2.2-0.4-3.4c0-0.3,0.1-0.4,0.4-0.4c1.2,0,2.4,0,3.5,0c0.3,0,0.3,0.1,0.4,0.3c0.1,0.8,0.2,1.5,0.3,2.3
			c0.2,0.8,0.7,1.3,1.6,1.2c0.7,0,1.3-0.2,1.6-1.1c0.1-0.3,0.2-0.7,0.2-1C26,28,26,26.5,26,25c0-0.5-0.1-1.1-0.3-1.6
			c-0.2-0.9-0.8-1.3-1.6-1.3c-0.8,0-1.4,0.3-1.8,1C22.1,23.4,22,23.7,22,24c-0.1,0.2-0.2,0.3-0.4,0.3c-1,0-2,0-3.1,0
			c-0.3,0-0.4-0.1-0.4-0.4c0-2,0.1-4,0.1-6c0-0.9,0.1-1.8,0.1-2.7c0-1.3,0.1-2.7,0.1-4c0-0.3,0.1-0.3,0.4-0.3c3.4,0,6.8,0,10.2,0
			c0.3,0,0.4,0.1,0.4,0.4c0,1,0,1.9,0,2.9c0,0.4-0.1,0.5-0.5,0.5c-2,0-4,0-6,0c-0.7,0-0.7,0-0.7,0.7c-0.1,1.4-0.2,2.8-0.2,4.3
			C21.8,19.7,21.8,19.8,21.8,19.9z"/>
		<path class="st0" d="M10.6,15.5c-1.2,0.4-2.3,0.8-3.4,1.2c0-0.5,0-1,0-1.4c0-0.5,0-1,0-1.5c0-0.2,0.1-0.4,0.3-0.4
			c1.4-0.7,2.8-1.3,4-2.4c0.1-0.1,0.3-0.1,0.5-0.1c0.9,0,1.8,0,2.7,0c0.4,0,0.5,0.1,0.5,0.5c0,2.5,0,4.9,0,7.4c0,5.1,0,10.2,0,15.4
			c0,0.6,0,0.6-0.5,0.6c-1.1,0-2.3,0-3.5,0c-0.4,0-0.5-0.1-0.5-0.5c0-6,0-12,0-18C10.6,15.9,10.6,15.7,10.6,15.5z"/>
		<path class="st0" d="M75.6,72.6c1.8,0.1,3.4,0.7,4.8,1.7c0.4,0.3,0.6,0.3,1,0c1.6-1.1,3.4-1.8,5.4-1.6c1.7,0.1,3.1,0.9,4.3,2.1
			c0.2,0.2,0.2,0.7,0,0.9c-0.3,0.2-0.5,0.2-0.8,0c-1-0.6-2-0.6-3.1-0.6c-2.3,0.2-4.2,1.1-5.9,2.7c-0.3,0.3-0.7,0.3-1.1-0.1
			c-1-0.9-2-1.6-3.3-2c-1.5-0.5-3-0.8-4.5-0.4c-0.3,0.1-0.7,0.2-1,0.4c-0.3,0.2-0.6,0.3-0.9,0c-0.2-0.3-0.2-0.7,0.1-1
			c0.8-0.8,1.8-1.4,2.9-1.7C74.3,72.8,74.9,72.7,75.6,72.6z"/>
		<path class="st0" d="M52,89.6c0,1.4,0,2.9,0,4.3c0,0.5-0.1,0.5-0.6,0.5c-1,0-2,0-3,0c-0.4,0-0.5-0.1-0.5-0.5c0-2.9,0-5.8,0-8.7
			c0-0.4,0.1-0.5,0.5-0.5c1,0,2,0,3.1,0c0.4,0,0.5,0.2,0.5,0.6C52,86.8,52,88.2,52,89.6z"/>
		<path class="st0" d="M68.7,57.3c1.3,0.1,2.5,0.4,3.6,1.1c0.3,0.2,0.5,0.2,0.7,0c1-0.8,2.1-1.4,3.4-1.6c1.8-0.2,3.3,0.3,4.7,1.5
			c0.3,0.2,0.3,0.6,0.1,0.9c-0.2,0.3-0.5,0.2-0.7,0.1c-0.7-0.4-1.5-0.4-2.3-0.3c-1.9,0.2-3.4,1-4.7,2.4c-0.5,0.5-0.7,0.5-1.2,0.1
			c-1.4-1.1-3-1.7-4.7-1.8c-0.9,0-1.8,0.1-2.5,0.6c-0.1,0.1-0.5,0.1-0.5,0c-0.1-0.2-0.2-0.5-0.2-0.7c0-0.1,0.1-0.2,0.2-0.3
			C65.6,58,67,57.3,68.7,57.3z"/>
		<path class="st0" d="M69.9,30.3c0-1.4,0-2.7,0-4c0-0.4,0.1-0.5,0.5-0.5c0.9,0.1,1.8,0,2.7,0.1c1,0.1,1.7,0.8,1.7,1.8
			c0.1,1.7,0.1,3.3,0,5c-0.1,1.4-0.9,2.1-2.3,2.1c-0.7,0-1.4,0-2.1,0c-0.3,0-0.4-0.1-0.4-0.4C69.9,33,69.9,31.6,69.9,30.3z
			 M71.5,33.6c1.1,0.2,1.7-0.1,1.7-1c0.1-1.6,0-3.2,0-4.8c0-0.6-0.3-0.9-0.7-1c-0.3-0.1-0.7,0-1,0C71.5,29.2,71.5,31.4,71.5,33.6z"
			/>
		<path class="st0" d="M45,30.3c0,0.9,0,1.8-0.1,2.6c-0.2,1.3-1,2-2.3,2c-0.3,0-0.6,0-1,0c-1-0.2-1.7-0.9-1.8-2
			c-0.1-1.7-0.1-3.4,0-5.1c0.1-1.2,0.9-2,2.2-2c0.3,0,0.7,0,1,0c1,0.2,1.6,0.8,1.8,1.9c0,0.2,0.1,0.3,0.1,0.5
			C44.9,28.8,44.9,29.5,45,30.3L45,30.3z M43.4,30.3c0-0.8,0-1.5,0-2.3c0-0.2,0-0.4-0.1-0.5c-0.1-0.5-0.4-0.7-1-0.7
			c-0.5,0-0.8,0.2-0.9,0.7c-0.1,0.2-0.1,0.4-0.1,0.6c0,1.4,0,2.9,0,4.3c0,0.2,0,0.5,0.1,0.7c0.1,0.5,0.4,0.7,0.9,0.7
			c0.6,0,1-0.4,1-1.1C43.4,31.9,43.4,31.1,43.4,30.3z"/>
		<path class="st0" d="M47.2,29.5c0,0.2,0,0.3,0,0.5c0,1.4,0,2.9,0,4.3c0,0.4-0.1,0.5-0.5,0.5c-0.9,0-0.8,0.1-0.8-0.8
			c0-2.6,0-5.1,0-7.7c0-0.2,0.1-0.5,0.2-0.5c0.4-0.2,0.8,0,1,0.3c0.6,1.4,1.2,2.8,1.8,4.2c0.1,0.2,0.2,0.3,0.2,0.5h0.1
			c0-0.2,0.1-0.3,0.1-0.5c0-1.4,0-2.7,0-4.1c0-0.3,0.1-0.5,0.5-0.5c0.9,0,0.8-0.1,0.8,0.8c0,2.6,0,5.1,0,7.7c0,0.2-0.1,0.5-0.2,0.5
			c-0.4,0.2-0.8,0-0.9-0.3c-0.6-1.5-1.3-3.1-1.9-4.6c-0.1-0.1-0.1-0.2-0.2-0.4C47.3,29.5,47.3,29.5,47.2,29.5z"/>
		<path class="st0" d="M65.4,29.6c0,0.1,0,0.3,0,0.4c0,1.4,0,2.9,0,4.3c0,0.4-0.1,0.5-0.5,0.5c-0.9,0-0.8,0.1-0.8-0.8
			c0-2.6,0-5.1,0-7.7c0-0.2-0.1-0.5,0.2-0.5c0.5-0.1,0.8,0,1,0.3c0.6,1.4,1.2,2.7,1.8,4.1c0.1,0.2,0.2,0.3,0.3,0.5
			c0-0.1,0-0.3,0-0.4c0-1.4,0-2.7,0-4.1c0-0.3,0.1-0.5,0.5-0.5c0.9,0,0.8-0.1,0.8,0.8c0,2.6,0,5.1,0,7.7c0,0.2,0.1,0.5-0.2,0.5
			c-0.3,0-0.7,0.2-0.9-0.3c-0.6-1.5-1.2-3-1.9-4.5c-0.1-0.1-0.1-0.3-0.2-0.4C65.5,29.5,65.4,29.6,65.4,29.6z"/>
		<path class="st0" d="M86.1,53.7c-1,0-1.9,0.2-2.7,0.6c-0.6,0.3-0.8,0.2-1.2-0.3c-0.9-1.4-2-2.3-3.6-2.6c-0.4-0.1-0.7-0.1-1.1,0
			c-0.3,0-0.6,0.1-0.7-0.3c-0.1-0.3,0-0.7,0.3-0.8c1.6-0.8,3.2-0.8,4.7,0.2c0.5,0.3,0.9,0.7,1.3,1.2c0.2,0.3,0.4,0.3,0.8,0.2
			c1.5-0.5,3.1-0.5,4.4,0.6c0.6,0.4,1,1,1.4,1.6c0.2,0.3,0.1,0.7-0.1,0.9c-0.3,0.2-0.5,0.1-0.8-0.2c-0.5-0.5-1.2-0.7-1.9-0.9
			C86.6,53.8,86.3,53.7,86.1,53.7z"/>
		<path class="st0" d="M62.7,34.8c-0.7,0-0.7,0-0.8-0.7c-0.1-0.4-0.1-0.8-0.2-1.1c0-0.1-0.2-0.2-0.3-0.3c-0.3,0-0.5,0-0.8,0
			c-0.6,0-0.6,0-0.7,0.6c-0.1,0.3-0.2,0.6-0.2,0.9c0,0.5-0.2,0.6-0.7,0.6c-0.9,0-0.9,0-0.7-0.9c0.5-2.6,1.1-5.2,1.6-7.8
			c0.1-0.3,0.2-0.4,0.5-0.4c1.2,0,1.2,0,1.5,1.2c0.5,2.4,1,4.8,1.5,7.2c0.1,0.6,0.1,0.6-0.5,0.6C62.7,34.8,62.7,34.8,62.7,34.8z
			 M61.4,31.7c-0.2-1.3-0.4-2.4-0.6-3.6c-0.1,0-0.1,0-0.2,0c-0.2,1.2-0.4,2.4-0.6,3.7C60.6,31.7,61,31.7,61.4,31.7z"/>
		<path class="st0" d="M51.4,15.4c0-1.4,0-2.7,0-4.1c0-0.3,0.1-0.5,0.4-0.4c1,0,1.9,0,2.9,0c0.4,0,0.4,0.2,0.4,0.5s0,0.6-0.4,0.5
			c-0.4,0-0.9,0-1.3,0c-0.3,0-0.4,0.1-0.4,0.4c0,0.7,0,1.3,0,2c0,0.3,0.1,0.4,0.4,0.4c0.3,0,0.6,0,0.9,0c0.3,0,0.4,0.1,0.4,0.4
			c0,0.1,0,0.2,0,0.3c0,0.3-0.1,0.4-0.4,0.4c-0.3,0-0.7,0-1,0c-0.2,0-0.3,0.1-0.3,0.3c0,0.8,0,1.7,0,2.5c0,0.3,0.1,0.3,0.4,0.3
			c0.5,0,0.9,0,1.4,0c0.4,0,0.4,0.2,0.4,0.5s0.1,0.5-0.4,0.5c-1,0-2,0-3,0c-0.3,0-0.4-0.1-0.4-0.4C51.4,18.1,51.4,16.7,51.4,15.4z"
			/>
		<path class="st0" d="M47.1,15.4c0-1.4,0-2.7,0-4.1c0-0.3,0.1-0.4,0.4-0.4c0.9,0,1.8,0,2.7,0c0.4,0,0.5,0.2,0.4,0.5
			c0,0.3,0,0.6-0.4,0.5c-0.4,0-0.9,0-1.3,0c-0.3,0-0.4,0.1-0.4,0.4c0,0.7,0,1.4,0,2c0,0.2,0.1,0.3,0.3,0.3c0.3,0,0.6,0,1,0
			c0.2,0,0.4,0.1,0.3,0.3c0,0.1,0,0.2,0,0.3c0,0.3-0.1,0.5-0.4,0.4c-0.2,0-0.5,0-0.7,0c-0.4-0.1-0.5,0.1-0.5,0.5c0,1.1,0,2.1,0,3.2
			c0,0.4-0.1,0.5-0.5,0.5c-1,0-1,0-1-1C47.1,17.7,47.1,16.5,47.1,15.4z"/>
		<path class="st0" d="M39.9,15.4c0-1.3,0-2.7,0-4c0-0.4,0.1-0.5,0.5-0.5c1.1,0,1.1,0,1.1,1.1c0,2.1,0,4.3,0,6.4
			c0,0.4,0.1,0.5,0.5,0.5c0.5,0,0.9,0,1.3,0c0.4,0,0.4,0.2,0.4,0.5c0,0.2,0.1,0.6-0.3,0.5c-1,0-2,0-3,0c-0.3,0-0.4-0.1-0.4-0.4
			C40,18.1,39.9,16.7,39.9,15.4z"/>
		<path class="st0" d="M54.2,30.3c0-1.4,0-2.7,0-4c0-0.4,0.1-0.5,0.5-0.5c1,0,1,0,1,1.1c0,2.1,0,4.3,0,6.4c0,0.4,0.1,0.6,0.6,0.5
			c0.4,0,0.9,0,1.3,0c0.5,0,0.3,0.3,0.3,0.6c0,0.2,0,0.5-0.3,0.5c-1,0-2,0-3,0c-0.3,0-0.3-0.2-0.3-0.4C54.2,33,54.2,31.6,54.2,30.3z
			"/>
		<path class="st0" d="M44.4,15.4c0-1.3,0-2.7,0-4c0-0.3,0.1-0.5,0.5-0.5c1.1,0,1.1,0,1.1,1.1c0,2.4,0,4.9,0,7.4
			c0,0.4-0.1,0.5-0.5,0.5c-1.1,0-1.1,0-1.1-1.1C44.4,17.7,44.4,16.5,44.4,15.4z"/>
	</g>
</g>
</svg>
