<?xml version="1.0" encoding="utf-8"?>
<!-- Generator: Adobe Illustrator 24.1.2, SVG Export Plug-In . SVG Version: 6.00 Build 0)  -->
<svg version="1.1" id="Layer_1" xmlns="http://www.w3.org/2000/svg" xmlns:xlink="http://www.w3.org/1999/xlink" x="0px" y="0px"
	 viewBox="0 0 125 125" style="enable-background:new 0 0 125 125;" xml:space="preserve">
<style type="text/css">
	.st0{fill:#02689D;}
</style>
<g>
	<g>
		<path class="st0" d="M53.2,83.3c-1.2-0.2-2.4-0.5-3.5-1c-2.6-1.2-4.2-3.2-5.4-5.7c-0.8-1.8-1.1-3.6-1.6-5.5
			c-0.4-1.7-0.9-3.4-1.5-5.1c-0.6-1.6-1.5-3-3.1-3.8c0.9,0,1.7-0.1,2.5-0.1c4.6,0,8.5,1.7,11.9,4.6c1.1,0.9,2.1,2,3.2,3
			c1.6,1.4,3.3,2.5,5.4,3c2.6,0.6,5,0,7.1-1.6c1.2-0.9,2.3-2,3.5-3c1-0.7,1.9-1.4,3-2c1.8-0.9,3-0.6,4.3,0.9c0.5,0.5,0.9,1,1.4,1.5
			c0.1-0.1,0.1-0.2,0.1-0.2c0.4-1.8,1.4-3.2,2.6-4.5c1.1-1.2,2.3-2.4,3.4-3.7c0.1,0.1,0.2,0.1,0.4,0.3c-0.3,0.4-0.5,0.7-0.8,1.1
			c-0.8,0.9-1.7,1.8-2.6,2.7c-1.2,1.3-2.2,2.7-2.6,4.4c-0.1,0.3,0,0.5,0.3,0.7c0.5,0.4,1,0.7,1.5,1.1c-0.6,0-1.1,0.1-1.6,0.1
			c-0.3,0-0.4,0.2-0.3,0.5c0.1,1.5,0.4,2.9,0.9,4.3c-0.2,0-0.3,0.1-0.6,0.1c-0.5-1.5-0.9-3.1-0.9-4.7c-2.7,0-5.1,2-5.8,4.6
			c-0.4,1.4-0.5,2.9-0.4,4.3c0.1,3.1-0.5,6-2.5,8.6c-1.5,2-3.6,3.3-5.9,4.2c-2,0.8-4.1,1.4-6.2,1.7c-0.3,0-0.5,0.2-0.5,0.5
			c0,1.7,0,3.4,0,5.1c0,0.4,0.1,0.5,0.5,0.5c2.7,0,5.3,0.1,8,0.2c1.8,0.1,3.5-0.3,5.2-0.4c0.9-0.1,1.8-0.2,2.7-0.3
			c0-0.4,0-0.7,0-1.1c0-0.6,0-1.2,0-1.8c0-0.7,0.3-1,1-1c3.3,0,6.6,0,9.9,0c0.7,0,1,0.3,1,1c0,3.2,0,6.5,0,9.8c0,0.7-0.3,1-1,1
			c-3.3,0-6.6,0-9.8,0c-0.7,0-1-0.3-1-1c0-0.8,0-1.6,0-2.5c0-0.4-0.1-0.5-0.5-0.5c-1.2-0.1-2.5-0.3-3.7-0.4
			c-1.4-0.2-2.8-0.3-4.3-0.2c-3.8,0.1-7.6,0.2-11.4,0.3c-2.4,0.1-4.9,0.1-7.3,0.2c-3.8,0.1-7.6,0.2-11.4,0.2c-0.4,0-0.9,0-1.4,0
			c0-1.2,0-2.5,0-3.8c6.1,0.1,12.2,0.3,18.3,0.4c0-0.2,0-0.3,0-0.4c0-1.7,0-3.3,0-5c0-0.2-0.1-0.4-0.3-0.4c-3.5-0.3-6.8-1.3-9.8-3.3
			c-1.7-1.1-3.5-2.1-5-3c0.8,0,1.8,0.2,2.9,0.1c1.9,0,3.7-0.5,5.3-1.6c1.1-0.8,2.3-1.5,3.5-2.2c0.7-0.4,1.6-0.6,2.4-0.8
			C53,83.4,53.1,83.4,53.2,83.3z M57.7,94.4c-0.7,0-1.3,0-2,0c-0.1,0-0.2,0.2-0.2,0.3c0,1.7,0,3.3,0,5c0,0.3,0.1,0.4,0.4,0.4
			c0.5,0,0.9,0,1.4,0.1c0.4,0,0.5-0.1,0.5-0.5c0-1.6,0-3.2,0-4.8C57.7,94.6,57.7,94.5,57.7,94.4z"/>
		<path class="st0" d="M22.4,21.1c1.2-1.3,2.7-1.4,4.2-1.1c1.9,0.3,2.9,1.5,3.5,3.2c0.5,1.4,0.6,2.8,0.5,4.2
			c-0.1,1.4-0.2,2.8-0.8,4.2c-0.9,2.2-2.6,3.3-4.9,3.4c-0.9,0-1.8,0-2.6-0.2c-1.9-0.4-3.1-1.7-3.8-3.5c-0.5-1.1-0.7-2.3-0.7-3.5
			c0-3.3,0-6.6,0-9.8c0-1.4,0.2-2.8,0.8-4.1c0.8-1.9,2.2-2.9,4.3-3.2c1.1-0.2,2.3-0.1,3.4,0.1c2.2,0.4,3.4,1.8,3.8,3.9
			c0.1,0.6,0.1,1.3,0.2,2c0,0.3-0.1,0.3-0.3,0.3c-1.2,0-2.4,0-3.6,0c-0.3,0-0.3-0.1-0.3-0.4c-0.1-0.5-0.1-1-0.2-1.5
			c-0.2-0.7-0.6-1-1.2-1.1c-0.9-0.1-1.4,0.2-1.7,0.8c-0.2,0.4-0.3,0.9-0.3,1.3C22.6,17.7,22.6,19.4,22.4,21.1
			C22.3,21.1,22.3,21.1,22.4,21.1z M22.3,26.8c0,0.5,0,1.1,0,1.6c0.1,0.6,0.1,1.3,0.3,1.9c0.1,0.6,0.5,1.1,1.1,1.3
			c1,0.3,1.8-0.2,2-1.3c0.4-1.8,0.4-3.6,0.1-5.3c-0.2-1.2-0.9-1.8-1.9-1.6c-0.6,0.1-1.1,0.3-1.5,0.8c-0.1,0.2-0.2,0.4-0.2,0.6
			C22.3,25.4,22.3,26.1,22.3,26.8z"/>
		<path class="st0" d="M10.7,34.6c0-6.4,0-12.7,0-19.1c-1.2,0.4-2.3,0.8-3.4,1.2c0-0.2-0.1-0.3-0.1-0.4c0-0.9,0-1.7,0-2.5
			c0-0.3,0.1-0.4,0.3-0.5c1.4-0.6,2.8-1.3,4-2.4c0.1-0.1,0.3-0.1,0.4-0.1c0.9,0,1.9,0,2.8,0c0.3,0,0.4,0.1,0.4,0.4
			c0,1.3,0,2.6,0,3.9c0,6.3,0,12.6,0,18.9c0,0.6,0,0.6-0.6,0.6c-1.1,0-2.3,0-3.4,0C11,34.7,10.9,34.6,10.7,34.6z"/>
		<path class="st0" d="M81.6,94.5c-1.8,0-3.6,0-5.4,0c-1,0-1.6-0.6-1.6-1.5s0.7-1.5,1.6-1.5c3.6,0,7.2,0,10.7,0
			c0.8,0,1.4,0.5,1.6,1.3c0.1,0.7-0.2,1.4-0.9,1.7c-0.2,0.1-0.5,0.1-0.7,0.1C85.1,94.5,83.4,94.5,81.6,94.5z"/>
		<path class="st0" d="M81.5,111.6c-1.8,0-3.5,0-5.3,0c-0.9,0-1.7-0.7-1.7-1.5c0-0.9,0.7-1.5,1.7-1.5c3.6,0,7.1,0,10.7,0
			c0.9,0,1.5,0.5,1.6,1.3c0.1,0.7-0.4,1.5-1.1,1.7c-0.2,0.1-0.4,0.1-0.6,0.1C85.1,111.6,83.3,111.6,81.5,111.6z"/>
		<path class="st0" d="M51.5,34.8c0-3,0-6,0-9c0.2,0,0.5,0,0.7,0c0.8,0,1.6,0,2.4,0.1c1.2,0.2,1.8,0.9,1.8,2.1c0,1.5,0,3,0,4.5
			s-0.9,2.3-2.4,2.3C53.2,34.8,52.4,34.8,51.5,34.8z M53.2,33.6c1.1,0.2,1.6-0.1,1.7-1c0-1.6,0-3.2,0-4.8c0-0.6-0.3-0.9-0.8-0.9
			c-0.3,0-0.6,0-0.9,0C53.2,29.2,53.2,31.4,53.2,33.6z"/>
		<path class="st0" d="M73.8,30.4c0.4,1.5,0.8,2.9,1.2,4.4c-0.5,0-1,0-1.4,0c-0.1,0-0.3-0.2-0.3-0.3c-0.3-1.1-0.6-2.2-0.9-3.4
			c-0.1-0.5-0.3-0.5-0.7-0.4c-0.4,0.1-0.2,0.4-0.2,0.6c0,1.2,0,2.4,0,3.6c-0.5,0-1.1,0-1.6,0c0-3,0-6,0-9c0.8,0,1.6,0,2.4,0
			c0.2,0,0.3,0,0.5,0c1.8,0.3,2.1,1.3,1.9,3C74.8,29.6,74.6,29.9,73.8,30.4z M71.6,28.2c0,0.4,0,0.7,0,1.1c0,0.1,0.1,0.2,0.2,0.3
			c0.4,0.2,1.2-0.1,1.4-0.4c0.4-0.6,0.3-1.2,0.1-1.9c-0.2-0.6-0.8-0.5-1.3-0.5c-0.2,0-0.3,0.1-0.3,0.3
			C71.6,27.5,71.6,27.9,71.6,28.2z"/>
		<path class="st0" d="M84.7,45.2c-0.1,0.9,0,1.8-0.1,2.7c-0.2,1.2-0.9,1.8-2.1,1.9c-0.4,0-0.9,0-1.3-0.1c-1-0.2-1.6-0.9-1.7-2
			c-0.1-1.5-0.1-3.1-0.1-4.7c0-0.3,0.1-0.6,0.1-0.9c0.3-1,1-1.6,2-1.6c0.4,0,0.8,0,1.2,0c1.2,0.2,1.8,1.1,1.9,2.4
			C84.7,43.8,84.7,44.5,84.7,45.2L84.7,45.2z M83,45.2c0-0.7,0-1.3,0-2c0-0.2,0-0.5-0.1-0.7c-0.1-0.5-0.4-0.8-0.9-0.8
			s-0.8,0.2-0.9,0.8c0,0.2-0.1,0.4-0.1,0.7c0,1.3,0,2.7,0,4c0,0.3,0,0.6,0.1,0.8c0.1,0.4,0.4,0.6,0.8,0.6c0.6,0,1-0.3,1-1.1
			C83,46.8,83,46,83,45.2z"/>
		<path class="st0" d="M75.9,30.3c0-0.9-0.1-1.8,0-2.7c0.1-1.2,0.9-1.8,2-1.9c0.4,0,0.8,0,1.2,0c1,0.2,1.6,0.9,1.7,1.9
			c0.1,0.7,0.1,1.4,0.1,2.1c0,1,0,2.1-0.1,3.1c-0.1,1.3-0.9,2-2.2,2c-0.4,0-0.8,0-1.2-0.1c-1.1-0.2-1.8-1.1-1.8-2.5
			C75.9,31.7,75.9,31,75.9,30.3L75.9,30.3z M77.5,30.3L77.5,30.3c0,0.7,0,1.4,0,2.2c0,0.2,0,0.4,0.1,0.6c0.1,0.6,0.7,0.9,1.3,0.7
			c0.5-0.2,0.6-0.6,0.6-1c0-1.6,0-3.2,0-4.9c0-0.7-0.3-1-0.9-1c-0.7,0-1,0.3-1,1.1C77.5,28.7,77.5,29.5,77.5,30.3z"/>
		<path class="st0" d="M42.9,40.7c0.3,0,0.6,0,0.9,0c0.1,0,0.2,0.2,0.3,0.3c0.6,1.4,1.2,2.8,1.8,4.2c0.1,0.1,0.1,0.3,0.3,0.4
			c0-1.6,0-3.3,0-4.9c0.5,0,0.9,0,1.3,0c0,3,0,6,0,9c-0.3,0-0.6,0-0.9,0c-0.1,0-0.2-0.2-0.3-0.3c-0.6-1.5-1.2-3-1.9-4.4
			c-0.1-0.2-0.1-0.3-0.3-0.4c0,1.7,0,3.4,0,5.2c-0.5,0-0.9,0-1.4,0C42.9,46.7,42.9,43.8,42.9,40.7z"/>
		<path class="st0" d="M82.1,25.8c0.3,0,0.6,0,0.9,0c0.1,0,0.3,0.2,0.3,0.3c0.6,1.4,1.2,2.8,1.8,4.2c0.1,0.1,0.1,0.3,0.3,0.4
			c0-1.6,0-3.3,0-4.9c0.5,0,0.9,0,1.3,0c0,3,0,6,0,9c-0.3,0-0.6,0-0.9,0c-0.1,0-0.3-0.2-0.3-0.3c-0.6-1.5-1.2-2.9-1.8-4.4
			c-0.1-0.2-0.1-0.3-0.3-0.5c0,1.7,0,3.4,0,5.2c-0.5,0-0.9,0-1.4,0C82.1,31.8,82.1,28.8,82.1,25.8z"/>
		<path class="st0" d="M90.4,49.7c-0.3,0-0.6,0-0.8,0c-0.1,0-0.3-0.2-0.3-0.3c-0.6-1.5-1.2-3-1.9-4.5c-0.1-0.1-0.1-0.3-0.3-0.4
			c0,1.7,0,3.4,0,5.2c-0.5,0-0.9,0-1.4,0c0-3,0-6,0-9c0.3,0,0.6,0,1,0c0.1,0,0.2,0.2,0.3,0.3c0.6,1.4,1.2,2.8,1.8,4.2
			c0.1,0.1,0.1,0.3,0.3,0.4c0-1.6,0-3.3,0-4.9c0.5,0,0.9,0,1.3,0C90.4,43.7,90.4,46.7,90.4,49.7z"/>
		<path class="st0" d="M49,30.7c0-0.8,0-1.6,0-2.4s0-1.6,0-2.5c0.5,0,0.8,0,1.3,0c0,3,0,6,0,9c-0.2,0-0.4,0-0.6,0
			c-0.3,0-0.4-0.1-0.5-0.3c-0.6-1.5-1.2-3-1.9-4.5c-0.1-0.1-0.1-0.3-0.3-0.4c0,1.7,0,3.4,0,5.2c-0.4,0-0.8,0-1.1,0
			c-0.1,0-0.2-0.1-0.2-0.2c0-0.1,0-0.2,0-0.3c0-2.7,0-5.3,0-8c0-0.2-0.1-0.5,0.2-0.5s0.8-0.2,1,0.3c0.6,1.4,1.2,2.8,1.8,4.3
			c0.1,0.1,0.1,0.3,0.2,0.4C49,30.7,49,30.7,49,30.7z"/>
		<path class="st0" d="M93,30.3c0,1.5,0,3,0,4.5c-0.3,0-0.6,0-1,0c-0.1-0.2-0.1-0.5-0.1-0.7h-0.1c-0.5,0.8-1.1,1-2.3,0.8
			c-1-0.2-1.5-1-1.5-2c-0.1-1.7-0.1-3.5,0-5.2c0.1-1.2,0.8-1.9,2.1-2c0.4,0,0.8,0,1.2,0c1,0.1,1.6,0.8,1.7,1.8
			c0.1,1.2,0.1,1.2-1,1.2c-0.4,0-0.5-0.1-0.5-0.5c0-0.2,0-0.4,0-0.6c-0.1-0.6-0.3-0.8-0.9-0.8c-0.5,0-0.9,0.2-0.9,0.7
			c-0.1,0.3-0.1,0.7-0.1,1.1c0,1.1,0,2.3,0,3.5c0,0.3,0,0.6,0.1,1c0.1,0.5,0.4,0.7,0.8,0.7c0.5,0,0.9-0.2,0.9-0.6
			c0.1-0.6,0.1-1.2,0.1-1.8c0-0.1-0.2-0.2-0.4-0.2c-0.5,0-0.7-0.4-0.5-0.9c0-0.1,0.1-0.1,0.2-0.1C91.5,30.3,92.2,30.3,93,30.3z"/>
		<path class="st0" d="M67.6,40.7c0,0.8,0,1.5,0,2.2c0,1.5,0,2.9,0,4.4c0,0.3,0.1,0.6,0.2,0.9c0.1,0.4,0.4,0.5,0.8,0.5
			s0.7-0.2,0.8-0.5c0.1-0.3,0.2-0.7,0.2-1.1c0-1.9,0-3.9,0-5.8c0-0.2,0-0.3,0-0.5c0.5,0,1,0,1.5,0c0,0.2,0,0.3,0,0.4
			c0,1.9,0,3.9,0,5.8c0,0.6-0.2,1.2-0.3,1.8c-0.1,0.5-0.5,0.8-1,1c-0.8,0.3-1.6,0.3-2.4,0c-1-0.3-1.3-1.2-1.3-2.1
			c-0.1-2.2,0-4.4-0.1-6.6c0-0.2,0.1-0.3,0.3-0.3C66.7,40.7,67.1,40.7,67.6,40.7z"/>
		<path class="st0" d="M74.3,14.4c0-1.1,0-2.1,0-3.2c0-0.3,0.1-0.4,0.4-0.4c1.1,0,1.1,0,1.1,1.1c0,1.7,0,3.4,0,5.2
			c0,0.3,0,0.7,0.1,1c0.1,0.5,0.4,0.7,0.9,0.7s0.8-0.2,0.9-0.7c0.1-0.3,0.1-0.7,0.1-1c0-1.9,0-3.9,0-5.8c0-0.4,0.1-0.5,0.5-0.5
			c1.1,0,1.1,0,1.1,1.1c0,1.8,0,3.5,0,5.3c0,0.4-0.1,0.9-0.2,1.3c-0.2,0.9-0.8,1.4-1.7,1.5c-0.6,0.1-1.2,0-1.7-0.1
			c-0.9-0.2-1.4-1-1.5-2.2C74.3,16.6,74.4,15.5,74.3,14.4C74.4,14.4,74.3,14.4,74.3,14.4z"/>
		<path class="st0" d="M59.2,16.5c0.5,0,1,0,1.5,0c0,1,0.1,1.9-0.5,2.7c-0.1,0.1-0.1,0.1-0.2,0.2c-0.9,0.7-1.8,0.6-2.8,0.4
			c-0.9-0.3-1.4-1-1.4-1.8c-0.1-1.8-0.1-3.6,0-5.3c0.1-1.5,1.1-2.1,2.7-2c1.5,0.1,2.1,0.8,2.2,2.4c0,0.3,0,0.6,0,0.9
			c-0.5,0-1,0-1.5,0c0-0.2,0-0.4,0-0.6c0-0.3,0-0.5-0.1-0.8c-0.1-0.5-0.3-0.7-0.7-0.7c-0.5,0-0.9,0.2-1,0.7
			c-0.1,0.2-0.1,0.5-0.1,0.7c0,1.4,0,2.8,0,4.2c0,0.3,0,0.5,0.1,0.8c0.1,0.4,0.5,0.7,0.9,0.6c0.4,0,0.7-0.3,0.8-0.7
			C59.2,17.6,59.2,17.1,59.2,16.5z"/>
		<path class="st0" d="M98.1,14c-0.5,0-1,0-1.5,0c0-0.4,0-0.9,0-1.2c0-0.6-0.3-0.9-0.9-0.9c-0.5,0-0.9,0.2-0.9,0.8
			c-0.1,0.4-0.1,0.9-0.1,1.3c0,1.3,0,2.7,0.1,4c0,0.7,0.6,1,1.2,0.8c0.5-0.2,0.5-0.6,0.6-0.9c0-0.4,0-0.8,0-1.3c0.5,0,1,0,1.5,0
			c0.1,0.9,0.1,1.8-0.5,2.7c-0.1,0.1-0.1,0.2-0.2,0.2c-0.9,0.7-1.9,0.7-2.9,0.3c-0.9-0.3-1.3-1.1-1.3-1.9c-0.1-1.7-0.1-3.4,0-5
			s1.1-2.2,2.7-2.1c1.6,0.1,2.2,0.9,2.3,2.4C98.1,13.4,98.1,13.7,98.1,14z"/>
		<path class="st0" d="M44.9,34.8c-0.4,0-0.9,0-1.3,0c-0.1,0-0.2-0.2-0.3-0.3c-0.1-0.5-0.2-1-0.3-1.5c0-0.2-0.1-0.3-0.4-0.3
			c-0.4,0-0.8,0-1.3,0c-0.1,0.7-0.3,1.4-0.4,2.1c-0.5,0-1,0-1.5,0c0.3-1.7,0.7-3.4,1-5.1c0.2-1.2,0.5-2.4,0.7-3.5
			c0.1-0.3,0.2-0.5,0.5-0.4c0.4,0.1,1-0.1,1.2,0.1s0.2,0.8,0.3,1.2c0.5,2.5,1,5,1.5,7.6C44.9,34.7,44.9,34.7,44.9,34.8z M42.3,28.1
			L42.3,28.1c-0.3,1.2-0.5,2.3-0.7,3.5c0.4,0,0.8,0,1.3,0C42.7,30.4,42.5,29.3,42.3,28.1z"/>
		<path class="st0" d="M55.1,19.9c-0.5,0-0.9,0-1.4,0c-0.1-0.5-0.2-1.1-0.3-1.6c-0.1-0.3-0.2-0.5-0.6-0.5c-1.1,0-1.1,0-1.3,1.1
			c-0.1,0.3-0.1,0.9-0.3,1c-0.4,0.2-0.9,0.1-1.4,0.1c0.1-0.5,0.2-0.9,0.3-1.4c0.5-2.4,1-4.8,1.5-7.3c0.1-0.3,0.2-0.4,0.5-0.4
			s0.6,0,1,0c0.3,0,0.4,0.1,0.4,0.4c0.6,2.8,1.1,5.6,1.7,8.4C55.1,19.7,55.1,19.7,55.1,19.9z M52.5,13.2L52.5,13.2
			c-0.3,1.2-0.5,2.4-0.7,3.5c0.5,0,0.8,0,1.3,0C52.9,15.5,52.7,14.3,52.5,13.2z"/>
		<path class="st0" d="M48.5,47.1c0.5-0.1,0.9-0.2,1.4-0.3c0,0.2,0.1,0.4,0.1,0.5c0.1,0.3,0.2,0.6,0.3,0.9c0.2,0.3,0.6,0.4,1,0.3
			c0.4-0.1,0.5-0.4,0.5-0.7c0.1-0.6-0.2-1-0.6-1.4c-0.5-0.5-1.1-1-1.7-1.5c-0.9-0.7-1.2-1.7-0.9-2.8c0.1-0.3,0.2-0.6,0.4-0.9
			c0.7-0.8,1.6-0.9,2.6-0.7c0.9,0.2,1.3,0.9,1.5,1.7c0,0.2,0.1,0.3,0.1,0.6c-0.4,0.1-0.9,0.2-1.3,0.3c-0.1-0.3-0.1-0.6-0.2-0.9
			c-0.1-0.5-0.5-0.6-0.9-0.5s-0.6,0.3-0.7,0.8c-0.1,0.6,0.2,1,0.6,1.3c0.5,0.4,1,0.9,1.5,1.3c0.9,0.8,1.3,1.8,1.1,3
			c-0.2,0.9-0.9,1.5-1.8,1.6c-0.4,0-0.8,0-1.2-0.1c-1-0.2-1.4-1-1.6-1.9C48.6,47.6,48.6,47.4,48.5,47.1z"/>
		<path class="st0" d="M84.9,13.1c-0.4,0.1-0.9,0.2-1.3,0.3c-0.1-0.3-0.1-0.5-0.1-0.8c-0.1-0.5-0.5-0.7-0.9-0.7
			c-0.5,0.1-0.7,0.4-0.7,0.9s0.3,0.9,0.6,1.2c0.5,0.4,1,0.8,1.4,1.3c0.9,0.9,1.4,1.9,1.1,3.2c-0.2,0.8-1,1.5-1.8,1.5
			c-0.4,0-0.8,0-1.2-0.1c-1-0.2-1.8-1.5-1.6-2.4c0-0.1,0.2-0.2,0.3-0.2c0.3-0.1,0.7-0.1,1-0.1c0,0,0,0.2,0.1,0.3
			c0.1,0.3,0.2,0.7,0.3,1c0.2,0.4,0.6,0.5,0.9,0.3c0.4-0.1,0.5-0.4,0.5-0.8c0-0.5-0.2-1-0.6-1.4c-0.5-0.5-1.1-1-1.6-1.5
			c-0.9-0.7-1.1-1.7-1-2.8c0.2-1,1.2-1.7,2.4-1.6C84.1,10.8,84.9,11.7,84.9,13.1z"/>
		<path class="st0" d="M64.4,28.1c-0.4,0.1-0.9,0.2-1.3,0.3c0-0.4-0.1-0.7-0.1-1c-0.1-0.4-0.5-0.6-0.8-0.6c-0.4,0-0.7,0.3-0.7,0.7
			c-0.1,0.6,0.3,1.1,0.7,1.5c0.5,0.5,1.1,1,1.6,1.5c0.6,0.6,1,1.4,0.9,2.3c0,1.2-0.8,2-2,2.1C61.1,35,60,34.2,60,32.2
			c0.4-0.1,0.9-0.2,1.3-0.3c0.1,0.4,0.1,0.7,0.2,1c0.1,0.3,0.3,0.7,0.7,0.7c0.6,0.1,1.1-0.3,1-1c-0.1-0.5-0.3-1-0.7-1.3
			c-0.5-0.5-1.1-0.9-1.6-1.4c-0.9-0.8-1.1-1.7-0.9-2.8c0.1-0.3,0.2-0.6,0.4-0.8c0.7-0.8,1.7-0.8,2.6-0.6c0.9,0.2,1.2,0.9,1.4,1.8
			C64.4,27.7,64.4,27.8,64.4,28.1z"/>
		<path class="st0" d="M94.7,43.2c-0.1-0.4-0.1-0.7-0.2-1c-0.1-0.4-0.4-0.6-0.9-0.5c-0.4,0.1-0.7,0.3-0.7,0.7
			c-0.1,0.5,0.1,0.9,0.5,1.2c0.5,0.4,1,0.9,1.5,1.3c0.8,0.7,1.4,1.6,1.3,2.8c-0.1,1.1-0.8,1.9-1.9,2c-1.8,0.2-2.8-0.8-2.8-2.7
			c0.4-0.1,0.7-0.2,1.1-0.2c0.3-0.1,0.2,0.1,0.3,0.3c0.1,0.3,0.1,0.7,0.3,1c0.2,0.4,0.6,0.5,1,0.4s0.5-0.4,0.6-0.8
			c0-0.6-0.3-1.1-0.7-1.5c-0.5-0.5-1-0.9-1.5-1.3c-0.9-0.7-1.1-1.7-0.9-2.8c0.1-0.3,0.2-0.5,0.3-0.7c0.7-0.9,1.6-0.9,2.6-0.7
			c0.9,0.2,1.3,0.8,1.5,1.6c0,0.2,0.1,0.3,0.1,0.5c0,0.1-0.1,0.3-0.2,0.3C95.4,43.1,95.1,43.2,94.7,43.2z"/>
		<path class="st0" d="M40,19.9c0-0.2,0-0.3,0-0.5c0-2.7,0-5.4,0-8.1c0-0.4,0.1-0.5,0.5-0.5c0.7,0,1.5,0,2.2,0
			c1.4,0.1,2,0.7,2.1,2.1c0,0.4,0,0.7-0.1,1.1c-0.2,1.1-0.9,1.7-2.1,1.8c-0.2,0-0.3,0-0.5,0c-0.7,0-0.7-0.2-0.7,0.7s0,1.9,0,2.8
			c0,0.4-0.1,0.6-0.5,0.5C40.8,19.9,40.4,19.9,40,19.9z M41.6,14.7c1.5,0.2,1.9-0.2,1.8-1.6l0,0c-0.1-0.9-0.7-1.3-1.6-1
			c-0.1,0-0.2,0.2-0.2,0.2C41.6,13,41.6,13.8,41.6,14.7z"/>
		<path class="st0" d="M100.7,11.9c0,0.9,0,1.8,0,2.7c0.5,0,0.9,0,1.3,0c0.3,0,0.4,0.1,0.4,0.3l0,0c0,0.7,0,0.7-0.7,0.7
			c-1,0-1,0-1,1c0,0.6,0,1.2,0,1.8c0,0.3,0.1,0.3,0.3,0.3c0.5,0,0.9,0,1.4,0c0.3,0,0.5,0.1,0.4,0.4c0,0.2,0,0.4,0,0.6
			c-1.3,0-2.5,0-3.8,0c0-0.1,0-0.2,0-0.4c0-2.7,0-5.5,0-8.2c0-0.3,0.1-0.5,0.4-0.4c1,0,2,0,3,0c0.3,0,0.4,0.1,0.4,0.4
			c0,0.7,0.1,0.7-0.7,0.7C101.7,11.9,101.2,11.9,100.7,11.9z"/>
		<path class="st0" d="M49.4,19.9c-1.3,0-2.5,0-3.8,0c0-0.1,0-0.3,0-0.4c0-2.7,0-5.5,0-8.2c0-0.3,0.1-0.5,0.4-0.5c1,0,1.9,0,2.9,0
			c0.3,0,0.5,0.1,0.4,0.5v0.1c0,0.6,0,0.6-0.6,0.6c-0.4,0-0.8,0-1.3,0c-0.1,0-0.3,0.1-0.3,0.2c0,0.8,0,1.6,0,2.4c0.5,0,0.9,0,1.3,0
			c0.3,0,0.4,0.1,0.4,0.4c0,0.7,0,0.7-0.7,0.7c-1,0-1,0-1,1c0,0.7,0,1.4,0,2.1c0.6,0,1.1,0,1.6,0c0.6,0,0.6,0,0.6,0.6
			C49.4,19.6,49.4,19.7,49.4,19.9z"/>
		<path class="st0" d="M65,14.6c0,0.4,0,0.7,0,1.1c-0.6,0-1.1,0-1.6,0c0,1,0,2,0,3.1c0.5,0,1,0,1.5,0c0.6,0,0.6,0,0.6,0.6
			c0,0.1,0,0.3,0,0.5c-1.3,0-2.5,0-3.8,0c0-0.2,0-0.3,0-0.4c0-2.7,0-5.4,0-8.2c0-0.4,0.1-0.5,0.5-0.5c1,0,1.9,0,2.9,0
			c0.4,0,0.5,0.1,0.5,0.5c0,0.1,0,0.2,0,0.2c0.1,0.3-0.1,0.4-0.4,0.4c-0.4,0-0.9,0-1.3,0c-0.2,0-0.3,0-0.5,0c0,0.9,0,1.7,0,2.6
			C63.9,14.6,64.4,14.6,65,14.6z"/>
		<path class="st0" d="M88.4,19.9c-0.2,0-0.2,0-0.3,0c-0.4,0-0.8,0-1.3,0c0-0.2,0-0.3,0-0.5c0-2.3,0-4.6,0-6.9
			c0-0.3-0.1-0.5-0.5-0.5c-0.2,0-0.3,0-0.5,0c-0.6,0-0.6,0-0.6-0.6s0-0.6,0.6-0.6c1.1,0,2.3,0,3.5,0c0.6,0,0.6,0,0.6,0.6
			c0,0.1,0,0.2,0,0.2c0,0.2-0.1,0.3-0.3,0.3c-0.3,0-0.7,0-1,0c0,0-0.1,0-0.1,0.1C88.4,14.6,88.4,17.2,88.4,19.9z"/>
		<path class="st0" d="M71.5,40.7c1.5,0,3,0,4.5,0c0,0.1,0.1,0.1,0.1,0.1c0.1,1,0.1,1.1-0.9,1c-0.4,0-0.5,0.1-0.5,0.5
			c0,2.3,0,4.6,0,6.9c0,0.4-0.1,0.6-0.5,0.5c-0.3,0-0.7,0-1.1,0c0-0.2,0-0.4,0-0.5c0-2.3,0-4.6,0-6.9c0-0.4-0.1-0.5-0.5-0.5h-0.1
			C71.5,41.8,71.5,41.8,71.5,40.7z"/>
		<path class="st0" d="M62.4,49.7c0-0.2,0-0.3,0-0.5c0-2.3,0-4.5,0-6.8c0-0.4-0.1-0.6-0.5-0.5h-0.1c-1.1,0-1.1,0-0.9-1.1
			c1.5,0,3,0,4.6,0c0,0.3,0,0.6,0,0.9c0,0.1-0.2,0.2-0.2,0.2c-0.2,0-0.5,0-0.7,0C64.1,41.8,64,42,64,42.4c0,2.3,0,4.5,0,6.8
			c0,0.5,0,0.5-0.6,0.5c-0.3,0-0.6,0-0.8,0C62.6,49.7,62.6,49.7,62.4,49.7z"/>
		<path class="st0" d="M53.5,40.7c1.5,0,3,0,4.6,0c0,0.3,0,0.6,0,0.9c0,0.1-0.1,0.2-0.2,0.2c-0.1,0-0.2,0-0.3,0
			c-1,0-0.9-0.1-0.9,0.9c0,2,0,3.9,0,5.9c0,1.1,0,1.1-1.1,1.1c-0.2,0-0.3,0-0.5,0c0-0.2,0-0.4,0-0.5c0-2.3,0-4.6,0-6.9
			c0-0.4-0.1-0.5-0.5-0.5h-0.1C53.4,41.8,53.4,41.8,53.5,40.7z"/>
		<path class="st0" d="M67.9,34.8c-0.5,0-0.9,0-1.2,0c-0.3,0-0.3-0.1-0.3-0.4c0-0.9,0-1.7,0-2.6c0-1.5,0-2.9,0-4.4
			c0-0.6,0-0.6-0.6-0.6c-0.3,0-0.6,0-0.9,0c0-0.4,0-0.7,0-1.1c1.5,0,3,0,4.5,0c0,0.3,0,0.7,0,1.1c-0.3,0-0.6,0-1,0s-0.5,0.1-0.5,0.5
			c0,2.3,0,4.6,0,6.9C67.9,34.4,67.9,34.6,67.9,34.8z"/>
		<path class="st0" d="M34.6,101.5c0,0.5,0,1.1,0,1.6c-0.1,0.8-0.6,1.2-1.4,1.2c-1.5,0-1.9-0.4-1.9-1.9c0-0.7,0-1.5,0-2.2
			c0-1,0.5-1.5,1.5-1.5c0.2,0,0.3,0,0.5,0c0.7,0,1.2,0.5,1.3,1.2c0,0.1,0,0.2,0,0.3C34.6,100.6,34.6,101,34.6,101.5L34.6,101.5z"/>
		<path class="st0" d="M70.4,20.1c0-0.2,0-0.3,0-0.4c0-0.6,0-0.6,0.6-0.7c0.3-0.1,0.5-0.2,0.6-0.6c0-0.2,0.1-0.4,0.1-0.7
			c0-2.1,0-4.3,0-6.4c0-0.4,0.1-0.5,0.5-0.5c1.1,0,1.1,0,1.1,1.1c0,2.2,0,4.3,0,6.5c0,1.1-0.6,1.7-1.8,1.7
			C71.1,20.1,70.7,20.1,70.4,20.1z"/>
		<path class="st0" d="M40.1,40.7c0.5,0,1,0,1.6,0c0,3,0,6,0,9c-0.5,0-1,0-1.6,0C40.1,46.7,40.1,43.7,40.1,40.7z"/>
		<path class="st0" d="M92,19.9c-0.6,0-1.1,0-1.6,0c0-0.2,0-0.3,0-0.4c0-2.7,0-5.4,0-8.2c0-0.3,0.1-0.5,0.5-0.5c1.2,0,1.2,0,1.2,1.2
			c0,2.5,0,4.9,0,7.4C92,19.5,92,19.7,92,19.9z"/>
		<path class="st0" d="M58.7,49.7c0-3,0-6,0-9c0.5,0,0.9,0,1.4,0c0.1,0,0.1,0.1,0.2,0.2c0,0.1,0,0.2,0,0.3c0,2.7,0,5.4,0,8.1
			c0,0.4-0.1,0.5-0.5,0.5C59.4,49.7,59.1,49.7,58.7,49.7z"/>
		<path class="st0" d="M76.8,40.7c0.5,0,0.9,0,1.3,0c0.1,0,0.2,0.1,0.2,0.2c0,0.1,0,0.1,0,0.2c0,2.7,0,5.5,0,8.2
			c0,0.3-0.1,0.5-0.4,0.4c-0.4,0-0.7,0-1.1,0C76.8,46.7,76.8,43.7,76.8,40.7z"/>
		<path class="st0" d="M91.6,55.2c0,1.4-0.2,2.8-1.5,3.7c-0.7,0.5-1.6,0.6-2.5,0.6c-0.1,0-0.3-0.2-0.3-0.2
			C87.1,56.7,89.2,54.7,91.6,55.2z"/>
		<path class="st0" d="M81.2,64.7c-2.4-1.3-2.8-3.4-1.2-5.6C82.4,60.4,82.8,62.7,81.2,64.7z"/>
		<path class="st0" d="M83.2,55.6c2.1,1.1,2.7,2.8,1.8,4.7c-0.5,1.1-0.4,1-1.4,0.3C81.9,59.2,82,57.2,83.2,55.6z"/>
		<path class="st0" d="M86.3,63c0.8-0.9,1.6-1.6,2.9-1.6c0.8,0.1,1.5,0.5,2.2,1c0.1,0.1,0.1,0.3,0,0.3C89.9,64.5,88.1,64.7,86.3,63z
			"/>
		<path class="st0" d="M83.3,66.2c1.8-1.6,3.8-1.4,5.2,0.6C86.9,68.3,84.7,68.3,83.3,66.2z"/>
		<path class="st0" d="M67.5,18.5c0,0.6,0,1.2,0,1.7s-0.3,0.8-0.7,1.1c-0.4,0.2-0.5,0.2-0.6-0.3c0.4-0.2,0.7-0.5,0.7-1
			c-0.3,0-0.5,0-0.8-0.1c0-0.5,0-0.9,0-1.4C66.5,18.5,67,18.5,67.5,18.5z"/>
	</g>
</g>
</svg>
