<?xml version="1.0" encoding="utf-8"?>
<!-- Generator: Adobe Illustrator 24.1.2, SVG Export Plug-In . SVG Version: 6.00 Build 0)  -->
<svg version="1.1" id="Layer_1" xmlns="http://www.w3.org/2000/svg" xmlns:xlink="http://www.w3.org/1999/xlink" x="0px" y="0px"
	 viewBox="0 0 125 125" style="enable-background:new 0 0 125 125;" xml:space="preserve">
<style type="text/css">
	.st0{fill:#18486A;}
</style>
<g>
	<path class="st0" d="M72.5,109.8c-3.1,0-6.1-0.8-8.7-2.5c-0.3-0.2-0.5-0.2-0.8,0c-2.5,1.6-5.2,2.4-8.1,2.6
		c-8.2,0.4-15.3-5.3-16.9-13.3c-0.5-2.4-0.4-4.9,0.3-7.3c0.1-0.3,0.1-0.4-0.2-0.6c-3.3-2.8-5.4-6.3-5.9-10.6
		c-1.1-8.8,4.7-16.3,12.6-18.1c0.9-0.2,1.8-0.3,2.6-0.4c0.3,0,0.4-0.2,0.6-0.4c1.8-4.5,4.9-7.7,9.4-9.4c8.5-3.3,18,0.9,21.2,9.4
		c0.1,0.3,0.2,0.4,0.5,0.4c3.4,0.2,6.5,1.4,9.2,3.5c3.6,2.9,5.7,6.7,6.1,11.3c0.5,5.7-1.5,10.5-5.9,14.2c-0.2,0.2-0.3,0.3-0.2,0.6
		c1.9,7.6-1.6,15.2-8.5,18.7C77.6,109.2,75.1,109.8,72.5,109.8z M75.3,59.8c-1.8-4.3-6.6-8.4-13.1-7.8c-5.6,0.5-9.6,4.5-10.8,7.8
		C56.8,61,60.8,64,63.3,69C65.9,64,69.8,61,75.3,59.8z M47,63c-4.1,0.3-9.3,3.4-11.1,9.2c-1.7,5.5,0.6,10.9,3.8,13.5
		c2.8-4.8,7-7.7,12.5-8.5C48.2,73.2,46.5,68.6,47,63z M41.4,90.8c-1,3.7,0.1,9.7,5.2,13.4c4.8,3.4,10.7,2.8,14.1,0.6
		c-3.7-4.1-5.2-8.9-4.3-14.4C51.4,92.9,46.4,93.1,41.4,90.8z M87,85.6c3.5-2.9,5.6-8.6,3.5-14.1c-1.1-2.9-3-5.2-5.7-6.8
		c-1.6-1-3.4-1.6-5.3-1.8c0.6,5.5-1.1,10.2-5.1,14.1C80.1,77.9,84.2,80.8,87,85.6z M70.3,90.4c0.9,5.5-0.5,10.3-4.2,14.4
		c3.8,2.4,10,2.7,14.7-1.2c2.4-2,4-4.6,4.6-7.7c0.3-1.6,0.3-3.3-0.1-5C80.2,93.1,75.2,92.9,70.3,90.4z M66.5,81.8
		c3.7,7.5,12.6,8.9,17.7,5.8C80.9,80.7,72.6,78.4,66.5,81.8z M63.3,84.1c-5.3,5-5.1,13.8,0.1,18.6C68.4,98,68.7,89.4,63.3,84.1z
		 M42.5,87.6c6.4,3.5,14.7,0.6,17.6-5.7C54.1,78.6,45.8,80.9,42.5,87.6z M61.4,78c1.3-6.9-4-14.1-10.9-14.9
		C49.1,69.2,53.6,76.9,61.4,78z M65.3,78c7.8-1.1,12.2-8.8,10.9-14.9C69,64,64,71.3,65.3,78z"/>
	<path class="st0" d="M19.6,34.7c1.7-6.8,3.3-13.5,5-20.4c-2.2,0-4.3,0-6.5,0c0-1.2,0-2.3,0-3.4c3.6,0,7.2,0,10.9,0
		c0,0.2,0,0.3,0,0.5c0.2,2-0.3,3.9-0.8,5.9c-1.4,5.7-2.8,11.4-4.1,17.1c-0.1,0.3-0.2,0.4-0.5,0.4c-1.2,0-2.4,0-3.6,0
		C19.9,34.7,19.8,34.7,19.6,34.7z"/>
	<path class="st0" d="M10.9,34.7c0-6.4,0-12.7,0-19.1c-1.2,0.4-2.3,0.8-3.5,1.2c0-0.3,0-0.6,0-0.8c0-0.7,0-1.5,0-2.3
		c0-0.2,0.1-0.3,0.3-0.4c1.4-0.6,2.9-1.3,4.1-2.4c0.1-0.1,0.1-0.1,0.2-0.1c1.1,0,2.3,0,3.4,0c0,8,0,15.9,0,23.8
		C13.9,34.7,12.4,34.7,10.9,34.7z"/>
	<path class="st0" d="M83.1,19.9c0-3,0-6,0-9.1c0.5,0,1,0,1.4,0c0.1,0,0.2,0.2,0.2,0.4c0,1,0,1.9,0,2.9c0,0.2,0,0.3,0,0.5
		c0.6,0,1.2,0,1.9,0c0-1.2,0-2.5,0-3.8c0.6,0,1.1,0,1.6,0c0,3,0,6,0,9.1c-0.5,0-1,0-1.6,0c0-0.4,0-0.7,0-1.1c0-0.9,0-1.8,0-2.7
		c0-0.3-0.1-0.4-0.4-0.4c-0.4,0-0.7,0-1.1,0c-0.3,0-0.4,0.1-0.4,0.4c0,1.1,0,2.2,0,3.3c0,0.2,0,0.3,0,0.5
		C84.1,19.9,83.6,19.9,83.1,19.9z"/>
	<path class="st0" d="M63.1,25.8c0.5,0,1,0,1.6,0c0,0.2,0,0.3,0,0.5c0,1,0,1.9,0,2.9c0,0.3,0.1,0.4,0.4,0.4c0.4,0,0.7,0,1.1,0
		c0.3,0,0.4-0.1,0.4-0.4c0-1,0-1.9,0-2.9c0-0.2,0-0.3,0-0.5c0.5,0,1,0,1.6,0c0,3,0,6,0,9c-0.5,0-1,0-1.6,0c0-1.4,0-2.7,0-4.1
		c-0.6,0-1.2,0-1.9,0c0,1.4,0,2.7,0,4.1c-0.6,0-1,0-1.6,0C63.1,31.8,63.1,28.8,63.1,25.8z"/>
	<path class="st0" d="M87.2,30.3c0,0.8,0.1,1.6,0,2.4C87,34.2,86,35.1,84.4,35S82,34.1,82,32.5c-0.1-1.5-0.1-3,0-4.4
		c0.1-1.9,1.2-2.5,2.9-2.4c1.6,0.1,2.3,1,2.3,2.8C87.2,29.1,87.2,29.7,87.2,30.3L87.2,30.3z M83.6,30.2c0,0.8,0,1.6,0,2.5
		c0,0.4,0.1,0.8,0.6,1c0.7,0.2,1.3-0.1,1.3-0.9c0-0.7,0-1.4,0-2.1c0-1,0-2,0-3c0-0.7-0.5-1-1.1-0.9c-0.5,0.1-0.7,0.4-0.7,1
		C83.6,28.6,83.6,29.4,83.6,30.2z"/>
	<path class="st0" d="M55.9,19.9c-0.5,0-1,0-1.4,0c-0.1,0-0.3-0.2-0.3-0.3c-0.3-1.1-0.6-2.2-0.9-3.2c-0.2-0.6-0.2-0.6-0.9-0.6
		c0,1.4,0,2.7,0,4.1c-0.6,0-1.1,0-1.6,0c0-3,0-6,0-9.1c0.8,0,1.5,0,2.3,0c0.3,0,0.7,0.1,1,0.1c1,0.2,1.5,0.7,1.6,1.7
		c0.1,0.6-0.1,1.2-0.2,1.9c0,0.2-0.2,0.5-0.4,0.6c-0.4,0.2-0.4,0.5-0.3,0.9c0.3,1.1,0.7,2.3,1,3.4C55.8,19.6,55.8,19.7,55.9,19.9z
		 M52.4,14.7c0.6,0,1.3,0.1,1.6-0.6c0.3-0.6,0.3-1.3-0.1-1.9c-0.4-0.5-1-0.4-1.5-0.4C52.4,12.9,52.4,13.7,52.4,14.7z"/>
	<path class="st0" d="M49.3,30.3c0,0.9,0.1,1.8,0,2.7c-0.2,1.7-1.4,2.1-2.7,2c-1.6-0.1-2.3-0.8-2.4-2.5c-0.1-1.5-0.1-3,0-4.5
		c0.1-1.9,1.3-2.3,2.8-2.3c1.5,0.1,2.3,0.9,2.3,2.4C49.4,28.8,49.3,29.5,49.3,30.3L49.3,30.3z M45.8,30.3L45.8,30.3
		c0,0.9,0,1.7,0,2.5c0,0.6,0.3,0.9,0.9,0.9c0.6,0,0.9-0.3,1-0.9c0-1.7,0-3.4,0-5.1c0-0.4-0.2-0.7-0.6-0.9c-0.7-0.2-1.2,0.1-1.2,0.8
		C45.8,28.5,45.8,29.4,45.8,30.3z"/>
	<path class="st0" d="M51.9,30.7c0,1.4,0,2.7,0,4.1c-0.5,0-1.1,0-1.6,0c0-3,0-6,0-9.1c1.2,0.1,2.3,0.1,3.4,0.2
		c0.8,0.1,1.4,0.7,1.4,1.6c0.1,0.5,0,1.1,0,1.6c-0.1,0.6-0.4,1-1,1.2c0.4,1.5,0.8,3,1.2,4.5c-0.5,0-1,0-1.4,0
		c-0.1,0-0.2-0.2-0.3-0.3c-0.3-1.1-0.6-2.2-0.9-3.3C52.6,30.6,52.6,30.6,51.9,30.7z M51.9,29.6c0.6,0,1.3,0.1,1.6-0.5
		s0.3-1.3-0.1-1.9c-0.4-0.5-1-0.4-1.5-0.4C51.9,27.8,51.9,28.7,51.9,29.6z"/>
	<path class="st0" d="M71.8,10.8c1.2,0,2.4-0.1,3.6,0.2c0.7,0.2,1.1,0.7,1.2,1.3c0.1,0.7,0.1,1.4-0.1,2c-0.1,0.3-0.4,0.6-0.6,0.9
		c-0.2,0.2-0.2,0.3-0.2,0.5c0.3,1.2,0.7,2.4,1,3.6c0.1,0.2,0.1,0.3,0.1,0.5c-0.6,0-1.1,0-1.6,0c-0.2-0.8-0.4-1.7-0.7-2.5
		c-0.1-0.4-0.2-0.7-0.3-1.1c-0.2-0.6-0.2-0.6-0.9-0.5c0,1.3,0,2.7,0,4.1c-0.6,0-1.1,0-1.6,0C71.8,16.9,71.8,13.9,71.8,10.8z
		 M73.4,13.3c0,0.4,0,0.7,0,1.1c0,0.1,0.1,0.2,0.1,0.3c0.3,0.2,1.3-0.1,1.4-0.4c0.3-0.6,0.3-1.3,0.1-1.9c-0.3-0.5-0.8-0.5-1.3-0.5
		c-0.2,0-0.3,0.1-0.3,0.3C73.4,12.6,73.4,12.9,73.4,13.3z"/>
	<path class="st0" d="M64.7,10.8c0.5,0,0.9,0,1.3,0c0,3,0,6,0,9.1c-0.3,0-0.6,0-0.9,0c-0.1,0-0.2-0.2-0.3-0.3
		c-0.6-1.5-1.3-3-1.9-4.5c-0.1-0.1-0.1-0.2-0.2-0.4c0,1.7,0,3.4,0,5.2c-0.5,0-0.9,0-1.4,0c0-3,0-6,0-9.1c0.3,0,0.6,0,1,0
		c0.1,0,0.2,0.2,0.3,0.3c0.6,1.4,1.2,2.8,1.8,4.2c0.1,0.1,0.1,0.2,0.2,0.4C64.7,14.1,64.7,12.5,64.7,10.8z"/>
	<path class="st0" d="M81.1,28.7c-0.5,0-1,0-1.5,0c0-0.4-0.1-0.7-0.1-1.1c-0.1-0.5-0.3-0.8-0.8-0.8s-0.9,0.2-0.9,0.7
		c-0.1,0.5-0.1,1-0.1,1.5c0,1.3,0,2.6,0.1,3.8c0.1,0.7,0.7,1.1,1.3,0.8c0.4-0.2,0.5-0.6,0.6-1c0-0.4,0-0.9,0-1.3
		c-0.3,0-0.6,0-0.9-0.1c0-0.3,0-0.6,0-1c0.8,0,1.6,0,2.4,0c0,1.5,0,3,0,4.5c-0.3,0-0.7,0-1,0c-0.1-0.2-0.1-0.5-0.2-0.8
		c-0.4,0.9-1.1,1.1-1.9,1c-1.1-0.1-1.7-0.6-1.9-1.7C76.1,32.8,76,32.4,76,32c0-1.4,0-2.8,0.1-4.2c0.2-1.8,1.2-2.3,2.8-2.2
		C80.4,25.7,81.2,26.5,81.1,28.7z"/>
	<path class="st0" d="M50.1,19.9c-0.5,0-1,0-1.5,0c-0.1-0.6-0.2-1.1-0.3-1.7c0-0.3-0.1-0.4-0.5-0.4c-0.3,0-0.6,0-0.9,0
		c-0.3,0-0.4,0.1-0.4,0.4c-0.1,0.6-0.2,1.1-0.3,1.7c-0.5,0-1,0-1.5,0c0.2-1,0.4-2,0.6-3.1c0.4-1.9,0.8-3.8,1.1-5.6
		c0.1-0.3,0.2-0.5,0.5-0.4c0.4,0,1-0.1,1.2,0.1c0.3,0.2,0.2,0.8,0.3,1.2c0.5,2.6,1,5.1,1.5,7.7C50.1,19.8,50.1,19.8,50.1,19.9z
		 M48,16.7c-0.2-1.2-0.4-2.4-0.6-3.5h-0.1c-0.2,1.2-0.4,2.3-0.6,3.5C47.2,16.7,47.6,16.7,48,16.7z"/>
	<path class="st0" d="M93.1,34.8c-0.5,0-1,0-1.5,0c-0.1-0.7-0.2-1.4-0.4-2c-0.5,0-1,0-1.6,0c-0.1,0.6-0.2,1.2-0.3,1.8
		c0,0.2-0.1,0.3-0.4,0.3c-0.4,0-0.8,0-1.2,0c0.1-0.6,0.2-1.2,0.4-1.9c0.5-2.3,0.9-4.6,1.4-6.9c0.1-0.3,0.2-0.4,0.4-0.3
		c0.4,0,0.9,0,1.4,0C91.8,28.8,92.4,31.8,93.1,34.8z M91,31.6c-0.2-1.2-0.4-2.3-0.6-3.5h-0.1c-0.2,1.1-0.4,2.3-0.6,3.5
		C90.2,31.6,90.5,31.6,91,31.6z"/>
	<path class="st0" d="M92.3,10.7c1.2,0.1,2.3,0.1,3.5,0.2c0.7,0.1,1.2,0.7,1.3,1.4c0.1,0.5,0.1,1.1,0.1,1.6
		c-0.1,1.1-0.9,1.8-2.1,1.8c-0.4,0-0.7,0-1.2,0c0,1.4,0,2.7,0,4.1c-0.6,0-1.1,0-1.6,0C92.3,16.9,92.3,13.9,92.3,10.7z M93.9,14.7
		c0.6,0,1.3,0.2,1.6-0.5c0.3-0.6,0.3-1.4-0.1-2c-0.4-0.5-1-0.3-1.5-0.3C93.9,12.9,93.9,13.8,93.9,14.7z"/>
	<path class="st0" d="M41.6,15.8c0,1.4,0,2.7,0,4c-0.5,0-1,0-1.6,0c0-3,0-6,0-9.1c1.1,0.1,2.3,0,3.4,0.2c0.9,0.1,1.4,0.9,1.5,2V13
		c0.1,2-0.7,2.8-2.7,2.8C42,15.8,41.9,15.8,41.6,15.8z M41.6,14.7c0.6,0,1.2,0.2,1.5-0.4c0.3-0.6,0.3-1.4,0-1.9
		c-0.3-0.6-1-0.3-1.5-0.3C41.6,12.9,41.6,13.7,41.6,14.7z"/>
	<path class="st0" d="M99.2,31.9c0.1,0.3,0.1,0.5,0.1,0.8c0.1,0.2,0.2,0.5,0.3,0.7c0.2,0.3,0.6,0.4,0.9,0.3c0.3-0.1,0.5-0.4,0.5-0.7
		c0.1-0.6-0.2-1.1-0.7-1.5c-0.5-0.5-1.1-0.9-1.6-1.4c-0.9-0.7-1.1-1.7-0.9-2.7c0.2-1.1,1.3-1.8,2.6-1.7c1.2,0.1,1.8,0.8,2,2.2
		c0,0.1-0.1,0.3-0.2,0.3c-0.4,0.1-0.7,0.2-1.1,0.2c-0.1-0.3-0.1-0.6-0.2-0.9c-0.1-0.4-0.5-0.6-0.8-0.6c-0.4,0.1-0.7,0.3-0.7,0.8
		c0,0.4,0.1,0.8,0.4,1.1c0.5,0.5,1,0.9,1.5,1.3c0.8,0.7,1.4,1.6,1.3,2.7c-0.1,1.3-1,2.3-2.4,2.2c-1.5-0.1-2.3-1-2.4-2.5
		c0-0.2,0.1-0.3,0.3-0.4C98.5,32,98.8,32,99.2,31.9z"/>
	<path class="st0" d="M82.1,13.1c-0.5,0.1-0.9,0.2-1.4,0.3c-0.1-0.3-0.1-0.6-0.2-0.9c-0.1-0.4-0.5-0.6-0.9-0.6
		c-0.4,0.1-0.7,0.3-0.7,0.8s0.1,0.8,0.5,1.1c0.5,0.5,1,0.9,1.5,1.3c0.8,0.7,1.3,1.5,1.3,2.7c0,1.2-0.9,2.1-2.1,2.2
		c-1.6,0.1-2.6-0.8-2.7-2.4c0-0.2,0-0.4,0.3-0.4c0.3-0.1,0.7-0.1,1.1-0.2c0,0.2,0,0.4,0.1,0.6c0.1,0.3,0.2,0.6,0.3,0.9
		c0.2,0.3,0.5,0.4,0.9,0.3c0.3-0.1,0.5-0.3,0.5-0.6c0.1-0.7-0.2-1.2-0.7-1.7s-1.1-0.9-1.6-1.4c-0.8-0.7-1.1-1.7-0.9-2.8
		c0.1-0.7,0.6-1.2,1.2-1.4s1.2-0.2,1.8-0.1c0.9,0.2,1.2,0.9,1.4,1.7C82.1,12.7,82.1,12.9,82.1,13.1z"/>
	<path class="st0" d="M97.6,17.3c0.4-0.1,0.9-0.2,1.4-0.3c0.1,0.3,0.1,0.6,0.2,0.9c0.1,0.2,0.1,0.4,0.2,0.6c0.2,0.3,0.5,0.4,0.9,0.3
		s0.5-0.4,0.5-0.7c0.1-0.6-0.2-1.2-0.7-1.6c-0.5-0.5-1-0.9-1.6-1.4c-0.9-0.8-1.1-1.8-0.9-2.9c0.2-0.8,0.7-1.2,1.5-1.4
		c0.2-0.1,0.4-0.1,0.6-0.1c1.5-0.1,2.4,0.9,2.4,2.4c-0.4,0.1-0.9,0.2-1.3,0.3c-0.1-0.3-0.1-0.7-0.2-1c-0.1-0.4-0.4-0.6-0.8-0.5
		c-0.4,0-0.7,0.3-0.7,0.7c-0.1,0.5,0.1,0.9,0.4,1.2c0.5,0.5,1,0.9,1.5,1.3c0.9,0.7,1.4,1.6,1.3,2.8c-0.1,1.1-0.9,1.9-1.9,2
		C98.6,20.1,97.6,19.2,97.6,17.3z"/>
	<path class="st0" d="M71,19.9c-1.2,0-2.5,0-3.8,0c0-3,0-6,0-9c0.1,0,0.1-0.1,0.2-0.1c1.1,0,2.2,0,3.3,0c0.2,0,0.3,0.1,0.3,0.3
		c0,0.9,0,0.9-0.9,0.9c-0.4,0-0.9,0-1.3,0c0,0.9,0,1.7,0,2.6c0.5,0,1.1,0,1.6,0c0,0.4,0,0.7,0,1.1c-0.5,0-1.1,0-1.6,0c0,1,0,2,0,3
		c0.7,0,1.4,0,2.1,0C71,19.2,71,19.5,71,19.9z"/>
	<path class="st0" d="M70.9,29.5c0.6,0,1.1,0,1.7,0c0,0.3,0,0.6,0,0.9c0,0.1-0.2,0.2-0.3,0.2c-0.4,0-0.7,0-1.1,0
		c-0.2,0-0.3,0.1-0.3,0.3c0,0.8,0,1.6,0,2.4c0,0.2,0.1,0.3,0.3,0.3c0.6,0,1.2,0,1.8,0c0,0.4,0,0.7,0,1.1c-1.2,0-2.5,0-3.8,0
		c0-3,0-6,0-9c1.2,0,2.5,0,3.8,0c0,0.3,0,0.7,0,1.1c-0.7,0-1.4,0-2.1,0C70.9,27.8,70.9,28.6,70.9,29.5z"/>
	<path class="st0" d="M41.6,30.7c0,1.4,0,2.8,0,4.1c-0.6,0-1.1,0-1.6,0c0-3,0-6,0-9c0.5,0,0.9,0,1.3,0c0.7,0,1.3,0,2,0
		c0.3,0,0.4,0.1,0.4,0.4c0,0.8,0.1,0.7-0.7,0.7c-0.4,0-0.7,0-1.1,0c-0.1,0-0.3,0.1-0.3,0.2c0,0.8,0,1.6,0,2.4c0.5,0,0.9,0,1.3,0
		c0.3,0,0.4,0.1,0.4,0.4c0,0.2,0,0.5,0,0.8C42.7,30.7,42.2,30.7,41.6,30.7z"/>
	<path class="st0" d="M59.3,19.9c-0.6,0-1.1,0-1.6,0c0-0.2,0-0.3,0-0.5c0-2.3,0-4.6,0-6.9c0-0.5,0-0.5-0.6-0.5c-0.3,0-0.6,0-1,0
		c0-0.3,0-0.7,0-1c0-0.1,0.2-0.2,0.2-0.2c1.4,0,2.7,0,4.1,0c0.1,0,0.2,0.1,0.2,0.2c0,0.3,0,0.6,0,1c-0.5,0-0.9,0-1.4,0
		C59.3,14.6,59.3,17.3,59.3,19.9z"/>
	<path class="st0" d="M58,26.9c0-0.4,0-0.8,0-1.1c0.1,0,0.3,0,0.4,0c1.3,0,2.5,0,3.8,0c0.4,0,0.5,0.1,0.5,0.5c0,0.2,0,0.4,0,0.7
		c-0.4,0-0.7,0-1,0c-0.4,0-0.5,0.1-0.5,0.5c0,2.3,0,4.6,0,6.9c0,0.2,0,0.3,0,0.5c-0.6,0-1.1,0-1.6,0c0-0.2,0-0.3,0-0.5
		c0-2.3,0-4.5,0-6.8c0-0.7,0.1-0.6-0.6-0.6C58.6,26.9,58.3,26.9,58,26.9z"/>
	<path class="st0" d="M93.7,34.8c0-3,0-6,0-9c0.5,0,1,0,1.6,0c0,2.6,0,5.2,0,7.9c0.8,0,1.5,0,2.2,0c0,0.4,0,0.7,0,1.1
		C96.2,34.8,95,34.8,93.7,34.8z"/>
	<path class="st0" d="M89.5,10.8c0.5,0,1.1,0,1.6,0c0,3,0,6,0,9.1c-0.5,0-1.1,0-1.6,0C89.5,16.9,89.5,13.9,89.5,10.8z"/>
</g>
</svg>
