<?xml version="1.0" encoding="utf-8"?>
<!-- Generator: Adobe Illustrator 25.0.1, SVG Export Plug-In . SVG Version: 6.00 Build 0)  -->
<svg version="1.1" id="Layer_1" xmlns="http://www.w3.org/2000/svg" xmlns:xlink="http://www.w3.org/1999/xlink" x="0px" y="0px"
	 viewBox="0 0 125 125" style="enable-background:new 0 0 125 125;" xml:space="preserve">
<style type="text/css">
	.st0{fill:#D2D1D3;}
</style>
<g>
	<g>
		<path class="st0" d="M60.8,80.5c10.8,0,21.5,0,32.3,0c0.1,0,0.2,0,0.4,0c1,0,1.3,0.3,1.1,1.3c-0.9,4.7-2.7,9-5.7,12.8
			c-4.2,5.5-9.6,9.3-16.1,11.5c-0.5,0.2-0.7,0.3-0.6,0.8c0.1,0.4,0,0.8,0,1.2c0,0.7-0.3,0.9-0.9,1c-1.2,0-2.5,0-3.8,0
			c-5.5,0-11.1,0-16.6,0c-0.9,0-1.2-0.2-1.2-1.1c0-0.4,0-0.7,0-1.1c0-0.3-0.1-0.4-0.4-0.5c-3.1-1-6-2.3-8.7-4.2
			c-7-4.7-11.7-11-13.6-19.3c-0.1-0.5-0.2-0.9-0.3-1.4c-0.1-0.6,0.2-1,0.8-1c0.2,0,0.4,0,0.6,0C39.1,80.5,50,80.5,60.8,80.5z"/>
		<path class="st0" d="M15.2,31.1c0.2,0,0.4,0,0.6,0c2,0,4,0,6,0c0.4,0,0.5,0.1,0.5,0.5c0,0.9,0,1.7,0,2.6c0,0.3-0.1,0.5-0.4,0.5
			c-3.8,0-7.6,0-11.3,0c-0.4,0-0.5-0.1-0.4-0.5c0-0.1,0-0.1,0-0.2c0-0.9-0.2-1.7,0.1-2.5c0.2-0.8,0.8-1.4,1.3-2.1
			c1.9-2.9,3.8-5.9,5.7-8.8c0.8-1.2,1.4-2.5,1.3-4c0-0.2,0-0.5-0.1-0.7c-0.2-0.9-0.7-1.4-1.5-1.5c-0.9-0.1-1.6,0.3-2,1.2
			s-0.4,1.9-0.4,2.9c0,0.6,0,0.6-0.6,0.6c-1.1,0-2.3,0-3.4,0c-0.3,0-0.5-0.1-0.4-0.4c0.1-1.1,0.1-2.3,0.3-3.4c0.7-3,2.7-4.6,5.7-4.6
			c0.9,0,1.8,0.1,2.7,0.3c2.2,0.5,3.6,2.3,4,4.6c0.3,2.3-0.2,4.3-1.4,6.2c-1.3,2-2.6,4-3.9,6c-0.7,1-1.3,2-2,3
			C15.3,30.8,15.3,30.9,15.2,31.1z"/>
		<path class="st0" d="M74.6,77.8c0.2-0.8,0.4-1.6,0.4-2.4c0.1-2.1-0.7-3.8-2-5.4c-0.5-0.7-1.1-1.3-1.6-2c-2.1-3-2.5-6.2-1.7-9.7
			c0.5-2.1,1.3-4,2.5-5.8c0.6-1,1.8-1.3,2.9-0.9s1.4,1.5,0.8,2.6c-1.5,2.4-2.5,5-2.3,7.9c0.1,2,0.9,3.6,2.2,5.1
			c1.5,1.6,2.6,3.5,3.1,5.6c0.4,1.5,0.3,3.1,0,4.6c-0.1,0.2-0.1,0.4-0.4,0.4C77.2,77.8,75.9,77.8,74.6,77.8L74.6,77.8z"/>
		<path class="st0" d="M61.3,77.8c0.2-0.6,0.3-1.1,0.4-1.7c0.3-2-0.3-3.9-1.4-5.5c-0.5-0.7-1.1-1.3-1.6-1.9c-2-2.5-2.8-5.4-2.5-8.6
			c0.3-2.8,1.3-5.3,2.8-7.6c0.6-1,1.9-1.3,3-0.8c1,0.5,1.3,1.5,0.7,2.5c-1.2,1.8-2,3.8-2.2,6c-0.3,2.6,0.3,5,2.1,7
			c1.6,1.8,2.9,3.8,3.3,6.2c0.2,1.4,0.2,2.7-0.2,4.1c0,0.1-0.2,0.4-0.3,0.4C64,77.8,62.7,77.8,61.3,77.8z"/>
		<path class="st0" d="M48.2,77.8c0.2-0.9,0.4-1.7,0.4-2.6c0.1-2.1-0.8-3.9-2.2-5.4c-0.9-1.1-1.8-2.1-2.4-3.4
			c-1.4-2.9-1.4-5.9-0.6-8.9c0.5-1.8,1.3-3.5,2.3-5.1c0.6-1,1.8-1.3,2.9-0.8c1.1,0.5,1.4,1.5,0.7,2.5C48,56.2,47.1,58.5,47,61
			c-0.1,2.3,0.6,4.3,2.2,6.1c1.3,1.4,2.4,3,3,4.9c0.6,1.8,0.6,3.5,0.2,5.3c-0.1,0.3-0.2,0.5-0.6,0.5c-1.1,0-2.3,0-3.5,0
			C48.4,77.8,48.3,77.8,48.2,77.8z"/>
		<path class="st0" d="M38.1,30.3c0,1.4,0,2.7,0,4.1c0,0.3-0.1,0.4-0.4,0.4c-1.2,0-1.2,0-1.2-1.2c0-0.8,0-1.7,0-2.5
			c0-0.3-0.1-0.4-0.4-0.4c-0.3,0-0.7,0-1,0c-0.4,0-0.5,0.1-0.5,0.5c0,1.1,0,2.1,0,3.2c0,0.3-0.1,0.5-0.5,0.5c-1.2,0-1.2,0-1.2-1.2
			c0-2.5,0-4.9,0-7.4c0-0.4,0.1-0.5,0.5-0.5c1.1,0,1.1,0,1.1,1.1c0,0.8,0,1.5,0,2.3c0,0.3,0.1,0.4,0.4,0.4c0.3,0,0.7,0,1,0
			c0.4,0,0.5-0.1,0.5-0.5c0-1,0-1.9,0-2.9c0-0.3,0.1-0.4,0.4-0.4c1.2,0,1.2,0,1.2,1.2C38.1,28.1,38.1,29.2,38.1,30.3z"/>
		<path class="st0" d="M67.9,34.8c-0.5,0-1,0-1.4,0c-0.1,0-0.3-0.2-0.3-0.3c-0.3-1.1-0.6-2.3-0.9-3.5c-0.1-0.2-0.2-0.3-0.4-0.3
			c-0.3,0-0.5,0.1-0.5,0.4c0,1.1,0,2.2,0,3.2c0,0.4-0.1,0.5-0.5,0.5c-1.2,0-1.2,0-1.2-1.2c0-2.5,0-4.9,0-7.4c0-0.4,0.1-0.6,0.5-0.5
			c0.9,0.1,1.8,0,2.7,0.1c1.1,0.2,1.7,0.9,1.7,2c0,0.4,0,0.9-0.1,1.3s-0.3,0.8-0.7,1c-0.3,0.1-0.2,0.3-0.2,0.6
			c0.3,1.2,0.7,2.3,1,3.5C67.8,34.4,67.8,34.6,67.9,34.8z M64.4,28.2c0,0.4,0,0.7,0,1.1c0,0.1,0.1,0.3,0.2,0.3
			c0.8,0.2,1.5-0.3,1.6-1.1c0-0.2,0-0.3,0-0.5c0-1-0.7-1.2-1.6-1.1c-0.1,0-0.2,0.2-0.2,0.3C64.4,27.5,64.4,27.8,64.4,28.2z"/>
		<path class="st0" d="M53.7,15.4c-0.1,0.9,0,1.8-0.2,2.7c-0.2,1.2-1,1.8-2.2,1.9c-0.3,0-0.7,0-1,0c-1-0.2-1.7-0.9-1.8-2
			c-0.1-0.5-0.1-0.9-0.1-1.4c0-1.3,0-2.5,0.1-3.8s0.8-1.9,2-2.1c0.5-0.1,1,0,1.4,0.1c1,0.2,1.6,1,1.6,2.2
			C53.7,13.8,53.6,14.6,53.7,15.4L53.7,15.4z M52,15.4L52,15.4c0-0.7,0-1.4,0-2.2c0-0.2,0-0.5-0.1-0.7c-0.1-0.4-0.4-0.6-0.8-0.6
			c-0.6,0-1,0.2-1,0.9c-0.1,1.6,0,3.2-0.1,4.8c0,0.2,0,0.4,0.1,0.6c0.1,0.3,0.3,0.6,0.6,0.6c0.7,0.2,1.2-0.2,1.2-1
			C52,17,52,16.2,52,15.4z"/>
		<path class="st0" d="M49.1,30.6c0-0.4,0-0.7,0-1.1c0-1.1,0-2.2,0-3.3c0-0.1,0-0.2,0-0.3c0.3-0.4,0.7-0.1,1-0.2
			c0.1,0,0.2,0.2,0.3,0.3c0,0.1,0,0.2,0,0.2c0,2.7,0,5.4,0,8c0,0.2-0.1,0.5-0.2,0.5c-0.5,0.2-0.9,0-1-0.3c-0.6-1.4-1.2-2.8-1.7-4.2
			c-0.1-0.2-0.2-0.4-0.3-0.6h-0.1c0,0.1,0,0.3,0,0.4c0,1.4,0,2.8,0,4.3c0,0.3-0.1,0.5-0.5,0.5c-1.1,0-0.9,0.1-0.9-0.9
			c0-2.5,0-5.1,0-7.6c0-0.2-0.1-0.5,0.2-0.5c0.5-0.1,0.9,0,1,0.3c0.6,1.4,1.2,2.8,1.8,4.2C48.9,30.4,48.9,30.5,49.1,30.6
			C49,30.6,49.1,30.6,49.1,30.6z"/>
		<path class="st0" d="M47.5,19.9c-0.5,0-1,0-1.5,0c-0.1,0-0.2-0.2-0.3-0.4c-0.3-1.1-0.6-2.2-0.9-3.3c-0.1-0.2-0.1-0.4-0.4-0.4
			c-0.3,0-0.5,0.1-0.5,0.5c0,1.1,0,2.2,0,3.2c0,0.3-0.1,0.5-0.5,0.5c-1.1,0-1.1,0-1.1-1.1c0-2.5,0-5,0-7.5c0-0.4,0.1-0.6,0.5-0.5
			c0.9,0.1,1.9,0,2.8,0.2c1.1,0.2,1.6,0.9,1.6,1.9c0,0.5,0,1-0.1,1.4s-0.4,0.7-0.7,1c-0.2,0.2-0.3,0.3-0.2,0.6
			c0.3,1.2,0.7,2.3,1,3.5C47.4,19.5,47.4,19.7,47.5,19.9z M44.5,14.7c0,0,0,0.1,0.1,0.1c0.3-0.2,0.8-0.2,1-0.5
			c0.4-0.6,0.4-1.2,0.1-1.9c-0.2-0.5-0.8-0.5-1.3-0.5c-0.3,0-0.4,0.1-0.4,0.4c0,0.7,0,1.3,0,2C44,14.6,44.1,14.8,44.5,14.7z"/>
		<path class="st0" d="M42.9,29.3c0-1.1,0-2.1,0-3.2c0-0.3,0.1-0.4,0.4-0.4c1.2,0,1.2,0,1.2,1.2c0,1.6,0,3.3,0,4.9
			c0,0.4,0,0.7-0.1,1.1c-0.3,1.5-1.1,2.1-2.6,2c-1.6-0.1-2.2-0.7-2.4-2.2c0-0.3-0.1-0.5-0.1-0.8c0-1.9,0-3.8,0-5.7
			c0-0.3,0.1-0.5,0.4-0.5c1.1,0,1.1,0,1.1,1.1c0,1.6,0,3.2,0,4.8c0,0.4,0,0.8,0.1,1.2c0.1,0.5,0.4,0.8,0.9,0.8
			c0.4,0,0.7-0.2,0.9-0.7c0.1-0.3,0.1-0.6,0.1-1C42.9,31.1,42.9,30.2,42.9,29.3z"/>
		<path class="st0" d="M55.7,34.1c-0.6,0.9-1.4,1-2.2,0.8c-0.6-0.1-1.1-0.4-1.3-1c-0.2-0.5-0.4-1-0.4-1.5c-0.1-1.4,0-2.8,0-4.3
			c0-0.2,0.1-0.5,0.1-0.7c0.3-1.1,0.9-1.6,2-1.7c0.4,0,0.9,0,1.3,0c1,0.2,1.5,0.8,1.7,1.9c0.1,1.1,0.1,1.1-0.9,1.1
			c-0.6,0-0.6,0-0.6-0.6c0-0.2,0-0.3,0-0.5c-0.1-0.5-0.3-0.8-0.9-0.8c-0.5,0-0.8,0.2-0.9,0.7c-0.1,0.2-0.1,0.4-0.1,0.7
			c0,1.4,0,2.7,0,4.1c0,0.3,0,0.5,0.1,0.8c0.1,0.5,0.4,0.7,0.8,0.7c0.4,0,0.8-0.2,0.9-0.6c0.1-0.5,0.1-1.1,0.2-1.6
			c0-0.1-0.2-0.2-0.3-0.2c-0.7-0.1-0.7-0.1-0.6-0.7c0-0.1,0.2-0.3,0.3-0.3c0.6,0,1.2,0,1.8,0c0.2,0,0.3,0.1,0.3,0.3c0,1.3,0,2.6,0,4
			c0,0.2-0.1,0.3-0.3,0.3c-0.1,0-0.2,0-0.3,0c-0.3,0-0.5-0.1-0.5-0.4C55.7,34.3,55.7,34.2,55.7,34.1z"/>
		<path class="st0" d="M37.6,15.3c0-1.4,0-2.7,0-4c0-0.4,0.1-0.5,0.5-0.5c1,0,1.9,0,2.9,0c0.3,0,0.5,0.1,0.5,0.5
			c0,0.7,0,0.7-0.7,0.7c-0.4,0-0.7,0-1.1,0c-0.2,0-0.3,0.1-0.3,0.3c0,0.7,0,1.3,0,2c0,0.2,0.1,0.3,0.3,0.3c0.4,0,0.7,0,1.1,0
			c0.2,0,0.3,0.1,0.3,0.3c0,1,0.1,0.8-0.8,0.9c-1.1,0-0.9-0.2-0.9,1c0,0.6,0,1.1,0,1.7c0,0.3,0.1,0.4,0.4,0.4c0.5,0,1,0,1.5,0
			c0.3,0,0.4,0.1,0.4,0.4c0,0.1,0,0.2,0,0.3c0,0.3-0.1,0.4-0.4,0.4c-1,0-2,0-3,0c-0.3,0-0.4-0.1-0.4-0.4
			C37.6,18.1,37.6,16.7,37.6,15.3z"/>
		<path class="st0" d="M58,30.3c0-1.4,0-2.7,0-4c0-0.4,0.1-0.5,0.5-0.5c0.9,0,1.9,0,2.8,0c0.4,0,0.5,0.1,0.5,0.5c0,0.1,0,0.2,0,0.2
			c0,0.3-0.1,0.4-0.4,0.4c-0.5,0-0.9,0-1.4,0c-0.3,0-0.4,0.1-0.4,0.4c0,0.6,0,1.2,0,1.9c0,0.3,0.1,0.4,0.4,0.4c0.3,0,0.7,0,1,0
			s0.4,0.1,0.4,0.4c0,0.8,0,0.8-0.8,0.8c-1.1,0-1-0.1-1,1c0,0.6,0,1.1,0,1.7c0,0.3,0.1,0.4,0.4,0.4c0.5,0,0.9,0,1.4,0
			c0.3,0,0.4,0.1,0.4,0.4l0,0c0,0.7,0,0.7-0.7,0.7c-0.9,0-1.7,0-2.6,0c-0.6,0-0.6,0-0.6-0.6C58,32.9,58,31.6,58,30.3z"/>
		<path class="st0" d="M35,11.9c-0.7,0-1.2,0-1.8,0c-0.5,0-0.4-0.3-0.5-0.6c0-0.3,0-0.6,0.4-0.6c1,0,2.1,0,3.1,0
			c0.3,0,0.5,0.1,0.4,0.5c0,0.2-0.1,0.5-0.1,0.7c-0.7,2.1-1.5,4.2-2.2,6.4c-0.1,0.1-0.1,0.3-0.2,0.5c0.3,0,0.6,0,0.9,0
			c0.5,0,0.9,0,1.3,0c0.2,0,0.3,0.1,0.3,0.3c0,0.9,0.1,0.8-0.7,0.8c-1,0-2,0-3,0c-0.3,0-0.5-0.1-0.4-0.4c0.1-0.4,0.1-0.8,0.2-1.2
			c0.7-2,1.4-3.9,2.1-5.9C34.9,12.3,34.9,12.1,35,11.9z"/>
	</g>
</g>
</svg>
