<?xml version="1.0" encoding="utf-8"?>
<!-- Generator: Adobe Illustrator 25.0.1, SVG Export Plug-In . SVG Version: 6.00 Build 0)  -->
<svg version="1.1" id="Layer_1" xmlns="http://www.w3.org/2000/svg" xmlns:xlink="http://www.w3.org/1999/xlink" x="0px" y="0px"
	 viewBox="0 0 125 125" style="enable-background:new 0 0 125 125;" xml:space="preserve">
<style type="text/css">
	.st0{fill:#D2D1D3;}
</style>
<g>
	<g>
		<path class="st0" d="M84.5,52.5c-0.1,0.2-0.2,0.4-0.2,0.6c-3.8,12.7-7.7,25.5-11.5,38.2c-1.4,4.5-2.7,9-4.1,13.6
			c-0.3,0.9-0.7,1.2-1.5,1.2c-0.6,0-1.2-0.4-1.3-1c-0.2-1.2-0.5-2.5-0.7-3.7c-0.4-2.5-0.9-5-1.3-7.5c-0.5-2.7-0.9-5.4-1.4-8.1
			c-0.4-2.2-0.8-4.5-1.2-6.7c0,0,0-0.1-0.1-0.2c-0.1,0.2-0.2,0.3-0.3,0.4c-2.1,3.9-4.2,7.9-6.4,11.8c-0.2,0.4-0.5,0.8-1,1
			C53,92.3,52.1,91.9,52,91c-0.2-1.3-0.4-2.7-0.6-4c-0.3-1.9-0.5-3.7-0.8-5.6c-0.2-1.6-0.5-3.3-0.7-4.9c-0.3-1.8-0.5-3.6-0.8-5.4
			c0-0.1-0.1-0.2-0.1-0.3c-0.1,0.2-0.2,0.3-0.2,0.5c-1.7,3.7-3.3,7.4-5,11.2c-0.3,0.7-0.9,1-1.6,1c-6.7,0-13.4,0-20,0
			c-1,0-1.6-0.5-1.6-1.4s0.6-1.5,1.4-1.5c0.1,0,0.2,0,0.3,0c6.2,0,12.4,0,18.7,0c0.4,0,0.6-0.1,0.8-0.5c2.2-5,4.4-9.9,6.6-14.9
			c0.2-0.5,0.6-1,1.2-1c0.8-0.1,1.5,0.4,1.6,1.2c0.3,2.2,0.6,4.4,0.9,6.6c0.3,2,0.6,4.1,0.9,6.1c0.3,2,0.6,4.1,0.9,6.1
			c0.1,0.6,0.2,1.2,0.3,2c0.2-0.2,0.2-0.4,0.3-0.5c2.1-3.9,4.2-7.8,6.3-11.8c0.3-0.5,0.6-0.8,1.2-0.9c0.8-0.1,1.4,0.4,1.5,1.1
			c0.3,1.6,0.6,3.2,0.8,4.7c0.5,2.7,0.9,5.3,1.4,8c0.5,2.8,1,5.7,1.5,8.5c0.1,0.9,0.3,1.7,0.4,2.5c0,0.1,0.1,0.2,0.1,0.3
			c0.1-0.2,0.2-0.4,0.2-0.6c2.5-8.4,5.1-16.9,7.6-25.3c2.4-8,4.8-16.1,7.3-24.1c0.3-1,1.1-1.5,1.9-1.1c0.3,0.2,0.7,0.5,0.8,0.8
			c1.6,3.2,3.1,6.4,4.7,9.7c1,2.1,2,4.2,3,6.3c0.1,0.3,0.3,0.5,0.3,0.8c0.1,0.7-0.3,1.4-0.9,1.6c-0.7,0.2-1.4-0.1-1.7-0.8
			c-0.5-1-1-2.1-1.5-3.1c-1.5-3.2-3.1-6.4-4.6-9.6C84.7,52.8,84.6,52.7,84.5,52.5z"/>
		<path class="st0" d="M94.2,91.6c-0.1-0.1-0.2-0.2-0.3-0.3c-2.8-2.8-5.6-5.6-8.4-8.4c-1.3-1.3-2-2.9-2-4.8c0.1-2.4,0.9-4.3,3.1-5.6
			c1.8-1,3.5-1,5.2,0.3c0.8,0.6,1.6,1.3,2.4,2c0.1-0.1,0.2-0.2,0.3-0.3c0.8-0.6,1.5-1.3,2.3-1.9c2.1-1.5,4.6-0.6,5.9,0.7
			c1.5,1.4,2,3.2,1.9,5.2c-0.1,1.6-0.7,3.1-1.8,4.3c-2.8,2.9-5.7,5.7-8.6,8.6C94.4,91.5,94.3,91.6,94.2,91.6z"/>
		<path class="st0" d="M19.7,22.1c0.1,0,0.1,0.1,0.1,0.1c1.5,0.7,2.3,1.9,2.6,3.4c0.4,2.1,0.3,4.2-0.5,6.2c-0.8,1.9-2.2,2.9-4.3,3.2
			c-1.3,0.2-2.6,0.1-3.8-0.2c-2-0.6-3.2-2-3.6-4c-0.2-1.1-0.2-2.3-0.4-3.4c0-0.3,0.1-0.3,0.3-0.3c1.2,0,2.5,0,3.8,0
			c0.3,0,0.3,0.1,0.4,0.4c0.1,0.8,0.1,1.6,0.3,2.4c0.3,1.3,1.3,1.6,2.3,1.4c0.5-0.1,0.9-0.5,1-1c0.4-1.5,0.4-3.1,0-4.6
			c-0.3-1.1-1.1-1.6-2.3-1.6c-0.9,0-0.9,0-0.9-0.9c0-0.7,0-1.3,0-2c0-0.3,0.1-0.4,0.4-0.4c0.3,0,0.7,0,1-0.1c1-0.1,1.6-0.7,1.8-1.7
			c0.3-1.1,0.3-2.3,0-3.4c-0.3-1.2-1.2-1.7-2.3-1.4c-0.9,0.2-1.1,0.9-1.2,1.6c-0.1,0.7-0.1,1.4-0.2,2.2c0,0.3-0.1,0.4-0.4,0.4
			c-1.2,0-2.5,0-3.8,0c-0.2,0-0.3,0-0.3-0.2c0-1.4,0-2.7,0.5-4c0.8-2,2.4-3.1,4.5-3.4c1.2-0.2,2.3-0.1,3.5,0.2
			c2.2,0.6,3.5,1.9,4,4.1c0.4,1.5,0.4,3.1-0.2,4.6c-0.4,1.2-1.1,2.1-2.3,2.6C19.8,22,19.8,22.1,19.7,22.1z"/>
		<path class="st0" d="M57,28.9c-0.1,0.6-0.2,1.3-0.3,1.9c-0.2,1.2-0.4,2.4-0.6,3.6c0,0.2-0.1,0.3-0.4,0.3c-1,0-1,0-1.1-1
			c-0.3-2.1-0.6-4.2-0.9-6.3c-0.1-0.6-0.2-1.2-0.2-1.8c0.4,0,0.7,0,1.1,0c0.1,0,0.2,0.2,0.2,0.3c0.2,1.3,0.3,2.5,0.5,3.8
			c0.1,0.5,0.1,1,0.2,1.5h0.1c0.1-0.4,0.2-0.8,0.2-1.2c0.2-1.4,0.5-2.8,0.7-4.1c0-0.1,0.2-0.3,0.3-0.3c0.9,0,0.8-0.1,0.9,0.7
			c0.3,1.6,0.5,3.2,0.8,4.8c0,0.1,0,0.1,0.1,0.2c0.1-0.3,0.1-0.6,0.1-0.8c0.2-1.4,0.4-2.8,0.5-4.3c0.1-0.4,0.2-0.6,0.6-0.6
			c0.7,0,0.7,0,0.7,0.7c-0.2,1.8-0.5,3.6-0.8,5.5c-0.1,0.9-0.3,1.7-0.4,2.6c0,0.2-0.1,0.3-0.3,0.3c-1,0.1-1,0.1-1.1-0.9
			C57.6,32.2,57.3,30.5,57,28.9L57,28.9z"/>
		<path class="st0" d="M60.6,15.4c0-1.4,0-2.7,0-4.1c0-0.3,0.1-0.5,0.4-0.5c1.2,0,1.2,0,1.2,1.2c0,0.7,0,1.5,0,2.3
			c0,0.3,0.1,0.4,0.4,0.4c0.4,0,0.7,0,1.1,0c0.3,0,0.4-0.1,0.3-0.4c0-1,0-2,0-3c0-0.3,0.1-0.4,0.4-0.4c1.2,0,1.2,0,1.2,1.2
			c0,2.5,0,5,0,7.4c0,0.3-0.1,0.5-0.4,0.5C64,20,64,20,64,18.8c0-0.9,0-1.7,0-2.6c0-0.3-0.1-0.4-0.4-0.4c-0.4,0-0.7,0-1.1,0
			c-0.3,0-0.4,0.1-0.3,0.4c0,1.1,0,2.3,0,3.4c0,0.3-0.1,0.4-0.4,0.4c-1.2,0-1.2,0-1.2-1.2C60.6,17.6,60.6,16.5,60.6,15.4z"/>
		<path class="st0" d="M92,15.4c0,1.4,0,2.7,0,4.1c0,0.3-0.1,0.4-0.4,0.4c-1.2,0-1.2,0-1.2-1.2c0-0.9,0-1.7,0-2.5
			c0-0.3-0.1-0.5-0.5-0.4c-0.4,0-0.7,0-1.1,0c-0.3,0-0.4,0.1-0.4,0.4c0,1.1,0,2.2,0,3.3c0,0.3-0.1,0.5-0.4,0.5c-1.2,0-1.2,0-1.2-1.2
			c0-2.5,0-4.9,0-7.4c0-0.4,0.1-0.5,0.5-0.5c1.1,0,1.1,0,1.1,1.1c0,0.8,0,1.6,0,2.3c0,0.3,0.1,0.4,0.4,0.4c0.4,0,0.7,0,1.1,0
			c0.3,0,0.4-0.1,0.4-0.4c0-1,0-2,0-3c0-0.3,0.1-0.4,0.4-0.4s0.6,0,0.8,0c0.3,0,0.4,0.1,0.4,0.4C92,12.6,92,14,92,15.4z"/>
		<path class="st0" d="M44.8,30.3c0-1.4,0-2.7,0-4.1c0-0.3,0.1-0.4,0.4-0.4c0.9,0,1.8,0,2.7,0.1c1.1,0.1,1.8,0.9,1.8,2.1
			c0,1.5,0,3.1,0,4.6c0,1.4-0.9,2.3-2.4,2.3c-0.7,0-1.4,0-2.2,0c-0.3,0-0.4-0.1-0.4-0.4C44.8,33,44.8,31.7,44.8,30.3z M48.1,30.3
			c0-0.8,0-1.6,0-2.4c0-0.7-0.3-1-1-1c-0.1,0-0.3,0-0.4,0c-0.2,0-0.3,0.1-0.3,0.3c0,2.1,0,4.2,0,6.2c0,0.1,0.1,0.2,0.2,0.3
			c0.9,0.3,1.5-0.2,1.5-1.1C48.1,31.8,48.1,31.1,48.1,30.3z"/>
		<path class="st0" d="M83.4,29.9c0.1,0.1,0.1,0.1,0.2,0.1c1,0.3,1.3,1,1.3,1.9c0,0.4,0,0.9-0.1,1.3c-0.2,1-1,1.5-2,1.6
			c-0.9,0-1.8,0-2.6,0c-0.3,0-0.3-0.1-0.3-0.3c0-2.8,0-5.6,0-8.3c0-0.1,0.1-0.3,0.2-0.3c1,0,2,0,3,0.1s1.5,0.8,1.6,1.8
			c0,0.3,0,0.7,0,1C84.4,29.3,84,29.7,83.4,29.9z M81.3,32.2c0,0.4,0,0.8,0,1.2c0,0.1,0.1,0.3,0.2,0.3c0.8,0.3,1.7-0.2,1.8-1
			c0.2-1.5-0.3-2.1-1.6-2.1c-0.2,0-0.4,0.1-0.3,0.3C81.3,31.3,81.3,31.7,81.3,32.2z M81.3,28.2c0,0.3,0,0.7,0,1
			c0,0.1,0.1,0.3,0.1,0.3c0.5,0.3,1.6-0.2,1.7-0.8c0.1-0.3,0-0.6,0-0.9c0-0.5-0.3-0.7-0.7-0.8c-0.3-0.1-0.6-0.1-0.8-0.1
			c-0.2,0-0.3,0.1-0.3,0.3C81.3,27.5,81.3,27.8,81.3,28.2z"/>
		<path class="st0" d="M51.7,15.3c0-1.4,0-2.7,0-4.1c0-0.3,0.1-0.5,0.4-0.4c0.9,0,1.8,0,2.7,0.1c1.1,0.2,1.8,0.9,1.8,2
			c0,1.5,0,3.1,0,4.6s-0.9,2.3-2.4,2.3c-0.7,0-1.4,0-2.1,0c-0.3,0-0.4-0.1-0.4-0.4C51.7,18.1,51.7,16.7,51.7,15.3z M53.3,18.7
			c1.3,0.2,1.7-0.2,1.7-1.4c0-1.4,0-2.7,0-4.1c0-1-0.2-1.2-1.2-1.4c-0.5-0.1-0.5,0-0.5,0.5c0,2,0,3.9,0,5.9
			C53.3,18.4,53.3,18.6,53.3,18.7z"/>
		<path class="st0" d="M39,15.3c0-0.9,0-1.8,0.1-2.7c0.1-1.1,0.8-1.8,2-1.8c0.5,0,0.9,0,1.4,0c1,0.2,1.6,0.9,1.7,2
			c0.1,1.7,0.1,3.4,0,5.2c-0.1,1.3-1,2-2.3,2c-0.3,0-0.6,0-0.9,0c-1.2-0.2-1.9-1.1-1.9-2.4C39,16.8,39,16,39,15.3L39,15.3z
			 M40.6,15.3L40.6,15.3c0,0.8,0,1.5,0,2.3c0,0.2,0,0.4,0.1,0.5c0.1,0.5,0.5,0.7,0.9,0.7c0.5,0,0.8-0.3,0.9-0.7
			c0.1-0.3,0.1-0.5,0.1-0.8c0-1.3,0-2.7,0-4c0-0.2,0-0.5-0.1-0.7c-0.1-0.5-0.4-0.7-0.8-0.7c-0.7,0-1,0.3-1,1
			C40.6,13.7,40.6,14.5,40.6,15.3z"/>
		<path class="st0" d="M50.4,15.3c0,0.9,0.1,1.8,0,2.7c-0.1,1.2-1,1.9-2.2,2c-0.3,0-0.6,0-1,0c-1.1-0.2-1.8-0.9-1.8-2
			c-0.1-1.8-0.1-3.5,0-5.3c0.1-1.1,0.8-1.8,2-1.9c0.4,0,0.8,0,1.2,0c0.8,0.1,1.4,0.5,1.6,1.3c0.1,0.4,0.2,0.9,0.2,1.3
			C50.5,14,50.5,14.7,50.4,15.3C50.5,15.3,50.4,15.3,50.4,15.3z M48.9,15.3L48.9,15.3c0-0.7,0-1.5,0-2.2c0-0.2,0-0.4-0.1-0.6
			c-0.1-0.5-0.4-0.7-1-0.7c-0.5,0-0.8,0.2-0.9,0.7c-0.1,0.2-0.1,0.4-0.1,0.6c0,1.4,0,2.8,0,4.3c0,0.2,0,0.5,0.1,0.7s0.3,0.5,0.5,0.5
			c0.7,0.3,1.3-0.2,1.3-1C48.9,16.9,48.9,16.1,48.9,15.3z"/>
		<path class="st0" d="M97.1,30.7c0-0.1,0-0.3,0-0.4c0-1.4,0-2.7,0-4.1c0-0.4,0.1-0.5,0.5-0.5c0.8,0,0.8,0,0.8,0.9
			c0,2.6,0,5.1,0,7.7c0,0.2,0.2,0.5-0.2,0.5c-0.6,0.1-0.8,0-1-0.3c-0.6-1.5-1.2-2.9-1.8-4.4c-0.1-0.2-0.1-0.3-0.3-0.5
			c0,0.1,0,0.3-0.1,0.4c0,1.4,0,2.9,0,4.3c0,0.4-0.1,0.5-0.5,0.5c-0.8,0-0.8,0-0.8-0.8c0-2.6,0-5.1,0-7.7c0-0.4,0.1-0.5,0.5-0.5
			c0.5,0,0.7,0.1,0.9,0.6c0.6,1.4,1.1,2.7,1.7,4C96.9,30.5,97,30.6,97.1,30.7L97.1,30.7z"/>
		<path class="st0" d="M40.1,29.6c0,1,0,2.1,0,3.1c0,0.6,0,1.1,0,1.7c0,0.3-0.1,0.4-0.4,0.4c-1.1,0-0.9,0.2-0.9-0.9
			c0-2.5,0-5.1,0-7.6c0-0.2-0.1-0.5,0.2-0.5c0.5-0.1,0.9,0,1,0.3c0.6,1.4,1.2,2.8,1.8,4.3c0.1,0.1,0.1,0.3,0.2,0.4h0.1
			c0-0.1,0-0.3,0-0.4c0-1.4,0-2.7,0-4.1c0-0.3,0.1-0.4,0.4-0.4c1.1,0,0.9-0.1,0.9,0.9c0,2.6,0,5.1,0,7.7c0,0.2-0.1,0.5-0.2,0.5
			c-0.3,0-0.7,0.2-0.9-0.3c-0.6-1.5-1.2-3-1.8-4.4c-0.1-0.2-0.2-0.3-0.2-0.5C40.1,29.6,40.1,29.6,40.1,29.6z"/>
		<path class="st0" d="M36.7,19.1C36.7,19.1,36.6,19.1,36.7,19.1c-0.6,1-1.5,1-2.4,0.8c-1-0.2-1.4-1-1.5-1.9c-0.1-1.8-0.2-3.6,0-5.3
			s1.3-2,2.6-2c0.2,0,0.5,0.1,0.7,0.1c1,0.2,1.5,0.9,1.6,2c0,1.2,0.1,0.9-0.9,1c-0.6,0-0.6,0-0.6-0.6c0-0.2,0-0.3-0.1-0.5
			c-0.1-0.6-0.3-0.8-0.8-0.9c-0.6,0-0.9,0.2-1,0.7c-0.1,0.2-0.1,0.4-0.1,0.6c0,1.4,0,2.8,0,4.2c0,0.2,0,0.5,0.1,0.7
			c0.1,0.5,0.4,0.7,0.9,0.8c0.5,0,0.9-0.2,1-0.7s0.1-1.1,0.1-1.6c0-0.1-0.1-0.2-0.2-0.2c-0.1,0-0.2,0-0.2,0c-0.2,0-0.5-0.1-0.5-0.1
			c-0.1-0.2,0-0.5,0-0.7c0-0.1,0.2-0.1,0.2-0.1c0.6,0,1.2,0,1.9,0c0.1,0,0.3,0.2,0.3,0.3c0,1.3,0,2.6,0,4c0,0.2-0.1,0.3-0.3,0.3
			c-0.1,0-0.2,0-0.3,0c-0.3,0-0.5,0-0.5-0.4C36.8,19.4,36.8,19.3,36.7,19.1z"/>
		<path class="st0" d="M103.6,34c-0.7,1.1-1.5,1.1-2.5,0.8c-0.9-0.2-1.3-1-1.4-1.9c-0.1-1-0.1-1.9-0.1-2.9c0-0.9,0-1.8,0.2-2.6
			c0.2-1.1,0.9-1.6,2-1.7c0.4,0,0.8,0,1.1,0c1,0.2,1.6,0.9,1.7,2c0.1,1,0.1,1-0.9,1c-0.4,0-0.6-0.1-0.5-0.5c0-0.2,0-0.5-0.1-0.7
			c-0.1-0.4-0.3-0.6-0.7-0.7c-0.5-0.1-0.9,0.1-1,0.5c-0.1,0.2-0.1,0.5-0.1,0.8c0,1.4,0,2.9,0,4.3c0,0.2,0,0.4,0.1,0.7
			c0.1,0.5,0.4,0.7,0.9,0.7s0.9-0.2,1-0.6c0.1-0.6,0.1-1.1,0.1-1.7c0-0.1-0.2-0.2-0.4-0.2c-0.5,0-0.7-0.3-0.5-0.8
			c0-0.1,0.1-0.1,0.2-0.2c0.6,0,1.3,0,1.9,0c0.1,0,0.2,0.2,0.2,0.2c0,1.3,0,2.7,0,4c0,0.1-0.2,0.2-0.3,0.3c-0.1,0-0.2,0-0.3,0
			c-0.3,0.1-0.5-0.1-0.5-0.4C103.7,34.3,103.7,34.2,103.6,34z"/>
		<path class="st0" d="M37.8,34.8c-0.4,0-0.8,0-1.2,0c-0.1,0-0.3-0.2-0.3-0.3c-0.1-0.5-0.2-1-0.3-1.5c0-0.2-0.1-0.3-0.3-0.3
			c-0.3,0-0.7,0-1,0s-0.3,0.1-0.4,0.3c-0.1,0.5-0.2,1-0.3,1.5c0,0.2-0.1,0.3-0.3,0.3c-0.4,0-0.7,0-1.2,0c0.1-0.7,0.3-1.4,0.4-2.1
			c0.4-2.1,0.9-4.3,1.3-6.4c0.1-0.3,0.2-0.5,0.6-0.5c0.2,0,0.4,0,0.6,0c0.7,0,0.6-0.1,0.8,0.6c0.6,2.7,1.1,5.5,1.6,8.2
			C37.8,34.7,37.8,34.7,37.8,34.8z M35.2,28.1C35.1,28.1,35.1,28.1,35.2,28.1c-0.3,1.2-0.5,2.4-0.7,3.6c0.5,0,0.9,0,1.3,0
			C35.6,30.5,35.4,29.3,35.2,28.1z"/>
		<path class="st0" d="M76.7,19.9c-0.5,0-0.8,0-1.2,0c-0.1,0-0.2-0.1-0.3-0.2c-0.1-0.5-0.2-1-0.3-1.4c-0.1-0.3-0.2-0.5-0.5-0.5
			c-1.2,0-1.2,0-1.4,1.1c-0.2,1.1-0.2,1.1-1.3,1c-0.1,0-0.2,0-0.3,0c0.1-0.5,0.2-0.9,0.3-1.4c0.5-2.4,1-4.8,1.5-7.2
			c0.1-0.3,0.2-0.4,0.5-0.4c0.2,0,0.5,0,0.7,0c0.4-0.1,0.6,0.1,0.7,0.5c0.5,2.7,1.1,5.4,1.6,8.1C76.7,19.6,76.7,19.7,76.7,19.9z
			 M74.7,16.7c-0.2-1.2-0.4-2.3-0.6-3.5c-0.1,0-0.1,0.2-0.1,0.3c-0.1,0.7-0.2,1.5-0.3,2.3C73.5,16.9,73.5,17,74.7,16.7L74.7,16.7z"
			/>
		<path class="st0" d="M67.1,15.3c0-1.4,0-2.7,0-4c0-0.3,0.1-0.5,0.4-0.5c1,0,1.9,0,2.9,0c0.3,0,0.5,0.1,0.4,0.4
			c0,0.7,0,0.7-0.7,0.7c-0.4,0-0.7,0-1.1,0c-0.3,0-0.4,0.1-0.4,0.4c0,0.7,0,1.3,0,2c0,0.3,0.1,0.3,0.4,0.3s0.7,0,1,0
			c0.2,0,0.3,0.1,0.3,0.3c0.1,0.8,0.1,0.8-0.7,0.8c-0.9,0-0.9,0-0.9,0.9c0,0.6,0,1.2,0,1.8c0,0.3,0.1,0.4,0.4,0.4c0.4,0,0.9,0,1.3,0
			s0.5,0.1,0.5,0.5c0,0.1,0,0.2,0,0.3c-0.1,0.1-0.2,0.2-0.2,0.2c-1.1,0-2.2,0-3.2,0c-0.3,0-0.3-0.2-0.3-0.4
			C67.1,18.1,67.1,16.7,67.1,15.3z"/>
		<path class="st0" d="M61.8,30.3c0-1.4,0-2.7,0-4c0-0.4,0.1-0.5,0.5-0.5c0.9,0,1.9,0,2.8,0c0.3,0,0.4,0.1,0.4,0.4
			c0,0.6,0,0.6-0.7,0.6c-0.4,0-0.7,0-1.1,0c-0.3,0-0.4,0.1-0.4,0.4c0,0.6,0,1.3,0,1.9c0,0.3,0.1,0.4,0.4,0.4s0.7,0,1,0
			c0.2,0,0.3,0.1,0.3,0.3c0,1,0.1,0.8-0.8,0.8c-1,0-1,0-1,1c0,0.6,0,1.2,0,1.8c0,0.3,0.1,0.4,0.4,0.4c0.5,0,0.9,0,1.4,0
			c0.3,0,0.4,0.1,0.4,0.4c-0.1,0.2,0.2,0.6-0.3,0.6c-1.1,0-2.1,0-3.2,0c-0.3,0-0.3-0.2-0.3-0.4C61.8,33,61.8,31.6,61.8,30.3z"/>
		<path class="st0" d="M86,30.3c0-1.4,0-2.7,0-4.1c0-0.3,0.1-0.5,0.5-0.5c1,0,1.9,0,2.9,0c0.4,0,0.4,0.2,0.4,0.5s0.1,0.6-0.4,0.6
			s-0.9,0-1.4,0c-0.3,0-0.4,0.1-0.4,0.4c0,0.7,0,1.3,0,2c0,0.2,0.1,0.3,0.3,0.3c0.3,0,0.7,0,1,0s0.4,0.1,0.4,0.4c0,0.1,0,0.2,0,0.2
			c0.1,0.4-0.1,0.5-0.5,0.5c-1.2,0-1.2,0-1.2,1.2c0,0.5,0,1,0,1.5c0,0.3,0.1,0.4,0.4,0.4c0.5,0,1,0,1.5,0c0.3,0,0.4,0.1,0.4,0.4
			c0,0.7,0,0.7-0.7,0.7c-0.8,0-1.7,0-2.5,0c-0.6,0-0.6,0-0.6-0.6C86,32.9,86,31.6,86,30.3z"/>
		<path class="st0" d="M83,16c0-1.2,0-2.4,0-3.6c0-0.3-0.1-0.4-0.4-0.4c-0.1,0-0.2,0-0.4,0c-0.7,0-0.9-0.2-0.7-0.9
			c0-0.1,0.2-0.2,0.3-0.2c1.3,0,2.7,0,4,0c0.1,0,0.2,0.2,0.3,0.3v0.1c0,0.9,0,0.7-0.7,0.7c-0.8,0-0.7-0.1-0.7,0.7c0,2.2,0,4.5,0,6.7
			c0,0.3-0.1,0.5-0.4,0.5c-1.2,0-1.2,0-1.2-1.2C83,17.8,83,16.9,83,16z"/>
		<path class="st0" d="M77.7,15.4c0-1.4,0-2.7,0-4.1c0-0.3,0.1-0.5,0.4-0.5c1.2,0,1.2,0,1.2,1.2c0,2.1,0,4.3,0,6.4
			c0,0.4,0.1,0.5,0.5,0.5s0.9,0,1.3,0c0.3,0,0.5,0.1,0.4,0.4c0,0.1,0,0.2,0,0.2c0,0.3-0.1,0.4-0.4,0.4c-1,0-2,0-3,0
			c-0.3,0-0.4-0.1-0.4-0.4C77.7,18.1,77.7,16.8,77.7,15.4z"/>
		<path class="st0" d="M66.5,30.2c0-1.4,0-2.7,0-4c0-0.3,0.1-0.5,0.5-0.5c1.1,0,1.1,0,1.1,1.1c0,2.1,0,4.3,0,6.4
			c0,0.4,0.1,0.5,0.5,0.5s0.9,0,1.3,0c0.2,0,0.3,0.1,0.3,0.3c0,0.7,0,0.7-0.7,0.7c-0.9,0-1.8,0-2.6,0c-0.3,0-0.5-0.1-0.5-0.5
			C66.5,33,66.5,31.6,66.5,30.2z"/>
		<path class="st0" d="M71.2,30.3c0-1.4,0-2.7,0-4c0-0.3,0.1-0.5,0.4-0.5c1.1,0,1.1,0,1.1,1.1c0,2.1,0,4.3,0,6.4
			c0,0.4,0.1,0.5,0.5,0.5s0.8,0,1.2,0c0.3,0,0.4,0.1,0.4,0.4c0,0.7,0,0.7-0.6,0.7c-0.9,0-1.8,0-2.7,0c-0.3,0-0.4-0.1-0.4-0.4
			C71.2,33,71.2,31.6,71.2,30.3z"/>
		<path class="st0" d="M92.3,30.3c0,1.4,0,2.7,0,4c0,0.3-0.1,0.5-0.5,0.5c-1.1,0-1.1,0-1.1-1.1c0-2.5,0-5,0-7.4
			c0-0.4,0.1-0.5,0.5-0.5c1.1,0,1.1,0,1.1,1.1C92.3,28,92.3,29.1,92.3,30.3z"/>
		<path class="st0" d="M77.1,31.7c-0.3,0-0.7,0-1,0c-0.4,0-0.3-0.3-0.3-0.5s-0.1-0.5,0.3-0.5c0.7,0,1.4,0,2,0c0.4,0,0.3,0.2,0.3,0.5
			c0,0.2,0.1,0.5-0.3,0.5C77.8,31.7,77.4,31.7,77.1,31.7z"/>
	</g>
</g>
</svg>
