<?xml version="1.0" encoding="utf-8"?>
<!-- Generator: Adobe Illustrator 25.0.1, SVG Export Plug-In . SVG Version: 6.00 Build 0)  -->
<svg version="1.1" id="Layer_1" xmlns="http://www.w3.org/2000/svg" xmlns:xlink="http://www.w3.org/1999/xlink" x="0px" y="0px"
	 viewBox="0 0 125 125" style="enable-background:new 0 0 125 125;" xml:space="preserve">
<style type="text/css">
	.st0{fill:#D2D1D3;}
</style>
<g>
	<path class="st0" d="M80.6,96.3c-7.5,2.3-15.1,4.5-22.7,6.8c0-0.2,0-0.3,0-0.5c0-11.6,0-23.3,0-34.9c0-0.3,0.1-0.5,0.3-0.6
		c7.3-4.2,14.7-8.5,22-12.7c0.1-0.1,0.2-0.1,0.4-0.2C80.6,68.2,80.6,82.2,80.6,96.3z"/>
	<path class="st0" d="M55.4,103.1c-2-0.6-4-1.2-5.9-1.8c-5.4-1.6-10.8-3.3-16.2-4.9c-0.3-0.1-0.4-0.2-0.4-0.5c0-13.8,0-27.6,0-41.3
		c0-0.1,0-0.2,0-0.4c0.1,0.1,0.2,0.1,0.3,0.1c7.3,4.2,14.6,8.4,21.9,12.6c0.2,0.1,0.3,0.3,0.3,0.6c0,11.7,0,23.4,0,35.2
		C55.4,102.8,55.4,102.9,55.4,103.1z"/>
	<path class="st0" d="M83.1,54c0.8,0.6,1.6,1.2,2.3,1.8c0.1,0.1,0.1,0.2,0.1,0.3s0,0.2,0,0.4c0,14,0,28.1,0,42.1
		c0,0.5-0.1,0.6-0.6,0.8c-6.5,2-12.9,4.1-19.4,6.1c-2.4,0.8-4.8,1.5-7.2,2.3c-0.2,0.1-0.5,0.1-0.7,0.1c-2.1,0.2-4.1-0.5-6.1-1
		c-7.7-2.1-15.4-4.3-23.1-6.4c-0.4-0.1-0.5-0.2-0.5-0.6c0-14.5,0-28.9,0-43.4c0-0.3,0.1-0.6,0.4-0.8c0.6-0.4,1.1-0.9,1.7-1.3
		c0.1-0.1,0.2-0.1,0.3-0.2c0,0.2,0,0.4,0,0.6c0,14.5,0,28.9,0,43.4c0,0.5,0.1,0.6,0.6,0.7c8.1,2.2,16.1,4.5,24.2,6.7
		c1,0.3,2.2,0.3,3.2-0.1c7.6-2.4,15.2-4.9,22.9-7.4c0.5-0.2,1-0.3,1.5-0.5c0.2-0.1,0.3-0.2,0.3-0.4c0-0.1,0-0.2,0-0.4
		c0-14,0-28.1,0-42.1C83.1,54.5,83.1,54.3,83.1,54z"/>
	<path class="st0" d="M95.7,104.8c-0.2-0.8-0.4-1.5-0.6-2.2c-0.6-2.2-1.3-4.4-1.9-6.6c-0.1-0.2-0.1-0.5-0.1-0.7
		c0-12.3,0-24.5,0-36.8c0-0.1,0-0.2,0-0.4c1.8,0,3.5,0,5.3,0c0,0.1,0,0.3,0,0.4c0,12.3,0,24.5,0,36.8c0,0.5-0.2,1-0.3,1.5
		c-0.7,2.6-1.5,5.1-2.2,7.7C95.9,104.5,95.8,104.6,95.7,104.8z"/>
	<path class="st0" d="M20.8,10.8c0,4.9,0,9.8,0,14.8c0.8,0,1.6,0,2.3,0c0,1.1,0,2.2,0,3.4c-0.8,0-1.5,0-2.3,0c0,1.9,0,3.8,0,5.6
		c-1.4,0-2.7,0-4.1,0c0-1.8,0-3.7,0-5.6c-2.4,0-4.8,0-7.2,0c0-0.3,0-0.5,0-0.8c-0.2-1.9,0.3-3.7,1.1-5.5c1.7-3.8,3.3-7.7,4.9-11.5
		c0.1-0.3,0.3-0.4,0.6-0.4c1.4,0,2.8,0,4.2,0C20.5,10.8,20.6,10.8,20.8,10.8z M16.7,15.7C16.6,15.7,16.6,15.7,16.7,15.7
		c-1.2,3.3-2.4,6.6-3.6,9.9c1.2,0,2.4,0,3.6,0C16.7,22.3,16.7,19,16.7,15.7z"/>
	<path class="st0" d="M36.8,19.8c0.1,0.1,0.2,0.2,0.2,0.3c0.7,0.4,0.6,1,0.3,1.7c-0.6-0.3-1.1-0.9-1.5-1.4c-0.1-0.1-0.3-0.3-0.5-0.3
		c-1.6-0.1-2.3-0.7-2.4-2.2c-0.1-1.7-0.1-3.5,0.1-5.2c0.1-1.2,0.8-1.7,1.9-1.9c0.5-0.1,1-0.1,1.4,0c1,0.2,1.5,0.9,1.6,1.8
		c0.1,0.3,0.1,0.6,0.1,0.9c0,1.3,0,2.6,0,4C38,18.3,37.7,19.2,36.8,19.8z M36.3,15.3L36.3,15.3c-0.1-0.9,0-1.8-0.1-2.7
		c0-0.5-0.4-0.7-0.9-0.7s-0.8,0.2-0.9,0.7c0,0.2-0.1,0.4-0.1,0.6c0,1.4,0,2.8,0,4.2c0,0.2,0,0.5,0.1,0.7c0.1,0.3,0.3,0.5,0.6,0.6
		c0.7,0.1,1.1-0.2,1.2-1.1C36.3,16.9,36.3,16.1,36.3,15.3z"/>
	<path class="st0" d="M37.7,25.7c1.1,0.1,2.2,0,3.2,0.2c1,0.1,1.6,0.8,1.6,1.8c0.1,1.1,0.1,2.3,0.1,3.5c0,0.6,0,1.2-0.1,1.7
		c-0.1,1.2-0.9,1.9-2.1,2c-0.8,0.1-1.5,0-2.3,0c-0.1,0-0.3,0-0.5,0C37.7,31.8,37.7,28.8,37.7,25.7z M39.3,33.7c0.2,0,0.4,0,0.5,0
		c0.7,0,1-0.3,1.1-1c0-0.6,0.1-1.2,0.1-1.8c0-1,0-2.1-0.1-3.1c0-0.4-0.2-0.7-0.7-0.8c-0.3-0.1-0.6,0-0.9-0.1
		C39.3,29.2,39.3,31.4,39.3,33.7z"/>
	<path class="st0" d="M69.3,30.2c0-0.7,0-1.4,0-2.1c0.1-1.9,1.1-2.6,2.9-2.5c1.5,0.1,2.2,0.7,2.3,2.3c0.1,1.6,0.1,3.3,0,4.9
		c-0.1,1.7-1.3,2.2-2.8,2.1c-1.5-0.1-2.2-0.8-2.4-2.5C69.2,31.7,69.3,31,69.3,30.2z M72.8,30.3L72.8,30.3c0-0.9,0-1.8-0.1-2.7
		c0-0.6-0.3-0.8-0.9-0.8c-0.5,0-0.8,0.2-0.9,0.8c0,0.2-0.1,0.4-0.1,0.6c0,1.4,0,2.8,0,4.2c0,0.2,0,0.5,0.1,0.7
		c0.1,0.3,0.3,0.5,0.6,0.6c0.7,0.2,1.2-0.2,1.2-1.1C72.8,31.8,72.8,31.1,72.8,30.3z"/>
	<path class="st0" d="M75.7,25.7c0.3,0,0.6,0,0.9,0c0.1,0,0.3,0.2,0.3,0.3c0.6,1.4,1.2,2.8,1.9,4.3c0.1,0.1,0.1,0.2,0.2,0.3
		c0-1.6,0-3.2,0-4.9c0.5,0,0.9,0,1.3,0c0,3,0,6,0,9.1c-0.3,0-0.6,0-0.9,0c-0.1,0-0.3-0.2-0.3-0.3c-0.6-1.5-1.2-3-1.9-4.4
		c-0.1-0.2-0.1-0.3-0.3-0.4c0,1.7,0,3.4,0,5.2c-0.5,0-0.9,0-1.4,0C75.7,31.8,75.7,28.8,75.7,25.7z"/>
	<path class="st0" d="M39.1,10.8c0.5,0,1,0,1.6,0c0,0.2,0,0.3,0,0.5c0,1.8,0,3.6,0,5.4c0,0.5,0.1,0.9,0.1,1.4
		c0.1,0.5,0.4,0.7,0.9,0.7s0.7-0.2,0.8-0.7c0.1-0.3,0.1-0.7,0.1-1c0-1.9,0-3.9,0-5.8c0-0.4,0.1-0.5,0.5-0.5c0.2,0,0.5,0,0.7,0
		c0.3,0,0.4,0.1,0.4,0.4c0,2,0,4,0,6c0,0.5-0.1,0.9-0.2,1.4c-0.2,0.8-0.7,1.3-1.5,1.4c-0.6,0.1-1.3,0.1-1.9-0.1
		c-0.9-0.2-1.3-1-1.4-1.8c0-0.2-0.1-0.4-0.1-0.6C39.1,15.2,39.1,13,39.1,10.8z"/>
	<path class="st0" d="M43.8,25.8c0.5,0,1,0,1.5,0c0,0.2,0,0.3,0,0.5c0,1.9,0,3.8,0,5.7c0,0.4,0.1,0.8,0.1,1.1
		c0.1,0.4,0.4,0.7,0.9,0.7c0.4,0,0.7-0.2,0.8-0.7c0.1-0.4,0.1-0.8,0.1-1.1c0-1.9,0-3.8,0-5.6c0-0.2,0-0.3,0-0.5c0.6,0,1,0,1.6,0
		c0,0.2,0,0.3,0,0.5c0,1.9,0,3.8,0,5.7c0,0.5-0.1,1.1-0.2,1.6c-0.2,0.8-0.8,1.3-1.6,1.4c-0.5,0.1-1,0.1-1.4,0
		c-1-0.1-1.5-0.7-1.7-1.8c-0.1-0.3-0.1-0.6-0.1-0.9c0-2,0-4.1,0-6.2C43.8,26,43.8,25.9,43.8,25.8z"/>
	<path class="st0" d="M55.1,29c-0.5,0-1,0-1.6,0c0-0.4,0-0.9,0-1.3c0-0.6-0.3-0.8-0.7-0.9c-0.5-0.1-0.9,0.2-1,0.7
		c0,0.2-0.1,0.4-0.1,0.7c0,1.4,0,2.7,0,4.1c0,0.2,0,0.5,0.1,0.7c0.1,0.5,0.4,0.7,0.9,0.7s0.7-0.3,0.8-0.8c0-0.5,0-1,0-1.5
		c0.6,0,1.1,0,1.6,0c0,1,0.1,1.9-0.5,2.7C54,34.9,53.2,35,52.4,35c-1.6-0.1-2.4-0.9-2.4-2.6c0-1.4,0-2.8,0-4.2
		c0-0.3,0.1-0.6,0.1-0.9c0.3-1.3,1.3-1.8,2.7-1.7c1.5,0.1,2.1,0.8,2.2,2.5C55.1,28.4,55.1,28.7,55.1,29z"/>
	<path class="st0" d="M98.4,55.9c-1.8,0-3.5,0-5.3,0c0-1.1-0.1-2.2,0-3.3c0.2-1.4,1.5-2.3,2.8-2.2c1.4,0.1,2.4,1.2,2.4,2.6
		C98.4,54,98.4,54.9,98.4,55.9z"/>
	<path class="st0" d="M50.4,19.9c-0.5,0-0.9,0-1.3,0c-0.1,0-0.2-0.2-0.2-0.2c-0.1-0.5-0.2-1-0.3-1.5c0-0.3-0.2-0.4-0.5-0.4
		c-0.4,0-0.8,0-1.2,0c-0.1,0.7-0.3,1.4-0.4,2.1c-0.5,0-1,0-1.5,0c0.6-3,1.2-6,1.9-9.1c0.5,0,1,0,1.5,0c0.1,0,0.2,0.2,0.2,0.3
		c0.5,2.5,1,5,1.5,7.5C50.2,19,50.3,19.5,50.4,19.9z M48.4,16.7c-0.2-1.2-0.4-2.4-0.6-3.5h-0.1c-0.2,1.2-0.4,2.3-0.6,3.5
		C47.6,16.7,47.9,16.7,48.4,16.7z"/>
	<path class="st0" d="M61,34.8c-0.4,0-0.8,0-1.3,0c-0.1,0-0.2-0.2-0.3-0.3c-0.1-0.5-0.2-1-0.3-1.5c0-0.2-0.1-0.3-0.3-0.3
		c-0.4,0-0.9,0-1.3,0c-0.1,0.7-0.3,1.4-0.4,2.1c-0.5,0-1,0-1.5,0c0.6-3,1.2-6,1.8-9.1c0.5,0,1,0,1.5,0c0.1,0,0.2,0.1,0.2,0.2
		C59.7,28.8,60.3,31.7,61,34.8C61.1,34.7,61.1,34.7,61,34.8z M59,31.6c-0.2-1.2-0.4-2.3-0.6-3.5h-0.1c-0.2,1.1-0.4,2.3-0.6,3.5
		C58.2,31.6,58.6,31.6,59,31.6z"/>
	<path class="st0" d="M34.6,33.7c0.7,0,1.4,0,2.1,0c0,0.4,0,0.7,0,1.1c-1.2,0-2.5,0-3.8,0c0-3,0-6,0-9c1.2,0,2.5,0,3.8,0
		c0,0.3,0,0.6,0,0.9c0,0.1-0.2,0.2-0.3,0.2c-0.6,0-1.2,0-1.8,0c0,0.9,0,1.7,0,2.6c0.5,0,1.1,0,1.6,0c0,0.4,0,0.8,0,1.2
		c-0.5,0-1.1,0-1.6,0C34.6,31.7,34.6,32.7,34.6,33.7z"/>
	<path class="st0" d="M66.6,19.9c-0.5,0-1,0-1.6,0c0-0.2,0-0.4,0-0.6c0.2-1.9-0.2-3.8-0.9-5.6c-0.4-0.9-0.6-1.9-1-3
		c0.5,0,0.9,0,1.4,0c0.1,0,0.2,0.2,0.3,0.3c0.3,1,0.7,2.1,1,3.2c0.1-0.3,0.2-0.4,0.2-0.6c0.3-0.9,0.5-1.8,0.8-2.7
		c0.1-0.2,0.2-0.3,0.4-0.3c0.4,0,0.7,0,1.2,0c-0.2,0.7-0.4,1.3-0.6,2c-0.2,0.6-0.3,1.1-0.6,1.6c-0.5,1.3-0.8,2.7-0.7,4.1
		C66.6,19,66.6,19.4,66.6,19.9z"/>
	<path class="st0" d="M63,12c-0.5,0-0.9,0-1.4,0c0,2.6,0,5.3,0,7.9c-0.6,0-1.1,0-1.7,0c0-2.6,0-5.2,0-7.9c-0.5,0-1,0-1.5,0
		c0-0.4,0-0.7,0-1c0-0.1,0.2-0.2,0.2-0.2c1.4,0,2.7,0,4.1,0c0.1,0,0.2,0.2,0.2,0.3C63,11.4,63,11.6,63,12z"/>
	<path class="st0" d="M61,26.9c0-0.4,0-0.8,0-1.2c1.5,0,3.1,0,4.6,0c0,0.4,0,0.7,0,1.2c-0.3,0-0.7,0-1,0c-0.4,0-0.5,0.1-0.5,0.5
		c0,2.3,0,4.5,0,6.8c0,0.2,0,0.3,0,0.6c-0.6,0-1.1,0-1.6,0c0-0.2,0-0.3,0-0.5c0-2.3,0-4.6,0-6.9c0-0.4-0.1-0.5-0.5-0.5
		C61.7,27,61.4,26.9,61,26.9z"/>
	<path class="st0" d="M52.9,18.8c0.6,0,1.1,0,1.6,0c0.6,0,0.6,0,0.6,0.6c0,0.2,0,0.3,0,0.5c-1.3,0-2.5,0-3.8,0c0-0.1,0-0.3,0-0.4
		c0-2.7,0-5.5,0-8.2c0-0.4,0.1-0.5,0.5-0.5s0.7,0,1.2,0C52.9,13.5,52.9,16.1,52.9,18.8z"/>
	<path class="st0" d="M56,10.8c0.5,0,1,0,1.6,0c0,3,0,6,0,9.1c-0.5,0-1,0-1.6,0C56,16.9,56,13.9,56,10.8z"/>
	<path class="st0" d="M66.4,25.7c0.5,0,1,0,1.5,0c0,3,0,6,0,9c-0.5,0-1,0-1.5,0C66.4,31.8,66.4,28.8,66.4,25.7z"/>
</g>
</svg>
