<?xml version="1.0" encoding="utf-8"?>
<!-- Generator: Adobe Illustrator 24.1.2, SVG Export Plug-In . SVG Version: 6.00 Build 0)  -->
<svg version="1.1" id="Layer_1" xmlns="http://www.w3.org/2000/svg" xmlns:xlink="http://www.w3.org/1999/xlink" x="0px" y="0px"
	 viewBox="0 0 125 125" style="enable-background:new 0 0 125 125;" xml:space="preserve">
<style type="text/css">
	.st0{fill:#FF3B21;}
</style>
<g>
	<g>
		<path class="st0" d="M74.9,59.7c2.3-2.3,4.6-4.6,6.9-6.9c-0.1,0-0.3,0-0.4,0c-1.8,0-3.6,0-5.4,0c-0.4,0-0.5-0.1-0.5-0.5
			c0-1.5,0-3.1,0-4.6c0-0.3,0.1-0.5,0.5-0.5c5,0,10.1,0,15.1,0c0.5,0,0.5,0.2,0.5,0.6c0,3.2,0,6.4,0,9.6c0,1.8,0,3.6,0,5.3
			c0,0.5,0,0.5-0.5,0.5c-1.5,0-3,0-4.5,0c-0.4,0-0.5-0.1-0.5-0.5c0-1.6,0-3.3,0-4.9c0-0.2,0-0.3,0-0.6c-0.2,0.2-0.3,0.3-0.4,0.3
			c-2.1,2.1-4.1,4.1-6.2,6.2c-0.2,0.2-0.2,0.4-0.1,0.7c2.6,3.9,3.8,8.2,3.5,12.9c-0.6,8.8-6.9,16.3-15.5,18.4
			c-0.4,0.1-0.9,0.2-1.3,0.3c-0.2,0-0.3,0.1-0.3,0.4c0,1.8,0,3.6,0,5.5c0,0.3,0.1,0.4,0.4,0.4c1.8,0,3.7,0,5.5,0
			c0.4,0,0.5,0.1,0.5,0.5c0,1.6,0,3.3,0,4.9c0,0.4-0.1,0.5-0.5,0.5c-1.8,0-3.6,0-5.4,0c-0.4,0-0.5,0.1-0.5,0.5c0,1.7,0,3.4,0,5.1
			c0,0.4-0.1,0.5-0.5,0.5c-1.7,0-3.3,0-5,0c-0.3,0-0.5-0.1-0.5-0.5c0-1.7,0-3.4,0-5c0-0.6,0-0.6-0.6-0.6c-1.8,0-3.5,0-5.2,0
			c-0.4,0-0.5-0.1-0.5-0.5c0-1.6,0-3.3,0-4.9c0-0.4,0.1-0.5,0.5-0.5c1.8,0,3.7,0,5.5,0c0.3,0,0.5-0.1,0.5-0.5c0-1.7,0-3.4,0-5.2
			c0-0.3-0.1-0.5-0.4-0.5c-8.1-1.5-13.7-6.1-16.4-13.8c-3.3-9.5,1.1-19.9,9.9-24.5c3.3-1.7,6.8-2.5,10.4-2.3
			C67.7,55.7,71.4,57.1,74.9,59.7C74.7,59.6,74.9,59.7,74.9,59.7z M77.5,75.9c0-8.3-6.8-15.1-14.9-15.1c-8.1-0.1-15.2,6.4-15.3,14.9
			S53.9,91,62.3,91S77.5,84.3,77.5,75.9z"/>
		<path class="st0" d="M10.1,27.8c0.2,0,0.3,0,0.4,0c1.2,0,2.4,0,3.6,0c0.3,0,0.4,0.1,0.4,0.4c0.1,0.8,0.1,1.6,0.3,2.3
			c0.2,0.8,0.7,1.1,1.4,1.1c0.8,0.1,1.4-0.2,1.6-0.9c0.2-0.7,0.3-1.4,0.4-2.1c0.1-1.6,0.2-3.3-0.2-4.9c-0.3-1.4-1.5-2-2.7-1.4
			c-0.6,0.3-0.9,0.8-1,1.4c-0.1,0.4-0.3,0.6-0.7,0.5c-1,0-1.9,0-2.9,0c-0.3,0-0.4-0.1-0.4-0.4c0.1-2.8,0.2-5.6,0.2-8.5
			c0-1.3,0.1-2.6,0.1-3.9c0-0.2,0-0.5,0-0.7c3.7,0,7.3,0,11,0c0,0.5,0,0.9,0,1.4c0,0.7,0,1.3,0,2c0,0.3-0.1,0.4-0.4,0.4
			c-2.1,0-4.1,0-6.2,0c-0.2,0-0.4,0-0.6,0c-0.1,1.8-0.2,3.5-0.3,5.1c0.7-0.3,1.5-0.6,2.2-0.8c0.8-0.2,1.7-0.2,2.5,0
			c1.3,0.3,2.1,1.1,2.7,2.2s0.9,2.3,1,3.5c0.2,2.1,0.1,4.2-0.4,6.2c-0.6,2.4-2.2,3.8-4.7,4.1c-1.3,0.1-2.5,0.1-3.8-0.3
			C12,34,11,33,10.5,31.4C10.2,30.4,10.2,29.2,10.1,27.8z"/>
		<path class="st0" d="M41.5,34.7c0.1,0.1,0.2,0.3,0.3,0.3c0.7,0.4,0.5,1,0.2,1.6c-0.6-0.3-1-0.9-1.5-1.4c-0.1-0.2-0.4-0.3-0.6-0.3
			c-0.2-0.1-0.4,0-0.7-0.1c-0.9-0.2-1.4-0.7-1.6-1.5c-0.1-0.4-0.2-0.8-0.2-1.2c0-1.2,0-2.5,0-3.8c0-0.3,0-0.7,0.1-1
			c0.2-1,0.9-1.6,2-1.7c0.4,0,0.7,0,1.1,0c1,0.1,1.6,0.6,1.9,1.5c0.1,0.4,0.2,0.7,0.2,1.1c0,1.3,0,2.6,0,3.9c0,0.3-0.1,0.6-0.1,0.9
			C42.5,33.8,42.1,34.3,41.5,34.7z M41.1,30.3L41.1,30.3c0-0.5,0-1.1,0-1.6c0-0.4,0-0.7-0.1-1.1c-0.1-0.5-0.4-0.7-0.9-0.7
			s-0.8,0.2-0.9,0.7c-0.1,0.2-0.1,0.4-0.1,0.7c0,1.4,0,2.7,0,4.1c0,0.3,0,0.5,0.1,0.8s0.3,0.5,0.7,0.6c0.7,0.1,1.1-0.2,1.2-1.1
			C41.1,31.9,41.1,31.1,41.1,30.3z"/>
		<path class="st0" d="M50,15.4c0-1.4,0-2.7,0-4.1c0-0.4,0.1-0.5,0.5-0.5c0.9,0.1,1.8,0,2.7,0.1c1,0.1,1.7,0.7,1.7,1.7
			c0.1,1.8,0.1,3.6,0,5.3c-0.1,1.3-0.9,1.9-2.3,1.9c-0.7,0-1.4,0-2.2,0c-0.3,0-0.4-0.1-0.4-0.4C50,18.1,50,16.8,50,15.4z M51.6,18.7
			c1.2,0.2,1.7-0.2,1.7-1.3c0-1.4,0-2.9,0-4.3c0-0.9-0.2-1.1-1.2-1.2c-0.5,0-0.5,0-0.5,0.5c0,2,0,3.9,0,5.9
			C51.6,18.4,51.6,18.6,51.6,18.7z"/>
		<path class="st0" d="M66,19.9c-0.5,0-0.9,0-1.4,0c-0.1,0-0.3-0.2-0.3-0.4c-0.3-1.1-0.6-2.3-0.9-3.5c-0.1-0.2-0.1-0.3-0.4-0.3
			c-0.4,0-0.5,0.1-0.5,0.5c0,1.1,0,2.2,0,3.3c0,0.3-0.1,0.4-0.4,0.4c-0.4,0-0.8,0-1.2,0c0-0.2,0-0.3,0-0.5c0-2.7,0-5.5,0-8.2
			c0-0.4,0.1-0.5,0.5-0.5c0.9,0.1,1.9,0,2.8,0.1c1.1,0.2,1.6,0.8,1.6,1.8c0,0.5,0,1-0.1,1.5c-0.1,0.3-0.4,0.7-0.7,1
			c-0.2,0.2-0.2,0.3-0.2,0.5c0.4,1.3,0.7,2.5,1.1,3.8C66,19.7,66,19.8,66,19.9z M62.6,11.9c0,1,0,1.9,0,2.8c0.6,0,1.2,0.1,1.6-0.5
			c0.3-0.6,0.3-1.3,0-1.9C63.8,11.8,63.2,11.9,62.6,11.9z"/>
		<path class="st0" d="M45.2,14.7c0,1.7,0,3.4,0,5.2c-0.4,0-0.8,0-1.1,0c-0.1,0-0.2-0.2-0.2-0.3c0-0.6,0-1.2,0-1.8
			c0-2.1,0-4.3,0-6.4c0-0.2-0.2-0.5,0.2-0.6c0.6-0.1,0.9,0,1,0.4c0.6,1.4,1.2,2.8,1.8,4.2c0.1,0.1,0.1,0.3,0.3,0.4
			c0-0.1,0-0.3,0-0.4c0-1.4,0-2.7,0-4.1c0-0.3,0.1-0.4,0.4-0.4c1.1,0,0.9-0.1,0.9,0.9c0,2.6,0,5.1,0,7.7c0,0.2-0.1,0.5-0.2,0.5
			c-0.5,0.2-0.9,0-1-0.3c-0.6-1.5-1.3-3-1.9-4.6C45.3,15,45.3,14.9,45.2,14.7C45.3,14.7,45.3,14.7,45.2,14.7z"/>
		<path class="st0" d="M36.7,19c-0.4,0.8-0.9,1-1.7,1c-1.3-0.1-2-0.7-2.2-2c-0.1-0.6-0.1-1.1-0.1-1.7c0-1.2,0-2.4,0.1-3.5
			c0.1-1.3,0.8-1.9,2-2c0.5-0.1,1,0,1.4,0.1c0.9,0.2,1.5,0.9,1.5,2c0.1,1.2,0.1,1-0.9,1c-0.6,0-0.6,0-0.6-0.6c0-0.2,0-0.3,0-0.5
			c-0.1-0.6-0.3-0.8-0.8-0.9c-0.6-0.1-0.9,0.2-1,0.7c0,0.2-0.1,0.3-0.1,0.5c0,1.4,0,2.9,0,4.3c0,0.2,0,0.4,0.1,0.7
			c0.1,0.5,0.4,0.7,0.9,0.7c0.4,0,0.8-0.2,0.9-0.6c0.1-0.6,0.1-1.1,0.2-1.7c0-0.1-0.2-0.2-0.2-0.2c-0.2,0-0.5,0-0.7,0
			c0-0.1-0.1-0.1-0.1-0.1c0-1.1-0.1-0.9,0.8-0.9c0.4,0,0.9,0,1.3,0c0.2,0,0.3,0.1,0.3,0.3c0,1.4,0,2.8,0,4.2c-0.3,0-0.7,0-1,0
			C36.8,19.6,36.8,19.4,36.7,19z"/>
		<path class="st0" d="M43.9,25.8c0.4,0,0.8,0,1.3,0c0.3,0,0.3,0.2,0.3,0.4c0,0.9,0,1.8,0,2.7c0,1.3,0,2.5,0,3.8
			c0,0.2,0.1,0.3,0.1,0.5c0.1,0.4,0.4,0.6,0.9,0.6c0.4,0,0.7-0.2,0.8-0.6c0.1-0.3,0.1-0.7,0.1-1.1c0-1.9,0-3.9,0-5.8
			c0-0.4,0.1-0.5,0.5-0.5c0.3,0,0.7,0,1,0c0,0.1,0.1,0.1,0.1,0.1c0,2.1,0,4.3,0,6.4c0,0.3-0.1,0.7-0.1,1c-0.3,1.1-1.1,1.7-2.5,1.6
			c-1.6-0.1-2.3-0.7-2.4-2.3C43.9,30.4,43.9,28.1,43.9,25.8z"/>
		<path class="st0" d="M51.7,32.7c-0.1,0.7-0.3,1.4-0.4,2.1c-0.5,0-1,0-1.5,0c0.6-3,1.2-6,1.8-9c0.5,0,1,0,1.5,0
			c0.1,0,0.2,0.1,0.2,0.2c0.6,2.9,1.2,5.8,1.8,8.8c-0.5,0-0.9,0-1.3,0c-0.1,0-0.2-0.2-0.2-0.2c-0.1-0.5-0.2-1-0.3-1.5
			c0-0.3-0.1-0.4-0.4-0.4C52.6,32.7,52.1,32.7,51.7,32.7z M52.5,28.1L52.5,28.1c-0.3,1.2-0.5,2.3-0.7,3.5c0.5,0,0.8,0,1.3,0
			C52.9,30.5,52.7,29.3,52.5,28.1z"/>
		<path class="st0" d="M57.8,18.8c0.5,0,1.1,0,1.6,0c0.6,0,0.6,0,0.6,0.6c0,0.2,0,0.3,0,0.5c-1.3,0-2.5,0-3.8,0c0-0.1,0-0.3,0-0.4
			c0-2.7,0-5.4,0-8.2c0-0.3,0.1-0.5,0.5-0.5c1,0,1.9,0,2.9,0c0.3,0,0.5,0.1,0.4,0.4c0,0.1,0,0.2,0,0.4c0,0.3-0.1,0.3-0.3,0.3
			c-0.6,0-1.1,0-1.8,0c0,0.9,0,1.8,0,2.7c0.5,0,1.1,0,1.6,0c0,0.4,0,0.7,0,1.1c-0.5,0-1.1,0-1.6,0C57.8,16.8,57.8,17.8,57.8,18.8z"
			/>
		<path class="st0" d="M36.7,34.8c-1.3,0-2.5,0-3.8,0c0-3,0-6,0-9c0.7,0,1.3,0,1.9,0c0.5,0,1,0,1.5,0c0.3,0,0.4,0.1,0.4,0.4
			c0,0.1,0,0.1,0,0.2c0.1,0.4-0.1,0.6-0.5,0.6s-0.9,0-1.3,0c-0.1,0-0.3,0.1-0.3,0.2c0,0.8,0,1.6,0,2.4c0.6,0,1.1,0,1.7,0
			c0,0.4,0,0.7,0,1.1c-0.4,0-0.9,0-1.3,0c-0.3,0-0.4,0.1-0.4,0.4c0,0.8,0,1.5,0,2.3c0,0.3,0.1,0.4,0.4,0.3c0.5,0,1,0,1.5,0
			c0.3,0,0.4,0.1,0.4,0.4C36.7,34.3,36.7,34.5,36.7,34.8z"/>
		<path class="st0" d="M40.7,14.6c0.6,0,1.2,0,1.7,0c0,0.4,0,0.7,0,1.1c-0.4,0-0.8,0-1.2,0c-0.3,0-0.5,0.1-0.5,0.5
			c0,0.7,0,1.5,0,2.2c0,0.3,0.1,0.4,0.4,0.4c0.5,0,0.9,0,1.4,0c0.3,0,0.4,0.1,0.4,0.4c0,0.1,0,0.3,0,0.4c0,0.2-0.1,0.3-0.3,0.3
			c-1.1,0-2.1,0-3.2,0c-0.4,0-0.3-0.2-0.3-0.5c0-2,0-4.1,0-6.2c0-0.7,0-1.4,0-2.1c0-0.3,0.1-0.4,0.4-0.4c1,0,2,0,3,0
			c0.3,0,0.4,0.1,0.4,0.4c0,0.1,0,0.1,0,0.2c0,0.5,0,0.5-0.6,0.5c-0.4,0-0.9,0-1.3,0c-0.1,0-0.3,0.1-0.3,0.2
			C40.7,13,40.7,13.8,40.7,14.6z"/>
		<path class="st0" d="M73.1,25.7c-0.3,1.1-0.7,2.1-1,3.1c-0.2,0.7-0.5,1.5-0.7,2.2c-0.1,0.2-0.1,0.4-0.1,0.6c0,1,0,2,0,3.1
			c-0.5,0-1,0-1.5,0c0-0.3,0-0.7,0-1c0.2-1.8-0.2-3.4-0.9-5.1c-0.4-1-0.6-1.9-1-3c0.5,0,0.9,0,1.3,0c0.1,0,0.2,0.2,0.3,0.3
			c0.3,0.9,0.6,1.8,0.9,2.7c0,0.1,0.1,0.3,0.2,0.5c0.1-0.2,0.2-0.4,0.2-0.5c0.3-0.9,0.5-1.8,0.8-2.7c0.1-0.2,0.2-0.3,0.4-0.3
			C72.3,25.8,72.7,25.7,73.1,25.7z"/>
		<path class="st0" d="M64.7,34.8c0-0.2,0-0.4,0-0.6c0-2.3,0-4.5,0-6.8c0-0.4-0.1-0.6-0.5-0.5c-0.1,0-0.2,0-0.3,0
			c-0.7,0-0.9-0.2-0.7-0.9c0-0.1,0.2-0.2,0.2-0.2c1.4,0,2.8,0,4.3,0c0,0.4,0,0.7,0,1.2c-0.3,0-0.6,0-0.9,0c-0.5-0.1-0.5,0.1-0.5,0.5
			c0,2.1,0,4.2,0,6.3c0,1,0,1-1.1,1C65.1,34.8,64.9,34.8,64.7,34.8z"/>
		<path class="st0" d="M57.7,25.7c0,0.2,0,0.4,0,0.5c0,2.3,0,4.5,0,6.8c0,0.6,0,0.6,0.6,0.6c0.4,0,0.8,0,1.2,0
			c0.3,0,0.5,0.1,0.4,0.4c0,0.1,0,0.3,0,0.4c0,0.1-0.2,0.3-0.3,0.3c-1.1,0-2.2,0-3.2,0c-0.3,0-0.3-0.2-0.3-0.4c0-1.1,0-2.2,0-3.3
			c0-1.6,0-3.2,0-4.9c0-0.4,0.1-0.5,0.5-0.5C56.9,25.8,57.2,25.7,57.7,25.7z"/>
		<path class="st0" d="M60.8,25.8c0.5,0,1,0,1.6,0c0,3,0,6,0,9c-0.5,0-1,0-1.6,0C60.8,31.8,60.8,28.8,60.8,25.8z"/>
		<path class="st0" d="M62.5,82.4c-3,0-5.9,0-8.9,0c-0.4,0-0.5-0.1-0.5-0.5c0-1.3,0-2.6,0-3.8c0-0.3,0.1-0.4,0.4-0.4
			c5.9,0,11.9,0,17.8,0c0.3,0,0.4,0.1,0.4,0.5c0,1.3,0,2.6,0,3.8c0,0.4-0.1,0.5-0.5,0.5C68.4,82.4,65.4,82.4,62.5,82.4z"/>
		<path class="st0" d="M62.4,69.8c2.9,0,5.9,0,8.8,0c0.4,0,0.5,0.1,0.5,0.5c0,1.2,0,2.5,0,3.8c0,0.3-0.1,0.5-0.4,0.5
			c-5.9,0-11.9,0-17.8,0c-0.3,0-0.5-0.1-0.5-0.5c0-1.3,0-2.6,0-3.8c0-0.4,0.1-0.5,0.5-0.5C56.5,69.8,59.5,69.8,62.4,69.8z"/>
	</g>
</g>
</svg>
