<?xml version="1.0" encoding="utf-8"?>
<!-- Generator: Adobe Illustrator 24.1.2, SVG Export Plug-In . SVG Version: 6.00 Build 0)  -->
<svg version="1.1" id="Layer_1" xmlns="http://www.w3.org/2000/svg" xmlns:xlink="http://www.w3.org/1999/xlink" x="0px" y="0px"
	 viewBox="0 0 125 125" style="enable-background:new 0 0 125 125;" xml:space="preserve">
<style type="text/css">
	.st0{fill:#25BDE2;}
</style>
<g>
	<g>
		<path class="st0" d="M71.7,105.5c-3,3-6,6-9,9c-3-3-6-6-9-9c0,0,0.1,0,0.2,0c1,0,2,0,3,0c0.4,0,0.5-0.1,0.5-0.5
			c-0.2-2.1-0.4-4.1-0.6-6.2c-0.1-1-0.1-1-1.1-1c-2.7,0-5.4,0-8.1,0c-0.7,0-0.8-0.1-0.9-0.8c-0.5-2.7-0.9-5.5-1.4-8.2
			c-0.6-3.6-1.2-7.3-1.8-10.9c-0.7-4.1-1.4-8.2-2-12.4c-0.7-4.4-1.5-8.9-2.2-13.3c-0.1-0.4-0.1-0.8-0.2-1.1
			c-0.1-0.5,0.1-0.6,0.5-0.6c0.1,0,0.3,0,0.4,0c14.9,0,29.8,0,44.8,0c0.2,0,0.3,0,0.5,0c0.4,0,0.5,0.2,0.5,0.6
			c-0.3,2.3-0.7,4.6-1.1,6.9c-0.5,3.2-1,6.4-1.5,9.6c-0.5,3.1-1,6.3-1.5,9.4c-0.5,3.2-1,6.3-1.5,9.5c-0.5,3.1-1,6.2-1.5,9.3
			c-0.1,0.5-0.1,0.9-0.2,1.4s-0.2,0.6-0.7,0.6c-3,0-5.9,0-8.8,0c-0.4,0-0.6,0.1-0.6,0.5c-0.1,1.5-0.2,3-0.4,4.5
			c-0.1,0.7-0.1,1.5-0.2,2.2c0,0.3,0.1,0.4,0.4,0.4c1,0,2.1,0,3.1,0C71.5,105.4,71.6,105.5,71.7,105.5z M82.6,60.3
			c0-0.1,0.1-0.2,0.1-0.2c0.4-2.3,0.8-4.7,1.2-7c0.1-0.7,0.1-0.7-0.6-0.7c-11.7,0-23.4,0-35.2,0c-2.2,0-4.3,0-6.5,0
			c-0.5,0-0.5,0.1-0.4,0.5c0.5,2.5,1,5,1.5,7.5c0.3,1.4,0.3,1.4,1.8,1.3c2-0.2,4-0.8,5.9-1.5c1.2-0.4,2.3-0.8,3.6-0.8
			c1.5,0,2.8,0.3,4.2,0.8c1.8,0.7,3.6,1.4,5.4,2c2.9,0.9,5.9,1.1,8.8,0.4c2-0.4,3.9-1.1,5.9-1.9c1.4-0.5,2.7-0.8,4.2-0.3
			C82.5,60.3,82.6,60.3,82.6,60.3z M62.7,67.9c-0.1,0.1-0.2,0.2-0.2,0.3c-2,3.1-4,6.1-6,9.2C55.3,79.1,54.8,81,55,83
			c0.2,2.6,1.5,4.5,3.7,5.8c1.6,0.9,3.4,1,5.2,0.8c3.9-0.4,6.5-3.5,6.5-7.2c0-1.7-0.5-3.3-1.4-4.8c-2-3.2-4.1-6.3-6.1-9.5
			C62.8,68.1,62.8,68,62.7,67.9z"/>
		<path class="st0" d="M14.6,21.2c0.6-0.8,1.4-1.1,2.2-1.2c0.9-0.1,1.9-0.1,2.8,0.2c1.2,0.4,2,1.3,2.4,2.4c0.4,1,0.6,2.2,0.7,3.3
			c0.1,1.8,0,3.5-0.6,5.3c-0.8,2.5-2.6,3.8-5.2,3.9c-1.1,0-2.3,0-3.4-0.5c-1.7-0.8-2.7-2.2-3.1-3.9c-0.3-1.1-0.4-2.2-0.4-3.3
			c-0.1-3.1,0-6.2,0-9.3c0-1.5,0.3-2.9,0.9-4.3c0.6-1.4,1.7-2.4,3.2-2.7c1.4-0.4,2.9-0.4,4.3-0.1c2.2,0.4,3.4,1.8,3.8,3.9
			c0.1,0.6,0.1,1.2,0.2,1.8c0,0.3-0.1,0.4-0.4,0.4c-1.1,0-2.3,0-3.4,0c-0.3,0-0.4-0.1-0.4-0.4c0-0.5-0.1-0.9-0.2-1.4
			c-0.1-0.7-0.6-1.1-1.2-1.2c-0.9-0.1-1.5,0.1-1.8,0.8c-0.2,0.7-0.4,1.5-0.5,2.3c-0.1,1.3,0,2.5,0,3.8C14.5,21,14.6,21.1,14.6,21.2z
			 M14.5,26.9L14.5,26.9c0,0.7,0,1.4,0,2c0,0.7,0.2,1.5,0.6,2.1c0.4,0.5,0.9,0.7,1.5,0.7c0.6-0.1,1-0.4,1.2-1
			c0.1-0.3,0.2-0.6,0.2-0.9c0.3-1.6,0.2-3.2,0.1-4.8c-0.1-1-0.7-1.6-1.5-1.7c-0.8-0.1-1.4,0.2-1.9,0.8c-0.1,0.2-0.2,0.4-0.2,0.6
			C14.5,25.4,14.5,26.1,14.5,26.9z"/>
		<path class="st0" d="M67.9,16.5c0.1-0.7,0.2-1.5,0.3-2.3c0.1-1,0.3-1.9,0.4-2.9c0-0.3,0.2-0.5,0.5-0.5c0.8,0,0.9,0,0.7,0.8
			c-0.4,2.6-0.7,5.1-1.1,7.7c-0.1,0.5-0.1,0.5-0.8,0.5c-0.5,0-0.6-0.2-0.6-0.6c-0.3-1.6-0.6-3.3-0.8-5c0-0.1-0.1-0.2-0.2-0.3
			c-0.1,0.6-0.2,1.3-0.3,1.9c-0.2,1.2-0.4,2.4-0.6,3.6c0,0.2-0.2,0.4-0.4,0.3c-1.1,0-0.9,0.1-1.1-0.8c-0.4-2.6-0.7-5.2-1.1-7.7
			c-0.1-0.3,0.1-0.5,0.4-0.5c0.9,0,0.8-0.2,1,0.8c0.2,1.5,0.4,3,0.6,4.5c0,0.1,0.1,0.1,0.2,0.2c0.1-0.5,0.2-1.1,0.3-1.6
			c0.2-1.2,0.4-2.4,0.6-3.6c0.1-0.4,0.3-0.4,0.6-0.4c0.3,0,0.6,0,0.6,0.4c0.3,1.6,0.6,3.3,0.8,5c0,0.1,0.1,0.2,0.1,0.3
			C67.8,16.5,67.9,16.5,67.9,16.5z"/>
		<path class="st0" d="M44.8,30.3c0-1.4,0-2.7,0-4.1c0-0.3,0.1-0.5,0.4-0.4c0.9,0,1.8,0,2.7,0.1c1.2,0.2,1.8,0.9,1.8,2.1
			c0,1.5,0.1,3.1,0,4.6c-0.1,1.5-0.9,2.3-2.4,2.3c-0.7,0-1.4,0-2.2,0c-0.3,0-0.4-0.1-0.4-0.4l0,0C44.8,33,44.8,31.6,44.8,30.3z
			 M46.4,30.3c0,1,0,2,0,3c0,0.2,0,0.4,0.3,0.4c0.9,0.2,1.5-0.3,1.5-1.2c0-1.5,0-3,0-4.5c0-0.9-0.3-1.1-1.2-1.2
			c-0.4,0-0.5,0.1-0.5,0.5C46.4,28.4,46.4,29.3,46.4,30.3z"/>
		<path class="st0" d="M97.1,30.3c-0.1,0.9,0,1.8-0.2,2.7c-0.2,1.2-1,1.8-2.2,1.9c-0.4,0-0.7,0-1.1,0c-0.9-0.2-1.4-0.7-1.6-1.6
			c-0.1-0.3-0.2-0.7-0.2-1.1c0-1.5,0-3.1,0.1-4.6c0.1-1.2,0.9-1.9,2.1-2c0.1,0,0.3,0,0.4,0c1.6,0,2.5,0.8,2.5,2.4
			C97.1,28.8,97,29.6,97.1,30.3L97.1,30.3z M95.4,30.3L95.4,30.3c0-0.9,0-1.7,0-2.5c0-0.6-0.3-0.9-0.9-1c-0.6,0-0.9,0.2-1,0.8
			c0,0.2-0.1,0.4-0.1,0.7c0,1.3,0,2.6,0,4c0,0.3,0,0.6,0.1,0.8c0.1,0.4,0.3,0.6,0.7,0.7c0.6,0.1,1.1-0.3,1.2-1
			C95.5,31.9,95.4,31.1,95.4,30.3z"/>
		<path class="st0" d="M90.7,19.9c-0.5,0-0.9,0-1.4,0c-0.1,0-0.2-0.2-0.3-0.4c-0.3-1.1-0.6-2.3-0.9-3.4c0-0.1-0.2-0.3-0.4-0.4
			c-0.5-0.1-0.6,0-0.6,0.5c0,1.1,0,2.1,0,3.2c0,0.3-0.1,0.5-0.5,0.5c-1.1,0-1.1,0-1.1-1.1c0-2.5,0-4.9,0-7.4c0-0.6,0-0.6,0.6-0.6
			c0.9,0,1.8,0,2.6,0.1c1.1,0.1,1.7,0.9,1.7,2c0,0.5,0,0.9-0.1,1.4c-0.1,0.3-0.3,0.7-0.6,0.9c-0.2,0.2-0.3,0.3-0.2,0.6
			c0.3,1.2,0.7,2.4,1,3.6C90.6,19.5,90.7,19.7,90.7,19.9z M87.2,13.3L87.2,13.3c0,0.2,0,0.5,0,0.7c0,0.8,0,0.8,0.8,0.7
			c0.6-0.1,0.9-0.3,1-0.9c0.1-0.3,0.1-0.6,0-0.9c-0.1-0.8-0.9-1.2-1.6-1c-0.1,0-0.2,0.2-0.2,0.3C87.2,12.6,87.2,13,87.2,13.3z"/>
		<path class="st0" d="M68.4,30.7c0-0.1,0-0.3,0-0.4c0-1.4,0-2.7,0-4c0-0.4,0.1-0.5,0.5-0.5c0.9,0,0.8-0.1,0.8,0.8
			c0,2.6,0,5.1,0,7.7c0,0.2,0.1,0.5-0.2,0.6c-0.6,0.1-0.8,0-1-0.4c-0.6-1.5-1.2-2.9-1.8-4.4c-0.1-0.2-0.1-0.3-0.2-0.5h-0.1
			c0,0.1,0,0.3,0,0.4c0,1.4,0,2.8,0,4.3c0,0.4-0.1,0.6-0.5,0.6c-0.9,0-0.8,0.1-0.8-0.8c0-2.6,0-5.1,0-7.7c0-0.2-0.1-0.5,0.2-0.6
			c0.5-0.1,0.9,0,1,0.4c0.6,1.4,1.2,2.7,1.8,4C68.2,30.4,68.3,30.6,68.4,30.7C68.3,30.7,68.4,30.7,68.4,30.7z"/>
		<path class="st0" d="M57.6,15.8c0-0.1,0-0.3,0-0.4c0-1.3,0-2.7,0-4c0-0.4,0.1-0.6,0.5-0.5c0.9,0,0.8,0,0.8,0.8c0,2.6,0,5.2,0,7.7
			c0,0.2-0.1,0.5-0.2,0.5c-0.4,0.2-0.8,0-1-0.3c-0.6-1.5-1.3-3-1.9-4.5c-0.1-0.2-0.1-0.3-0.2-0.4h-0.1c0,0.2,0,0.3,0,0.5
			c0,1.4,0,2.8,0,4.3c0,0.4-0.1,0.5-0.5,0.5c-0.9,0-0.8,0.1-0.8-0.8c0-2.5,0-5.1,0-7.6c0-0.2-0.2-0.6,0.2-0.6c0.6-0.1,0.8,0,1,0.4
			c0.6,1.4,1.2,2.8,1.8,4.2c0.1,0.1,0.1,0.2,0.2,0.4C57.5,15.8,57.5,15.8,57.6,15.8z"/>
		<path class="st0" d="M99.6,29.6c0,0.1,0,0.3,0,0.4c0,1.4,0,2.9,0,4.3c0,0.4-0.1,0.5-0.5,0.5c-0.9,0-0.8,0.1-0.8-0.8
			c0-2.5,0-5.1,0-7.6c0-0.2-0.1-0.5,0.2-0.6c0.5-0.1,0.8,0,1,0.4c0.6,1.4,1.2,2.8,1.8,4.2c0.1,0.1,0.1,0.2,0.3,0.4
			c0-0.1,0-0.3,0-0.4c0-1.4,0-2.7,0-4.1c0-0.4,0.1-0.5,0.5-0.5c0.9,0,0.8-0.1,0.8,0.8c0,2.6,0,5.1,0,7.7c0,0.2,0.1,0.5-0.2,0.5
			c-0.5,0.1-0.8,0-0.9-0.3c-0.6-1.4-1.2-2.9-1.8-4.3c-0.1-0.2-0.2-0.3-0.2-0.5C99.7,29.6,99.7,29.6,99.6,29.6z"/>
		<path class="st0" d="M42.1,30.7c0-0.2,0-0.3,0-0.5c0-1.4,0-2.7,0-4c0-0.3,0.1-0.5,0.5-0.5c1,0,0.8-0.1,0.8,0.8c0,2.6,0,5.1,0,7.7
			c0,0.2-0.1,0.5-0.2,0.5c-0.4,0.2-0.8,0-0.9-0.3c-0.6-1.5-1.2-2.9-1.8-4.4c-0.1-0.2-0.2-0.3-0.2-0.5h-0.1c0,0.1,0,0.3,0,0.4
			c0,1.4,0,2.9,0,4.3c0,0.4-0.1,0.5-0.5,0.5c-0.9,0-0.8,0.1-0.8-0.8c0-2.5,0-5.1,0-7.6c0-0.2-0.1-0.5,0.2-0.6c0.5-0.1,0.8,0,1,0.4
			c0.6,1.4,1.2,2.8,1.8,4.2c0.1,0.1,0.1,0.2,0.2,0.3C42,30.7,42.1,30.7,42.1,30.7z"/>
		<path class="st0" d="M34.4,15.3c0,0.8,0,1.6,0,2.3c0,0.5,0.1,1,0.6,1.1c0.6,0.2,1.1-0.1,1.1-0.7c0.1-0.4,0.1-0.8,0.1-1.2
			c0-0.2,0.1-0.3,0.3-0.3c1.3,0,1.1-0.2,1.1,1.1c0,0.5-0.1,0.9-0.3,1.3c-0.2,0.6-0.8,0.9-1.4,1c-0.5,0.1-1.1,0-1.6-0.1
			c-0.7-0.2-1.2-0.7-1.4-1.4c-0.1-0.4-0.2-0.8-0.2-1.2c0-1.2,0-2.5,0-3.7c0-0.3,0.1-0.7,0.1-1c0.3-1.4,1.2-1.8,2.7-1.8
			c0.1,0,0.2,0,0.3,0.1c1.1,0.1,1.7,0.8,1.8,1.9c0,0.1,0,0.2,0,0.3c0,1.3,0.2,1.1-1.1,1.1c-0.2,0-0.3-0.1-0.3-0.3
			c0-0.4,0-0.7-0.1-1.1c-0.1-0.5-0.3-0.7-0.7-0.8c-0.5-0.1-0.9,0.1-1,0.6c-0.1,0.2-0.1,0.4-0.1,0.7C34.4,13.9,34.4,14.6,34.4,15.3
			L34.4,15.3z"/>
		<path class="st0" d="M63.3,34.8c-0.7,0-0.7,0-0.8-0.7c-0.1-0.3-0.1-0.7-0.2-1.1c0-0.2-0.1-0.3-0.4-0.3c-0.3,0-0.7,0-1,0
			c-0.2,0-0.3,0.1-0.4,0.3c-0.1,0.5-0.2,0.9-0.2,1.4c0,0.3-0.2,0.4-0.5,0.4c-1.1,0-1.1,0-0.9-1c0.5-2.5,1-5,1.5-7.5
			c0.1-0.4,0.2-0.5,0.6-0.5c1.2,0,1.2,0,1.4,1.2c0.5,2.4,1,4.9,1.5,7.3C64,34.8,64,34.8,63.3,34.8C63.5,34.8,63.4,34.8,63.3,34.8z
			 M61.5,28.1c-0.1,0-0.1,0-0.2,0c-0.2,1.1-0.4,2.2-0.5,3.3c0,0.1,0.1,0.2,0.2,0.2c0.3,0,0.7,0,1.1,0C61.9,30.4,61.7,29.3,61.5,28.1
			z"/>
		<path class="st0" d="M32.5,34.8c0.1-0.7,0.3-1.4,0.4-2c0.4-2.2,0.9-4.4,1.3-6.6c0.1-0.3,0.2-0.5,0.5-0.4c1.6,0.1,1.2-0.2,1.5,1.2
			c0.5,2.4,1,4.8,1.5,7.2c0,0.2,0.1,0.3,0.1,0.6c-0.5,0-0.9,0-1.3,0c-0.1,0-0.2-0.2-0.2-0.3c-0.1-0.5-0.2-1-0.3-1.4
			c0-0.1-0.2-0.2-0.3-0.3s-0.3,0-0.5,0c-1,0-0.8-0.2-1.1,0.9c0,0.1,0,0.2-0.1,0.3c-0.2,0.9-0.2,0.9-1.1,0.9
			C32.9,34.8,32.7,34.8,32.5,34.8z M35.2,28.1C35.1,28.1,35.1,28.1,35.2,28.1c-0.3,1.2-0.5,2.3-0.7,3.6c0.4,0,0.7,0,1,0
			s0.3-0.1,0.3-0.4c-0.1-0.6-0.2-1.2-0.3-1.8C35.4,29,35.3,28.6,35.2,28.1z"/>
		<path class="st0" d="M82.9,34.8c-0.7,0-0.7,0-0.8-0.7C82,33.8,82,33.4,81.9,33c0-0.2-0.2-0.3-0.4-0.3c-0.2,0-0.5,0-0.7,0
			c-0.7,0-0.7,0-0.8,0.7c0,0.3-0.1,0.5-0.1,0.8c-0.1,0.6-0.1,0.6-0.7,0.6c-1,0-0.9,0.1-0.7-0.9c0.5-2.5,1-5.1,1.5-7.6
			c0.1-0.4,0.2-0.6,0.7-0.6c1.1,0,1.1,0,1.3,1.1c0.5,2.4,1,4.9,1.5,7.3c0.1,0.6,0.1,0.6-0.5,0.6C83,34.8,83,34.8,82.9,34.8z
			 M81.1,28.1L81.1,28.1c-0.1,0.1-0.2,0.2-0.2,0.3c-0.1,0.8-0.3,1.7-0.4,2.5c-0.1,0.9-0.1,0.9,0.8,0.9c0.3,0,0.4-0.1,0.3-0.4
			C81.4,30.3,81.2,29.2,81.1,28.1z"/>
		<path class="st0" d="M50.6,10.9c1,0,0.8-0.1,1,0.8c0.5,2.6,1.1,5.2,1.6,7.8c0.1,0.3,0,0.4-0.3,0.4c-1.3,0-1,0.2-1.2-1
			c-0.3-1.3,0-1.1-1.3-1.1c-0.3,0-0.5,0.1-0.6,0.5c0,0.4-0.2,0.8-0.2,1.2c0,0.3-0.2,0.5-0.5,0.5c-1.1,0-1.1,0-0.9-1
			c0.5-2.5,1-5,1.5-7.5C49.7,10.8,49.7,10.9,50.6,10.9z M50.7,13.2L50.7,13.2c-0.1,0.1-0.2,0.1-0.2,0.2c-0.1,0.8-0.3,1.7-0.4,2.5
			c-0.2,0.9-0.1,0.9,0.8,0.9c0.3,0,0.3-0.1,0.3-0.4C51,15.3,50.8,14.3,50.7,13.2z"/>
		<path class="st0" d="M74.8,19.9c-0.7,0-0.7,0.2-0.8-0.7c-0.1-0.4-0.1-0.7-0.2-1.1c0-0.2-0.2-0.3-0.4-0.4c-1.2-0.1-1.2-0.1-1.5,1.1
			c-0.2,1.1-0.2,1.1-1.3,1c-0.3,0-0.3-0.1-0.3-0.4c0.3-1.6,0.7-3.2,1-4.8c0.2-1.1,0.5-2.3,0.7-3.4c0.1-0.3,0.2-0.4,0.5-0.4
			c1.2,0,1.2,0,1.5,1.2c0.5,2.4,1,4.8,1.5,7.1C75.6,19.9,75.6,19.9,74.8,19.9z M73,13.1c-0.1,0.1-0.1,0.1-0.1,0.1
			c-0.2,1.1-0.4,2.2-0.5,3.3c0,0.1,0.1,0.3,0.2,0.3c0.3,0,0.6,0,0.9,0c0.1,0,0.2-0.2,0.2-0.3C73.4,15.4,73.2,14.2,73,13.1z"/>
		<path class="st0" d="M56.8,28.3c-0.1-0.3-0.1-0.5-0.2-0.8c-0.1-0.5-0.5-0.7-0.9-0.7c-0.5,0.1-0.7,0.4-0.7,0.9
			c0,0.4,0.2,0.8,0.5,1.1c0.4,0.4,0.8,0.7,1.2,1.1c0.8,0.7,1.4,1.4,1.6,2.5c0.2,1.3-0.7,2.4-2,2.5c-1.6,0.1-2.6-0.7-2.7-2.4
			c0-0.1,0.1-0.2,0.2-0.3c0,0,0.1,0,0.2-0.1c0.9-0.2,0.9-0.2,1.1,0.6c0.1,0.2,0.2,0.5,0.3,0.6c0.2,0.3,0.6,0.4,0.9,0.3
			c0.3-0.1,0.5-0.4,0.5-0.7c0.1-0.6-0.2-1.2-0.7-1.6c-0.5-0.5-1-0.9-1.6-1.4c-0.9-0.8-1.2-1.8-0.9-2.9c0.1-0.3,0.2-0.6,0.4-0.8
			c0.7-0.7,1.6-0.7,2.5-0.6c0.9,0.2,1.2,0.9,1.4,1.6c0.2,0.6,0.1,0.6-0.5,0.8C57.2,28.2,57,28.2,56.8,28.3z"/>
		<path class="st0" d="M43.6,15.4c0-1.4,0-2.7,0-4c0-0.4,0.1-0.5,0.5-0.5c0.9,0,1.9,0,2.8,0c0.5,0,0.5,0.2,0.5,0.6
			c0,0.3,0,0.6-0.5,0.5c-0.4,0-0.9,0-1.3,0c-0.3,0-0.4,0.1-0.4,0.4c0,0.6,0,1.3,0,1.9c0,0.3,0.1,0.4,0.4,0.4c0.3,0,0.6,0,0.9,0
			c0.3,0,0.4,0.1,0.4,0.4c0,0.1,0,0.2,0,0.4c0,0.3-0.1,0.4-0.4,0.4c-0.3,0-0.6,0-1,0c-0.2,0-0.3,0.1-0.3,0.3c0,0.8,0,1.6,0,2.5
			c0,0.3,0.1,0.3,0.4,0.3c0.5,0,0.9,0,1.4,0s0.4,0.3,0.4,0.6c0,0.3-0.1,0.5-0.4,0.5c-1,0-2,0-3,0c-0.3,0-0.4-0.1-0.4-0.4
			C43.6,18.1,43.6,16.7,43.6,15.4z"/>
		<path class="st0" d="M80.9,15.3c0-1.3,0-2.7,0-4c0-0.4,0.1-0.5,0.5-0.5c0.9,0,1.9,0,2.8,0c0.5,0,0.4,0.3,0.4,0.6s0,0.5-0.4,0.5
			c-0.5,0-0.9,0-1.3,0c-0.3,0-0.4,0.1-0.4,0.4c0,0.6,0,1.3,0,1.9c0,0.3,0.1,0.4,0.4,0.4s0.7,0,1,0c0.2,0,0.4,0.1,0.3,0.3V15
			c0,0.7,0,0.7-0.7,0.7c-1.2,0-1.1-0.2-1.1,1.1c0,0.5,0,1.1,0,1.6c0,0.3,0.1,0.5,0.5,0.5c0.5,0,0.9,0,1.3,0s0.4,0.3,0.4,0.6
			c0,0.3,0,0.5-0.4,0.5c-1,0-1.9,0-2.9,0c-0.3,0-0.4-0.1-0.4-0.4C80.9,18.1,80.9,16.7,80.9,15.3z"/>
		<path class="st0" d="M85.2,30.8c0-1.1,0-2.3,0-3.5c0-0.4-0.1-0.5-0.5-0.5c-0.1,0-0.2,0-0.4,0c-0.7,0-0.7,0-0.7-0.7
			c0-0.3,0.1-0.4,0.4-0.4c1.3,0,2.5,0,3.8,0c0.3,0,0.4,0.1,0.4,0.5c0,0.7,0,0.7-0.7,0.7c-0.8,0-0.8,0-0.8,0.8c0,2.2,0,4.4,0,6.6
			c0,0.4-0.1,0.5-0.5,0.5c-1,0-1,0-1-1.1C85.2,32.8,85.2,31.8,85.2,30.8z"/>
		<path class="st0" d="M77.1,15.9c0-1.1,0-2.3,0-3.4c0-0.4-0.1-0.6-0.5-0.6c-0.1,0-0.2,0-0.3,0c-0.7,0-0.9-0.3-0.7-0.9
			c0-0.1,0.2-0.2,0.3-0.2c1.3,0,2.6,0,3.9,0c0.2,0,0.3,0.1,0.3,0.3c0,0.1,0,0.2,0,0.4c0,0.3-0.1,0.4-0.4,0.4c-1.1,0-1.1,0-1.1,1.1
			c0,2.1,0,4.2,0,6.3c0,0.4-0.1,0.5-0.6,0.5c-1,0-1,0-1-1C77.1,17.9,77.1,16.9,77.1,15.9z"/>
		<path class="st0" d="M75,30.9c0-1.2,0-2.3,0-3.5c0-0.4-0.1-0.5-0.5-0.5c-0.1,0-0.2,0-0.4,0c-0.6,0-0.9-0.4-0.6-0.9
			c0-0.1,0.2-0.2,0.3-0.2c1.3,0,2.6,0,3.9,0c0.2,0,0.3,0.1,0.3,0.3c0,0.1,0,0.2,0,0.3c0.1,0.4-0.1,0.5-0.5,0.5c-1.1,0-1-0.2-1,1
			c0,2.1,0,4.3,0,6.4c0,0.4-0.1,0.5-0.5,0.5c-1,0-1,0-1-1C75,32.8,75,31.8,75,30.9z"/>
		<path class="st0" d="M40.6,14.9c0,1.2,0,2.3,0,3.5c0,0.4,0.1,0.5,0.5,0.5c0.5,0,0.9,0,1.3,0c0.5,0,0.4,0.3,0.4,0.6
			c0,0.3,0,0.5-0.4,0.5c-1,0-2,0-3,0c-0.3,0-0.4-0.1-0.4-0.4c0-2.8,0-5.5,0-8.3c0-0.3,0.1-0.4,0.4-0.4c1.5,0,1.2-0.2,1.2,1.1
			C40.6,12.9,40.6,13.9,40.6,14.9z"/>
		<path class="st0" d="M72.7,30.3c0,1.4,0,2.7,0,4c0,0.3-0.1,0.5-0.5,0.5c-0.2,0-0.5,0-0.7,0c-0.3,0-0.4-0.1-0.4-0.4
			c0-2.7,0-5.4,0-8.2c0-0.3,0.1-0.4,0.4-0.5c1.2,0,1.2,0,1.2,1.2C72.7,28.1,72.7,29.2,72.7,30.3z"/>
		<path class="st0" d="M89,30.3c0-1.4,0-2.7,0-4.1c0-0.3,0.1-0.5,0.5-0.5c1.3,0,1.1-0.2,1.1,1.1c0,2.5,0,4.9,0,7.4
			c0,0.6,0,0.6-0.5,0.6c-1,0-1,0-1-1C89,32.7,89,31.5,89,30.3z"/>
	</g>
</g>
</svg>
