<?xml version="1.0" encoding="utf-8"?>
<!-- Generator: Adobe Illustrator 24.1.2, SVG Export Plug-In . SVG Version: 6.00 Build 0)  -->
<svg version="1.1" id="Layer_1" xmlns="http://www.w3.org/2000/svg" xmlns:xlink="http://www.w3.org/1999/xlink" x="0px" y="0px"
	 viewBox="0 0 125 125" style="enable-background:new 0 0 125 125;" xml:space="preserve">
<style type="text/css">
	.st0{fill:#FCC30C;}
</style>
<g>
	<g>
		<path class="st0" d="M62.6,61C72.8,61,81,69.2,81,79.4c0,10-8,18.5-18.4,18.5c-10.3,0-18.4-8.3-18.4-18.2
			C44.1,69.3,52.3,61,62.6,61z M65.5,70.1c0,0.2-0.1,0.4-0.1,0.6c0,0.8,0,1.6,0,2.4c0,0.4,0.1,0.7,0.5,0.9c2.3,1.4,3.4,4,2.8,6.6
			c-0.7,3.3-3.6,5.3-7,4.9c-2.8-0.3-5.5-2.8-5.4-6.4c0.1-2.3,1.1-4.1,3.1-5.2c0.2-0.2,0.3-0.3,0.3-0.6c0-0.9,0-1.8,0-2.7
			c0-0.1,0-0.3-0.1-0.5c-1.8,0.6-3.2,1.5-4.4,2.9c-1.6,1.9-2.4,4.1-2.3,6.6c0.2,5.3,4.5,9.3,9.7,9.3c5.2-0.1,9.5-4.2,9.6-9.4
			c0.1-2.5-0.8-4.7-2.4-6.6C68.6,71.6,67.2,70.7,65.5,70.1z M64,71.4c0-1,0-2,0-3c0-0.9-0.6-1.5-1.4-1.5c-0.8,0-1.4,0.6-1.4,1.5
			c0,2,0,4,0,6c0,0.8,0.6,1.5,1.4,1.5c0.7,0,1.4-0.7,1.4-1.5C64,73.4,64,72.4,64,71.4z"/>
		<path class="st0" d="M16.7,14.3c-0.3,0-0.4,0-0.6,0c-1.8,0-3.6,0-5.4,0c-0.4,0-0.5-0.1-0.5-0.5c0-0.8,0-1.7,0-2.5
			c0-0.3,0.1-0.4,0.4-0.4c3.4,0,6.8,0,10.1,0c0.4,0,0.4,0.2,0.4,0.5c0.2,2-0.3,3.9-0.8,5.8c-1.4,5.7-2.7,11.3-4.1,17
			c-0.1,0.6-0.1,0.6-0.8,0.6c-1.1,0-2.2,0-3.2,0c-0.2,0-0.3,0-0.5,0C13.4,27.8,15,21.1,16.7,14.3z"/>
		<path class="st0" d="M73.2,15c1,0.3,1.4,1,1.4,2c0,0.4,0,0.7-0.1,1.1c-0.2,1.1-1,1.8-2.2,1.8c-0.8,0-1.7,0-2.5,0
			c-0.3,0-0.4-0.1-0.4-0.4c0-2.8,0-5.6,0-8.3c0-0.1,0.2-0.4,0.3-0.4c1,0,1.9-0.1,2.9,0.1c1.1,0.2,1.6,0.8,1.6,2c0,0.4,0,0.7-0.1,1.1
			C74.1,14.5,73.7,14.8,73.2,15z M71.1,17.2L71.1,17.2c0,0.4,0,0.8,0,1.2c0,0.1,0.1,0.3,0.2,0.3c0.7,0.3,1.6-0.2,1.8-0.9
			c0.1-0.3,0.1-0.6,0.1-0.8c-0.1-1-0.6-1.4-1.6-1.4c-0.2,0-0.3,0.1-0.3,0.3C71.1,16.4,71.1,16.8,71.1,17.2z M71.1,13.2
			c0,0.3,0,0.7,0,1c0,0.1,0.1,0.2,0.1,0.3c0.3,0.2,1.3,0,1.5-0.4c0.3-0.6,0.3-1.1,0-1.7c-0.3-0.5-0.9-0.4-1.4-0.5
			c-0.1,0-0.2,0.2-0.3,0.3C71.1,12.6,71.1,12.9,71.1,13.2z"/>
		<path class="st0" d="M57.9,15.4c0-1.4,0-2.7,0-4.1c0-0.4,0.1-0.5,0.5-0.5c0.8,0,1.6,0,2.4,0.1c1.2,0.1,2,0.6,2,1.8
			c0.1,1.7,0.1,3.4,0,5.1c-0.1,1.4-0.9,2-2.2,2.1c-0.8,0.1-1.6,0-2.3,0c-0.3,0-0.3-0.2-0.3-0.4C57.9,18.1,57.9,16.8,57.9,15.4z
			 M59.6,15.3c0,1,0,2,0,3c0,0.1,0.1,0.3,0.2,0.4c0.7,0.2,1.4-0.2,1.5-1c0-0.2,0-0.3,0-0.5c0-1.3,0-2.7,0-4c0-1-0.3-1.3-1.3-1.4
			c-0.3,0-0.5,0.1-0.5,0.4C59.6,13.3,59.6,14.3,59.6,15.3z"/>
		<path class="st0" d="M103.6,15.3c0,0.8,0.1,1.7,0,2.5c-0.2,1.4-0.9,2-2.3,2.1c-0.7,0-1.5,0-2.2,0c-0.2,0-0.3-0.1-0.3-0.3
			c0-2.8,0-5.6,0-8.4c0-0.1,0.2-0.3,0.3-0.3c1,0,1.9-0.1,2.9,0.1c1.2,0.2,1.8,0.9,1.8,2.3C103.7,13.9,103.6,14.6,103.6,15.3
			L103.6,15.3z M100.3,15.3c0,1,0,2,0,3c0,0.3,0.1,0.4,0.4,0.4c0.9,0,1.3-0.3,1.3-1.3c0-1.4,0-2.8,0-4.2c0-1-0.3-1.3-1.3-1.3
			c-0.3,0-0.4,0.1-0.4,0.4C100.3,13.3,100.3,14.3,100.3,15.3z"/>
		<path class="st0" d="M80.5,34.8c-0.5,0-1,0-1.5,0c-0.1,0-0.2-0.2-0.2-0.3c-0.3-1.1-0.6-2.3-0.9-3.4c-0.1-0.2-0.1-0.4-0.4-0.4
			S77,30.8,77,31.1c0,1.1,0,2.2,0,3.3c0,0.3-0.1,0.4-0.4,0.4c-1.2,0-1.2,0-1.2-1.2c0-2.4,0-4.9,0-7.3c0-0.6,0-0.6,0.6-0.6
			c0.7,0,1.4,0,2,0c1.5,0.1,2.3,0.7,2.3,2.3c0,0.9-0.1,1.7-0.9,2.2c-0.1,0.1-0.1,0.3-0.1,0.4c0.3,1.2,0.6,2.3,1,3.5
			C80.4,34.4,80.5,34.5,80.5,34.8z M77.1,28.2c0,0.4,0,0.7,0,1.1c0,0.1,0.1,0.2,0.2,0.3c0.3,0.1,1.1-0.1,1.3-0.3
			c0.3-0.4,0.4-1.4,0.2-1.9c-0.3-0.6-0.8-0.5-1.3-0.6c-0.2,0-0.3,0.1-0.3,0.3C77.1,27.5,77.1,27.9,77.1,28.2z"/>
		<path class="st0" d="M57,19.9c-0.5,0-1,0-1.4,0c-0.1,0-0.2-0.2-0.3-0.3c-0.3-1.1-0.6-2.3-0.9-3.4c0-0.1-0.2-0.3-0.3-0.4
			c-0.3-0.1-0.5,0.1-0.5,0.5c0,1.1,0,2.2,0,3.2c0,0.3-0.1,0.5-0.5,0.5C52,20,52,20,52,18.9c0-2.5,0-4.9,0-7.4c0-0.6,0-0.6,0.6-0.6
			c0.9,0,1.8,0,2.6,0.1c1.2,0.2,1.7,0.8,1.7,2c0,0.5,0,1-0.2,1.5c-0.1,0.3-0.3,0.6-0.6,0.8c-0.2,0.2-0.3,0.3-0.2,0.6
			c0.4,1.2,0.7,2.5,1,3.7C56.9,19.6,56.9,19.7,57,19.9z M53.5,13.3c0,0.4,0,0.7,0,1.1c0,0.1,0.1,0.2,0.2,0.3
			c0.3,0.1,1.1-0.1,1.4-0.4c0.3-0.4,0.4-1.4,0.1-1.9c-0.2-0.4-0.7-0.6-1.3-0.5c-0.2,0-0.3,0.2-0.3,0.3C53.5,12.6,53.5,13,53.5,13.3z
			"/>
		<path class="st0" d="M94.1,14.7c0,1.1,0,2.2,0,3.2c0,0.5,0,1.1,0,1.6c0,0.2-0.1,0.3-0.3,0.3c-1.1,0.1-1.1,0.1-1.1-1
			c0-2.5,0-5,0-7.4c0-0.2-0.2-0.6,0.2-0.6c0.6-0.1,0.9,0,1.1,0.4c0.6,1.4,1.2,2.7,1.8,4c0.1,0.2,0.1,0.3,0.3,0.4c0-0.1,0-0.3,0-0.4
			c0-1.3,0-2.7,0-4c0-0.4,0.1-0.5,0.5-0.5c0.9,0,0.8,0,0.8,0.8c0,2.6,0,5.1,0,7.7c0,0.2,0.2,0.5-0.2,0.6c-0.6,0.1-0.8,0-1-0.4
			c-0.6-1.5-1.3-3-1.9-4.5c-0.1-0.1-0.1-0.2-0.2-0.3C94.2,14.7,94.2,14.7,94.1,14.7z"/>
		<path class="st0" d="M53.3,29.7c0,0.1,0,0.3,0,0.4c0,1.4,0,2.8,0,4.3c0,0.3-0.1,0.5-0.5,0.5c-0.9,0-0.9,0-0.9-0.9
			c0-2.5,0-5.1,0-7.6c0-0.2-0.1-0.5,0.2-0.5s0.8-0.2,1,0.3c0.6,1.4,1.2,2.8,1.8,4.2c0.1,0.1,0.1,0.2,0.3,0.4c0-0.2,0-0.3,0-0.5
			c0-1.3,0-2.6,0-4c0-0.4,0.1-0.5,0.5-0.5c0.9,0,0.8-0.1,0.8,0.8c0,2.6,0,5.1,0,7.7c0,0.2,0.2,0.5-0.2,0.6c-0.6,0.1-0.8,0-1-0.4
			c-0.6-1.4-1.2-2.9-1.8-4.3C53.4,30.1,53.4,29.9,53.3,29.7C53.4,29.7,53.4,29.7,53.3,29.7z"/>
		<path class="st0" d="M66.3,29.6c0,0.3,0,0.6,0,0.9c0,1.3,0,2.6,0,3.9c0,0.3-0.1,0.4-0.4,0.4c-1,0-1,0-1-0.9c0-2.5,0-5,0-7.5
			c0-0.2-0.2-0.5,0.2-0.6c0.6-0.1,0.9,0,1.1,0.4c0.6,1.4,1.2,2.7,1.8,4.1c0.1,0.2,0.2,0.3,0.3,0.5c0-0.1,0-0.3,0-0.4
			c0-1.3,0-2.7,0-4c0-0.4,0.1-0.6,0.5-0.5c0.9,0,0.8-0.1,0.8,0.8c0,2.6,0,5.1,0,7.7c0,0.2,0.2,0.5-0.2,0.6c-0.5,0.1-0.9,0-1-0.4
			c-0.6-1.5-1.3-3.1-1.9-4.6C66.5,29.8,66.4,29.7,66.3,29.6C66.4,29.6,66.4,29.6,66.3,29.6z"/>
		<path class="st0" d="M79.4,52.8c-0.1,0.2-0.1,0.5-0.2,0.7c-1.3,2.3-2.6,4.6-3.9,6.9c-0.4,0.7-1.3,0.9-2,0.5s-1-1.3-0.6-2
			c1.3-2.3,2.6-4.6,4-6.9c0.3-0.6,1.1-0.8,1.8-0.6C78.9,51.5,79.3,52.1,79.4,52.8z"/>
		<path class="st0" d="M44.4,67.7c0,1.4-1.2,2.1-2.2,1.6c-1.7-0.9-3.4-1.9-5-2.9c-0.6-0.3-1.2-0.7-1.8-1c-0.7-0.4-1-1.3-0.6-2
			c0.4-0.7,1.3-1,2.1-0.5c2.3,1.3,4.5,2.6,6.8,3.9C44.2,67,44.4,67.4,44.4,67.7z"/>
		<path class="st0" d="M51.1,61.1c-0.4,0-0.9-0.2-1.2-0.8c-1.3-2.2-2.5-4.4-3.8-6.6c-0.2-0.3-0.3-0.7-0.3-1c0-0.7,0.4-1.3,1.1-1.4
			c0.7-0.2,1.3,0.1,1.7,0.7c1.3,2.3,2.6,4.6,3.9,6.9C53.2,59.9,52.5,61.1,51.1,61.1z"/>
		<path class="st0" d="M52.9,99.1c-0.1,0.2-0.1,0.5-0.3,0.7c-1.3,2.2-2.6,4.5-3.8,6.7c-0.5,0.8-1.3,1-2.1,0.6
			c-0.7-0.4-1-1.3-0.5-2.1c1.3-2.3,2.6-4.5,3.9-6.8c0.4-0.6,1.1-0.9,1.8-0.7C52.4,97.7,52.8,98.3,52.9,99.1z"/>
		<path class="st0" d="M90.7,94.5c0,1.1-1.2,1.9-2.2,1.3c-2.3-1.3-4.6-2.6-6.9-3.9c-0.7-0.4-0.9-1.3-0.5-2s1.3-1,2-0.6
			c2.3,1.3,4.7,2.7,7,4C90.5,93.5,90.7,94,90.7,94.5z"/>
		<path class="st0" d="M82.4,69.5c-0.7-0.1-1.3-0.5-1.5-1.1c-0.2-0.7,0.1-1.4,0.7-1.7c2.3-1.3,4.5-2.6,6.8-3.9
			c0.7-0.4,1.6-0.2,2,0.5c0.4,0.7,0.2,1.6-0.6,2.1c-2.2,1.3-4.5,2.6-6.7,3.9C82.9,69.3,82.6,69.4,82.4,69.5z"/>
		<path class="st0" d="M44.4,90.6c0,0.6-0.2,1.1-0.8,1.4c-2.3,1.3-4.5,2.6-6.8,3.9c-0.7,0.4-1.7,0.2-2.1-0.5c-0.4-0.7-0.2-1.6,0.6-2
			c2.3-1.3,4.5-2.6,6.8-3.9C43.2,88.7,44.4,89.4,44.4,90.6z"/>
		<path class="st0" d="M73.9,97.5c0.6,0,1,0.2,1.3,0.7c1.3,2.3,2.6,4.5,3.9,6.8c0.5,1,0,2.1-1.1,2.2c-0.6,0.1-1.1-0.1-1.5-0.7
			c-1.3-2.3-2.7-4.6-4-6.9C72.1,98.7,72.8,97.5,73.9,97.5z"/>
		<path class="st0" d="M50.9,15.4c-0.1,0.9,0,1.9-0.2,2.8c-0.2,1.1-1,1.8-2.1,1.8c-0.4,0-0.7,0-1.1,0c-1.1-0.2-1.8-1-1.8-2.2
			c-0.1-1.6-0.1-3.2,0-4.8c0.1-1.8,1.2-2.3,2.7-2.2c1.6,0.1,2.3,0.8,2.4,2.4C50.9,13.9,50.9,14.6,50.9,15.4L50.9,15.4z M49.2,15.3
			L49.2,15.3c0-0.9,0-1.7,0-2.5c0-0.6-0.4-0.9-1-0.9s-0.9,0.3-0.9,0.9c0,1.7,0,3.3,0,5c0,0.6,0.3,1,0.9,1c0.6,0,0.9-0.3,1-1
			C49.2,17,49.2,16.2,49.2,15.3z"/>
		<path class="st0" d="M89.3,80.8c-1.3,0-2.5,0-3.8,0c-1,0-1.6-0.6-1.6-1.5s0.7-1.5,1.6-1.5c2.6,0,5.1,0,7.7,0c0.7,0,1.2,0.4,1.5,1
			c0.2,0.6,0,1.3-0.5,1.6c-0.3,0.2-0.7,0.3-1,0.3C91.9,80.8,90.6,80.8,89.3,80.8z"/>
		<path class="st0" d="M61.1,52.6c0-1.3,0-2.6,0-3.8c0-0.9,0.6-1.6,1.5-1.6s1.5,0.7,1.5,1.6c0,2.6,0,5.2,0,7.7
			c0,0.9-0.7,1.6-1.5,1.6c-0.9,0-1.5-0.7-1.5-1.6C61.1,55.2,61.1,53.9,61.1,52.6z"/>
		<path class="st0" d="M64.1,106c0,1.3,0,2.6,0,3.9c0,0.7-0.4,1.2-1,1.4c-0.6,0.2-1.3,0.1-1.6-0.5c-0.2-0.3-0.3-0.6-0.3-0.9
			c0-2.6,0-5.3,0-7.9c0-0.9,0.6-1.5,1.5-1.5c0.8,0,1.5,0.6,1.5,1.5C64.1,103.3,64.1,104.6,64.1,106z"/>
		<path class="st0" d="M36,80.8c-1.3,0-2.6,0-3.8,0c-0.9,0-1.6-0.6-1.6-1.5c0-0.8,0.7-1.5,1.6-1.5c2.6,0,5.2,0,7.7,0
			c0.7,0,1.3,0.5,1.5,1.1s-0.1,1.3-0.7,1.6c-0.3,0.1-0.6,0.2-0.9,0.2C38.5,80.8,37.2,80.8,36,80.8z"/>
		<path class="st0" d="M85.3,34c-0.4,0.6-0.7,0.9-1.4,1c-1.5,0.1-2.4-0.5-2.5-2.1c-0.1-1.8-0.1-3.5,0-5.3c0.1-1.2,0.9-1.8,2.1-1.9
			c0.1,0,0.1,0,0.2,0c1.9,0,2.7,0.9,2.6,2.7c0,0.2-0.1,0.4-0.3,0.3h-0.1c-0.3,0-0.8,0.1-1-0.1c-0.2-0.1-0.1-0.6-0.1-0.9
			c-0.1-0.6-0.4-0.9-0.9-0.9c-0.6,0-0.9,0.3-0.9,0.9c0,1.7,0,3.4,0,5c0,0.8,0.6,1.2,1.3,0.9c0.4-0.1,0.5-0.5,0.6-0.8
			C85,32.4,85,32,85,31.6c0-0.3-0.1-0.5-0.5-0.5c-0.5,0-0.7-0.4-0.5-0.9c0-0.1,0.2-0.1,0.3-0.1c0.6,0,1.2,0,1.8,0
			c0.2,0,0.3,0.1,0.3,0.3c0,1.3,0,2.6,0,3.9c0,0.2-0.1,0.3-0.3,0.3c-0.3,0-0.6,0.2-0.7-0.3C85.3,34.4,85.3,34.3,85.3,34z"/>
		<path class="st0" d="M32.9,30.3c0,0.9,0,1.8,0,2.6c0,0.6,0.4,0.9,0.9,0.9s0.8-0.3,0.8-0.9c0-0.3,0-0.7,0-1s0.1-0.4,0.4-0.4
			c0.3,0,0.6,0,0.9,0c0.1,0,0.3,0.1,0.3,0.2c0,0.8,0,1.6-0.3,2.3c-0.1,0.2-0.2,0.4-0.4,0.5c-0.9,0.7-1.8,0.6-2.8,0.3
			c-0.9-0.3-1.4-1-1.4-1.9c-0.1-1.8-0.1-3.5,0-5.3c0.1-1.2,0.9-1.9,2.1-2c2-0.1,2.8,0.7,2.8,2.6c0,0.1,0,0.2,0,0.4
			c0,0.3-0.1,0.3-0.3,0.3c-0.3,0-0.6,0-0.9,0c-0.3,0-0.3-0.1-0.3-0.3c0-0.4,0-0.7-0.1-1.1c-0.1-0.5-0.3-0.7-0.8-0.7S33,27,32.9,27.5
			c-0.1,0.2-0.1,0.5-0.1,0.7C32.8,28.9,32.8,29.6,32.9,30.3C32.8,30.3,32.9,30.3,32.9,30.3z"/>
		<path class="st0" d="M48.6,25.7c1,0,0.7-0.2,0.9,0.9c0.5,2.6,1,5.2,1.6,7.7c0.1,0.3,0,0.5-0.4,0.5c-1.3-0.1-1,0.2-1.2-1.1
			c-0.2-1-0.2-1-1.2-1c-0.5,0-0.7,0.1-0.7,0.6c0,0.4-0.1,0.8-0.2,1.2c0,0.1-0.1,0.2-0.1,0.3c-0.5,0-0.9,0-1.4,0c0,0-0.1-0.2-0.1-0.3
			c0.6-2.8,1.1-5.6,1.7-8.4c0-0.1,0.2-0.2,0.4-0.3C48.1,25.7,48.3,25.7,48.6,25.7z M49.1,31.6c-0.2-1.1-0.4-2.3-0.6-3.5
			c-0.1,0.1-0.2,0.2-0.2,0.3c-0.1,0.7-0.2,1.5-0.4,2.3c-0.2,1.1-0.2,1.1,1,1C49,31.6,49,31.6,49.1,31.6z"/>
		<path class="st0" d="M68.7,19.9c-0.5,0-0.9,0-1.2,0c-0.1,0-0.3-0.2-0.3-0.3c-0.1-0.5-0.2-0.9-0.2-1.4c0-0.3-0.2-0.4-0.5-0.4
			c-1.5,0-1.1-0.2-1.4,1.2c-0.2,1.2,0,0.9-1.1,1c-0.2,0-0.3,0-0.6,0c0.2-0.8,0.3-1.5,0.4-2.2c0.4-2.2,0.9-4.3,1.3-6.4
			c0.1-0.4,0.2-0.5,0.6-0.5c1.5,0.1,1.1-0.2,1.5,1.2c0.5,2.5,1,5,1.5,7.5C68.7,19.7,68.7,19.7,68.7,19.9z M66.1,13.2L66.1,13.2
			c-0.2,0.9-0.4,1.8-0.6,2.7c-0.1,0.9-0.3,0.8,0.8,0.8c0.2,0,0.3-0.1,0.3-0.3c-0.1-0.7-0.2-1.4-0.4-2.2
			C66.2,13.9,66.2,13.5,66.1,13.2z"/>
		<path class="st0" d="M30.9,19.9c0.2-0.9,0.3-1.7,0.5-2.5c0.4-2,0.8-4,1.2-6.1c0.1-0.4,0.2-0.5,0.6-0.5c1.2,0,1.2,0,1.4,1.2
			c0.5,2.5,1,5,1.5,7.4c0.1,0.3,0,0.5-0.3,0.5c-1.1,0-1.1,0-1.3-1.1s-0.2-1.1-1.3-1.1c-0.4,0-0.6,0.1-0.6,0.5
			c-0.1,0.4-0.1,0.9-0.2,1.3c0,0.3-0.1,0.4-0.4,0.4C31.7,19.9,31.3,19.9,30.9,19.9z M33.6,13.2L33.6,13.2c-0.3,0.9-0.4,1.8-0.6,2.7
			c-0.1,0.9-0.1,0.8,0.7,0.8c0.3,0,0.4-0.1,0.3-0.4c-0.1-0.3-0.1-0.6-0.2-0.9C33.9,14.7,33.8,14,33.6,13.2z"/>
		<path class="st0" d="M92,19.9c-0.5,0-0.9,0-1.3,0c-0.1,0-0.2-0.2-0.2-0.3c-0.1-0.5-0.2-1-0.3-1.4c0-0.3-0.2-0.4-0.5-0.4
			c-1.2,0-1.2-0.1-1.4,1.1c-0.2,1-0.2,1-1.2,1c-0.1,0-0.2,0-0.4,0c0-0.1,0-0.2,0-0.3c0.6-2.8,1.1-5.6,1.7-8.4
			c0.1-0.3,0.2-0.4,0.5-0.4c1.3-0.1,1.3-0.1,1.6,1.3c0.5,2.4,1,4.9,1.5,7.3C92,19.5,92,19.7,92,19.9z M89.4,13.2L89.4,13.2
			c-0.1,0.1-0.2,0.3-0.2,0.4c-0.1,0.8-0.2,1.5-0.4,2.3c-0.1,0.9-0.3,0.8,0.7,0.8c0.3,0,0.4-0.1,0.3-0.4c-0.1-0.2-0.1-0.4-0.1-0.6
			C89.7,14.9,89.6,14,89.4,13.2z"/>
		<path class="st0" d="M41.7,30.2c0-1.4,0-2.7,0-4c0-0.3,0.1-0.5,0.4-0.5c1,0,2,0,3,0c0.5,0,0.4,0.2,0.4,0.5s0.1,0.6-0.4,0.6
			c-0.4,0-0.9,0-1.3,0c-0.3,0-0.4,0.1-0.4,0.4c0,0.6,0,1.2,0,1.9c0,0.3,0.1,0.4,0.4,0.4c0.3,0,0.6,0,0.9,0c0.3,0,0.4,0.1,0.4,0.4V30
			c0,0.6,0,0.6-0.6,0.6c-1.1,0-1.1,0-1.1,1.1c0,0.5,0,1.1,0,1.6c0,0.3,0.1,0.4,0.4,0.4c0.5,0,0.9,0,1.4,0s0.4,0.3,0.4,0.6
			s0,0.5-0.4,0.5c-1,0-2,0-3,0c-0.3,0-0.4-0.1-0.4-0.4C41.7,33,41.7,31.6,41.7,30.2z"/>
		<path class="st0" d="M60.3,30.3c0-1.4,0-2.7,0-4.1c0-0.4,0.1-0.5,0.5-0.5c1,0,1.9,0,2.9,0c0.5,0,0.5,0.2,0.5,0.6s-0.1,0.6-0.5,0.6
			s-0.9,0-1.3,0c-0.3,0-0.4,0.1-0.4,0.4c0,0.7,0,1.3,0,2c0,0.2,0.1,0.3,0.3,0.3c0.3,0,0.7,0,1,0c0.2,0,0.3,0.1,0.3,0.3
			c0,0.8,0.1,0.8-0.8,0.8c-1.1,0-0.9-0.1-0.9,0.9c0,0.5,0,1.1,0,1.6c0,0.6,0,0.6,0.6,0.6c0.4,0,0.8,0,1.2,0c0.3,0,0.4,0.1,0.4,0.4
			c0,0.7,0,0.7-0.7,0.7c-0.9,0-1.8,0-2.7,0c-0.3,0-0.5-0.1-0.5-0.5C60.4,33,60.3,31.7,60.3,30.3z"/>
		<path class="st0" d="M80,15.3c0-1.4,0-2.7,0-4.1c0-0.3,0.1-0.5,0.5-0.5c1,0,1.9,0,2.9,0c0.5,0,0.4,0.3,0.4,0.6s0,0.6-0.5,0.5
			c-0.5,0-0.9,0-1.4,0c-0.2,0-0.3,0.1-0.3,0.3c0,0.7,0,1.3,0,2c0,0.3,0.1,0.3,0.3,0.3c0.3,0,0.6,0,1,0c0.3,0,0.4,0.1,0.4,0.4
			c0,0.7,0,0.7-0.7,0.7c-1,0-1,0-1,0.9c0,0.5,0,1.1,0,1.6c0,0.6,0,0.6,0.6,0.6c0.4,0,0.8,0,1.2,0c0.3,0,0.4,0.1,0.4,0.4
			c0,0.7,0,0.7-0.7,0.7c-0.9,0-1.8,0-2.7,0c-0.4,0-0.5-0.1-0.5-0.5C80,18.1,80,16.7,80,15.3z"/>
		<path class="st0" d="M70.9,30.3c0-1.4,0-2.7,0-4.1c0-0.3,0.1-0.5,0.5-0.5c0.9,0,1.9,0,2.8,0c0.5,0,0.5,0.2,0.5,0.6
			s-0.1,0.6-0.5,0.6s-0.8,0-1.2,0c-0.3,0-0.4,0.1-0.4,0.4c0,0.6,0,1.3,0,1.9c0,0.3,0.1,0.4,0.4,0.4s0.6,0,1,0c0.3,0,0.4,0.1,0.4,0.4
			c0,0.8,0,0.8-0.7,0.8c-1,0-1,0-1,1c0,0.6,0,1.2,0,1.8c0,0.3,0.1,0.4,0.4,0.4c0.5,0,0.9,0,1.4,0c0.3,0,0.5,0.1,0.4,0.4
			c-0.1,0.2,0.2,0.6-0.3,0.7c-1.1,0-2.2,0-3.3,0c-0.3,0-0.3-0.2-0.3-0.4C70.9,33,70.9,31.6,70.9,30.3z"/>
		<path class="st0" d="M92.1,25.7c-0.1,0.3-0.2,0.6-0.3,0.9c-0.5,1.4-0.9,2.7-1.3,4.1c-0.1,0.4-0.2,0.9-0.2,1.3c0,0.8,0,1.6,0,2.4
			c0,0.3-0.1,0.4-0.4,0.4c-1.1,0-1.2,0-1.1-1.1c0.1-1.6-0.2-3.2-0.8-4.7c-0.3-0.9-0.6-1.8-0.9-2.8C87,26.1,87,26,86.9,25.8
			c0.5,0,0.9,0,1.3,0c0.1,0,0.2,0.2,0.3,0.3c0.3,0.9,0.6,1.8,0.9,2.7c0.1,0.1,0.1,0.3,0.2,0.5c0.1-0.2,0.1-0.4,0.2-0.5
			c0.3-0.9,0.5-1.8,0.8-2.6c0.1-0.3,0.3-0.5,0.6-0.5C91.4,25.8,91.7,25.7,92.1,25.7z"/>
		<path class="st0" d="M37,15.3c0-1.4,0-2.7,0-4c0-0.4,0.1-0.5,0.5-0.5c0.9,0,1.8,0,2.7,0c0.5,0,0.5,0,0.5,0.6s0,0.5-0.5,0.5
			c-0.4,0-0.8,0-1.2,0c-0.3,0-0.4,0.1-0.4,0.4c0,0.7,0,1.3,0,2c0,0.3,0.1,0.4,0.4,0.4c0.3,0,0.6,0,0.9,0c0.3,0,0.5,0.1,0.4,0.4
			c0,0.1,0,0.2,0,0.3c0,0.3-0.1,0.4-0.4,0.4c-0.3,0-0.5,0-0.8,0c-0.4-0.1-0.5,0.1-0.5,0.5c0,1,0,2.1,0,3.1c0,0.4-0.1,0.5-0.5,0.5
			c-1.1,0-1.1,0-1.1-1.1C37,17.7,37,16.5,37,15.3z"/>
		<path class="st0" d="M41.4,15.3c0-1.3,0-2.7,0-4c0-0.4,0.1-0.5,0.5-0.5c0.9,0,1.8,0,2.7,0c0.5,0,0.5,0.3,0.5,0.6S45,12,44.6,11.9
			c-0.4,0-0.8,0-1.2,0c-0.3,0-0.4,0.1-0.4,0.4c0,0.7,0,1.3,0,2c0,0.3,0.1,0.4,0.4,0.4c0.3,0,0.6,0,1,0c0.3,0,0.3,0.1,0.3,0.3
			c0,0.8,0.1,0.8-0.7,0.8c-1.1,0-0.9-0.2-0.9,1c0,0.9,0,1.9,0,2.8c0,0.3-0.1,0.4-0.4,0.4c-1.2,0-1.2,0-1.2-1.2
			C41.4,17.6,41.4,16.5,41.4,15.3z"/>
		<path class="st0" d="M37.2,30.3c0-1.4,0-2.7,0-4.1c0-0.3,0.1-0.5,0.4-0.4c0.3,0,0.5,0,0.8,0s0.4,0.1,0.4,0.4c0,2.3,0,4.7,0,7
			c0,0.4,0.1,0.6,0.5,0.5c0.4,0,0.8,0,1.2,0s0.5,0.1,0.5,0.5c0,0.1,0,0.2,0,0.3c-0.1,0.1-0.2,0.3-0.3,0.3c-1.1,0-2.2,0-3.2,0
			c-0.3,0-0.3-0.2-0.3-0.4C37.2,33,37.2,31.6,37.2,30.3z"/>
		<path class="st0" d="M75.5,15.4c0-1.4,0-2.7,0-4.1c0-0.4,0.1-0.5,0.5-0.5c1.2,0,1.2,0,1.2,1.2c0,2.1,0,4.3,0,6.4
			c0,0.4,0.1,0.5,0.5,0.5s0.9,0,1.3,0c0.3,0,0.4,0.1,0.4,0.4c0,0.7,0,0.7-0.7,0.7c-0.9,0-1.8,0-2.7,0c-0.3,0-0.4-0.1-0.4-0.4
			C75.5,18.1,75.5,16.8,75.5,15.4z"/>
	</g>
</g>
</svg>
