<?xml version="1.0" encoding="utf-8"?>
<!-- Generator: Adobe Illustrator 24.1.2, SVG Export Plug-In . SVG Version: 6.00 Build 0)  -->
<svg version="1.1" id="Layer_1" xmlns="http://www.w3.org/2000/svg" xmlns:xlink="http://www.w3.org/1999/xlink" x="0px" y="0px"
	 viewBox="0 0 125 125" style="enable-background:new 0 0 125 125;" xml:space="preserve">
<style type="text/css">
	.st0{fill:#A21842;}
</style>
<g>
	<g>
		<path class="st0" d="M87.6,85.8c0,7.8,0,15.7,0,23.5c0,0.9-0.2,1.1-1.1,1.1c-4.2,0-8.3,0-12.5,0c-0.9,0-1.1-0.2-1.1-1.1
			c0-11.2,0-22.4,0-33.5c0-0.9,0.3-1.6,1-2.3c4.2-3.9,8.4-7.9,12.5-11.9l0,0c0.2-0.2,0.5-0.5,0.8-0.3s0.3,0.5,0.3,0.8
			c0,4.5,0,9,0,13.5C87.6,79,87.6,82.4,87.6,85.8z"/>
		<path class="st0" d="M69.3,94.7c0,4.9,0,9.8,0,14.7c0,0.8-0.2,1-1,1c-4.2,0-8.4,0-12.6,0c-0.9,0-1-0.2-1-1.1c0-9.6,0-19.2,0-28.8
			l0,0c0-0.3-0.1-0.8,0.3-0.9c0.3-0.1,0.7,0.2,0.9,0.4c1.8,1.8,3.6,3.7,5.4,5.5c0.4,0.5,0.5,0.5,0.9,0c2-2,3.9-3.9,5.9-5.9
			c0.3-0.3,0.5-0.6,1-0.4c0.4,0.2,0.3,0.6,0.3,1C69.3,85,69.3,89.9,69.3,94.7z"/>
		<path class="st0" d="M50.7,93.7c0,5.2,0,10.4,0,15.6c0,0.9-0.2,1.1-1.1,1.1c-4.2,0-8.4,0-12.5,0c-0.9,0-1-0.2-1-1c0-6,0-12,0-18
			c0-0.8,0.3-1.4,0.9-2c4.2-4,8.4-8,12.6-12c0.2-0.2,0.5-0.6,0.9-0.4s0.3,0.6,0.3,0.9C50.7,83.2,50.7,88.5,50.7,93.7z"/>
		<path class="st0" d="M61.6,73.8C69,66.4,76.4,59,83.9,51.5c-0.7-0.7-1.4-1.4-2.1-2.1c-0.1-0.1-0.3-0.4-0.2-0.5
			c0-0.1,0.3-0.3,0.5-0.3c3.2-0.7,6.4-1.4,9.6-2.2c0.6-0.1,0.8,0,0.6,0.6c-0.7,3.3-1.4,6.5-2.1,9.8c-0.1,0.5-0.4,0.5-0.7,0.2
			c-0.6-0.6-1.3-1.3-1.9-1.9c-0.1-0.1-0.2-0.2-0.4-0.4c-0.1,0.2-0.2,0.4-0.3,0.5c-8.1,8.1-16.3,16.3-24.4,24.4
			c-0.6,0.6-0.6,0.6-1.1,0c-3.2-3.2-6.4-6.4-9.5-9.5c-0.1-0.1-0.2-0.3-0.3-0.4c-0.1,0-0.1,0-0.2-0.1c-0.1,0.2-0.2,0.3-0.3,0.5
			c-5.2,5.2-10.4,10.4-15.6,15.6c-0.5,0.5-0.5,0.5-1,0c-0.8-0.8-1.6-1.6-2.4-2.4c-0.3-0.3-0.3-0.5,0-0.7C38.4,76.3,44.7,70,51,63.7
			c0.3-0.3,0.5-0.3,0.7,0c3.2,3.2,6.5,6.5,9.7,9.7C61.5,73.6,61.6,73.7,61.6,73.8z"/>
		<path class="st0" d="M19.7,22.1c1,0.6,1.8,1.4,2.1,2.4c0.3,0.7,0.5,1.5,0.6,2.3c0.2,1.5,0.1,3.1-0.4,4.6c-0.8,2.2-2.3,3.3-4.6,3.6
			c-1.1,0.1-2.2,0.1-3.3-0.1c-1.8-0.4-3.1-1.5-3.8-3.3c-0.8-2.3-0.9-4.5-0.1-6.8c0.4-1,1-1.9,2-2.4c0.1,0,0.1-0.1,0.2-0.2
			c-0.9-0.7-1.5-1.5-1.9-2.6c-0.7-2-0.7-4,0.1-6c0.8-1.8,2.3-2.7,4.2-3c1.1-0.2,2.3-0.1,3.4,0.2c2,0.6,3.2,1.9,3.6,3.9
			c0.3,1.4,0.3,2.8,0,4.2C21.5,20.2,20.9,21.3,19.7,22.1z M14.1,27.9c0.1,0.8,0.2,1.7,0.4,2.5c0.2,0.9,0.8,1.3,1.6,1.3
			c0.8,0,1.4-0.4,1.6-1.3c0.5-1.7,0.5-3.3,0-5c-0.2-0.9-0.8-1.3-1.6-1.3c-0.8,0-1.4,0.4-1.6,1.2C14.3,26.2,14.2,27,14.1,27.9z
			 M17.9,16.9c-0.1-0.7-0.2-1.3-0.4-1.9c-0.1-0.5-0.5-0.8-1-1c-0.8-0.2-1.6,0.2-1.9,1.1c-0.5,1.5-0.4,3,0.2,4.4
			c0.1,0.3,0.4,0.6,0.6,0.7c0.7,0.5,1.7,0.1,2-0.8C17.7,18.6,17.7,17.7,17.9,16.9z"/>
		<path class="st0" d="M66.4,34.8c-0.4,0-0.8,0-1.2,0c0-1.9-0.1-3.9-0.1-5.8H65c-0.4,1.9-0.8,3.9-1.2,5.8c-0.3,0-0.6,0-1,0
			c-0.4-1.9-0.8-3.9-1.3-5.9c-0.1,0-0.1,0-0.1,0c0,1.9,0,3.9,0,5.9c-0.5,0-0.9,0-1.3,0c0.1-3,0.1-6,0.1-9c0.6,0,1.1,0,1.7,0
			c0.4,2.1,0.9,4.1,1.3,6.2h0.1c0.2-0.8,0.3-1.6,0.5-2.3c0.2-1.2,0.5-2.4,0.7-3.5c0.1-0.3,0.2-0.3,0.4-0.3c0.4,0,0.9,0,1.3,0
			C66.3,28.8,66.3,31.8,66.4,34.8z"/>
		<path class="st0" d="M67.4,19.9c-0.5,0-0.9,0-1.4,0c-0.4-3-0.9-6-1.3-9.1c0.4,0,0.8,0,1.2,0c0.1,0,0.2,0.2,0.2,0.3
			c0.2,1.6,0.4,3.2,0.6,4.7c0,0.2,0.1,0.4,0.2,0.6c0.3-1.9,0.6-3.7,0.9-5.6c0.1,0,0.1,0,0.1,0c1-0.1,1-0.1,1.2,0.9
			c0.2,1.5,0.5,2.9,0.7,4.4c0,0.1,0.1,0.2,0.2,0.3c0.1-1.1,0.3-2.3,0.4-3.4c0.1-0.7,0.2-1.3,0.3-2c0-0.1,0.2-0.2,0.2-0.2
			c0.4,0,0.7,0,1.1,0c-0.4,3.1-0.9,6.1-1.3,9.1c-0.5,0-0.9,0-1.3,0c-0.3-1.9-0.7-3.9-1-5.8h-0.1C68,16,67.7,18,67.4,19.9z"/>
		<path class="st0" d="M99.3,34.8L99.3,34.8C98,35,98,35,97.8,33.7c-0.4-2.6-0.8-5.3-1.1-7.9c0.5,0,0.9,0,1.4,0
			c0.2,1.8,0.5,3.7,0.7,5.5h0.1c0.1-0.4,0.2-0.8,0.2-1.2c0.2-1.3,0.5-2.7,0.7-4c0-0.3,0.2-0.3,0.4-0.3c0.2,0,0.5,0,0.8,0
			c0.3,1.9,0.6,3.7,1,5.6h0.1c0.1-0.3,0.1-0.6,0.1-0.9c0.2-1.4,0.4-2.8,0.5-4.3c0-0.3,0.1-0.4,0.4-0.4s0.6,0,1,0
			c-0.4,3.1-0.9,6-1.3,9c-0.1,0-0.1,0.1-0.1,0.1c-1.2,0.1-1.2,0.1-1.4-1.1c-0.3-1.6-0.5-3.1-0.9-4.7C100,30.9,99.7,32.9,99.3,34.8z"
			/>
		<path class="st0" d="M31.5,10.9c1,0,2.1-0.1,3.1,0c1.1,0.1,1.7,0.7,1.8,1.8c0.1,1.7,0.1,3.4,0,5.2c-0.1,1.3-0.9,1.9-2.2,2
			c-0.7,0-1.4,0-2,0c-0.2,0-0.4,0-0.6,0C31.5,16.9,31.5,13.9,31.5,10.9z M33.2,12c0,2.3,0,4.5,0,6.8c1.2,0.1,1.6-0.2,1.6-1.4
			c0-0.1,0-0.2,0-0.3c0-1.2,0-2.4,0-3.6c0-0.3,0-0.6-0.1-0.8c-0.1-0.4-0.3-0.6-0.6-0.6C33.8,12,33.5,12,33.2,12z"/>
		<path class="st0" d="M114.5,34.8c-0.5,0-1,0-1.6,0c0-1.3,0-2.7,0-4.1c-0.6,0-1.2,0-1.9,0c0,1.4,0,2.7,0,4.1c-0.6,0-1.1,0-1.6,0
			c0-3,0-6,0-9c0.5,0,1,0,1.6,0c0,1.2,0,2.5,0,3.7c0.6,0,1.2,0,1.9,0c0-1.2,0-2.5,0-3.7c0.6,0,1.1,0,1.6,0
			C114.5,28.8,114.5,31.8,114.5,34.8z"/>
		<path class="st0" d="M104.4,10.7c1.2,0.1,2.3,0.1,3.4,0.3c0.8,0.1,1.4,0.7,1.4,1.6c0.1,1.8,0.1,3.6,0,5.4c-0.1,1.3-0.8,1.9-2,2
			c-0.9,0.1-1.9,0-2.8,0C104.4,16.9,104.4,13.9,104.4,10.7z M106,18.8c0.2,0,0.3,0,0.4,0c0.9,0,1.2-0.2,1.2-1.1c0.1-1.5,0-3.1,0-4.6
			c0-0.1,0-0.2-0.1-0.4c-0.1-0.3-0.3-0.6-0.6-0.6c-0.3-0.1-0.6-0.1-1-0.1C106,14.3,106,16.5,106,18.8z"/>
		<path class="st0" d="M72.6,15.3c0.1-1,0.1-1.9,0.2-2.9c0.2-1,0.8-1.5,1.8-1.7c0.3-0.1,0.7-0.1,1-0.1c1.4,0.1,2.2,0.9,2.2,2.3
			c0.1,1.6,0.1,3.2,0,4.7c-0.1,1.5-1,2.3-2.4,2.3c-0.3,0-0.6,0-1-0.1c-1-0.2-1.6-0.9-1.8-2.1c0-0.2-0.1-0.4-0.1-0.6
			C72.6,16.6,72.6,16,72.6,15.3L72.6,15.3z M76.2,15.3L76.2,15.3c0-0.8,0-1.6,0-2.4c0-0.7-0.3-1-0.9-1s-0.9,0.3-1,1c0,0.7,0,1.4,0,2
			c0,1,0,2,0,3c0,0.4,0.2,0.8,0.6,0.9c0.7,0.2,1.2-0.2,1.3-1C76.2,17,76.2,16.2,76.2,15.3z"/>
		<path class="st0" d="M59,30.3c0,0.8,0.1,1.6,0,2.4c-0.1,1.6-1.1,2.4-2.7,2.3c-1.6-0.1-2.4-0.9-2.5-2.5c-0.1-1.5-0.1-3,0-4.4
			c0.1-2,1.2-2.5,2.9-2.4c1.6,0.1,2.3,1,2.3,2.7C59,29,59,29.7,59,30.3L59,30.3z M57.3,30.3L57.3,30.3c0-0.8,0-1.6,0-2.4
			c0-0.7-0.3-1-1-1c-0.6,0-0.9,0.3-0.9,1.1c0,0.5,0,1.1,0,1.6c0,1.1,0,2.1,0,3.2c0,0.7,0.3,1,0.8,1.1c0.6,0.1,1.1-0.2,1.1-0.9
			C57.4,32,57.3,31.1,57.3,30.3z"/>
		<path class="st0" d="M47,30.3c0,0.8,0,1.6,0,2.4c-0.1,1.6-1.2,2.5-2.7,2.3c-1.6-0.2-2.3-0.8-2.4-2.6c-0.1-1.5-0.1-2.9,0-4.4
			c0.1-1.9,1.3-2.4,2.8-2.3s2.2,0.9,2.3,2.4C47,28.8,47,29.5,47,30.3L47,30.3z M43.5,30.2c0,0.9,0,1.7,0,2.5c0,0.6,0.4,1,0.9,1
			c0.6,0,0.9-0.3,0.9-1c0-1.7,0-3.4,0-5c0-0.6-0.3-0.9-0.8-0.9c-0.6-0.1-1,0.3-1,0.9C43.5,28.6,43.5,29.4,43.5,30.2z"/>
		<path class="st0" d="M78.9,10.9c1,0,2.1-0.1,3.1,0c1.5,0.2,1.9,1.1,1.9,2.6c0,0.8-0.2,1.5-1,1.9c-0.1,0-0.1,0.3,0,0.4
			c0.3,1.2,0.7,2.5,1,3.8c0,0.1,0.1,0.2,0.1,0.4c-0.5,0-1,0-1.4,0c-0.1,0-0.2-0.2-0.3-0.4c-0.3-1.1-0.6-2.1-0.9-3.2
			c-0.2-0.6-0.2-0.6-0.9-0.5c0,1.4,0,2.7,0,4.1c-0.6,0-1.1,0-1.6,0C78.9,16.9,78.9,13.9,78.9,10.9z M80.5,11.9c0,1,0,1.8,0,2.8
			c0.6,0,1.2,0.1,1.5-0.5c0.4-0.6,0.4-1.3,0-1.9C81.7,11.8,81.1,11.9,80.5,11.9z"/>
		<path class="st0" d="M84.9,25.7c1.1,0.1,2.2,0,3.2,0.2c1,0.1,1.5,0.7,1.7,1.7c0.1,0.5,0,1.1-0.1,1.6s-0.4,0.9-1,1.1
			c0.4,1.5,0.8,3,1.2,4.5c-0.5,0-1,0-1.4,0c-0.1,0-0.2-0.2-0.3-0.3c-0.3-1.1-0.6-2.2-0.9-3.3c-0.2-0.6-0.2-0.6-0.9-0.5
			c0,1.4,0,2.7,0,4.1c-0.6,0-1.1,0-1.6,0C84.9,31.8,84.9,28.8,84.9,25.7z M86.5,26.9c0,0.9,0,1.8,0,2.7c0.7,0.1,1.3,0,1.5-0.4
			c0.3-0.4,0.3-1.5,0-1.9C87.7,26.8,87.1,26.9,86.5,26.9z"/>
		<path class="st0" d="M49.4,29.7c0,1.7,0,3.4,0,5.1c-0.5,0-0.9,0-1.4,0c0-3,0-6,0-9.1c0.3,0,0.7,0,1,0c0.1,0,0.2,0.2,0.3,0.3
			c0.6,1.4,1.2,2.8,1.8,4.2c0.1,0.1,0.1,0.3,0.3,0.4c0-1.6,0-3.2,0-4.9c0.4,0,0.8,0,1.2,0c0.1,0,0.2,0.2,0.2,0.3c0,0.7,0,1.4,0,2.1
			c0,2,0,4.1,0,6.1c0,0.2,0,0.3,0,0.5c-0.3,0-0.5,0-0.8,0s-0.4-0.1-0.5-0.3c-0.6-1.5-1.2-2.9-1.8-4.4c-0.1-0.2-0.1-0.3-0.2-0.5
			C49.5,29.7,49.5,29.7,49.4,29.7z"/>
		<path class="st0" d="M103.2,19.9c-1,0.1-1,0.1-1.4-0.8c-0.6-1.4-1.1-2.7-1.7-4.1c0-0.1-0.1-0.2-0.2-0.3c0,1.7,0,3.4,0,5.2
			c-0.5,0-0.9,0-1.4,0c0-3,0-6,0-9.1c0.3,0,0.6,0,0.9,0c0.1,0,0.2,0.2,0.3,0.3c0.6,1.4,1.2,2.7,1.8,4.1c0.1,0.1,0.1,0.3,0.3,0.4
			c0-0.1,0-0.3,0-0.4c0-1.4,0-2.7,0-4c0-0.4,0.1-0.5,0.5-0.4c0.3,0,0.6,0,0.9,0C103.2,13.8,103.2,16.8,103.2,19.9z"/>
		<path class="st0" d="M90.7,30.3c0-0.7,0-1.4,0-2.2c0.1-2,1.2-2.6,2.9-2.4c1.4,0.1,2.1,0.8,2.2,2.2c0.1,1.6,0.1,3.3,0,4.9
			c-0.1,1.8-1.4,2.3-2.7,2.2c-1.6-0.1-2.3-0.9-2.4-2.5C90.7,31.7,90.7,31,90.7,30.3z M92.4,30.2L92.4,30.2c0,0.7,0,1.4,0,2.2
			c0,0.3,0,0.5,0.1,0.8c0.1,0.2,0.3,0.4,0.5,0.5c0.6,0.2,1.1-0.1,1.2-0.8c0.1-0.3,0.1-0.7,0.1-1c0-1.4,0-2.8-0.1-4.1
			c0-0.7-0.6-1.1-1.3-0.8c-0.5,0.2-0.5,0.6-0.6,1C92.4,28.7,92.4,29.5,92.4,30.2z"/>
		<path class="st0" d="M53.7,19.9c-0.5,0-0.9,0-1.4,0c0-3,0-6,0-9.1c0.3,0,0.6,0,1,0c0.1,0,0.2,0.2,0.3,0.3c0.6,1.4,1.2,2.7,1.8,4.1
			c0.1,0.2,0.1,0.3,0.3,0.5c0-1.6,0-3.3,0-4.9c0.5,0,0.9,0,1.3,0c0,3,0,6,0,9.1c-0.3,0-0.6,0-0.9,0c-0.1,0-0.2-0.2-0.3-0.3
			c-0.6-1.5-1.2-3-1.9-4.4c-0.1-0.1-0.1-0.2-0.3-0.3C53.7,16.5,53.7,18.2,53.7,19.9z"/>
		<path class="st0" d="M81.4,31.3c0-0.4,0-0.7,0-1c0.8,0,1.5,0,2.3,0c0.1,0,0.2,0.1,0.2,0.2c0,1.4,0,2.9,0,4.3c-0.4,0-0.7,0-1.1,0
			c0-0.2-0.1-0.5-0.2-0.8c-0.4,0.8-1.1,1-1.8,1c-1.1-0.1-1.8-0.7-2-1.8c-0.3-1.8-0.3-3.7-0.1-5.5c0.2-1.6,1.2-2.2,2.8-2
			c1.5,0.1,2.1,0.9,2.2,2.4c0,0.2,0,0.4,0,0.7c-0.5,0-1,0-1.6,0c0-0.3,0-0.6,0-0.9c0-0.6-0.3-0.9-0.8-1c-0.6-0.1-1,0.3-1,1
			c0,0.8,0,1.6,0,2.3c0,0.9,0,1.7,0,2.5s0.5,1.2,1.2,1c0.5-0.1,0.6-0.5,0.7-0.9s0-0.8,0.1-1.2c0-0.3-0.1-0.4-0.4-0.4
			C81.8,31.3,81.6,31.3,81.4,31.3z"/>
		<path class="st0" d="M90,19.9C89.9,19.9,89.9,19.9,90,19.9c-0.6,0-1.2,0.2-1.5,0s-0.4-0.8-0.6-1.3c-0.3-0.9-0.7-1.9-1-2.8
			c0,0,0,0-0.1-0.1c-0.1,0.3-0.3,0.6-0.3,0.9c0,1,0,1.9,0,2.9c0,0.2,0,0.3,0,0.5c-0.6,0-1.1,0-1.6,0c0-3,0-6,0-9.1
			c0.5,0,1.1,0,1.6,0c0,1.3,0,2.5,0,3.7h0.1c0.1-0.2,0.2-0.5,0.3-0.7c0.4-0.9,0.9-1.9,1.3-2.8c0.1-0.2,0.2-0.3,0.5-0.3
			c0.4,0,0.8,0,1.2,0c-0.1,0.2-0.2,0.5-0.2,0.7c-0.5,1-0.9,2.1-1.3,3.1c-0.1,0.2-0.1,0.4,0,0.6c0.5,1.4,1.1,2.8,1.6,4.2
			C89.8,19.5,89.9,19.7,90,19.9z"/>
		<path class="st0" d="M45.3,14.1c0-0.5,0-0.9,0-1.3c0-0.5-0.3-0.8-0.7-0.8c-0.5,0-0.8,0.2-0.9,0.7c0,0.2-0.1,0.4-0.1,0.5
			c0,1.4,0,2.9,0,4.3c0,0.2,0,0.5,0.1,0.7c0.1,0.5,0.4,0.7,0.9,0.7s0.7-0.3,0.8-0.8c0-0.5,0-0.9,0-1.4c0.6,0,1.1,0,1.6,0
			c0,0.9,0.1,1.7-0.4,2.5c-0.2,0.3-0.4,0.5-0.7,0.7c-1.7,1-3.8,0.1-3.9-1.9c-0.1-1.7-0.1-3.5,0-5.2c0.1-1.1,0.7-1.7,1.9-1.9
			c0.5-0.1,1,0,1.4,0c0.7,0.1,1.3,0.6,1.4,1.3c0.2,0.6,0.2,1.3,0.2,2C46.3,14.1,45.8,14.1,45.3,14.1z"/>
		<path class="st0" d="M75.3,29c-0.6,0-1,0-1.6,0c0-0.4-0.1-0.8-0.1-1.2c0-0.6-0.3-0.9-0.8-0.9s-0.8,0.2-0.9,0.8
			c0,0.2-0.1,0.4-0.1,0.6c0,1.3,0,2.6,0,3.9c0,0.3,0,0.6,0.1,0.8c0.1,0.5,0.4,0.7,0.9,0.7s0.7-0.3,0.8-0.8c0-0.5,0.1-1,0.1-1.5
			c0.5,0,1,0,1.5,0c0,0.8,0,1.5-0.2,2.3c-0.4,1-1.3,1.3-2.4,1.2c-1.5-0.1-2.2-0.7-2.3-2.2c-0.1-1.6-0.1-3.3,0-5
			c0.1-1.6,1.2-2.2,2.8-2.1c1.4,0.1,1.9,0.7,2.1,2.1C75.3,28.1,75.3,28.5,75.3,29z"/>
		<path class="st0" d="M41,29c-0.5,0-1,0-1.6,0c0-0.4,0-0.8,0-1.2c0-0.6-0.2-0.8-0.6-0.9c-0.6-0.1-1.1,0.2-1.1,0.8
			c-0.1,0.9-0.1,1.9-0.1,2.8c0,0.8,0,1.6,0.1,2.4c0,0.6,0.4,0.9,0.9,0.9s0.8-0.3,0.8-0.9c0-0.5,0-0.9,0-1.4c0.6,0,1,0,1.6,0
			c0,0.8,0.1,1.5-0.2,2.2c-0.4,1-1.3,1.3-2.4,1.2c-1.5-0.1-2.3-0.7-2.4-2.3c-0.1-1.7-0.1-3.4,0-5c0.1-1.4,1-2.1,2.8-2
			c1.4,0.1,2.1,0.9,2.1,2.3C41,28.3,41,28.6,41,29z"/>
		<path class="st0" d="M94,19.9c-0.5,0-1,0-1.5,0c0.1-0.7,0.3-1.3,0.4-1.9c0.5-2.3,0.9-4.6,1.4-6.8c0.1-0.3,0.1-0.4,0.4-0.4
			c0.4,0,1-0.1,1.3,0.1c0.3,0.2,0.3,0.8,0.3,1.2c0.5,2.5,1,5,1.5,7.4c0,0.1,0,0.2,0,0.4c-0.5,0-1,0-1.5,0c-0.1-0.6-0.2-1.2-0.3-1.8
			c0-0.2-0.1-0.3-0.4-0.3c-1.3,0-1.3,0-1.5,1.2C94.1,19.3,94.1,19.6,94,19.9z M95.2,13.3L95.2,13.3c-0.3,1.1-0.5,2.3-0.7,3.5
			c0.4,0,0.8,0,1.2,0C95.6,15.5,95.4,14.4,95.2,13.3z"/>
		<path class="st0" d="M39.1,14.6c0.6,0,1.1,0,1.7,0c0,0.4,0,0.7,0,1.1c-0.5,0-1.1,0-1.7,0c0,0.5,0,1,0,1.4s0,0.9,0,1.3
			c0,0.3,0.1,0.4,0.4,0.3c0.5,0,1,0,1.5,0c0.2,0,0.4,0.1,0.3,0.3c0,0.2,0,0.5,0,0.8c-1.3,0-2.5,0-3.8,0c0-0.1,0-0.3,0-0.4
			c0-2.7,0-5.5,0-8.2c0-0.4,0.1-0.5,0.5-0.5c1,0,1.9,0,2.9,0c0.1,0,0.3,0,0.4,0c0,0.4,0,0.7,0,1.2c-0.7,0-1.4,0-2.1,0
			C39.1,12.9,39.1,13.7,39.1,14.6z"/>
		<path class="st0" d="M51.6,18.8c0,0.4,0,0.7,0,1.1c-1.3,0-2.5,0-3.8,0c0-3,0-6,0-9.1c1.3,0,2.5,0,3.8,0c0,0.4,0,0.7,0,1.1
			c-0.7,0-1.4,0-2.1,0c0,0.9,0,1.7,0,2.6c0.5,0,1.1,0,1.6,0c0,0.4,0,0.7,0,1.1c-0.5,0-1.1,0-1.6,0c0,1,0,2,0,3
			C50.1,18.8,50.8,18.8,51.6,18.8z"/>
		<path class="st0" d="M31.5,25.8c1.3,0,2.5,0,3.8,0c0,0.4,0,0.7,0,1.1c-0.7,0-1.4,0-2.1,0c0,0.9,0,1.7,0,2.6c0.5,0,1.1,0,1.6,0
			c0,0.4,0,0.7,0,1.2c-0.5,0-1.1,0-1.6,0c0,1,0,2,0,3c0.7,0,1.4,0,2.1,0c0,0.4,0,0.7,0,1.1c-1.2,0-2.5,0-3.8,0
			C31.5,31.8,31.5,28.8,31.5,25.8z"/>
		<path class="st0" d="M57.5,12c-0.1-0.1-0.1-0.1-0.1-0.1c-0.1-1.1-0.1-1.1,1-1.1s2.1,0,3.2,0c0.5,0,0.6,0.1,0.5,0.5
			c0,0.2,0,0.4,0,0.7c-0.5,0-1,0-1.5,0c0,2.7,0,5.3,0,7.9c-0.6,0-1.1,0-1.7,0c0-0.2,0-0.3,0-0.5c0-2.3,0-4.6,0-7
			c0-0.4-0.1-0.5-0.5-0.5C58.2,12,57.9,12,57.5,12z"/>
		<path class="st0" d="M104.3,25.8c1.5,0,3.1,0,4.6,0c0,0.4,0,0.7,0,1.1c-0.5,0-0.9,0-1.4,0c0,2.7,0,5.3,0,7.9c-0.6,0-1.1,0-1.6,0
			c0-0.2,0-0.3,0-0.5c0-2.3,0-4.6,0-6.9c0-0.4-0.1-0.5-0.5-0.5c-0.3,0-0.7,0-1,0C104.3,26.5,104.3,26.2,104.3,25.8z"/>
		<path class="st0" d="M69.2,34.8c-0.5,0-1,0-1.6,0c0-3,0-6,0-9c0.5,0,1,0,1.6,0C69.2,28.8,69.2,31.8,69.2,34.8z"/>
	</g>
</g>
</svg>
