<?xml version="1.0" encoding="utf-8"?>
<!-- Generator: Adobe Illustrator 25.0.1, SVG Export Plug-In . SVG Version: 6.00 Build 0)  -->
<svg version="1.1" id="Layer_1" xmlns="http://www.w3.org/2000/svg" xmlns:xlink="http://www.w3.org/1999/xlink" x="0px" y="0px"
	 viewBox="0 0 125 125" style="enable-background:new 0 0 125 125;" xml:space="preserve">
<style type="text/css">
	.st0{fill:#D2D1D3;}
</style>
<g>
	<g>
		<path class="st0" d="M31.4,92.2c0-2.9,0-5.8,0-8.7c0-0.6,0.2-1,0.7-1.2c4.7-2.7,9.5-5.5,14.2-8.2c0.4-0.2,0.6-0.5,0.6-1
			c0-5.5,0-10.9,0-16.3c0-0.6,0.2-1,0.8-1.4c5-2.8,9.9-5.7,14.9-8.6c0.5-0.3,1-0.3,1.5,0c5,2.9,10,5.8,15,8.6
			c0.5,0.3,0.7,0.7,0.7,1.3c0,5.5,0,11,0,16.5c0,0.4,0.1,0.6,0.5,0.8c4.7,2.7,9.4,5.5,14.2,8.2c0.6,0.3,0.9,0.8,0.9,1.5
			c0,5.7,0,11.5,0,17.2c0,0.6-0.2,1-0.7,1.2c-4.9,2.8-9.9,5.7-14.8,8.6c-0.6,0.4-1.2,0.4-1.8,0c-4.7-2.7-9.4-5.5-14.1-8.2
			c-0.3-0.2-0.5-0.2-0.9,0c-4.8,2.8-9.5,5.5-14.3,8.3c-0.5,0.3-1,0.3-1.5,0c-5-2.9-9.9-5.7-14.9-8.6c-0.6-0.3-0.8-0.7-0.8-1.4
			C31.4,97.9,31.4,95.1,31.4,92.2z M93.3,85c-0.2,0.1-0.4,0.2-0.5,0.2c-4.2,2.4-8.4,4.9-12.7,7.3c-0.3,0.2-0.4,0.4-0.4,0.7
			c0,4.8,0,9.7,0,14.5c0,0.1,0,0.3,0,0.5c0.2-0.1,0.3-0.2,0.5-0.2c4.2-2.4,8.4-4.9,12.7-7.3c0.3-0.2,0.4-0.4,0.4-0.8
			c0-4.8,0-9.6,0-14.5C93.3,85.5,93.3,85.3,93.3,85z M33.3,85c0,0.2,0,0.4,0,0.5c0,4.9,0,9.7,0,14.6c0,0.3,0.1,0.5,0.4,0.6
			c4.2,2.4,8.5,4.9,12.7,7.3c0.1,0.1,0.3,0.1,0.4,0.2c0-0.2,0-0.3,0-0.5c0-4.9,0-9.7,0-14.6c0-0.3-0.1-0.5-0.4-0.7
			c-4.2-2.4-8.4-4.9-12.7-7.3C33.7,85.2,33.5,85.1,33.3,85z M92.3,83.3c-0.2-0.2-0.4-0.3-0.6-0.4c-4.2-2.4-8.4-4.8-12.6-7.3
			c-0.2-0.1-0.4-0.1-0.6,0c-4.2,2.4-8.5,4.9-12.7,7.3c-0.1,0.1-0.2,0.2-0.4,0.3c0.2,0.1,0.3,0.2,0.5,0.3c4.2,2.4,8.4,4.8,12.5,7.2
			c0.3,0.2,0.6,0.2,0.9,0c3.8-2.2,7.5-4.4,11.3-6.5C91.1,84,91.6,83.6,92.3,83.3z M64.3,67.1c0,4.9,0,9.6,0,14.4
			c4.2-2.4,8.3-4.8,12.5-7.2C72.6,71.9,68.5,69.5,64.3,67.1z M77.8,58.2c-4.2,2.4-8.3,4.8-12.5,7.2c4.2,2.4,8.3,4.8,12.5,7.2
			C77.8,67.8,77.8,63,77.8,58.2z M48.8,58.2c0,4.8,0,9.6,0,14.4c4.2-2.4,8.3-4.8,12.5-7.2C57.1,63,53,60.6,48.8,58.2z M48.8,108.4
			c4.2-2.4,8.3-4.8,12.5-7.2c-4.2-2.4-8.3-4.8-12.5-7.2C48.8,98.8,48.8,103.5,48.8,108.4z M49.8,92.2c4.2,2.4,8.3,4.8,12.5,7.2
			c0-4.8,0-9.6,0-14.4C58.1,87.4,54,89.8,49.8,92.2z M49.8,74.3c4.2,2.4,8.3,4.8,12.5,7.2c0-4.8,0-9.6,0-14.4
			C58.1,69.5,54,71.9,49.8,74.3z"/>
		<path class="st0" d="M17.9,24.4c-1.5,1.8-4.7,1.5-5.9,0.5c-0.8-0.6-1.3-1.4-1.6-2.4c-0.9-2.8-0.9-5.6,0.1-8.3
			c0.8-2.2,2.4-3.3,4.8-3.6c1-0.1,2,0,3.1,0.2c1.7,0.4,2.8,1.6,3.5,3.2c0.5,1.2,0.7,2.5,0.7,3.9c0,3.2,0,6.3,0,9.5
			c0,1.5-0.2,3-0.8,4.4c-0.7,1.7-2,2.8-3.8,3.1c-1.4,0.2-2.7,0.2-4.1-0.1c-1.7-0.4-2.9-1.5-3.3-3.2c-0.2-0.8-0.3-1.7-0.4-2.6
			c0-0.3,0.1-0.4,0.3-0.4c1.2,0,2.4,0,3.5,0c0.3,0,0.4,0.1,0.4,0.4c0,0.5,0.1,1,0.2,1.5c0.2,0.7,0.6,1,1.4,1.1
			c0.7,0.1,1.3-0.2,1.5-0.9c0.2-0.7,0.4-1.5,0.4-2.2c0.1-1.3,0-2.6,0-3.9C18,24.5,17.9,24.5,17.9,24.4z M18,18.7c0-0.6,0-1.3,0-1.9
			c-0.1-0.6-0.1-1.2-0.3-1.8c-0.2-0.9-0.7-1.1-1.6-1.1c-0.7,0-1.2,0.4-1.3,1.2c-0.2,0.7-0.3,1.3-0.3,2c0,1.2,0,2.5,0.1,3.7
			c0.1,1.1,0.9,1.6,2,1.4c0.8-0.1,1.4-0.8,1.4-1.6C18,19.9,18,19.3,18,18.7z"/>
		<path class="st0" d="M113,34.6c-0.5,0-0.9,0-1.3,0c-0.1,0-0.3-0.2-0.3-0.3c-0.3-1.1-0.6-2.3-0.9-3.5c-0.1-0.4-0.3-0.4-0.6-0.4
			c-0.4,0-0.3,0.3-0.3,0.5c0,1.1,0,2.2,0,3.2c0,0.3-0.1,0.5-0.5,0.4c-0.2,0-0.5,0-0.7,0c-0.3,0-0.4-0.1-0.4-0.4c0-2.7,0-5.4,0-8.2
			c0-0.3,0.1-0.5,0.5-0.5c0.9,0,1.8,0,2.7,0.1c1.2,0.1,1.8,0.8,1.8,1.9c0,0.5,0,1-0.2,1.5c-0.1,0.3-0.4,0.6-0.6,0.9
			c-0.2,0.2-0.3,0.3-0.2,0.5c0.4,1.2,0.7,2.5,1,3.7C113,34.4,113,34.5,113,34.6z M109.5,28.1c0,0.4,0,0.7,0,1.1
			c0,0.1,0.1,0.3,0.2,0.3c0.7,0.3,1.6-0.3,1.6-1c0-0.2,0-0.3,0-0.5c0.1-1.1-0.6-1.4-1.5-1.3c-0.1,0-0.2,0.2-0.2,0.3
			C109.5,27.3,109.5,27.7,109.5,28.1z"/>
		<path class="st0" d="M61.6,19.7c-0.5,0-1,0-1.4,0c-0.1,0-0.2-0.2-0.3-0.3c-0.3-1.1-0.6-2.2-0.9-3.2c-0.2-0.7-0.2-0.7-0.9-0.6
			c0,0.1,0,0.3,0,0.4c0,1.1,0,2.2,0,3.3c0,0.3-0.1,0.4-0.4,0.4c-0.3,0-0.5,0-0.8,0s-0.4-0.1-0.4-0.4c0-1.8,0-3.7,0-5.5
			c0-0.9,0-1.8,0-2.7c0-0.2,0-0.4,0.3-0.4c1,0,1.9,0,2.9,0.1c1.3,0.2,1.9,1.1,1.8,2.4c-0.1,0.4-0.1,0.9-0.3,1.2
			c-0.1,0.2-0.3,0.5-0.5,0.6c-0.3,0.2-0.3,0.3-0.2,0.6C60.8,17,61.2,18.3,61.6,19.7z M58.1,13.1c0,0.4,0,0.8,0,1.2
			c0,0.1,0.1,0.2,0.2,0.3c0.4,0.1,1.2-0.1,1.4-0.5c0.4-0.6,0.3-1.2,0.1-1.9c-0.3-0.5-0.8-0.5-1.3-0.5c-0.3,0-0.3,0.1-0.3,0.4
			C58.1,12.4,58.1,12.8,58.1,13.1z"/>
		<path class="st0" d="M36,15.2c0-1.4,0-2.7,0-4.1c0-0.3,0.1-0.5,0.4-0.5c0.9,0.1,1.9,0,2.8,0.1c1,0.1,1.6,0.8,1.6,1.8
			c0.1,1.7,0.1,3.3,0,5c-0.1,1.4-0.9,2.1-2.4,2.1c-0.7,0-1.4,0-2.1,0c-0.3,0-0.4-0.1-0.4-0.4C36,18,36,16.6,36,15.2z M37.5,15.2
			c0,1,0,2,0,3c0,0.1,0.1,0.3,0.1,0.4c0.6,0.3,1.5-0.1,1.5-0.8c0.1-1.7,0.1-3.4,0.1-5.1c0-0.5-0.2-0.8-0.7-0.9c-0.2-0.1-0.4,0-0.6,0
			c-0.3,0-0.4,0.1-0.4,0.4C37.5,13.2,37.5,14.2,37.5,15.2z"/>
		<path class="st0" d="M39,30.1c0-1.3,0-2.7,0-4c0-0.4,0.1-0.5,0.5-0.5c0.9,0.1,1.7,0,2.6,0.1c1,0.1,1.6,0.7,1.7,1.6
			c0.1,1.8,0.1,3.6,0,5.4c-0.1,1.2-1,1.8-2.2,1.9c-0.7,0-1.4,0-2.2,0c-0.3,0-0.4-0.1-0.4-0.4C39,32.9,39,31.5,39,30.1z M40.6,30.1
			c0,1,0,2,0,3c0,0.2,0.1,0.4,0.2,0.4c0.7,0.2,1.5-0.3,1.5-1c0.1-1.5,0.1-3.1,0.1-4.7c0-0.3-0.1-0.6-0.2-0.9
			c-0.2-0.4-0.7-0.3-1.1-0.3c-0.3,0-0.4,0.1-0.4,0.4C40.6,28.1,40.6,29.1,40.6,30.1z"/>
		<path class="st0" d="M84.3,15.2c0.1-0.9,0-1.8,0.1-2.7c0.1-1.1,0.9-1.8,2-1.8c0.4,0,0.9,0,1.3,0c1,0.2,1.6,0.9,1.7,1.9
			c0.1,1.8,0.1,3.5,0,5.3c-0.1,1.2-1,2-2.3,2c-0.3,0-0.6,0-1,0c-1.2-0.2-1.8-1.1-1.9-2.5C84.4,16.6,84.4,15.9,84.3,15.2L84.3,15.2z
			 M87.9,15.2L87.9,15.2c0.1-0.3,0.1-0.6,0.1-0.9c0-0.6,0-1.2-0.1-1.8c-0.1-0.5-0.4-0.7-0.9-0.7c-0.6,0-0.8,0.2-1,0.7
			c0,0.1-0.1,0.3-0.1,0.4c0,1.5,0,3.1,0,4.7c0,0.1,0,0.3,0.1,0.4c0.1,0.5,0.4,0.8,0.9,0.8s0.9-0.3,0.9-0.8
			C87.9,17,87.9,16.1,87.9,15.2z"/>
		<path class="st0" d="M111.9,15.2c0,0.9,0,1.8-0.1,2.7c-0.1,1.2-1,2-2.3,2c-0.3,0-0.6,0-0.9,0c-1.1-0.2-1.8-0.9-1.8-1.9
			c-0.1-1.8-0.1-3.6,0-5.4c0.1-1.1,0.9-1.8,2-1.9c0.4,0,0.9,0,1.3,0c0.9,0.2,1.6,0.9,1.7,1.9C111.9,13.4,111.9,14.3,111.9,15.2z
			 M110.3,15.2c0-0.8,0-1.6,0-2.4s-0.4-1.1-1.1-1.1c-0.6,0-0.9,0.4-0.9,1.1c0,1.6,0,3.2,0,4.8c0,0.4,0.1,0.8,0.6,1
			c0.7,0.3,1.4-0.2,1.4-1S110.3,16,110.3,15.2z"/>
		<path class="st0" d="M85.4,34.6c-0.5,0-0.9,0-1.4,0c-0.1,0-0.2-0.2-0.2-0.3c-0.3-1.1-0.6-2.3-0.9-3.4c-0.1-0.4-0.4-0.6-0.8-0.4
			c-0.1,0.1-0.2,0.3-0.2,0.4c0,1.1,0,2.1,0,3.2c0,0.6,0,0.6-0.6,0.6c-1,0-1,0-1-1c0-2.5,0-5,0-7.5c0-0.4,0.1-0.5,0.5-0.5
			c0.9,0.1,1.8,0,2.7,0.1c1.1,0.1,1.7,0.8,1.7,1.9c0,0.5,0,1-0.1,1.4s-0.4,0.7-0.7,1c-0.2,0.2-0.3,0.3-0.2,0.6
			c0.4,1.3,0.7,2.5,1.1,3.8C85.4,34.4,85.4,34.5,85.4,34.6z M81.9,28.1L81.9,28.1c0,0.4,0,0.7,0,1.1c0,0.1,0.1,0.3,0.2,0.3
			c0.3,0.2,1.2-0.1,1.4-0.4c0.4-0.6,0.4-1.3,0.1-1.9s-0.8-0.5-1.4-0.5c-0.2,0-0.3,0.1-0.3,0.3C81.9,27.3,81.9,27.7,81.9,28.1z"/>
		<path class="st0" d="M53.1,30.6c0-0.1,0-0.3,0-0.4c0-1.4,0-2.7,0-4.1c0-0.4,0.1-0.5,0.5-0.5c1,0,0.8-0.1,0.8,0.8
			c0,2.6,0,5.2,0,7.7c0,0.2-0.1,0.4-0.2,0.5c-0.4,0.2-0.9,0-1-0.3c-0.6-1.4-1.2-2.9-1.8-4.3c-0.1-0.2-0.2-0.4-0.3-0.6
			c0,0.1,0,0.3,0,0.4c0,1.5,0,2.9,0,4.4c0,0.3-0.1,0.4-0.4,0.4c-0.9,0-0.9,0-0.9-0.9c0-2.5,0-5.1,0-7.6c0-0.2-0.1-0.4,0.2-0.5
			c0.5-0.1,0.9,0,1,0.3c0.6,1.4,1.2,2.8,1.9,4.3C53,30.3,53,30.5,53.1,30.6L53.1,30.6z"/>
		<path class="st0" d="M82.4,15.6c0-0.1,0-0.3,0-0.4c0-1.4,0-2.7,0-4.1c0-0.3,0.1-0.5,0.4-0.5c1,0,0.8-0.1,0.9,0.8
			c0,2.6,0,5.1,0,7.7c0,0.2,0.2,0.5-0.2,0.5c-0.5,0.1-0.8,0-1-0.4c-0.6-1.5-1.2-3-1.9-4.5c-0.1-0.1-0.1-0.3-0.3-0.4
			c0,0.1,0,0.3,0,0.4c0,1.5,0,3,0,4.4c0,0.3-0.1,0.4-0.4,0.4c-1,0-1,0-1-0.9c0-2.5,0-5.1,0-7.6c0-0.4,0.1-0.5,0.5-0.5
			c0.5,0,0.7,0.1,0.9,0.6c0.5,1.3,1.1,2.6,1.7,3.9c0.1,0.2,0.2,0.3,0.2,0.5C82.3,15.7,82.3,15.7,82.4,15.6z"/>
		<path class="st0" d="M64.7,34.6c-0.5,0-0.9,0-1.3,0c-0.3,0-0.3-0.2-0.3-0.4c-0.3-1.1-0.6-2.3-0.9-3.5c0-0.1-0.2-0.3-0.3-0.3
			c-0.5-0.1-0.6,0-0.6,0.5c0,1.1,0,2.2,0,3.2c0,0.3-0.1,0.4-0.4,0.4c-1.2,0-1.2,0-1.2-1.1c0-2.4,0-4.9,0-7.4c0-0.4,0.1-0.6,0.5-0.5
			c0.9,0.1,1.8,0,2.6,0.1c1.1,0.1,1.7,0.9,1.7,2c0,0.5,0,1-0.2,1.5c-0.1,0.3-0.3,0.6-0.6,0.8c-0.3,0.2-0.3,0.3-0.2,0.6
			c0.3,1.2,0.7,2.4,1,3.6C64.6,34.3,64.7,34.4,64.7,34.6z M61.2,28.1c0,0.4,0,0.7,0,1.1c0,0.1,0.1,0.2,0.2,0.3
			c0.3,0.2,1.2-0.1,1.4-0.4c0.4-0.6,0.4-1.3,0.1-1.9c-0.2-0.6-0.8-0.5-1.3-0.6c-0.3,0-0.4,0.1-0.4,0.4
			C61.2,27.4,61.2,27.7,61.2,28.1z"/>
		<path class="st0" d="M113.9,14.5c0,0.2,0,0.3,0,0.5c0,1.4,0,2.9,0,4.3c0,0.3-0.1,0.5-0.5,0.5c-0.9,0-0.9,0-0.9-0.9
			c0-2.6,0-5.1,0-7.7c0-0.2-0.1-0.5,0.2-0.5c0.6-0.1,0.9,0,1,0.3c0.6,1.4,1.2,2.8,1.8,4.2c0.1,0.1,0.1,0.3,0.3,0.4
			c0-0.1,0-0.3,0-0.4c0-1.4,0-2.7,0-4.1c0-0.3,0.1-0.5,0.5-0.5c1,0,0.9-0.1,0.9,0.8c0,2.6,0,5.1,0,7.7c0,0.2,0.2,0.5-0.2,0.6
			c-0.5,0.1-0.9,0-1-0.4c-0.6-1.5-1.2-3-1.8-4.4c-0.1-0.2-0.1-0.3-0.2-0.5C114,14.5,114,14.5,113.9,14.5z"/>
		<path class="st0" d="M36.7,30.6c0-0.9,0-1.7,0-2.6c0-0.7,0-1.3,0-2c0-0.2,0.1-0.3,0.3-0.3c1.2,0,0.9-0.1,0.9,0.9
			c0,2.6,0,5.1,0,7.7c0,0.2-0.1,0.5-0.2,0.5c-0.3,0-0.7,0.2-0.9-0.3c-0.6-1.5-1.3-3-1.9-4.6c-0.1-0.1-0.1-0.3-0.3-0.4
			c0,0.1,0,0.3,0,0.4c0,1.5,0,2.9,0,4.4c0,0.3-0.1,0.5-0.4,0.5c-1,0-0.9,0.1-0.9-0.9c0-2.5,0-5.1,0-7.6c0-0.2-0.1-0.5,0.2-0.6
			c0.5-0.1,0.9,0,1,0.3c0.6,1.4,1.2,2.8,1.8,4.2c0.1,0.1,0.1,0.3,0.2,0.4C36.6,30.6,36.7,30.6,36.7,30.6z"/>
		<path class="st0" d="M31.7,14.5c0,0.1,0,0.3,0,0.4c0,1.5,0,2.9,0,4.4c0,0.3-0.1,0.4-0.4,0.4c-1,0-0.9,0.2-0.9-0.9
			c0-2.5,0-5.1,0-7.6c0-0.2-0.1-0.5,0.2-0.5c0.5-0.1,0.8,0,1,0.3c0.6,1.4,1.2,2.8,1.8,4.3c0.1,0.1,0.1,0.3,0.2,0.4h0.1
			c0-0.1,0-0.3,0-0.4c0-1.4,0-2.7,0-4.1c0-0.3,0.1-0.4,0.4-0.4c1,0,0.9-0.1,0.9,0.8c0,2.6,0,5.2,0,7.7c0,0.2-0.1,0.5-0.2,0.5
			c-0.3,0-0.7,0.2-0.9-0.3c-0.6-1.5-1.2-3-1.8-4.4c-0.1-0.2-0.2-0.4-0.3-0.6C31.8,14.5,31.8,14.5,31.7,14.5z"/>
		<path class="st0" d="M74.7,14.5c0,0.3,0,0.6,0,0.9c0,1.3,0,2.6,0,3.9c0,0.3-0.1,0.5-0.4,0.5c-0.9,0-0.9,0-0.9-0.9
			c0-2.5,0-5.1,0-7.6c0-0.2-0.1-0.5,0.2-0.6c0.5-0.1,0.9,0,1,0.3c0.6,1.4,1.2,2.8,1.8,4.2c0.1,0.1,0.1,0.3,0.2,0.4h0.1
			c0-0.1,0-0.3,0-0.4c0-1.4,0-2.7,0-4.1c0-0.3,0.1-0.5,0.4-0.5c1,0,0.9-0.1,0.9,0.8c0,2.5,0,5.1,0,7.6c0,0.2,0.2,0.5-0.2,0.6
			c-0.5,0.1-0.8,0-1-0.4c-0.6-1.5-1.2-3-1.9-4.5c-0.1-0.1-0.1-0.2-0.2-0.3C74.8,14.5,74.8,14.5,74.7,14.5z"/>
		<path class="st0" d="M89.6,29.1c0-1.1,0-2.1,0-3.2c0-0.3,0.1-0.4,0.4-0.4c1.1,0,1.1,0,1.1,1.1c0,1.8,0,3.6,0,5.4
			c0,0.4-0.1,0.8-0.2,1.2c-0.2,0.9-0.9,1.4-1.9,1.4c-0.5,0-1,0-1.5-0.1c-0.6-0.1-1.1-0.5-1.2-1.2c-0.1-0.4-0.2-0.9-0.2-1.3
			c0-2,0-4,0-6.1c0-0.3,0.1-0.4,0.4-0.4c1.1,0,1.1,0,1.1,1.1c0,1.8,0,3.6,0,5.3c0,0.3,0.1,0.6,0.1,0.9c0.1,0.4,0.5,0.6,0.9,0.6
			s0.7-0.2,0.8-0.6c0.1-0.3,0.1-0.5,0.1-0.8C89.6,31.1,89.6,30.1,89.6,29.1z"/>
		<path class="st0" d="M45,14.2c0-1.1,0-2.1,0-3.2c0-0.3,0.1-0.4,0.4-0.4c1.1,0,1.1,0,1.1,1.1c0,1.7,0,3.5,0,5.2
			c0,0.5-0.1,1.1-0.3,1.6c-0.2,0.6-0.6,0.9-1.1,1.1c-0.8,0.2-1.6,0.2-2.3,0c-0.6-0.2-1-0.7-1.1-1.3c-0.1-0.4-0.2-0.9-0.2-1.3
			c0-2,0-3.9,0-5.9c0-0.4,0.1-0.5,0.5-0.5c1,0,1,0,1,1.1c0,1.8,0,3.5,0,5.3c0,0.3,0,0.6,0.1,1c0.1,0.5,0.5,0.7,0.9,0.7
			s0.8-0.3,0.9-0.7c0.1-0.2,0.1-0.5,0.1-0.7C45,16.2,45,15.2,45,14.2L45,14.2z"/>
		<path class="st0" d="M105.5,29.1c0-1,0-2,0-3c0-0.3,0.1-0.5,0.4-0.4c0.2,0,0.5,0,0.7,0c0.3,0,0.4,0.1,0.4,0.4c0,1.9,0,3.8,0,5.7
			c0,0.6-0.2,1.2-0.3,1.8c-0.1,0.5-0.6,0.9-1.1,1c-0.7,0.2-1.5,0.2-2.2,0c-1-0.3-1.3-1.1-1.4-2c-0.1-2.2-0.1-4.5-0.1-6.7
			c0-0.1,0.2-0.3,0.3-0.3c1.2-0.1,1.2-0.1,1.2,1.1c0,1.7,0,3.4,0,5.1c0,0.4,0.1,0.8,0.2,1.1c0.1,0.4,0.5,0.7,0.9,0.6
			c0.4,0,0.7-0.2,0.8-0.6c0.1-0.3,0.1-0.7,0.1-1C105.5,31,105.5,30,105.5,29.1z"/>
		<path class="st0" d="M93.6,30.1c0,0.8,0,1.6,0,2.4c0,0.5,0.1,0.9,0.6,1.1c0.6,0.2,1.1-0.1,1.2-0.7c0-0.4,0.1-0.8,0.1-1.2
			c0-0.3,0.1-0.4,0.4-0.4c1.3,0.1,1.1-0.3,1.1,1.1c0,0.3-0.1,0.7-0.2,1.1c-0.1,0.3-0.2,0.6-0.5,0.7c-0.8,0.7-1.8,0.7-2.8,0.4
			c-0.9-0.2-1.3-0.9-1.4-1.8C92,31.9,92,31.1,92,30.2s0-1.8,0.1-2.7c0.1-1.2,0.9-1.9,2.1-2c0.4,0,0.7,0,1.1,0c1,0.2,1.5,0.8,1.6,1.8
			c0.1,0.4,0.1,0.8,0,1.2c0,0.1-0.2,0.2-0.3,0.3l0,0c-0.3,0-0.8,0.1-1-0.1c-0.2-0.1-0.1-0.6-0.1-0.9c0-0.1,0-0.2-0.1-0.4
			c-0.1-0.5-0.3-0.8-0.7-0.8c-0.5-0.1-0.9,0.2-1,0.6c-0.1,0.2-0.1,0.5-0.1,0.8C93.5,28.7,93.6,29.4,93.6,30.1L93.6,30.1z"/>
		<path class="st0" d="M27.4,34.6c0.2-0.8,0.3-1.5,0.4-2.2c0.4-2.2,0.9-4.3,1.3-6.5c0.1-0.3,0.2-0.4,0.4-0.4c0.3,0,0.6,0,0.8,0
			c0.4-0.1,0.5,0.2,0.6,0.5c0.5,2.7,1.1,5.4,1.6,8.1c0.1,0.3,0,0.4-0.3,0.4c-1.3,0-1,0.2-1.2-1c-0.2-1.1-0.2-1-1.2-1.1
			c-0.4,0-0.7,0.1-0.7,0.6c0,0.4-0.2,0.8-0.2,1.2c0,0.2-0.1,0.3-0.4,0.3C28.2,34.6,27.9,34.6,27.4,34.6z M30.7,31.5
			c-0.2-1.2-0.4-2.4-0.6-3.6c-0.1,0-0.1,0-0.1,0c-0.2,1.2-0.4,2.4-0.6,3.6C29.9,31.5,30.3,31.5,30.7,31.5z"/>
		<path class="st0" d="M65,34.6c0.2-1,0.3-1.8,0.5-2.7c0.4-2,0.8-4,1.2-6c0.1-0.3,0.2-0.4,0.5-0.4c0.1,0,0.2,0,0.3,0
			c1,0,1,0,1.2,0.9c0.5,2.6,1,5.1,1.5,7.6c0.1,0.4,0,0.5-0.4,0.5c-1,0-1,0-1.2-1c-0.1-0.4,0-0.9-0.3-1.1c-0.2-0.2-0.7-0.1-1.1-0.1
			s-0.6,0.1-0.6,0.5s-0.2,0.8-0.2,1.3c0,0.3-0.1,0.4-0.4,0.4C65.8,34.6,65.5,34.6,65,34.6z M68.3,31.5c-0.2-1.2-0.4-2.4-0.6-3.6
			c-0.1,0-0.1,0-0.1,0c-0.2,1.2-0.4,2.4-0.6,3.6C67.5,31.5,67.9,31.5,68.3,31.5z"/>
		<path class="st0" d="M94.7,19.7c0.1-0.5,0.2-1,0.3-1.4c0.5-2.4,1-4.8,1.5-7.2c0.1-0.3,0.2-0.4,0.5-0.4c1.3,0,1.3,0,1.5,1.2
			c0.5,2.5,1,5,1.5,7.5c0.1,0.3,0,0.4-0.3,0.4c-1.4,0-1,0.2-1.3-1.1c-0.3-1.3,0.1-1-1.3-1.1c-0.4,0-0.6,0.1-0.6,0.5
			s-0.1,0.9-0.2,1.3c0,0.2-0.1,0.4-0.4,0.3C95.5,19.7,95.2,19.7,94.7,19.7z M98.1,16.6c-0.2-1.2-0.4-2.4-0.6-3.6c-0.1,0-0.1,0-0.1,0
			c-0.2,1.1-0.4,2.3-0.5,3.4c0,0.1,0.2,0.2,0.2,0.2C97.4,16.6,97.7,16.6,98.1,16.6z"/>
		<path class="st0" d="M72,31.8c0.1,0.4,0.1,0.8,0.3,1.1c0.1,0.3,0.4,0.5,0.7,0.6c0.6,0.2,1-0.3,1-0.9c0-0.5-0.2-0.9-0.6-1.2
			c-0.6-0.5-1.1-1-1.7-1.5c-0.9-0.8-1.1-1.8-0.9-2.9c0.1-0.2,0.1-0.4,0.2-0.5c0.6-0.9,1.6-1,2.6-0.9c0.9,0.1,1.3,0.7,1.5,1.5
			c0,0.1,0.1,0.3,0.1,0.4c0.1,0.3,0,0.4-0.3,0.5c-0.3,0-0.6,0.2-0.8,0.1c-0.2-0.1-0.2-0.5-0.3-0.8c-0.1-0.5-0.5-0.7-0.9-0.7
			c-0.5,0.1-0.8,0.4-0.8,0.9c0,0.3,0.2,0.7,0.4,1c0.5,0.5,1,0.9,1.5,1.4c0.8,0.7,1.4,1.6,1.3,2.8c-0.1,1.1-0.9,2-1.9,2
			c-0.5,0-1.1-0.1-1.6-0.2c-0.7-0.3-1.3-1.4-1.2-2.2c0-0.1,0.1-0.2,0.2-0.2C71.2,31.9,71.6,31.9,72,31.8z"/>
		<path class="st0" d="M51.7,13c-0.5,0.1-0.9,0.2-1.3,0.3c-0.1-0.3-0.1-0.6-0.2-0.8c-0.1-0.5-0.5-0.7-0.9-0.6
			c-0.5,0.1-0.7,0.4-0.7,0.9s0.2,0.9,0.6,1.2c0.4,0.4,0.9,0.8,1.3,1.2c0.6,0.6,1.1,1.3,1.3,2.2c0.2,1.4-0.7,2.6-2.1,2.6
			c-1.6,0-2.4-0.7-2.5-2.3c0-0.1,0-0.2-0.1-0.4c0.4-0.1,0.8-0.2,1.2-0.2c0.1,0,0.2,0.2,0.2,0.3c0.1,0.3,0.1,0.6,0.2,0.8
			c0.2,0.5,0.6,0.7,1.1,0.6c0.4-0.1,0.6-0.4,0.6-0.9s-0.2-1-0.6-1.3c-0.5-0.5-1.1-1-1.6-1.4c-0.9-0.7-1.1-1.7-0.9-2.8
			c0.1-0.7,0.6-1.2,1.2-1.4c0.6-0.2,1.1-0.2,1.7-0.1c0.9,0.2,1.3,0.9,1.4,1.7C51.7,12.5,51.7,12.7,51.7,13z"/>
		<path class="st0" d="M92.5,16.8c0.1-0.6,0.2-1.2,0.3-1.8c0.2-1.3,0.5-2.6,0.7-3.9c0.1-0.3,0.2-0.5,0.6-0.5c0.3,0,0.6,0,0.9,0
			c-0.2,1.2-0.5,2.3-0.7,3.4c-0.3,1.7-0.7,3.5-1.1,5.2c-0.1,0.3-0.2,0.5-0.5,0.5c-1.1,0-1.1,0-1.3-1.1c-0.5-2.5-1-5-1.5-7.5
			c-0.1-0.4,0-0.4,0.3-0.4c1.2,0,0.9-0.1,1.1,0.9c0.3,1.6,0.6,3.2,0.9,4.8C92.3,16.6,92.4,16.7,92.5,16.8L92.5,16.8z"/>
		<path class="st0" d="M115.4,29.4c0.5,0,0.9,0,1.3,0c0.3,0,0.3,0.1,0.3,0.3c0,0.9,0.1,0.8-0.7,0.8c-1,0-1,0-1,0.9
			c0,0.6,0,1.2,0,1.8c0,0.3,0.1,0.3,0.3,0.3c0.5,0,1,0,1.5,0c0.3,0,0.4,0.1,0.4,0.4c0,0.1,0,0.2,0,0.4s-0.1,0.3-0.3,0.3
			c-1.1,0-2.1,0-3.2,0c-0.2,0-0.3-0.1-0.3-0.3c0-2.8,0-5.6,0-8.4c0-0.2,0.1-0.3,0.3-0.3c1,0,2.1,0,3.1,0c0.3,0,0.4,0.1,0.3,0.3
			c0,0.1,0,0.2,0,0.4c0,0.3-0.1,0.3-0.3,0.3c-0.5,0-1,0-1.5,0c-0.2,0-0.3,0.1-0.3,0.3C115.4,27.7,115.4,28.5,115.4,29.4z"/>
		<path class="st0" d="M61.6,10.7c0.5,0,0.8,0,1.2,0c0.1,0,0.3,0.2,0.4,0.3c0.3,1,0.6,1.9,0.9,2.9c0,0.1,0,0.1,0.1,0.3
			c0.1-0.2,0.2-0.4,0.2-0.5c0.3-0.9,0.5-1.8,0.8-2.7c0.1-0.3,0.2-0.4,0.5-0.4s0.6,0,1,0c-0.2,0.5-0.3,0.9-0.4,1.4
			c-0.4,1.2-0.8,2.4-1.2,3.6c-0.1,0.4-0.2,0.8-0.2,1.2c0,0.8,0,1.6,0,2.4c0,0.3-0.1,0.4-0.3,0.4c-1.2,0-1.2,0-1.2-1.1
			c0.1-1.6-0.2-3.1-0.7-4.6c-0.4-0.9-0.6-1.9-1-2.9C61.7,11,61.7,10.9,61.6,10.7z"/>
		<path class="st0" d="M55.5,30.1c0-1.4,0-2.7,0-4c0-0.3,0.1-0.5,0.4-0.5c1,0,1.9,0,2.9,0c0.4,0,0.4,0.2,0.4,0.5s0.1,0.6-0.4,0.6
			c-0.4,0-0.9,0-1.3,0c-0.3,0-0.4,0.1-0.4,0.3c0,0.7,0,1.4,0,2.1c0,0.3,0.1,0.3,0.3,0.3c0.3,0,0.6,0,0.9,0c0.3,0,0.5,0.1,0.4,0.4
			c0,0.1,0,0.2,0,0.3c0,0.2-0.1,0.3-0.3,0.3c-0.3,0-0.6,0-0.9,0c-0.4,0-0.5,0.1-0.5,0.5c0,1.1,0,2.2,0,3.2c0,0.3-0.1,0.5-0.5,0.5
			c-0.3,0-0.5,0-0.8,0s-0.4-0.1-0.4-0.4C55.5,32.9,55.5,31.5,55.5,30.1z"/>
		<path class="st0" d="M101,15.8c0-1.2,0-2.4,0-3.6c0-0.3-0.1-0.4-0.4-0.4c-0.2,0-0.3,0-0.5,0c-0.6,0-0.6,0-0.6-0.6
			c0-0.4,0.1-0.5,0.5-0.5c1.2,0,2.4,0,3.7,0c0.3,0,0.5,0.1,0.5,0.5c0,0.1,0,0.3,0,0.4c0,0.1-0.2,0.2-0.3,0.3c-0.3,0-0.5,0-0.8,0
			c-0.4,0-0.4,0.1-0.4,0.5c0,2.3,0,4.6,0,6.9c0,0.6,0,0.6-0.6,0.6c-1,0-1,0-1-1C101,17.7,101,16.7,101,15.8z"/>
		<path class="st0" d="M98.6,30.7c0-1.2,0-2.4,0-3.5c0-0.3-0.1-0.5-0.5-0.5c-0.2,0-0.3,0-0.5,0s-0.5,0-0.6-0.1
			c-0.1-0.3-0.1-0.6,0-0.9c0-0.1,0.2-0.1,0.3-0.1c1.3,0,2.6,0,3.9,0c0.2,0,0.3,0.1,0.3,0.3c0.1,0.8,0.1,0.8-0.8,0.8
			c-0.8,0-0.7-0.1-0.7,0.7c0,2.3,0,4.5,0,6.8c0,0.3-0.1,0.5-0.5,0.5c-1.1,0-1.1,0-1.1-1.1C98.6,32.6,98.6,31.6,98.6,30.7z"/>
		<path class="st0" d="M76.9,30.7c0-1.2,0-2.3,0-3.5c0-0.3-0.1-0.5-0.5-0.5c-0.3,0-0.5,0-0.8,0c-0.2,0-0.3-0.1-0.3-0.3
			c0-0.9-0.1-0.8,0.8-0.8c1.1,0,2.3,0,3.4,0c0.4,0,0.5,0.1,0.5,0.5c0,0.1,0,0.1,0,0.2c0.1,0.3-0.1,0.5-0.4,0.4l0,0c-1,0-1,0-1,1
			c0,2.1,0,4.3,0,6.4c0,0.4-0.1,0.5-0.5,0.5c-1,0-1,0-1-1.1C76.9,32.6,76.9,31.6,76.9,30.7z"/>
		<path class="st0" d="M53.3,15.8c0-1.2,0-2.3,0-3.5c0-0.4-0.1-0.5-0.5-0.5c-0.2,0-0.3,0-0.5,0c-0.6,0-0.6,0-0.6-0.6
			c0-0.4,0.1-0.5,0.5-0.5c1.2,0,2.4,0,3.7,0c0.3,0,0.5,0.1,0.4,0.5c0,0.1,0,0.3,0,0.4c0,0.1-0.2,0.2-0.3,0.3c-0.3,0-0.6,0-0.8,0
			c-0.3,0-0.4,0.1-0.4,0.4c0,1,0,1.9,0,2.9c0,1.4,0,2.8,0,4.3c0,0.3-0.1,0.4-0.4,0.4c-1.1,0-1.1,0-1.1-1.1
			C53.3,17.7,53.3,16.7,53.3,15.8z"/>
		<path class="st0" d="M104.4,15.2c0-1.4,0-2.7,0-4.1c0-0.3,0.1-0.4,0.4-0.4c1.2,0,1.2,0,1.2,1.2c0,2.5,0,4.9,0,7.4
			c0,0.4-0.1,0.5-0.5,0.5c-1.1,0-1.1,0-1.1-1.1C104.4,17.5,104.4,16.4,104.4,15.2z"/>
		<path class="st0" d="M71,15.2c0-1.4,0-2.7,0-4.1c0-0.3,0.1-0.4,0.4-0.4c1.1,0,1.1,0,1.1,1.1c0,2.5,0,4.9,0,7.4
			c0,0.4-0.1,0.5-0.5,0.5c-1,0-1,0-1-1C71,17.5,71,16.4,71,15.2z"/>
		<path class="st0" d="M29.5,15.2c0,1.4,0,2.7,0,4.1c0,0.3-0.1,0.4-0.4,0.4c-1.1,0-1.1,0-1.1-1.1c0-2.5,0-5,0-7.4
			c0-0.4,0.1-0.5,0.5-0.5c1.1,0,1.1,0,1.1,1C29.5,12.9,29.5,14,29.5,15.2z"/>
		<path class="st0" d="M47.2,30.1c0-1.4,0-2.7,0-4.1c0-0.3,0.1-0.5,0.5-0.5c1.1,0,1.1,0,1.1,1.1c0,2.5,0,5,0,7.5
			c0,0.4-0.1,0.5-0.5,0.5c-1.1,0-1.1,0-1.1-1.1S47.2,31.3,47.2,30.1z"/>
		<path class="st0" d="M67.5,19.8L67.5,19.8c-0.3-0.1-0.7-0.1-0.7-0.2c-0.1-0.4-0.1-0.8-0.1-1.1c0-0.1,0.1-0.1,0.2-0.2H67
			c1.1-0.1,1.2-0.1,1.1,1.1c0,0.4,0,0.8-0.2,1.2c-0.1,0.3-0.4,0.5-0.7,0.6c-0.1,0.1-0.2,0-0.4-0.1c0-0.1,0-0.3,0.1-0.4
			C67.3,20.4,67.5,20.2,67.5,19.8z"/>
	</g>
</g>
</svg>
