<?xml version="1.0" encoding="utf-8"?>
<!-- Generator: Adobe Illustrator 25.0.1, SVG Export Plug-In . SVG Version: 6.00 Build 0)  -->
<svg version="1.1" id="Layer_1" xmlns="http://www.w3.org/2000/svg" xmlns:xlink="http://www.w3.org/1999/xlink" x="0px" y="0px"
	 viewBox="0 0 125 125" style="enable-background:new 0 0 125 125;" xml:space="preserve">
<style type="text/css">
	.st0{fill:#D2D1D3;}
</style>
<g>
	<g>
		<path class="st0" d="M32.1,78.1c0.9-0.5,1.3-0.4,1.8,0.5c0.4,0.7,0.9,1.4,1.3,2.1c0.3,0.5,0.8,0.8,1.4,0.7c0.9,0,1.8,0,2.7,0
			c0.6,0,1-0.2,1.3-0.7c0.5-0.7,0.9-1.4,1.3-2.1c0.5-0.9,0.9-1,1.8-0.5c0.9-3,1.8-6,2.8-8.9c0.3-1,0.9-1.9,1.9-2.4
			c0.4-0.2,0.8-0.3,1.3-0.3c2.2,0,4.4,0,6.6,0c0.9,0,1.6,0.3,2.2,1c0.5,0.5,0.9,1.2,1.1,1.9c0.8,2.7,1.7,5.5,2.5,8.2
			c0.1,0.3,0.1,0.7,0.1,1c0,0.6-0.4,1-0.9,1.2c-0.6,0.2-1.1,0-1.4-0.5c-0.2-0.2-0.3-0.5-0.4-0.8c-0.7-2.3-1.4-4.6-2-6.8
			c-0.1-0.3-0.1-0.8-0.6-0.7c-0.3,0-0.4,0.4-0.2,0.9c1.2,4.3,2.4,8.6,3.5,12.8c0,0.2,0.1,0.3,0.1,0.6c-0.9,0-1.7,0-2.6,0
			c-0.9,0-0.9,0-0.9,0.9c0,2.9,0,5.9,0,8.8c0,1.4-1.4,2.2-2.5,1.5c-0.6-0.4-0.8-1-0.8-1.7c0-2.9,0-5.8,0-8.6c0-0.2,0-0.4,0-0.6
			s-0.1-0.3-0.3-0.3c-0.6,0-0.6,0-0.6,0.6c0,3,0,6,0,9c0,1.1-0.7,1.8-1.8,1.8c-0.9,0-1.6-0.8-1.6-1.8c0-2,0-3.9,0-5.9
			c0-1.1,0-2.2,0-3.3c0-0.4-0.1-0.5-0.5-0.5c-0.8,0-1.7,0-2.5,0c-0.1,0-0.3,0-0.5,0c0-0.2,0.1-0.3,0.1-0.5c1.2-4.3,2.4-8.6,3.5-12.8
			c0.1-0.2,0.1-0.4,0.1-0.6s-0.2-0.4-0.3-0.4s-0.3,0.1-0.4,0.3c-0.1,0.1-0.1,0.2-0.1,0.3c-0.7,2.3-1.4,4.6-2.1,6.9
			c-0.1,0.2-0.1,0.4-0.3,0.6c-0.5,0.9-1.5,1-2.2,0.3c0-0.2,0-0.2-0.1-0.3c-0.9,1.7-1.8,3.3-2.7,5c-0.3,0.6-0.3,1.2-0.1,1.8
			c0.4,1.6,0.8,3.1,1.2,4.7c0,0.1,0.1,0.2,0.1,0.4c-0.5,0-0.9,0-1.4,0c0,0.4,0,0.7,0,1c0,1.1,0,2.1,0,3.2c0,0.8-0.5,1.4-1.3,1.4
			s-1.3-0.5-1.4-1.4c0-1.1,0-2.1,0-3.2c0-0.3,0-0.6,0-1c-0.3,0-0.5,0-0.8,0c0,0.1,0,0.3,0,0.5c0,1.2,0,2.5,0,3.7
			c0,1.1-1,1.7-1.9,1.2c-0.5-0.3-0.7-0.7-0.7-1.3c0-1.2,0-2.5,0-3.7c0-0.1,0-0.3,0-0.5c-0.5,0-0.9,0-1.4,0c0.2-0.6,0.3-1.2,0.5-1.7
			c0.3-1,0.6-2.1,0.9-3.1c0.2-0.8,0.2-1.6-0.3-2.4c-0.9-1.5-1.7-3-2.6-4.6c-0.1,0.1-0.1,0.2-0.2,0.3c-0.4,0.4-0.9,0.6-1.5,0.4
			c-0.5-0.2-0.8-0.6-0.8-1.2c0-2.6,0-5.1,0-7.7c0-0.2,0-0.4-0.1-0.6c-0.1-0.3-0.3-0.5-0.6-0.5c-0.3,0-0.4,0.2-0.5,0.5
			c0,0.2,0,0.4,0,0.6c0,7.9,0,15.8,0,23.6c0,1.1-0.6,1.8-1.5,2c-1.2,0.2-2.3-0.6-2.3-1.9c0-0.9,0-1.8,0-2.6c0-3.7,0-7.4,0-11.1
			c0-0.1,0-0.3,0-0.4c0-0.3-0.2-0.4-0.5-0.4s-0.5,0.2-0.5,0.5c0,0.1,0,0.2,0,0.4c0,4.5,0,9,0,13.5c0,1-0.4,1.7-1.2,2
			c-1.2,0.5-2.5-0.4-2.6-1.7c0-0.1,0-0.3,0-0.4c0-7.9,0-15.8,0-23.6c0-0.2,0-0.4,0-0.5c-0.1-0.2-0.3-0.4-0.5-0.4s-0.4,0.2-0.6,0.3
			c-0.1,0.1-0.1,0.4-0.1,0.6c0,2.6,0,5.1,0,7.7c0,0.5-0.2,1-0.6,1.3c-0.1,0.1-0.1,0.2-0.2,0.3c-1,5.3-2,10.7-3,16
			c-0.1,0.6-0.4,0.8-0.9,0.7c-0.4-0.1-0.6-0.4-0.5-1c1-5.3,2-10.5,3-15.8c0-0.2-0.1-0.3-0.1-0.5c0-0.4-0.2-0.7-0.2-1
			c0-3.2,0-6.4,0-9.6c0-2.3,2-4.3,4.4-4.3c2.5,0,4.9,0,7.4,0c2.4,0,4.4,2.1,4.4,4.5c0,2.9,0,5.7,0,8.6
			C32.1,77.7,32.1,77.8,32.1,78.1z"/>
		<path class="st0" d="M94.9,82.6c0-4,0-7.9,0-11.9c0-0.2,0-0.4-0.1-0.6c-0.1-0.3-0.2-0.4-0.5-0.4s-0.5,0.1-0.6,0.4
			c0,0.2,0,0.3,0,0.5c0,2.6,0,5.2,0,7.9c0,1-0.9,1.6-1.8,1.3c-0.5-0.2-0.8-0.6-0.8-1.1c0-3.3,0-6.6,0-9.9c0-2,1.7-3.8,3.7-4.1
			c0.3,0,0.7-0.1,1.1-0.1c2.3,0,4.5,0,6.8,0c2.2,0,4.1,1.5,4.5,3.6c0.1,0.3,0.1,0.6,0.1,0.9c0,3.1,0,6.2,0,9.2c0,1.1-1,1.8-1.9,1.3
			c-0.5-0.3-0.7-0.7-0.7-1.3c0-2.6,0-5.3,0-7.9c0-0.5-0.2-0.7-0.5-0.8c-0.3,0-0.5,0.1-0.6,0.4c0,0.2-0.1,0.5-0.1,0.7
			c0,7.9,0,15.9,0,23.8c0,1.1-0.6,1.8-1.6,2c-1.1,0.2-2.1-0.7-2.1-1.8c0-4.5,0-9.1,0-13.6c0-0.2,0-0.4-0.1-0.6s-0.3-0.4-0.5-0.4
			c-0.2-0.1-0.5,0.1-0.5,0.4c0,0.2,0,0.4,0,0.6c0,4.5,0,9,0,13.5c0,1.1-0.6,1.8-1.6,1.9C96,96.7,95,95.8,95,94.7c0-3.9,0-7.8,0-11.7
			C94.9,82.8,94.9,82.7,94.9,82.6z"/>
		<path class="st0" d="M65,85c0.5-1.7,0.9-3.3,1.4-4.9c0.8-2.8,1.6-5.7,2.3-8.5c0-0.2,0.1-0.4,0.1-0.5s-0.2-0.4-0.3-0.4
			c-0.1,0-0.3,0.1-0.5,0.2c-0.1,0.1-0.1,0.3-0.2,0.5c-0.7,2.3-1.4,4.6-2,6.8c-0.1,0.2-0.2,0.5-0.3,0.7c-0.3,0.6-0.9,0.8-1.5,0.7
			c-0.6-0.1-0.9-0.6-1-1.3c0-0.3,0-0.6,0.1-0.9c0.9-2.8,1.7-5.6,2.6-8.4c0.4-1.3,1.3-2.3,2.7-2.6c0.2,0,0.4,0,0.5,0
			c2.2,0,4.3,0,6.5,0c1,0,1.8,0.4,2.4,1.2c0.4,0.5,0.7,1.1,1,1.8c0.9,2.7,1.7,5.4,2.5,8.1c0.1,0.4,0.2,0.7,0.1,1.1
			c-0.1,0.7-0.4,1-1.1,1.1c-0.6,0.1-1-0.1-1.4-0.7c-0.1-0.3-0.2-0.5-0.3-0.8c-0.7-2.3-1.4-4.6-2-6.8c0-0.1,0-0.2-0.1-0.3
			c-0.1-0.1-0.4-0.3-0.4-0.3c-0.2,0.1-0.3,0.3-0.3,0.5c0,0.1,0,0.3,0.1,0.5c1.2,4.3,2.4,8.7,3.6,13c0,0.1,0.1,0.2,0.1,0.4
			c-0.9,0-1.9,0-2.8,0c-0.8,0-0.7-0.1-0.7,0.7c0,3,0,6,0,9c0,1-0.7,1.7-1.6,1.8c-1,0.1-1.8-0.7-1.8-1.7c0-2,0-3.9,0-5.9
			c0-1.1,0-2.2,0-3.3c0-0.6,0-0.6-0.6-0.6c-0.1,0-0.3,0-0.4,0c0,0.2,0,0.3,0,0.5c0,3.1,0,6.2,0,9.2c0,0.9-0.6,1.6-1.4,1.7
			s-1.6-0.4-1.8-1.2c-0.1-0.2-0.1-0.5-0.1-0.7c0-3,0-5.9,0-8.9c0-0.6,0-0.6-0.7-0.6C66.9,85,66,85,65,85z"/>
		<path class="st0" d="M83.1,84c-0.1,0.1-0.2,0.3-0.2,0.4c-0.4,1.4-0.9,2.8-1.3,4.2c-0.1,0.4-0.5,0.6-0.9,0.6s-0.7-0.3-0.8-0.8
			c0-0.2,0-0.4,0.1-0.6c0.8-2,1.6-3.9,2.4-5.9c0.4-1,1.2-1.5,2.4-1.4c1.4,0.1,2.7,0,4.1,0.1c1,0,1.6,0.6,1.9,1.5
			c0.6,1.6,1.3,3.3,1.9,4.9c0.1,0.2,0.1,0.3,0.2,0.5c0.2,0.6-0.4,1.3-1,1.3c-0.3,0-0.4-0.2-0.5-0.4c-0.5-1.3-1-2.6-1.5-4
			c0-0.1-0.1-0.3-0.2-0.4h-0.1c0,0.2-0.1,0.3-0.1,0.5c0,3.5,0,7,0,10.5c0,1-0.9,1.7-1.9,1.3c-0.5-0.2-0.8-0.7-0.8-1.2
			c0-1.3,0-2.6,0-3.9c0-0.1,0-0.2,0-0.4c0-0.5-0.2-0.7-0.4-0.7c-0.3,0-0.4,0.2-0.4,0.7c0,1.4,0,2.8,0,4.3c0,0.7-0.5,1.2-1.1,1.3
			c-0.6,0.1-1.3-0.3-1.5-0.9c-0.1-0.3-0.1-0.6-0.1-0.9c0-3.4,0-6.8,0-10.1c0-0.2,0-0.3,0-0.5C83.2,84.1,83.1,84.1,83.1,84z"/>
		<path class="st0" d="M12.2,16.6c-0.6,0.2-1.1,0.4-1.7,0.6c-0.5,0.2-1.1,0.4-1.7,0.6c0-1.1,0-2.1,0-3.1c0-0.1,0.2-0.2,0.3-0.3
			c1.1-0.6,2.3-1.1,3.3-1.9c0.6-0.4,1.1-0.6,1.8-0.6c0.8,0,1.6,0,2.4,0c0,7.8,0,15.5,0,23.2c-1.5,0-2.9,0-4.4,0
			C12.2,29.1,12.2,22.9,12.2,16.6z"/>
		<path class="st0" d="M99.2,63.1c-1.9,0-3.4-1.5-3.4-3.4s1.5-3.4,3.4-3.4s3.4,1.5,3.4,3.4C102.6,61.7,101.1,63.1,99.2,63.1z"/>
		<path class="st0" d="M24.1,56.4c1.9,0,3.4,1.5,3.3,3.4c0,1.9-1.5,3.4-3.4,3.4s-3.3-1.5-3.3-3.4C20.7,57.8,22.1,56.4,24.1,56.4z"/>
		<path class="st0" d="M75.5,61.6c0,1.8-1.4,3.2-3.2,3.2c-1.8,0-3.2-1.4-3.2-3.2s1.4-3.2,3.2-3.2C74.2,58.4,75.5,59.8,75.5,61.6z"/>
		<path class="st0" d="M56.2,61.5c0,1.8-1.4,3.2-3.2,3.2s-3.2-1.4-3.2-3.2s1.4-3.2,3.2-3.2C54.8,58.4,56.2,59.8,56.2,61.5z"/>
		<path class="st0" d="M26.5,26.6c1.1,0.1,2.2,0,3.3,0.2c0.9,0.1,1.4,0.7,1.5,1.6c0.1,1.8,0.1,3.5,0,5.3c-0.1,1.2-0.8,1.7-2,1.8
			c-0.9,0.1-1.8,0-2.7,0C26.5,32.5,26.5,29.6,26.5,26.6z M28.1,34.4c0.2,0,0.4,0,0.6,0c0.6,0,1-0.3,1-0.9c0-1.6,0-3.2,0-4.8
			c0-0.4-0.2-0.7-0.6-0.8c-0.3-0.1-0.6,0-1-0.1C28.1,30,28.1,32.1,28.1,34.4z"/>
		<path class="st0" d="M62.9,31.4c0,1.3,0,2.7,0,4c-0.5,0-1,0-1.6,0c0-2.9,0-5.9,0-8.8c1.1,0,2.3-0.2,3.4,0.2
			c1.1,0.3,1.5,1.2,1.4,2.5c0,0.7-0.1,1.3-0.8,1.7c-0.1,0-0.1,0.3-0.1,0.4c0.3,1.2,0.7,2.5,1,3.7c0,0.1,0,0.2,0.1,0.4
			c-0.5,0-1,0-1.4,0c-0.1,0-0.2-0.2-0.2-0.3c-0.3-1.1-0.6-2.1-0.8-3.2C63.7,31.4,63.7,31.4,62.9,31.4z M63,30.4
			c1.3,0.1,1.8-0.3,1.8-1.5c-0.1-0.9-0.6-1.4-1.5-1.2c-0.1,0-0.2,0.1-0.2,0.2C62.9,28.7,63,29.5,63,30.4z"/>
		<path class="st0" d="M53.2,26.6c0.5,0,1,0,1.5,0c0,0.2,0,0.3,0,0.5c0,1.8,0,3.6,0,5.4c0,0.6-0.1,1.1-0.2,1.7
			c-0.2,0.8-0.7,1.3-1.5,1.4c-0.5,0.1-1.1,0.1-1.6,0c-0.9-0.1-1.4-0.8-1.6-1.8c-0.1-0.3-0.1-0.6-0.1-1c0-2,0-4.1,0-6.1
			c0.5,0,1,0,1.5,0c0,0.1,0,0.3,0,0.5c0,1.9,0,3.8,0,5.7c0,0.3,0.1,0.7,0.1,1c0.1,0.4,0.4,0.6,0.8,0.6c0.4,0,0.7-0.2,0.8-0.6
			c0.1-0.3,0.1-0.6,0.1-0.8c0-1.9,0-3.9,0-5.8C53.2,27,53.2,26.8,53.2,26.6z"/>
		<path class="st0" d="M36.4,20.9c-0.4,0-0.8,0-1.2,0c-0.1,0-0.3-0.2-0.3-0.3c-0.1-0.5-0.2-0.9-0.2-1.4c0-0.3-0.1-0.4-0.4-0.4
			c-0.4,0-0.9-0.1-1.1,0.1C33,19.1,33,19.6,32.9,20c-0.1,0.3-0.1,0.6-0.2,0.9c-0.2,0-0.5,0-0.7,0s-0.5,0-0.8,0
			c0.3-1.4,0.6-2.8,0.9-4.2c0.3-1.4,0.6-2.9,0.9-4.3c0.1-0.3,0.2-0.4,0.5-0.4c0.4,0,0.9-0.1,1.2,0.1c0.2,0.2,0.2,0.7,0.3,1.1
			c0.5,2.5,1,5,1.5,7.4C36.3,20.7,36.3,20.8,36.4,20.9z M33.1,17.8c0.4,0,0.8,0,1.2,0c-0.2-1.2-0.4-2.3-0.6-3.4h-0.1
			C33.5,15.5,33.3,16.6,33.1,17.8z"/>
		<path class="st0" d="M49.2,35.5c-0.5,0-0.9,0-1.4,0c-0.1-0.7-0.2-1.3-0.4-2c-0.5,0-0.9,0-1.3,0c-0.1,0-0.2,0.2-0.3,0.3
			c-0.1,0.5-0.2,1-0.3,1.4c0,0.1-0.2,0.3-0.2,0.3c-0.4,0-0.8,0-1.3,0c0.1-0.5,0.2-1,0.3-1.4c0.5-2.3,1-4.7,1.4-7
			c0.1-0.4,0.2-0.5,0.6-0.5c0.2,0,0.5,0,0.7,0c0.4,0,0.5,0.1,0.6,0.5c0.5,2.7,1.1,5.3,1.6,8C49.1,35.2,49.1,35.3,49.2,35.5z
			 M46.6,28.9L46.6,28.9c-0.3,1.1-0.5,2.3-0.7,3.4c0.4,0,0.8,0,1.2,0C47,31.2,46.8,30.1,46.6,28.9z"/>
		<path class="st0" d="M28.1,20.9c-0.6,0-1,0-1.6,0c0-0.2,0-0.3,0-0.4c0-2.7,0-5.3,0-8c0-0.4,0.1-0.5,0.5-0.5c0.8,0,1.5,0,2.3,0
			c1.6,0.1,2,1,2.1,2.2c0,0.2,0,0.5,0,0.7c-0.1,1.3-0.9,2-2.2,2c-1,0-1,0-1,1.1C28.1,18.9,28.1,19.9,28.1,20.9z M28.1,15.8
			c1.3,0.2,1.7-0.1,1.7-1.4c0-0.2,0-0.5-0.1-0.7s-0.3-0.4-0.5-0.4c-0.3-0.1-0.6-0.1-0.9,0c-0.1,0-0.2,0.1-0.2,0.2
			C28.1,14.2,28.1,15,28.1,15.8z"/>
		<path class="st0" d="M36.9,18.3c0.4-0.1,0.9-0.2,1.3-0.3c0.1,0.4,0.1,0.7,0.2,1.1c0.1,0.2,0.3,0.5,0.5,0.6c0.5,0.3,1,0,1-0.6
			c0.1-0.6-0.1-1.1-0.6-1.5c-0.5-0.5-1.1-1-1.6-1.5c-0.8-0.7-1-1.6-0.9-2.6c0.2-1.1,1.2-1.7,2.5-1.6c1.3,0.1,2,1,1.9,2.4
			c-0.4,0.1-0.8,0.2-1.3,0.3c-0.1-0.3-0.1-0.6-0.2-0.8c-0.1-0.4-0.4-0.7-0.8-0.6c-0.4,0.1-0.7,0.4-0.7,0.8c0,0.4,0.2,0.8,0.5,1.1
			c0.5,0.5,1.1,0.9,1.6,1.4c0.8,0.7,1.2,1.6,1.1,2.6c-0.1,1-0.8,1.8-1.9,1.9C37.8,21.1,36.9,20.2,36.9,18.3z"/>
		<path class="st0" d="M39.3,26.6c1,0,2,0,3,0c0.8,0,1.4,0.5,1.6,1.3c0.2,0.7,0.2,1.3,0.1,2c-0.2,0.9-0.9,1.5-1.9,1.5
			c-0.4,0-0.8,0-1.2,0c0,1.3,0,2.6,0,4c-0.6,0-1.1,0-1.6,0C39.3,32.5,39.3,29.6,39.3,26.6z M40.9,27.7c0,0.9,0,1.8,0,2.7
			c0.5,0,1.2,0.2,1.5-0.4c0.4-0.6,0.4-1.3,0-1.9C42.1,27.5,41.5,27.8,40.9,27.7z"/>
		<path class="st0" d="M58.8,35.5c-0.5,0-1,0-1.6,0c-0.6-2.9-1.2-5.8-1.8-8.8c0.5,0,0.9,0,1.3,0c0.1,0,0.2,0.2,0.2,0.3
			c0.3,1.8,0.7,3.5,1,5.3c0,0.1,0.1,0.3,0.2,0.4c0.4-2,0.7-4,1.1-6c0.5,0,0.9,0,1.4,0C60,29.6,59.4,32.5,58.8,35.5z"/>
		<path class="st0" d="M89,77c0,1.5-1.2,2.6-2.7,2.6s-2.6-1.2-2.6-2.7s1.2-2.7,2.7-2.7C87.9,74.2,89,75.4,89,77z"/>
		<path class="st0" d="M40.6,76.9c0,1.5-1.1,2.7-2.6,2.7s-2.7-1.2-2.7-2.7s1.2-2.7,2.7-2.6C39.5,74.3,40.6,75.4,40.6,76.9z"/>
		<path class="st0" d="M67.3,26.6c1.2,0,2.4,0,3.7,0c0,0.3,0,0.7,0,1.1c-0.7,0-1.3,0-2.1,0c0,0.9,0,1.7,0,2.6c0.5,0,1,0,1.6,0
			c0,0.4,0,0.7,0,1.1c-0.4,0-0.9,0-1.3,0c-0.1,0-0.3,0.1-0.3,0.2c0,0.9,0,1.8,0,2.8c0.6,0,1.1,0,1.6,0c0.4,0,0.6,0.1,0.5,0.5
			c0,0.2,0,0.3,0,0.5c-1.3,0-2.5,0-3.7,0C67.3,32.5,67.3,29.6,67.3,26.6z"/>
		<path class="st0" d="M79.9,26.6c0,0.2,0,0.5,0,0.7c0,0.3-0.1,0.4-0.4,0.4c-0.6,0-1.1,0-1.7,0c0,0.9,0,1.7,0,2.6c0.5,0,1,0,1.6,0
			c0,0.4,0,0.7,0,1.1c-0.4,0-0.8,0-1.2,0c-0.3,0-0.4,0.1-0.4,0.4c0,0.8,0,1.6,0,2.5c0.7,0,1.4,0,2.1,0c0,0.4,0,0.7,0,1.1
			c-1.2,0-2.4,0-3.7,0c0-2.9,0-5.8,0-8.8C77.4,26.6,78.6,26.6,79.9,26.6z"/>
		<path class="st0" d="M34,27.7c0,0.9,0,1.7,0,2.6c0.5,0,1.1,0,1.6,0c0,0.4,0,0.7,0,1.1c-0.4,0-0.8,0-1.2,0c-0.3,0-0.4,0.1-0.4,0.4
			c0,0.8,0,1.7,0,2.6c0.7,0,1.4,0,2.1,0c0,0.4,0,0.7,0,1.1c-1.2,0-2.4,0-3.7,0c0-2.9,0-5.8,0-8.8c1.2,0,2.4,0,3.6,0c0,0.3,0,0.6,0,1
			C35.4,27.7,34.7,27.7,34,27.7z"/>
		<path class="st0" d="M74.2,35.4c-0.6,0-1.1,0-1.6,0c0-0.2,0-0.3,0-0.5c0-2.3,0-4.5,0-6.8c0-0.3-0.1-0.5-0.4-0.4
			c-0.3,0-0.7,0-1.1,0c0-0.4,0-0.7,0-1.1c1.5,0,3,0,4.5,0c0,0.4,0,0.7,0,1.1c-0.5,0-0.9,0-1.4,0C74.2,30.3,74.2,32.9,74.2,35.4z"/>
		<path class="st0" d="M79.7,23.6c-0.4,0.7-0.8,1.4-1.2,2c-0.1,0.2-0.5,0.1-0.9,0.2c0.2-0.8,0.4-1.4,0.6-2c0-0.1,0.2-0.2,0.3-0.2
			C78.9,23.6,79.2,23.6,79.7,23.6z"/>
	</g>
</g>
</svg>
