<?xml version="1.0" encoding="utf-8"?>
<!-- Generator: Adobe Illustrator 25.0.1, SVG Export Plug-In . SVG Version: 6.00 Build 0)  -->
<svg version="1.1" id="Layer_1" xmlns="http://www.w3.org/2000/svg" xmlns:xlink="http://www.w3.org/1999/xlink" x="0px" y="0px"
	 viewBox="0 0 125 125" style="enable-background:new 0 0 125 125;" xml:space="preserve">
<style type="text/css">
	.st0{fill:#D2D1D3;}
</style>
<g>
	<g>
		<path class="st0" d="M18.5,23.8c0-2,0-4,0-5.9c0-1,0.2-2,0.7-3c0.7-1.5,1.9-2.5,3.5-2.9c1.4-0.3,2.8-0.4,4.1,0
			c2.3,0.6,3.5,2.2,4,4.5C31,17.3,31,18.2,31,19c0,3.2,0,6.5,0,9.7c0,1.5-0.2,2.9-0.9,4.3c-1,1.7-2.5,2.6-4.4,2.8
			c-1,0.1-2,0.1-3-0.2c-2.3-0.6-3.5-2.3-4-4.5c-0.1-0.6-0.2-1.3-0.2-1.9C18.4,27.3,18.4,25.5,18.5,23.8
			C18.4,23.8,18.5,23.8,18.5,23.8z M26.4,23.8c0-1.7,0-3.5,0-5.2c0-0.7-0.1-1.3-0.3-2c-0.2-0.6-0.7-0.9-1.4-0.9
			c-0.7,0-1.2,0.3-1.4,0.9c-0.1,0.5-0.3,1.1-0.3,1.6c0,3.7,0,7.5,0,11.2c0,0.5,0.1,1.1,0.3,1.6c0.2,0.6,0.7,0.9,1.3,0.9
			c0.6,0,1.1-0.3,1.3-0.9c0.2-0.6,0.3-1.2,0.3-1.8C26.4,27.3,26.4,25.5,26.4,23.8z"/>
		<path class="st0" d="M62.7,81.7c3.6,0,7.3,0,10.9,0c0.6,0,0.7,0,0.7,0.7c0,2,0,4.1,0,6.1c0,0.6,0,0.6-0.6,0.6
			c-7.3,0-14.6,0-21.9,0c-0.5,0-0.6-0.1-0.6-0.6c0-2,0-4.1,0-6.1c0-0.6,0-0.6,0.6-0.6C55.4,81.7,59,81.7,62.7,81.7z"/>
		<path class="st0" d="M62.7,67.3c3.6,0,7.3,0,10.9,0c0.6,0,0.6,0,0.6,0.6c0,2.1,0,4.1,0,6.2c0,0.6,0,0.6-0.6,0.6
			c-7.3,0-14.6,0-21.9,0c-0.6,0-0.6,0-0.6-0.6c0-2,0-4.1,0-6.1c0-0.7,0-0.7,0.7-0.7C55.4,67.3,59,67.3,62.7,67.3z"/>
		<path class="st0" d="M83.4,78.1c0-3.4,0-6.8,0-10.2c0-0.1,0-0.2,0-0.3c0-0.2,0.1-0.3,0.1-0.5c0.2,0.1,0.3,0.1,0.5,0.3
			c2.1,2.1,4.2,4.2,6.3,6.3c1.3,1.3,2.7,2.7,4,4c0.4,0.4,0.4,0.5,0,0.8c-3.4,3.5-6.8,7-10.3,10.4c-0.1,0.1-0.3,0.2-0.4,0.3
			c-0.1-0.2-0.2-0.3-0.2-0.5C83.4,85.2,83.4,81.6,83.4,78.1z"/>
		<path class="st0" d="M41.9,78.2c0,3.4,0,6.9,0,10.3c0,0.1,0,0.3,0,0.4c0,0.3-0.2,0.3-0.4,0.2c-0.1-0.1-0.2-0.1-0.2-0.2
			C37.8,85.4,34.4,82,31,78.6c-0.4-0.4-0.4-0.5,0-0.9c3.4-3.4,6.8-6.8,10.2-10.2c0.1-0.1,0.1-0.1,0.2-0.2c0.1-0.1,0.2-0.1,0.3-0.1
			s0.1,0.2,0.2,0.3c0,0.1,0,0.2,0,0.4C41.9,71.3,41.9,74.8,41.9,78.2z"/>
		<path class="st0" d="M62.6,57.4c-3.5,0-6.9,0-10.4,0c-0.1,0-0.2,0-0.4,0c-0.3,0-0.3-0.2-0.2-0.4c0.1-0.1,0.2-0.2,0.2-0.3
			c3.4-3.4,6.8-6.8,10.2-10.2c0.5-0.5,0.5-0.5,1,0c3.4,3.4,6.8,6.8,10.2,10.2c0.1,0.1,0.2,0.1,0.2,0.2c0.1,0.1,0.1,0.2,0.1,0.3
			s-0.2,0.1-0.3,0.1c-0.2,0-0.4,0-0.6,0C69.4,57.4,66,57.4,62.6,57.4z"/>
		<path class="st0" d="M62.7,98.9c3.5,0,6.9,0,10.4,0c0.1,0,0.3,0,0.4,0c0.2,0,0.3,0.2,0.2,0.4c-0.1,0.1-0.2,0.2-0.2,0.3
			c-3.4,3.4-6.8,6.8-10.2,10.2c-0.5,0.5-0.5,0.5-1,0c-3.4-3.4-6.8-6.8-10.2-10.2c-0.1-0.1-0.1-0.1-0.2-0.2c-0.1-0.1-0.1-0.2-0.2-0.3
			c0.1,0,0.2-0.1,0.3-0.1s0.2,0,0.4,0C55.8,98.9,59.2,98.9,62.7,98.9z"/>
		<path class="st0" d="M11.6,16.7c-1.1,0.4-2.2,0.8-3.4,1.2c0-1.1,0-2.2,0-3.2c0-0.1,0.2-0.2,0.3-0.3c1.1-0.6,2.2-1.1,3.2-1.8
			c0.7-0.5,1.4-0.7,2.3-0.7c0.6,0,1.1,0,1.7,0c0.3,0,0.4,0.1,0.4,0.4c0,1,0,2.1,0,3.1c0,6.4,0,12.9,0,19.3c0,0.6,0,0.6-0.6,0.6
			c-1.1,0-2.3,0-3.4,0c-0.6,0-0.6,0-0.6-0.6c0-5.8,0-11.7,0-17.5C11.6,17.1,11.6,16.9,11.6,16.7z"/>
		<path class="st0" d="M45.2,35.5c-0.5,0-1,0-1.4,0c-0.1,0-0.3-0.2-0.3-0.3c-0.3-1.1-0.6-2.2-0.9-3.3c0-0.1-0.2-0.3-0.3-0.4
			c-0.3-0.1-0.4,0-0.4,0.4c0,1.1,0,2.1,0,3.2c0,0.3-0.1,0.5-0.5,0.5c-1.3,0-1.3,0-1.3-1.3c0-2.4,0-4.8,0-7.2c0-0.6,0-0.6,0.6-0.6
			c0.7,0,1.5,0,2.2,0.1c1.8,0.2,2.2,1.2,2.1,2.5c0,0.8-0.2,1.5-0.9,1.9c-0.1,0-0.1,0.3,0,0.4c0.3,1.2,0.7,2.3,1,3.5
			C45.1,35.2,45.1,35.3,45.2,35.5z M43.5,29c0-1-0.3-1.4-1.3-1.3c-0.2,0-0.3,0.1-0.3,0.3c0,0.6,0,1.3,0,1.9c0,0.2,0.1,0.3,0.3,0.3
			C43.1,30.4,43.5,30,43.5,29z"/>
		<path class="st0" d="M55.3,31c0,0.8,0,1.6,0,2.4c-0.1,1.3-0.9,2-2.2,2.1c-0.8,0-1.5,0-2.3,0c-0.3,0-0.4-0.1-0.4-0.4
			c0-2.1,0-4.2,0-6.3c0-0.6,0-1.3,0-1.9c0-0.3,0.1-0.4,0.3-0.4c0.9,0,1.7,0,2.6,0.1c1.2,0.1,1.9,0.8,2,2
			C55.3,29.4,55.3,30.2,55.3,31L55.3,31z M52,31c0,1,0,2,0,2.9c0,0.3,0.1,0.4,0.4,0.4c0.9,0,1.2-0.2,1.2-1.1c0-1.5,0-2.9,0-4.4
			c0-0.8-0.3-1-1.2-1.1c-0.3,0-0.4,0.1-0.4,0.4C52,29.1,52,30.1,52,31z"/>
		<path class="st0" d="M44.3,15.9c0,1.5,0,3,0,4.5c0,0.5,0,0.5-0.5,0.5c-1,0-0.9,0.1-0.9-0.9c0-2.5,0-5,0-7.6c0-0.5,0-0.5,0.5-0.6
			c0.5,0,0.7,0.1,0.9,0.6c0.5,1.3,1.1,2.5,1.6,3.8c0,0.1,0.1,0.2,0.2,0.3c0-0.5,0-0.9,0-1.4c0-0.9,0-1.9,0-2.8
			c0-0.3,0.1-0.4,0.4-0.4c1.2,0,1-0.2,1,1c0,2.5,0,5,0,7.4c0,0.2,0.1,0.5-0.2,0.6c-0.6,0.1-0.9,0-1-0.4c-0.6-1.5-1.2-3-1.9-4.5
			C44.4,16,44.4,16,44.3,15.9L44.3,15.9z"/>
		<path class="st0" d="M56.7,20.2c-0.5,0.7-1.1,0.9-1.8,0.8c-1.2-0.2-1.9-0.8-1.9-2.1c-0.1-1.7-0.1-3.4,0-5s1.3-2.3,3-2
			c1.2,0.2,1.8,0.9,1.9,2.2c0,1.1,0.1,0.9-0.9,0.9c-0.1,0-0.1,0-0.2,0c-0.4,0.1-0.6-0.1-0.5-0.5c0-0.2,0-0.4,0-0.6
			c-0.1-0.5-0.3-0.7-0.8-0.7c-0.4,0-0.8,0.2-0.9,0.6c-0.1,0.2-0.1,0.5-0.1,0.7c0,1.3,0,2.6,0,3.9c0,0.2,0,0.5,0.1,0.7
			c0.1,0.5,0.3,0.7,0.8,0.8c0.5,0,0.8-0.2,0.9-0.7c0.1-0.4,0.1-0.9,0.1-1.3c0-0.1-0.2-0.2-0.3-0.2c-0.2-0.1-0.5,0-0.6-0.1
			c-0.1-0.3-0.1-0.6,0-0.8c0-0.1,0.2-0.2,0.3-0.2c0.6,0,1.3,0,1.9,0c0.1,0,0.3,0.2,0.3,0.3c0,1.3,0,2.7,0,4c0,0.2-0.1,0.3-0.3,0.3
			c-0.1,0-0.2,0-0.2,0c-0.4,0-0.7,0-0.6-0.5C56.8,20.4,56.7,20.3,56.7,20.2z"/>
		<path class="st0" d="M59.5,30c0-1,0-2,0-3c0-0.3,0.1-0.4,0.4-0.4c1.5,0,1.2-0.2,1.3,1.2c0,1.8,0,3.7-0.1,5.5
			c0,0.9-0.3,1.7-1.2,2.1c-1,0.4-2,0.4-3-0.2c-0.6-0.4-0.8-1.1-0.8-1.8C56,31.2,56,29.1,56,26.9c0-0.3,0.1-0.4,0.4-0.4
			c0.3,0,0.5,0,0.8,0c0.4,0,0.5,0.1,0.5,0.5c0,1.9,0,3.8,0,5.7c0,0.3,0.1,0.7,0.1,1c0.1,0.4,0.4,0.6,0.8,0.6c0.4,0,0.7-0.2,0.8-0.6
			c0.1-0.3,0.1-0.6,0.1-1C59.6,31.9,59.5,30.9,59.5,30z"/>
		<path class="st0" d="M58.4,20.9c0.1-0.6,0.2-1.1,0.3-1.6c0.5-2.3,0.9-4.5,1.4-6.8c0.1-0.6,0.1-0.6,0.7-0.6c1.2,0,1.2,0,1.4,1.1
			c0.5,2.4,1,4.9,1.5,7.3c0,0.2,0,0.3,0.1,0.5c-0.5,0-0.9,0-1.4,0c-0.1,0-0.2-0.2-0.2-0.3c-0.1-0.5-0.2-1-0.3-1.4
			c0-0.2-0.1-0.3-0.3-0.3c-0.3,0-0.5,0-0.8,0s-0.4,0.1-0.5,0.4c-0.1,0.5-0.1,0.9-0.2,1.4c0,0.1-0.2,0.3-0.3,0.3
			C59.3,21,58.9,20.9,58.4,20.9z M61.1,14.5C61.1,14.5,61,14.5,61.1,14.5c-0.2,1.1-0.4,2.1-0.6,3.2c0.4,0,0.7,0,1.1,0
			C61.4,16.6,61.3,15.6,61.1,14.5z"/>
		<path class="st0" d="M81.3,18c0.1,0.4,0.1,0.8,0.2,1.1c0.1,0.2,0.3,0.5,0.6,0.6c0.4,0.2,0.8,0,0.9-0.5c0.2-0.7-0.1-1.2-0.6-1.6
			c-0.5-0.5-1.1-0.9-1.6-1.4c-0.9-0.8-1.1-1.7-0.9-2.8c0.1-0.5,0.4-0.9,0.8-1.2c0.8-0.5,1.7-0.5,2.6-0.1c0.6,0.3,1.2,1.3,1.1,2
			c0,0.1-0.1,0.2-0.2,0.2c-0.4,0.1-0.7,0.1-1.2,0.2c0-0.3-0.1-0.5-0.1-0.7c-0.1-0.6-0.5-0.8-0.9-0.7c-0.5,0.1-0.7,0.5-0.5,1
			c0.1,0.3,0.2,0.6,0.4,0.8c0.4,0.4,0.9,0.8,1.3,1.2c0.6,0.6,1.2,1.2,1.3,2c0.2,0.9,0.1,1.8-0.8,2.4s-1.8,0.6-2.7,0.1
			c-0.9-0.5-1.1-1.3-1.2-2.2c0-0.1,0.1-0.2,0.2-0.3C80.5,18.1,80.9,18.1,81.3,18z"/>
		<path class="st0" d="M76.6,29.2c-0.1-0.4-0.1-0.6-0.2-0.9c-0.1-0.4-0.4-0.5-0.8-0.5s-0.6,0.3-0.7,0.7c0,0.4,0.1,0.8,0.4,1.1
			c0.4,0.4,0.9,0.8,1.4,1.2c0.8,0.7,1.5,1.6,1.4,2.8c0,1.1-0.7,1.9-1.7,2.1c-1.7,0.3-3-0.7-3-2.4c0-0.1,0.1-0.3,0.2-0.3
			c0.4-0.1,0.8-0.2,1.2-0.3c0,0.2,0,0.3,0.1,0.4c0.1,0.3,0.1,0.6,0.2,0.9c0.2,0.4,0.6,0.6,0.9,0.5s0.5-0.4,0.5-0.9s-0.3-1-0.7-1.3
			c-0.5-0.5-1.1-0.9-1.6-1.4c-0.7-0.6-1-1.5-0.9-2.4c0.1-1.3,1.4-2.1,2.8-1.8c1,0.2,1.8,1.1,1.7,2.2c0,0.1-0.1,0.2-0.2,0.3
			C77.4,29,77,29.1,76.6,29.2z"/>
		<path class="st0" d="M69.2,31c0-1.3,0-2.7,0-4c0-0.4,0.1-0.5,0.5-0.5c1,0,2,0,2.9,0c0.3,0,0.4,0.1,0.4,0.4c0,0.9,0.1,0.8-0.8,0.8
			c-0.4,0-0.7,0-1.1,0c-0.1,0-0.3,0.2-0.3,0.3c0,0.6,0,1.3,0,2c0,0.1,0.2,0.2,0.3,0.2c0.3,0,0.7,0,1,0s0.4,0.1,0.4,0.3
			c0,1,0.1,0.9-0.8,0.9s-0.8-0.1-0.8,0.8c0,0.6,0,1.1,0,1.7c0,0.3,0.1,0.4,0.4,0.4c0.5,0,0.9,0,1.4,0c0.3,0,0.4,0.1,0.4,0.4
			c0,1,0.1,0.8-0.8,0.8s-1.7,0-2.6,0c-0.4,0-0.5-0.1-0.5-0.5C69.2,33.7,69.2,32.4,69.2,31z"/>
		<path class="st0" d="M75.7,16.4c0-1.3,0-2.7,0-4c0-0.4,0.1-0.5,0.5-0.5c1,0,2,0,2.9,0c0.3,0,0.4,0.1,0.4,0.4
			c0,0.9,0.1,0.8-0.8,0.8c-0.3,0-0.7,0-1,0c-0.2,0-0.3,0.1-0.3,0.3c0,0.6,0,1.3,0,1.9c0,0.2,0.1,0.3,0.3,0.3c0.3,0,0.7,0,1,0
			c0.2,0,0.3,0.1,0.3,0.3c0.1,0.9,0.1,0.9-0.8,0.9c-0.8,0-0.8,0-0.8,0.8c0,0.6,0,1.1,0,1.7c0,0.3,0.1,0.4,0.4,0.4c0.5,0,0.9,0,1.4,0
			c0.3,0,0.4,0.1,0.4,0.4c0,1,0.1,0.8-0.8,0.8s-1.7,0-2.6,0c-0.4,0-0.5-0.1-0.5-0.5C75.7,19.1,75.7,17.8,75.7,16.4z"/>
		<path class="st0" d="M47.6,30.3c0.5,0,0.9,0,1.4,0c0.2,0,0.3,0.1,0.3,0.3c0.1,0.9,0.1,0.9-0.8,0.9c-0.9,0-0.9,0-0.9,0.9
			c0,0.6,0,1.1,0,1.7c0,0.2,0.1,0.3,0.3,0.3c0.5,0,0.9,0,1.4,0c0.3,0,0.4,0.1,0.4,0.4c0,0.8,0,0.8-0.8,0.8c-0.9,0-1.8,0-2.6,0
			c-0.3,0-0.4-0.1-0.4-0.4c0-2.7,0-5.5,0-8.2c0-0.3,0.1-0.4,0.4-0.4c1,0,2,0,3,0c0.3,0,0.4,0.1,0.4,0.4c0,1,0.1,0.8-0.8,0.9
			c-0.3,0-0.7,0-1,0c-0.1,0-0.3,0.1-0.3,0.2C47.6,28.7,47.6,29.5,47.6,30.3z"/>
		<path class="st0" d="M50.2,15.7c0.5,0,0.9,0,1.3,0c0.3,0,0.4,0.1,0.4,0.4c0,0.8,0,0.8-0.8,0.8c-0.9,0-0.9,0-0.9,0.9
			c0,0.6,0,1.1,0,1.7c0,0.2,0.1,0.3,0.3,0.3c0.5,0,0.9,0,1.4,0c0.3,0,0.4,0.1,0.4,0.4c0,0.9,0.1,0.8-0.8,0.8c-0.9,0-1.8,0-2.6,0
			c-0.3,0-0.4-0.1-0.4-0.4c0-2.7,0-5.5,0-8.2c0-0.3,0.1-0.4,0.4-0.4c1,0,2,0,3,0c0.3,0,0.4,0.1,0.4,0.4c0,0.9,0.1,0.8-0.8,0.8
			c-0.4,0-0.7,0-1.1,0c-0.1,0-0.3,0.1-0.3,0.2C50.2,14.2,50.2,14.9,50.2,15.7z"/>
		<path class="st0" d="M67.4,31.7c0,1.1,0,2.2,0,3.4c0,0.3-0.1,0.5-0.4,0.4c-0.3,0-0.5,0-0.8,0c-0.4,0-0.5-0.1-0.5-0.5
			c0-2.1,0-4.3,0-6.4c0-0.9,0.1-0.8-0.8-0.8c-0.1,0-0.2,0-0.4,0c-0.2,0-0.3-0.1-0.3-0.3c0-1.2-0.1-1,0.9-1c1.1,0,2.2,0,3.3,0
			c0.4,0,0.5,0.1,0.5,0.5c0,0.9,0.1,0.8-0.8,0.8c-0.1,0-0.2,0-0.3,0c-0.3,0-0.4,0.1-0.4,0.4C67.4,29.4,67.4,30.5,67.4,31.7z"/>
		<path class="st0" d="M72.2,17c0-1.1,0-2.3,0-3.4c0-0.3-0.1-0.5-0.4-0.4c-0.1,0-0.3,0-0.4,0c-0.6,0-0.6,0-0.6-0.6s0-0.6,0.6-0.6
			c1.2,0,2.3,0,3.5,0c0.4,0,0.5,0.1,0.5,0.5c0,0.9,0,0.8-0.8,0.8s-0.7-0.1-0.7,0.7c0,2.2,0,4.4,0,6.5c0,0.4-0.1,0.5-0.5,0.5
			c-1.2,0-1.2,0-1.2-1.2C72.2,18.8,72.2,17.9,72.2,17z"/>
		<path class="st0" d="M64.3,16.4c0-1.3,0-2.7,0-4c0-0.3,0.1-0.4,0.4-0.4s0.5,0,0.8,0c0.4,0,0.5,0.1,0.5,0.5c0,2.3,0,4.6,0,6.8
			c0,0.4,0.1,0.6,0.5,0.5c0.4,0,0.8,0,1.3,0c0.3,0,0.4,0.1,0.4,0.4c0,0.8,0,0.8-0.8,0.8c-0.9,0-1.7,0-2.6,0c-0.4,0-0.5-0.1-0.5-0.5
			C64.3,19.1,64.3,17.8,64.3,16.4z"/>
		<path class="st0" d="M70.3,16.5c0,1.3,0,2.7,0,4c0,0.4-0.1,0.5-0.5,0.5c-1.2,0-1.2,0-1.2-1.2c0-2.4,0-4.9,0-7.3
			c0-0.4,0.1-0.5,0.5-0.5c1.2,0,1.2,0,1.2,1.2C70.3,14.2,70.3,15.4,70.3,16.5z"/>
		<path class="st0" d="M62.1,31c0-1.3,0-2.7,0-4c0-0.3,0.1-0.5,0.4-0.4c0.3,0,0.6,0,0.9,0c0.2,0,0.3,0.1,0.3,0.3c0,2.8,0,5.5,0,8.3
			c0,0.2-0.1,0.3-0.3,0.3c-1.3,0.1-1.3,0.1-1.3-1.2C62.1,33.2,62.1,32.1,62.1,31z"/>
		<path class="st0" d="M41.8,16.5c0,1.3,0,2.7,0,4c0,0.4-0.1,0.5-0.5,0.5c-1.2,0-1.2,0-1.2-1.2c0-2.4,0-4.9,0-7.3
			c0-0.4,0.1-0.5,0.5-0.5c1.2,0,1.2,0,1.2,1.2C41.8,14.2,41.8,15.3,41.8,16.5z"/>
		<path class="st0" d="M49.7,23.6c-0.5,0.8-0.8,1.5-1.3,2.1c-0.1,0.2-0.5,0.1-1,0.2c0.2-0.5,0.3-0.9,0.4-1.3c0.3-1,0.3-1,1.4-1
			C49.3,23.6,49.4,23.6,49.7,23.6z"/>
		<path class="st0" d="M52.3,9c-0.5,0.8-0.8,1.5-1.3,2.1c-0.1,0.2-0.6,0.1-1,0.2c0.2-0.8,0.4-1.5,0.7-2.2C50.7,9,50.8,9,50.9,9
			C51.3,9,51.7,9,52.3,9z"/>
		<path class="st0" d="M79.4,9c-0.5,0.8-0.8,1.5-1.3,2.1c-0.1,0.2-0.5,0.1-0.9,0.2c0-0.2,0-0.3,0-0.3c0.2-0.6,0.3-1.1,0.5-1.7
			C77.8,9.2,78,9,78.1,9C78.5,9,78.9,9,79.4,9z"/>
	</g>
</g>
</svg>
