<?xml version="1.0" encoding="utf-8"?>
<!-- Generator: Adobe Illustrator 25.0.1, SVG Export Plug-In . SVG Version: 6.00 Build 0)  -->
<svg version="1.1" id="Layer_1" xmlns="http://www.w3.org/2000/svg" xmlns:xlink="http://www.w3.org/1999/xlink" x="0px" y="0px"
	 viewBox="0 0 125 125" style="enable-background:new 0 0 125 125;" xml:space="preserve">
<style type="text/css">
	.st0{fill:#D2D1D3;}
</style>
<g>
	<g>
		<path class="st0" d="M62.7,85.1c0,8.7,0,17.3,0,26c0,0.8,0,0.8-0.9,0.8c-4.9,0-9.7,0-14.6,0c-0.7,0-0.8-0.1-0.8-0.8
			c0-17.4,0-34.7,0-52.1c0-0.7,0.1-0.8,0.8-0.8c4.9,0,9.8,0,14.7,0c0.7,0,0.8,0,0.8,0.8C62.7,67.6,62.7,76.3,62.7,85.1z M53.1,67.5
			c0-0.6,0-1.1,0-1.7c0-0.3-0.1-0.5-0.4-0.5c-1,0-2,0-3.1,0c-0.3,0-0.4,0.1-0.4,0.4c0,1.2,0,2.3,0,3.5c0,0.3,0.1,0.4,0.4,0.4
			c1,0,2.1,0,3.1,0c0.3,0,0.4-0.1,0.4-0.4C53,68.7,53.1,68.1,53.1,67.5z M53.1,85.7c0-0.6,0-1.2,0-1.7c0-0.3-0.1-0.4-0.4-0.4
			c-1.1,0-2.1,0-3.2,0c-0.3,0-0.4,0.1-0.4,0.4c0,1.2,0,2.4,0,3.6c0,0.3,0.1,0.4,0.4,0.4c1.1,0,2.1,0,3.2,0c0.3,0,0.4-0.1,0.4-0.4
			C53.1,86.9,53.1,86.3,53.1,85.7z M53.1,103.9c0-0.6,0-1.2,0-1.7c0-0.3-0.1-0.4-0.4-0.4c-1,0-2.1,0-3.1,0c-0.3,0-0.4,0.1-0.4,0.4
			c0,1.2,0,2.4,0,3.6c0,0.3,0.1,0.4,0.4,0.4c1,0,2.1,0,3.1,0c0.3,0,0.4-0.1,0.4-0.4C53.1,105.1,53.1,104.5,53.1,103.9z M49.1,76.6
			c0,0.6,0,1.2,0,1.7c0,0.3,0.1,0.4,0.4,0.4c1,0,2,0,3,0c0.3,0,0.4-0.1,0.4-0.4c0-1.2,0-2.3,0-3.5c0-0.3-0.1-0.4-0.4-0.4
			c-1,0-2.1,0-3.1,0c-0.3,0-0.4,0.1-0.4,0.4C49.2,75.5,49.1,76,49.1,76.6z M53.1,94.8c0-0.6,0-1.2,0-1.7c0-0.3-0.1-0.4-0.4-0.4
			c-1,0-2.1,0-3.1,0c-0.3,0-0.4,0.1-0.4,0.4c0,1.2,0,2.4,0,3.5c0,0.3,0.1,0.4,0.4,0.4c1,0,2.1,0,3.1,0c0.3,0,0.4-0.1,0.4-0.4
			C53,95.9,53.1,95.4,53.1,94.8z M60,76.6c0-0.6,0-1.1,0-1.7c0-0.3-0.1-0.5-0.5-0.5c-1,0-2,0-3,0c-0.3,0-0.5,0.1-0.5,0.5
			c0,1.2,0,2.3,0,3.5c0,0.3,0.1,0.4,0.4,0.4c1,0,2.1,0,3.1,0c0.3,0,0.4-0.1,0.4-0.4C60,77.8,60,77.2,60,76.6z M60,94.8
			c0-0.6,0-1.1,0-1.7c0-0.3-0.1-0.5-0.5-0.5c-1,0-2,0-3,0c-0.3,0-0.5,0.1-0.5,0.5c0,1.2,0,2.3,0,3.5c0,0.3,0.1,0.4,0.4,0.4
			c1,0,2.1,0,3.1,0c0.3,0,0.4-0.1,0.4-0.4C60,95.9,60,95.4,60,94.8z M60,85.7c0-0.6,0-1.2,0-1.7c0-0.3-0.1-0.4-0.4-0.4
			c-1,0-2.1,0-3.1,0c-0.3,0-0.4,0.1-0.4,0.4c0,1.2,0,2.3,0,3.5c0,0.3,0.1,0.4,0.4,0.4c1,0,2.1,0,3.1,0c0.3,0,0.4-0.1,0.4-0.4
			C60,86.9,60,86.3,60,85.7z M60,67.5c0-0.6,0-1.2,0-1.7c0-0.3-0.1-0.4-0.4-0.4c-1,0-2.1,0-3.1,0c-0.3,0-0.4,0.1-0.4,0.4
			c0,1.2,0,2.3,0,3.5c0,0.3,0.1,0.4,0.4,0.4c1,0,2.1,0,3.1,0c0.3,0,0.4-0.1,0.4-0.4C60,68.7,60,68.1,60,67.5z M60,103.9
			c0-0.6,0-1.1,0-1.7c0-0.4-0.1-0.5-0.5-0.5c-1,0-2,0-3,0c-0.4,0-0.5,0.1-0.5,0.5c0,1.1,0,2.2,0,3.4c0,0.3,0.1,0.5,0.5,0.5
			c1,0,2,0,3,0c0.3,0,0.5-0.1,0.4-0.5C60,105,60,104.4,60,103.9z"/>
		<path class="st0" d="M81,90c0,7.1,0,14.1,0,21.2c0,0.8-0.1,0.8-0.8,0.8c-4.9,0-9.7,0-14.6,0c-0.8,0-0.8-0.1-0.8-0.8
			c0-7.6,0-15.3,0-22.9c0-0.4,0.1-0.7,0.3-1c5-6.3,10-12.6,15-19c0.2-0.2,0.3-0.5,0.7-0.4c0.3,0.1,0.3,0.5,0.3,0.7
			C81,75.8,81,82.9,81,90z M72.2,86.5c0-1,0-2,0-3c0-0.2-0.1-0.5-0.3-0.6c-0.2-0.2-0.4,0.1-0.6,0.3c-1.4,1.7-2.7,3.4-4.1,5.1
			c-0.3,0.4-0.4,0.7-0.4,1.2s0.1,0.6,0.6,0.6c1.4,0,2.8,0,4.1,0c0.5,0,0.6-0.1,0.6-0.6C72.2,88.5,72.2,87.5,72.2,86.5z M69.5,100.7
			c0.7,0,1.4,0,2.1,0c0.5,0,0.6-0.1,0.6-0.6c0-0.8,0-1.6,0-2.4c0-0.5-0.1-0.6-0.6-0.6c-1.4,0-2.7,0-4.1,0c-0.5,0-0.6,0.1-0.6,0.6
			c0,0.8,0,1.6,0,2.4c0,0.5,0.1,0.6,0.6,0.6C68.1,100.7,68.8,100.7,69.5,100.7z M76.6,97.1c-0.7,0-1.4,0-2.1,0
			c-0.5,0-0.6,0.1-0.6,0.6c0,0.8,0,1.6,0,2.4c0,0.5,0.1,0.6,0.6,0.6c1.4,0,2.8,0,4.1,0c0.5,0,0.6-0.1,0.6-0.6c0-0.8,0-1.7,0-2.5
			c0-0.5-0.1-0.6-0.6-0.6C77.9,97.1,77.3,97.1,76.6,97.1z M69.5,91.8c-0.7,0-1.5,0-2.2,0c-0.3,0-0.5,0.2-0.5,0.5c0,0.9,0,1.7,0,2.6
			c0,0.4,0.2,0.5,0.5,0.5c1.4,0,2.9,0,4.3,0c0.4,0,0.5-0.2,0.5-0.5c0-0.9,0-1.7,0-2.6c0-0.4-0.1-0.5-0.5-0.5
			C70.9,91.8,70.2,91.8,69.5,91.8z M69.5,106.1c0.7,0,1.4,0,2.1,0c0.5,0,0.6-0.1,0.6-0.6c0-0.8,0-1.6,0-2.4c0-0.5-0.1-0.6-0.6-0.6
			c-1.4,0-2.8,0-4.2,0c-0.4,0-0.5,0.1-0.6,0.6c0,0.8,0,1.7,0,2.5c0,0.4,0.1,0.6,0.6,0.6C68.1,106.1,68.8,106.1,69.5,106.1z
			 M76.5,81.1c-0.7,0-1.4,0-2.1,0c-0.5,0-0.5,0.1-0.5,0.6c0,0.8,0,1.7,0,2.5c0,0.5,0.1,0.6,0.5,0.6c1.4,0,2.8,0,4.2,0
			c0.4,0,0.6-0.1,0.5-0.5c0-0.9,0-1.7,0-2.6c0-0.4-0.2-0.5-0.5-0.5C78,81.1,77.3,81.1,76.5,81.1z M76.5,102.4c-0.7,0-1.4,0-2.1,0
			c-0.4,0-0.5,0.2-0.5,0.5c0,0.8,0,1.7,0,2.5c0,0.5,0.1,0.6,0.6,0.6c1.4,0,2.8,0,4.2,0c0.4,0,0.5-0.2,0.5-0.5c0-0.8,0-1.7,0-2.5
			c0-0.5-0.1-0.6-0.6-0.6C77.9,102.4,77.2,102.4,76.5,102.4z M76.5,90c0.7,0,1.5,0,2.2,0c0.3,0,0.5-0.1,0.5-0.5c0-0.9,0-1.8,0-2.6
			c0-0.3-0.2-0.5-0.5-0.5c-1.5,0-2.9,0-4.4,0c-0.3,0-0.5,0.1-0.5,0.5c0,0.9,0,1.7,0,2.6c0,0.4,0.2,0.5,0.5,0.5
			C75.1,90,75.8,90,76.5,90z M76.5,95.4c0.7,0,1.4,0,2.1,0c0.4,0,0.6-0.1,0.6-0.5c0-0.9,0-1.7,0-2.6c0-0.3-0.2-0.5-0.5-0.5
			c-1.4,0-2.9,0-4.3,0c-0.4,0-0.5,0.1-0.5,0.5c0,0.9,0,1.7,0,2.6c0,0.4,0.2,0.5,0.5,0.5C75.1,95.4,75.8,95.4,76.5,95.4z M79.2,76.5
			c0-0.7,0-1.5,0-2.2c0-0.2-0.1-0.4-0.3-0.5c-0.1-0.1-0.4,0.1-0.5,0.2c-1.2,1.5-2.5,3-3.7,4.6c-0.1,0.1-0.2,0.4-0.1,0.6
			c0.1,0.1,0.4,0.2,0.5,0.2c1.2,0,2.3,0,3.5,0c0.5,0,0.6-0.1,0.6-0.6C79.2,78,79.2,77.2,79.2,76.5z"/>
		<path class="st0" d="M99.5,103.6c0,2.6,0,5.1,0,7.7c0,0.6-0.1,0.7-0.7,0.7c-5.1,0-10.1,0-15.2,0c-0.6,0-0.7-0.1-0.7-0.7
			c0-5.1,0-10.2,0-15.3c0-0.6,0.1-0.7,0.7-0.7c5.1,0,10.1,0,15.2,0c0.6,0,0.7,0.1,0.7,0.7C99.5,98.5,99.5,101.1,99.5,103.6z
			 M94.9,106.1c0.7,0,1.4,0,2.1,0c0.6,0,0.7-0.1,0.7-0.6c0-0.8,0-1.6,0-2.4c0-0.5-0.1-0.6-0.6-0.6c-1.4,0-2.9,0-4.3,0
			c-0.4,0-0.6,0.1-0.6,0.6c0,0.8,0,1.6,0,2.4c0,0.5,0.1,0.6,0.6,0.6C93.4,106.1,94.2,106.1,94.9,106.1z M94.9,97.2
			c-0.7,0-1.4,0-2.2,0c-0.5,0-0.6,0.1-0.6,0.6c0,0.8,0,1.6,0,2.4c0,0.4,0.1,0.6,0.6,0.6c1.4,0,2.9,0,4.3,0c0.4,0,0.6-0.1,0.6-0.6
			c0-0.8,0-1.7,0-2.5c0-0.4-0.1-0.6-0.6-0.6C96.3,97.2,95.6,97.2,94.9,97.2z M87.7,106.1c0.7,0,1.5,0,2.2,0c0.4,0,0.5-0.2,0.5-0.5
			c0-0.8,0-1.7,0-2.5c0-0.4-0.1-0.6-0.6-0.6c-1.5,0-2.9,0-4.4,0c-0.4,0-0.5,0.1-0.6,0.6c0,0.8,0,1.7,0,2.5c0,0.4,0.1,0.5,0.6,0.6
			C86.2,106.1,86.9,106.1,87.7,106.1z M87.7,97.2c-0.7,0-1.5,0-2.2,0c-0.5,0-0.6,0.1-0.6,0.6c0,0.8,0,1.6,0,2.4
			c0,0.5,0.1,0.6,0.6,0.6c1.4,0,2.9,0,4.3,0c0.5,0,0.6-0.1,0.6-0.6c0-0.8,0-1.6,0-2.4c0-0.5-0.1-0.6-0.6-0.6
			C89.1,97.2,88.4,97.2,87.7,97.2z"/>
		<path class="st0" d="M35.8,98.5c2.5,0,5.1,0,7.6,0c0.7,0,0.8,0.1,0.8,0.7c0,3.9,0,7.9,0,11.8c0,0.6-0.1,0.7-0.7,0.7
			c-1.5,0-3,0-4.5,0c-0.4,0-0.5-0.1-0.5-0.5c0-2.3,0-4.7,0-7c0-0.7-0.1-0.7-0.7-0.7c-1.4,0-2.7,0-4.1,0c-0.6,0-0.7,0.1-0.7,0.7
			c0,2.3,0,4.7,0,7c0,0.6,0,0.6-0.6,0.6c-1.4,0-2.8,0-4.2,0c-0.7,0-0.8-0.1-0.8-0.8c0-3.9,0-7.8,0-11.8c0-0.7,0.1-0.8,0.8-0.8
			C30.7,98.5,33.3,98.5,35.8,98.5z"/>
		<path class="st0" d="M11.9,16.7c-1.1,0.4-2.2,0.8-3.3,1.2c0-0.2,0-0.3,0-0.4c0-0.8,0-1.7,0-2.5c0-0.3,0.1-0.5,0.4-0.6
			c1.4-0.6,2.7-1.3,3.9-2.3C13,12,13.2,12,13.4,12c0.9,0,1.8,0,2.6,0c0.4,0,0.5,0.1,0.5,0.5c0,4.6,0,9.2,0,13.8c0,2.8,0,5.7,0,8.5
			c0,0.5,0,0.5-0.5,0.5c-1.2,0-2.3,0-3.5,0c-0.4,0-0.5-0.1-0.5-0.5c0-5.9,0-11.7,0-17.6C11.9,17.1,11.9,16.9,11.9,16.7z"/>
		<path class="st0" d="M21.7,16.7c-1.1,0.4-2.2,0.8-3.4,1.2c0-0.2,0-0.4,0-0.6c0-0.8,0-1.5,0-2.3c0-0.3,0.1-0.4,0.4-0.6
			c1.1-0.6,2.3-1.2,3.4-1.9c0.5-0.4,1-0.6,1.7-0.5c0.6,0,1.3,0,2,0c0.4,0,0.5,0.1,0.5,0.5c0,5.7,0,11.4,0,17.2c0,1.7,0,3.5,0,5.2
			c0,0.4-0.1,0.5-0.5,0.5c-1.2,0-2.4,0-3.5,0c-0.4,0-0.5-0.1-0.5-0.5c0-5.9,0-11.7,0-17.6C21.7,17.1,21.7,16.9,21.7,16.7z"/>
		<path class="st0" d="M35.8,97.1c-2.5,0-5,0-7.5,0c-0.1,0-0.2,0-0.3,0c-0.2-0.1-0.4-0.1-0.5-0.2s0-0.4,0.1-0.5
			c0.4-0.6,0.9-1.2,1.3-1.8c2.1-2.7,4.1-5.4,6.2-8.1c0-0.1,0.1-0.1,0.1-0.2c0.4-0.5,0.6-0.5,1,0c1.3,1.7,2.7,3.5,4,5.2
			c1.2,1.6,2.4,3.2,3.7,4.7l0.1,0.1c0,0.2,0.2,0.4,0.1,0.5C44,96.9,43.8,97,43.6,97c-1.2,0-2.5,0-3.7,0
			C38.6,97.1,37.2,97.1,35.8,97.1z"/>
		<path class="st0" d="M91.2,94c-2.6,0-5.1,0-7.7,0c-0.6,0-0.7-0.1-0.7-0.7c0-0.9,0-1.7,0-2.6c0-0.5,0.1-0.6,0.6-0.6
			c5.2,0,10.3,0,15.5,0c0.5,0,0.5,0.1,0.5,0.6c0,0.9,0,1.8,0,2.7c0,0.5-0.1,0.6-0.6,0.6C96.3,94,93.8,94,91.2,94z"/>
		<path class="st0" d="M63.1,16.4c0-1.3,0-2.6,0-3.9c0-0.4,0.1-0.5,0.5-0.5c2.4,0,4.9,0,7.3,0c0.4,0,0.5,0.1,0.5,0.5
			c0,0.1,0,0.2,0,0.3c0,0.3-0.1,0.4-0.4,0.4c-1,0-1,0-1,1c0,2.1,0,4.1,0,6.2c0,0.4-0.1,0.6-0.5,0.5c-0.2,0-0.5,0-0.7,0
			c-0.4,0-0.5-0.1-0.5-0.5c0-2.1,0-4.2,0-6.3c0-1,0-1-1-1c-0.7,0-1.4,0-2.1,0c-0.3,0-0.4,0.1-0.4,0.4c0,0.6,0,1.2,0,1.7
			c0,0.3,0.1,0.4,0.4,0.4s0.6,0,0.9,0c0.2,0,0.3,0.1,0.4,0.3c0,0.8,0.1,0.8-0.8,0.8c-1,0-0.9-0.1-0.9,0.9c0,0.6,0,1.1,0,1.7
			c0,0.3,0.1,0.4,0.4,0.4c0.5,0,0.9,0,1.4,0c0.3,0,0.4,0.1,0.4,0.4c0,0.8,0,0.8-0.8,0.8c-0.9,0-1.7,0-2.6,0c-0.4,0-0.5-0.1-0.5-0.5
			C63.1,19.1,63.1,17.8,63.1,16.4z"/>
		<path class="st0" d="M56.9,32.5c0.2-1.1,0.5-2.2,0.7-3.3c0.2-0.8,0.3-1.6,0.5-2.3c0.1-0.3,0.2-0.4,0.4-0.4c0.3,0,0.6,0,0.9,0
			c0.3,0,0.4,0.1,0.4,0.4c0,1.4,0,2.8,0.1,4.1c0,1.3,0,2.6,0.1,3.9c0,0.4-0.1,0.5-0.5,0.5c-0.1,0-0.2,0-0.3,0
			c-0.4,0-0.5-0.1-0.5-0.5c0-1.5,0-3-0.1-4.5c0-0.2,0-0.4-0.1-0.5c-0.2,1-0.4,2.1-0.7,3.1c-0.1,0.7-0.3,1.4-0.4,2
			c-0.1,0.3-0.3,0.4-0.5,0.3c-0.3,0-0.5,0.1-0.6-0.3c-0.3-1.7-0.7-3.3-1-5c0-0.1-0.1-0.2-0.1-0.3h-0.1c0,0.9,0,1.9,0,2.8
			c0,0.8,0,1.6,0,2.4c0,0.3-0.1,0.4-0.4,0.4c-0.9,0-0.9,0.1-0.8-0.9c0.1-1.4,0-2.7,0.1-4.1c0-1.2,0.1-2.4,0.1-3.6
			c0-0.3,0.1-0.4,0.4-0.4c0.3,0,0.6,0,0.9,0c0.3,0,0.4,0.1,0.5,0.4c0.3,1.7,0.7,3.4,1,5.1C56.7,32.2,56.8,32.4,56.9,32.5L56.9,32.5z
			"/>
		<path class="st0" d="M51.5,29.8c-0.1,0.4-0.2,0.7-0.2,1.1c-0.3,1.4-0.6,2.8-0.9,4.2c-0.1,0.4-0.3,0.4-0.6,0.4s-0.5,0-0.6-0.4
			c-0.3-1.6-0.7-3.3-1-4.9c0-0.1-0.1-0.3-0.2-0.4c0,0.8,0,1.6,0,2.4c0,1,0,1.9-0.1,2.9c0,0.3-0.1,0.4-0.4,0.4c-0.9,0-0.9,0-0.9-0.8
			c0-2.5,0.1-5,0.1-7.4c0-0.7,0-0.7,0.7-0.7c1.3,0,1-0.2,1.3,1c0.3,1.5,0.6,3.1,0.9,4.6c0,0.1,0.1,0.2,0.1,0.4
			c0.1-0.2,0.1-0.3,0.1-0.4c0.4-1.7,0.8-3.5,1.1-5.2c0.1-0.4,0.2-0.5,0.6-0.5c0.2,0,0.5,0,0.7,0c0.3,0,0.5,0.1,0.5,0.4
			c0,2.7,0.1,5.3,0.1,8c0,0.4-0.1,0.6-0.5,0.5c-0.1,0-0.2,0-0.2,0c-0.4,0.1-0.5-0.1-0.5-0.5C51.6,33.2,51.6,31.4,51.5,29.8
			C51.6,29.8,51.6,29.8,51.5,29.8z"/>
		<path class="st0" d="M61.7,45.3c1.3,0.7,1.7,2.6,0.8,3.8C62,49.8,61.3,50,60.6,50c-0.8,0-1.6,0-2.4,0c-0.3,0-0.4-0.1-0.4-0.4
			c0-2.7,0-5.5,0-8.2c0-0.3,0.1-0.4,0.4-0.4c0.8,0,1.6,0,2.4,0c1.8,0.1,2.7,1.9,1.8,3.4C62.2,44.9,61.9,45.1,61.7,45.3z M59.5,47.4
			L59.5,47.4c0,0.4,0,0.8,0,1.2c0,0.1,0.1,0.3,0.1,0.3c0.5,0.3,1.5-0.1,1.6-0.7c0.1-0.3,0.1-0.7,0.1-1c-0.1-1-0.6-1.3-1.5-1.2
			c-0.1,0-0.3,0.2-0.3,0.3C59.5,46.6,59.5,47,59.5,47.4z M59.5,43.5L59.5,43.5c0,0.3,0,0.6,0,0.9c0,0.1,0.1,0.2,0.1,0.3
			c0.3,0.2,1.2,0,1.4-0.3c0.3-0.5,0.3-1.1,0.1-1.6s-0.6-0.5-1.1-0.5s-0.6,0-0.6,0.5C59.5,43.1,59.5,43.3,59.5,43.5z"/>
		<path class="st0" d="M51.9,50.1c-0.5,0-1,0-1.4,0c-0.1,0-0.2-0.2-0.3-0.4c-0.3-1.1-0.6-2.2-0.9-3.3c0-0.1-0.1-0.3-0.3-0.4
			c-0.3-0.1-0.5,0-0.5,0.4c0,1,0,2.1,0,3.1c0,0.4-0.1,0.5-0.5,0.5c-1.2,0-1.2,0-1.2-1.2c0-2.4,0-4.8,0-7.2c0-0.6,0-0.6,0.7-0.6
			c0.5,0,1.1,0,1.6,0c2.1,0,2.9,1,2.6,3c-0.1,0.6-0.3,1.1-0.8,1.4c-0.2,0.1-0.2,0.3-0.1,0.5c0.3,1.2,0.7,2.3,1,3.5
			C51.9,49.7,51.9,49.9,51.9,50.1z M48.6,43.6c0,0.3,0,0.6,0,1c0,0.1,0.1,0.3,0.2,0.3c0.3,0.1,1,0,1.2-0.3c0.3-0.3,0.4-1.3,0.1-1.8
			c-0.2-0.5-0.7-0.5-1.2-0.5c-0.2,0-0.3,0.1-0.3,0.3C48.6,43,48.6,43.3,48.6,43.6z"/>
		<path class="st0" d="M35.5,45.6c0-1.3,0-2.7,0-4c0-0.4,0.1-0.5,0.5-0.5c0.7,0,1.4,0,2.2,0c1.4,0.1,2.2,0.7,2.2,2.1
			c0.1,1.6,0.1,3.1,0,4.7c-0.1,1.3-0.8,2-2.1,2.1c-0.8,0.1-1.6,0-2.4,0.1c-0.3,0-0.4-0.1-0.4-0.4C35.5,48.4,35.5,47,35.5,45.6z
			 M37.1,45.6c0,1,0,1.9,0,2.9c0,0.3,0.1,0.4,0.4,0.4c0.9,0,1.2-0.3,1.2-1.2c0-1.4,0-2.8,0-4.3c0-0.8-0.3-1.1-1.2-1.1
			c-0.3,0-0.4,0.1-0.4,0.4C37.1,43.7,37.1,44.7,37.1,45.6z"/>
		<path class="st0" d="M45.9,31.1c0,0.9,0.1,1.7,0,2.6c-0.1,1.2-0.8,1.8-2,2c-0.5,0.1-1,0-1.4-0.1c-1-0.2-1.6-1-1.6-2.1
			c-0.1-1.6-0.1-3.1,0-4.7s1.2-2.4,2.9-2.2c1.4,0.1,2.2,0.9,2.2,2.5C46,29.6,46,30.4,45.9,31.1C46,31.1,45.9,31.1,45.9,31.1z
			 M44.3,31c0-0.8,0-1.7,0-2.5c0-0.5-0.3-0.8-0.8-0.8s-0.8,0.2-0.9,0.8c0,0.2,0,0.3,0,0.5c0,1.4,0,2.8,0,4.2c0,0.2,0,0.4,0.1,0.6
			c0.1,0.5,0.4,0.7,0.9,0.7s0.8-0.3,0.8-0.9C44.3,32.7,44.3,31.9,44.3,31z"/>
		<path class="st0" d="M69.9,31.3c0-1.3,0-2.6,0-4c0-0.9-0.1-0.8,0.8-0.8c0.6,0,0.6,0,0.6,0.6c0,2.6,0,5.2,0,7.8
			c0,0.2,0.1,0.5-0.2,0.5c-0.5,0.1-0.9,0-1-0.3c-0.6-1.4-1.2-2.8-1.8-4.2c0-0.1-0.1-0.2-0.3-0.3c0,0.1,0,0.3,0,0.4c0,1.3,0,2.7,0,4
			c0,0.3-0.1,0.5-0.5,0.5c-1.1,0-1,0.1-1-1c0-2.5,0-5,0-7.4c0-0.2-0.1-0.5,0.2-0.5c0.5-0.1,0.9,0,1.1,0.3c0.6,1.4,1.2,2.8,1.8,4.2
			C69.7,31.1,69.8,31.2,69.9,31.3C69.8,31.3,69.9,31.3,69.9,31.3z"/>
		<path class="st0" d="M80.8,30.1c0-1,0-2,0-3.1c0-0.4,0.1-0.5,0.5-0.5c1.1,0,1.1,0,1.1,1.1c0,1.7,0,3.4,0,5.2
			c0,0.5-0.1,0.9-0.2,1.4c-0.2,0.7-0.7,1.2-1.4,1.3c-0.6,0.1-1.2,0.1-1.8,0c-1-0.2-1.4-1-1.5-1.9c-0.1-0.4-0.1-0.8-0.1-1.1
			c0-1.8,0-3.6,0-5.4c0-0.4,0.1-0.5,0.5-0.5c1.1,0,1.1,0,1.1,1.1c0,1.8,0,3.6,0,5.3c0,0.2,0,0.5,0.1,0.7c0.1,0.4,0.4,0.6,0.8,0.7
			c0.4,0,0.7-0.2,0.8-0.6c0.1-0.3,0.1-0.6,0.1-0.9C80.8,31.9,80.8,31,80.8,30.1z"/>
		<path class="st0" d="M44.5,44.6c0-1,0-2,0-3c0-0.4,0.1-0.5,0.5-0.5c0.3,0,0.5,0,0.8,0c0.2,0,0.3,0.1,0.3,0.3c0,2.2,0,4.3-0.1,6.5
			c0,0.8-0.3,1.6-1.2,2c-1,0.4-2,0.4-3-0.2c-0.6-0.4-0.8-1.1-0.8-1.8c-0.1-2.2-0.1-4.3-0.1-6.5c0-0.3,0.1-0.3,0.4-0.4
			c1.2,0,1.2-0.1,1.2,1.2c0,1.6,0,3.3,0,4.9c0,0.3,0,0.7,0.1,1c0.1,0.5,0.4,0.7,0.8,0.7c0.4,0,0.7-0.3,0.8-0.7
			c0.1-0.3,0.1-0.6,0.1-0.8C44.5,46.5,44.5,45.5,44.5,44.6z"/>
		<path class="st0" d="M64.2,30c0-1,0-2,0-3c0-0.3,0.1-0.4,0.4-0.4c1.2,0,1.2,0,1.2,1.1c0,1.6,0,3.2,0,4.8c0,0.6-0.1,1.2-0.3,1.8
			c-0.2,0.6-0.6,1-1.2,1.2c-0.7,0.2-1.4,0.2-2.1,0c-0.9-0.3-1.4-1-1.4-2.2c0-1.1,0-2.2,0-3.4c0-0.9,0-1.9,0-2.8
			c0-0.3,0.1-0.5,0.5-0.5c1.1,0,1.1,0,1.1,1.1c0,1.7,0,3.3,0,5c0,0.4,0,0.8,0.1,1.1c0.1,0.4,0.4,0.6,0.8,0.6c0.4,0,0.7-0.2,0.8-0.6
			c0.1-0.4,0.1-0.7,0.1-1.1C64.2,31.8,64.2,30.9,64.2,30z"/>
		<path class="st0" d="M37,31c0,0.8,0,1.6,0,2.4c0,0.7,0.4,1,0.9,1c0.4,0,0.6-0.2,0.7-0.6c0.1-0.4,0.1-0.8,0.1-1.2
			c0-0.3,0.1-0.4,0.4-0.4c1.4,0,1.2-0.2,1.2,1.2c0,1.5-0.8,2.2-2.2,2.3c-1.5,0.1-2.5-0.7-2.6-2.1c-0.1-1.7-0.1-3.4,0-5.1
			c0.1-1.5,1.2-2.2,2.8-2c1.3,0.1,2,0.9,2,2.2c0,1.4,0.2,1.1-1.1,1.2c-0.3,0-0.4-0.1-0.4-0.4c0-0.4,0-0.7,0-1.1s-0.3-0.6-0.7-0.6
			s-0.7,0.2-0.8,0.5C37,28.5,37,28.8,37,29C37,29.7,37,30.4,37,31L37,31z"/>
		<path class="st0" d="M57.4,50.1c-0.5,0-0.9,0-1.3,0c-0.1,0-0.3-0.2-0.3-0.3c-0.1-0.5-0.2-1-0.3-1.4c0-0.2-0.1-0.3-0.4-0.3
			c-1.1-0.1-1.1-0.2-1.3,1c-0.2,1-0.2,1-1.2,1c-0.1,0-0.3,0-0.5,0c0.1-0.7,0.3-1.3,0.4-1.9c0.4-2.2,0.9-4.3,1.3-6.5
			c0.1-0.4,0.2-0.5,0.6-0.5c0.1,0,0.2,0,0.3,0c1.1,0,0.9-0.2,1.1,0.9c0.5,2.5,1,5,1.5,7.5C57.4,49.7,57.4,49.9,57.4,50.1z
			 M55.3,46.9c-0.2-1.1-0.4-2.1-0.5-3.2h-0.1c-0.2,1-0.3,2.1-0.5,3.2C54.6,46.9,54.9,46.9,55.3,46.9z"/>
		<path class="st0" d="M77,35.5c-0.5,0-0.9,0-1.3,0c-0.1,0-0.2-0.2-0.3-0.3c-0.1-0.5-0.2-0.9-0.3-1.4c0-0.2-0.1-0.3-0.4-0.3
			c-1.2,0-1.2,0-1.4,1.1c-0.2,0.9-0.2,0.9-1.2,0.9c-0.6,0-0.6,0-0.5-0.6c0.5-2.7,1.1-5.3,1.6-8c0.1-0.3,0.2-0.4,0.5-0.4s0.6,0,0.9,0
			c0.2,0,0.4,0.1,0.4,0.3c0.6,2.8,1.1,5.6,1.7,8.4C77,35.3,76.9,35.3,77,35.5z M74.4,29C74.4,29,74.3,29,74.4,29
			c-0.2,0.9-0.4,1.8-0.5,2.8c-0.1,0.5-0.1,0.6,0.5,0.6c0.1,0,0.1,0,0.2,0c0.3,0,0.4-0.1,0.3-0.4C74.7,31,74.5,30,74.4,29z"/>
		<path class="st0" d="M93.9,35.6c-1.6,0-2.3-0.9-2.5-2.5c0-0.3,0.5-0.5,1.2-0.5c0.3,0,0.2,0.2,0.3,0.4c0.1,0.3,0.2,0.7,0.3,1
			c0.2,0.3,0.5,0.4,0.8,0.4c0.3-0.1,0.5-0.3,0.5-0.6c0.1-0.6-0.2-1.1-0.6-1.5c-0.5-0.5-1.1-0.9-1.6-1.4c-0.5-0.4-0.8-0.9-0.9-1.6
			c-0.3-1.8,0.9-3,2.7-2.7c1.2,0.2,1.8,1,1.8,2.2c0,0.6-0.7,0.3-1.1,0.5c-0.3,0.1-0.3-0.1-0.3-0.3c0-0.2-0.1-0.4-0.1-0.6
			c-0.1-0.4-0.4-0.5-0.8-0.5s-0.6,0.3-0.7,0.6c-0.1,0.4,0,0.8,0.4,1.2c0.5,0.5,1,0.9,1.5,1.4c0.7,0.7,1.3,1.4,1.3,2.5
			C96.1,34.7,95.2,35.6,93.9,35.6z"/>
		<path class="st0" d="M57.1,18c0.1,0.3,0.1,0.6,0.1,0.8c0.1,0.2,0.1,0.4,0.3,0.6c0.2,0.3,0.5,0.4,0.8,0.3s0.5-0.3,0.5-0.6
			c0.1-0.6-0.2-1.2-0.7-1.6s-1-0.9-1.5-1.3c-0.9-0.7-1.1-1.7-0.9-2.8c0.1-0.6,0.5-1.1,1.1-1.4c0.7-0.3,1.4-0.3,2.1-0.1
			c0.7,0.3,1.4,1.3,1.3,2.1c-0.1,0.4-0.4,0.3-0.7,0.3c-0.2,0.1-0.6,0.1-0.6,0c-0.1-0.2-0.1-0.5-0.2-0.8c-0.2-0.5-0.7-0.7-1.1-0.4
			c-0.2,0.2-0.3,0.5-0.3,0.7c0,0.4,0.2,0.8,0.5,1c0.6,0.5,1.2,1,1.7,1.6c0.6,0.6,0.9,1.3,0.9,2.1c0,1.4-0.8,2.3-2.1,2.3
			c-1.7,0-2.4-0.9-2.6-2.5c0-0.1,0.1-0.3,0.2-0.3C56.3,18.2,56.7,18.1,57.1,18z"/>
		<path class="st0" d="M74.9,43.7c-0.1-0.3-0.1-0.6-0.2-0.9c-0.1-0.5-0.4-0.6-0.9-0.6c-0.4,0.1-0.6,0.3-0.6,0.8
			c0,0.6,0.3,0.9,0.7,1.3c0.5,0.5,1.1,0.9,1.6,1.4c0.5,0.4,0.8,1,0.9,1.6c0.3,1.7-0.9,3-2.6,2.8c-1.4-0.2-1.9-1.1-2-2.5l0,0
			c0-0.2,0.6-0.5,1.2-0.5c0.3,0,0.2,0.2,0.3,0.4c0.1,0.3,0.1,0.6,0.2,0.9c0.2,0.4,0.6,0.5,0.9,0.4s0.5-0.4,0.5-0.9s-0.2-0.9-0.6-1.2
			c-0.5-0.5-1.1-1-1.6-1.5c-0.8-0.7-1-1.6-0.8-2.7c0.1-0.7,0.6-1.2,1.2-1.4s1.1-0.2,1.7-0.1c0.9,0.2,1.6,1.3,1.5,2.2
			c0,0.1-0.1,0.2-0.2,0.2C75.7,43.6,75.3,43.7,74.9,43.7z"/>
		<path class="st0" d="M35.1,12c0.5,0,0.9,0,1.2,0c0.1,0,0.3,0.2,0.3,0.4c0.3,1.7,0.7,3.5,1,5.2c0,0.1,0,0.2,0.1,0.3
			c0.1-0.6,0.2-1.3,0.3-1.9c0.2-1.2,0.4-2.4,0.6-3.6c0-0.3,0.1-0.4,0.4-0.4c0.4,0,0.7,0,1.1,0c-0.2,0.8-0.3,1.5-0.4,2.2
			c-0.4,2.1-0.9,4.2-1.3,6.3c-0.1,0.3-0.2,0.5-0.6,0.5c-1.1,0-1.1,0-1.4-1.1c-0.5-2.4-1-4.9-1.5-7.3C35.1,12.4,35.1,12.2,35.1,12z"
			/>
		<path class="st0" d="M67.7,45.7c0-1.3,0-2.7,0-4c0-0.3,0.1-0.5,0.5-0.5c1,0,1.9,0,2.9,0c0.4,0,0.5,0.1,0.5,0.5c0,0.1,0,0.2,0,0.3
			c0,0.3-0.1,0.4-0.4,0.4c-0.4,0-0.9,0-1.3,0c-0.3,0-0.4,0.1-0.4,0.4c0,0.6,0,1.2,0,1.8c0,0.2,0.1,0.3,0.3,0.3c0.3,0,0.7,0,1,0
			c0.2,0,0.3,0.1,0.3,0.3C71,46,71,46,70.2,46c-1,0-0.8-0.1-0.8,0.8c0,0.6,0,1.1,0,1.7c0,0.3,0.1,0.4,0.4,0.4c0.4,0,0.9,0,1.3,0
			c0.3,0,0.5,0.1,0.4,0.4c0,0.8,0.1,0.7-0.7,0.7c-0.9,0-1.8,0-2.6,0c-0.3,0-0.4-0.1-0.4-0.4C67.7,48.3,67.7,47,67.7,45.7z"/>
		<path class="st0" d="M87.3,31c0-1.3,0-2.7,0-4c0-0.4,0.1-0.5,0.5-0.5c0.9,0,1.9,0,2.8,0c0.4,0,0.5,0.1,0.5,0.5c0,0.1,0,0.1,0,0.2
			c0,0.5,0,0.5-0.5,0.5c-0.4,0-0.8,0-1.3,0c-0.2,0-0.3,0.1-0.3,0.3c0,0.6,0,1.3,0,1.9c0,0.2,0.1,0.3,0.3,0.3c0.3,0,0.7,0,1,0
			s0.4,0.1,0.4,0.4c0,1,0.1,0.8-0.8,0.8s-0.8-0.1-0.8,0.8c0,0.6,0,1.1,0,1.7c0,0.3,0.1,0.4,0.4,0.4c0.5,0,0.9,0,1.4,0
			c0.3,0,0.4,0.1,0.4,0.4c0,0.8,0,0.8-0.8,0.8c-0.9,0-1.7,0-2.6,0c-0.4,0-0.5-0.1-0.5-0.5C87.4,33.7,87.3,32.3,87.3,31z"/>
		<path class="st0" d="M51.7,16.4c0-1.3,0-2.7,0-4c0-0.4,0.1-0.5,0.5-0.5c0.9,0,1.9,0,2.8,0c0.3,0,0.4,0.1,0.4,0.4
			c0,0.9,0.1,0.8-0.8,0.8c-0.3,0-0.7,0-1,0c-0.2,0-0.3,0.1-0.3,0.3c0,0.6,0,1.2,0,1.8c0,0.3,0.1,0.4,0.4,0.4c0.3,0,0.6,0,0.9,0
			c0.3,0,0.4,0.1,0.4,0.3c0,0.8,0,0.8-0.8,0.8c-1,0-0.9-0.1-0.9,0.9c0,0.5,0,1.1,0,1.6c0,0.3,0.1,0.4,0.4,0.4c0.4,0,0.9,0,1.3,0
			c0.3,0,0.4,0.1,0.4,0.4l0,0c0,0.7,0,0.7-0.7,0.7c-0.9,0-1.7,0-2.6,0c-0.4,0-0.5-0.1-0.5-0.5C51.7,19.1,51.7,17.8,51.7,16.4z"/>
		<path class="st0" d="M84,31.6c0-1.1,0-2.2,0-3.3c0-0.3-0.1-0.5-0.5-0.5c-0.1,0-0.1,0-0.2,0c-0.9,0-0.9,0-0.9-0.9
			c0-0.3,0.1-0.3,0.4-0.3c1.3,0,2.6,0,3.9,0c0.2,0,0.3,0.1,0.4,0.3c0.1,0.9,0.1,0.9-0.9,0.9c-0.6,0-0.6,0-0.6,0.6c0,2.2,0,4.4,0,6.6
			c0,0.4-0.1,0.6-0.5,0.5c-0.2,0-0.5,0-0.7,0c-0.3,0-0.4-0.1-0.4-0.4C84,33.9,84,32.8,84,31.6z"/>
		<path class="st0" d="M63.5,45.7c0-1.3,0-2.7,0-4c0-0.3,0.1-0.5,0.5-0.5c0.3,0,0.5,0,0.8,0c0.4,0,0.5,0.1,0.5,0.5
			c0,2.2,0,4.4,0,6.6c0,0.7,0,0.7,0.7,0.7c0.4,0,0.7,0,1.1,0c0.3,0,0.4,0.1,0.4,0.4c0,0.8,0,0.8-0.8,0.8c-0.9,0-1.7,0-2.6,0
			c-0.4,0-0.5-0.1-0.5-0.5C63.5,48.3,63.5,47,63.5,45.7z"/>
		<path class="st0" d="M47.5,16.5c0-1.3,0-2.7,0-4c0-0.4,0.1-0.5,0.5-0.5c1.2,0,1.2,0,1.2,1.2c0,2,0,4.1,0,6.1
			c0,0.4,0.1,0.5,0.5,0.5s0.8,0,1.2,0c0.3,0,0.4,0.1,0.4,0.4c0,0.8,0,0.8-0.7,0.8c-0.9,0-1.8,0-2.6,0c-0.3,0-0.4-0.1-0.4-0.4
			C47.5,19.2,47.5,17.8,47.5,16.5z"/>
		<path class="st0" d="M43.3,16.4c0-1.3,0-2.7,0-4c0-0.3,0.1-0.5,0.4-0.5c1.2,0,1.2,0,1.2,1.2c0,2,0,4.1,0,6.1
			c0,0.4,0.1,0.5,0.5,0.5s0.8,0,1.3,0c0.3,0,0.4,0.1,0.4,0.4c0,0.1,0,0.2,0,0.2c0.1,0.4-0.1,0.5-0.5,0.5c-0.9,0-1.9,0-2.8,0
			c-0.4,0-0.5-0.1-0.5-0.5C43.3,19.1,43.3,17.8,43.3,16.4z"/>
		<path class="st0" d="M42.4,16.5c0,1.3,0,2.7,0,4c0,0.4-0.1,0.5-0.5,0.5c-1.2,0-1.2,0-1.2-1.1c0-2.4,0-4.9,0-7.3
			c0-0.4,0.1-0.5,0.5-0.5c1.1,0,1.1,0,1.1,1.1C42.4,14.2,42.4,15.3,42.4,16.5z"/>
		<path class="st0" d="M91,23.6c-0.5,0.8-0.9,1.5-1.3,2.1c-0.1,0.1-0.5,0.1-0.7,0.1c0-0.2-0.1-0.3,0-0.5c0.1-0.5,0.3-0.9,0.4-1.4
			c0.1-0.2,0.2-0.3,0.4-0.3C90.2,23.6,90.6,23.6,91,23.6z"/>
	</g>
</g>
</svg>
