<?xml version="1.0" encoding="utf-8"?>
<!-- Generator: Adobe Illustrator 24.3.0, SVG Export Plug-In . SVG Version: 6.00 Build 0)  -->
<svg version="1.1" id="Layer_1" xmlns="http://www.w3.org/2000/svg" xmlns:xlink="http://www.w3.org/1999/xlink" x="0px" y="0px"
	 viewBox="0 0 125 125" style="enable-background:new 0 0 125 125;" xml:space="preserve">
<style type="text/css">
	.st0{fill:#BF8B2E;}
</style>
<g>
	<g>
		<path class="st0" d="M48.9,91.7c-0.6-0.6-1.2-1.1-1.9-1.7c-0.2-0.2-0.4-0.4-0.6-0.5c-0.4-0.4-0.3-0.7,0.2-0.9
			c1.3-0.4,2.6-0.7,4-1.1c2.3-0.6,4.5-1.3,6.8-1.9c0.1,0,0.3-0.1,0.4-0.1c0.5-0.1,0.7,0.1,0.6,0.6c-0.2,1.3-0.4,2.7-0.6,4
			c-0.4,2.5-0.8,4.9-1.2,7.4c0,0.2-0.2,0.4-0.3,0.5c-0.2,0-0.4,0-0.6-0.2c-0.7-0.6-1.5-1.3-2.1-1.9c-0.3-0.2-0.4-0.2-0.7,0
			c-1.9,1.4-4,2.5-6.4,3c-6.1,1.3-11.7,0.3-16.5-3.6c-3.5-2.8-5.6-6.5-6.2-11c-0.5-3.7-0.4-7.3,0.7-10.9c2.1-6.7,6.7-10.7,13.5-12.1
			c6.9-1.4,12.9,0.6,17.9,5.5c2.9,2.8,5.1,6.2,7.1,9.7c1.1,2,2.1,4.1,3.2,6.1c1.4,2.5,3,4.8,5.1,6.7c2.7,2.5,5.9,4.2,9.5,4.7
			c3.9,0.6,7.4-0.3,10.3-3.2c1.6-1.6,2.5-3.5,3-5.7c0.7-3,0.7-6.1,0-9.2c-1.1-4.7-4.1-7.6-8.7-8.8c-1.6-0.4-3.2-0.7-4.9-0.5
			c-2.9,0.3-5.5,1.4-7.8,3.3c-1.8,1.4-3.3,3.1-4.7,5c-0.1,0.1-0.2,0.3-0.3,0.4c-0.4,0.5-0.7,0.5-1-0.1c-0.7-1.2-1.4-2.4-2.1-3.6
			c-0.5-0.9-0.6-0.8,0.1-1.7c2-2.4,4.1-4.5,6.8-6.1c3.4-2,7-3.1,10.9-2.8c4.2,0.3,8.1,1.5,11.4,4.2c3,2.4,4.8,5.6,5.7,9.3
			c1.2,5,1.1,10-0.9,14.9c-2.5,6-7,9.5-13.4,10.4c-3.8,0.6-7.5-0.2-11-1.8c-5.8-2.5-9.8-6.9-12.9-12.2c-1.3-2.2-2.4-4.5-3.6-6.7
			c-1.5-2.6-3.1-5.1-5.2-7.3c-1.8-2-3.9-3.6-6.5-4.4c-1.4-0.4-2.8-0.8-4.3-0.8c-2.2,0.1-4.4,0.5-6.4,1.5c-3,1.5-4.8,3.9-5.7,7.1
			c-0.8,3-1,6.1-0.3,9.2c0.8,3.7,2.9,6.5,6.3,8.1c4.2,2,8.4,1.9,12.5-0.3c0.1-0.1,0.3-0.2,0.4-0.2C48.8,91.8,48.8,91.8,48.9,91.7z"
			/>
		<path class="st0" d="M23.9,31.8c0.4,0,0.8,0,1.1,0c1.8,0,3.6,0,5.3,0c0.4,0,0.5,0.1,0.5,0.5c0,0.9,0,1.8,0,2.6
			c0,0.3-0.1,0.5-0.4,0.5c-3.7,0-7.4,0-11.1,0c-0.3,0-0.4-0.1-0.4-0.4c0,0,0-0.1,0-0.1c0-0.9-0.2-1.9,0.1-2.7
			c0.2-0.8,0.9-1.5,1.4-2.3c1.8-2.8,3.6-5.6,5.4-8.3c0.7-1.2,1.3-2.4,1.3-3.8c0-0.3,0-0.6-0.1-0.8c-0.2-0.9-0.7-1.3-1.4-1.4
			c-0.9-0.1-1.5,0.3-1.9,1.1c-0.4,0.9-0.4,1.9-0.4,2.8c0,0.6,0,0.6-0.6,0.6c-1.1,0-2.2,0-3.3,0c-0.3,0-0.4-0.1-0.4-0.4
			c0-1.2,0-2.4,0.4-3.6c0.8-2.6,2.6-4.1,5.3-4.2c0.9,0,1.9,0,2.8,0.2c2.3,0.5,3.7,2.1,4,4.4c0.3,2.2-0.1,4.3-1.3,6.2
			c-1.9,2.9-3.8,5.8-5.8,8.7C24.1,31.5,24,31.6,23.9,31.8z"/>
		<path class="st0" d="M11.8,16.7c-1.1,0.4-2.2,0.8-3.3,1.2c0-0.4,0-0.7,0-1.1c0-0.7,0-1.3,0-2c0-0.1,0.1-0.3,0.2-0.4
			c1.4-0.7,2.8-1.3,4-2.4c0.1-0.1,0.3-0.1,0.5-0.1c0.9,0,1.7,0,2.6,0c0.5,0,0.5,0,0.5,0.6c0,6.8,0,13.5,0,20.3c0,0.7,0,1.4,0,2.1
			c0,0.3-0.1,0.4-0.4,0.4c-1.2,0-2.4,0-3.6,0c-0.4,0-0.5-0.1-0.5-0.5c0-3.4,0-6.8,0-10.2c0-2.5,0-4.9,0-7.4
			C11.8,17.1,11.8,16.9,11.8,16.7z"/>
		<path class="st0" d="M73.2,15.3c-0.4,1.7-0.7,3.4-1.1,5.1c-0.1,0.5-0.5,0.8-1,0.5c-0.1-0.1-0.2-0.3-0.2-0.4
			c-0.3-1.6-0.7-3.2-1-4.7c0-0.1-0.1-0.3-0.1-0.4c0,0-0.1,0-0.1,0c0,1,0,2,0,3c0,0.7,0,1.4,0,2c0,0.3-0.1,0.5-0.5,0.5
			c-0.8,0-0.8,0-0.8-0.8c0-2.6,0.1-5.2,0.1-7.8c0-0.3,0.1-0.4,0.4-0.4c0.3,0,0.6,0,0.9,0c0.4,0,0.5,0.1,0.5,0.4
			c0.3,1.7,0.7,3.5,1.1,5.2c0,0.1,0.1,0.2,0.2,0.3c0.1-0.6,0.3-1.3,0.4-1.9c0.3-1.2,0.5-2.4,0.8-3.7c0.1-0.3,0.2-0.4,0.5-0.4
			c0.3,0,0.5,0,0.8,0c0.3,0,0.4,0.1,0.4,0.5c0,1.7,0,3.4,0.1,5.2c0,1,0,2,0.1,3c0,0.3-0.1,0.4-0.4,0.4c-1.1,0-0.9,0.1-0.9-0.8
			c0-1.6,0-3.2,0-4.8C73.3,15.3,73.2,15.3,73.2,15.3z"/>
		<path class="st0" d="M78.7,17.9c0.2-0.9,0.4-1.7,0.5-2.6c0.2-1,0.4-2,0.6-3c0.1-0.3,0.2-0.4,0.5-0.4c0.4,0,0.9-0.1,1.1,0.1
			c0.2,0.2,0.1,0.7,0.2,1.1c0,1.3,0.1,2.6,0.1,3.9c0,1.2,0,2.3,0.1,3.5c0,0.3-0.1,0.5-0.4,0.4c-0.9,0-0.9,0.1-0.9-0.8
			c0-1.3,0-2.5,0-3.8c0-0.3,0-0.6-0.1-0.9c-0.2,0.9-0.4,1.8-0.6,2.8c-0.2,0.8-0.3,1.6-0.5,2.4c-0.1,0.4-0.2,0.4-0.6,0.4
			c-0.3,0-0.5,0-0.6-0.4c-0.3-1.6-0.7-3.2-1-4.9c0-0.1-0.1-0.3-0.2-0.4c0,0.2,0,0.4,0,0.7c0,1.5-0.1,3.1-0.1,4.6
			c0,0.4-0.1,0.5-0.5,0.5c-1,0-0.8,0.1-0.8-0.8c0-2.6,0.1-5.2,0.1-7.8c0-0.3,0.1-0.4,0.4-0.4c1.3,0,1.3,0,1.6,1.2
			c0.3,1.5,0.6,2.9,0.9,4.4C78.6,17.7,78.6,17.8,78.7,17.9C78.7,17.9,78.7,17.9,78.7,17.9z"/>
		<path class="st0" d="M89.1,45.3c1.1,0.7,1.5,1.8,1.1,3.3c-0.3,0.9-0.9,1.4-1.8,1.5c-1,0.1-1.9,0-2.9,0.1c-0.3,0-0.3-0.2-0.3-0.4
			c0-0.9,0-1.7,0-2.6c0-1.8,0-3.6,0-5.4c0-0.6,0-0.6,0.6-0.6c0.7,0,1.3,0,2,0c1.8,0.1,2.8,1.7,2,3.3C89.7,44.8,89.4,45.1,89.1,45.3z
			 M86.9,47.4c0,0.4,0,0.8,0,1.1c0,0.1,0,0.3,0.1,0.3c0.5,0.3,1.5-0.1,1.6-0.7c0.1-0.3,0.1-0.6,0.1-1c-0.1-1-0.5-1.3-1.5-1.2
			c-0.2,0-0.3,0.1-0.3,0.3C86.9,46.7,86.9,47.1,86.9,47.4z M86.9,43.5C86.9,43.5,86.9,43.5,86.9,43.5c0,0.3,0,0.6,0,0.9
			c0,0.1,0.1,0.3,0.2,0.3c0.4,0,0.9,0.1,1.2-0.3c0.4-0.5,0.4-1,0.2-1.6c-0.2-0.5-0.6-0.5-1-0.5c-0.6,0-0.6,0-0.6,0.6
			C86.9,43.1,86.9,43.3,86.9,43.5z"/>
		<path class="st0" d="M40.3,45.6c0-1.3,0-2.7,0-4c0-0.4,0.1-0.5,0.5-0.5c0.9,0,1.8,0,2.8,0.1c1,0.1,1.6,0.8,1.7,1.8
			c0,0.6,0,1.1-0.2,1.7c-0.1,0.3-0.3,0.6-0.6,0.8c-0.2,0.2-0.3,0.3-0.2,0.6c0.3,1.2,0.7,2.3,1,3.5c0.1,0.5,0.1,0.5-0.4,0.5
			c-1.1,0-1.2,0-1.4-1.1c-0.2-0.9-0.5-1.7-0.7-2.6c-0.1-0.3-0.2-0.4-0.5-0.4c-0.3,0-0.3,0.3-0.3,0.5c0,1,0,2.1,0,3.1
			c0,0.4-0.1,0.5-0.5,0.5c-1.2,0-1.2,0-1.2-1.2C40.3,47.8,40.3,46.7,40.3,45.6z M42,43.6c0,0.3,0,0.7,0,1c0,0.1,0.1,0.3,0.2,0.3
			c0.4,0.1,0.9,0,1.2-0.3c0.3-0.3,0.4-1.3,0.2-1.8c-0.2-0.4-0.6-0.6-1.2-0.5c-0.1,0-0.3,0.2-0.3,0.3C42,43,42,43.3,42,43.6z"/>
		<path class="st0" d="M69.3,31c0-1.3,0-2.7,0-4c0-0.4,0.1-0.5,0.5-0.5c0.8,0,1.5,0,2.3,0.1c1.3,0.1,2.1,0.8,2.1,2.2
			c0,1.5,0.1,3,0,4.4c-0.1,1.5-0.9,2.3-2.4,2.3c-0.7,0-1.4,0-2,0c-0.4,0-0.5-0.2-0.5-0.5C69.3,33.7,69.3,32.4,69.3,31z M72.5,31.1
			C72.5,31.1,72.5,31.1,72.5,31.1c0-0.8,0-1.5,0-2.3c0-0.7-0.3-1-1.1-1c-0.4,0-0.6,0.1-0.5,0.5c0,0.3,0,0.6,0,0.9c0,1.6,0,3.2,0,4.8
			c0,0.1,0.1,0.4,0.2,0.4c0.8,0.1,1.3-0.1,1.3-1C72.5,32.6,72.5,31.8,72.5,31.1z"/>
		<path class="st0" d="M62,45.6c0-0.8-0.1-1.7,0-2.5c0.1-1.2,0.8-1.9,2-2c0.4,0,0.9,0,1.3,0c1,0.2,1.6,0.8,1.7,1.9
			c0.1,1.7,0.1,3.4,0,5.2c-0.1,1.5-1.3,2.2-2.9,2c-1.4-0.2-2.1-1-2.1-2.6C61.9,46.9,61.9,46.2,62,45.6C62,45.6,62,45.6,62,45.6z
			 M63.6,45.6C63.6,45.6,63.6,45.6,63.6,45.6c0,0.7,0,1.4,0,2c0,0.3,0,0.5,0.1,0.8c0.1,0.4,0.4,0.5,0.8,0.5c0.4,0,0.7-0.1,0.8-0.5
			c0.1-0.2,0.1-0.4,0.1-0.6c0-1.5,0-3,0-4.5c0-0.2,0-0.4-0.1-0.5c-0.1-0.4-0.3-0.5-0.7-0.6c-0.7,0-1,0.2-1,0.9
			C63.6,44,63.6,44.8,63.6,45.6z"/>
		<path class="st0" d="M67.5,16.4c0,0.9,0.1,1.7,0,2.6c-0.1,1.3-0.8,1.9-2.1,2c-0.4,0-0.8,0-1.2-0.1c-1-0.2-1.6-0.9-1.7-2
			c-0.1-1.7-0.1-3.4,0-5c0.1-1.5,1.3-2.3,3-2c1.3,0.2,2,1,2.1,2.5C67.6,15.1,67.5,15.8,67.5,16.4C67.5,16.4,67.5,16.4,67.5,16.4z
			 M65.8,16.4C65.8,16.4,65.8,16.4,65.8,16.4c0-0.8,0-1.7,0-2.5c0-0.5-0.3-0.8-0.8-0.8c-0.5,0-0.8,0.2-0.9,0.8c0,0.2,0,0.4,0,0.6
			c0,1.3,0,2.7,0,4c0,0.2,0,0.5,0.1,0.7c0.1,0.4,0.3,0.6,0.8,0.6c0.6,0,0.9-0.3,0.9-0.9C65.9,18.1,65.8,17.2,65.8,16.4z"/>
		<path class="st0" d="M99.3,31.1c0,0.8,0.1,1.7,0,2.5c-0.1,1.3-0.8,1.9-2.1,2c-0.4,0-0.9,0-1.3-0.1c-0.9-0.2-1.6-0.9-1.6-2
			c-0.1-1.7-0.1-3.3,0-5c0.1-1.5,1.3-2.3,2.9-2.1c1.4,0.2,2.1,1,2.2,2.5C99.4,29.7,99.4,30.4,99.3,31.1
			C99.3,31.1,99.3,31.1,99.3,31.1z M97.7,31C97.7,31,97.7,31,97.7,31c0-0.8,0-1.7,0-2.5c0-0.5-0.3-0.8-0.8-0.9
			c-0.5,0-0.8,0.2-0.9,0.8c0,0.2,0,0.4,0,0.6c0,1.3,0,2.7,0,4c0,0.2,0,0.5,0.1,0.7c0.1,0.4,0.3,0.6,0.7,0.6c0.6,0.1,1-0.2,1-0.9
			C97.7,32.7,97.7,31.8,97.7,31z"/>
		<path class="st0" d="M63.1,31c0-0.7,0-1.3,0-2c0.1-1.8,1.1-2.7,2.9-2.6c1.4,0.1,2.2,0.8,2.3,2.2c0.1,1.6,0.1,3.2,0,4.8
			c-0.1,1.3-0.8,2-2.1,2.2c-0.4,0.1-0.9,0-1.4-0.1c-0.8-0.2-1.3-0.7-1.5-1.5c-0.1-0.4-0.2-0.8-0.2-1.2C63.1,32.2,63.1,31.6,63.1,31
			C63.1,31,63.1,31,63.1,31z M64.9,31C64.9,31,64.9,31,64.9,31c0,0.8,0,1.7,0,2.5c0,0.6,0.3,0.8,0.8,0.8c0.5,0,0.8-0.2,0.9-0.8
			c0-0.2,0.1-0.5,0.1-0.7c0-1.3,0-2.5,0-3.8c0-0.3,0-0.6-0.1-0.8c-0.1-0.2-0.3-0.4-0.5-0.5c-0.6-0.2-1.1,0.1-1.2,0.8
			C64.8,29.4,64.9,30.2,64.9,31z"/>
		<path class="st0" d="M50.9,16.5c0,0.8,0.1,1.7,0,2.5c-0.1,1.3-0.8,1.9-2.1,2c-0.4,0-0.8,0-1.2,0c-1-0.2-1.6-0.9-1.7-2
			c-0.1-0.7-0.1-1.4-0.1-2.1c0-0.9,0-1.7,0-2.6c0.1-1.9,1.2-2.6,3.1-2.4c1.3,0.2,2,1,2.1,2.6C51,15.2,50.9,15.8,50.9,16.5
			C50.9,16.5,50.9,16.5,50.9,16.5z M49.2,16.4c0-0.8,0-1.6,0-2.4c0-0.7-0.4-1-1-0.9c-0.5,0.1-0.7,0.4-0.7,1c0,1.5,0,3.1,0,4.6
			c0,0.2,0,0.3,0.1,0.5c0.1,0.3,0.3,0.5,0.6,0.5c0.6,0.1,1-0.2,1-0.9C49.3,18.1,49.2,17.2,49.2,16.4z"/>
		<path class="st0" d="M104,16.7c0-0.1,0-0.3,0-0.4c0-1.3,0-2.6,0-3.9c0-0.4,0.1-0.5,0.5-0.5c0.9,0,0.9,0,0.9,0.9c0,2.5,0,5,0,7.5
			c0,0.2,0.1,0.5-0.2,0.6c-0.6,0.1-0.9,0-1-0.4c-0.6-1.4-1.2-2.9-1.8-4.3c-0.1-0.1-0.1-0.2-0.2-0.3c0,0.1,0,0.3,0,0.4
			c0,1.4,0,2.8,0,4.1c0,0.3-0.1,0.4-0.4,0.4c-1.2,0-1,0.2-1-1c0-2.5,0-4.9,0-7.4c0-0.6,0-0.5,0.6-0.6c0.5,0,0.7,0.1,0.9,0.6
			c0.5,1.3,1.1,2.6,1.7,3.8C103.8,16.5,103.9,16.6,104,16.7C103.9,16.7,104,16.7,104,16.7z"/>
		<path class="st0" d="M69.7,45.2c0,0.1,0,0.3,0,0.4c0,1.4,0,2.7,0,4.1c0,0.3-0.1,0.4-0.4,0.4c-1.2,0-1,0.1-1-1c0-2.5,0-4.9,0-7.4
			c0-0.6,0-0.6,0.6-0.6c0.4,0,0.7,0.1,0.8,0.5c0.6,1.4,1.2,2.8,1.9,4.3c0-0.2,0-0.3,0-0.4c0-1.3,0-2.7,0-4c0-0.3,0.1-0.5,0.4-0.4
			c1.1,0,0.9-0.1,1,0.9c0,2.5,0,5,0,7.5c0,0.2,0.1,0.5-0.2,0.5c-0.5,0.1-0.9,0-1-0.3c-0.6-1.4-1.2-2.8-1.8-4.2
			C69.9,45.4,69.8,45.3,69.7,45.2C69.7,45.1,69.7,45.1,69.7,45.2z"/>
		<path class="st0" d="M61.2,31.2c0.4,1.4,0.8,2.8,1.2,4.3c-0.5,0-1,0-1.5,0c-0.1,0-0.2-0.2-0.2-0.4c-0.3-1.1-0.6-2.2-0.9-3.3
			c-0.1-0.2-0.1-0.4-0.4-0.4c-0.3,0-0.4,0.1-0.4,0.4c0,1.1,0,2.2,0,3.3c0,0.3-0.1,0.5-0.4,0.4c-0.3,0-0.5,0-0.8,0
			c-0.4,0-0.5-0.1-0.5-0.5c0-2.7,0-5.3,0-8c0-0.3,0.1-0.5,0.5-0.5c0.8,0,1.6,0,2.4,0.1c1.4,0.1,2.1,0.9,2.1,2.2c0,0.1,0,0.2,0,0.4
			C62.2,30.1,62,30.6,61.2,31.2z M59,29c0,0.3,0,0.7,0,1c0,0.1,0.1,0.2,0.2,0.3c0.3,0.1,1,0,1.2-0.3c0.3-0.4,0.4-1.3,0.1-1.8
			c-0.3-0.5-0.8-0.5-1.2-0.5c-0.1,0-0.3,0.2-0.3,0.3C59,28.4,59,28.7,59,29z"/>
		<path class="st0" d="M99.9,16.5c0,0.9,0,1.7-0.1,2.6c-0.2,1.2-0.8,1.8-2,1.9c-0.4,0-0.8,0-1.2,0c-1.1-0.2-1.7-1-1.8-2.3
			c-0.1-1.5-0.1-3,0-4.5c0.1-1.7,1.2-2.5,3-2.3c1.3,0.2,2,1,2.1,2.3C99.9,15,99.9,15.8,99.9,16.5C99.9,16.5,99.9,16.5,99.9,16.5z
			 M98.2,16.5C98.2,16.5,98.2,16.5,98.2,16.5c0-0.8,0-1.5,0-2.3c0-0.1,0-0.2,0-0.3c-0.1-0.6-0.4-0.8-0.9-0.8c-0.5,0-0.8,0.3-0.8,0.8
			c0,1.7,0,3.3,0,5c0,0.6,0.3,0.8,0.8,0.8c0.5,0,0.8-0.2,0.9-0.8C98.2,18.2,98.2,17.3,98.2,16.5z"/>
		<path class="st0" d="M101.7,30.5c0,1.4,0,2.8,0,4.2c0,0.9,0.1,0.8-0.8,0.8c-0.6,0-0.6,0-0.6-0.6c0-2.6,0-5.2,0-7.8
			c0-0.5,0-0.5,0.5-0.6c0.5,0,0.7,0.1,0.9,0.6c0.5,1.3,1.1,2.6,1.7,3.9c0.1,0.1,0.1,0.2,0.2,0.5c0-0.2,0-0.4,0-0.5
			c0-1.3,0-2.6,0-3.9c0-0.3,0.1-0.5,0.5-0.5c1.1,0,0.9-0.1,0.9,0.9c0,2.5,0,4.9,0,7.4c0,0.2,0.2,0.6-0.2,0.7c-0.6,0.1-0.9,0-1.1-0.5
			c-0.6-1.4-1.2-2.8-1.7-4.2C101.9,30.7,101.9,30.6,101.7,30.5C101.8,30.5,101.8,30.5,101.7,30.5z"/>
		<path class="st0" d="M55.1,16.8c0-1.4,0-2.8,0-4.3c0-0.4,0.1-0.6,0.5-0.5c1,0,0.9-0.1,0.9,0.9c0,2.5,0,5,0,7.5
			c0,0.2,0.1,0.5-0.2,0.6c-0.5,0.1-0.9,0-1.1-0.4c-0.6-1.4-1.2-2.9-1.8-4.3c-0.1-0.1-0.1-0.2-0.2-0.3c0,0.1,0,0.3,0,0.4
			c0,1.4,0,2.8,0,4.1c0,0.4-0.1,0.5-0.5,0.5c-1.1,0-0.9,0.1-0.9-0.9c0-2.5,0-5,0-7.5c0-0.6,0-0.5,0.6-0.6c0.5,0,0.7,0.1,0.8,0.5
			c0.5,1.3,1.1,2.7,1.7,4C54.9,16.6,55,16.7,55.1,16.8C55,16.8,55,16.8,55.1,16.8z"/>
		<path class="st0" d="M78.6,30c0-1,0-2,0-3c0-0.3,0.1-0.5,0.4-0.4c0.3,0,0.5,0,0.8,0c0.3,0,0.4,0.1,0.4,0.4c0,2.1,0,4.3-0.1,6.4
			c0,0.1,0,0.1,0,0.2c-0.2,1.4-0.8,2-2.2,2.1c-0.5,0-1,0-1.4-0.2c-1-0.3-1.3-1.1-1.3-2c-0.1-2.2-0.1-4.3-0.1-6.5
			c0-0.3,0.1-0.4,0.4-0.4c0.3,0,0.6,0,0.9,0c0.3,0,0.4,0.1,0.4,0.4c0,1.9,0,3.9,0,5.8c0,0.3,0.1,0.7,0.1,1c0.1,0.4,0.4,0.6,0.8,0.6
			c0.4,0,0.7-0.2,0.8-0.6c0.1-0.3,0.1-0.7,0.1-1C78.6,31.9,78.6,30.9,78.6,30z"/>
		<path class="st0" d="M41.8,16.4c0,0.7,0,1.3,0,2c0,0.3,0,0.5,0.1,0.8c0.1,0.4,0.3,0.6,0.8,0.6c0.4,0,0.7-0.2,0.7-0.6
			c0.1-0.4,0.1-0.8,0.1-1.3c0-0.3,0.1-0.4,0.4-0.4c0.3,0,0.6,0,0.9,0c0.1,0,0.3,0.2,0.3,0.3c0,0.5,0,1-0.1,1.5
			c-0.2,1.1-0.9,1.6-2.2,1.7c-1.6,0.1-2.6-0.7-2.7-2.3c-0.1-1.5-0.1-3,0-4.5c0.1-2,2.3-3.1,4-1.9c0.7,0.5,0.9,1.2,0.9,1.9
			c0,1.4,0.1,1.1-1,1.1c-0.6,0-0.6,0-0.6-0.6c0-0.3,0-0.6,0-0.9c-0.1-0.4-0.3-0.6-0.7-0.7c-0.4,0-0.7,0.2-0.8,0.6
			c-0.1,0.2-0.1,0.5-0.1,0.7C41.8,15.1,41.8,15.7,41.8,16.4z"/>
		<path class="st0" d="M82.8,31c0,0.9,0,1.7,0,2.6c0,0.6,0.3,0.9,0.9,0.8c0.5,0,0.7-0.3,0.7-0.9c0-0.3,0-0.7,0-1
			c0-0.2,0.1-0.4,0.3-0.4c0.3,0,0.7,0,1,0c0.1,0,0.3,0.2,0.3,0.3c0,0.6-0.1,1.3-0.2,1.9c-0.1,0.6-0.6,1-1.3,1.2
			c-0.6,0.2-1.2,0.2-1.8,0c-1-0.3-1.6-1-1.6-2.2c-0.1-1.5-0.1-3,0-4.6c0.1-2,2.3-3.1,4-1.9c0.7,0.4,0.9,1.2,0.9,1.9
			c0,1.3,0.2,1.1-1.1,1.1c-0.6,0-0.6,0-0.6-0.6c0-0.3,0-0.5,0-0.8c0-0.5-0.3-0.7-0.7-0.8c-0.5,0-0.8,0.2-0.9,0.7
			c-0.1,0.6-0.1,1.2-0.1,1.8C82.8,30.5,82.8,30.7,82.8,31C82.8,31,82.8,31,82.8,31z"/>
		<path class="st0" d="M87.6,20.9c-0.5,0-0.9,0-1.3,0c-0.1,0-0.2-0.2-0.2-0.3c-0.1-0.4-0.2-0.9-0.2-1.4c0-0.3-0.1-0.4-0.4-0.4
			c-1.1,0-1.1,0-1.4,1.1c-0.2,1-0.2,1-1.2,1c-0.2,0-0.3,0-0.5,0c0-0.2,0-0.3,0-0.4c0.5-2.7,1.1-5.4,1.6-8.1c0.1-0.4,0.2-0.5,0.6-0.5
			c1.2,0,1.3,0,1.5,1.2c0.5,2.4,1,4.9,1.5,7.3C87.6,20.6,87.6,20.7,87.6,20.9z M84.4,17.7c0.4,0,0.7,0,1.1,0
			c-0.2-1.1-0.3-2.1-0.5-3.1c0,0-0.1,0-0.1,0C84.7,15.6,84.6,16.6,84.4,17.7z"/>
		<path class="st0" d="M84.4,50.1c-0.5,0-0.9,0-1.3,0c-0.1,0-0.2-0.2-0.3-0.3c-0.1-0.5-0.2-1-0.3-1.4c0-0.2-0.1-0.3-0.4-0.3
			c-1.1,0-1.1,0-1.4,1.1c-0.2,1-0.2,1-1.2,1c-0.2,0-0.3,0-0.5,0c0.1-0.7,0.3-1.4,0.4-2.1c0.4-2.1,0.9-4.2,1.3-6.3
			c0.1-0.4,0.2-0.5,0.6-0.5c0.4,0,0.9-0.1,1.2,0.1c0.3,0.2,0.2,0.7,0.3,1.1c0.5,2.4,1,4.8,1.5,7.2C84.4,49.8,84.4,49.9,84.4,50.1z
			 M82.3,46.9c-0.2-1.1-0.3-2.1-0.5-3.2c0,0-0.1,0-0.1,0c-0.2,1-0.3,2.1-0.5,3.2C81.6,46.9,82,46.9,82.3,46.9z"/>
		<path class="st0" d="M56.4,45.6c0-1.3,0-2.6,0-3.9c0-0.4,0.1-0.5,0.5-0.5c0.7,0,1.5,0,2.2,0c1.2,0,1.9,0.6,2.1,1.7
			c0.1,0.5,0.1,1,0,1.5c-0.1,0.9-0.8,1.5-1.7,1.6c-0.3,0-0.6,0.1-0.9,0.1c-0.4,0-0.5,0.1-0.5,0.5c0,1,0,2,0,3c0,0.4-0.1,0.5-0.5,0.5
			c-1.2,0-1.2,0-1.2-1.2C56.4,47.8,56.4,46.7,56.4,45.6z M58.1,43.6c0,0.3,0,0.7,0,1c0,0.1,0.1,0.3,0.2,0.3c0.8,0.3,1.4-0.2,1.4-1
			c0-0.1,0-0.2,0-0.4c0-1-0.3-1.3-1.3-1.2c-0.2,0-0.3,0.1-0.3,0.3C58.1,43,58.1,43.3,58.1,43.6z"/>
		<path class="st0" d="M52.2,47.2c0.1,0.4,0.1,0.8,0.3,1.1c0.2,0.5,0.6,0.7,1,0.6c0.4-0.1,0.6-0.5,0.5-0.9c-0.1-0.4-0.3-0.8-0.5-1.1
			c-0.5-0.5-1-1-1.6-1.4c-0.8-0.7-1.2-1.6-1-2.7c0.1-0.8,0.6-1.3,1.3-1.5c0.5-0.1,1.1-0.2,1.6-0.1c0.9,0.2,1.6,1.3,1.5,2.2
			c0,0.1-0.1,0.2-0.1,0.2c-0.4,0.1-0.8,0.2-1.2,0.2c-0.1-0.3-0.1-0.6-0.2-0.8c-0.1-0.5-0.4-0.7-0.9-0.6c-0.4,0.1-0.6,0.4-0.6,0.9
			c0,0.4,0.2,0.8,0.6,1.1c0.4,0.4,0.9,0.7,1.3,1.1c0.7,0.6,1.3,1.3,1.3,2.3c0.1,1.7-1,2.7-2.7,2.5c-1.2-0.2-2.1-1.3-2-2.5
			c0-0.1,0.1-0.2,0.2-0.2C51.4,47.3,51.8,47.2,52.2,47.2z"/>
		<path class="st0" d="M77.1,43.8c-0.1-0.3-0.1-0.6-0.2-0.9c-0.1-0.4-0.4-0.6-0.9-0.5c-0.4,0.1-0.6,0.3-0.6,0.8
			c0,0.5,0.2,0.9,0.5,1.2c0.5,0.4,1,0.9,1.5,1.3c0.8,0.8,1.3,1.7,1.1,2.9c-0.2,1.2-1.2,1.9-2.5,1.8c-1.3-0.1-2.2-1.2-2.2-2.5
			c0,0,0,0,0,0c0-0.2,0.7-0.5,1.2-0.5c0.3,0,0.2,0.2,0.3,0.4c0.1,0.3,0.1,0.6,0.3,0.9c0.2,0.3,0.5,0.4,0.9,0.4
			c0.4-0.1,0.5-0.4,0.5-0.7c0-0.6-0.2-1-0.6-1.4c-0.5-0.5-1.1-1-1.6-1.5c-0.8-0.7-1.1-1.7-0.8-2.7c0.1-0.7,0.6-1.2,1.2-1.4
			c0.6-0.2,1.2-0.2,1.8-0.1c0.8,0.2,1.5,1.2,1.4,2.1c0,0.1-0.1,0.2-0.2,0.2C78,43.6,77.6,43.7,77.1,43.8z"/>
		<path class="st0" d="M58.6,18c0,0.2,0,0.4,0.1,0.5c0.1,0.3,0.2,0.6,0.3,0.9c0.2,0.3,0.5,0.4,0.8,0.3c0.3-0.1,0.5-0.4,0.5-0.7
			c0-0.6-0.2-1.1-0.6-1.4c-0.5-0.5-1.1-1-1.6-1.5c-0.8-0.8-1-1.7-0.8-2.8c0.1-0.6,0.5-1,1-1.2c0.7-0.3,1.4-0.4,2.1-0.1
			c0.8,0.3,1.4,1.2,1.3,2.1c0,0.1-0.1,0.2-0.2,0.2c-0.3,0.1-0.7,0.2-1,0.2c-0.1,0-0.2-0.1-0.3-0.2c-0.1-0.2-0.1-0.5-0.1-0.7
			c-0.1-0.3-0.4-0.5-0.8-0.5c-0.4,0-0.6,0.3-0.7,0.7c0,0.4,0.1,0.8,0.4,1.1c0.5,0.4,0.9,0.8,1.4,1.2c0.8,0.7,1.4,1.5,1.4,2.6
			c0,1.4-0.9,2.3-2.3,2.3c-1.5,0-2.4-1-2.4-2.4c0-0.2,0-0.4,0.3-0.4C57.8,18.2,58.2,18.1,58.6,18z"/>
		<path class="st0" d="M103.5,43.8c-0.1-0.3-0.1-0.6-0.2-0.9c-0.1-0.4-0.4-0.6-0.8-0.5c-0.4,0-0.6,0.3-0.6,0.7
			c0,0.5,0.2,0.9,0.6,1.3c0.5,0.5,1.1,1,1.6,1.4c0.5,0.4,0.8,1,0.9,1.6c0.3,1.7-0.9,3-2.6,2.8c-1.4-0.2-2-1.2-2.1-2.5
			c0,0,0-0.1,0-0.1c0-0.2,0.8-0.5,1.2-0.4c0.1,0,0.2,0.3,0.2,0.4c0.1,0.3,0.2,0.6,0.3,0.9c0.2,0.3,0.5,0.4,0.8,0.4
			c0.3-0.1,0.5-0.3,0.5-0.6c0.1-0.6-0.2-1.1-0.6-1.5c-0.5-0.5-1.1-1-1.7-1.5c-0.8-0.7-1-1.7-0.8-2.7c0.1-0.7,0.6-1.1,1.2-1.3
			c0.6-0.2,1.2-0.3,1.8-0.1c0.9,0.2,1.6,1.2,1.5,2.1c0,0.1-0.1,0.2-0.2,0.2C104.3,43.6,103.9,43.7,103.5,43.8z"/>
		<path class="st0" d="M51.8,31c0-1.3,0-2.7,0-4c0-0.4,0.1-0.5,0.5-0.5c0.9,0,1.7,0,2.6,0.1c1,0.1,1.6,0.6,1.7,1.5
			c0.1,0.6,0.1,1.2,0,1.8c-0.1,0.9-0.9,1.5-1.8,1.5c-0.3,0-0.6,0.1-0.9,0.1c-0.3,0-0.4,0.1-0.4,0.4c0,1,0,2.1,0,3.1
			c0,0.4-0.1,0.5-0.5,0.5c-0.2,0-0.5,0-0.7,0c-0.4,0.1-0.5-0.1-0.5-0.5C51.8,33.7,51.8,32.3,51.8,31z M53.5,29
			C53.5,29,53.5,29,53.5,29c0,0.3,0,0.7,0,1c0,0.2,0.1,0.3,0.3,0.3c1,0.1,1.3-0.2,1.4-1.2c0-0.1,0-0.2,0-0.2c0-0.9-0.2-1.1-1.1-1.1
			c-0.4,0-0.6,0.1-0.5,0.5C53.5,28.5,53.5,28.8,53.5,29z"/>
		<path class="st0" d="M95.9,45.6c0-1.3,0-2.7,0-4c0-0.4,0.1-0.5,0.5-0.5c1,0,1.9,0,2.9,0c0.3,0,0.5,0.1,0.4,0.4c0,0.1,0,0.2,0,0.3
			c0,0.3-0.1,0.4-0.4,0.4c-0.4,0-0.9,0-1.3,0c-0.2,0-0.4,0.1-0.4,0.3c0,0.6,0,1.2,0,1.9c0,0.2,0.1,0.3,0.3,0.3c0.3,0,0.7,0,1,0
			c0.2,0,0.3,0.1,0.3,0.3c0.1,0.9,0.1,0.9-0.8,0.9c-1,0-0.8-0.1-0.8,0.8c0,0.5,0,1.1,0,1.6c0,0.4,0.1,0.5,0.5,0.5c0.4,0,0.8,0,1.3,0
			c0.3,0,0.4,0.1,0.4,0.4c0,0.9,0.1,0.8-0.8,0.8c-0.9,0-1.7,0-2.6,0c-0.3,0-0.4-0.1-0.4-0.5C95.9,48.3,95.9,47,95.9,45.6z"/>
		<path class="st0" d="M40.3,31c0-1.3,0-2.7,0-4c0-0.3,0.1-0.5,0.5-0.5c1,0,2,0,2.9,0c0.3,0,0.4,0.1,0.4,0.4c0,0.8,0,0.8-0.8,0.8
			c-0.3,0-0.7,0-1,0c-0.2,0-0.3,0.1-0.3,0.3c0,0.6,0,1.2,0,1.9c0,0.2,0.1,0.3,0.3,0.3c0.3,0,0.7,0,1,0c0.2,0,0.3,0.1,0.3,0.3
			c0,1.1,0.1,0.9-0.8,0.9c-0.9,0-0.8-0.1-0.8,0.8c0,0.5,0,1.1,0,1.6c0,0.4,0.1,0.5,0.5,0.5c0.4,0,0.9,0,1.3,0c0.3,0,0.4,0.1,0.4,0.4
			c0,0.8,0,0.8-0.8,0.8c-0.8,0-1.7,0-2.5,0c-0.6,0-0.6,0-0.6-0.6C40.3,33.6,40.3,32.3,40.3,31z"/>
		<path class="st0" d="M46.4,45.6c0-1.3,0-2.7,0-4c0-0.4,0.1-0.5,0.5-0.5c0.9,0,1.9,0,2.8,0c0.4,0,0.5,0.1,0.5,0.5
			c0,0.8,0.1,0.7-0.7,0.7c-0.4,0-0.7,0-1.1,0c-0.2,0-0.3,0.1-0.3,0.3c0,0.6,0,1.2,0,1.9c0,0.3,0.1,0.3,0.3,0.3c0.3,0,0.7,0,1,0
			c0.2,0,0.3,0.1,0.3,0.3c0.1,0.9,0.1,0.9-0.8,0.9c-1,0-0.9-0.1-0.9,0.9c0,0.5,0,1,0,1.5c0,0.3,0.1,0.5,0.4,0.5c0.4,0,0.9,0,1.3,0
			c0.3,0,0.4,0.1,0.4,0.4c0,0.8,0,0.8-0.8,0.8c-0.9,0-1.7,0-2.6,0c-0.3,0-0.4-0.1-0.4-0.4C46.4,48.3,46.4,47,46.4,45.6z"/>
		<path class="st0" d="M45.7,31.7c0-1.1,0-2.2,0-3.4c0-0.4-0.1-0.5-0.5-0.5c0,0-0.1,0-0.1,0c-1,0-0.9,0.2-0.9-0.9
			c0-0.2,0.1-0.3,0.3-0.3c1.3,0,2.7,0,4,0c0.1,0,0.2,0.2,0.3,0.3c0,0,0,0.1,0,0.1c0,1.1,0.1,0.9-0.8,0.9c-0.6,0-0.6,0-0.6,0.6
			c0,2.2,0,4.4,0,6.6c0,0.4-0.1,0.5-0.5,0.5c-0.3,0-0.5,0-0.8,0c-0.3,0-0.4-0.1-0.4-0.4C45.7,33.9,45.7,32.8,45.7,31.7z"/>
		<path class="st0" d="M89.5,31.7c0,1.1,0,2.3,0,3.4c0,0.3-0.1,0.4-0.4,0.4c-1.2,0-1.2,0-1.2-1.2c0-2,0-4,0-5.9c0-0.5,0-0.5-0.5-0.5
			c0,0-0.1,0-0.1,0c-0.9,0-1-0.1-0.8-1c0-0.1,0.2-0.3,0.3-0.3c1.3,0,2.7,0,4,0c0.1,0,0.3,0.2,0.3,0.3c0,1.2,0.1,1-0.9,1
			c-0.6,0-0.6,0-0.6,0.6C89.5,29.5,89.5,30.6,89.5,31.7z"/>
		<path class="st0" d="M89.5,12c0.6,0,1.3,0,1.9,0c0.3,0,0.4,0.1,0.4,0.4c0,1.1,0.1,0.9-0.8,0.9c-0.6,0-0.6,0-0.6,0.6
			c0,2.2,0,4.4,0,6.6c0,0.4-0.1,0.5-0.5,0.5c-1.1,0-1.1,0-1.1-1.1c0-2,0-4.1,0-6.1c0-0.4-0.1-0.5-0.5-0.5c-0.1,0-0.1,0-0.2,0
			c-0.8,0-1-0.2-0.8-1c0-0.1,0.2-0.2,0.3-0.2C88.2,12,88.9,12,89.5,12z"/>
		<path class="st0" d="M91.3,45.6c0-1.3,0-2.7,0-4c0-0.4,0.1-0.5,0.5-0.5c0.3,0,0.5,0,0.8,0c0.4,0,0.5,0.1,0.5,0.5
			c0,2.1,0,4.1,0,6.2c0,1.1,0,1.1,1.1,1.1c0.1,0,0.3,0,0.4,0c0.6,0,0.6,0,0.6,0.6c0,0.6,0,0.6-0.6,0.6c-0.9,0-1.8,0-2.7,0
			c-0.4,0-0.5-0.1-0.5-0.5C91.3,48.3,91.3,46.9,91.3,45.6z"/>
		<path class="st0" d="M92.2,16.4c0-1.3,0-2.7,0-4c0-0.3,0.1-0.5,0.4-0.5c1.2,0,1.2,0,1.2,1.2c0,2.4,0,4.8,0,7.2
			c0,0.4-0.1,0.5-0.5,0.5c-1.1,0-1.1,0-1.1-1.1C92.2,18.7,92.2,17.6,92.2,16.4z"/>
		<path class="st0" d="M91.5,31c0-1.3,0-2.6,0-3.9c0-0.4,0.1-0.5,0.5-0.5c1.2,0,1.2,0,1.2,1.2c0,2.4,0,4.8,0,7.2
			c0,0.6,0,0.6-0.5,0.6c-1.1,0-1.1,0-1.1-1.1C91.5,33.3,91.5,32.1,91.5,31z"/>
	</g>
</g>
</svg>
