<?xml version="1.0" encoding="utf-8"?>
<!-- Generator: Adobe Illustrator 25.0.1, SVG Export Plug-In . SVG Version: 6.00 Build 0)  -->
<svg version="1.1" id="Layer_1" xmlns="http://www.w3.org/2000/svg" xmlns:xlink="http://www.w3.org/1999/xlink" x="0px" y="0px"
	 viewBox="0 0 125 125" style="enable-background:new 0 0 125 125;" xml:space="preserve">
<style type="text/css">
	.st0{fill:#D2D1D3;}
</style>
<g>
	<g>
		<path class="st0" d="M63.5,109.9c-7-0.1-13.6-1.5-19.9-4.6c-4.2-2.1-8.1-4.8-11.5-8.1c-1.8-1.7-3.4-3.6-4.9-5.6
			c-0.2-0.3-0.3-0.5,0-0.9c3.9-5.3,8.8-9.5,14.5-12.7c4.9-2.7,10.2-4.4,15.8-5.1c2.4-0.3,4.8-0.4,7.2-0.4
			c11.2,0.4,20.9,4.3,29.2,11.8c2.2,2,4.1,4.1,5.8,6.5c0.2,0.3,0.3,0.5,0,0.8c-4.1,5.6-9.3,10-15.5,13.2c-4.7,2.5-9.7,4-14.9,4.6
			C67.4,109.7,65.5,109.7,63.5,109.9z M54.4,87.2c0.1,0,0.1-0.1,0.2-0.1c0.2,0.2,0.4,0.4,0.6,0.7c0.1,0.2,0.2,0.3,0.5,0.2
			c0.3-0.2,0.6-0.2,0.9,0.1c0.2,0.3,0.2,0.7-0.2,1s-0.8,0.6-1.3,0.5c-0.6-0.1-1.1-0.3-1.7-0.4c-1-0.3-1.9-0.6-2.9-0.9
			c-0.7-0.2-1.1,0.1-1.5,0.6c-0.2,0.2-0.3,0.4-0.5,0.7c-0.1,0.1-0.2,0.3-0.2,0.4c-0.2,2.4,0.1,4.7,1,6.9c0.2,0.4,0.6,0.6,1,0.4
			c0.3-0.1,0.6-0.3,0.8-0.4c0.6-0.4,0.7-0.4,1.3,0.1c0.1,0.1,0.2,0.1,0.2,0.2c0.2,0.2,0.4,0.5,0.5,0.8s0.2,0.4,0.5,0.3
			s0.5,0,0.5,0.3c0.1,0.3,0.1,0.5,0.1,0.8c0.1,0.4,0.2,0.7,0.5,0.7c0.1,0.7,0.2,1.4,0.3,2.1s0.4,0.8,1.1,0.7
			c1.3-0.2,1.9-1.1,2.3-2.3c0.1-0.5,0.2-1.1,0.8-1.3l0.1-0.1c0.1-0.6,0.4-1.3,0.4-1.9c0-0.9,0.2-1.6,0.9-2.1
			c0.1-0.1,0.2-0.2,0.3-0.3c0.4-0.5,0.4-1-0.2-1.4c-0.2-0.1-0.4-0.2-0.6-0.3c-0.8-0.6-1.3-1.4-1.4-2.3c0-0.1,0.1-0.3,0.1-0.5
			c0.1,0.1,0.3,0.1,0.4,0.2c0.4,0.4,0.8,0.9,1.2,1.4c0.3,0.3,0.7,0.6,1.1,0.4c0.4-0.2,0.8-0.4,1.1-0.7c0.4-0.3,0.4-0.7,0-1.1
			c-0.3-0.4-0.7-0.7-1-1c-0.4-0.4-0.8-0.8-1.1-1.2c-0.1-0.1,0-0.3,0-0.4c0.1,0,0.3,0,0.4,0c0.1,0,0.1,0.1,0.2,0.1
			c0.6,0.4,1.2,0.7,1.8,1.1c0.3,0.2,0.5,0.5,0.6,0.8c0.2,0.9,0.7,1.3,1.5,1.5c1,0.3,1.9,0.6,2.6,1.4c0.1,0.2,0.4,0.2,0.5,0
			c0.4-0.5,0.8-1.1,0.6-1.8c-0.1-0.5,0-0.7,0.5-0.8c0.5-0.1,0.9,0.1,1.1,0.6s0.5,1.1,0.7,1.7c0.4,1.3,1.3,1.9,2.3,2.6
			C73.7,95,73.9,95,74,95c0-0.2,0.1-0.4,0-0.5c-0.2-0.4-0.4-0.8-0.6-1.2c-0.4-0.9,0.2-2,1.1-2.3c0.4-0.1,0.8-0.3,1.2-0.6
			c0.4-0.2,0.5-0.4,0.2-0.8c-0.2-0.4-0.3-0.8-0.3-1.2c0-0.3,0.2-0.4,0.5-0.2c0.2,0.1,0.3,0.3,0.4,0.4c0.3,0.3,0.6,0.4,1,0.3
			s0.7-0.4,0.7-0.8c0-0.3,0-0.6-0.1-0.9c-0.8-2.9-2.4-5.4-4.6-7.4c-4.8-4.3-12.2-5-17.7-1.7c-0.1,0-0.1,0.1-0.3,0.2
			c0.9-0.1,1.6-0.2,2.4-0.2c0.6,0,1.2,0.1,1.8,0.2c0.5,0.1,0.6,0.4,0.5,0.9c-0.1,0.4,0,0.7,0.3,0.9c0.2,0.2,0.5,0.4,0.8,0.6
			c0.3,0.3,0.3,0.5,0,0.7c-0.6,0.3-1.1,0.7-1.7,1c-0.2,0.1-0.3,0.2-0.5,0.2c-0.2,0.1-0.5,0.2-0.6-0.1c-0.1-0.3,0.1-0.4,0.3-0.5
			c0.3-0.2,0.6-0.3,1-0.5c0.1-0.1,0.3-0.2,0.4-0.3c-0.5-0.3-0.9-0.2-1.3-0.2c-0.7,0.1-1.3,0.3-2,0.4c-0.5,0.1-0.9,0.1-1.4,0.1
			c-0.7,0.1-1.4,0.4-1.9,0.9c-0.3,0.3-0.3,0.6,0,0.8c0.6,0.5,1.3,0.7,2.1,0.7c0.6,0,0.8-0.5,1.2-0.8c0.1-0.1,0.2-0.2,0.4-0.3
			c0.2,0,0.5,0,0.7,0.1s0.2,0.2,0,0.4c-0.3,0.3-0.7,0.6-1,0.9c-0.4,0.4-0.9,0.5-1.5,0.3c-1-0.3-2-0.3-2.9,0.3
			c-0.2,0.1-0.4,0.3-0.7,0.4c-0.2,0.1-0.4,0.2-0.3,0.5c0,0.2-0.1,0.5-0.2,0.6c-0.1,0.1-0.4,0.1-0.7,0.1s-0.7-0.1-1-0.1
			c-0.7,0.1-1,0.6-0.7,1.2c0.1,0.3,0.4,0.4,0.7,0.3c0.5-0.2,1-0.3,1.5-0.5s0.9-0.3,1.3-0.6c0.5-0.3,0.9-0.3,1.2,0.2
			c0.2,0.4,0.4,0.7,0.6,1.1c0.1,0.1,0.2,0.2,0.3,0.3c0,0,0.1,0,0.1-0.1C54.6,88,54.5,87.6,54.4,87.2z M72.5,101.3c0,0.2,0,0.3,0,0.4
			c0,0.2,0.1,0.3,0.3,0.2c0.3-0.2,0.6-0.2,0.9,0s0.5,0.1,0.7-0.1c1.2-1.3,2.2-2.8,2.9-4.4c0.3-0.6,0.2-1.2-0.1-1.8
			c-0.2-0.4-0.3-0.5-0.7-0.2c-0.8,0.5-1.6,0.9-2.6,1c-0.7,0.1-1.4,0.3-2,0.6c-1.2,0.4-2,1.9-1.7,3.1c0.1,0.5,0.3,0.9,0.4,1.4
			c0.2,0.5,0.3,0.6,0.8,0.3C71.9,101.6,72.2,101.5,72.5,101.3z M72.6,103.3c-0.3-0.1-0.5-0.2-0.7-0.2c-1.2-0.3-2.2,0.2-3.1,1
			c-0.5,0.5-1.1,0.6-1.8,0.3c-1-0.4-2.1-0.7-3.1-1c-1.3-0.3-2.6-0.3-3.8,0.3c-0.5,0.3-0.9,0.6-1.1,1.1c-0.2,0.5-0.1,0.8,0.4,1
			c0.9,0.2,1.7,0.4,2.6,0.4c3.7,0.3,7.1-0.6,10.1-2.7C72.4,103.6,72.5,103.5,72.6,103.3z M77.4,89.4c0.1,0.3,0.3,0.5,0.3,0.7
			s-0.2,0.5-0.3,0.7c-0.5,1,0.1,2.8,1,3.4c0,0,0,0,0-0.1c0.3-1.2,0.4-2.5,0.3-3.8C78.6,89.8,78,89.2,77.4,89.4z M49.4,85.5
			c0.5,0.1,0.8-0.1,1-0.3c0.7-0.6,1.3-1.3,2.1-1.8c0.3-0.2,0.3-0.4,0-0.5c-0.5-0.3-1.6-0.1-1.9,0.4C50.1,84,49.8,84.7,49.4,85.5z
			 M60.2,99.1c0.1,0,0.1,0,0.2,0c0.1-0.2,0.2-0.4,0.3-0.6c0.3-0.9,0.7-1.7,1-2.6c0-0.1,0.1-0.2,0.1-0.2c0.1-0.4-0.2-0.6-0.5-0.4
			s-0.6,0.5-0.7,0.8c-0.2,0.8-0.3,1.6-0.4,2.4C60.1,98.7,60.2,98.9,60.2,99.1z M53,80.2c-0.3,0.2-0.6,0.3-0.8,0.5
			c-0.3,0.2-0.4,0.5-0.6,0.8c-0.1,0.1-0.2,0.3-0.1,0.4c0.1,0.1,0.3,0.2,0.4,0.3c0.7,0.1,1.6-0.7,1.7-1.4
			C53.5,80.4,53.4,80.2,53,80.2z M67,93.7c0.6,0,0.8-0.2,0.6-0.5c-0.2-0.2-0.5-0.4-0.8-0.6c-0.2-0.1-0.7,0.2-0.7,0.4
			c0,0.2,0.2,0.3,0.4,0.5C66.7,93.6,66.9,93.6,67,93.7z M75.4,95.1c0.5,0,0.8-0.2,0.6-0.5c-0.2-0.2-0.5-0.5-0.8-0.5
			c-0.3-0.1-0.6,0.2-0.6,0.5c0,0.1,0.2,0.3,0.4,0.4C75.1,95.1,75.2,95.1,75.4,95.1z M74.8,93.6c0,0,0.2-0.1,0.3-0.2
			c0-0.1,0-0.3-0.1-0.4c-0.2-0.2-0.3-0.4-0.5-0.5s-0.5,0-0.5,0.3C74,93.3,74.3,93.6,74.8,93.6z"/>
		<path class="st0" d="M28.4,23c1.8,0.9,2.6,2.4,2.7,4.3c0.1,1.6,0.1,3.3-0.5,4.8c-0.8,2.2-2.5,3.4-4.8,3.5c-0.8,0.1-1.7,0-2.5-0.1
			c-2.1-0.3-3.5-1.5-4.2-3.5c-0.4-1.3-0.5-2.6-0.5-3.9c0-0.2,0.1-0.3,0.3-0.3c1.3,0,2.6,0,3.9,0c0.3,0,0.3,0.2,0.3,0.4
			c0.1,0.8,0.1,1.5,0.2,2.3c0.2,0.9,0.7,1.4,1.5,1.4c1,0.1,1.6-0.3,1.8-1.3c0.3-1.3,0.3-2.6,0-4c-0.3-1.1-0.9-1.6-2.1-1.7
			c-1.1-0.1-1.1-0.1-1.1-1.2c0-0.6,0-1.2,0-1.8c0-0.3,0.1-0.4,0.4-0.4s0.7,0,1-0.1c0.9-0.1,1.5-0.6,1.7-1.4c0.3-1.2,0.4-2.4,0-3.7
			c-0.3-1.1-1.4-1.5-2.4-1.1c-0.4,0.2-0.7,0.5-0.7,1c-0.1,0.8-0.2,1.6-0.3,2.5c0,0.6,0,0.6-0.6,0.6c-1.2,0-2.3,0-3.5,0
			c-0.3,0-0.5-0.1-0.4-0.4c0.1-1,0-2,0.2-2.9c0.5-2.5,2.5-4.1,5-4.3c1.1-0.1,2.2-0.1,3.3,0.2c1.8,0.5,3.1,1.6,3.6,3.5
			c0.5,1.5,0.5,3.1,0.1,4.7C30.5,21.4,29.8,22.5,28.4,23z"/>
		<path class="st0" d="M11.8,16.7c-1.1,0.4-2.2,0.8-3.3,1.2c0-0.1-0.1-0.2-0.1-0.3c0-0.9,0-1.8,0-2.6c0-0.3,0.1-0.4,0.3-0.5
			c1.4-0.6,2.8-1.3,3.9-2.3c0.1-0.1,0.3-0.1,0.5-0.1c0.9,0,1.7,0,2.6,0c0.5,0,0.5,0,0.5,0.5c0,7,0,14,0,21c0,0.5,0,0.9,0,1.4
			c0,0.4-0.1,0.5-0.5,0.5c-1.2,0-2.4,0-3.6,0c-0.4,0-0.5-0.1-0.5-0.5c0-2.4,0-4.9,0-7.3c0-3.4,0-6.9,0-10.3
			C11.8,17.1,11.8,17,11.8,16.7z"/>
		<path class="st0" d="M95.9,20.9c-0.5,0-0.9,0-1.4,0c-0.1,0-0.2-0.2-0.2-0.3c-0.1-0.4-0.2-0.9-0.2-1.4c0-0.3-0.1-0.4-0.4-0.4
			c-1.1,0-1.1,0-1.3,1.1c-0.2,1-0.2,1-1.2,1c-1.3,0-2.6,0-3.9,0c-0.4,0-0.5-0.1-0.5-0.5c0-2.7,0-5.4,0-8.1c0-0.4,0.1-0.5,0.5-0.5
			c0.3,0,0.5,0,0.8,0s0.4,0.1,0.4,0.4c0,2.1,0,4.2,0,6.3c0,1.1,0,1.1,1.1,1.1h0.1c0.9,0,0.9,0,1,0.9c0.2-1.2,0.5-2.4,0.7-3.6
			c0.3-1.6,0.7-3.2,1-4.7c0.1-0.3,0.2-0.4,0.5-0.4c0.4,0,1-0.1,1.3,0.1c0.3,0.2,0.3,0.8,0.4,1.2c0.5,2.3,1,4.7,1.4,7
			C95.8,20.5,95.8,20.7,95.9,20.9z M93.8,17.6c-0.2-1-0.3-2.1-0.5-3.2c-0.2,0.8-0.3,1.6-0.5,2.4C92.7,17.7,92.7,17.8,93.8,17.6
			C93.7,17.7,93.7,17.7,93.8,17.6z"/>
		<path class="st0" d="M48,35.1c0.3-1.4,0.6-2.8,0.9-4.3c0.3-1.3,0.5-2.6,0.8-3.9c0.1-0.3,0.2-0.5,0.5-0.4c0.3,0,0.6,0,0.9,0
			c0.3,0,0.4,0.1,0.5,0.4c0.5,2.8,1.1,5.5,1.7,8.2c0,0.1,0,0.2,0,0.3c-0.5,0-0.9,0-1.3,0c-0.1,0-0.2-0.2-0.2-0.3
			c-0.1-0.4-0.2-0.9-0.2-1.3c0-0.3-0.1-0.4-0.5-0.4c-1.1,0-1.1,0-1.3,1.1c-0.2,1.2,0,0.9-1.1,1c-1.3,0-2.6,0-3.9,0
			c-0.4,0-0.5-0.1-0.5-0.5c0-2.7,0-5.4,0-8.1c0-0.4,0.1-0.5,0.5-0.5c0.2,0,0.5,0,0.7,0c0.4,0,0.5,0.1,0.5,0.5c0,2.2,0,4.5,0,6.7
			c0,0.6,0,0.6,0.6,0.6c0.4,0,0.7,0,1.1,0c0.4,0,0.5,0.1,0.5,0.5C47.9,34.9,47.9,35,48,35.1C47.9,35.1,47.9,35.1,48,35.1z
			 M50.6,29.1L50.6,29.1c-0.2,0.8-0.3,1.7-0.5,2.5c-0.1,0.7-0.1,0.7,0.6,0.7c0.3,0,0.4-0.1,0.3-0.4C50.9,31,50.8,30.1,50.6,29.1z"/>
		<path class="st0" d="M41.2,15.4c-0.2,1-0.4,2.1-0.6,3.1c-0.1,0.7-0.3,1.4-0.4,2.1C40.1,21,39.9,21,39.6,21s-0.5,0-0.6-0.4
			c-0.3-1.6-0.7-3.2-1-4.8c0-0.1-0.1-0.3-0.1-0.4h-0.1c0,1.7,0,3.4,0,5.1c0,0.4-0.1,0.5-0.5,0.5c-0.9,0-0.8,0.1-0.8-0.8
			c0-2.6,0.1-5.2,0.1-7.8c0-0.3,0.1-0.5,0.4-0.4c0.2,0,0.3,0,0.5,0c1,0,0.8-0.1,1,0.8c0.4,1.6,0.7,3.3,1,4.9c0,0.1,0,0.2,0.1,0.4
			c0.1-0.5,0.2-0.9,0.3-1.2c0.3-1.5,0.6-3,0.9-4.5c0.1-0.3,0.2-0.4,0.5-0.4s0.6,0,0.9,0c0.3,0,0.4,0.1,0.4,0.4c0,1.5,0,3.1,0.1,4.6
			c0,1.2,0,2.3,0.1,3.5c0,0.4-0.1,0.5-0.5,0.5c-0.8,0-0.8,0.2-0.8-0.8c0-1.6,0-3.2,0-4.7C41.3,15.4,41.2,15.4,41.2,15.4z"/>
		<path class="st0" d="M54.1,59c-0.2,0.9-0.4,1.8-0.6,2.7c-0.2,0.9-0.4,1.7-0.5,2.6c-0.1,0.4-0.3,0.4-0.6,0.4s-0.5,0-0.6-0.4
			c-0.3-1.7-0.7-3.3-1-5c0-0.1,0-0.1,0-0.2h-0.1c0,0.6,0,1.3,0,1.9c0,1,0,2.1,0,3.1c0,0.4-0.1,0.5-0.5,0.5c-0.9,0-0.8,0-0.8-0.8
			c0-2.6,0.1-5.2,0.1-7.8c0-0.3,0.1-0.5,0.4-0.4c0.3,0,0.7,0,1,0s0.4,0.1,0.4,0.4c0.4,1.8,0.7,3.6,1.1,5.4c0,0.1,0,0.1,0.1,0.2
			c0.1-0.5,0.2-1,0.3-1.5c0.3-1.3,0.6-2.7,0.8-4c0.1-0.3,0.2-0.4,0.5-0.4s0.5,0,0.8,0s0.5,0.1,0.5,0.5c0,0.8,0,1.6,0,2.4
			c0,1.9,0.1,3.8,0.1,5.8c0,0.2-0.1,0.3-0.3,0.4c-1,0.1-1,0.1-1-0.9c0-1.6,0-3.2,0-4.8C54.2,59,54.2,59,54.1,59z"/>
		<path class="st0" d="M89.5,47c0.3-1.3,0.6-2.6,0.8-3.9c0.1-0.5,0.2-1.1,0.3-1.6c0-0.3,0.2-0.4,0.4-0.4c0.3,0,0.5,0,0.8,0
			c0.6,0,0.6,0,0.6,0.6c0,2.7,0.1,5.3,0.1,8c0,0.4-0.1,0.5-0.5,0.5c-0.8,0-0.8,0-0.8-0.8c0-1.6,0-3.2,0-4.9c-0.1,0-0.1,0-0.2,0
			c-0.1,0.6-0.3,1.2-0.4,1.9c-0.2,1.1-0.5,2.3-0.7,3.4c-0.1,0.4-0.3,0.4-0.6,0.4c-0.3,0-0.5,0-0.6-0.4c-0.3-1.7-0.7-3.3-1.1-5
			c0-0.1,0-0.1,0-0.2h-0.1c0,0.5,0,1.1,0,1.6c0,1.1,0,2.2,0,3.3c0,0.2-0.1,0.6-0.2,0.6c-0.3,0.1-0.7,0-1,0c0,0-0.1-0.2-0.1-0.3
			c0-2.7,0.1-5.5,0.1-8.2c0-0.3,0.1-0.4,0.4-0.4s0.7,0,1,0s0.4,0.1,0.4,0.4c0.3,1.7,0.7,3.3,1,5C89.3,46.7,89.4,46.9,89.5,47
			C89.4,47,89.5,47,89.5,47z"/>
		<path class="st0" d="M70,26.5c1.3,0,2.6,0,3.9,0c0.4,0,0.5,0.1,0.5,0.5c0,0.9,0.1,0.8-0.8,0.8c-0.6,0-0.6,0-0.6,0.6
			c0,2.2,0,4.3,0,6.5c0,0.5,0,0.5-0.5,0.5c-1.2,0-1.2,0-1.2-1.1c0-2,0-4,0-6.1c0-0.4-0.1-0.5-0.5-0.5c-0.5,0-1.1,0-1.6,0
			c-0.4,0-0.5,0.1-0.5,0.5c0,2.2,0,4.4,0,6.7c0,0.4-0.1,0.6-0.5,0.5c-0.2,0-0.5,0-0.7,0c-0.4,0-0.5-0.1-0.5-0.5c0-2.2,0-4.4,0-6.6
			c0-0.6,0-0.6-0.6-0.6l0,0c-1,0-0.9,0.1-0.9-0.9c0-0.3,0.1-0.4,0.4-0.4c1.1,0,2.2,0,3.3,0C69.4,26.5,69.7,26.5,70,26.5z"/>
		<path class="st0" d="M72.9,64.5c0.1,0.1,0.2,0.3,0.3,0.4c0.5,0.6,0.6,0.8,0.1,1.6c-0.6-0.3-1.1-0.9-1.5-1.4
			c-0.1-0.1-0.3-0.3-0.5-0.3c-1.5-0.1-2.3-0.8-2.4-2.3c-0.1-1.6-0.1-3.1,0-4.7c0.1-1.5,1.2-2.3,2.7-2.2c1.6,0.1,2.4,0.9,2.4,2.5
			c0,1.3,0,2.6,0,3.9C74.1,63,73.8,63.9,72.9,64.5z M70.6,60.2L70.6,60.2c0,0.8,0,1.7,0,2.5c0,0.6,0.4,0.8,0.9,0.8s0.8-0.3,0.8-0.9
			c0-1.7,0-3.3,0-5c0-0.6-0.3-0.8-0.8-0.8s-0.8,0.2-0.9,0.8C70.6,58.5,70.6,59.4,70.6,60.2z"/>
		<path class="st0" d="M64,20.9c-0.5,0-1,0-1.5,0c-0.1,0-0.2-0.2-0.3-0.3c-0.3-1.1-0.6-2.2-0.9-3.3c0-0.1-0.2-0.3-0.3-0.3
			c-0.3-0.1-0.5,0-0.4,0.4c0,1.1,0,2.1,0,3.2c0,0.4-0.1,0.5-0.5,0.5c-1.2,0-1.2,0-1.2-1.2c0-2.4,0-4.9,0-7.3c0-0.4,0.1-0.5,0.5-0.5
			c0.8,0,1.6,0,2.4,0.1c1.3,0.1,1.9,0.7,2,2c0,0.5-0.1,1-0.2,1.6c0,0.2-0.2,0.5-0.4,0.6c-0.6,0.3-0.4,0.7-0.3,1.2
			c0.3,1,0.6,2.1,0.9,3.1C63.9,20.6,64,20.7,64,20.9z M62.3,14.4c0-1-0.4-1.3-1.3-1.3c-0.2,0-0.3,0.1-0.3,0.3c0,0.7,0,1.4,0,2.1
			c0,0.2,0.1,0.3,0.3,0.3C61.9,15.8,62.3,15.4,62.3,14.4z"/>
		<path class="st0" d="M63.7,45.7c0,1.3,0,2.7,0,4c0,0.3-0.1,0.5-0.4,0.4c-0.3,0-0.5,0-0.8,0S62,50,62,49.6c0-1,0-2.1,0-3.1
			c0-0.3-0.1-0.5-0.4-0.5c-0.4,0-1-0.1-1.2,0.1c-0.2,0.2-0.1,0.8-0.1,1.2c0,0.8,0,1.5,0,2.3c0,0.3-0.1,0.4-0.4,0.4
			c-1.2,0-1.2,0-1.2-1.2c0-2.4,0-4.8,0-7.2c0-0.6,0-0.6,0.6-0.6c0.2,0,0.5,0,0.7,0c0.3,0,0.4,0.1,0.4,0.4c0,1,0,2,0,2.9
			c0,0.3,0.1,0.4,0.4,0.4c0.3,0,0.7,0,1,0s0.4-0.1,0.4-0.4c0-1,0-1.9,0-2.9c0-0.3,0.1-0.4,0.4-0.4c1.3,0,1.3,0,1.3,1.2
			C63.7,43.5,63.7,44.6,63.7,45.7z"/>
		<path class="st0" d="M107.8,35.5c-0.5,0-1,0-1.5,0c-0.1,0-0.3-0.2-0.3-0.4c-0.3-1.1-0.6-2.2-0.9-3.3c0-0.2-0.1-0.4-0.4-0.4
			s-0.4,0.1-0.4,0.4c0,1.1,0,2.1,0,3.2c0,0.4-0.1,0.5-0.5,0.5c-0.3,0-0.6,0-0.9,0c-0.2,0-0.3-0.1-0.3-0.3c0-2.8,0-5.5,0-8.3
			c0-0.3,0.1-0.3,0.3-0.3c0.9,0,1.7,0,2.6,0.1c1.3,0.1,1.9,0.8,2,2.1c0,0.5,0,0.9-0.2,1.4c-0.1,0.3-0.4,0.6-0.6,0.9
			c-0.2,0.2-0.2,0.3-0.2,0.5c0.3,1.2,0.7,2.3,1,3.5C107.7,35.1,107.7,35.3,107.8,35.5z M104.4,29c0,0.3,0,0.6,0,0.9V30
			c0,0.1,0.1,0.2,0.2,0.3c0.3,0.1,1,0,1.2-0.3c0.4-0.6,0.4-1.2,0.1-1.8c-0.2-0.5-0.7-0.5-1.1-0.5c-0.3,0-0.4,0.1-0.4,0.4
			C104.4,28.4,104.4,28.7,104.4,29z"/>
		<path class="st0" d="M81.6,20.9c-0.5,0-1,0-1.5,0c-0.1,0-0.3-0.2-0.3-0.4c-0.3-1.1-0.6-2.2-0.9-3.3c-0.1-0.2-0.1-0.4-0.4-0.4
			s-0.4,0.1-0.4,0.4c0,1.1,0,2.2,0,3.3c0,0.3-0.1,0.5-0.4,0.4c-0.3,0-0.6,0-0.9,0c-0.2,0-0.3-0.1-0.3-0.3c0-0.4,0-0.8,0-1.3
			c0-2.3,0-4.6,0-6.8c0-0.6,0-0.6,0.6-0.5c0.8,0,1.6,0,2.4,0.1c1.3,0.1,1.9,0.9,1.9,2.1c0,0.5-0.1,0.9-0.2,1.4
			c-0.1,0.3-0.3,0.6-0.5,0.7c-0.4,0.2-0.3,0.5-0.2,0.8c0.3,1.1,0.6,2.2,0.9,3.3C81.5,20.6,81.6,20.7,81.6,20.9z M78.2,14.5
			c0,0.4,0,0.7,0,1.1c0,0.1,0.1,0.2,0.2,0.3c0.7,0.2,1.3-0.2,1.4-0.9c0-0.2,0-0.5,0-0.8c-0.1-0.7-0.7-1.1-1.4-0.9
			c-0.1,0-0.2,0.2-0.2,0.3C78.2,13.8,78.2,14.1,78.2,14.5z"/>
		<path class="st0" d="M92,31c0,0.9,0,1.8-0.2,2.8c-0.2,1.1-0.8,1.7-1.9,1.8c-0.5,0.1-1,0-1.4,0c-1-0.2-1.7-1-1.7-2.3
			c0-1.5-0.1-3,0-4.5c0.1-1.6,1.2-2.5,2.9-2.3c1.4,0.1,2.1,0.9,2.2,2.3C92,29.5,92,30.3,92,31L92,31z M90.3,31L90.3,31
			c0-0.8,0-1.7,0-2.5c0-0.6-0.4-0.8-0.9-0.8s-0.8,0.3-0.8,0.9c0,1.6,0,3.3,0,4.9c0,0.6,0.3,0.9,0.8,0.9s0.9-0.2,0.9-0.8
			C90.3,32.7,90.3,31.9,90.3,31z"/>
		<path class="st0" d="M96.1,31.3c0-1.3,0-2.5,0-3.8c0-1-0.2-0.9,0.9-0.9c0.4,0,0.5,0.1,0.5,0.5c0,2.7,0,5.4,0,8.1
			c0,0.4-0.1,0.5-0.5,0.5c-0.8,0-0.6,0.1-0.9-0.6c-0.6-1.4-1.1-2.8-1.7-4.1c0-0.1-0.1-0.2-0.2-0.3c0,0.1,0,0.3,0,0.4
			c0,1.4,0,2.8,0,4.1c0,0.3-0.1,0.5-0.5,0.5c-1.1,0-1,0.1-1-1c0-2.5,0-5,0-7.5c0-0.4,0.1-0.5,0.5-0.5c0.5,0,0.7,0.1,0.9,0.6
			C94.8,28.5,95.4,29.9,96.1,31.3C96,31.3,96.1,31.3,96.1,31.3z"/>
		<path class="st0" d="M99.5,45.1c0,1.5,0,3,0,4.5c0,0.4-0.1,0.5-0.5,0.5c-0.9,0-0.9,0-0.9-0.9c0-2.5,0-5,0-7.5
			c0-0.4,0.1-0.5,0.5-0.5c0.5,0,0.8,0.1,1,0.6c0.6,1.4,1.2,2.8,1.8,4.3c0-0.2,0-0.3,0-0.4c0-1.3,0-2.7,0-4c0-0.4,0.1-0.5,0.5-0.5
			c1.1,0,0.9-0.1,0.9,0.9c0,2.5,0,5,0,7.4c0,0.2,0.1,0.5-0.2,0.6c-0.6,0.1-0.9,0-1-0.4c-0.6-1.5-1.2-3-1.8-4.4
			C99.6,45.2,99.6,45.1,99.5,45.1L99.5,45.1z"/>
		<path class="st0" d="M73.5,45.9c0-0.8,0-1.6,0-2.3s0-1.4,0-2c0-0.3,0.1-0.4,0.4-0.4c1.2,0,1-0.2,1,1c0,2.5,0,4.9,0,7.4
			c0,0.2,0.1,0.5-0.2,0.6c-0.6,0.1-0.9,0-1-0.4c-0.6-1.5-1.3-3-1.9-4.5c0,0,0-0.1-0.1-0.2c0,0.2,0,0.3,0,0.4c0,1.4,0,2.8,0,4.2
			c0,0.4-0.1,0.5-0.5,0.5c-1.1,0-0.9,0.1-0.9-0.9c0-2.5,0-5,0-7.5c0-0.4,0.1-0.5,0.5-0.5c0.5,0,0.7,0.1,0.9,0.6
			c0.5,1.3,1.1,2.6,1.7,3.8C73.4,45.7,73.4,45.8,73.5,45.9L73.5,45.9z"/>
		<path class="st0" d="M79.7,49.4c-0.5,0.8-1.2,0.9-2.1,0.8c-0.8-0.1-1.3-0.6-1.6-1.4c-0.1-0.4-0.2-0.9-0.2-1.3c0-1.2,0-2.5,0-3.7
			c0-0.3,0-0.6,0.1-0.9c0.3-1.4,1.3-2,2.9-1.8c1.7,0.2,2.1,1.4,2,2.9c0,0.1-0.2,0.2-0.3,0.2c-0.4,0-0.7,0-1.1,0
			c-0.1,0-0.2-0.2-0.3-0.3c0-0.2,0-0.5,0-0.8c-0.1-0.5-0.3-0.7-0.8-0.7s-0.8,0.2-0.9,0.7c0,0.2,0,0.4,0,0.6c0,1.3,0,2.6,0,3.9
			c0,0.2,0,0.5,0.1,0.7c0.1,0.5,0.4,0.7,0.8,0.7s0.8-0.2,0.9-0.7s0.1-1,0.1-1.5c0-0.1-0.2-0.2-0.3-0.2c-0.2-0.1-0.5,0-0.6-0.1
			c-0.1-0.3-0.1-0.6,0-0.9c0-0.1,0.2-0.1,0.3-0.1c0.6,0,1.2,0,1.9,0c0.2,0,0.3,0.1,0.3,0.3c0,1.3,0,2.7,0,4c0,0.2-0.1,0.3-0.3,0.3
			C79.9,50.2,79.9,50.2,79.7,49.4z"/>
		<path class="st0" d="M65.2,30.1c0,1.2,0.1,2.4,0,3.6s-0.7,1.8-2,1.9c-0.5,0.1-0.9,0-1.4-0.1c-0.7-0.1-1.2-0.6-1.3-1.3
			c-0.1-0.5-0.2-1-0.2-1.5c0-1.9,0-3.8,0-5.7c0-0.4,0.1-0.5,0.5-0.5c1.2,0,1.2,0,1.2,1.2c0,1.8,0,3.5,0,5.3c0,0.3,0,0.5,0.1,0.8
			c0.1,0.4,0.4,0.6,0.8,0.6c0.4,0,0.7-0.2,0.8-0.6c0.1-0.3,0.1-0.7,0.1-1c0-1.9,0-3.8,0-5.7c0-0.4,0.1-0.5,0.5-0.5
			c1.1,0,1.1,0,1.1,1.1C65.3,28.5,65.3,29.3,65.2,30.1C65.3,30.1,65.2,30.1,65.2,30.1z"/>
		<path class="st0" d="M58,15.5c0,1.2,0.1,2.4,0,3.6s-0.7,1.8-2,1.9c-0.4,0-0.9,0-1.3-0.1c-0.7-0.1-1.3-0.6-1.4-1.3
			c-0.1-0.5-0.2-0.9-0.2-1.4c0-1.9,0-3.8,0-5.8c0-0.4,0.1-0.5,0.5-0.5c1.1,0,1.1,0,1.1,1.1c0,1.7,0,3.4,0,5.1c0,0.3,0,0.7,0.1,1
			c0.1,0.4,0.4,0.6,0.8,0.6c0.4,0,0.7-0.2,0.8-0.6s0.1-0.8,0.1-1.2c0-1.8,0-3.7,0-5.5c0-0.4,0.1-0.5,0.5-0.5c1.1,0,1.1,0,1.1,1.1
			C58,13.9,58,14.7,58,15.5L58,15.5z"/>
		<path class="st0" d="M78.4,59.2c0-1,0-2,0-3.1c0-0.3,0.1-0.5,0.4-0.4c0.3,0,0.6,0,0.9,0c0.1,0,0.3,0.2,0.3,0.3
			c0,2.1,0.1,4.2,0,6.3c-0.1,1.9-1,2.6-2.9,2.4c-1.1-0.1-1.7-0.6-1.9-1.6c-0.1-0.4-0.1-0.8-0.1-1.2c0-1.9,0-3.9,0-5.8
			c0-0.4,0.1-0.5,0.5-0.5c1.2,0,1.2,0,1.2,1.2c0,1.8,0,3.6,0,5.3c0,0.3,0,0.5,0.1,0.8c0.1,0.4,0.4,0.5,0.8,0.5s0.7-0.2,0.8-0.6
			c0.1-0.3,0.1-0.6,0.1-0.9C78.4,61.1,78.4,60.2,78.4,59.2z"/>
		<path class="st0" d="M54.5,45.6c0,0.8,0,1.6,0,2.4c0,0.5,0.3,0.8,0.7,0.9c0.5,0.1,0.9-0.2,0.9-0.7c0-0.4,0-0.8,0-1.2
			c0-0.3,0.1-0.4,0.4-0.4c0.3,0,0.7,0,1,0c0.1,0,0.3,0.2,0.3,0.2c0,0.5,0,1.1-0.1,1.6c-0.2,1-0.8,1.5-1.8,1.6c-0.4,0-0.9,0-1.3-0.1
			c-1-0.2-1.5-0.9-1.6-1.8c-0.1-1.7-0.2-3.4,0-5c0.1-1.6,1.1-2.3,2.8-2.2c1.4,0.1,2.1,0.9,2.2,2.3c0,1.2,0,1.1-1.1,1.2
			c-0.4,0-0.5-0.1-0.5-0.5c0-0.3,0-0.6,0-0.9c0-0.4-0.2-0.6-0.6-0.7c-0.5-0.1-0.8,0.1-1,0.5c-0.1,0.2-0.1,0.5-0.1,0.7
			C54.4,44.2,54.4,44.9,54.5,45.6C54.4,45.6,54.4,45.6,54.5,45.6z"/>
		<path class="st0" d="M82.9,31c0,0.7,0,1.4,0,2c0,0.2,0,0.4,0.1,0.6c0.1,0.5,0.3,0.6,0.8,0.6s0.7-0.2,0.8-0.7
			c0.1-0.4,0.1-0.8,0-1.2c0-0.3,0.1-0.4,0.4-0.4s0.6,0,0.9,0c0.2,0,0.3,0.1,0.3,0.3c-0.1,0.6-0.1,1.3-0.2,1.9
			c-0.2,0.7-0.7,1-1.3,1.2c-0.6,0.2-1.2,0.2-1.8,0c-0.9-0.3-1.5-1-1.6-2c0-0.4-0.1-0.8-0.1-1.1c0-1.2,0-2.4,0.1-3.7
			c0-0.9,0.3-1.6,1.2-2c1-0.4,2-0.4,2.9,0.2c0.7,0.5,0.8,1.3,0.8,2c0,1.1,0.1,0.9-0.9,0.9c-0.8,0-0.7,0-0.7-0.7c0-0.3,0-0.5-0.1-0.8
			c-0.1-0.4-0.3-0.6-0.7-0.6c-0.4,0-0.7,0.1-0.8,0.5c-0.1,0.2-0.1,0.5-0.1,0.7C82.9,29.6,82.9,30.3,82.9,31z"/>
		<path class="st0" d="M38,60.2c0,0.9,0,1.8,0,2.7c0,0.6,0.6,0.9,1.1,0.6c0.3-0.2,0.4-0.5,0.4-0.8c0-0.4,0-0.7,0-1.1
			c0-0.2,0.1-0.3,0.3-0.3c0.3,0,0.7,0,1,0c0.1,0,0.3,0.2,0.3,0.3c0,0.5,0,1.1-0.1,1.6c-0.2,1-0.8,1.5-1.7,1.6c-0.4,0-0.8,0.1-1.2,0
			c-1.1-0.2-1.9-0.9-1.9-2.1c-0.1-1.6-0.1-3.2,0-4.8s1.1-2.2,2.7-2.2c0.1,0,0.2,0,0.4,0c1,0.1,1.7,0.7,1.8,1.7
			c0.1,0.4,0.1,0.8,0.1,1.2c0,0.3-0.1,0.4-0.4,0.4c-0.4,0-0.9,0.1-1.1-0.1c-0.2-0.2-0.1-0.7-0.1-1.1c0-0.7-0.3-1-0.9-0.9
			c-0.4,0-0.6,0.2-0.7,0.6c-0.1,0.2-0.1,0.5-0.1,0.8C37.9,58.9,37.9,59.5,38,60.2L38,60.2z"/>
		<path class="st0" d="M69.6,50.1c-0.5,0-0.9,0-1.3,0c-0.1,0-0.2-0.2-0.3-0.3c-0.1-0.5-0.2-0.9-0.2-1.4c0-0.3-0.1-0.4-0.4-0.4
			c-1.1,0-1.1,0-1.3,1.1c-0.2,1-0.2,1-1.2,1c-0.2,0-0.3,0-0.5,0c0.1-0.5,0.2-0.9,0.3-1.4c0.5-2.4,1-4.7,1.4-7.1
			c0.1-0.3,0.2-0.5,0.5-0.4c0.4,0,1-0.1,1.2,0.1c0.3,0.2,0.3,0.8,0.3,1.2c0.5,2.4,1,4.8,1.5,7.2C69.6,49.8,69.6,49.9,69.6,50.1z
			 M67,43.7C67,43.8,67,43.8,67,43.7c-0.3,1-0.4,2.1-0.6,3.1c0.4,0,0.7,0,1.1,0C67.4,45.8,67.2,44.8,67,43.7z"/>
		<path class="st0" d="M56.1,64.7c0.2-0.8,0.3-1.5,0.4-2.2c0.4-2.1,0.9-4.2,1.3-6.3c0.1-0.3,0.2-0.5,0.5-0.4c0.4,0,1-0.1,1.2,0.1
			c0.3,0.2,0.3,0.8,0.3,1.2c0.5,2.4,1,4.9,1.5,7.3c0,0.1,0,0.3,0.1,0.5c-0.5,0-0.9,0-1.3,0c-0.1,0-0.2-0.2-0.3-0.3
			c-0.1-0.5-0.2-1-0.3-1.4c0-0.2-0.1-0.3-0.4-0.3c-1.1,0-1.1,0-1.3,1.1c-0.2,1-0.2,1-1.3,1C56.5,64.7,56.3,64.7,56.1,64.7z
			 M59.4,61.5c-0.2-1.1-0.3-2.1-0.5-3.1h-0.1c-0.2,1-0.3,2.1-0.5,3.1C58.7,61.5,59,61.5,59.4,61.5z"/>
		<path class="st0" d="M41.2,35.5c-0.4,0-0.9,0-1.3,0c-0.1,0-0.2-0.2-0.2-0.3c-0.1-0.5-0.2-0.9-0.3-1.4c0-0.2-0.1-0.3-0.4-0.3
			c-1.2,0-1.2,0-1.4,1.1c-0.2,0.9-0.2,0.9-1.1,0.9c-0.2,0-0.4,0-0.6,0c0.1-0.5,0.2-1,0.3-1.5c0.5-2.3,1-4.7,1.4-7
			c0.1-0.3,0.2-0.5,0.5-0.4c0.3,0,0.7,0,1,0c0.2,0,0.3,0.1,0.4,0.3c0.6,2.8,1.1,5.6,1.7,8.4C41.3,35.3,41.2,35.4,41.2,35.5z
			 M38.7,29.1C38.6,29.1,38.6,29.1,38.7,29.1c-0.1,0.1-0.1,0.2-0.1,0.3c-0.1,0.8-0.2,1.5-0.4,2.3c-0.1,0.7-0.1,0.7,0.7,0.7
			c0.2,0,0.4-0.1,0.3-0.3C39,31.1,38.8,30.1,38.7,29.1z"/>
		<path class="st0" d="M88.4,58.3c-0.1-0.3-0.1-0.6-0.2-0.9c-0.1-0.5-0.4-0.6-0.8-0.6c-0.4,0.1-0.6,0.3-0.6,0.8s0.2,0.9,0.6,1.2
			c0.5,0.5,1.1,0.9,1.6,1.4c0.6,0.6,1,1.4,1,2.3c0,1.1-0.7,1.9-1.7,2.1c-1.2,0.3-2.3-0.2-2.7-1.2c-0.2-0.4-0.2-0.8-0.3-1.1
			c0-0.1,0-0.1,0-0.2c0-0.3,0.6-0.5,1.2-0.5c0.3,0,0.2,0.2,0.3,0.4c0.1,0.3,0.1,0.6,0.3,0.9c0.2,0.4,0.5,0.5,0.9,0.4
			s0.5-0.4,0.5-0.7c0-0.5-0.2-0.9-0.5-1.3c-0.5-0.5-1-0.9-1.5-1.4c-0.7-0.6-1.1-1.3-1.1-2.2c0-1.6,1-2.3,2.5-2.3
			c1.5,0.1,1.9,1,2.1,2.2c0,0.1-0.1,0.3-0.2,0.3C89.2,58.2,88.9,58.3,88.4,58.3z"/>
		<path class="st0" d="M49.1,18c0.1,0.4,0.1,0.7,0.2,1c0.1,0.3,0.3,0.5,0.5,0.7c0.4,0.3,0.9,0,1-0.5c0.1-0.6-0.2-1.1-0.6-1.5
			c-0.5-0.5-1-0.9-1.6-1.4c-0.9-0.7-1.1-1.7-0.9-2.7c0.1-0.7,0.5-1.2,1.2-1.4c0.7-0.3,1.4-0.3,2.1,0c0.7,0.3,1.4,1.4,1.2,2.1
			c0,0.2-0.5,0.3-0.7,0.3s-0.5,0.1-0.6,0s-0.1-0.4-0.1-0.6c-0.1-0.5-0.4-0.7-0.8-0.7c-0.4,0.1-0.7,0.4-0.6,0.9
			c0.1,0.3,0.2,0.7,0.4,0.9c0.4,0.4,0.9,0.8,1.4,1.2c0.7,0.6,1.2,1.3,1.4,2.3c0.1,1.1-0.5,2.1-1.5,2.4c-1.3,0.4-2.5-0.1-2.9-1.2
			C48,19.4,48,19,47.9,18.6c0-0.1,0.1-0.3,0.2-0.3C48.3,18.1,48.7,18.1,49.1,18z"/>
		<path class="st0" d="M114,18c0,0.3,0.1,0.6,0.1,0.8c0.1,0.2,0.2,0.5,0.3,0.7c0.2,0.3,0.5,0.3,0.8,0.2c0.3-0.1,0.4-0.3,0.5-0.6
			c0-0.6-0.2-1.1-0.6-1.5c-0.5-0.5-1.1-0.9-1.6-1.4c-0.9-0.8-1.1-1.7-0.8-2.8c0.1-0.6,0.5-1,1-1.2c0.8-0.4,1.6-0.4,2.4-0.1
			c0.7,0.3,1.2,1.4,1.1,2.1c0,0.1-0.1,0.2-0.2,0.2c-0.4,0.1-0.8,0.2-1.2,0.2c0-0.2-0.1-0.3-0.1-0.4c0-0.2-0.1-0.4-0.1-0.6
			c-0.1-0.3-0.4-0.5-0.7-0.4c-0.4,0-0.6,0.2-0.6,0.6c-0.1,0.4,0.1,0.8,0.4,1.1c0.5,0.4,0.9,0.9,1.4,1.3c0.8,0.7,1.4,1.5,1.4,2.6
			c0,1.4-0.9,2.3-2.3,2.3c-1.5,0-2.3-0.8-2.4-2.5c0-0.1,0.1-0.3,0.2-0.3C113.2,18.1,113.6,18.1,114,18z"/>
		<path class="st0" d="M109.4,47.1c0.1,0.3,0.1,0.6,0.1,0.8s0.1,0.4,0.2,0.5c0.2,0.4,0.5,0.5,0.9,0.4s0.5-0.4,0.5-0.8
			c0-0.6-0.2-1-0.7-1.4c-0.5-0.5-1-0.9-1.6-1.4s-0.9-1.1-0.9-1.9c-0.1-1.6,1-2.6,2.7-2.4c1.3,0.2,1.8,1,1.9,2.2
			c0,0.1-0.1,0.3-0.2,0.3c-0.4,0.1-0.8,0.2-1.2,0.2c-0.1-0.3-0.1-0.6-0.2-0.8c-0.1-0.5-0.4-0.7-0.9-0.6c-0.4,0.1-0.6,0.4-0.6,0.8
			c0.1,0.3,0.2,0.7,0.4,1c0.4,0.5,0.9,0.8,1.3,1.2c0.7,0.7,1.3,1.4,1.4,2.4c0.1,1.6-1.1,2.7-2.7,2.4c-1.5-0.2-1.9-1.4-2-2.5
			c0-0.1,0.1-0.2,0.2-0.3C108.6,47.3,109,47.2,109.4,47.1z"/>
		<path class="st0" d="M46.4,47.2c0.1,0.4,0.2,0.8,0.3,1.2c0.2,0.5,0.6,0.7,1,0.6c0.4-0.1,0.6-0.5,0.5-1c-0.1-0.4-0.4-0.9-0.7-1.2
			c-0.5-0.5-1-0.9-1.5-1.4c-0.8-0.7-1.1-1.6-0.9-2.7c0.1-0.7,0.6-1.2,1.2-1.4c0.6-0.2,1.2-0.2,1.8-0.1c0.9,0.2,1.6,1.3,1.5,2.2
			c0,0.1-0.1,0.2-0.2,0.2c-0.4,0.1-0.8,0.2-1.2,0.2c-0.1-0.3-0.1-0.5-0.1-0.8c-0.1-0.5-0.4-0.7-0.9-0.6c-0.4,0.1-0.7,0.4-0.6,0.9
			c0.1,0.3,0.2,0.7,0.4,0.9c0.4,0.4,0.9,0.8,1.3,1.2c0.7,0.7,1.3,1.4,1.4,2.4c0.1,1.7-1.1,2.7-2.7,2.4c-1.5-0.2-1.9-1.4-2-2.5
			c0-0.1,0.1-0.2,0.2-0.3C45.6,47.3,46,47.2,46.4,47.2z"/>
		<path class="st0" d="M70.3,18c0.1,0.4,0.1,0.8,0.3,1.1c0.1,0.2,0.4,0.5,0.6,0.6c0.4,0.2,0.8-0.2,0.8-0.6c0-0.5-0.1-1-0.5-1.3
			c-0.5-0.5-1.1-1-1.6-1.5c-0.9-0.8-1.2-1.7-1-2.8c0.1-0.6,0.5-1.1,1.1-1.4c0.7-0.3,1.4-0.3,2.1-0.1c0.8,0.3,1.5,1.3,1.4,2.1
			c0,0.1-0.1,0.2-0.2,0.2c-0.4,0.1-0.8,0.2-1.2,0.2C72,14.2,72,14,72,13.7c-0.1-0.5-0.4-0.7-0.9-0.6c-0.4,0.1-0.7,0.4-0.6,0.9
			s0.3,0.8,0.7,1.1c0.5,0.5,1.1,0.9,1.6,1.4c0.7,0.7,1,1.5,0.9,2.5c-0.1,0.8-0.6,1.5-1.4,1.8c-1.7,0.6-3.3-0.6-3.3-2.4
			c0-0.1,0.1-0.3,0.2-0.3C69.4,18.1,69.8,18.1,70.3,18z"/>
		<path class="st0" d="M107.9,12c-0.2,1.1-0.4,2.2-0.7,3.2c-0.4,1.8-0.7,3.5-1.1,5.3c-0.1,0.4-0.2,0.5-0.6,0.5c-1.1,0-1.1,0-1.3-1.1
			c-0.5-2.5-1-5-1.5-7.5c0-0.1,0-0.2-0.1-0.4c0.5,0,0.9,0,1.3,0c0.1,0,0.2,0.2,0.2,0.4c0.3,1.5,0.6,3,0.8,4.4c0.1,0.3,0.1,0.7,0.3,1
			c0-0.2,0.1-0.4,0.1-0.5c0.3-1.6,0.6-3.3,0.9-4.9c0.1-0.3,0.2-0.4,0.5-0.4C107.1,12,107.5,12,107.9,12z"/>
		<path class="st0" d="M93.6,45.6c0-1.3,0-2.7,0-4c0-0.4,0.1-0.5,0.5-0.5c1,0,1.9,0,2.9,0c0.3,0,0.5,0.1,0.5,0.4
			c0,0.9,0,0.7-0.7,0.7c-0.4,0-0.7,0-1.1,0c-0.2,0-0.3,0.1-0.3,0.3c0,0.6,0,1.3,0,1.9c0,0.2,0.1,0.3,0.3,0.3c0.3,0,0.7,0,1,0
			s0.4,0.1,0.4,0.4c0,1,0.1,0.8-0.8,0.9c-0.9,0-0.8-0.1-0.8,0.8c0,0.6,0,1.1,0,1.7c0,0.3,0.1,0.4,0.4,0.4c0.4,0,0.9,0,1.3,0
			c0.3,0,0.4,0.1,0.4,0.4c0,0.9,0.1,0.8-0.8,0.8s-1.7,0-2.6,0c-0.3,0-0.4-0.1-0.4-0.5C93.6,48.3,93.6,47,93.6,45.6z"/>
		<path class="st0" d="M74.7,31c0-1.3,0-2.7,0-4c0-0.4,0.1-0.5,0.5-0.5c1,0,1.9,0,2.9,0c0.3,0,0.4,0.1,0.4,0.4c0,0.9,0,0.8-0.8,0.8
			c-0.3,0-0.7,0-1,0s-0.4,0.1-0.4,0.3c0,0.6,0,1.2,0,1.8c0,0.2,0.1,0.3,0.3,0.3c0.3,0,0.7,0,1,0s0.4,0.1,0.3,0.4
			c0,1,0.1,0.9-0.9,0.9c-0.9,0-0.8-0.1-0.8,0.8c0,0.6,0,1.1,0,1.7c0,0.3,0.1,0.4,0.4,0.4c0.5,0,0.9,0,1.4,0c0.2,0,0.4,0.1,0.4,0.3
			c0,0.8,0,0.8-0.8,0.8c-0.9,0-1.7,0-2.6,0c-0.4,0-0.5-0.1-0.5-0.5C74.7,33.7,74.7,32.4,74.7,31z"/>
		<path class="st0" d="M108.4,31c0-1.3,0-2.7,0-4c0-0.4,0.1-0.5,0.5-0.5c1,0,1.9,0,2.9,0c0.3,0,0.5,0.1,0.5,0.4
			c0,0.9,0.1,0.8-0.8,0.8c-0.3,0-0.7,0-1,0c-0.2,0-0.3,0.1-0.3,0.3c0,0.6,0,1.3,0,1.9c0,0.2,0.1,0.3,0.3,0.3c0.3,0,0.7,0,1,0
			c0.2,0,0.3,0.1,0.3,0.3c0.1,0.9,0.1,0.9-0.8,0.9c-1,0-0.8-0.1-0.8,0.8c0,0.6,0,1.1,0,1.7c0,0.2,0.1,0.3,0.3,0.3c0.5,0,0.9,0,1.4,0
			c0.3,0,0.4,0.1,0.4,0.4c0,0.9,0.1,0.8-0.8,0.8s-1.7,0-2.6,0c-0.4,0-0.5-0.1-0.5-0.5C108.4,33.7,108.4,32.3,108.4,31z"/>
		<path class="st0" d="M81.9,45.6c0-1.3,0-2.7,0-4c0-0.4,0.1-0.5,0.5-0.5c1,0,1.9,0,2.9,0c0.3,0,0.4,0.1,0.4,0.4
			c0,0.9,0.1,0.8-0.8,0.8c-0.3,0-0.5,0-0.8,0c-0.4,0-0.5,0.1-0.5,0.5c0,0.6,0,1.1,0,1.7c0,0.3,0.1,0.4,0.4,0.4s0.6,0,0.9,0
			c0.2,0,0.4,0.1,0.3,0.3c0,1.1,0.1,0.9-0.8,0.9s-0.8-0.1-0.8,0.8c0,0.5,0,1.1,0,1.6c0,0.4,0.1,0.5,0.5,0.5s0.8,0,1.2,0
			c0.3,0,0.5,0.1,0.4,0.4c0,0.8,0.1,0.8-0.8,0.8c-0.8,0-1.7,0-2.5,0c-0.5,0-0.5,0-0.5-0.6C81.9,48.2,81.9,46.9,81.9,45.6z"/>
		<path class="st0" d="M64.7,16.4c0-1.3,0-2.7,0-4c0-0.4,0.1-0.5,0.5-0.5c1,0,2,0,2.9,0c0.3,0,0.4,0.1,0.4,0.4c0,1,0.1,0.8-0.8,0.8
			c-0.3,0-0.6,0-0.9,0s-0.4,0.1-0.4,0.4c0,0.6,0,1.2,0,1.7c0,0.3,0.1,0.4,0.4,0.4s0.7,0,1,0c0.2,0,0.3,0.1,0.3,0.3
			c0,1,0.1,0.8-0.8,0.9c-1,0-0.8-0.1-0.8,0.9c0,0.5,0,1.1,0,1.6c0,0.3,0.1,0.4,0.4,0.4c0.5,0,0.9,0,1.4,0c0.2,0,0.3,0.1,0.3,0.3
			c0,0.8,0,0.8-0.8,0.8c-0.9,0-1.8,0-2.6,0c-0.3,0-0.4-0.1-0.4-0.4C64.7,19.2,64.7,17.8,64.7,16.4z"/>
		<path class="st0" d="M81,60.2c0-1.3,0-2.7,0-4c0-0.4,0.1-0.5,0.5-0.5c0.9,0,1.9,0,2.8,0c0.4,0,0.5,0.1,0.5,0.5c0,0.1,0,0.1,0,0.2
			c0.1,0.4-0.1,0.5-0.5,0.5s-0.8,0-1.3,0c-0.2,0-0.3,0.1-0.3,0.3c0,0.6,0,1.2,0,1.9c0,0.2,0.1,0.3,0.3,0.3c0.3,0,0.7,0,1,0
			s0.4,0.1,0.4,0.4c0,1,0.1,0.8-0.8,0.9c-1,0-0.8-0.1-0.8,0.8c0,0.6,0,1.1,0,1.7c0,0.3,0.1,0.4,0.4,0.4c0.5,0,0.9,0,1.4,0
			c0.2,0,0.3,0.1,0.3,0.3c0,1,0.1,0.8-0.8,0.8s-1.7,0-2.6,0c-0.4,0-0.5-0.1-0.5-0.5C81,62.9,81,61.6,81,60.2z"/>
		<path class="st0" d="M40.8,45.6c0-1.3,0-2.7,0-4c0-0.4,0.1-0.5,0.5-0.5c0.9,0,1.9,0,2.8,0c0.3,0,0.5,0.1,0.5,0.4
			c0,0.9,0.1,0.7-0.7,0.7c-0.4,0-0.7,0-1.1,0c-0.2,0-0.3,0.1-0.3,0.3c0,0.6,0,1.2,0,1.9c0,0.2,0.1,0.3,0.3,0.3c0.4,0,0.7,0,1.1,0
			c0.2,0,0.3,0.1,0.3,0.3c0.1,0.9,0.1,0.9-0.8,0.9c-1,0-0.8-0.1-0.9,0.9c0,0.5,0,1.1,0,1.6c0,0.3,0.1,0.4,0.4,0.4c0.5,0,0.9,0,1.4,0
			c0.3,0,0.4,0.1,0.4,0.4c0,0.8,0,0.8-0.8,0.8c-0.9,0-1.7,0-2.6,0c-0.4,0-0.5-0.1-0.5-0.5C40.8,48.3,40.8,46.9,40.8,45.6z"/>
		<path class="st0" d="M108.5,16.5c0-1.3,0-2.7,0-4c0-0.3,0.1-0.5,0.5-0.5c1,0,1.9,0,2.9,0c0.3,0,0.5,0.1,0.5,0.4
			c0,0.9,0.1,0.8-0.8,0.8c-0.3,0-0.7,0-1,0c-0.2,0-0.4,0.1-0.3,0.3c0,0.6,0,1.3,0,1.9c0,0.2,0.1,0.3,0.3,0.3c0.4,0,0.7,0,1.1,0
			c0.1,0,0.3,0.2,0.3,0.3c0.1,0.8,0.1,0.9-0.8,0.9s-0.9,0-0.9,0.9c0,0.5,0,1.1,0,1.6c0,0.3,0.1,0.5,0.4,0.4c0.4,0,0.9,0,1.3,0
			c0.3,0,0.4,0.1,0.4,0.4c0,0.9,0.1,0.8-0.7,0.8c-0.9,0-1.7,0-2.6,0c-0.4,0-0.5-0.1-0.5-0.5C108.5,19.1,108.5,17.8,108.5,16.5z"/>
		<path class="st0" d="M82.3,16.4c0-1.3,0-2.7,0-4c0-0.3,0.1-0.4,0.4-0.4c1,0,2,0,2.9,0c0.3,0,0.4,0.1,0.4,0.4
			c0,0.9,0.1,0.8-0.8,0.8c-0.3,0-0.7,0-1,0c-0.2,0-0.3,0.1-0.3,0.3c0,0.6,0,1.3,0,1.9c0,0.2,0.1,0.3,0.3,0.3c0.3,0,0.7,0,1,0
			c0.2,0,0.3,0.1,0.4,0.3c0.1,0.9,0.1,0.9-0.8,0.9s-0.9,0-0.9,0.9c0,0.6,0,1.1,0,1.7c0,0.2,0.1,0.3,0.3,0.3c0.5,0,1,0,1.5,0
			c0.2,0,0.3,0.1,0.3,0.3c0,0.8,0.1,0.8-0.8,0.8s-1.7,0-2.6,0c-0.3,0-0.5-0.1-0.5-0.5C82.3,19.1,82.3,17.8,82.3,16.4z"/>
		<path class="st0" d="M43.6,16.4c0-1.3,0-2.7,0-4c0-0.4,0.1-0.5,0.5-0.5c0.9,0,1.9,0,2.8,0c0.3,0,0.4,0.1,0.4,0.4
			c0,0.9,0.1,0.8-0.8,0.8c-0.3,0-0.7,0-1,0s-0.4,0.1-0.3,0.4c0,0.6,0,1.2,0,1.8c0,0.3,0.1,0.4,0.4,0.4c0.3,0,0.7,0,1,0
			c0.1,0,0.3,0.2,0.3,0.3c0.1,0.9,0.1,0.9-0.8,0.9c-0.9,0-0.9,0-0.9,0.9c0,0.5,0,1.1,0,1.6c0,0.4,0.1,0.5,0.5,0.5s0.9,0,1.3,0
			c0.3,0,0.4,0.1,0.4,0.3c0,1,0.1,0.8-0.8,0.8c-0.8,0-1.7,0-2.5,0c-0.4,0-0.5-0.1-0.5-0.5C43.6,19.1,43.6,17.8,43.6,16.4z"/>
		<path class="st0" d="M96.9,17.1c0-1.2,0-2.3,0-3.5c0-0.3-0.1-0.5-0.4-0.4c-0.1,0-0.1,0-0.2,0c-1,0-0.9,0.2-0.9-0.9
			c0-0.3,0.1-0.4,0.4-0.4c1.3,0,2.6,0,3.9,0c0.2,0,0.3,0.1,0.3,0.3c0,1.1,0.1,0.9-0.8,0.9c-0.6,0-0.6,0-0.6,0.6c0,2.2,0,4.4,0,6.6
			c0,0.4-0.1,0.5-0.5,0.5c-1.2,0-1.2,0-1.2-1.2C96.9,18.9,96.9,18,96.9,17.1z"/>
		<path class="st0" d="M62.7,60.8c0-1.1,0-2.3,0-3.4c0-0.3-0.1-0.5-0.4-0.4c-0.1,0-0.3,0-0.4,0c-0.6,0-0.6,0-0.6-0.6s0-0.6,0.6-0.6
			c1.2,0,2.3,0,3.5,0c0.4,0,0.5,0.1,0.5,0.5c0,0.9,0.1,0.8-0.8,0.8c-0.6,0-0.6,0-0.6,0.6c0,2.2,0,4.4,0,6.6c0,0.4-0.1,0.5-0.5,0.5
			c-1.2,0-1.2,0-1.2-1.2C62.7,62.6,62.7,61.7,62.7,60.8z"/>
		<path class="st0" d="M104.7,46.3c0-1.2,0-2.3,0-3.5c0-0.3-0.1-0.4-0.4-0.4c-0.1,0-0.1,0-0.2,0c-1,0-1,0-0.9-1
			c0-0.1,0.2-0.3,0.3-0.3c1.3,0,2.7,0,4,0c0.2,0,0.3,0.1,0.3,0.3c0,1.1,0.1,0.9-0.8,0.9c-0.6,0-0.6,0-0.6,0.6c0,2.2,0,4.3,0,6.5
			c0,0.6,0,0.6-0.6,0.6c-1.1,0-1.1,0-1.1-1.1C104.7,48.1,104.7,47.2,104.7,46.3z"/>
		<path class="st0" d="M99.3,31.6c0-1.1,0-2.3,0-3.4c0-0.3-0.1-0.4-0.4-0.4c-0.1,0-0.2,0-0.4,0c-0.2,0-0.7,0-0.7-0.1
			c-0.1-0.3-0.1-0.6,0-1c0-0.1,0.2-0.2,0.3-0.2c1.3,0,2.7,0,4,0c0.2,0,0.3,0.1,0.3,0.3c0,1.1,0.1,0.9-0.9,0.9c-0.6,0-0.6,0-0.6,0.6
			c0,2.2,0,4.4,0,6.6c0,0.4-0.1,0.6-0.5,0.5c-0.2,0-0.5,0-0.7,0c-0.3,0-0.4-0.1-0.4-0.4C99.3,33.9,99.3,32.8,99.3,31.6z"/>
		<path class="st0" d="M36.4,45.6c0-1.3,0-2.7,0-4c0-0.4,0.1-0.5,0.5-0.5c1.2,0,1.2,0,1.2,1.2c0,2,0,4,0,6.1c0,0.4,0.1,0.5,0.5,0.5
			s0.9,0,1.3,0c0.2,0,0.3,0.1,0.3,0.3c0,0.9,0,0.9-0.8,0.9c-0.9,0-1.7,0-2.6,0c-0.3,0-0.4-0.1-0.4-0.4C36.4,48.3,36.4,47,36.4,45.6z
			"/>
		<path class="st0" d="M42.1,60.2c0-1.3,0-2.7,0-4c0-0.4,0.1-0.5,0.5-0.5c1.2,0,1.2,0,1.2,1.2c0,2,0,4,0,6.1c0,0.5,0,0.5,0.6,0.5
			c0.4,0,0.8,0,1.2,0c0.3,0,0.4,0.1,0.4,0.4c0,0.9,0.1,0.8-0.8,0.8c-0.9,0-1.7,0-2.6,0c-0.4,0-0.5-0.1-0.5-0.5
			C42.1,62.9,42.1,61.5,42.1,60.2z"/>
		<path class="st0" d="M56,31c0-1.3,0-2.7,0-4c0-0.4,0.1-0.5,0.5-0.5c1.2,0,1.2,0,1.2,1.2c0,2.1,0,4.1,0,6.2c0,0.4,0.1,0.5,0.5,0.5
			s0.9,0,1.3,0c0.2,0,0.3,0.1,0.3,0.3c0,0.8,0,0.8-0.8,0.8c-0.9,0-1.7,0-2.6,0c-0.3,0-0.4-0.1-0.4-0.4C56.1,33.7,56,32.4,56,31z"/>
		<path class="st0" d="M46.5,60.2c0-1.3,0-2.6,0-3.9c0-0.5,0-0.5,0.5-0.5c0.3,0,0.5,0,0.8,0c0.2,0,0.3,0.1,0.3,0.3c0,0.5,0,1,0,1.5
			c0,2.2,0,4.4,0,6.6c0,0.5,0,0.5-0.5,0.6c-1.1,0-1.1,0-1.1-1.1C46.5,62.4,46.5,61.3,46.5,60.2z"/>
		<path class="st0" d="M102.1,16.4c0,1.4,0,2.7,0,4.1c0,0.3-0.1,0.4-0.4,0.4c-1.2,0-1.2,0-1.2-1.2c0-2.4,0-4.8,0-7.3
			c0-0.5,0-0.5,0.5-0.5c1.1,0,1.1,0,1.1,1.1C102.1,14.2,102.1,15.3,102.1,16.4z"/>
		<path class="st0" d="M67.9,60.2c0,1.3,0,2.7,0,4c0,0.4-0.1,0.5-0.5,0.5c-1.2,0-1.2,0-1.2-1.2c0-2.4,0-4.9,0-7.3
			c0-0.4,0.1-0.6,0.5-0.5c0.2,0,0.5,0,0.7,0c0.4,0,0.5,0.1,0.5,0.5C67.9,57.5,67.9,58.9,67.9,60.2z"/>
		<path class="st0" d="M39.1,25.8c-0.8,0.2-0.8,0.1-1.2-0.4c-0.3-0.6-0.7-1.1-1.1-1.8c0.5,0,1,0,1.5,0c0.1,0,0.1,0.1,0.2,0.2
			C38.7,24.4,38.8,25.1,39.1,25.8z"/>
	</g>
</g>
</svg>
