<?xml version="1.0" encoding="utf-8"?>
<!-- Generator: Adobe Illustrator 25.0.1, SVG Export Plug-In . SVG Version: 6.00 Build 0)  -->
<svg version="1.1" id="Layer_1" xmlns="http://www.w3.org/2000/svg" xmlns:xlink="http://www.w3.org/1999/xlink" x="0px" y="0px"
	 viewBox="0 0 125 125" style="enable-background:new 0 0 125 125;" xml:space="preserve">
<style type="text/css">
	.st0{fill:#D2D1D3;}
</style>
<g>
	<g>
		<path class="st0" d="M44.8,86.9c0.7-0.5,1.3-1,2-1.5c4.4-3.2,9.1-6,14.3-7.8c2.3-0.8,4.7-1.4,7.2-1.6c3.6-0.3,7,0.3,10.4,1.6
			c3.7,1.4,7,3.5,10.1,6.1c2.5,2.1,4.7,4.4,6.7,7c0.2,0.3,0.2,0.5,0,0.8c-3.9,5-8.4,9.1-14.1,11.9c-2.7,1.4-5.6,2.3-8.6,2.7
			c-3.3,0.4-6.6,0.1-9.8-0.9c-4.7-1.3-8.9-3.5-13-6.1c-1.7-1.1-3.3-2.4-5-3.5c-0.1-0.1-0.2-0.2-0.4-0.3c-0.1,0.2-0.2,0.4-0.3,0.6
			c-2,3.4-4.6,6.3-8.1,8.3c-2,1.2-4.2,1.9-6.5,2.1c-0.2,0-0.5-0.1-0.6-0.2s0-0.4,0.1-0.6c1.7-2.9,3.1-6,3.9-9.3
			c1-3.9,0.7-7.8-0.5-11.6c-0.8-2.6-1.9-5.1-3.3-7.4c-0.1-0.1-0.1-0.2-0.2-0.3c0-0.2-0.1-0.5,0-0.6s0.4-0.2,0.6-0.2
			c1,0.2,2,0.3,2.9,0.6c3.2,0.9,5.8,2.7,8.1,5.1c1.4,1.5,2.7,3.2,3.7,5C44.6,86.7,44.7,86.8,44.8,86.9z M81.8,88.7
			c0-2.3-1.8-4.1-4.1-4.1c-2.2,0-4.1,1.9-4.1,4.1s1.8,4,4.1,4S81.8,90.9,81.8,88.7z"/>
		<path class="st0" d="M29.1,53.8c0-0.4,0-0.8,0-1.1c0-0.7,0.2-0.8,0.8-0.5c1.1,0.5,2.3,1,3.6,1.2c4,0.7,7.4-0.3,10.4-3
			c0.1-0.1,0.2-0.2,0.3-0.3c0.2-0.3,0.5-0.2,0.7,0c1.8,1.4,3.8,2.4,6,2.9c4.1,1,7.6,0.1,10.7-2.7c0.5-0.4,0.6-0.4,1,0
			c1.7,1.5,3.5,2.6,5.7,3c2.4,0.4,4.6,0.1,6.8-0.8c1.5-0.6,2.9-1.4,4.2-2.4c0.3-0.2,0.5-0.1,0.7,0.1c1.2,1.1,2.6,2.1,4.1,2.7
			c3.2,1.2,6.3,0.9,9.4-0.3c0.3-0.1,0.5-0.3,0.8-0.4c0.4-0.2,0.7,0,0.7,0.4c0,0.9,0,1.8,0,2.7c0,0.1-0.1,0.3-0.2,0.4
			c-2,1.7-4.2,2.7-6.9,2.6c-2.3-0.1-4.3-1-6.1-2.4c-0.5-0.4-1-0.8-1.5-1.2c-0.4-0.3-0.5-0.4-0.8,0c-1.3,1.2-2.8,2.2-4.6,2.8
			c-2.9,1-5.7,0.7-8.4-0.4c-1.5-0.6-2.9-1.4-4.1-2.5c-0.3-0.2-0.5-0.3-0.8,0c-2.1,1.7-4.5,2.9-7.2,3.4c-2.8,0.5-5.3-0.1-7.7-1.6
			c-0.8-0.5-1.4-1.1-2.1-1.6c-0.5-0.4-0.6-0.4-1,0c-1.8,1.7-3.9,3-6.4,3.4c-2.5,0.5-4.8-0.2-6.9-1.6C29,55.5,29.1,55.5,29.1,53.8z"
			/>
		<path class="st0" d="M29.1,64c0-0.4,0-0.8,0-1.2c0-0.6,0.2-0.7,0.8-0.5c0.9,0.4,1.8,0.8,2.8,1c4.3,1.1,8.1,0,11.4-2.9
			c0.5-0.4,0.5-0.4,1,0c2.4,1.8,5.1,3,8.2,3.2c3,0.2,5.7-0.8,8-2.8c0.1-0.1,0.2-0.2,0.4-0.3c0.5-0.5,0.6-0.5,1.2,0
			c1.7,1.6,3.7,2.6,6,3c2,0.3,3.9,0,5.7-0.6c1.8-0.6,3.4-1.5,4.9-2.6c0.3-0.2,0.5-0.2,0.8,0c1.6,1.5,3.4,2.6,5.6,3.1
			c2.9,0.7,5.6,0.2,8.3-0.9c1-0.5,1.1-0.4,1.1,0.7c0,0.7,0,1.4,0,2c0,0.2-0.1,0.5-0.3,0.6c-1.8,1.5-3.9,2.5-6.3,2.5
			c-2,0-3.9-0.6-5.6-1.7c-0.9-0.6-1.7-1.2-2.5-1.9c-0.5-0.4-0.5-0.4-0.9,0c-1.1,1-2.3,1.8-3.6,2.4c-2.8,1.3-5.7,1.2-8.6,0.2
			c-1.8-0.6-3.4-1.6-4.9-2.8c-0.3-0.2-0.5-0.3-0.8,0c-1.9,1.5-4,2.6-6.3,3.2c-3.8,0.9-7.1-0.1-10-2.5c-0.2-0.2-0.5-0.4-0.7-0.6
			c-0.4-0.4-0.5-0.4-0.9,0c-1.3,1.2-2.7,2.2-4.3,2.8c-3.5,1.4-6.7,0.9-9.7-1.4c-0.5-0.4-0.7-0.7-0.7-1.4
			C29.1,64.5,29.1,64.2,29.1,64z"/>
		<path class="st0" d="M29.4,19.2c0,2.2,0,4.4,0,6.7c0,0.6,0,0.6,0.6,0.6c0.5,0,0.9,0,1.4,0c0.2,0,0.3,0.1,0.3,0.3
			c0,0.9,0,1.8,0,2.7c0,0.2-0.1,0.3-0.3,0.3c-0.5,0-1,0-1.5,0c-0.4,0-0.5,0.1-0.5,0.5c0,1.5,0,3,0,4.5c0,0.6,0,0.6-0.5,0.6
			c-1,0-2,0-3,0c-0.4,0-0.5-0.1-0.5-0.5c0-1.5,0-3,0-4.5c0-0.4-0.1-0.5-0.5-0.5c-2,0-4,0-6,0c-0.6,0-0.6,0-0.6-0.6c0-0.3,0-0.7,0-1
			c-0.1-1.3,0.2-2.5,0.7-3.7c1.7-4,3.4-8,5.1-12c0.2-0.4,0.4-0.6,0.8-0.5c1.3,0,2.7,0,4,0c0.4,0,0.5,0.1,0.5,0.5
			C29.4,14.7,29.4,17,29.4,19.2z M25.4,16.8C25.3,16.8,25.3,16.8,25.4,16.8c-1.2,3.2-2.4,6.3-3.5,9.6c1.1,0,2.1,0,3,0
			c0.4,0,0.5-0.1,0.5-0.5c0-2.4,0-4.7,0-7.1C25.4,18.2,25.4,17.5,25.4,16.8z"/>
		<path class="st0" d="M8.6,17.9c0-1.1,0-2.1,0-3.2c0-0.1,0.2-0.2,0.3-0.3c1.1-0.6,2.2-1,3.1-1.8c0.7-0.5,1.4-0.7,2.3-0.7
			c0.6,0,1.1,0,1.7,0c0.3,0,0.4,0.1,0.4,0.4c0,0.9,0,1.7,0,2.6c0,6.6,0,13.2,0,19.8c0,0.6,0,0.6-0.6,0.6c-1.1,0-2.2,0-3.3,0
			c-0.5,0-0.5,0-0.5-0.5c0-5.8,0-11.7,0-17.5c0-0.2,0-0.4,0-0.6C10.8,17.1,9.7,17.5,8.6,17.9z"/>
		<path class="st0" d="M49.7,35.4c0.1,0.2,0.2,0.3,0.4,0.4c0.5,0.5,0.5,0.8,0.1,1.5c-0.5-0.3-1-0.7-1.3-1.2
			c-0.2-0.3-0.5-0.4-0.9-0.5c-1.4-0.1-2.1-0.8-2.2-2.2c-0.1-1.6-0.1-3.1,0-4.7c0.1-1.8,1.1-2.4,2.9-2.3c1.3,0.1,2,0.7,2.1,2.1
			c0.1,1.6,0.1,3.1,0,4.7C50.9,34.1,50.5,34.9,49.7,35.4z M49.2,31L49.2,31c0-0.8,0-1.6,0-2.4c0-0.7-0.5-1.1-1.2-0.9
			c-0.5,0.2-0.6,0.6-0.6,1.1c0,1.5,0,3,0,4.4c0,0.1,0,0.3,0.1,0.4c0.1,0.6,0.5,0.8,1.1,0.7c0.4-0.1,0.6-0.4,0.7-1
			C49.3,32.6,49.2,31.8,49.2,31z"/>
		<path class="st0" d="M73.6,35.4c0.1,0.2,0.2,0.3,0.3,0.4c0.6,0.6,0.6,0.7,0.2,1.6c-0.3-0.2-0.6-0.4-0.8-0.7
			c-0.5-0.7-1.1-1.1-2-1.2c-0.7,0-1.1-0.5-1.4-1.2c-0.1-0.4-0.3-0.8-0.3-1.3c0-1.4-0.1-2.9,0-4.3c0.1-1.8,1.2-2.4,2.8-2.3
			c1.4,0.1,2.1,0.7,2.2,2.1c0.1,1.6,0.1,3.1,0,4.7C74.7,34.1,74.4,34.9,73.6,35.4z M73.1,31.1L73.1,31.1c0-0.4,0-0.7,0-1.1
			c0-0.5,0-0.9,0-1.4c0-0.6-0.3-0.9-0.9-0.9c-0.5,0-0.8,0.3-0.9,0.8c0,0.1,0,0.2,0,0.3c0,1.5,0,3,0,4.4c0,0.2,0,0.5,0.1,0.6
			c0.1,0.2,0.3,0.4,0.5,0.5c0.6,0.2,1.1-0.2,1.1-0.9C73.1,32.7,73.1,31.9,73.1,31.1z"/>
		<path class="st0" d="M55.1,30.1c0-1,0-2.1,0-3.1c0-0.3,0.1-0.5,0.5-0.5c1.2,0,1.2,0,1.2,1.1c0,1.8,0,3.6,0,5.3
			c0,0.2,0,0.4-0.1,0.6c-0.1,0.8-0.4,1.5-1.3,1.8c-1,0.3-2,0.3-2.9-0.3c-0.5-0.4-0.7-1-0.7-1.6c-0.1-0.5-0.1-0.9-0.1-1.4
			c0-1.7,0-3.4,0-5c0-0.4,0.1-0.5,0.5-0.5c1.2,0,1.2,0,1.2,1.1c0,1.7,0,3.4,0,5.1c0,0.3,0,0.6,0.1,0.9c0.1,0.4,0.4,0.7,0.8,0.7
			c0.4,0,0.7-0.2,0.8-0.6c0.1-0.3,0.1-0.5,0.1-0.8C55.1,32,55.1,31.1,55.1,30.1z"/>
		<path class="st0" d="M79,30.1c0-1,0-2,0-3c0-0.3,0.1-0.5,0.5-0.5c1.2,0,1.2,0,1.2,1.1c0,1.8,0,3.5,0,5.3c0,0.2,0,0.4-0.1,0.6
			c-0.3,1.9-2.6,2.8-4.1,1.6c-0.5-0.4-0.7-1-0.8-1.6c-0.1-0.4-0.1-0.8-0.1-1.3c0-1.7,0-3.5,0-5.2c0-0.4,0.1-0.5,0.5-0.5
			c1.1,0,1.1,0,1.1,1.1c0,1.7,0,3.5,0,5.2c0,0.3,0,0.6,0.1,0.8c0.1,0.5,0.4,0.7,0.8,0.7s0.7-0.2,0.8-0.7c0.1-0.3,0.1-0.5,0.1-0.8
			C79,31.9,79,31,79,30.1z"/>
		<path class="st0" d="M57.2,35.5c0.2-1,0.4-2,0.6-2.9c0.4-1.8,0.8-3.7,1.1-5.5c0.1-0.4,0.2-0.5,0.6-0.5c0.2,0,0.3,0,0.5,0
			c0.9,0,0.7,0,0.9,0.7c0.5,2.5,1,5,1.5,7.5c0,0.2,0.1,0.4,0.1,0.7c-0.5,0-0.9,0-1.4,0c-0.1,0-0.2-0.2-0.2-0.3
			c-0.1-0.4-0.2-0.9-0.2-1.4c0-0.3-0.1-0.4-0.4-0.4c-1.2,0-1.2,0-1.4,1.1s0,0.9-1.1,0.9C57.6,35.5,57.4,35.5,57.2,35.5z M59.9,29
			L59.9,29c-0.2,1-0.4,2-0.6,3c0,0.1,0.1,0.3,0.2,0.3c0.3,0,0.6,0,0.9,0C60.3,31.2,60.1,30.1,59.9,29z"/>
		<path class="st0" d="M45.4,35.5c-0.5,0-0.9,0-1.4,0c-0.1,0-0.2-0.2-0.2-0.3c-0.1-0.4-0.2-0.9-0.2-1.3c0-0.3-0.1-0.4-0.4-0.4
			c-1.2,0-1.1,0-1.4,1.1c-0.2,1.1,0,0.9-1.1,1c-0.6,0-0.6,0-0.5-0.6c0.5-2.6,1.1-5.2,1.6-7.9c0.1-0.4,0.2-0.5,0.6-0.5
			c1.2,0,1.2,0,1.4,1.2c0.5,2.4,1,4.8,1.5,7.2C45.3,35.1,45.4,35.3,45.4,35.5z M42.8,29C42.8,29,42.7,29,42.8,29
			c-0.3,1.1-0.4,2.2-0.6,3.3c0.3,0,0.6,0,0.8,0c0.3,0,0.3-0.1,0.3-0.3C43.1,31,43,30,42.8,29z"/>
		<path class="st0" d="M42.8,17.9c0.3-1.5,0.5-3.1,0.8-4.6c0.1-0.3,0.1-0.6,0.2-1c0-0.2,0.1-0.3,0.4-0.3c0.4,0,0.7,0,1.2,0
			c0,0.2-0.1,0.4-0.1,0.6c-0.5,2.6-1.1,5.3-1.6,7.9c-0.1,0.3-0.2,0.5-0.6,0.5c-1.1,0-1.1,0-1.4-1.1c-0.5-2.4-1-4.9-1.5-7.3
			c0-0.1,0-0.3-0.1-0.5c0.4,0,0.9,0,1.3,0c0.1,0,0.2,0.2,0.2,0.4c0.3,1.7,0.7,3.5,1,5.2C42.7,17.7,42.7,17.8,42.8,17.9
			C42.7,17.9,42.8,17.9,42.8,17.9z"/>
		<path class="st0" d="M81.5,31c0-1.3,0-2.7,0-4c0-0.4,0.1-0.5,0.5-0.5c0.9,0,1.9,0,2.8,0c0.4,0,0.5,0.1,0.5,0.5c0,0.1,0,0.2,0,0.3
			c0,0.3-0.1,0.4-0.4,0.4c-0.4,0-0.9,0-1.3,0c-0.3,0-0.4,0.1-0.4,0.4c0,0.6,0,1.2,0,1.8c0,0.2,0.1,0.3,0.3,0.3c0.3,0,0.7,0,1,0
			c0.1,0,0.3,0.2,0.3,0.3c0,1.1,0.1,0.9-0.8,0.9s-0.8-0.1-0.8,0.8c0,0.5,0,0.9,0,1.4c0,0.6,0,0.6,0.6,0.6c0.4,0,0.8,0,1.1,0
			c0.3,0,0.4,0.1,0.4,0.4c0,0.8,0,0.8-0.7,0.8c-0.8,0-1.6,0-2.4,0c-0.6,0-0.6,0-0.6-0.6C81.5,33.6,81.5,32.3,81.5,31z"/>
		<path class="st0" d="M48.6,16.4c0-1.3,0-2.7,0-4c0-0.3,0.1-0.5,0.4-0.5c1,0,1.9,0,2.9,0c0.3,0,0.4,0.1,0.4,0.5
			c0,0.8,0,0.8-0.7,0.8c-0.3,0-0.7,0-1,0c-0.2,0-0.3,0.1-0.3,0.3c0,0.6,0,1.3,0,1.9c0,0.2,0.1,0.3,0.3,0.3c0.3,0,0.7,0,1,0
			c0.2,0,0.3,0.1,0.3,0.3c0,0.8,0.1,0.8-0.8,0.8c-1,0-0.9-0.1-0.9,0.9c0,0.5,0,1.1,0,1.6c0,0.3,0.1,0.4,0.4,0.4c0.4,0,0.9,0,1.3,0
			c0.3,0,0.4,0.1,0.4,0.4c0,0.8,0,0.8-0.8,0.8c-0.9,0-1.8,0-2.6,0c-0.3,0-0.4-0.1-0.4-0.4C48.6,19.2,48.6,17.8,48.6,16.4z"/>
		<path class="st0" d="M63.6,31.6c0-1.1,0-2.2,0-3.3c0-0.4-0.1-0.5-0.5-0.5c-0.1,0-0.2,0-0.2,0c-0.8,0-1-0.3-0.7-1
			c0-0.1,0.2-0.2,0.3-0.2c1.3,0,2.7,0,4,0c0.2,0,0.3,0.1,0.3,0.3c0,1.1,0.1,0.9-0.9,0.9c-0.6,0-0.6,0-0.6,0.6c0,2.2,0,4.4,0,6.6
			c0,0.4-0.1,0.6-0.5,0.5c-1.1,0-1.1,0-1.1-1.1C63.6,33.5,63.6,32.5,63.6,31.6z"/>
		<path class="st0" d="M47.6,16.5c0,1.3,0,2.7,0,4c0,0.4-0.1,0.5-0.5,0.5c-0.3,0-0.5,0-0.8,0c-0.2,0-0.3-0.1-0.3-0.3
			c0-0.4,0-0.8,0-1.2c0-2.3,0-4.6,0-6.9c0-0.4,0.1-0.5,0.5-0.5c1.1,0,1.1,0,1.1,1.1C47.6,14.2,47.6,15.3,47.6,16.5z"/>
		<path class="st0" d="M67.1,31c0-1.3,0-2.7,0-4c0-0.3,0.1-0.5,0.4-0.4c0.2,0,0.5,0,0.7,0c0.4,0,0.5,0.1,0.5,0.5c0,1.9,0,3.9,0,5.8
			c0,0.8,0,1.5,0,2.3c0,0.3-0.1,0.4-0.4,0.4c-1.2,0-1.2,0-1.2-1.2S67.1,32.1,67.1,31z"/>
	</g>
</g>
</svg>
