<?xml version="1.0" encoding="utf-8"?>
<!-- Generator: Adobe Illustrator 25.0.1, SVG Export Plug-In . SVG Version: 6.00 Build 0)  -->
<svg version="1.1" id="Layer_1" xmlns="http://www.w3.org/2000/svg" xmlns:xlink="http://www.w3.org/1999/xlink" x="0px" y="0px"
	 viewBox="0 0 125 125" style="enable-background:new 0 0 125 125;" xml:space="preserve">
<style type="text/css">
	.st0{fill:#D2D1D3;}
</style>
<g>
	<g>
		<path class="st0" d="M37,70.2c-0.6-0.6-1.2-1-1.7-1.6c-1.6-2.1-2-4.4-0.9-6.8c1.1-2.4,3.1-3.7,5.8-3.8c0.4,0,0.5-0.1,0.6-0.5
			c0.6-4.1,3.7-7,7.7-7.5c4.6-0.6,9,2.8,9.6,7.5c0.2,1.6,0,3.2-0.6,4.7c0,0.1-0.1,0.2-0.1,0.4c0.1,0.1,0.3,0.1,0.4,0.1
			c4,1.3,6.4,4,7.1,8.2c0.8,5.2-3.1,10.3-8.3,11C56.2,82,55.7,82,55.3,82c-4,0-8.1,0-12.1,0c-1.5,0-2.9-0.1-4.3-0.8
			c-3.9-2-4.9-7.2-2.1-10.6C36.9,70.4,37,70.3,37,70.2z"/>
		<path class="st0" d="M62,101.8c-9.8,0-19.6,0-29.3,0c-0.8,0-0.8,0-0.8-0.8c0-0.9,0-1.9,0-2.8c0-0.5,0.1-0.6,0.6-0.6
			c0.1,0,0.2,0,0.3,0c19.5,0,39,0,58.5,0c0.2,0,0.3,0,0.5,0c0.3,0,0.4,0.1,0.4,0.4c0,1.1,0,2.3,0,3.4c0,0.3-0.2,0.4-0.5,0.4
			c-0.1,0-0.3,0-0.4,0C81.5,101.8,71.7,101.8,62,101.8z"/>
		<path class="st0" d="M62,109.1c-9.8,0-19.6,0-29.4,0c-0.7,0-0.7,0-0.7-0.8c0-1,0-2,0-3c0-0.4,0.1-0.5,0.5-0.5c0.1,0,0.2,0,0.4,0
			c19.5,0,39.1,0,58.6,0c0.1,0,0.3,0,0.4,0c0.3,0,0.5,0.1,0.5,0.4c0,1.1,0,2.3,0,3.4c0,0.3-0.1,0.4-0.4,0.4c-0.1,0-0.3,0-0.4,0
			C81.5,109.1,71.7,109.1,62,109.1z"/>
		<path class="st0" d="M23.2,20.8c1.2-0.8,2.4-1,3.7-1c1.6,0.1,2.8,0.8,3.5,2.2c0.6,1.2,0.9,2.4,1,3.7c0.1,1.8,0.1,3.7-0.3,5.5
			c-0.6,2.7-2.2,4.2-4.9,4.4c-1,0.1-2,0-3-0.2c-2-0.2-3.2-1.4-3.7-3.4c-0.2-1-0.3-2.1-0.4-3.1c0-0.2,0.1-0.3,0.3-0.3
			c1.2,0,2.5,0,3.7,0c0.3,0,0.3,0.2,0.3,0.4c0.1,0.7,0.1,1.5,0.3,2.2c0.2,0.8,0.7,1.2,1.4,1.3c0.9,0,1.4-0.3,1.7-1.1
			c0.1-0.5,0.2-1,0.3-1.4c0.1-1.6,0.2-3.2-0.1-4.8c0-0.2-0.1-0.4-0.1-0.6c-0.2-0.7-0.6-1.1-1.3-1.2c-0.7-0.1-1.4,0.1-1.8,0.7
			c-0.2,0.3-0.3,0.7-0.5,1c-0.1,0.2-0.2,0.3-0.4,0.3c-1.1,0-2.1,0-3.2,0c-0.5,0-0.4-0.3-0.4-0.6c0-1.7,0.1-3.5,0.1-5.2
			c0.1-2.4,0.1-4.7,0.2-7.1c0-0.3,0.1-0.5,0.4-0.5c3.3,0,6.6,0,9.9,0c0.3,0,0.5,0.1,0.5,0.4c0,1,0,2,0,3c0,0.3-0.1,0.4-0.4,0.4
			c-2,0-4.1,0-6.1,0c-0.6,0-0.6,0-0.6,0.6c-0.1,1.3-0.1,2.6-0.2,3.9C23.2,20.5,23.2,20.6,23.2,20.8z"/>
		<path class="st0" d="M12.1,16.7c-1.1,0.4-2.2,0.8-3.3,1.2c0-0.2-0.1-0.3-0.1-0.4c0-0.9,0-1.7,0-2.6c0-0.3,0.1-0.4,0.3-0.5
			c1.4-0.6,2.8-1.3,3.9-2.3C13,12,13.1,12,13.3,12c0.9,0,1.9,0,2.8,0c0.3,0,0.4,0.1,0.4,0.4c0,0.3,0,0.7,0,1c0,7.1,0,14.3,0,21.4
			c0,0.6,0,0.6-0.6,0.6c-1,0-2.1,0-3.1,0c-0.9,0-0.8,0-0.8-0.7c0-5.8,0-11.6,0-17.3C12.1,17.1,12.1,16.9,12.1,16.7z"/>
		<path class="st0" d="M73.7,74.9c-0.9,0-1.8,0.1-2.6,0.6c-0.2,0.2-0.5,0.2-0.7-0.1c-0.2-0.3-0.1-0.9,0.1-1.1
			c0.8-0.8,1.7-1.3,2.8-1.7c2.1-0.6,4-0.2,5.8,0.8c0.4,0.2,0.7,0.4,1,0.7c0.2,0.2,0.4,0.2,0.6,0c1.1-0.8,2.3-1.4,3.7-1.6
			c2.3-0.4,4.3,0.3,6,1.9c0.3,0.3,0.3,0.8,0.1,1c-0.2,0.3-0.5,0.2-1,0C89,75.2,88.3,75,87.7,75c-2.4-0.2-4.5,0.7-6.3,2.3
			c-0.1,0.1-0.2,0.2-0.3,0.3c-0.4,0.4-0.7,0.4-1.2,0c-1.1-1-2.2-1.7-3.6-2.1c-0.8-0.2-1.7-0.3-2.5-0.5
			C73.7,74.9,73.7,74.9,73.7,74.9z"/>
		<path class="st0" d="M48.1,89c0-1.4,0-2.8,0-4.2c0-0.5,0.1-0.6,0.6-0.6c1,0,2,0,3.1,0c0.5,0,0.6,0.1,0.6,0.6c0,2.8,0,5.6,0,8.4
			c0,0.5-0.1,0.6-0.5,0.6c-1,0-2.1,0-3.1,0c-0.5,0-0.5-0.1-0.6-0.6C48.1,91.8,48.1,90.4,48.1,89z"/>
		<path class="st0" d="M64,59.8c0.2-0.3,0.3-0.5,0.4-0.7c2-2,4.7-2.3,7.3-0.9c0.6,0.3,0.9,0.3,1.4-0.1c1.8-1.3,3.8-1.8,6-0.8
			c0.6,0.2,1.1,0.6,1.6,1c0.3,0.2,0.4,0.7,0.2,1c-0.3,0.3-0.6,0.2-0.9,0.1c-1-0.5-2-0.4-3-0.1c-1.4,0.3-2.6,1-3.6,2
			c-0.6,0.6-0.8,0.6-1.5,0.1c-1.7-1.3-3.7-1.9-5.9-1.5c-0.3,0.1-0.6,0.3-0.9,0.4c-0.2,0.1-0.5,0.2-0.7,0.1
			C64.2,60.3,64.2,60,64,59.8z"/>
		<path class="st0" d="M79.9,35.5c-0.5,0-1,0-1.4,0c-0.1,0-0.3-0.2-0.3-0.4c-0.3-1.1-0.6-2.2-0.9-3.3c0-0.1-0.2-0.3-0.3-0.3
			c-0.3-0.1-0.5,0-0.5,0.4c0,1.1,0,2.1,0,3.2c0,0.4-0.1,0.5-0.5,0.5c-0.3,0-0.6,0-0.9,0s-0.4-0.1-0.4-0.4c0-2.7,0-5.5,0-8.2
			c0-0.3,0.1-0.4,0.4-0.4c0.8,0,1.7,0,2.5,0.1c1.3,0.1,1.9,0.7,2,2c0.1,0.9,0,1.9-0.9,2.5c-0.1,0.1-0.1,0.3-0.1,0.4
			c0.3,1.2,0.6,2.3,1,3.5C79.8,35.1,79.8,35.3,79.9,35.5z M78.1,29c0-0.1,0-0.1,0-0.2c0-0.9-0.5-1.3-1.4-1.1c-0.1,0-0.3,0.2-0.3,0.3
			c0,0.7,0,1.4,0,2c0,0.1,0.2,0.3,0.3,0.3C77.7,30.5,78.1,30,78.1,29z"/>
		<path class="st0" d="M60.3,35.5c-0.5,0-1,0-1.4,0c-0.1,0-0.3-0.2-0.3-0.4c-0.3-1.1-0.6-2.2-0.9-3.3c-0.1-0.2-0.1-0.4-0.4-0.4
			c-0.3,0-0.4,0.1-0.4,0.4c0,1.1,0,2.2,0,3.3c0,0.3-0.1,0.5-0.4,0.5c-0.3,0-0.6,0-0.9,0c-0.3,0-0.4-0.1-0.4-0.4c0-2.7,0-5.5,0-8.2
			c0-0.3,0.1-0.4,0.4-0.4c0.8,0,1.7,0,2.5,0.1c1.3,0.1,2,0.9,2,2.2c0,0.4,0,0.9-0.2,1.3c-0.1,0.3-0.3,0.6-0.6,0.8
			c-0.3,0.2-0.3,0.4-0.2,0.7c0.3,1.1,0.6,2.3,1,3.4C60.2,35.1,60.2,35.3,60.3,35.5z M57.4,27.7c-0.5,0-0.5,0-0.5,0.5
			c0,0.6,0,1.2,0,1.8c0,0.2,0.1,0.3,0.3,0.3c1,0.1,1.5-0.5,1.4-1.6C58.5,28,58.2,27.7,57.4,27.7z"/>
		<path class="st0" d="M54.5,35.5c-0.5,0-1,0-1.5,0c-0.1,0-0.2-0.2-0.3-0.3c-0.3-1.1-0.6-2.2-0.9-3.3c-0.1-0.2-0.1-0.4-0.4-0.4
			c-0.3,0-0.4,0.1-0.4,0.4c0,1.1,0,2.2,0,3.3c0,0.3-0.1,0.4-0.4,0.4c-0.2,0-0.5,0-0.7,0c-0.5,0-0.5,0-0.5-0.5c0-1.8,0-3.6,0-5.4
			c0-0.9,0-1.7,0-2.6c0-0.3,0.1-0.4,0.4-0.4c0.7,0,1.5,0,2.2,0c1.9,0.1,2.5,1.2,2.3,3c-0.1,0.6-0.3,1.1-0.8,1.5
			c-0.1,0.1-0.1,0.3-0.1,0.4c0.3,1.2,0.7,2.4,1,3.5C54.4,35.1,54.5,35.3,54.5,35.5z M51.1,29c0,0.3,0,0.7,0,1c0,0.1,0.1,0.3,0.2,0.3
			c0.8,0.1,1.4-0.1,1.5-1c0-0.3,0-0.5,0-0.8c-0.1-0.7-0.8-1.1-1.5-0.8c-0.1,0-0.2,0.2-0.2,0.3C51.1,28.4,51.1,28.7,51.1,29z"/>
		<path class="st0" d="M79,49.9c1.5,0,2.7,0.7,3.7,1.8c0.3,0.3,0.5,0.4,0.9,0.3c2.3-0.7,4.4,0.1,5.6,2c0.1,0.2,0.2,0.4,0.1,0.6
			c-0.1,0.5-0.6,0.6-0.9,0.3c-1.2-1.1-2.7-1.2-4.2-0.9c-0.4,0.1-0.8,0.3-1.2,0.4c-0.6,0.3-0.8,0.2-1.2-0.3c-0.8-1.3-1.8-2.2-3.3-2.5
			c-0.4-0.1-0.9-0.1-1.3-0.1c-0.3,0-0.6,0-0.8-0.3c-0.1-0.3,0-0.7,0.3-0.9C77.3,50.2,78.2,49.9,79,49.9z"/>
		<path class="st0" d="M66.6,32.6c0,0.2,0,0.4,0.1,0.5c0.1,0.3,0.2,0.6,0.3,0.9c0.2,0.3,0.5,0.4,0.9,0.3c0.3-0.1,0.4-0.3,0.5-0.7
			c0-0.6-0.2-1.1-0.6-1.5c-0.5-0.5-1.1-1-1.6-1.5c-0.8-0.7-1-1.6-0.9-2.5c0.2-1.2,1.2-1.9,2.6-1.7c1.1,0.1,1.8,0.7,1.9,2.2
			c0,0.1-0.1,0.3-0.2,0.3C69.3,29,69,29,68.7,29.1c-0.2,0-0.3-0.1-0.3-0.3c0-0.2,0-0.4-0.1-0.6c-0.1-0.4-0.4-0.6-0.8-0.5
			s-0.6,0.3-0.6,0.7c0,0.6,0.3,0.9,0.6,1.3c0.5,0.5,1.1,1,1.6,1.5c0.8,0.8,1.1,1.7,0.8,2.8c-0.2,0.7-0.6,1.2-1.2,1.4
			c-1.7,0.7-3.4-0.4-3.4-2.2c0-0.2,0.1-0.4,0.3-0.4C65.8,32.7,66.2,32.7,66.6,32.6z"/>
		<path class="st0" d="M40.4,12c0.5,0,0.9,0,1.2,0c0.1,0,0.3,0.2,0.3,0.4c0.3,1.6,0.6,3.2,0.9,4.9c0,0.2,0.1,0.4,0.2,0.5
			c0.1-0.8,0.3-1.6,0.4-2.4c0.2-1,0.4-2.1,0.5-3.1c0-0.3,0.2-0.4,0.5-0.4s0.7,0,1.1,0c0,0.2,0,0.3-0.1,0.5c-0.5,2.7-1.1,5.4-1.6,8
			c-0.1,0.3-0.2,0.4-0.5,0.4c-1.2,0-1.2,0-1.4-1.1c-0.5-2.4-1-4.8-1.5-7.2C40.4,12.4,40.4,12.2,40.4,12z"/>
		<path class="st0" d="M80.6,31c0-1.3,0-2.7,0-4c0-0.4,0.1-0.5,0.5-0.5c0.9,0,1.9,0,2.8,0c0.4,0,0.5,0.1,0.5,0.5
			c0,0.7,0,0.7-0.7,0.7c-0.3,0-0.7,0-1,0s-0.4,0.1-0.4,0.3c0,0.6,0,1.2,0,1.8c0,0.3,0.1,0.4,0.4,0.3c0.3,0,0.7,0,1,0
			c0.2,0,0.3,0.1,0.3,0.3c0,1.1,0.1,0.9-0.8,0.9s-0.8-0.1-0.8,0.8c0,0.5,0,1,0,1.5c0,0.4,0.1,0.5,0.5,0.5s0.9,0,1.3,0
			c0.3,0,0.4,0.1,0.4,0.4c0,0.8,0,0.8-0.8,0.8s-1.7,0-2.5,0c-0.4,0-0.5-0.1-0.5-0.5C80.6,33.7,80.6,32.3,80.6,31z"/>
		<path class="st0" d="M45.1,31c0-1.3,0-2.7,0-4c0-0.4,0.1-0.5,0.5-0.5c1,0,1.9,0,2.9,0c0.3,0,0.4,0.1,0.4,0.4
			c0,0.9,0.1,0.8-0.8,0.8c-0.3,0-0.7,0-1,0s-0.4,0.1-0.4,0.4c0,0.6,0,1.2,0,1.8c0,0.2,0.1,0.3,0.3,0.3c0.4,0,0.7,0,1.1,0
			c0.1,0,0.3,0.2,0.3,0.3c0,1.1,0.1,0.9-0.8,0.9c-1,0-0.9-0.1-0.9,0.9c0,0.5,0,1.1,0,1.6c0,0.3,0.1,0.4,0.4,0.4c0.5,0,0.9,0,1.4,0
			c0.3,0,0.4,0.1,0.4,0.4v0.1c0,0.6,0,0.6-0.6,0.6c-0.9,0-1.8,0-2.8,0c-0.3,0-0.4-0.1-0.4-0.4C45.1,33.7,45.1,32.4,45.1,31z"/>
		<path class="st0" d="M61,31c0-1.3,0-2.7,0-4c0-0.4,0.1-0.5,0.5-0.5c0.9,0,1.9,0,2.8,0c0.3,0,0.4,0.1,0.4,0.4
			c0,0.9,0.1,0.8-0.7,0.8c-0.4,0-0.7,0-1.1,0c-0.2,0-0.3,0.1-0.3,0.3c0,0.6,0,1.3,0,1.9c0,0.2,0.1,0.3,0.3,0.3c0.4,0,0.7,0,1.1,0
			c0.1,0,0.2,0.2,0.3,0.3l0,0c0.1,0.9,0.1,0.9-0.8,0.9c-1,0-0.9-0.1-0.9,0.9c0,0.5,0,1.1,0,1.6c0,0.3,0.1,0.4,0.4,0.4
			c0.4,0,0.9,0,1.3,0c0.3,0,0.4,0.1,0.4,0.4c0,0.8,0,0.8-0.7,0.8c-0.9,0-1.7,0-2.6,0c-0.3,0-0.4-0.1-0.4-0.4C61,33.7,61,32.4,61,31z
			"/>
		<path class="st0" d="M48.8,16.4c0-1.3,0-2.7,0-4c0-0.4,0.1-0.5,0.5-0.5c1,0,1.9,0,2.9,0c0.3,0,0.4,0.1,0.4,0.4
			c0,0.9,0.1,0.8-0.8,0.8c-0.3,0-0.7,0-1,0s-0.4,0.1-0.4,0.3c0,0.6,0,1.2,0,1.8c0,0.3,0.1,0.4,0.4,0.4c0.3,0,0.7,0,1,0
			c0.2,0,0.3,0.1,0.3,0.3c0.1,0.8,0.1,0.8-0.8,0.8c-1.1,0-0.9-0.1-0.9,0.9c0,0.5,0,1.1,0,1.6c0,0.3,0.1,0.4,0.4,0.4
			c0.5,0,0.9,0,1.4,0c0.3,0,0.5,0.1,0.4,0.4c0,0.1,0,0.2,0,0.3c0,0.3-0.1,0.4-0.4,0.4c-1,0-2,0-3,0c-0.3,0-0.4-0.1-0.4-0.4
			C48.8,19.2,48.8,17.8,48.8,16.4z"/>
		<path class="st0" d="M71.4,31.7c0-1.1,0-2.3,0-3.4c0-0.3-0.1-0.4-0.4-0.4s-0.5,0-0.8,0c-0.1,0-0.3-0.2-0.3-0.3
			c-0.1-0.9-0.1-1,0.8-1c1.1,0,2.2,0,3.3,0c0.3,0,0.4,0.1,0.4,0.4c0,0.9,0.1,0.8-0.8,0.8c-0.6,0-0.6,0-0.6,0.6c0,2.2,0,4.4,0,6.5
			c0,0.4-0.1,0.5-0.5,0.5c-1.1,0-1.1,0-1.1-1.1C71.4,33.5,71.4,32.6,71.4,31.7z"/>
		<path class="st0" d="M41.6,31.7c0-1.1,0-2.2,0-3.3c0-0.4-0.1-0.6-0.5-0.5c-0.1,0-0.2,0-0.4,0c-0.6,0-0.6,0-0.6-0.6s0-0.6,0.6-0.6
			c1.2,0,2.3,0,3.5,0c0.4,0,0.5,0.1,0.5,0.5c0,0.8,0.1,0.8-0.8,0.8c-0.1,0-0.2,0-0.2,0c-0.3,0-0.4,0.1-0.4,0.4c0,1.8,0,3.7,0,5.5
			c0,0.5,0,0.9,0,1.4c0,0.3-0.1,0.4-0.4,0.4c-0.3,0-0.6,0-0.9,0c-0.3,0-0.4-0.1-0.4-0.4C41.7,33.9,41.6,32.8,41.6,31.7z"/>
		<path class="st0" d="M46.2,16.4c0-1.3,0-2.7,0-4c0-0.4,0.1-0.5,0.5-0.5c1.2,0,1.2,0,1.2,1.2c0,2.4,0,4.8,0,7.3
			c0,0.4-0.1,0.6-0.5,0.5c-0.2,0-0.5,0-0.7,0c-0.3,0-0.4-0.1-0.4-0.4C46.2,19.2,46.2,17.8,46.2,16.4z"/>
	</g>
</g>
</svg>
