<?xml version="1.0" encoding="utf-8"?>
<!-- Generator: Adobe Illustrator 24.3.0, SVG Export Plug-In . SVG Version: 6.00 Build 0)  -->
<svg version="1.1" id="Layer_1" xmlns="http://www.w3.org/2000/svg" xmlns:xlink="http://www.w3.org/1999/xlink" x="0px" y="0px"
	 viewBox="0 0 125 125" style="enable-background:new 0 0 125 125;" xml:space="preserve">
<style type="text/css">
	.st0{fill:#00689D;}
</style>
<g>
	<g>
		<path class="st0" d="M38.8,87.2c0.8,0.1,1.6,0.2,2.3,0.2c2.2,0.1,4.4-0.2,6.3-1.6c1-0.7,2-1.3,3-2c0.8-0.5,1.7-0.8,2.6-1
			c0.1,0,0.1,0,0.2,0c0,0,0,0,0.1-0.1c-1.3-0.2-2.6-0.5-3.8-1.2c-2.4-1.3-3.9-3.4-4.9-5.8c-0.7-1.8-1-3.6-1.5-5.5
			c-0.4-1.7-0.8-3.4-1.6-5c-0.6-1.3-1.4-2.3-2.7-2.9c-0.1,0-0.1-0.1-0.3-0.2c0.7,0,1.3-0.1,1.9-0.1c4.9-0.2,9.1,1.6,12.8,4.8
			c1.2,1,2.2,2.1,3.4,3.1c1.5,1.3,3.2,2.2,5.2,2.5c2.4,0.4,4.6-0.3,6.4-1.8c1.1-0.8,2-1.8,3.1-2.6c1-0.9,2.1-1.7,3.3-2.2
			c0.4-0.2,0.9-0.3,1.4-0.4c1.1-0.1,1.9,0.3,2.6,1.1c0.5,0.5,1,1,1.5,1.5c0,0,0,0,0-0.1c0.4-1.8,1.4-3.2,2.6-4.5
			c1.1-1.2,2.2-2.4,3.3-3.6c0,0,0.1,0.1,0.2,0.1c0.1,0.1,0.1,0.1,0.3,0.2c-0.4,0.5-0.7,1-1.1,1.4c-1,1.1-2,2.1-3,3.2
			c-0.9,1-1.5,2.2-1.7,3.5c-0.1,0.2,0,0.4,0.2,0.5c0.5,0.4,1.1,0.8,1.7,1.2c-0.6,0-1.1,0.1-1.5,0.1c-0.4,0-0.5,0.2-0.5,0.5
			c0.2,1.2,0.5,2.5,0.7,3.7c0.1,0.4,0,0.5-0.4,0.4c-0.1,0-0.2-0.2-0.3-0.3c-0.3-1.3-0.5-2.5-0.7-3.8c-0.1-0.5-0.1-0.5-0.5-0.4
			c-0.2,0-0.4,0.1-0.6,0.2c-2.8,0.8-4.3,2.5-4.7,5.7c-0.1,1.2-0.1,2.5-0.1,3.7c0,3-0.8,5.6-2.8,7.9c-1.6,1.9-3.7,3.1-5.9,3.9
			c-1.7,0.7-3.5,1.1-5.4,1.4c-0.4,0.1-0.5,0.2-0.5,0.6c0,1.6,0,3.1,0,4.7c0,0.4,0.1,0.5,0.5,0.5c1.8,0,3.7,0.1,5.5,0.1
			c0.6,0,1.2,0,1.8,0.1c2,0.1,3.9-0.3,5.8-0.4c0.6-0.1,1.2-0.1,1.8-0.2c0.3,0,0.4-0.1,0.4-0.4c0-0.8,0-1.7,0-2.5c0-0.7,0.3-1,1-1
			c3.2,0,6.4,0,9.6,0c0.7,0,1,0.3,1,1c0,3.2,0,6.4,0,9.6c0,0.7-0.3,1-1,1c-3.2,0-6.5,0-9.7,0c-0.7,0-1-0.4-1-1c0-0.8,0-1.6,0-2.4
			c0-0.4-0.1-0.5-0.4-0.5c-2-0.2-4-0.5-6.1-0.6c-1.3-0.1-2.6,0-3.9,0.1c-1.1,0-2.1,0.1-3.2,0.1c-3.8,0.1-7.6,0.2-11.3,0.2
			c-2.4,0.1-4.7,0.1-7.1,0.2c-2.2,0-4.4,0.1-6.5,0.2c-0.4,0-0.5-0.1-0.5-0.5c0-0.9,0-1.9,0-2.8c0-0.6-0.1-0.6,0.6-0.6
			c2.2,0.1,4.4,0.1,6.5,0.1c3.4,0.1,6.8,0.1,10.2,0.2c0.6,0,0.6,0,0.6-0.6c0-1.5,0-3,0-4.4c0-0.3-0.1-0.5-0.4-0.5
			c-3.4-0.3-6.6-1.3-9.5-3.2C42.5,89.2,40.7,88,38.8,87.2C38.8,87.2,38.8,87.2,38.8,87.2z M57.8,93.7c-0.6,0-1.2,0-1.8,0
			c-0.1,0-0.2,0.2-0.2,0.3c0,1.6,0,3.2,0,4.8c0,0.1,0.2,0.3,0.3,0.3c0.4,0,0.9,0,1.3,0c0.4,0,0.5-0.1,0.5-0.5c0-1.5,0-3.1,0-4.6
			C57.8,93.9,57.8,93.8,57.8,93.7z"/>
		<path class="st0" d="M23.8,22c1.1-1.1,2.4-1.2,3.8-1.1c2,0.2,3.3,1.3,3.8,3.2c0.8,2.8,0.7,5.6-0.3,8.3c-0.7,2-2.3,3-4.3,3.2
			c-1,0.1-2.1,0.1-3.1-0.2c-2.1-0.5-3.2-2-3.9-3.9c-0.4-1.2-0.5-2.4-0.5-3.7c0-3,0-5.9,0-8.9c0-1.3,0.2-2.6,0.7-3.9
			c0.7-1.9,2-3,4-3.3c1.3-0.2,2.7-0.2,4,0.2c2,0.5,3,2,3.4,4c0.1,0.6,0.1,1.2,0.2,1.8c0,0.3-0.1,0.4-0.3,0.4c-1.2,0-2.4,0-3.6,0
			c-0.3,0-0.4-0.1-0.4-0.4c0-0.5-0.1-1-0.2-1.5c-0.1-0.7-0.5-1-1.2-1c-0.7-0.1-1.3,0.1-1.5,0.7c-0.2,0.5-0.4,1.1-0.4,1.7
			C23.8,19.1,23.8,20.5,23.8,22z M23.8,27.3C23.8,27.3,23.8,27.3,23.8,27.3c0.1,0.9,0,1.7,0.1,2.6c0,0.6,0.2,1.1,0.4,1.6
			c0.3,0.6,0.9,0.9,1.6,0.8c0.6-0.1,1-0.5,1.1-1.1c0.1-0.6,0.3-1.2,0.3-1.8c0-1.3,0-2.6-0.1-3.8c-0.1-1-0.8-1.4-1.7-1.4
			c-0.5,0-1,0.3-1.4,0.6c-0.2,0.2-0.4,0.5-0.3,0.8C23.8,26.3,23.8,26.8,23.8,27.3z"/>
		<path class="st0" d="M12.3,16.7c-1.1,0.4-2.2,0.8-3.3,1.2c0-0.2,0-0.3,0-0.4c0-0.9,0-1.7,0-2.6c0-0.3,0.1-0.4,0.3-0.5
			c1.4-0.6,2.8-1.3,3.9-2.3c0.1-0.1,0.2-0.1,0.4-0.1c1,0,1.9,0,2.9,0c0.4,0,0.4,0.2,0.4,0.5c0,3.9,0,7.7,0,11.6c0,3.6,0,7.2,0,10.8
			c0,0.5,0,0.5-0.5,0.5c-1.2,0-2.3,0-3.5,0c-0.4,0-0.5-0.1-0.5-0.5c0-5.9,0-11.7,0-17.6C12.3,17.1,12.3,16.9,12.3,16.7z"/>
		<path class="st0" d="M81.1,93.8c-1.7,0-3.4,0-5.1,0c-0.3,0-0.6,0-0.9-0.2c-0.6-0.3-1-1-0.9-1.6c0.1-0.7,0.7-1.2,1.4-1.3
			c0.2,0,0.5,0,0.7,0c3.3,0,6.7,0,10,0c1,0,1.7,0.7,1.6,1.7c-0.1,0.8-0.7,1.4-1.7,1.4C84.6,93.8,82.8,93.8,81.1,93.8z"/>
		<path class="st0" d="M81.1,107.4c1.8,0,3.6,0,5.4,0c0.7,0,1.4,0.5,1.5,1.2c0.1,0.7-0.2,1.5-0.9,1.7c-0.2,0.1-0.5,0.1-0.8,0.1
			c-3.4,0-6.9,0-10.3,0c-1.2,0-2-0.9-1.7-2c0.2-0.7,0.8-1.1,1.5-1.1C77.6,107.4,79.3,107.4,81.1,107.4z"/>
		<path class="st0" d="M90.9,31c0-0.6,0-1.3,0-1.9c0.1-2,1.1-2.8,3-2.6c1.3,0.1,2,0.9,2.1,2.2c0.1,1.6,0.1,3.2,0,4.7
			c-0.1,1.4-0.8,2.1-2.2,2.2c-0.4,0-0.9,0-1.3-0.1c-0.8-0.2-1.3-0.7-1.5-1.5c-0.1-0.7-0.1-1.4-0.2-2.2C90.9,31.5,90.9,31.3,90.9,31
			C90.9,31,90.9,31,90.9,31z M92.6,31C92.6,31,92.6,31,92.6,31c0,0.8,0,1.7,0,2.5c0,0.5,0.3,0.8,0.8,0.8c0.5,0,0.8-0.2,0.9-0.7
			c0-0.2,0.1-0.4,0.1-0.6c0-1.3,0-2.6,0-3.9c0-0.3,0-0.6-0.1-0.8c-0.1-0.2-0.3-0.4-0.5-0.5c-0.6-0.2-1.1,0.1-1.2,0.8
			C92.6,29.4,92.6,30.2,92.6,31z"/>
		<path class="st0" d="M98.4,30.5c0,0.8,0,1.6,0,2.4c0,0.7,0,1.5,0,2.2c0,0.3-0.1,0.4-0.4,0.4c-1.2,0-1,0.2-1-1c0-2.5,0-5,0-7.5
			c0-0.4,0.1-0.5,0.5-0.5c0.5,0,0.7,0.1,0.9,0.6c0.5,1.3,1.1,2.5,1.6,3.8c0.1,0.1,0.1,0.3,0.2,0.5c0-0.2,0-0.4,0-0.5
			c0-1.3,0-2.6,0-3.9c0-0.4,0.1-0.5,0.5-0.5c1.1,0,0.9-0.1,0.9,0.9c0,2.5,0,5,0,7.5c0,0.2,0.1,0.5-0.2,0.6c-0.6,0.1-0.9,0-1-0.3
			c-0.6-1.4-1.2-2.9-1.8-4.3C98.6,30.7,98.5,30.6,98.4,30.5C98.5,30.5,98.4,30.5,98.4,30.5z"/>
		<path class="st0" d="M58.4,31.2c0-0.5,0-1,0-1.5c0-0.7,0-1.4,0-2.2c0-1.1-0.2-0.9,1-1c0.3,0,0.4,0.1,0.4,0.4c0,0.1,0,0.1,0,0.2
			c0,2.6,0,5.3,0,7.9c0,0.2,0.1,0.5-0.2,0.5c-0.5,0.1-0.9,0-1-0.3c-0.6-1.4-1.2-2.9-1.8-4.3c-0.1-0.1-0.1-0.3-0.2-0.4
			c0,1.1,0,2.2,0,3.3c0,0.4,0,0.9,0,1.3c0,0.7-0.5,0.3-0.8,0.4c-0.3,0-0.6,0.1-0.6-0.4c0-1.7,0-3.5,0-5.2c0-1,0-2,0-3
			c0-0.3,0.1-0.4,0.4-0.4c0.9,0,0.7-0.1,1,0.7c0.6,1.3,1.1,2.6,1.7,3.8C58.3,31.1,58.3,31.2,58.4,31.2
			C58.4,31.2,58.4,31.2,58.4,31.2z"/>
		<path class="st0" d="M69.2,15.4c0,1.1,0,2.3,0,3.4c0,0.1,0,0.2,0,0.3c0.1,0.4,0.4,0.7,0.8,0.6c0.4,0,0.7-0.2,0.8-0.6
			c0.1-0.3,0.1-0.7,0.1-1c0-1.9,0-3.8,0-5.7c0-0.4,0.1-0.5,0.5-0.5c1.2,0,1.2,0,1.2,1.2c0,1.7,0,3.5,0,5.2c0,0.2,0,0.4,0,0.6
			c-0.2,1.4-0.9,2-2.3,2.1c-1.6,0.1-2.6-0.7-2.6-2.3c-0.1-2.1,0-4.3-0.1-6.4c0-0.3,0.1-0.4,0.4-0.3c0.3,0,0.6,0,0.9,0
			c0.3,0,0.4,0.1,0.4,0.4C69.1,13.4,69.1,14.4,69.2,15.4C69.1,15.4,69.2,15.4,69.2,15.4z"/>
		<path class="st0" d="M82.8,30.1c0,1,0,2,0,3c0,0.2,0,0.5-0.1,0.7c-0.2,1.1-0.8,1.6-1.8,1.8c-0.5,0.1-1,0-1.4,0
			c-0.9-0.2-1.5-0.8-1.6-1.9c0-0.2-0.1-0.4-0.1-0.6c0-2,0-4,0-6.1c0-0.3,0.1-0.4,0.4-0.4c0.3,0,0.5,0,0.8,0c0.4,0,0.5,0.1,0.5,0.5
			c0,1.9,0,3.8,0,5.7c0,0.3,0,0.7,0.1,1c0.1,0.5,0.4,0.7,0.8,0.7c0.5,0,0.7-0.2,0.8-0.7c0.1-0.4,0.1-0.8,0.1-1.3c0-1.8,0-3.6,0-5.3
			c0-0.5,0-0.5,0.5-0.6c1.1,0,1.1,0,1.1,1.1C82.8,28.5,82.8,29.3,82.8,30.1C82.8,30.1,82.8,30.1,82.8,30.1z"/>
		<path class="st0" d="M56.8,45.6c0-0.8-0.1-1.6,0-2.4c0.2-1.6,1-2.3,2.9-2.2c1.3,0.1,2,0.9,2.1,2.2c0,0.3,0,0.5,0,0.8
			c0,0.3-0.1,0.4-0.3,0.4c-0.3,0-0.6,0-0.9,0c-0.3,0-0.4-0.1-0.4-0.4c0-0.4,0-0.7,0-1.1c0-0.4-0.2-0.6-0.6-0.7
			c-0.5-0.1-0.8,0.1-1,0.5c-0.1,0.2-0.1,0.4-0.1,0.6c0,1.5,0,2.9,0,4.4c0,0.2,0,0.3,0,0.5c0.1,0.5,0.4,0.7,0.9,0.7
			c0.4,0,0.7-0.3,0.7-0.8c0-0.4,0-0.8,0-1.1c0-0.2,0.1-0.4,0.3-0.3c0.1,0,0.1,0,0.2,0c1.1,0,1.1,0,1.1,1.1c0,0.9-0.2,1.7-1.2,2.1
			c-1,0.4-2,0.4-2.9-0.2c-0.7-0.5-0.8-1.2-0.9-2C56.7,47,56.7,46.3,56.8,45.6C56.7,45.6,56.7,45.6,56.8,45.6z"/>
		<path class="st0" d="M87.6,16.4c0,0.8,0,1.6,0,2.4c0,0.7,0.3,1,0.9,1c0.4,0,0.7-0.2,0.7-0.6c0.1-0.4,0.1-0.8,0.1-1.3
			c0-0.3,0.1-0.4,0.4-0.4c0.1,0,0.1,0,0.2,0c1.2,0,1-0.2,1,1.1c0,0.3,0,0.5-0.1,0.8c-0.2,0.9-0.8,1.4-1.7,1.6c-0.3,0-0.5,0.1-0.8,0
			c-1.4-0.1-2.2-0.8-2.3-2.2c-0.1-1.6-0.1-3.1,0-4.7c0.1-1.7,1.1-2.5,3.1-2.3c1.1,0.1,1.7,0.8,1.8,2c0,0.3,0,0.7,0,1
			c0,0.3-0.1,0.4-0.3,0.4c-1.2,0.1-1.2,0.1-1.3-1.1c0-0.8-0.3-1.1-0.8-1.1c-0.6,0-0.9,0.4-0.9,1.1C87.6,15,87.6,15.7,87.6,16.4
			C87.6,16.4,87.6,16.4,87.6,16.4z"/>
		<path class="st0" d="M67.9,45.6c0-0.9,0-1.8,0.1-2.7c0.2-1.2,0.8-1.8,2-1.9c0.4,0,0.9,0,1.3,0.1c0.9,0.2,1.5,0.8,1.6,2
			c0.2,1.3,0,1.4-1.3,1.4c-0.2,0-0.3-0.1-0.3-0.3c0-0.4,0-0.7,0-1.1c0-0.5-0.2-0.7-0.7-0.7c-0.5,0-0.8,0.2-0.9,0.7
			c0,0.2-0.1,0.4-0.1,0.6c0,1.5,0,3,0,4.4c0,0.3,0.1,0.7,0.4,0.8c0.6,0.3,1.1,0,1.2-0.7c0-0.4,0-0.8,0-1.1c0-0.3,0.1-0.4,0.4-0.4
			c0.3,0,0.7,0,1,0c0.1,0,0.3,0.2,0.3,0.2c0,0.6,0,1.2-0.2,1.8c-0.2,1-0.9,1.4-1.9,1.5c-0.4,0-0.8,0-1.2-0.1c-1-0.2-1.6-1.1-1.7-2.3
			C67.9,47.1,67.9,46.4,67.9,45.6C67.9,45.6,67.9,45.6,67.9,45.6z"/>
		<path class="st0" d="M50.9,20.9c-0.5,0-0.9,0-1.3,0c-0.1,0-0.2-0.2-0.3-0.3c-0.1-0.5-0.2-0.9-0.3-1.4c0-0.2-0.1-0.3-0.4-0.3
			c-1.2-0.1-1.2-0.1-1.4,1.1c-0.2,1-0.2,1-1.2,1c-0.2,0-0.3,0-0.5,0c0.2-0.9,0.3-1.7,0.5-2.5c0.4-2,0.8-3.9,1.2-5.9
			c0.1-0.4,0.2-0.6,0.6-0.5c0.4,0,0.9-0.1,1.1,0.1c0.2,0.2,0.2,0.7,0.3,1.1c0.5,2.4,1,4.9,1.5,7.3C50.9,20.6,50.9,20.7,50.9,20.9z
			 M48.8,17.7c-0.2-1.1-0.3-2.1-0.5-3.1c0,0-0.1,0-0.1,0c-0.2,1-0.3,2.1-0.5,3.1C48.1,17.7,48.4,17.7,48.8,17.7z"/>
		<path class="st0" d="M67.4,50.1c-0.5,0-0.9,0-1.3,0c-0.1,0-0.2-0.2-0.3-0.3c-0.1-0.5-0.2-1-0.3-1.4c0-0.2-0.1-0.3-0.3-0.3
			c-1.2-0.1-1.2-0.1-1.4,1.1c-0.2,1-0.2,1-1.2,1c-0.2,0-0.3,0-0.5,0c0.1-0.7,0.3-1.4,0.4-2.1c0.4-2.1,0.9-4.2,1.3-6.3
			c0.1-0.4,0.2-0.6,0.6-0.5c0.3,0,0.6,0,0.9,0c0.3,0,0.4,0.1,0.5,0.4c0.3,1.5,0.6,3.1,0.9,4.6c0.2,1.2,0.5,2.4,0.7,3.7
			C67.4,49.9,67.4,49.9,67.4,50.1z M64.8,43.8C64.8,43.8,64.8,43.8,64.8,43.8c-0.3,1-0.4,2.1-0.6,3.1c0.4,0,0.7,0,1.1,0
			C65.2,45.8,65,44.8,64.8,43.8z"/>
		<path class="st0" d="M62.1,32.6c0.1,0.3,0.1,0.6,0.1,0.9c0.1,0.2,0.1,0.5,0.3,0.6c0.2,0.2,0.5,0.3,0.8,0.2c0.2,0,0.4-0.3,0.5-0.6
			c0.1-0.6-0.1-1.1-0.5-1.5c-0.5-0.5-1.1-1-1.7-1.5c-0.5-0.5-0.9-1-0.9-1.8c-0.2-2.1,1.4-2.7,2.7-2.5c1.1,0.1,1.7,0.8,1.8,2.2
			c0,0.1-0.1,0.3-0.2,0.3c-0.4,0.1-0.8,0.2-1.2,0.2c-0.1-0.3-0.1-0.6-0.2-0.9c-0.1-0.4-0.4-0.6-0.8-0.5c-0.4,0-0.6,0.3-0.7,0.7
			c0,0.4,0.1,0.8,0.4,1.1c0.4,0.4,0.9,0.8,1.3,1.2c0.9,0.8,1.5,1.6,1.4,2.8c-0.1,1-0.7,1.8-1.7,2c-1.7,0.4-3-0.6-3.1-2.4
			c0-0.2,0.1-0.4,0.3-0.4C61.4,32.7,61.7,32.7,62.1,32.6z"/>
		<path class="st0" d="M105.8,29.2c-0.1-0.3-0.1-0.6-0.2-0.9c-0.1-0.4-0.4-0.6-0.8-0.5c-0.4,0.1-0.6,0.3-0.6,0.7
			c0,0.4,0.1,0.8,0.4,1.1c0.4,0.4,0.9,0.8,1.4,1.2c0.9,0.8,1.5,1.7,1.4,2.9c-0.1,0.9-0.5,1.5-1.4,1.8c-1.7,0.6-3.3-0.5-3.3-2.3
			c0-0.1,0.1-0.3,0.2-0.3c0.4-0.1,0.8-0.2,1.2-0.3c0,0.3,0.1,0.5,0.1,0.8c0.1,0.2,0.1,0.4,0.3,0.6c0.2,0.3,0.5,0.4,0.9,0.3
			c0.3-0.1,0.5-0.4,0.5-0.7c0-0.6-0.2-1.1-0.6-1.5c-0.5-0.5-1-0.9-1.6-1.4c-0.7-0.6-1-1.4-0.9-2.3c0.1-1.4,1.2-2.2,2.7-2
			c1.1,0.2,1.7,0.8,1.8,2.2c0,0.1-0.1,0.3-0.2,0.3C106.5,29.1,106.1,29.1,105.8,29.2z"/>
		<path class="st0" d="M81.3,43.8c-0.1-0.4-0.1-0.7-0.2-0.9c-0.1-0.4-0.4-0.5-0.8-0.5c-0.4,0-0.6,0.3-0.6,0.6
			c-0.1,0.5,0.1,0.9,0.5,1.3c0.4,0.4,0.9,0.8,1.3,1.2c0.7,0.6,1.3,1.4,1.3,2.4c0.1,1.6-1,2.6-2.6,2.4c-1.5-0.2-2-1.3-2.1-2.5
			c0-0.1,0.1-0.2,0.2-0.3c0.4-0.1,0.8-0.2,1.2-0.3c0.1,0.3,0.1,0.6,0.1,0.9c0.1,0.2,0.1,0.5,0.3,0.6c0.2,0.2,0.5,0.3,0.8,0.2
			c0.2,0,0.4-0.3,0.5-0.6c0.1-0.5-0.1-1-0.5-1.4c-0.6-0.6-1.2-1.1-1.8-1.6c-0.8-0.7-1-1.6-0.8-2.6c0.2-0.8,0.6-1.3,1.4-1.5
			c0.4-0.1,0.9-0.1,1.4-0.1c1.3,0.1,1.7,1.3,1.7,2.2c0,0.1-0.1,0.2-0.2,0.3C82,43.6,81.7,43.7,81.3,43.8z"/>
		<path class="st0" d="M74.7,18c0,0.3,0.1,0.5,0.1,0.8c0.1,0.2,0.1,0.4,0.2,0.6c0.2,0.3,0.5,0.4,0.8,0.4c0.4-0.1,0.5-0.4,0.5-0.7
			c0-0.5-0.1-0.9-0.5-1.3c-0.5-0.5-1.1-1-1.6-1.4c-0.9-0.7-1.2-1.7-1-2.8c0.1-0.7,0.5-1.2,1.2-1.4c0.5-0.1,1.1-0.2,1.6-0.1
			c1,0.1,1.7,1.1,1.6,2.2c0,0.1-0.1,0.2-0.2,0.3c-0.4,0.1-0.8,0.2-1.2,0.2c-0.1-0.3-0.1-0.6-0.2-0.8c-0.1-0.5-0.4-0.7-0.8-0.6
			c-0.4,0.1-0.7,0.4-0.7,0.8c0,0.5,0.3,0.8,0.6,1.2c0.5,0.4,0.9,0.8,1.4,1.2c0.8,0.7,1.3,1.6,1.2,2.7c-0.1,1-0.8,1.8-1.7,1.9
			c-1.7,0.3-2.9-0.7-3-2.4c0-0.1,0.1-0.3,0.2-0.4C73.9,18.1,74.3,18.1,74.7,18z"/>
		<path class="st0" d="M59,12c-0.1,0.2-0.1,0.4-0.2,0.5c-0.4,1.2-0.9,2.3-1.3,3.4c-0.2,0.4-0.1,0.7,0,1.1c0.5,1.1,1,2.3,1.4,3.4
			c0.1,0.1,0.1,0.3,0.2,0.5c-0.5,0-1,0-1.4,0c-0.1,0-0.2-0.2-0.3-0.3c-0.3-0.8-0.7-1.6-1.1-2.5c-0.1,0.2-0.1,0.3-0.2,0.4
			c-0.3,0.7-0.5,1.4-0.8,2.1c-0.1,0.2-0.2,0.3-0.5,0.3c-0.3,0-0.7,0-1.1,0c0.1-0.2,0.1-0.4,0.1-0.5c0.5-1.3,1-2.6,1.5-3.9
			c0.1-0.3,0.1-0.5,0-0.8c-0.5-1.1-0.9-2.1-1.4-3.2c-0.1-0.2-0.1-0.3-0.2-0.6c0.5,0,1,0,1.4,0c0.1,0,0.2,0.2,0.3,0.3
			c0.3,0.6,0.5,1.2,0.8,1.9c0.1,0.1,0.1,0.3,0.2,0.5c0.3-0.8,0.6-1.5,0.8-2.3c0.1-0.3,0.3-0.5,0.6-0.4C58.3,12,58.6,12,59,12z"/>
		<path class="st0" d="M41,16.4c0-1.3,0-2.7,0-4c0-0.4,0.1-0.5,0.5-0.5c0.6,0,1.3,0,2,0c2,0,2.5,1.1,2.5,2.8
			c-0.1,1.6-0.8,2.2-2.4,2.2c-0.9,0-0.8-0.1-0.8,0.8c0,0.9,0,1.9,0,2.8c0,0.3-0.1,0.4-0.4,0.4C41,21,41,21,41,19.7
			C41,18.6,41,17.5,41,16.4z M42.6,14.5c0,0.3,0,0.7,0,1c0,0.1,0.1,0.3,0.2,0.3c0.9,0.2,1.4-0.2,1.4-1.1c0-0.2,0-0.5,0-0.7
			c0-0.5-0.3-0.7-0.8-0.8c-0.2,0-0.4,0-0.5,0c-0.2,0-0.3,0.1-0.3,0.3C42.7,13.8,42.6,14.1,42.6,14.5z"/>
		<path class="st0" d="M73.8,45.6c0-1.3,0-2.7,0-4c0-0.4,0.1-0.5,0.5-0.5c1,0,1.9,0,2.9,0c0.3,0,0.4,0.1,0.4,0.4
			c0,0.9,0.1,0.7-0.7,0.7c-0.4,0-0.7,0-1.1,0c-0.2,0-0.3,0.1-0.3,0.3c0,0.6,0,1.3,0,1.9c0,0.2,0.1,0.3,0.3,0.3c0.3,0,0.7,0,1,0
			c0.3,0,0.3,0.1,0.4,0.4c0,0.9,0,0.9-0.8,0.9c-0.9,0-0.9,0-0.9,0.9c0,0.5,0,1,0,1.5c0,0.3,0.1,0.5,0.4,0.4c0.4,0,0.9,0,1.3,0
			c0.3,0,0.4,0.1,0.4,0.4c0,0.8,0,0.8-0.8,0.8c-0.8,0-1.7,0-2.5,0c-0.3,0-0.5-0.1-0.5-0.5C73.8,48.3,73.8,47,73.8,45.6z"/>
		<path class="st0" d="M91.7,16.5c0-1.4,0-2.7,0-4.1c0-0.4,0.1-0.5,0.5-0.5c0.9,0,1.9,0,2.8,0c0.3,0,0.5,0.1,0.5,0.5
			c0,0.9,0.1,0.8-0.8,0.8c-0.4,0-0.7,0-1.1,0c-0.2,0-0.3,0.1-0.3,0.3c0,0.6,0,1.3,0,1.9c0,0.1,0.2,0.3,0.3,0.3c0.4,0,0.7,0,1.1,0
			c0.1,0,0.3,0.2,0.3,0.3c0.1,0.9,0.1,0.9-0.8,0.9c-1,0-0.9-0.1-0.9,0.9c0,0.6,0,1.1,0,1.7c0,0.3,0.1,0.4,0.4,0.4c0.5,0,0.9,0,1.4,0
			c0.3,0,0.4,0.1,0.4,0.4c0,0.8,0,0.8-0.8,0.8c-0.9,0-1.7,0-2.6,0c-0.3,0-0.5-0.1-0.4-0.4C91.7,19.2,91.7,17.8,91.7,16.5z"/>
		<path class="st0" d="M41,31c0-1.3,0-2.7,0-4c0-0.4,0.1-0.5,0.5-0.5c1,0,1.9,0,2.9,0c0.3,0,0.4,0.1,0.4,0.5c0,0.9,0.1,0.8-0.8,0.8
			c-0.3,0-0.7,0-1,0c-0.2,0-0.3,0.1-0.3,0.3c0,0.6,0,1.2,0,1.9c0,0.3,0.1,0.3,0.3,0.3c0.3,0,0.7,0,1,0c0.2,0,0.3,0.1,0.3,0.3
			c0,1,0.1,0.9-0.8,0.9c-0.9,0-0.8-0.1-0.8,0.8c0,0.6,0,1.1,0,1.7c0,0.3,0.1,0.4,0.4,0.4c0.5,0,0.9,0,1.4,0c0.2,0,0.4,0.1,0.3,0.3
			c0,1,0.1,0.8-0.8,0.8c-0.8,0-1.6,0-2.4,0c-0.6,0-0.6,0-0.6-0.6C41,33.6,41,32.3,41,31z"/>
		<path class="st0" d="M42.9,41.2c0.5,0,1,0,1.5,0c0.3,0,0.4,0.1,0.4,0.4c0,0.9,0.1,0.8-0.8,0.8c-0.4,0-0.7,0-1.1,0
			c-0.2,0-0.3,0.1-0.3,0.3c0,0.6,0,1.3,0,1.9c0,0.2,0.1,0.3,0.3,0.3c0.3,0,0.7,0,1,0c0.3,0,0.4,0.1,0.4,0.3c0,0.9,0,0.9-0.8,0.9
			c-1,0-0.8-0.1-0.8,0.8c0,0.5,0,1,0,1.5c0,0.4,0.1,0.5,0.5,0.5c0.4,0,0.8,0,1.2,0c0.3,0,0.4,0.1,0.4,0.4c0,0.9,0.1,0.8-0.8,0.8
			c-0.9,0-1.7,0-2.6,0c-0.3,0-0.4-0.1-0.4-0.4c0-2.7,0-5.4,0-8.1c0-0.3,0.1-0.5,0.4-0.4C41.9,41.2,42.4,41.2,42.9,41.2z"/>
		<path class="st0" d="M49.7,45.6c0-1.3,0-2.7,0-4c0-0.4,0.1-0.5,0.5-0.5c0.9,0,1.9,0,2.8,0c0.4,0,0.5,0.1,0.5,0.5
			c0,0.1,0,0.1,0,0.2c0.1,0.4-0.1,0.5-0.5,0.5c-0.4,0-0.8,0-1.2,0c-0.3,0-0.4,0.1-0.4,0.3c0,0.6,0,1.2,0,1.8c0,0.3,0.1,0.4,0.4,0.3
			c0.3,0,0.7,0,1,0c0.1,0,0.3,0.2,0.3,0.3c0.1,0.9,0.1,0.9-0.8,0.9c-0.9,0-0.8-0.1-0.8,0.8c0,0.9,0,1.9,0,2.8c0,0.3-0.1,0.4-0.4,0.4
			c-0.3,0-0.6,0-0.9,0c-0.3,0-0.4-0.1-0.4-0.4C49.7,48.3,49.7,47,49.7,45.6z"/>
		<path class="st0" d="M74.2,31.6c0-1.1,0-2.2,0-3.3c0-0.6,0-0.6-0.6-0.6c-1,0-0.9,0.2-0.9-1c0-0.1,0.2-0.3,0.3-0.3c1.3,0,2.7,0,4,0
			c0.2,0,0.3,0.1,0.3,0.3c0,1.2,0.1,0.9-0.9,1c-0.6,0-0.6,0-0.6,0.6c0,2.2,0,4.4,0,6.6c0,0.4-0.1,0.5-0.5,0.5c-0.2,0-0.5,0-0.7,0
			c-0.4,0-0.5-0.1-0.5-0.5C74.2,33.9,74.2,32.8,74.2,31.6z"/>
		<path class="st0" d="M67,31.6c0-1.1,0-2.2,0-3.4c0-0.3-0.1-0.5-0.4-0.4c-0.1,0-0.1,0-0.2,0c-0.9,0-1-0.2-0.8-1.1
			c0-0.1,0.2-0.2,0.2-0.2c1.4,0,2.8,0,4.1,0c0.1,0,0.2,0.1,0.2,0.1c0,0.3,0,0.6,0,1c0,0.1-0.2,0.1-0.3,0.1c-0.2,0-0.4,0-0.6,0
			c-0.5,0-0.5,0-0.5,0.5c0,2.2,0,4.3,0,6.5c0,0.7,0,0.7-0.7,0.7c-1,0-1,0-1-1C67,33.5,67,32.6,67,31.6z"/>
		<path class="st0" d="M84.6,31.6c0-1.1,0-2.1,0-3.2c0-0.6,0-0.6-0.6-0.6c-1,0-1-0.1-0.9-1c0-0.1,0.2-0.3,0.3-0.3c1.4,0,2.7,0,4.1,0
			c0.1,0,0.2,0.2,0.3,0.3c0,0,0,0.1,0,0.1c0,1.1,0.1,0.9-0.9,0.9c-0.6,0-0.6,0-0.6,0.6c0,2.2,0,4.4,0,6.6c0,0.4-0.1,0.5-0.5,0.5
			c-0.2,0-0.5,0-0.7,0c-0.4,0.1-0.5-0.1-0.5-0.5C84.7,33.9,84.6,32.8,84.6,31.6z"/>
		<path class="st0" d="M46.3,31.6c0-1.1,0-2.2,0-3.4c0-0.3-0.1-0.5-0.4-0.4c-0.1,0-0.1,0-0.2,0c-0.9,0-1-0.2-0.8-1.1
			c0-0.1,0.2-0.2,0.3-0.2c1.3,0,2.7,0,4,0c0.1,0,0.3,0.2,0.3,0.3c0,1.2,0.1,1-0.9,1c-0.5,0-0.5,0-0.5,0.5c0,2.2,0,4.4,0,6.6
			c0,0.4-0.1,0.6-0.5,0.5c-0.2,0-0.5,0-0.7,0c-0.4,0-0.5-0.1-0.5-0.5C46.3,33.9,46.3,32.8,46.3,31.6z"/>
		<path class="st0" d="M45.5,45.7c0-1.4,0-2.7,0-4.1c0-0.3,0.1-0.5,0.4-0.4c0.9,0,1.9,0,2.8,0c0.3,0,0.4,0.1,0.4,0.4
			c0,0.9,0.1,0.7-0.8,0.8c-0.4,0-1-0.1-1.2,0.1c-0.2,0.2-0.1,0.8-0.1,1.2c0,0.3,0,0.5,0,0.8c0,0.3,0.1,0.5,0.4,0.4
			c0.3,0,0.6,0,0.9,0c0.2,0,0.3,0.1,0.3,0.3c0,1.1,0.1,0.9-0.9,0.9c-0.9,0-0.8-0.1-0.8,0.8c0,0.9,0,1.9,0,2.8c0,0.4-0.1,0.5-0.5,0.5
			c-1.2,0-1.2,0-1.2-1.2C45.5,47.9,45.5,46.8,45.5,45.7z"/>
		<path class="st0" d="M81.3,17.1c0,1.1,0,2.3,0,3.4c0,0.3-0.1,0.5-0.4,0.4c-0.2,0-0.5,0-0.7,0c-0.4,0-0.5-0.1-0.5-0.5
			c0-2.2,0-4.3,0-6.5c0-0.1,0-0.2,0-0.3c0-0.3-0.1-0.4-0.4-0.4c-0.2,0-0.5,0-0.7,0c-0.3,0-0.4-0.1-0.4-0.4c0-1-0.1-0.9,0.8-0.9
			c1.1,0,2.2,0,3.4,0c0.3,0,0.5,0.1,0.5,0.4c0,1,0.1,0.8-0.8,0.8c-0.1,0-0.1,0-0.2,0c-0.3,0-0.4,0.1-0.4,0.4
			C81.3,14.8,81.3,15.9,81.3,17.1z"/>
		<path class="st0" d="M32,100.5c0-0.5,0-0.9,0-1.4c0-0.9,0.6-1.4,1.4-1.4c0.2,0,0.3,0,0.5,0c0.7,0,1.2,0.4,1.3,1.1
			c0.1,0.4,0.1,0.7,0.1,1.1c0,0.7,0,1.4,0,2c-0.1,1.1-0.7,1.5-1.9,1.5c-0.9,0-1.5-0.6-1.5-1.6C32,101.4,32,101,32,100.5z"/>
		<path class="st0" d="M66.5,15.8c0,1,0,2,0,3c0,0.1,0,0.3,0,0.4c-0.1,1.3-0.6,1.9-2,1.9c-0.9,0-0.9,0-0.9-0.9
			c0-0.2,0.1-0.3,0.3-0.3c0.7-0.1,0.8-0.2,0.9-0.9c0-1.1,0-2.2,0-3.3c0-1.1,0-2.2,0-3.3c0-0.3,0.1-0.4,0.4-0.4c0.3,0,0.5,0,0.8,0
			c0.4,0,0.4,0.1,0.4,0.5C66.5,13.5,66.5,14.7,66.5,15.8z"/>
		<path class="st0" d="M54.1,45.7c0-1.4,0-2.7,0-4.1c0-0.3,0.1-0.4,0.4-0.4c1.2,0,1.2,0,1.2,1.2c0,2.4,0,4.9,0,7.3
			c0,0.4-0.1,0.5-0.5,0.5c-1.1,0-1.1,0-1.1-1.1C54.1,47.9,54.1,46.8,54.1,45.7z"/>
		<path class="st0" d="M70.6,31c0-1.3,0-2.7,0-4c0-0.3,0.1-0.4,0.4-0.4c1.2,0,1.2,0,1.2,1.2c0,2.4,0,4.9,0,7.3
			c0,0.4-0.1,0.5-0.5,0.5c-1.1,0-1.1,0-1.1-1.1C70.6,33.3,70.6,32.1,70.6,31z"/>
		<path class="st0" d="M54,31c0,1.3,0,2.7,0,4c0,0.3-0.1,0.5-0.4,0.4c-0.3,0-0.6,0-0.9,0c-0.3,0-0.4-0.1-0.4-0.4c0-0.9,0-1.8,0-2.6
			c0-1.8,0-3.7,0-5.5c0-0.3,0.1-0.5,0.5-0.5c1.2,0,1.2,0,1.2,1.2C54,28.8,54,29.9,54,31z"/>
		<path class="st0" d="M53.2,16.5c0,1.3,0,2.7,0,4c0,0.3-0.1,0.5-0.4,0.5c-1.2,0-1.2,0-1.2-1.2c0-2.4,0-4.8,0-7.3
			c0-0.4,0.1-0.5,0.5-0.5c1.1,0,1.1,0,1.1,1.1C53.2,14.2,53.2,15.3,53.2,16.5z"/>
		<path class="st0" d="M83.2,16.4c0-1.3,0-2.7,0-4c0-0.4,0.1-0.5,0.5-0.5c1.2,0,1.2,0,1.2,1.2c0,2.4,0,4.9,0,7.3
			c0,0.4-0.1,0.5-0.5,0.5c-1.2,0-1.2,0-1.2-1.1C83.2,18.7,83.2,17.6,83.2,16.4z"/>
		<path class="st0" d="M89.9,31c0,1.4,0,2.7,0,4.1c0,0.3-0.1,0.5-0.4,0.4c-0.3,0-0.5,0-0.8,0c-0.4,0-0.5-0.1-0.5-0.5
			c0-2.7,0-5.4,0-8c0-0.4,0.1-0.5,0.5-0.5c1.2,0,1.2,0,1.2,1.2C89.9,28.8,89.9,29.9,89.9,31z"/>
		<path class="st0" d="M91,56.1c-0.1,1-0.4,2.1-1.5,2.8c-0.7,0.5-1.6,0.6-2.4,0.6c-0.2,0-0.4-0.1-0.3-0.3c0.1-0.7,0.2-1.4,0.4-2.1
			c0.5-1.2,1.5-1.7,2.8-1.9c0.1,0,0.2,0,0.4,0C91,55.1,91,55.2,91,56.1z"/>
		<path class="st0" d="M82.7,55.7c2.4,1.3,2.8,3.4,1.3,5.6C81.6,60.1,81.1,57.8,82.7,55.7z"/>
		<path class="st0" d="M80.8,64.7c-2-0.8-2.7-2.9-1.7-4.8c0.4-0.9,0.5-0.9,1.2-0.3C82,60.9,82.2,62.7,80.8,64.7z"/>
		<path class="st0" d="M85.7,63c1.5-2,3.5-2.1,5.2-0.5C89.5,64.6,87.4,64.7,85.7,63z"/>
		<path class="st0" d="M82.8,66.1c1.7-1.6,3.8-1.5,5.2,0.6C86.7,68.4,83.9,68.1,82.8,66.1z"/>
		<path class="st0" d="M59.7,22.4c-0.2-0.3-0.2-0.6,0.1-0.8c0.2-0.1,0.3-0.4,0.4-0.6C60.1,21,60.1,21,60.1,21
			c-0.7-0.1-0.7-0.1-0.7-0.8c0-0.1,0-0.3,0-0.4c0-0.1,0.2-0.2,0.3-0.3c0,0,0.1,0,0.1,0c1.2,0,1.2,0,1.2,1.1c0,0.4-0.1,0.8-0.2,1.1
			C60.6,22.1,60.2,22.3,59.7,22.4z"/>
	</g>
</g>
</svg>
