<?xml version="1.0" encoding="utf-8"?>
<!-- Generator: Adobe Illustrator 25.0.1, SVG Export Plug-In . SVG Version: 6.00 Build 0)  -->
<svg version="1.1" id="Layer_1" xmlns="http://www.w3.org/2000/svg" xmlns:xlink="http://www.w3.org/1999/xlink" x="0px" y="0px"
	 viewBox="0 0 125 125" style="enable-background:new 0 0 125 125;" xml:space="preserve">
<style type="text/css">
	.st0{fill:#D2D1D3;}
</style>
<g>
	<g>
		<path class="st0" d="M88.5,81.5c-0.1,4.2-1.7,7.5-4.8,10.2c-0.2,0.2-0.3,0.4-0.2,0.6c1.8,7.4-2.7,14.6-10.2,16.1
			c-3.4,0.7-6.6,0.1-9.5-1.7c-0.3-0.2-0.5-0.2-0.8,0c-7.9,5-18.5,0.3-20.1-8.9c-0.3-1.9-0.3-3.7,0.2-5.6c0.1-0.3,0-0.4-0.2-0.6
			c-2.8-2.4-4.4-5.3-4.7-9c-0.6-7,4.1-12.8,10.4-14.1c0.6-0.1,1.2-0.2,1.8-0.2c0.4,0,0.6-0.2,0.7-0.5c1.5-3.7,4.1-6.3,7.9-7.6
			c6.7-2.4,14,1,16.7,7.6c0.1,0.3,0.2,0.5,0.6,0.5C82,68.6,87,72.9,88.2,78.5c0.1,0.4,0.2,0.8,0.2,1.3C88.4,80.4,88.5,81,88.5,81.5z
			 M53.8,68.5c4.3,0.9,7.5,3.4,9.6,7.3c2.1-4,5.2-6.4,9.6-7.3c-1.2-3-4.6-6.2-9.6-6.3C59.2,62.2,54.7,65.2,53.8,68.5z M50.2,71.1
			c-3.6,0.3-7.8,3.1-9,8c-1,4.2,0.8,8.3,3.2,10.1c2.2-3.8,5.5-6.1,10-6.8C51.1,79.3,49.7,75.5,50.2,71.1z M45.7,93.5
			c-0.9,3.7,0.5,8.6,5,11.2c3.8,2.2,8.2,1.5,10.4-0.1c-1.4-1.5-2.5-3.3-3.1-5.3s-0.7-4-0.4-6.2c-1.9,1-3.9,1.5-6,1.6
			C49.6,94.8,47.6,94.4,45.7,93.5z M82.3,89.2c2.8-2.4,4.4-7,2.8-11.4c-1.4-3.6-5.7-7-8.6-6.7c0.4,4.3-0.9,8.1-4.1,11.2
			c2.2,0.3,4.1,1,5.8,2.2C79.9,85.8,81.3,87.3,82.3,89.2z M68.9,93.2c0.7,4.4-0.4,8.2-3.3,11.4c2.8,1.8,7.7,2.1,11.5-0.8
			c2-1.5,3.3-3.6,3.8-6c0.3-1.4,0.4-2.9,0-4.3C76.9,95.3,72.9,95.2,68.9,93.2z M80.1,90.8C80,90.7,80,90.6,80,90.5
			c-2.5-4.9-8.5-6.9-13.5-4.6c-0.6,0.2-0.6,0.2-0.3,0.8c2.2,3.9,6.7,6,11,5.1C78.2,91.7,79.1,91.3,80.1,90.8z M63.3,88.1
			c-4.3,4-3.9,11.2,0.1,14.8C67.5,99,67.4,92,63.3,88.1z M46.6,90.8c5.4,2.9,11.9,0.2,14-4.6C55.8,83.6,49.2,85.6,46.6,90.8z
			 M52.8,71.1c0,0.9-0.1,1.7,0,2.6c0.4,4.5,3.6,8.2,8.1,9.2c0.9,0.2,0.9,0.2,0.9-0.7c0.2-4-1.4-7.2-4.7-9.5
			C55.9,71.9,54.5,71.4,52.8,71.1z M64.9,83c0.1,0,0.1,0,0.2,0s0.1,0,0.2,0c2.3-0.4,4.2-1.5,5.8-3.2c2.1-2.3,3-5.1,2.7-8.2
			c0-0.5-0.1-0.5-0.6-0.4c-3.8,0.9-6.5,3.2-7.8,6.9C64.7,79.7,64.6,81.4,64.9,83z"/>
		<path class="st0" d="M20.6,35.4c1.6-6.6,3.3-13.2,4.9-19.9c-0.2,0-0.4,0-0.6,0c-1.8,0-3.5,0-5.3,0c-0.4,0-0.5-0.1-0.5-0.5
			c0-0.9,0-1.7,0-2.6c0-0.4,0.1-0.5,0.5-0.5c3.3,0,6.5,0,9.8,0c0.4,0,0.5,0.1,0.5,0.5c0.2,2.2-0.4,4.2-0.9,6.3
			c-1.3,5.3-2.6,10.7-3.9,16c-0.1,0.4-0.2,0.6-0.7,0.6c-1.1,0-2.2,0-3.3,0C20.9,35.4,20.8,35.4,20.6,35.4z"/>
		<path class="st0" d="M12,16.7c-1.2,0.4-2.2,0.8-3.4,1.2c0-0.4,0-0.8,0-1.2c0-0.6,0-1.3,0-1.9c0-0.1,0.1-0.4,0.3-0.4
			c1.4-0.7,2.8-1.3,4-2.4c0.1,0,0.3,0,0.4,0c0.9,0,1.8,0,2.8,0c0.3,0,0.4,0.1,0.4,0.4c0,7.5,0,15,0,22.5c0,0.4-0.1,0.5-0.5,0.5
			c-1.2,0-2.4,0-3.5,0c-0.4,0-0.5-0.1-0.5-0.5c0-5.9,0-11.7,0-17.6C12,17.1,12,17,12,16.7z"/>
		<path class="st0" d="M64.1,45.3c1.2,0.5,1.4,1.5,1.2,3c-0.2,1.2-1,1.8-2.3,1.8c-0.8,0-1.5,0-2.3,0c-0.3,0-0.4-0.1-0.4-0.4
			c0-2.7,0-5.5,0-8.2c0-0.3,0.1-0.4,0.4-0.4c0.8,0,1.6,0,2.4,0c1.8,0.1,2.7,2,1.7,3.5C64.6,44.9,64.4,45.1,64.1,45.3z M61.9,47.4
			c0,0.4,0,0.8,0,1.2c0,0.1,0,0.2,0.1,0.3c0.5,0.3,1.5-0.1,1.6-0.7c0.1-0.3,0.1-0.6,0.1-0.9c-0.1-1-0.5-1.3-1.5-1.3
			c-0.2,0-0.3,0.1-0.3,0.3C62,46.7,61.9,47,61.9,47.4z M61.9,42.3c0,0.7,0,1.2,0,1.8c0,0.7,0,0.7,0.7,0.7l0,0c0.4,0,0.7-0.2,0.8-0.6
			c0.1-0.5,0.2-1.1-0.2-1.5c-0.1-0.1-0.2-0.1-0.2-0.1C62.7,42.4,62.4,42.4,61.9,42.3z"/>
		<path class="st0" d="M116.4,20.9c-0.5,0-1,0-1.5,0c-0.1,0-0.2-0.2-0.3-0.4c-0.3-1.1-0.6-2.2-0.9-3.3c-0.1-0.2-0.1-0.3-0.4-0.4
			c-0.3,0-0.4,0.1-0.4,0.4c0,1.1,0,2.2,0,3.3c0,0.3-0.1,0.4-0.4,0.4s-0.6,0-0.9,0s-0.4-0.1-0.4-0.4v-0.1c0-2.7,0-5.3,0-8
			c0-0.4,0.1-0.5,0.5-0.5c0.8,0,1.7,0,2.5,0.1c1.1,0.1,1.8,0.7,1.9,1.8c0.1,0.5,0,1.1-0.1,1.6c-0.1,0.3-0.2,0.6-0.5,0.7
			c-0.4,0.3-0.4,0.5-0.3,0.9c0.3,1.1,0.6,2.2,0.9,3.3C116.4,20.6,116.4,20.7,116.4,20.9z M113,14.5c0,0.3,0,0.7,0,1l0,0
			c0.1,0.1,0.1,0.2,0.2,0.3c0.3,0.1,1-0.1,1.2-0.4c0.4-0.6,0.3-1.2,0.1-1.8c-0.2-0.5-0.7-0.5-1.2-0.5c-0.2,0-0.3,0.1-0.3,0.3
			C113.1,13.8,113,14.1,113,14.5z"/>
		<path class="st0" d="M54.2,35.5c-0.5,0-1,0-1.4,0c-0.1,0-0.3-0.2-0.3-0.3c-0.3-1.1-0.6-2.2-0.9-3.3c-0.1-0.3-0.2-0.4-0.5-0.4
			s-0.2,0.3-0.2,0.5c0,1,0,2.1,0,3.1c0,0.4-0.1,0.5-0.5,0.5c-0.3,0-0.6,0-0.9,0c-0.2,0-0.3-0.1-0.3-0.3c0-2.8,0-5.5,0-8.3
			c0-0.1,0.2-0.3,0.2-0.3c1,0,2,0,3,0.1c1.2,0.2,1.8,1,1.7,2.4c0,0.8-0.1,1.5-0.9,2c-0.1,0-0.1,0.3,0,0.4c0.3,1.2,0.7,2.4,1,3.6
			C54.1,35.2,54.1,35.3,54.2,35.5z M50.8,29c0,0.3,0,0.6,0,1c0,0.3,0.1,0.3,0.4,0.3c0.9,0,1.3-0.4,1.3-1.4c0-0.9-0.4-1.3-1.3-1.2
			c-0.2,0-0.3,0.1-0.3,0.3C50.8,28.4,50.8,28.7,50.8,29z"/>
		<path class="st0" d="M36.5,45.6c0-1.3,0-2.7,0-4c0-0.4,0.1-0.5,0.5-0.5c0.7,0,1.3,0,2,0c1.5,0,2.5,0.7,2.5,2.3
			c0,1.4,0.1,2.9,0,4.3c-0.1,1.6-0.8,2.3-2.5,2.4c-0.7,0-1.4,0-2.1,0c-0.3,0-0.4-0.2-0.3-0.4l0,0C36.5,48.3,36.5,47,36.5,45.6z
			 M38.2,45.6c0,1,0,1.9,0,2.9c0,0.3,0.1,0.4,0.4,0.4c0.9,0,1.2-0.2,1.2-1.1c0-1.5,0-2.9,0-4.4c0-0.8-0.3-1-1.1-1
			c-0.3,0-0.4,0.1-0.4,0.5C38.2,43.7,38.2,44.7,38.2,45.6z"/>
		<path class="st0" d="M54.2,45.6c0-0.8-0.1-1.5,0-2.3c0.2-1.7,1.1-2.4,3-2.3c1.3,0.1,2,0.8,2.1,2.1c0.1,1.6,0.1,3.2,0,4.7
			c-0.1,2-1.4,2.5-3.1,2.3c-1.2-0.1-1.9-0.8-2-2C54.2,47.3,54.3,46.4,54.2,45.6C54.3,45.6,54.2,45.6,54.2,45.6z M55.9,45.6
			L55.9,45.6c0,0.1,0,0.2,0,0.3c0,0.8,0,1.6,0.1,2.4c0,0.5,0.4,0.7,0.8,0.7c0.4,0,0.7-0.2,0.8-0.7c0-0.2,0.1-0.4,0.1-0.6
			c0-1.3,0-2.7,0-4c0-0.2,0-0.5-0.1-0.7c-0.1-0.4-0.3-0.6-0.7-0.6c-0.6,0-0.9,0.2-0.9,0.9C55.9,44,55.9,44.8,55.9,45.6z"/>
		<path class="st0" d="M90.2,31c0-0.6,0-1.3,0-1.9c0-1.9,1.1-2.8,3-2.6c1.4,0.2,2.1,0.9,2.2,2.5c0.1,1.5,0,3,0,4.5
			c-0.1,1.3-0.8,2-2.1,2.2c-0.4,0-0.9,0-1.4-0.1c-0.6-0.1-1.1-0.5-1.3-1.1c-0.2-0.5-0.3-1-0.3-1.5C90.1,32.3,90.2,31.6,90.2,31z
			 M93.7,31L93.7,31c0-0.7,0-1.4,0-2c0-0.3,0-0.5-0.1-0.8c-0.1-0.2-0.3-0.4-0.5-0.5c-0.6-0.2-1.1,0.1-1.1,0.8c0,1.7,0,3.3,0,5l0,0
			c0.1,0.6,0.4,0.8,1,0.8c0.5,0,0.7-0.4,0.7-1.1C93.7,32.5,93.7,31.8,93.7,31z"/>
		<path class="st0" d="M63.6,16.7c0-1.4,0-2.8,0-4.1c0-0.6,0-0.6,0.6-0.6c0.9,0,0.8-0.1,0.8,0.8c0,2.5,0,5.1,0,7.6
			c0,0.2,0.1,0.5-0.2,0.5c-0.6,0.1-0.9,0-1-0.3c-0.6-1.4-1.2-2.9-1.8-4.3c-0.1-0.1-0.1-0.2-0.2-0.5c0,0.2,0,0.4,0,0.5
			c0,1.4,0,2.7,0,4.1c0,0.4-0.1,0.5-0.5,0.5c-1,0-1,0-1-1c0-2.5,0-5,0-7.5c0-0.5,0-0.5,0.5-0.5s0.7,0.2,0.9,0.6
			C62.3,13.9,62.9,15.3,63.6,16.7C63.5,16.7,63.5,16.7,63.6,16.7z"/>
		<path class="st0" d="M76,20.9c-0.5,0-1,0-1.5,0c-0.1,0-0.2-0.2-0.3-0.3c-0.3-1.1-0.6-2.2-0.9-3.3c0-0.2-0.1-0.4-0.3-0.4
			c-0.3,0-0.4,0.1-0.4,0.4c0,1.1,0,2.2,0,3.3c0,0.3-0.1,0.4-0.4,0.4C71,21,71,21,71,19.8c0-2.4,0-4.9,0-7.3c0-0.4,0.1-0.5,0.5-0.5
			c0.8,0,1.7,0,2.5,0.1c1.3,0.1,1.9,0.8,1.9,2.1c0,0.4,0,0.9-0.1,1.2s-0.3,0.7-0.6,0.9c-0.3,0.2-0.3,0.4-0.2,0.7
			c0.3,1.1,0.6,2.2,1,3.4C75.9,20.6,75.9,20.7,76,20.9z M74.2,14.5c0-1-0.4-1.4-1.4-1.3c-0.1,0-0.3,0.2-0.3,0.3c0,0.7,0,1.4,0,2.1
			c0,0.1,0.2,0.3,0.3,0.3C73.8,15.9,74.2,15.4,74.2,14.5z"/>
		<path class="st0" d="M50.3,16.6c0.4,1.5,0.8,2.9,1.2,4.4c-0.6,0-1.1,0-1.6,0c-0.1,0-0.2-0.2-0.2-0.4c-0.3-1.1-0.6-2.1-0.8-3.2
			c-0.1-0.5-0.2-0.5-0.8-0.4c0,0.1,0,0.3,0,0.4c0,1.1,0,2.1,0,3.2c0,0.3-0.1,0.4-0.4,0.4c-0.3,0-0.6,0-0.9,0c-0.3,0-0.4-0.1-0.4-0.4
			c0-2.7,0-5.5,0-8.2c0-0.2,0-0.4,0.3-0.4c0.9,0,1.8,0,2.7,0.1c1.3,0.1,1.9,0.9,1.9,2.2c0,0.1,0,0.3,0,0.4
			C51.3,15.4,51.1,16.1,50.3,16.6z M48.1,14.5c0,0.3,0,0.7,0,1c0,0.1,0.1,0.2,0.1,0.3c0.5,0.2,1.3-0.2,1.4-0.7
			c0.1-0.3,0.1-0.6,0.1-1c-0.1-0.8-0.7-1.2-1.4-1c-0.1,0-0.2,0.2-0.2,0.3C48.1,13.8,48.1,14.1,48.1,14.5z"/>
		<path class="st0" d="M105.1,16.5c0,0.7,0,1.4,0,2.2c-0.1,1.9-1.2,2.5-2.8,2.4c-1.5-0.1-2.3-0.9-2.3-2.4c0-1.4,0-2.9,0-4.4
			c0.1-1.8,1.3-2.7,3.2-2.4c1.2,0.2,1.9,1,2,2.2C105.1,14.9,105.1,15.7,105.1,16.5L105.1,16.5z M101.6,16.4L101.6,16.4
			c0,0.8,0,1.6,0,2.4c0,0.1,0,0.1,0,0.2c0.1,0.6,0.3,0.8,0.8,0.8s0.8-0.2,0.9-0.8c0-0.2,0.1-0.4,0.1-0.6c0-1.1,0-2.2,0-3.3
			c0-0.4,0-0.9-0.1-1.3c-0.1-0.5-0.4-0.8-1-0.7c-0.5,0.1-0.7,0.3-0.7,0.9C101.6,14.8,101.6,15.6,101.6,16.4z"/>
		<path class="st0" d="M99.6,31.2c0-1,0-1.9,0-2.9c0-0.5,0-0.9,0-1.4c0-0.3,0.1-0.4,0.4-0.4c1.2,0,1-0.1,1,1c0,2.5,0,5,0,7.4
			c0,0.2,0.1,0.5-0.2,0.6c-0.6,0.1-0.9,0-1-0.3c-0.6-1.5-1.2-3-1.9-4.5c0,0,0-0.1-0.1-0.2c0,0.2,0,0.3,0,0.4c0,1.4,0,2.8,0,4.2
			c0,0.4-0.1,0.5-0.5,0.5c-1,0-1,0-1-0.9c0-2.5,0-5,0-7.5c0-0.4,0.1-0.5,0.5-0.5c0.5,0,0.7,0.2,0.9,0.6c0.6,1.4,1.2,2.7,1.7,4.1
			C99.5,31.2,99.6,31.2,99.6,31.2z"/>
		<path class="st0" d="M110.6,15.4c0,1.2,0.1,2.4,0,3.5c-0.1,1.6-1.1,2.2-2.7,2.1c-1.5-0.1-2.2-0.9-2.2-2.5c-0.1-2.1,0-4.2,0-6.3
			c0-0.2,0.1-0.3,0.3-0.3c0.3,0,0.6,0,0.9,0s0.4,0.1,0.4,0.4c0,1.6,0,3.2,0,4.8c0,0.6,0,1.2,0.1,1.9c0.1,0.6,0.4,0.8,0.8,0.8
			c0.5,0,0.7-0.2,0.8-0.7c0.1-0.2,0.1-0.5,0.1-0.7c0-2,0-3.9,0-5.9c0-0.4,0.1-0.5,0.5-0.5c0.3,0,0.5,0,0.8,0s0.4,0.1,0.4,0.4
			C110.7,13.4,110.7,14.4,110.6,15.4C110.7,15.4,110.6,15.4,110.6,15.4z"/>
		<path class="st0" d="M73.7,45.6c0-0.7,0-1.4,0-2.1c0.1-1.8,1.1-2.6,2.9-2.4c1.3,0.1,1.9,0.8,2.1,2.2c0.1,1.2,0.1,1.2-1.1,1.2
			c-0.4,0-0.6-0.1-0.5-0.5c0-0.3,0-0.6,0-0.9c0-0.4-0.3-0.7-0.7-0.7c-0.5,0-0.8,0.1-0.9,0.6c0,0.1,0,0.2,0,0.3c0,1.6,0,3.3,0,4.9
			c0,0.3,0.1,0.6,0.5,0.7c0.6,0.2,1.1-0.1,1.1-0.7c0-0.4,0-0.8,0-1.1c0-0.2,0.1-0.3,0.3-0.3c0.3,0,0.7,0,1,0c0.1,0,0.3,0.2,0.3,0.2
			c0,0.6,0,1.3-0.2,1.9c-0.2,0.9-0.9,1.3-1.8,1.4c-0.4,0-0.9,0-1.3-0.1c-1-0.2-1.6-1-1.7-2.2C73.7,47.1,73.7,46.4,73.7,45.6
			L73.7,45.6z"/>
		<path class="st0" d="M46.1,20.9c-0.5,0-0.9,0-1.3,0c-0.1,0-0.2-0.2-0.3-0.3c-0.1-0.5-0.2-0.9-0.2-1.4c0-0.2-0.1-0.3-0.4-0.3
			c-1.2,0-1.2,0-1.4,1.1c-0.2,0.9-0.2,0.9-1.1,0.9c-0.2,0-0.3,0-0.6,0c0-0.2,0-0.3,0-0.4c0.6-2.7,1.1-5.5,1.7-8.2
			c0.1-0.3,0.2-0.4,0.5-0.4s0.7,0,1,0c0.2,0,0.4,0.1,0.4,0.3c0.6,2.8,1.1,5.6,1.7,8.4C46.1,20.8,46.1,20.8,46.1,20.9z M43.5,14.5
			L43.5,14.5c-0.2,1-0.4,1.9-0.5,2.9c0,0.1,0.1,0.3,0.2,0.3c0.3,0,0.5,0,0.9,0C43.9,16.6,43.7,15.6,43.5,14.5z"/>
		<path class="st0" d="M83.8,20.9c-0.5,0-0.9,0-1.4,0c-0.1,0-0.2-0.2-0.3-0.3c-0.1-0.5-0.2-1-0.3-1.4c0-0.2-0.1-0.3-0.4-0.3
			c-1.2,0-1.2-0.1-1.4,1.1c-0.2,1-0.2,1-1.2,1c-0.2,0-0.3,0-0.6,0c0.1-0.8,0.3-1.5,0.4-2.2c0.4-2.1,0.9-4.2,1.3-6.4
			c0.1-0.3,0.2-0.5,0.5-0.4c0.3,0,0.5,0,0.8,0c0.4,0,0.5,0.1,0.6,0.5c0.5,2.3,0.9,4.7,1.4,7C83.6,19.9,83.7,20.4,83.8,20.9z
			 M81.2,14.6C81.1,14.6,81.1,14.6,81.2,14.6c-0.3,1-0.4,2.1-0.6,3.1c0.4,0,0.7,0,1.1,0C81.5,16.7,81.3,15.6,81.2,14.6z"/>
		<path class="st0" d="M70.6,20.9c-0.5,0-0.9,0-1.3,0c-0.1,0-0.2-0.2-0.2-0.3c-0.1-0.5-0.2-0.9-0.3-1.4c0-0.3-0.1-0.4-0.4-0.4
			c-1.1,0-1.1,0-1.3,1.1c-0.2,1.1,0,0.9-1.1,1c-0.2,0-0.3,0-0.6,0c0-0.2,0-0.4,0.1-0.6c0.5-2.7,1.1-5.3,1.6-8
			c0.1-0.3,0.2-0.5,0.5-0.4c0.4,0,1-0.1,1.2,0.1c0.3,0.2,0.2,0.8,0.3,1.2c0.5,2.4,1,4.9,1.5,7.3C70.5,20.7,70.5,20.8,70.6,20.9z
			 M67.9,14.5L67.9,14.5c-0.2,0.8-0.3,1.7-0.5,2.5c-0.1,0.7-0.1,0.8,0.7,0.7c0.2,0,0.3-0.1,0.3-0.3C68.3,16.5,68.1,15.5,67.9,14.5z"
			/>
		<path class="st0" d="M64.4,35.5c-0.5,0-0.9,0-1.3,0c-0.1,0-0.2-0.2-0.3-0.3c-0.1-0.5-0.2-0.9-0.2-1.4c0-0.2-0.1-0.3-0.3-0.3
			c-0.1,0-0.2,0-0.4,0c-0.8,0-0.8,0-1,0.8v0.1c-0.2,1.3-0.4,1.4-1.8,1.1c0.1-0.7,0.3-1.3,0.4-2c0.4-2.1,0.9-4.3,1.3-6.4
			c0.1-0.4,0.2-0.6,0.7-0.5c0.3,0,0.6,0,0.9,0c0.2,0,0.4,0.1,0.4,0.3c0.6,2.8,1.1,5.6,1.7,8.4C64.4,35.3,64.4,35.4,64.4,35.5z
			 M61.8,29.1L61.8,29.1c-0.2,1.1-0.4,2.1-0.6,3.2c0.4,0,0.7,0,1.1,0C62.2,31.2,62,30.2,61.8,29.1z"/>
		<path class="st0" d="M82.6,35.5c-0.5,0-0.9,0-1.3,0c-0.1,0-0.2-0.2-0.3-0.3c-0.1-0.5-0.2-1-0.3-1.4c0-0.1-0.2-0.2-0.3-0.3l0,0
			c-1.2,0-1.2,0-1.4,1.1c-0.2,0.9-0.2,0.9-1.1,0.9c-0.2,0-0.4,0-0.6,0c0.1-0.5,0.2-1,0.3-1.5c0.5-2.4,1-4.7,1.4-7.1
			c0.1-0.3,0.2-0.4,0.5-0.4s0.7,0,1,0c0.2,0,0.4,0.1,0.4,0.3c0.6,2.8,1.1,5.6,1.7,8.4C82.6,35.3,82.6,35.4,82.6,35.5z M80,29.1
			C80,29.1,79.9,29.1,80,29.1c-0.2,0.8-0.3,1.7-0.5,2.5c-0.1,0.7-0.1,0.7,0.6,0.7c0.3,0,0.4-0.1,0.3-0.4C80.3,31,80.1,30.1,80,29.1z
			"/>
		<path class="st0" d="M40.5,35.5c0.2-1,0.4-1.9,0.6-2.9c0.4-1.8,0.8-3.7,1.1-5.5c0.1-0.4,0.2-0.5,0.6-0.5c1.2,0,1.2,0,1.5,1.2
			c0.5,2.5,1,4.9,1.5,7.4c0,0.1,0,0.2,0.1,0.4c-0.5,0-0.9,0-1.4,0c-0.1,0-0.2-0.2-0.2-0.3c-0.1-0.4-0.2-0.9-0.2-1.4
			c0-0.2-0.1-0.3-0.4-0.3c-1.1,0-1.1,0-1.4,1.1c-0.2,1-0.2,1-1.2,1C40.9,35.5,40.7,35.5,40.5,35.5z M43.3,29.2
			C43.2,29.2,43.2,29.2,43.3,29.2c-0.3,1-0.4,2.1-0.6,3.1c0.4,0,0.7,0,1.1,0C43.6,31.2,43.4,30.2,43.3,29.2z"/>
		<path class="st0" d="M73.6,32.6c0.1,0.4,0.1,0.7,0.2,0.9s0.2,0.5,0.3,0.6c0.2,0.1,0.5,0.2,0.8,0.2s0.4-0.3,0.4-0.6
			c0-0.6-0.1-1-0.6-1.4c-0.5-0.5-1-0.9-1.5-1.3c-0.8-0.7-1.1-1.5-1-2.6c0.1-1.3,1.3-2.1,2.7-1.8c1.1,0.2,1.9,1.1,1.8,2.2
			c0,0.1-0.1,0.2-0.2,0.2c0,0-0.1,0-0.2,0c-0.3,0-0.6,0.2-0.8,0.1c-0.1-0.1-0.2-0.5-0.2-0.7c-0.1-0.5-0.4-0.7-0.9-0.6
			c-0.4,0.1-0.6,0.4-0.6,0.9s0.3,0.8,0.7,1.2c0.6,0.5,1.2,1,1.7,1.6c0.7,0.7,0.9,1.6,0.7,2.6c-0.1,0.4-0.3,0.7-0.5,1
			c-0.6,0.7-1.9,0.9-2.9,0.4c-0.8-0.4-1.4-1.5-1.3-2.4c0-0.1,0.1-0.2,0.2-0.2C72.8,32.7,73.2,32.7,73.6,32.6z"/>
		<path class="st0" d="M92.1,47.1c0.1,0.3,0.1,0.6,0.1,0.9c0.1,0.2,0.2,0.4,0.3,0.6c0.2,0.3,0.5,0.4,0.8,0.2
			c0.2-0.1,0.4-0.3,0.4-0.6c0.1-0.6-0.1-1.1-0.5-1.4c-0.6-0.6-1.2-1.1-1.8-1.6c-0.7-0.6-0.9-1.4-0.8-2.4c0.1-1.3,1.3-2.1,2.8-1.8
			c1.3,0.2,1.7,1.2,1.8,2.2c0,0.1-0.1,0.2-0.2,0.3c-0.4,0.1-0.7,0.2-1.2,0.2c0-0.2-0.1-0.5-0.1-0.7c-0.1-0.6-0.4-0.8-1-0.7
			c-0.4,0.1-0.7,0.5-0.5,1c0.1,0.3,0.3,0.7,0.6,0.9c0.4,0.4,0.9,0.8,1.3,1.2c0.7,0.6,1.2,1.4,1.2,2.4c0.1,1.5-1,2.6-2.8,2.3
			c-1.2-0.2-2-1.2-2-2.5c0-0.1,0.1-0.3,0.2-0.3C91.2,47.3,91.6,47.2,92.1,47.1z"/>
		<path class="st0" d="M49.8,43.8c-0.1-0.3-0.1-0.6-0.2-0.9c-0.1-0.5-0.4-0.6-0.8-0.6c-0.4,0.1-0.6,0.4-0.6,0.8
			c0,0.4,0.2,0.8,0.5,1.1c0.5,0.5,1,0.9,1.5,1.4c0.8,0.7,1.2,1.5,1.2,2.6c-0.1,1.4-1.2,2.2-2.6,2c-1.3-0.1-2.2-1.3-2.1-2.5
			c0-0.1,0.1-0.2,0.2-0.2c0.4-0.1,0.8-0.2,1.3-0.3c0.1,0.3,0.1,0.6,0.1,0.8c0.1,0.2,0.2,0.5,0.3,0.7c0.2,0.3,0.5,0.4,0.8,0.2
			c0.2-0.1,0.4-0.4,0.5-0.6c0.1-0.6-0.1-1-0.5-1.4c-0.6-0.5-1.1-1-1.7-1.5c-0.5-0.4-0.8-0.9-0.9-1.5c-0.3-1.8,0.9-3,2.7-2.8
			c1.3,0.2,1.7,1.2,1.8,2.2c0,0.1-0.1,0.3-0.2,0.3C50.5,43.6,50.2,43.7,49.8,43.8z"/>
		<path class="st0" d="M96.5,12c0.4,0,0.8,0,1.2,0c1.2,0.1,1.9,0.6,2.1,1.8c0.1,0.5,0.1,1,0,1.5c-0.2,1-0.9,1.6-1.9,1.7
			c-0.3,0-0.5,0-0.8,0s-0.4,0.1-0.4,0.4c0,1,0,2.1,0,3.1c0,0.3-0.1,0.5-0.4,0.4c-0.2,0-0.5,0-0.7,0c-0.6,0-0.6,0-0.6-0.6
			c0-2,0-4.1,0-6.1c0-0.6,0-1.2,0-1.9c0-0.3,0.1-0.4,0.4-0.4C95.7,12,96.1,12,96.5,12L96.5,12z M96.6,14.5c0,0.3,0,0.7,0,1
			c0,0.1,0,0.2,0.1,0.3c0.4,0.2,1.3-0.1,1.4-0.6c0.1-0.4,0-0.9,0-1.4c0-0.4-0.3-0.5-0.6-0.6c-0.2,0-0.4,0-0.6,0s-0.3,0.1-0.3,0.3
			C96.6,13.8,96.6,14.1,96.6,14.5z"/>
		<path class="st0" d="M89.1,18c0,0.3,0.1,0.5,0.1,0.8c0.1,0.2,0.1,0.4,0.2,0.6c0.2,0.3,0.5,0.4,0.8,0.4c0.4-0.1,0.5-0.4,0.5-0.7
			c0-0.5-0.2-1-0.5-1.3c-0.5-0.5-1-0.9-1.5-1.4c-0.9-0.8-1.3-1.7-1-2.9c0.1-0.2,0.2-0.5,0.3-0.7c0.5-0.8,1.7-1.1,2.8-0.8
			c0.8,0.3,1.4,1.1,1.4,2.1c0,0.1-0.1,0.3-0.2,0.3c-0.4,0.1-0.8,0.2-1.2,0.2c-0.1-0.3-0.1-0.5-0.1-0.8c-0.1-0.5-0.4-0.7-0.9-0.6
			c-0.4,0.1-0.7,0.4-0.6,0.9c0,0.5,0.3,0.8,0.6,1.1c0.5,0.4,0.9,0.8,1.4,1.2c0.8,0.7,1.3,1.6,1.2,2.7c0,0.5-0.2,1-0.6,1.4
			c-1.2,1.2-3.4,0.7-3.9-0.9c-0.4-1.1-0.3-1.2,0.8-1.4C88.8,18,88.9,18,89.1,18z"/>
		<path class="st0" d="M36.5,16.4c0-1.4,0-2.7,0-4.1c0-0.3,0.1-0.4,0.4-0.4c0.7,0,1.5,0,2.2,0c1.3,0,2,0.6,2.2,2
			c0.1,0.4,0,0.9,0,1.3c-0.2,1.1-0.9,1.7-1.9,1.7c-0.3,0-0.6,0-0.9,0c-0.3,0-0.4,0.1-0.4,0.4c0,1.1,0,2.1,0,3.2
			c0,0.3-0.1,0.4-0.4,0.4c-1.2,0-1.2,0-1.2-1.2C36.5,18.6,36.5,17.5,36.5,16.4z M38.2,14.4L38.2,14.4c0,0.4,0,0.7,0,1.1
			c0,0.1,0.2,0.2,0.2,0.3c1,0.1,1.4-0.2,1.4-1.2c0-0.2,0-0.5-0.1-0.7c-0.1-0.4-0.3-0.6-0.7-0.6c-0.2,0-0.4,0-0.5,0
			c-0.3,0-0.4,0.1-0.4,0.4C38.2,13.8,38.2,14.1,38.2,14.4z"/>
		<path class="st0" d="M55,31c0-1.3,0-2.7,0-4c0-0.3,0.1-0.5,0.5-0.5c1,0,2,0,2.9,0c0.4,0,0.5,0.1,0.5,0.5c0,0.9,0,0.7-0.7,0.7
			c-0.3,0-0.7,0-1,0s-0.4,0.1-0.4,0.3c0,0.6,0,1.2,0,1.8c0,0.2,0.1,0.3,0.3,0.3c0.3,0,0.7,0,1,0c0.2,0,0.3,0.1,0.3,0.3
			c0,1.1,0.1,0.9-0.9,0.9c-0.9,0-0.8-0.1-0.8,0.8c0,0.5,0,1.1,0,1.6c0,0.3,0.1,0.4,0.4,0.4c0.4,0,0.9,0,1.3,0c0.3,0,0.4,0.1,0.4,0.4
			c0,0.9,0.1,0.8-0.8,0.8c-0.8,0-1.7,0-2.5,0c-0.6,0-0.6,0-0.6-0.6C55,33.6,55,32.3,55,31z"/>
		<path class="st0" d="M42.3,45.6c0-1.3,0-2.7,0-4c0-0.4,0.1-0.5,0.5-0.5c1,0,2,0,2.9,0c0.3,0,0.4,0.1,0.4,0.4
			c0,0.9,0.1,0.8-0.7,0.8c-0.3,0-0.7,0-1,0S44,42.4,44,42.6c0,0.6,0,1.2,0,1.8c0,0.2,0.1,0.3,0.3,0.3c0.3,0,0.7,0,1,0
			c0.2,0,0.3,0.1,0.3,0.3c0.1,0.9,0.1,0.9-0.8,0.9c-1,0-0.8-0.1-0.8,0.8c0,0.5,0,1,0,1.5s0,0.5,0.6,0.5c0.4,0,0.8,0,1.2,0
			c0.2,0,0.3,0.1,0.3,0.3c0,1,0.1,0.9-0.8,0.9c-0.8,0-1.6,0-2.4,0c-0.5,0-0.5,0-0.6-0.5C42.3,48.3,42.3,47,42.3,45.6z"/>
		<path class="st0" d="M71.3,50.1c-0.5,0-1.1,0-1.6,0c-0.2,0-0.3-0.1-0.3-0.3c0-2.8,0-5.5,0-8.3c0-0.2,0.1-0.3,0.3-0.3
			c1,0,2.1,0,3.1,0c0.2,0,0.3,0.1,0.3,0.3c0.1,0.9,0.1,0.9-0.8,0.9c-0.3,0-0.7,0-1,0c-0.1,0-0.3,0.2-0.3,0.3c0,0.6,0,1.3,0,1.9
			c0,0.2,0.1,0.3,0.3,0.3c0.3,0,0.7,0,1,0c0.2,0,0.3,0.1,0.3,0.3c0,1.1,0.1,0.9-0.9,0.9c-0.9,0-0.8-0.1-0.8,0.8c0,0.5,0,1.1,0,1.6
			c0,0.3,0.1,0.5,0.5,0.5s0.9,0,1.3,0c0.2,0,0.3,0.1,0.3,0.3c0,1,0.1,0.9-0.8,0.9C72.1,50.1,71.7,50.1,71.3,50.1L71.3,50.1z"/>
		<path class="st0" d="M56.1,16.4c0-1.3,0-2.7,0-4c0-0.4,0.1-0.5,0.5-0.5c1,0,2,0,3,0c0.3,0,0.4,0.1,0.4,0.4c0,1,0.1,0.8-0.8,0.8
			c-0.3,0-0.7,0-1,0c-0.2,0-0.3,0.1-0.3,0.3c0,0.6,0,1.2,0,1.9c0,0.2,0.1,0.3,0.3,0.3c0.3,0,0.7,0,1,0c0.2,0,0.3,0.1,0.3,0.3
			c0,1,0.1,0.8-0.8,0.9c-1,0-0.8-0.1-0.8,0.8c0,0.6,0,1.1,0,1.7c0,0.3,0.1,0.4,0.4,0.4c0.5,0,0.9,0,1.4,0c0.2,0,0.3,0.1,0.3,0.3
			c0,1,0.1,0.8-0.8,0.8c-0.9,0-1.7,0-2.6,0c-0.3,0-0.4-0.1-0.4-0.4C56.1,19.2,56.1,17.8,56.1,16.4z"/>
		<path class="st0" d="M86.6,45.6c0-1.3,0-2.7,0-4c0-0.4,0.1-0.5,0.5-0.5c0.9,0,1.9,0,2.8,0c0.3,0,0.5,0.1,0.5,0.5
			c0,0.8,0.1,0.7-0.7,0.7c-0.3,0-0.7,0-1,0c-0.2,0-0.3,0.1-0.3,0.3c0,0.6,0,1.3,0,1.9c0,0.2,0.1,0.3,0.3,0.3c0.3,0,0.7,0,1,0
			c0.2,0,0.3,0.1,0.3,0.3c0,1.1,0.1,0.9-0.9,0.9c-0.9,0-0.8-0.1-0.8,0.8c0,1,0,1.9,0,2.9c0,0.3-0.1,0.4-0.4,0.4s-0.6,0-0.9,0
			s-0.4-0.1-0.4-0.4C86.6,48.3,86.6,47,86.6,45.6z"/>
		<path class="st0" d="M83.8,31.6c0-1.1,0-2.3,0-3.4c0-0.3-0.1-0.4-0.4-0.4c-0.1,0-0.2,0-0.2,0c-0.8,0-1-0.2-0.8-1.1
			c0-0.1,0.2-0.2,0.3-0.2c1.3,0,2.7,0,4,0c0.2,0,0.3,0.1,0.3,0.3c0,1.2,0.1,1-0.9,1c-0.5,0-0.5,0-0.5,0.5c0,2.2,0,4.4,0,6.6
			c0,0.4-0.1,0.6-0.5,0.5c-0.3,0-0.5,0-0.8,0s-0.4-0.1-0.4-0.4C83.8,33.9,83.8,32.8,83.8,31.6z"/>
		<path class="st0" d="M84.6,17.1c0-1.1,0-2.3,0-3.4c0-0.3-0.1-0.5-0.4-0.4c-0.1,0-0.1,0-0.2,0c-1,0-1,0-0.9-1
			c0-0.1,0.2-0.3,0.3-0.3c1.3,0,2.7,0,4,0c0.1,0,0.3,0.2,0.3,0.3c0.1,0.9,0.1,1-0.9,1c-0.5,0-0.5,0-0.5,0.6c0,2.2,0,4.4,0,6.6
			c0,0.5,0,0.5-0.5,0.5c-1.2,0-1.2,0-1.2-1.2C84.6,18.9,84.6,18,84.6,17.1z"/>
		<path class="st0" d="M53.7,12c0.6,0,1.3,0,1.9,0c0.3,0,0.4,0.1,0.4,0.4c0,1.1,0.1,0.9-0.9,0.9c-0.6,0-0.6,0-0.6,0.6
			c0,2.2,0,4.4,0,6.6c0,0.4-0.1,0.5-0.5,0.5c-0.2,0-0.5,0-0.7,0c-0.4,0-0.5-0.1-0.5-0.5c0-2.2,0-4.5,0-6.7c0-0.6,0-0.6-0.6-0.6
			c-0.1,0-0.2,0-0.3,0c-0.6,0-0.6,0-0.6-0.6s0-0.6,0.6-0.6C52.6,12,53.1,12,53.7,12z"/>
		<path class="st0" d="M82,46.2c0,1.2,0,2.3,0,3.5c0,0.3-0.1,0.4-0.4,0.4c-1.3,0-1.3,0-1.3-1.2c0-2,0-4,0-6c0-0.4-0.1-0.5-0.5-0.5
			c-0.1,0-0.2,0-0.3,0c-0.2,0-0.7,0-0.7-0.1c-0.1-0.3-0.1-0.6,0-1c0-0.1,0.2-0.2,0.3-0.2c1.4,0,2.7,0,4.1,0c0.1,0,0.3,0.2,0.3,0.3
			c0.1,1,0.1,1-0.9,1c-0.6,0-0.6,0-0.6,0.6C82,44.1,82,45.1,82,46.2z"/>
		<path class="st0" d="M65.1,31c0-1.3,0-2.7,0-4c0-0.4,0.1-0.5,0.5-0.5c1.2,0,1.2,0,1.2,1.2c0,2,0,4.1,0,6.1c0,0.4,0.1,0.5,0.5,0.5
			s0.9,0,1.3,0c0.2,0,0.3,0.1,0.3,0.3c0,1,0.1,0.8-0.8,0.8s-1.7,0-2.6,0c-0.3,0-0.5-0.1-0.4-0.4C65.1,33.7,65.1,32.4,65.1,31z"/>
		<path class="st0" d="M36.5,31c0-1.4,0-2.7,0-4.1c0-0.3,0.1-0.4,0.4-0.4c1.2,0,1.2,0,1.2,1.2c0,2,0,4.1,0,6.1
			c0,0.4,0.1,0.5,0.5,0.5s0.9,0,1.3,0c0.2,0,0.3,0.1,0.3,0.3c0.1,0.9,0.1,0.9-0.8,0.9c-0.9,0-1.8,0-2.6,0c-0.3,0-0.4-0.1-0.4-0.4
			C36.5,33.7,36.5,32.4,36.5,31z"/>
		<path class="st0" d="M68.4,45.1c0,1.2,0,2.3,0,3.5s-0.7,1.7-1.8,1.8c-0.1,0-0.2,0-0.3,0c-0.7,0-0.7,0-0.7-0.7
			c0-0.3,0.1-0.5,0.5-0.5c0.5,0,0.6-0.2,0.7-0.7c0-0.2,0-0.4,0-0.6c0-2,0-4.1,0-6.1c0-0.4,0.1-0.5,0.5-0.5c1.2,0,1.2,0,1.2,1.2
			C68.4,43.2,68.4,44.2,68.4,45.1L68.4,45.1z"/>
		<path class="st0" d="M76.5,16.4c0-1.3,0-2.7,0-4c0-0.3,0.1-0.4,0.4-0.4c1.2,0,1.2,0,1.2,1.2c0,2.4,0,4.9,0,7.3
			c0,0.4-0.1,0.5-0.5,0.5c-1.2,0-1.2,0-1.2-1.1C76.5,18.7,76.5,17.5,76.5,16.4z"/>
		<path class="st0" d="M71.3,31c0,1.3,0,2.7,0,4c0,0.3-0.1,0.5-0.4,0.4c-0.3,0-0.6,0-0.9,0c-0.4,0-0.4-0.2-0.4-0.4
			c0-1.7,0-3.5,0-5.2c0-1,0-1.9,0-2.9c0-0.3,0.1-0.5,0.4-0.5c1.2,0,1.2,0,1.2,1.2C71.3,28.9,71.3,30,71.3,31z"/>
		<path class="st0" d="M87.5,31c0-1.3,0-2.7,0-4c0-0.4,0.1-0.5,0.5-0.5c1.2,0,1.2,0,1.2,1.2c0,2.4,0,4.9,0,7.3
			c0,0.4-0.1,0.5-0.5,0.5c-1.2,0-1.2,0-1.2-1.1C87.5,33.2,87.5,32.1,87.5,31z"/>
		<path class="st0" d="M83.9,45.6c0-1.3,0-2.6,0-3.9c0-0.6,0-0.6,0.6-0.6c0.2,0,0.4,0,0.6,0c0.3,0,0.4,0.1,0.4,0.4
			c0,0.7,0,1.4,0,2.1c0,2,0,4,0,6.1c0,0.4-0.1,0.5-0.5,0.5c-1.2,0-1.2,0-1.2-1.1C83.9,47.9,83.9,46.7,83.9,45.6z"/>
		<path class="st0" d="M58.7,23.6c-0.5,0.8-0.9,1.4-1.3,2.1c-0.1,0.2-0.5,0.2-1,0.1c0.2-0.7,0.4-1.4,0.6-2c0-0.1,0.1-0.1,0.2-0.2
			C57.7,23.6,58.2,23.6,58.7,23.6z"/>
	</g>
</g>
</svg>
