<?xml version="1.0" encoding="utf-8"?>
<!-- Generator: Adobe Illustrator 24.3.0, SVG Export Plug-In . SVG Version: 6.00 Build 0)  -->
<svg version="1.1" id="Layer_1" xmlns="http://www.w3.org/2000/svg" xmlns:xlink="http://www.w3.org/1999/xlink" x="0px" y="0px"
	 viewBox="0 0 125 125" style="enable-background:new 0 0 125 125;" xml:space="preserve">
<style type="text/css">
	.st0{fill:#DDA839;}
</style>
<g>
	<g>
		<path class="st0" d="M61.1,108.2c-3.2,0-6.4,0-9.6,0c-0.2,0-0.4,0-0.5,0c-0.5-0.1-0.8-0.4-0.8-0.9c0-0.4,0-0.8,0-1.3
			c0-0.3-0.1-0.5-0.4-0.6c-2.7-0.9-5.2-2-7.6-3.5c-5-3.1-9-7.3-11.7-12.6c-1.3-2.6-2.2-5.2-2.7-8.1c-0.1-0.8,0.2-1.2,1-1.2
			c0.4,0,0.8,0,1.1,0c20.9,0,41.8,0,62.7,0c0.2,0,0.3,0,0.5,0c0.7,0,1.1,0.4,0.9,1.2c-1.2,6.9-4.6,12.6-9.8,17.3
			c-3.4,3-7.2,5.2-11.5,6.7c-0.4,0.1-0.6,0.3-0.5,0.7c0,0.4,0,0.9,0,1.3c0,0.6-0.3,0.9-0.9,0.9c-0.2,0-0.3,0-0.5,0
			C67.5,108.2,64.3,108.2,61.1,108.2z"/>
		<path class="st0" d="M16.3,31.8c0.3,0,0.4,0,0.6,0c1.9,0,3.9,0,5.8,0c0.4,0,0.6,0.1,0.5,0.5c0,0.9,0,1.7,0,2.6
			c0,0.3-0.1,0.4-0.4,0.4c-3.7,0-7.4,0-11.1,0c-0.3,0-0.4-0.1-0.4-0.4c0-0.8,0-1.7,0-2.5c0-0.2,0.1-0.4,0.2-0.6c1.9-3,3.9-6,5.9-9.1
			c0.5-0.8,1-1.7,1.5-2.6c0.5-1,0.7-2.1,0.5-3.3c-0.1-0.9-0.6-1.5-1.5-1.6c-0.9-0.1-1.6,0.3-1.9,1.2c-0.3,0.9-0.3,1.8-0.3,2.7
			c0,0.6,0,0.6-0.6,0.6c-1.1,0-2.2,0-3.3,0c-0.4,0-0.5-0.1-0.5-0.5c0-1.2,0-2.4,0.4-3.5c0.7-2.7,2.6-4.2,5.3-4.3
			c0.8,0,1.6,0,2.4,0.1c2.5,0.4,4,2,4.4,4.5c0.4,2.5-0.3,4.6-1.6,6.7c-1.8,2.8-3.7,5.5-5.5,8.3C16.5,31.5,16.4,31.6,16.3,31.8z"/>
		<path class="st0" d="M48.5,77.4c0.1-0.6,0.3-1.2,0.4-1.7c0.3-1.7-0.1-3.2-1.1-4.7c-0.6-0.9-1.3-1.7-2-2.6c-1.5-1.9-2.3-4-2.4-6.4
			c-0.1-3.5,1-6.6,2.9-9.5c0.7-1,2.2-1.2,3.1-0.4c0.7,0.6,0.9,1.4,0.4,2.2c-1.1,1.8-1.9,3.7-2.2,5.8c-0.3,2.6,0.3,4.9,2.1,6.9
			c1.7,1.9,2.9,4,3.2,6.5c0.1,1.2,0.1,2.4-0.2,3.5c0,0.1-0.2,0.3-0.4,0.3c-1.2,0-2.5,0-3.7,0C48.6,77.5,48.5,77.4,48.5,77.4z"/>
		<path class="st0" d="M61.3,77.5c0.2-0.6,0.3-1.2,0.4-1.8c0.3-1.8-0.2-3.4-1.1-4.8c-0.5-0.8-1.1-1.4-1.7-2.1c-2.5-3-3.1-6.3-2.4-10
			c0.4-2.2,1.3-4.2,2.6-6.1c0.7-1,2.1-1.3,3.1-0.5c0.8,0.6,1,1.5,0.4,2.3c-1.1,1.8-1.9,3.8-2.2,5.9c-0.3,2.6,0.3,4.9,2.1,6.8
			c1.7,1.9,2.9,3.9,3.3,6.5c0.2,1.2,0.1,2.4-0.2,3.6c0,0.1-0.2,0.3-0.3,0.3C64,77.5,62.7,77.5,61.3,77.5z"/>
		<path class="st0" d="M74.2,77.4c0.1-0.6,0.3-1.1,0.4-1.7c0.3-1.8-0.2-3.4-1.1-4.9c-0.5-0.7-1.1-1.4-1.7-2.1
			c-2.7-3.2-3.2-6.8-2.2-10.8c0.5-1.9,1.3-3.7,2.4-5.4c0.7-1.1,2.3-1.3,3.3-0.4c0.6,0.5,0.7,1.4,0.2,2.1c-1.1,1.7-1.8,3.4-2.1,5.4
			c-0.5,2.8,0.2,5.3,2.1,7.5c1.7,1.8,2.8,3.9,3.2,6.3c0.2,1.2,0.1,2.4-0.2,3.6c0,0.1-0.2,0.3-0.3,0.3C76.9,77.5,75.6,77.5,74.2,77.4
			C74.3,77.4,74.3,77.4,74.2,77.4z"/>
		<path class="st0" d="M47.8,15.2c0,1.7,0,3.4,0,5.1c0,0.6,0,0.6-0.6,0.6c-0.1,0-0.2,0-0.2,0c-0.3,0-0.5-0.1-0.5-0.5
			c0.1-2.7,0.1-5.4,0.1-8.1c0-0.3,0.1-0.4,0.4-0.4c1.3,0,1.3,0,1.6,1.2c0.3,1.5,0.6,3,0.9,4.5c0,0.1,0.1,0.2,0.2,0.3
			c0.1-0.5,0.2-1,0.3-1.5c0.3-1.4,0.6-2.7,0.9-4.1c0.1-0.3,0.2-0.5,0.5-0.4c0.4,0,0.9-0.1,1.1,0.1c0.2,0.2,0.1,0.7,0.1,1
			c0,1.4,0.1,2.8,0.1,4.1c0,1.1,0,2.2,0.1,3.3c0,0.3-0.1,0.4-0.4,0.4c-1,0-0.9,0.1-0.9-0.8c0-1.6,0-3.1,0-4.7c-0.1,0-0.1,0-0.2,0
			c0,0.1-0.1,0.3-0.1,0.4c-0.3,1.6-0.7,3.2-1,4.7c-0.1,0.4-0.2,0.4-0.6,0.4c-0.4,0-0.5-0.1-0.6-0.5c-0.3-1.8-0.7-3.5-1.1-5.2
			C47.9,15.2,47.8,15.2,47.8,15.2z"/>
		<path class="st0" d="M59,31c0,0.9,0.1,1.7,0,2.6c-0.1,1.2-0.8,1.9-2,2C55,35.8,54,35,54,33.2c-0.1-1.5-0.1-3.1,0-4.6
			c0.1-1.5,1.2-2.3,2.9-2.1c1.4,0.2,2.1,0.9,2.2,2.5C59.1,29.6,59.1,30.3,59,31C59,31,59,31,59,31z M57.4,31.1
			C57.4,31.1,57.4,31.1,57.4,31.1c0-0.8,0-1.7,0-2.5c0-0.5-0.3-0.8-0.8-0.8c-0.5,0-0.8,0.2-0.9,0.8c0,0.2,0,0.4,0,0.6
			c0,1.4,0,2.7,0,4.1c0,0.2,0,0.5,0.1,0.7c0.1,0.3,0.3,0.5,0.7,0.6c0.6,0.1,1-0.2,1-0.9C57.4,32.7,57.4,31.9,57.4,31.1z"/>
		<path class="st0" d="M53,35.5c-0.5,0-1,0-1.5,0c-0.1,0-0.2-0.2-0.3-0.4c-0.3-1.1-0.6-2.2-0.9-3.3c-0.1-0.2-0.1-0.4-0.4-0.4
			c-0.3,0-0.4,0.1-0.4,0.4c0,1.1,0,2.2,0,3.3c0,0.3-0.1,0.5-0.4,0.4c-0.3,0-0.5,0-0.8,0c-0.4,0-0.5-0.1-0.5-0.5c0-2.2,0-4.4,0-6.7
			c0-0.5,0-1,0-1.5c0-0.2,0.1-0.3,0.3-0.3c0.9,0,1.7,0,2.6,0.1c1.3,0.1,2,0.9,2,2.2c0,0.5-0.1,1-0.2,1.4c-0.1,0.2-0.3,0.5-0.5,0.7
			c-0.3,0.2-0.3,0.4-0.2,0.6c0.3,1.2,0.7,2.3,1,3.5C53,35.2,53,35.3,53,35.5z M50.1,27.7c-0.2,0-0.5-0.1-0.5,0.3c0,0.7,0,1.4,0,2
			c0,0.2,0.1,0.3,0.3,0.3c1,0.1,1.4-0.4,1.4-1.5C51.3,28.1,51,27.7,50.1,27.7z"/>
		<path class="st0" d="M42.7,20.9c-0.5,0-0.9,0-1.3,0c-0.1,0-0.2-0.2-0.2-0.3c-0.1-0.4-0.2-0.9-0.2-1.4c0-0.3-0.2-0.4-0.4-0.4
			c-1.2,0-1.2,0-1.4,1.1c-0.2,1-0.2,1-1.2,1c-0.2,0-0.3,0-0.5,0c0-0.2,0.1-0.4,0.1-0.6c0.5-2.6,1.1-5.3,1.6-7.9
			c0.1-0.3,0.2-0.4,0.5-0.4c1.3,0,1.3,0,1.5,1.2c0.5,2.4,1,4.8,1.5,7.2C42.7,20.5,42.7,20.7,42.7,20.9z M40.1,14.5
			C40.1,14.5,40.1,14.5,40.1,14.5c-0.2,1-0.4,2-0.6,3c0,0.2,0,0.3,0.3,0.3c0.1,0,0.3,0,0.4,0c0.3,0,0.4-0.1,0.3-0.4
			C40.4,16.4,40.3,15.4,40.1,14.5z"/>
		<path class="st0" d="M43.4,31c0-1.3,0-2.7,0-4c0-0.4,0.1-0.5,0.5-0.5c0.9,0,1.9,0,2.8,0c0.3,0,0.5,0.1,0.5,0.4
			c0,0.9,0.1,0.7-0.8,0.8c-0.4,0-0.7,0-1.1,0c-0.1,0-0.3,0.2-0.3,0.3c0,0.6,0,1.3,0,2c0,0.1,0.2,0.3,0.3,0.3c0.3,0,0.7,0,1,0
			c0.3,0,0.4,0.1,0.4,0.3c0,0.9,0.1,0.9-0.8,0.9c-1,0-0.9-0.1-0.9,0.9c0,0.5,0,1,0,1.5c0,0.4,0.1,0.5,0.5,0.5c0.4,0,0.9,0,1.3,0
			c0.3,0,0.4,0.1,0.4,0.4c0,0.8,0,0.8-0.8,0.8c-0.9,0-1.7,0-2.6,0c-0.4,0-0.5-0.1-0.5-0.5C43.4,33.7,43.4,32.3,43.4,31z"/>
		<path class="st0" d="M40.1,34.4c0.7,0,1.3,0,1.9,0c0.2,0,0.4,0.1,0.5,0.1c0,0.3,0,0.6,0,0.9c0,0-0.2,0.1-0.2,0.1
			c-1.1,0-2.3,0-3.4,0c-0.3,0-0.3-0.1-0.3-0.3c0-0.4,0.1-0.8,0.2-1.2c0.7-1.9,1.3-3.9,2-5.8c0-0.1,0.1-0.3,0.1-0.5
			c-0.6,0-1.1,0-1.6,0c-0.2,0-0.5-0.1-0.5-0.1c-0.1-0.3,0-0.6,0-0.9c0,0,0.2-0.1,0.3-0.1c1.1,0,2.2,0,3.3,0c0.2,0,0.4,0.1,0.3,0.3
			c0,0.3,0,0.7-0.2,1c-0.7,2-1.4,4-2.1,6C40.2,34,40.1,34.1,40.1,34.4z"/>
		<path class="st0" d="M33.6,16.4c0-1.3,0-2.7,0-4c0-0.3,0.1-0.5,0.5-0.5c0.9,0,1.9,0,2.8,0c0.4,0,0.5,0.1,0.5,0.5
			c0,0.7,0,0.7-0.7,0.7c-0.3,0-0.7,0-1,0c-0.2,0-0.3,0.1-0.3,0.3c0,0.6,0,1.3,0,1.9c0,0.3,0.1,0.3,0.4,0.3c0.3,0,0.7,0,1,0
			c0.1,0,0.3,0.2,0.3,0.3c0.1,0.8,0.1,0.9-0.8,0.9c-1,0-0.8-0.1-0.8,0.8c0,0.9,0,1.9,0,2.8c0,0.3-0.1,0.4-0.4,0.4
			c-1.3,0-1.3,0-1.3-1.2C33.6,18.6,33.6,17.5,33.6,16.4z"/>
		<path class="st0" d="M43.6,16.4c0-1.3,0-2.6,0-3.9c0-0.4,0.1-0.5,0.5-0.5c1.1,0,1.1,0,1.1,1.1c0,2.4,0,4.9,0,7.3
			c0,0.5,0,0.5-0.5,0.5c-1.1,0-1.1,0-1.1-1.1C43.6,18.7,43.6,17.5,43.6,16.4z"/>
		<path class="st0" d="M60.2,29.5c0.6,0.8,1.3,1.6,1.9,2.4c0.1,0.2,0.1,0.6,0,0.7c-0.6,0.8-1.3,1.6-1.9,2.4c0-0.8-0.2-1.5,0.4-2.2
			c0.6-0.6,0.6-0.7,0-1.2c-0.7-0.6-0.5-1.4-0.5-2.1C60.1,29.5,60.2,29.5,60.2,29.5z"/>
		<path class="st0" d="M62.5,29.5c0.6,0.8,1.3,1.5,1.8,2.3c0.1,0.2,0.1,0.7,0,0.9c-0.6,0.8-1.2,1.5-1.8,2.3
			c-0.2-0.5-0.1-1.6,0.2-1.9c0.7-0.8,0.7-0.9,0-1.7c-0.2-0.2-0.3-0.5-0.3-0.8C62.4,30.2,62.4,29.9,62.5,29.5
			C62.5,29.5,62.5,29.5,62.5,29.5z"/>
		<path class="st0" d="M35.2,35.2c-0.7-0.9-1.3-1.6-1.8-2.4c-0.1-0.2-0.1-0.6,0-0.8c0.6-0.8,1.2-1.6,1.8-2.5c0.1,1,0.2,1.8-0.6,2.5
			c-0.3,0.3-0.3,0.6,0,0.9C35.4,33.4,35.3,34.2,35.2,35.2z"/>
		<path class="st0" d="M37.5,35.1c-0.2-0.2-0.2-0.3-0.3-0.3c-0.5-0.6-1-1.2-1.4-1.9c-0.3-0.4-0.3-0.8,0-1.2c0.5-0.6,0.9-1.2,1.4-1.8
			c0.1-0.1,0.2-0.2,0.3-0.3c0,0.7,0.2,1.5-0.4,2.1c-0.6,0.7-0.7,0.5,0,1.2C37.7,33.5,37.5,34.2,37.5,35.1z"/>
		<path class="st0" d="M47,23.6c-0.5,0.8-0.8,1.4-1.3,2.1c-0.1,0.2-0.5,0.1-0.9,0.2c0.2-0.5,0.3-1,0.4-1.4c0.3-1,0.3-1,1.3-0.9
			C46.6,23.6,46.8,23.6,47,23.6z"/>
	</g>
</g>
</svg>
