<?xml version="1.0" encoding="utf-8"?>
<!-- Generator: Adobe Illustrator 24.3.0, SVG Export Plug-In . SVG Version: 6.00 Build 0)  -->
<svg version="1.1" id="Layer_1" xmlns="http://www.w3.org/2000/svg" xmlns:xlink="http://www.w3.org/1999/xlink" x="0px" y="0px"
	 viewBox="0 0 125 125" style="enable-background:new 0 0 125 125;" xml:space="preserve">
<style type="text/css">
	.st0{fill:#4C9F38;}
</style>
<g>
	<g>
		<path class="st0" d="M54.4,85.5c0.1-0.2,0.2-0.4,0.3-0.5c2.1-3.8,4.1-7.6,6.2-11.4c0.5-1,1.8-1.1,2.5-0.2c0.1,0.2,0.2,0.5,0.3,0.7
			c1,6,2.1,12.1,3.1,18.1c0.3,1.6,0.6,3.2,0.8,4.8c0,0.1,0,0.2,0.1,0.4c0.4-1.2,0.7-2.4,1.1-3.5c3-10,6-20,9-30
			c1.5-5.1,3.1-10.2,4.6-15.2c0.3-0.8,0.8-1.2,1.5-1.2c0.6,0,1,0.4,1.3,0.9c0.9,1.8,1.7,3.6,2.6,5.4c1.6,3.4,3.3,6.8,4.9,10.2
			c0.1,0.1,0.1,0.2,0.2,0.4c0.3,0.8,0.1,1.6-0.7,1.9c-0.7,0.3-1.5,0.1-1.9-0.7c-0.4-0.8-0.8-1.7-1.2-2.6c-1.6-3.3-3.2-6.6-4.8-9.9
			c0-0.1-0.1-0.1-0.1-0.2c-0.1,0.4-0.2,0.7-0.3,1c-5,16.6-10,33.3-15,49.9c-0.1,0.3-0.2,0.6-0.3,0.8c-0.3,0.5-0.9,0.7-1.5,0.6
			c-0.6-0.1-1-0.6-1.1-1.2c-0.6-3.3-1.1-6.7-1.7-10c-0.9-5-1.7-10-2.6-15.1c0-0.1,0-0.1-0.1-0.3c-0.1,0.2-0.2,0.3-0.2,0.4
			c-2.1,3.9-4.2,7.8-6.3,11.6c-0.4,0.7-0.9,1-1.6,0.9c-0.6-0.1-1.1-0.6-1.2-1.4c-0.8-5.4-1.6-10.9-2.3-16.3
			c-0.1-0.8-0.2-1.7-0.4-2.5c0-0.1-0.1-0.3-0.1-0.5c-0.2,0.4-0.3,0.7-0.5,1c-1.5,3.4-3,6.8-4.6,10.3c-0.3,0.7-0.8,1-1.5,1
			c-6.6,0-13.2,0-19.7,0c-1.1,0-1.8-0.9-1.5-1.8c0.2-0.6,0.7-1,1.3-1c0.1,0,0.3,0,0.4,0c6.1,0,12.2,0,18.2,0c0.4,0,0.6-0.1,0.7-0.5
			c2.1-4.8,4.2-9.5,6.4-14.3c0.1-0.2,0.1-0.3,0.2-0.5c0.3-0.6,0.9-0.9,1.5-0.8c0.6,0.1,1.1,0.5,1.2,1.2c0.2,1.5,0.4,3,0.7,4.5
			c0.5,3.7,1.1,7.4,1.6,11.1c0.2,1.4,0.4,2.8,0.6,4.3C54.3,85.2,54.3,85.3,54.4,85.5z"/>
		<path class="st0" d="M93.5,91c-0.1-0.1-0.2-0.2-0.3-0.3c-2.7-2.7-5.5-5.5-8.2-8.2c-2.8-2.7-2.3-7.2,0.1-9.4c1.1-1,2.4-1.5,3.9-1.4
			c0.5,0,1.1,0.2,1.6,0.5c0.9,0.6,1.7,1.4,2.6,2c0.1,0.1,0.2,0.2,0.3,0.4c0.2-0.1,0.3-0.3,0.4-0.4c0.8-0.6,1.5-1.3,2.3-1.8
			c1.8-1.2,4.1-0.9,5.7,0.5c2.6,2.4,2.8,6.8,0.3,9.4c-2.8,2.8-5.6,5.6-8.4,8.4C93.7,90.9,93.6,90.9,93.5,91z"/>
		<path class="st0" d="M20.8,23.1c2.2,1,2.7,2.9,2.8,4.9c0.1,1.4-0.1,2.9-0.6,4.2c-0.8,2.2-2.4,3.3-4.7,3.5c-0.9,0.1-1.8,0-2.7-0.1
			c-2.1-0.3-3.4-1.6-4-3.6c-0.4-1.2-0.5-2.5-0.5-3.8c0-0.2,0.1-0.3,0.3-0.3c1.3,0,2.6,0,3.9,0c0.3,0,0.3,0.2,0.3,0.4
			c0.1,0.8,0.1,1.6,0.2,2.4c0.2,1.1,1,1.5,2.1,1.3c0.6-0.1,1-0.5,1.1-1.1c0.1-0.9,0.2-1.7,0.2-2.6c0-0.5-0.1-1.1-0.2-1.6
			c-0.3-1.1-0.9-1.6-2-1.6c-0.1,0-0.3,0-0.4,0c-0.7-0.1-0.7-0.1-0.7-0.8c0-0.7,0-1.3,0-2c0-0.4,0.1-0.5,0.5-0.5c0.4,0,0.8,0,1.2-0.1
			c0.7-0.1,1.1-0.6,1.3-1.2c0.4-1.3,0.4-2.6,0.1-3.9c-0.2-0.8-0.7-1.1-1.6-1.1c-0.8,0-1.3,0.3-1.5,1.1c-0.2,0.8-0.2,1.6-0.3,2.4
			c0,0.6,0,0.6-0.6,0.6c-1.2,0-2.3,0-3.5,0c-0.3,0-0.5-0.1-0.4-0.4c0.1-0.9,0-1.9,0.2-2.7c0.5-2.6,2.5-4.3,5.1-4.5c1,0,2,0,2.9,0.2
			c2.4,0.5,3.9,2.2,4.2,4.6c0.1,1,0.1,2,0,2.9C23.2,21,22.5,22.4,20.8,23.1z"/>
		<path class="st0" d="M49.4,30.7c1.3,0.8,1.7,2.6,0.8,3.9c-0.4,0.6-1,0.8-1.6,0.8c-0.9,0-1.8,0-2.7,0c-0.4,0-0.3-0.2-0.3-0.5
			c0-1.7,0-3.4,0-5c0-1,0-2,0-3c0-0.3,0.1-0.5,0.4-0.5c0.8,0,1.7,0,2.5,0.1c1.7,0.1,2.6,2.1,1.6,3.5C50,30.3,49.7,30.5,49.4,30.7z
			 M47.3,32.9c0,0.4,0,0.8,0,1.2c0,0.1,0.1,0.3,0.2,0.3c1,0.1,1.6-0.1,1.6-1.2c0-0.1,0-0.2,0-0.4c0-1-0.5-1.4-1.5-1.3
			c-0.2,0-0.3,0.1-0.3,0.3C47.3,32.1,47.3,32.5,47.3,32.9z M47.3,29C47.3,29,47.3,29,47.3,29c0,0.3,0,0.6,0,0.9
			c0,0.1,0.1,0.2,0.1,0.3c0.4,0.2,1.2-0.1,1.4-0.4c0.2-0.5,0.3-1.1,0-1.6c-0.2-0.4-0.7-0.4-1.2-0.4c-0.3,0-0.4,0.1-0.4,0.4
			C47.3,28.4,47.3,28.7,47.3,29z"/>
		<path class="st0" d="M37.4,16.1c1.2,0.8,1.6,2.2,1,3.6c-0.3,0.8-1,1.2-1.8,1.2c-0.9,0.1-1.8,0-2.8,0c-0.3,0-0.3-0.2-0.3-0.4
			c0-1.1,0-2.2,0-3.3c0-1.6,0-3.2,0-4.8c0-0.4,0.1-0.5,0.5-0.5c0.8,0,1.7,0,2.5,0.1c1.7,0.2,2.5,2.2,1.5,3.5
			C37.9,15.8,37.6,16,37.4,16.1z M35.2,18.2c0,0.4,0,0.8,0,1.2c0,0.1,0.1,0.3,0.2,0.3c0.9,0.1,1.6-0.1,1.6-1.2c0-0.1,0-0.2,0-0.4
			c0-1-0.5-1.4-1.5-1.4c-0.2,0-0.3,0.1-0.3,0.3C35.2,17.5,35.2,17.9,35.2,18.2z M36.9,14.3c0-0.8-0.3-1.1-1.1-1.2
			c-0.1,0-0.2,0-0.2,0c-0.2,0-0.4,0.1-0.3,0.3c0,0.6,0,1.2,0,1.8c0,0.2,0.1,0.3,0.3,0.3C36.5,15.7,36.9,15.3,36.9,14.3z"/>
		<path class="st0" d="M44.4,16.5c0,0.8,0.1,1.7,0,2.5c-0.1,1.3-0.8,1.9-2.1,2c-0.4,0-0.8,0-1.2-0.1c-0.8-0.1-1.3-0.6-1.5-1.4
			c-0.1-0.3-0.2-0.7-0.2-1.1c0-1.4-0.1-2.8,0-4.3c0.1-2,1.3-2.5,3-2.4c1.3,0.1,2,1,2.1,2.5C44.5,15.1,44.5,15.8,44.4,16.5
			C44.5,16.5,44.5,16.5,44.4,16.5z M42.8,16.5C42.8,16.5,42.8,16.5,42.8,16.5c0-0.8,0-1.7,0-2.5c0-0.6-0.3-0.9-0.8-0.9
			c-0.5,0-0.8,0.2-0.9,0.8c0,0.1,0,0.3,0,0.4c0,1.4,0,2.8,0,4.3c0,0.2,0,0.3,0.1,0.5c0.1,0.5,0.4,0.7,0.9,0.7c0.5,0,0.8-0.3,0.8-1
			C42.8,18,42.8,17.3,42.8,16.5z"/>
		<path class="st0" d="M76.2,16c0,0.1,0,0.3,0,0.4c0,1.4,0,2.7,0,4.1c0,0.3-0.1,0.4-0.4,0.4c-1.2,0-1,0.2-1-1c0-2.5,0-5,0-7.4
			c0-0.5,0-0.5,0.5-0.6c0.5,0,0.7,0.1,0.9,0.6c0.6,1.4,1.2,2.8,1.9,4.2c0-0.1,0-0.2,0-0.4c0-1.3,0-2.6,0-3.9c0-0.4,0.1-0.5,0.5-0.5
			c1.1,0,0.9-0.1,0.9,0.9c0,2.5,0,5,0,7.5c0,0.2,0.1,0.5-0.2,0.5c-0.5,0.1-0.9,0-1-0.3c-0.6-1.4-1.2-2.8-1.8-4.2
			C76.4,16.3,76.4,16.1,76.2,16C76.3,16,76.3,16,76.2,16z"/>
		<path class="st0" d="M60.9,30.6c0,0.1,0,0.3,0,0.4c0,1.4,0,2.7,0,4.1c0,0.3-0.1,0.4-0.4,0.4c-1.2,0-1,0.2-1-1c0-2.5,0-4.9,0-7.4
			c0-0.2-0.1-0.5,0.2-0.6c0.6-0.1,0.9,0,1.1,0.4c0.6,1.3,1.2,2.7,1.7,4c0.1,0.1,0.1,0.2,0.3,0.3c0-0.2,0-0.4,0-0.5
			c0-1.2,0-2.5,0-3.7c0-0.4,0.1-0.5,0.5-0.5c1.1,0,0.9-0.1,0.9,0.9c0,2.5,0,5,0,7.5c0,0.2,0.1,0.5-0.2,0.5c-0.6,0.1-0.9,0-1-0.4
			c-0.6-1.4-1.2-2.9-1.8-4.3C61,30.7,61,30.7,60.9,30.6C60.9,30.6,60.9,30.6,60.9,30.6z"/>
		<path class="st0" d="M83.7,35.5c-0.5,0-1,0-1.5,0c-0.1,0-0.2-0.2-0.3-0.4c-0.3-1.1-0.6-2.2-0.9-3.3c0-0.1-0.2-0.3-0.3-0.4
			c-0.3-0.1-0.4,0-0.4,0.4c0,1.1,0,2.1,0,3.2c0,0.3-0.1,0.5-0.4,0.5c-1.2,0-1.2,0-1.2-1.2c0-2.4,0-4.8,0-7.2c0-0.4,0.1-0.6,0.5-0.5
			c0.7,0,1.4,0,2.1,0c2.1,0.1,2.5,1.4,2.3,3c-0.1,0.6-0.3,1.1-0.8,1.5c-0.1,0.1-0.1,0.3-0.1,0.4c0.3,1.2,0.7,2.4,1,3.6
			C83.7,35.2,83.7,35.3,83.7,35.5z M80.3,29c0,0.3,0,0.7,0,1c0,0.1,0.1,0.3,0.1,0.3c0.3,0.2,1.1,0,1.3-0.3c0.4-0.6,0.4-1.2,0.1-1.8
			c-0.2-0.5-0.7-0.5-1.1-0.5c-0.3,0-0.4,0.1-0.4,0.4C80.3,28.4,80.3,28.7,80.3,29z"/>
		<path class="st0" d="M52.7,15.9c0,0.4,0,0.8,0,1.2c0,1.1,0,2.3,0,3.4c0,0.7-0.5,0.3-0.8,0.4c-0.3,0-0.6,0.1-0.6-0.4
			c0-1.2,0-2.3,0-3.5c0-1.5,0-3.1,0-4.6c0-0.3,0.1-0.5,0.4-0.4c0.9,0,0.7-0.1,1,0.7c0.5,1.2,1.1,2.5,1.6,3.7
			c0.1,0.1,0.1,0.2,0.3,0.3c0-0.1,0-0.3,0-0.4c0-1.3,0-2.5,0-3.8c0-0.3,0.1-0.5,0.5-0.5c1.1,0,0.9-0.1,0.9,0.9c0,2.5,0,5,0,7.5
			c0,0.2,0.1,0.5-0.2,0.5c-0.5,0.1-0.9,0-1-0.3c-0.6-1.4-1.2-2.9-1.8-4.3C52.9,16.2,52.8,16,52.7,15.9
			C52.7,15.9,52.7,15.9,52.7,15.9z"/>
		<path class="st0" d="M46.9,15.9c0,1.5,0,3,0,4.4c0,0.6,0,0.6-0.6,0.6c-0.9,0-0.8,0.1-0.8-0.8c0-2.5,0-5,0-7.6c0-0.6,0-0.6,0.6-0.6
			c0.5,0,0.7,0.2,0.8,0.6c0.6,1.4,1.2,2.8,1.9,4.2c0-0.1,0-0.3,0-0.4c0-1.3,0-2.5,0-3.8c0-0.4,0.1-0.5,0.5-0.5c1,0,0.9-0.1,0.9,0.9
			c0,2.5,0,5,0,7.6c0,0.2,0.1,0.5-0.2,0.5c-0.5,0.1-0.9,0-1-0.3c-0.6-1.4-1.2-2.9-1.8-4.3C47.1,16.2,47,16.1,46.9,15.9
			C46.9,15.9,46.9,15.9,46.9,15.9z"/>
		<path class="st0" d="M74.2,20.9c-0.5,0-0.9,0-1.4,0c-0.1,0-0.2-0.2-0.2-0.3c-0.1-0.4-0.2-0.9-0.2-1.3c0-0.3-0.2-0.4-0.5-0.4
			c-1.1,0-1.1,0-1.3,1.1c-0.2,1-0.2,1-1.2,1c-0.2,0-0.3,0-0.5,0c0.1-0.6,0.2-1.2,0.3-1.7c0.5-2.3,0.9-4.5,1.4-6.8
			c0.1-0.3,0.2-0.4,0.5-0.4c0.4,0,1-0.1,1.2,0.1c0.3,0.2,0.2,0.8,0.3,1.2c0.5,2.3,1,4.7,1.4,7.1C74.1,20.5,74.1,20.7,74.2,20.9z
			 M71.5,14.5C71.5,14.5,71.5,14.5,71.5,14.5c-0.2,0.9-0.3,1.7-0.5,2.6c-0.1,0.7-0.2,0.7,0.7,0.7c0.2,0,0.3-0.1,0.3-0.3
			C71.8,16.4,71.7,15.5,71.5,14.5z"/>
		<path class="st0" d="M65.2,18c0,0.3,0.1,0.5,0.1,0.8c0.1,0.2,0.1,0.4,0.3,0.6c0.2,0.3,0.5,0.4,0.8,0.3c0.4-0.1,0.5-0.4,0.5-0.7
			c0-0.6-0.2-1-0.6-1.4c-0.5-0.5-1-0.9-1.5-1.3c-0.9-0.8-1.3-1.7-1-2.8c0.1-0.4,0.3-0.8,0.6-1c0.8-0.7,1.7-0.7,2.7-0.4
			c0.9,0.3,1.1,1.1,1.2,1.9c0,0.3-0.1,0.4-0.3,0.4c-0.3,0.1-0.7,0.1-1,0.2c-0.1-0.3-0.1-0.5-0.1-0.8c-0.1-0.5-0.4-0.7-0.9-0.7
			c-0.5,0.1-0.7,0.4-0.6,0.9c0.1,0.4,0.3,0.7,0.6,1c0.4,0.5,1,0.8,1.4,1.3c0.8,0.7,1.2,1.6,1.1,2.7c-0.1,1-0.8,1.8-1.8,1.9
			c-1.7,0.3-2.9-0.7-3-2.4c0-0.1,0.1-0.3,0.2-0.4C64.4,18.1,64.8,18.1,65.2,18z"/>
		<path class="st0" d="M33.5,31c0-1.3,0-2.7,0-4c0-0.4,0.1-0.5,0.5-0.5c1,0,2,0,2.9,0c0.3,0,0.4,0.1,0.4,0.4c0,0.9,0.1,0.8-0.7,0.8
			c-0.4,0-0.7,0-1.1,0c-0.2,0-0.3,0.1-0.3,0.3c0,0.6,0,1.3,0,1.9c0,0.2,0.1,0.3,0.3,0.3c0.3,0,0.7,0,1,0c0.2,0,0.3,0.1,0.3,0.3
			c0.1,0.9,0.1,0.9-0.8,0.9c-0.9,0-0.8-0.1-0.8,0.8c0,0.5,0,1.1,0,1.6c0,0.3,0.1,0.4,0.4,0.4c0.4,0,0.9,0,1.3,0
			c0.3,0,0.4,0.1,0.4,0.3c0,1,0.1,0.8-0.8,0.8c-0.9,0-1.7,0-2.6,0c-0.4,0-0.5-0.1-0.5-0.5C33.6,33.7,33.5,32.4,33.5,31z"/>
		<path class="st0" d="M54.7,31c0-1.3,0-2.7,0-4c0-0.3,0.1-0.5,0.4-0.5c1,0,2,0,2.9,0c0.3,0,0.4,0.1,0.4,0.4c0,0.9,0.1,0.8-0.8,0.8
			c-0.4,0-0.7,0-1.1,0c-0.1,0-0.3,0.2-0.3,0.3c0,0.6,0,1.3,0,2c0,0.2,0.1,0.3,0.3,0.3c0.3,0,0.7,0,1,0c0.3,0,0.4,0.1,0.4,0.3
			c0,0.9,0.1,0.9-0.8,0.9c-1,0-0.8-0.1-0.9,0.9c0,0.5,0,1.1,0,1.6c0,0.3,0.1,0.4,0.4,0.4c0.5,0,0.9,0,1.4,0c0.3,0,0.4,0.1,0.4,0.4
			c0,0.8,0,0.8-0.7,0.8c-0.9,0-1.7,0-2.6,0c-0.4,0-0.5-0.1-0.5-0.5C54.8,33.7,54.7,32.3,54.7,31z"/>
		<path class="st0" d="M69.3,31c0-1.3,0-2.7,0-4c0-0.4,0.1-0.5,0.5-0.5c1,0,1.9,0,2.9,0c0.3,0,0.5,0.1,0.4,0.4
			c0,0.9,0.1,0.8-0.8,0.8c-0.4,0-0.7,0-1.1,0c-0.2,0-0.3,0.1-0.3,0.3c0,0.6,0,1.2,0,1.9c0,0.2,0.1,0.3,0.3,0.3c0.4,0,0.7,0,1.1,0
			c0.1,0,0.2,0.2,0.3,0.3c0,0,0,0.1,0,0.1c0,0.8,0,0.8-0.8,0.8c-0.9,0-0.9,0-0.9,0.9c0,0.5,0,1.1,0,1.6c0,0.3,0.1,0.4,0.4,0.4
			c0.5,0,0.9,0,1.4,0c0.3,0,0.4,0.1,0.4,0.4c0,0.8,0,0.8-0.8,0.8c-0.8,0-1.6,0-2.4,0c-0.6,0-0.6,0-0.6-0.6
			C69.3,33.6,69.3,32.3,69.3,31z"/>
		<path class="st0" d="M84.8,31c0-1.3,0-2.7,0-4c0-0.3,0.1-0.5,0.4-0.5c1,0,2,0,2.9,0c0.3,0,0.4,0.1,0.4,0.4c0,1,0.1,0.8-0.8,0.8
			c-0.3,0-0.7,0-1,0c-0.2,0-0.3,0.1-0.3,0.3c0,0.6,0,1.3,0,1.9c0,0.2,0.1,0.3,0.3,0.3c0.3,0,0.7,0,1,0c0.2,0,0.3,0.1,0.4,0.3
			c0.1,0.9,0.1,0.9-0.8,0.9c-1,0-0.8-0.1-0.8,0.8c0,0.6,0,1.1,0,1.7c0,0.3,0.1,0.4,0.4,0.4c0.5,0,0.9,0,1.4,0c0.3,0,0.4,0.1,0.4,0.4
			c0,0.8,0,0.8-0.8,0.8c-0.9,0-1.7,0-2.6,0c-0.3,0-0.4-0.1-0.4-0.4C84.8,33.7,84.8,32.4,84.8,31z"/>
		<path class="st0" d="M85,16.4c0-1.3,0-2.7,0-4c0-0.4,0.1-0.5,0.5-0.5c0.9,0,1.9,0,2.8,0c0.3,0,0.5,0.1,0.5,0.5
			c0,0.9,0.1,0.8-0.8,0.8c-0.3,0-0.7,0-1,0c-0.2,0-0.4,0.1-0.3,0.3c0,0.6,0,1.2,0,1.9c0,0.3,0.1,0.3,0.3,0.3c0.3,0,0.7,0,1,0
			c0.3,0,0.4,0.1,0.4,0.4c0,0.9,0.1,0.8-0.8,0.8c-1,0-0.9-0.1-0.9,0.9c0,0.5,0,1.1,0,1.6c0,0.3,0.1,0.4,0.4,0.4c0.5,0,0.9,0,1.4,0
			c0.3,0,0.4,0.1,0.4,0.4c0,0.8,0,0.8-0.7,0.8c-0.9,0-1.8,0-2.6,0c-0.4,0-0.5-0.1-0.5-0.5C85,19.1,85,17.8,85,16.4z"/>
		<path class="st0" d="M57,16.4c0-1.3,0-2.7,0-4c0-0.3,0.1-0.4,0.4-0.4c1,0,2,0,3,0c0.3,0,0.4,0.1,0.4,0.4c0,1,0.1,0.8-0.8,0.8
			c-0.3,0-0.7,0-1,0c-0.2,0-0.3,0.1-0.3,0.3c0,0.6,0,1.3,0,1.9c0,0.1,0.2,0.3,0.3,0.3c0.4,0,0.7,0,1.1,0c0.1,0,0.3,0.2,0.3,0.3
			c0.1,0.9,0.1,0.9-0.8,0.9c-1,0-0.9-0.1-0.9,0.9c0,0.5,0,1,0,1.5c0,0.6,0,0.6,0.6,0.6c0.4,0,0.8,0,1.2,0c0.3,0,0.4,0.1,0.4,0.4
			c0,0.8,0,0.8-0.7,0.8c-0.9,0-1.8,0-2.7,0c-0.3,0-0.4-0.1-0.4-0.4C57,19.2,57,17.8,57,16.4z"/>
		<path class="st0" d="M74.9,31.6c0-1.1,0-2.2,0-3.4c0-0.3-0.1-0.5-0.4-0.4c-0.1,0-0.1,0-0.2,0c-1,0-0.9,0.2-0.9-1
			c0-0.1,0.2-0.3,0.3-0.3c1.3,0,2.7,0,4,0c0.2,0,0.3,0.1,0.3,0.3c0,1.1,0.1,0.9-0.9,1c-0.6,0-0.6,0-0.6,0.6c0,2.2,0,4.4,0,6.6
			c0,0.5,0,0.5-0.5,0.5c-0.2,0-0.5,0-0.7,0c-0.3,0-0.4-0.1-0.4-0.4C74.9,33.9,74.9,32.8,74.9,31.6z"/>
		<path class="st0" d="M39.1,31.7c0-1.1,0-2.3,0-3.4c0-0.3-0.1-0.5-0.4-0.4c-0.1,0-0.2,0-0.2,0c-0.9,0-1-0.1-0.8-1
			c0-0.1,0.2-0.3,0.3-0.3c1.3,0,2.7,0,4,0c0.1,0,0.2,0.2,0.3,0.3c0,0,0,0.1,0,0.1c0,1,0.1,0.9-0.9,0.9c-0.6,0-0.6,0-0.6,0.6
			c0,2.2,0,4.4,0,6.6c0,0.4-0.1,0.6-0.5,0.5c-0.3,0-0.5,0-0.8,0c-0.3,0-0.4-0.1-0.4-0.4C39.1,34,39.1,32.8,39.1,31.7z"/>
		<path class="st0" d="M81.5,17.1c0-1.2,0-2.3,0-3.5c0-0.3-0.1-0.4-0.4-0.4c-0.1,0-0.2,0-0.3,0c-0.8,0-1-0.2-0.8-1
			c0-0.1,0.2-0.2,0.3-0.2c1.4,0,2.7,0,4.1,0c0.1,0,0.2,0.1,0.2,0.2c0,0.3,0,0.6,0,0.9c0,0.1-0.1,0.2-0.2,0.2c-0.2,0-0.4,0-0.7,0
			c-0.5,0-0.5,0-0.5,0.5c0,2.1,0,4.2,0,6.3c0,1,0.1,0.8-0.8,0.8c-1,0-0.8,0.1-0.8-0.8C81.4,19.1,81.5,18.1,81.5,17.1z"/>
		<path class="st0" d="M53.4,31c0,1.3,0,2.7,0,4c0,0.4-0.1,0.5-0.5,0.5c-1.2,0-1.2,0-1.2-1.2c0-2.4,0-4.8,0-7.3
			c0-0.4,0.1-0.5,0.5-0.5c1.1,0,1.1,0,1.1,1.1C53.4,28.8,53.4,29.9,53.4,31z"/>
		<path class="st0" d="M72.9,25.8c-1.1,0.4-1.4-0.3-1.7-1.2c-0.2,0.3-0.3,0.5-0.3,0.7c-0.1,0.5-0.4,0.6-0.9,0.6c-0.1,0-0.3,0-0.5,0
			c0.3-0.7,0.6-1.3,1-1.9c0-0.1,0.2-0.1,0.3-0.1c1.1-0.1,1.1-0.1,1.6,0.9C72.5,25,72.7,25.4,72.9,25.8z"/>
		<path class="st0" d="M66.7,32.5c-0.3,0-0.7,0-1,0c-0.3,0-0.4-0.1-0.4-0.4c0-0.1,0-0.3,0-0.4c0-0.2,0.1-0.3,0.3-0.3
			c0.7,0,1.4,0,2.1,0c0.2,0,0.3,0.1,0.3,0.3c0,0.1,0,0.3,0,0.4c0,0.2-0.1,0.3-0.3,0.3C67.4,32.5,67.1,32.5,66.7,32.5
			C66.7,32.5,66.7,32.5,66.7,32.5z"/>
		<path class="st0" d="M88.7,9c-0.5,0.8-0.8,1.5-1.3,2.1c-0.1,0.2-0.6,0.1-0.9,0.2c0.2-0.8,0.4-1.4,0.6-2.1c0-0.1,0.2-0.2,0.2-0.2
			C87.8,9,88.2,9,88.7,9z"/>
	</g>
</g>
</svg>
