<?xml version="1.0" encoding="utf-8"?>
<!-- Generator: Adobe Illustrator 25.0.1, SVG Export Plug-In . SVG Version: 6.00 Build 0)  -->
<svg version="1.1" id="Layer_1" xmlns="http://www.w3.org/2000/svg" xmlns:xlink="http://www.w3.org/1999/xlink" x="0px" y="0px"
	 viewBox="0 0 125 125" style="enable-background:new 0 0 125 125;" xml:space="preserve">
<style type="text/css">
	.st0{fill:#D2D1D3;}
</style>
<g>
	<g>
		<path class="st0" d="M80.3,54.3c0,0.3,0,0.4,0,0.6c0,13.4,0,26.7,0,40.1c0,0.4-0.1,0.6-0.5,0.7c-7.1,2.1-14.1,4.2-21.2,6.4
			c-0.2,0-0.3,0.1-0.5,0.1c0-0.2,0-0.3,0-0.5c0-11.4,0-22.8,0-34.1c0-0.3,0.1-0.5,0.4-0.7c7.1-4.1,14.2-8.2,21.3-12.3
			C79.9,54.5,80,54.4,80.3,54.3z"/>
		<path class="st0" d="M33.5,54.3c0.2,0.1,0.3,0.2,0.5,0.2c7.1,4.1,14.2,8.2,21.3,12.3c0.3,0.2,0.4,0.3,0.4,0.6
			c0,11.4,0,22.8,0,34.2c0,0.1,0,0.3,0,0.5c-0.2,0-0.3-0.1-0.5-0.1C48.1,99.9,41,97.7,34,95.6c-0.4-0.1-0.4-0.3-0.4-0.6
			c0-7.1,0-14.2,0-21.2c0-6.3,0-12.6,0-19C33.5,54.7,33.5,54.5,33.5,54.3z"/>
		<path class="st0" d="M31.3,54.3c0,0.2,0,0.4,0,0.6c0,14.1,0,28.2,0,42.2c0,0.5,0.1,0.6,0.6,0.8c7.8,2.2,15.6,4.4,23.4,6.5
			c1.1,0.3,2.3,0.3,3.5-0.1c7.8-2.5,15.5-5,23.3-7.5c0.5-0.1,0.6-0.3,0.6-0.8c0-13.7,0-27.4,0-41.1c0-0.2,0-0.4,0-0.6
			c0.1,0,0.1,0,0.1,0c0.7,0.6,1.4,1.1,2.1,1.7c0.1,0,0.1,0.2,0.1,0.3s0,0.3,0,0.4c0,13.7,0,27.3,0,41c0,0.8,0,0.6-0.6,0.8
			c-6.5,2.1-13.1,4.1-19.6,6.2c-2.1,0.7-4.1,1.3-6.2,2c-0.2,0.1-0.4,0.1-0.7,0.1c-2.2,0.3-4.3-0.5-6.4-1.1c-7.4-2-14.8-4.1-22.2-6.1
			c-0.4-0.1-0.5-0.2-0.5-0.6c0-14.1,0-28.3,0-42.4c0-0.3,0.1-0.5,0.4-0.7c0.7-0.5,1.3-1,2-1.6C31.2,54.2,31.2,54.2,31.3,54.3z"/>
		<path class="st0" d="M94.9,103.8c-0.3-1.1-0.6-2.2-0.9-3.2c-0.5-1.7-1-3.5-1.5-5.2c-0.1-0.3-0.1-0.6-0.1-0.9c0-11.9,0-23.9,0-35.8
			c0-0.5,0-0.5,0.5-0.5c1.4,0,2.8,0,4.2,0c0.5,0,0.5,0,0.5,0.5c0,5.8,0,11.6,0,17.4c0,6.1,0,12.2,0,18.4c0,0.2,0,0.5-0.1,0.7
			c-0.8,2.8-1.6,5.6-2.4,8.4c0,0.1-0.1,0.2-0.1,0.3C95,103.8,94.9,103.8,94.9,103.8z"/>
		<path class="st0" d="M21.8,19.2c0,2.2,0,4.4,0,6.6c0,0.7-0.1,0.6,0.7,0.6c0.4,0,0.9,0,1.3,0c0.2,0,0.3,0.1,0.3,0.3
			c0,0.9,0,1.8,0,2.8c0,0.2-0.1,0.3-0.3,0.3c-0.5,0-1,0-1.5,0c-0.3,0-0.5,0.1-0.5,0.5c0,1.5,0,3,0,4.6c0,0.4-0.1,0.6-0.5,0.5
			c-1.1,0-2.1,0-3.2,0c-0.3,0-0.4-0.1-0.4-0.4c0-1.5,0-3,0-4.6c0-0.6,0-0.6-0.5-0.6c-1.9,0-3.9,0-5.8,0c-0.8,0-0.7,0.1-0.7-0.8v-0.1
			c-0.2-1.8,0.3-3.5,1-5.2c1.7-3.8,3.3-7.6,4.9-11.4c0.2-0.4,0.4-0.5,0.8-0.5c1.3,0,2.7,0,4,0c0.4,0,0.5,0.1,0.5,0.5
			C21.8,14.7,21.8,16.9,21.8,19.2z M17.7,16.9L17.7,16.9c-1.2,3.1-2.3,6.3-3.4,9.5c1.2,0,2.3,0,3.4,0C17.7,23.2,17.7,20.1,17.7,16.9
			z"/>
		<path class="st0" d="M50.7,35.4c0.1,0.1,0.2,0.2,0.3,0.3c0.6,0.7,0.6,0.7,0.2,1.7c-0.2-0.2-0.5-0.3-0.7-0.5
			c-0.6-0.7-1.2-1.2-2.2-1.3s-1.3-1-1.5-1.9c-0.1-0.4-0.1-0.8-0.1-1.3c0-1.2,0-2.4,0.1-3.6c0.1-1.8,1.3-2.4,3-2.3
			c1.3,0.1,2,0.8,2.1,2c0.1,1.6,0.1,3.3,0,5C51.8,34.2,51.5,34.9,50.7,35.4z M50.2,31L50.2,31c0-0.8,0-1.7,0-2.5
			c0-0.6-0.3-0.8-0.8-0.9c-0.5,0-0.8,0.2-0.9,0.8c0,0.1,0,0.3,0,0.4c0,1.4,0,2.8,0,4.2c0,0.2,0,0.4,0.1,0.6c0.1,0.4,0.3,0.5,0.7,0.6
			c0.6,0,1-0.2,1-0.9C50.2,32.6,50.2,31.8,50.2,31z"/>
		<path class="st0" d="M33.5,31c0-1.3,0-2.7,0-4c0-0.3,0.1-0.5,0.5-0.5c0.8,0,1.6,0,2.4,0.1c1.3,0.1,2,0.7,2.1,2
			c0.1,1.7,0.1,3.3,0,5c-0.1,1.2-0.9,1.8-2,1.9c-0.8,0-1.7,0-2.5,0c-0.3,0-0.3-0.2-0.3-0.4C33.5,33.7,33.5,32.4,33.5,31z M35.3,34.3
			c1.1,0.2,1.5-0.1,1.5-1.1c0-1.4,0-2.8,0-4.3c0-0.9-0.6-1.3-1.5-1C35.3,30,35.3,32.1,35.3,34.3z"/>
		<path class="st0" d="M38.3,16.4c0-1.4,0-2.7,0-4.1c0-0.3,0.1-0.4,0.4-0.4c0.9,0,1.7,0,2.6,0.1c1.2,0.1,1.9,0.8,1.9,2
			c0,1.6,0.1,3.1,0,4.7c0,1.4-0.9,2.1-2.2,2.2c-0.8,0-1.5,0-2.3,0c-0.3,0-0.4-0.1-0.4-0.4C38.3,19.2,38.3,17.8,38.3,16.4z M40,19.7
			c1,0.2,1.5-0.1,1.5-1c0.1-1.2,0-2.4,0-3.7c0-0.4,0-0.8-0.1-1.1c0-0.3-0.2-0.6-0.6-0.6c-0.3-0.1-0.6-0.1-0.9-0.1
			C40,15.4,40,17.6,40,19.7z"/>
		<path class="st0" d="M75,16.5c0,0.8,0.1,1.5,0,2.3c-0.2,1.8-1.3,2.4-2.9,2.3c-1.5-0.1-2.1-0.8-2.2-2.3c-0.1-1.6-0.1-3.2,0-4.8
			c0.1-1.3,0.9-2,2.2-2c0.2,0,0.4,0,0.6,0c1.3,0.1,2.1,0.8,2.3,2.1C75,14.8,75,15.6,75,16.5L75,16.5z M71.5,16.4L71.5,16.4
			c0,0.7,0,1.4,0,2.1c0,0.2,0,0.4,0.1,0.6c0.1,0.5,0.3,0.6,0.8,0.6s0.7-0.2,0.8-0.6c0-0.2,0.1-0.3,0.1-0.5c0-1.4,0-2.9,0-4.3
			c0-0.2,0-0.5-0.1-0.6c-0.1-0.2-0.3-0.4-0.5-0.5c-0.6-0.2-1.1,0.2-1.1,0.9C71.5,14.9,71.5,15.6,71.5,16.4z"/>
		<path class="st0" d="M79.5,16.8c0-1.5,0-2.9,0-4.3c0-0.5,0-0.5,0.6-0.5c0.8,0,0.8,0,0.8,0.8c0,2.5,0,5.1,0,7.6
			c0,0.2,0.1,0.5-0.2,0.5c-0.5,0.1-0.9,0-1.1-0.3c-0.6-1.5-1.2-3-1.8-4.4c0,0,0-0.1-0.1-0.2c0,0.1,0,0.2,0,0.3c0,1.4,0,2.8,0,4.1
			c0,0.4-0.1,0.5-0.5,0.5c-1,0-1,0-1-1c0-2.5,0-5,0-7.5c0-0.4,0.1-0.5,0.5-0.5c0.8,0,0.6-0.1,0.9,0.6c0.6,1.3,1.1,2.5,1.6,3.8
			C79.3,16.5,79.4,16.6,79.5,16.8z"/>
		<path class="st0" d="M47.8,15.4c0-1,0-2,0-3c0-0.3,0.1-0.4,0.4-0.4c0.3,0,0.6,0,0.9,0c0.2,0,0.3,0.1,0.3,0.3c0,2.1,0,4.3-0.1,6.4
			c-0.1,1.7-1,2.5-2.9,2.3c-1.4-0.1-2.1-0.9-2.1-2.3c-0.1-2.2,0-4.3-0.1-6.5c0-0.3,0.1-0.4,0.4-0.4c0.3,0,0.6,0,0.9,0
			c0.3,0,0.4,0.1,0.4,0.4c0,1.9,0,3.8,0,5.7c0,0.4,0,0.7,0.1,1c0.1,0.5,0.4,0.7,0.8,0.7c0.4,0,0.7-0.2,0.8-0.7
			c0.1-0.3,0.1-0.5,0.1-0.8C47.8,17.3,47.8,16.4,47.8,15.4z"/>
		<path class="st0" d="M52.9,30.1c0-1,0-2.1,0-3.1c0-0.4,0.1-0.5,0.5-0.5c1.2,0,1.2,0,1.2,1.2c0,1.6,0,3.3,0,4.9
			c0,0.4,0.1,0.8,0.1,1.2c0.1,0.4,0.4,0.6,0.8,0.6c0.4,0,0.7-0.2,0.8-0.6c0.1-0.4,0.1-0.8,0.1-1.2c0-1.9,0-3.7,0-5.6
			c0-0.3,0.1-0.4,0.4-0.5c1.2,0,1.2,0,1.2,1.2c0,1.6,0,3.2,0,4.8c0,0.6-0.1,1.1-0.2,1.7c-0.2,0.7-0.7,1.2-1.4,1.3
			c-0.6,0.1-1.2,0.1-1.8,0c-1-0.2-1.5-1-1.6-2.2C52.9,32.3,53,31.2,52.9,30.1C53,30.1,53,30.1,52.9,30.1z"/>
		<path class="st0" d="M50.6,16.5c0-0.7,0-1.5,0-2.2c0.1-0.9,0.3-1.7,1.1-2.1c1-0.4,2-0.5,2.9,0.1c0.7,0.4,0.9,1.1,0.9,1.9
			c0,1.4,0.2,1.1-1.1,1.2c-0.6,0-0.6,0-0.6-0.6c0-0.3,0-0.6,0-0.9c0-0.5-0.3-0.7-0.7-0.7s-0.8,0.2-0.8,0.7c0,0.2-0.1,0.5-0.1,0.7
			c0,1.3,0,2.6,0,3.9c0,0.2,0,0.5,0.1,0.7c0.1,0.5,0.4,0.7,0.9,0.7c0.4,0,0.7-0.3,0.7-0.8c0-0.4,0-0.7,0-1.1c0-0.2,0.1-0.4,0.3-0.4
			c0.3,0,0.7,0,1,0c0.1,0,0.3,0.2,0.3,0.2c0,0.6,0,1.3-0.2,1.8c-0.3,1-1.3,1.5-2.5,1.4c-1.5-0.2-2.2-0.9-2.3-2.4
			C50.6,17.9,50.6,17.2,50.6,16.5L50.6,16.5z"/>
		<path class="st0" d="M61.6,20.9c-0.5,0-0.9,0-1.4,0c-0.1,0-0.2-0.2-0.3-0.3c-0.1-0.5-0.2-1-0.3-1.4c0-0.1-0.2-0.3-0.3-0.3
			c-1.2-0.1-1.2-0.1-1.4,1.1c-0.2,1-0.2,1-1.2,1c-0.2,0-0.3,0-0.6,0c0.2-0.8,0.3-1.6,0.5-2.4c0.4-2,0.8-4,1.2-6
			c0.1-0.6,0.1-0.6,0.7-0.6c1.2,0,1.2,0,1.4,1.1c0.5,2.5,1,4.9,1.5,7.4C61.6,20.6,61.6,20.7,61.6,20.9z M59,14.6
			C59,14.6,58.9,14.6,59,14.6c-0.2,1-0.4,2.1-0.6,3.1c0.4,0,0.7,0,1.1,0C59.3,16.6,59.1,15.6,59,14.6z"/>
		<path class="st0" d="M58.7,35.5c0.1-0.4,0.1-0.7,0.2-1.1c0.5-2.5,1-5,1.5-7.5c0.1-0.3,0.2-0.4,0.5-0.4s0.7,0,1,0
			c0.2,0,0.4,0.1,0.4,0.3c0.6,2.8,1.1,5.6,1.7,8.4c0,0,0,0.1,0,0.2c-0.5,0-0.9,0-1.4,0c-0.1,0-0.2-0.2-0.2-0.3
			c-0.1-0.5-0.2-0.9-0.2-1.4c0-0.3-0.2-0.3-0.4-0.3c-1.1,0-1.1,0-1.3,1.1c-0.2,1-0.2,1-1.1,1C59.1,35.5,58.9,35.5,58.7,35.5z
			 M61.4,29.1L61.4,29.1c-0.2,1.1-0.4,2.1-0.6,3.2c0.3,0,0.5,0,0.8,0s0.4-0.1,0.3-0.4C61.7,31,61.6,30.1,61.4,29.1z"/>
		<path class="st0" d="M95,56.1c-0.8,0-1.5,0-2.3,0c-0.3,0-0.4-0.1-0.4-0.4c0-0.9,0-1.8,0-2.6c0-1.4,1.2-2.5,2.7-2.5
			c1.4,0,2.6,1.2,2.6,2.5c0,0.9,0,1.7,0,2.6c0,0.3-0.1,0.4-0.4,0.4C96.4,56.1,95.7,56.1,95,56.1z"/>
		<path class="st0" d="M33.5,16.4c0-1.3,0-2.7,0-4c0-0.4,0.1-0.5,0.5-0.5c1,0,2,0,3,0c0.3,0,0.4,0.1,0.4,0.4c0,1,0.1,0.8-0.8,0.8
			c-0.3,0-0.7,0-1,0c-0.2,0-0.3,0.1-0.3,0.3c0,0.6,0,1.2,0,1.9c0,0.3,0.1,0.3,0.3,0.3c0.3,0,0.7,0,1,0c0.1,0,0.3,0.2,0.3,0.3
			c0.1,0.9,0.1,0.9-0.8,0.9c-0.8,0-0.8,0-0.8,0.8c0,0.5,0,1.1,0,1.6c0,0.3,0.1,0.5,0.4,0.5c0.4,0,0.8,0,1.3,0c0.3,0,0.4,0.1,0.4,0.4
			c0,0.9,0.1,0.8-0.8,0.8c-0.9,0-1.8,0-2.6,0c-0.3,0-0.4-0.1-0.4-0.4C33.5,19.2,33.5,17.8,33.5,16.4z"/>
		<path class="st0" d="M77,31c0-1.3,0-2.7,0-4c0-0.3,0.1-0.5,0.4-0.4c1,0,2,0,2.9,0c0.3,0,0.5,0.1,0.4,0.4c0,0.9,0.1,0.8-0.8,0.8
			c-0.3,0-0.7,0-1,0s-0.4,0.1-0.4,0.3c0,0.6,0,1.2,0,1.8c0,0.3,0.1,0.3,0.4,0.3s0.7,0,1,0c0.2,0,0.3,0.1,0.3,0.3
			c0,1.1,0.1,0.9-0.9,0.9c-0.9,0-0.8-0.1-0.8,0.8c0,0.6,0,1.1,0,1.7c0,0.3,0.1,0.4,0.4,0.4c0.5,0,0.9,0,1.4,0c0.3,0,0.4,0.1,0.4,0.4
			c0,0.8,0,0.8-0.8,0.8c-0.9,0-1.8,0-2.6,0c-0.3,0-0.4-0.1-0.4-0.4C77,33.7,77,32.4,77,31z"/>
		<path class="st0" d="M41.3,30.3c0.5,0,0.9,0,1.4,0c0.2,0,0.3,0.1,0.3,0.3c0,1.1,0.1,0.9-0.8,0.9c-0.8,0-0.8,0-0.8,0.8
			c0,0.6,0,1.1,0,1.7c0,0.3,0.1,0.4,0.4,0.3c0.5,0,0.9,0,1.4,0c0.3,0,0.4,0.1,0.4,0.4c0,1,0.1,0.8-0.8,0.8c-0.9,0-1.8,0-2.6,0
			c-0.3,0-0.4-0.1-0.4-0.4c0-2.7,0-5.5,0-8.2c0-0.3,0.1-0.4,0.4-0.4c1,0,2,0,3,0c0.3,0,0.4,0.1,0.4,0.4c0,1,0.1,0.8-0.8,0.8
			c-0.3,0-0.7,0-1,0c-0.1,0-0.3,0.2-0.3,0.2C41.3,28.7,41.3,29.5,41.3,30.3z"/>
		<path class="st0" d="M73.2,31.7c0-1.1,0-2.3,0-3.4c0-0.4-0.1-0.5-0.5-0.4c-0.1,0-0.1,0-0.2,0c-0.9,0-1-0.1-0.9-1
			c0-0.1,0.2-0.3,0.3-0.3c1.4,0,2.7,0,4.1,0c0.1,0,0.2,0.1,0.2,0.1c0,0.3,0,0.6,0,1c0,0.1-0.2,0.1-0.2,0.1c-0.2,0-0.5,0-0.7,0
			c-0.3,0-0.4,0.1-0.4,0.4c0,0.9,0,1.8,0,2.6c0,1.4,0,2.8,0,4.1c0,0.4-0.1,0.5-0.5,0.5c-0.2,0-0.5,0-0.7,0c-0.4,0-0.5-0.1-0.5-0.5
			C73.2,33.9,73.2,32.8,73.2,31.7z"/>
		<path class="st0" d="M64.7,17.1c0,1.1,0,2.3,0,3.4c0,0.3-0.1,0.4-0.4,0.4c-1.2,0-1.2,0-1.2-1.2c0-2,0-4.1,0-6.1
			c0-0.3-0.1-0.5-0.4-0.4c-0.1,0-0.2,0-0.3,0c-0.8,0-1-0.2-0.8-1c0-0.1,0.2-0.2,0.3-0.2c1.4,0,2.7,0,4.1,0c0.1,0,0.3,0.2,0.3,0.3
			c0.1,1,0.1,1-0.9,1c-0.6,0-0.6,0-0.6,0.6C64.7,14.9,64.7,16,64.7,17.1z"/>
		<path class="st0" d="M64.8,31c0-1.3,0-2.7,0-4c0-0.3,0.1-0.5,0.4-0.5c1.2,0,1.2,0,1.2,1.2c0,2,0,4,0,6.1c0,0.5,0,0.5,0.5,0.5
			c0.4,0,0.8,0,1.3,0c0.2,0,0.3,0.1,0.3,0.3c0,1,0.1,0.8-0.8,0.8s-1.7,0-2.6,0c-0.3,0-0.4-0.1-0.4-0.4C64.9,33.8,64.8,32.4,64.8,31z
			"/>
		<path class="st0" d="M69.4,31c0-1.3,0-2.7,0-4c0-0.4,0.1-0.5,0.5-0.5c1.2,0,1.2,0,1.2,1.2c0,2.4,0,4.8,0,7.2c0,0.5,0,0.5-0.5,0.5
			c-1.2,0-1.2,0-1.2-1.1C69.4,33.3,69.4,32.2,69.4,31z"/>
		<path class="st0" d="M68.6,16.4c0,1.3,0,2.7,0,4c0,0.4-0.1,0.5-0.5,0.5c-1.2,0-1.2,0-1.2-1.2c0-2.4,0-4.8,0-7.2
			c0-0.6,0-0.6,0.6-0.6c0.2,0,0.4,0,0.6,0c0.3,0,0.4,0.1,0.4,0.4C68.6,13.7,68.6,15.1,68.6,16.4z"/>
		<path class="st0" d="M78.4,25.8c0.2-0.7,0.4-1.3,0.6-2c0-0.1,0.2-0.2,0.3-0.2c0.4,0,0.8,0,1.3,0c-0.1,0.2-0.1,0.3-0.2,0.4
			c-0.3,0.5-0.6,1-0.9,1.4C79.3,25.9,79.1,26,78.4,25.8z"/>
		<path class="st0" d="M37.3,9c-0.5,0.8-0.8,1.5-1.3,2.1c-0.1,0.2-0.6,0.1-0.9,0.2L35,11.2c0.2-0.7,0.4-1.4,0.6-2
			c0-0.1,0.1-0.1,0.2-0.1C36.3,9,36.7,9,37.3,9z"/>
	</g>
</g>
</svg>
