<?xml version="1.0" encoding="utf-8"?>
<!-- Generator: Adobe Illustrator 25.0.1, SVG Export Plug-In . SVG Version: 6.00 Build 0)  -->
<svg version="1.1" id="Layer_1" xmlns="http://www.w3.org/2000/svg" xmlns:xlink="http://www.w3.org/1999/xlink" x="0px" y="0px"
	 viewBox="0 0 125 125" style="enable-background:new 0 0 125 125;" xml:space="preserve">
<style type="text/css">
	.st0{fill:#D2D1D3;}
</style>
<g>
	<g>
		<path class="st0" d="M74.7,59.8c2.2-2.2,4.4-4.4,6.6-6.6c-0.1,0-0.3,0-0.4,0c-1.7,0-3.4,0-5.1,0c-0.5,0-0.6,0-0.6-0.5
			c0-1.5,0-3,0-4.5c0-0.4,0.1-0.5,0.5-0.5c4.9,0,9.8,0,14.7,0c0.4,0,0.5,0.1,0.5,0.5c0,4.9,0,9.8,0,14.8c0,0.3-0.1,0.5-0.5,0.5
			c-1.5,0-3.1,0-4.6,0c-0.4,0-0.5-0.1-0.5-0.5c0-1.6,0-3.2,0-4.8c0-0.1,0-0.3,0-0.5c-0.1,0.1-0.2,0.2-0.3,0.3c-2,2-4,4-6,6
			c-0.2,0.2-0.2,0.3,0,0.6c2.1,3.1,3.2,6.5,3.4,10.2c0.5,9.9-6.5,18.9-16.3,20.7c-0.3,0.1-0.4,0.2-0.4,0.5c0,1.7,0,3.4,0,5
			c0,0.4,0.1,0.5,0.5,0.5c1.7,0,3.5,0,5.2,0c0.5,0,0.5,0,0.5,0.5c0,1.6,0,3.2,0,4.8c0,0.4-0.2,0.5-0.5,0.5c-1.7,0-3.4,0-5.2,0
			c-0.4,0-0.5,0.1-0.5,0.5c0,1.6,0,3.2,0,4.8c0,0.6,0,0.6-0.6,0.6c-1.6,0-3.1,0-4.7,0c-0.6,0-0.6,0-0.6-0.6c0-1.6,0-3.2,0-4.8
			c0-0.4-0.1-0.5-0.5-0.5c-1.7,0-3.4,0-5.1,0c-0.6,0-0.6,0-0.6-0.6c0-1.5,0-3.1,0-4.6c0-0.6,0-0.6,0.6-0.6c1.7,0,3.4,0,5.1,0
			c0.4,0,0.5-0.1,0.5-0.5c0-1.6,0-3.3,0-4.9c0-0.4-0.1-0.5-0.5-0.5c-8.1-1.5-13.7-6.2-16.1-14.1c-2.3-7.4-0.5-14.1,4.9-19.8
			c3.3-3.4,7.3-5.4,12-5.9c5.2-0.6,10,0.7,14.3,3.9C74.4,59.6,74.5,59.7,74.7,59.8C74.6,59.7,74.7,59.8,74.7,59.8z M47.7,75.6
			c0,8.1,6.6,14.7,14.7,14.7c8,0,14.6-6.6,14.7-14.4c0.1-8-6.3-15-14.7-15C54.3,60.9,47.7,67.5,47.7,75.6z"/>
		<path class="st0" d="M15.3,20.8c1.1-0.8,2.3-1,3.6-1c1.7,0,2.8,0.8,3.6,2.3c0.5,1,0.8,2.1,0.9,3.2c0.2,2.1,0.1,4.2-0.3,6.2
			c-0.6,2.5-2.3,4-4.9,4.2c-1,0.1-2,0-2.9-0.1c-2-0.3-3.3-1.5-3.7-3.5c-0.2-1-0.3-2.1-0.4-3.1c0-0.3,0.1-0.4,0.4-0.4
			c1.2,0,2.4,0,3.6,0c0.3,0,0.4,0.1,0.4,0.4c0.1,0.8,0.1,1.5,0.3,2.3c0.2,0.8,0.7,1.1,1.4,1.2c0.8,0,1.3-0.2,1.6-1
			c0.2-0.4,0.3-0.9,0.3-1.3c0-1.6,0-3.2-0.1-4.8c0-0.3-0.1-0.6-0.2-0.9c-0.2-0.7-0.6-1.1-1.3-1.2c-0.7-0.1-1.4,0.1-1.7,0.8
			c-0.2,0.3-0.3,0.7-0.5,1c-0.1,0.1-0.2,0.3-0.4,0.3c-1.1,0-2.1,0-3.2,0c-0.3,0-0.4-0.1-0.4-0.4c0-1.6,0.1-3.2,0.1-4.8
			c0.1-2.4,0.1-4.9,0.2-7.3c0-0.8,0-0.8,0.9-0.8c3.1,0,6.3,0,9.4,0c0.5,0,0.5,0,0.5,0.5c0,1,0,2,0,2.9c0,0.3-0.1,0.4-0.4,0.4
			c-2,0-4.1,0-6.1,0c-0.4,0-0.6,0.1-0.6,0.5c0,1.3-0.1,2.6-0.2,3.9C15.3,20.5,15.3,20.6,15.3,20.8z"/>
		<path class="st0" d="M89.6,20.9c-0.5,0-1,0-1.5,0c-0.1,0-0.2-0.2-0.3-0.3c-0.3-1.1-0.6-2.2-0.9-3.3c0-0.2-0.1-0.4-0.3-0.4
			c-0.3,0-0.4,0.1-0.4,0.4c0,1,0,2.1,0,3.1c0,0.5,0,0.5-0.5,0.5c-1.1,0-1.1,0-1.1-1.1c0-2.5,0-4.9,0-7.4c0-0.4,0.1-0.5,0.5-0.5
			c0.8,0,1.7,0,2.5,0.1c1.3,0.1,1.9,0.9,2,2.2c0,0.4,0,0.9-0.1,1.2s-0.3,0.7-0.6,0.9c-0.2,0.2-0.3,0.3-0.2,0.6
			c0.3,1.1,0.7,2.3,1,3.4C89.5,20.6,89.6,20.7,89.6,20.9z M86.2,14.4c0,0.4,0,0.7,0,1.1c0,0.1,0.1,0.2,0.2,0.3
			c0.7,0.2,1.4-0.2,1.5-1c0-0.2,0-0.4,0-0.6c-0.1-1-0.6-1.1-1.5-1.1c-0.1,0-0.2,0.2-0.2,0.3C86.2,13.8,86.2,14.1,86.2,14.4z"/>
		<path class="st0" d="M75.5,16c0,1.5,0,3,0,4.5c0,0.4-0.1,0.5-0.5,0.5c-1-0.1-1,0-1-1c0-2.5,0-5,0-7.5c0-0.4,0.1-0.5,0.5-0.5
			c0.5,0,0.7,0.2,0.9,0.6c0.5,1.3,1.1,2.5,1.6,3.8c0.1,0.1,0.1,0.3,0.2,0.4c0-1.1,0-2.2,0-3.4c0-0.1,0-0.3,0-0.4
			c0-1,0.2-1.1,1.2-0.9c0.1,0,0.2,0.2,0.2,0.3c0,0.3,0,0.6,0,0.9c0,2.4,0,4.9,0,7.3c0,0.2,0.1,0.5-0.2,0.6c-0.6,0.1-0.9,0-1-0.4
			c-0.6-1.5-1.2-2.9-1.8-4.4C75.6,16.1,75.5,16,75.5,16C75.5,15.9,75.5,16,75.5,16z"/>
		<path class="st0" d="M41.9,20.2c-0.4,0.7-1,0.9-1.7,0.8c-1.2-0.1-1.9-0.7-2-1.9c-0.1-1.7-0.2-3.4,0-5.1c0.1-1.7,1.2-2.3,3-2.1
			c1.3,0.1,1.8,0.8,1.9,2.3c0.1,0.8,0.1,0.8-0.7,0.8s-0.8,0-0.9-0.9c0-0.8-0.5-1.1-1.2-0.9c-0.3,0.1-0.5,0.4-0.5,0.7
			c0,0.4-0.1,0.9-0.1,1.3c0,1.2,0,2.5,0.1,3.7c0,0.6,0.4,0.9,1,0.8c0.4,0,0.6-0.2,0.7-0.5c0.1-0.5,0.1-1,0.2-1.6
			c0-0.1-0.3-0.2-0.4-0.2c-0.2-0.1-0.5-0.1-0.5-0.1c0-0.3,0-0.6,0-0.9c0,0,0.2-0.1,0.3-0.1c0.6,0,1.2,0,1.8,0c0.2,0,0.3,0.1,0.3,0.3
			c0,1.3,0,2.6,0,3.9c0,0.3-0.1,0.4-0.4,0.4C42.1,21,42.1,21,41.9,20.2z"/>
		<path class="st0" d="M49.1,20.9c-0.5,0-0.9,0-1.3,0c-0.1,0-0.2-0.2-0.2-0.3c-0.1-0.5-0.2-0.9-0.2-1.4c0-0.3-0.2-0.4-0.4-0.4
			c-1.1,0-1.1,0-1.3,1.1c-0.2,1-0.2,1-1.1,1c-0.2,0-0.3,0-0.6,0c0-0.2,0-0.3,0-0.5c0.5-2.7,1.1-5.4,1.6-8.1c0.1-0.3,0.1-0.4,0.4-0.4
			c0.4,0,0.7,0,1.1,0c0.1,0,0.3,0.2,0.4,0.3c0.6,2.8,1.2,5.6,1.7,8.4C49.2,20.7,49.1,20.8,49.1,20.9z M46.5,14.5L46.5,14.5
			c-0.2,1.1-0.4,2.1-0.6,3.3c0.3,0,0.6,0,0.8,0s0.3-0.1,0.3-0.3C46.9,16.4,46.7,15.5,46.5,14.5z"/>
		<path class="st0" d="M72.1,32.6c0,0.3,0,0.5,0.1,0.7c0.1,0.3,0.2,0.6,0.4,0.8c0.2,0.3,0.5,0.4,0.8,0.2c0.2-0.1,0.4-0.4,0.4-0.6
			c0.1-0.6-0.1-1.1-0.6-1.5c-0.5-0.5-1-0.9-1.5-1.3c-0.8-0.7-1.1-1.6-1-2.6c0.2-1.2,1.3-1.9,2.7-1.7c1.1,0.2,1.7,0.8,1.9,2.2
			c0,0.1-0.1,0.2-0.2,0.3c-0.3,0.1-0.6,0.1-0.9,0.2c-0.2,0.1-0.3,0-0.4-0.3c0-0.2-0.1-0.4-0.1-0.6c-0.1-0.4-0.4-0.5-0.8-0.5
			c-0.4,0.1-0.6,0.3-0.6,0.7c-0.1,0.6,0.2,1,0.6,1.4c0.6,0.5,1.2,1,1.8,1.6c0.7,0.7,0.9,1.6,0.7,2.6c-0.2,0.8-0.7,1.4-1.5,1.6
			c-1.8,0.4-3.1-0.6-3.2-2.4c0-0.1,0.1-0.3,0.2-0.3C71.3,32.7,71.7,32.7,72.1,32.6z"/>
		<path class="st0" d="M45.7,29.2c-0.1-0.3-0.1-0.6-0.2-0.9c-0.1-0.4-0.4-0.6-0.8-0.5c-0.4,0-0.6,0.3-0.6,0.7c0,0.5,0.2,0.8,0.5,1.1
			c0.4,0.4,0.9,0.8,1.3,1.2c0.8,0.7,1.4,1.6,1.3,2.7c0,1.1-0.7,1.9-1.8,2.1c-1.6,0.3-3-0.8-3-2.4c0-0.2,0.1-0.4,0.3-0.4h0.1
			c0.3-0.1,0.7-0.2,0.9-0.1c0.2,0.1,0.2,0.5,0.2,0.8c0.1,0.2,0.1,0.4,0.3,0.5c0.2,0.3,0.5,0.4,0.8,0.3c0.3-0.1,0.4-0.3,0.5-0.6
			c0.1-0.6-0.1-1.1-0.6-1.5c-0.5-0.5-1.1-1-1.6-1.4c-0.6-0.5-0.9-1.1-1-1.9c0-1.7,1.1-2.6,2.8-2.4c1.2,0.2,1.7,1,1.8,2.2
			c0,0.1-0.1,0.2-0.2,0.3C46.6,29,46.2,29.1,45.7,29.2z"/>
		<path class="st0" d="M52,32.6c0,0.3,0.1,0.5,0.1,0.7c0.1,0.3,0.2,0.5,0.3,0.7c0.2,0.3,0.5,0.4,0.8,0.3c0.3-0.1,0.4-0.3,0.5-0.6
			c0-0.5-0.1-1-0.5-1.3c-0.5-0.5-1.1-1-1.6-1.5c-0.7-0.6-1-1.3-1-2.2c0-1.5,1.2-2.4,2.7-2.2c1.2,0.2,1.7,0.9,1.8,2.2
			c0,0.1-0.1,0.2-0.1,0.2c-0.4,0.1-0.8,0.2-1.2,0.3c-0.1-0.3-0.1-0.6-0.2-0.9c-0.1-0.4-0.4-0.6-0.8-0.5c-0.4,0-0.6,0.3-0.6,0.7
			c0,0.5,0.2,0.9,0.6,1.2c0.4,0.4,0.9,0.8,1.3,1.2c0.7,0.6,1.2,1.4,1.3,2.4c0.1,1.1-0.6,2.1-1.7,2.3c-1.7,0.3-3-0.7-3-2.5
			c0-0.1,0.1-0.3,0.2-0.3C51.1,32.7,51.5,32.7,52,32.6z"/>
		<path class="st0" d="M65.5,26.5c-0.5,1.4-1,2.7-1.5,4c-0.1,0.4-0.2,0.7,0,1c0.5,1.2,1,2.3,1.5,3.5c0.1,0.1,0.1,0.2,0.2,0.5
			c-0.5,0-1,0-1.4,0c-0.1,0-0.2-0.2-0.3-0.3c-0.3-0.8-0.7-1.6-1.1-2.5c-0.1,0.2-0.1,0.3-0.2,0.5c-0.3,0.7-0.5,1.4-0.8,2.1
			c-0.1,0.2-0.2,0.3-0.4,0.3c-0.3,0-0.7,0-1.1,0c0.1-0.2,0.1-0.4,0.2-0.5c0.5-1.3,1-2.6,1.4-3.8c0.1-0.2,0.1-0.5,0-0.8
			c-0.4-1.1-0.9-2.2-1.4-3.3c-0.1-0.1-0.1-0.3-0.2-0.5c0.5,0,1,0,1.4,0c0.1,0,0.2,0.2,0.3,0.3c0.3,0.7,0.6,1.5,1,2.3
			c0.1-0.1,0.1-0.2,0.2-0.3c0.2-0.7,0.5-1.3,0.7-2c0.1-0.2,0.2-0.3,0.4-0.3C64.7,26.6,65,26.5,65.5,26.5z"/>
		<path class="st0" d="M38.1,31c0-1.3,0-2.7,0-4c0-0.4,0.1-0.5,0.5-0.5c1,0,1.9,0,2.9,0c0.3,0,0.5,0.1,0.5,0.4
			c0,0.9,0.1,0.8-0.8,0.8c-0.3,0-0.7,0-1,0c-0.2,0-0.3,0.1-0.3,0.3c0,0.6,0,1.3,0,1.9c0,0.2,0.1,0.3,0.3,0.3c0.3,0,0.7,0,1,0
			c0.2,0,0.3,0.1,0.3,0.3c0.1,0.9,0.1,0.9-0.9,0.9c-0.9,0-0.8-0.1-0.8,0.8c0,0.6,0,1.1,0,1.7c0,0.3,0.1,0.4,0.4,0.4
			c0.4,0,0.9,0,1.3,0c0.3,0,0.4,0.1,0.4,0.4c0,1,0.1,0.8-0.8,0.8c-0.9,0-1.7,0-2.6,0c-0.3,0-0.4-0.1-0.4-0.4
			C38.1,33.7,38.1,32.4,38.1,31z"/>
		<path class="st0" d="M56.1,31c0-1.3,0-2.7,0-4c0-0.3,0.1-0.5,0.4-0.4c1,0,2,0,3,0c0.3,0,0.4,0.1,0.4,0.4c0,0.9,0,0.8-0.8,0.8
			c-0.3,0-0.7,0-1,0c-0.2,0-0.3,0.1-0.3,0.3c0,0.6,0,1.3,0,1.9c0,0.1,0.2,0.3,0.3,0.3c0.3,0,0.7,0,1.1,0c0.2,0,0.3,0.1,0.3,0.3
			c0,1.1,0.1,0.9-0.9,0.9c-0.9,0-0.8-0.1-0.8,0.8c0,0.5,0,1.1,0,1.6c0,0.4,0.1,0.5,0.5,0.5s0.9,0,1.3,0c0.3,0,0.4,0.1,0.4,0.4
			c0,1,0.1,0.8-0.8,0.8c-0.8,0-1.7,0-2.5,0c-0.4,0-0.5-0.1-0.5-0.5C56.2,33.7,56.1,32.3,56.1,31z"/>
		<path class="st0" d="M66.2,31c0-1.4,0-2.7,0-4.1c0-0.3,0.1-0.4,0.4-0.4c1,0,2,0,2.9,0c0.3,0,0.5,0.1,0.5,0.4c0,0.9,0,0.8-0.8,0.8
			c-0.4,0-0.7,0-1.1,0c-0.2,0-0.3,0.1-0.3,0.3c0,0.6,0,1.2,0,1.9c0,0.3,0.1,0.3,0.3,0.3c0.3,0,0.7,0,1,0c0.2,0,0.3,0.1,0.3,0.3
			c0,1.1,0.1,0.9-0.9,0.9c-0.9,0-0.8-0.1-0.8,0.8c0,0.6,0,1.1,0,1.7c0,0.3,0.1,0.4,0.4,0.4c0.5,0,0.9,0,1.4,0c0.3,0,0.4,0.1,0.4,0.4
			c0,1,0.1,0.8-0.8,0.8s-1.7,0-2.6,0c-0.3,0-0.4-0.1-0.4-0.4C66.2,33.7,66.2,32.4,66.2,31z"/>
		<path class="st0" d="M90.6,16.4c0-1.3,0-2.7,0-4c0-0.3,0.1-0.5,0.5-0.5c1,0,2,0,3,0c0.3,0,0.4,0.1,0.4,0.4c0,1,0.1,0.8-0.8,0.8
			c-0.3,0-0.7,0-1,0c-0.1,0-0.3,0.2-0.3,0.3c0,0.6,0,1.3,0,2c0,0.1,0.2,0.2,0.3,0.2c0.3,0,0.7,0,1,0s0.4,0.1,0.4,0.3
			c0,1,0.1,0.8-0.8,0.8c-0.8,0-0.8,0-0.8,0.8c0,0.6,0,1.1,0,1.7c0,0.3,0.1,0.4,0.4,0.4c0.5,0,0.9,0,1.4,0c0.3,0,0.4,0.1,0.4,0.4
			c0,1,0.1,0.8-0.8,0.8c-0.8,0-1.6,0-2.4,0c-0.7,0-0.7,0-0.7-0.7C90.6,19,90.6,17.7,90.6,16.4z"/>
		<path class="st0" d="M33.5,16.5c0-1.3,0-2.7,0-4c0-0.4,0.1-0.5,0.5-0.5c1,0,2,0,2.9,0c0.3,0,0.4,0.1,0.4,0.4c0,1,0.1,0.8-0.8,0.8
			c-0.3,0-0.7,0-1,0c-0.2,0-0.3,0.1-0.3,0.3c0,0.6,0,1.2,0,1.9c0,0.2,0.1,0.3,0.3,0.3c0.3,0,0.7,0,1,0c0.2,0,0.3,0.1,0.3,0.3
			c0,1,0.1,0.8-0.8,0.8c-0.9,0-0.9,0-0.9,0.9c0,0.5,0,1,0,1.5c0,0.4,0.1,0.5,0.5,0.5s0.8,0,1.2,0c0.3,0,0.4,0.1,0.4,0.4
			c0,0.9,0.1,0.8-0.8,0.8c-0.9,0-1.7,0-2.6,0c-0.4,0-0.5-0.1-0.5-0.5C33.5,19.1,33.5,17.8,33.5,16.5z"/>
		<path class="st0" d="M62.1,16.4c0-1.3,0-2.7,0-4c0-0.3,0.1-0.5,0.5-0.5c1,0,2,0,2.9,0c0.3,0,0.4,0.1,0.4,0.4c0,1,0.1,0.8-0.8,0.8
			c-0.3,0-0.6,0-0.9,0c-0.2,0-0.3,0.1-0.3,0.3c0,0.6,0,1.2,0,1.8c0,0.3,0.1,0.4,0.4,0.3c0.3,0,0.7,0,1,0c0.1,0,0.2,0.2,0.3,0.3v0.1
			c0,1,0.1,0.8-0.8,0.8c-1,0-0.8-0.1-0.8,0.8c0,0.6,0,1.1,0,1.7c0,0.3,0.1,0.4,0.4,0.4c0.5,0,0.9,0,1.4,0c0.3,0,0.4,0.1,0.4,0.4
			c0,1,0.1,0.8-0.8,0.8s-1.7,0-2.6,0c-0.4,0-0.5-0.1-0.5-0.5C62.1,19.1,62.1,17.8,62.1,16.4z"/>
		<path class="st0" d="M71.1,15.7c0.5,0,0.9,0,1.3,0c0.3,0,0.4,0.1,0.4,0.4c0,0.8,0,0.8-0.8,0.8c-0.9,0-0.9,0-0.9,0.9
			c0,0.6,0,1.1,0,1.7c0,0.2,0.1,0.3,0.3,0.3c0.5,0,0.9,0,1.4,0c0.3,0,0.4,0.1,0.4,0.4c0,0.8,0,0.8-0.8,0.8c-0.9,0-1.8,0-2.6,0
			c-0.3,0-0.4-0.1-0.4-0.4c0-2.7,0-5.4,0-8.2c0-0.3,0.1-0.4,0.4-0.4c1,0,2,0,2.9,0c0.3,0,0.4,0.1,0.4,0.4c0,1,0.1,0.8-0.8,0.8
			c-0.4,0-1-0.1-1.2,0.1c-0.2,0.2-0.1,0.8-0.1,1.2C71.1,14.9,71.1,15.2,71.1,15.7z"/>
		<path class="st0" d="M58.4,17.1c0-1.1,0-2.3,0-3.4c0-0.3-0.1-0.5-0.4-0.4c-0.1,0-0.3,0-0.4,0c-0.2,0-0.5,0-0.6-0.1
			c-0.1-0.3,0-0.7,0-1c0,0,0.2-0.1,0.3-0.1c1.3,0,2.7,0,4,0c0.2,0,0.3,0.1,0.3,0.3c0,1.1,0.1,0.9-0.9,0.9c-0.6,0-0.6,0-0.6,0.6
			c0,2.2,0,4.4,0,6.6c0,0.4-0.1,0.6-0.5,0.5c-0.2,0-0.5,0-0.7,0c-0.4,0-0.5-0.1-0.5-0.5C58.4,19.3,58.4,18.2,58.4,17.1z"/>
		<path class="st0" d="M80.8,17c0-1.1,0-2.2,0-3.4c0-0.3-0.1-0.5-0.5-0.5c-0.1,0-0.1,0-0.2,0c-1,0-0.8,0.2-0.9-0.9
			c0-0.3,0.1-0.4,0.3-0.4c1.3,0,2.6,0,3.9,0c0.3,0,0.4,0.1,0.4,0.4c0,1.1,0.1,0.9-0.8,0.9c-0.6,0-0.6,0-0.6,0.6c0,2.2,0,4.4,0,6.6
			c0,0.5,0,0.5-0.5,0.5c-1.2,0-1.2,0-1.2-1.2C80.8,18.9,80.8,18,80.8,17z"/>
		<path class="st0" d="M33.5,31c0-1.3,0-2.7,0-4c0-0.4,0.1-0.5,0.5-0.5c0.3,0,0.5,0,0.8,0c0.4,0,0.5,0.1,0.5,0.5c0,2.2,0,4.5,0,6.7
			c0,0.6,0,0.6,0.6,0.6c0.4,0,0.8,0,1.1,0s0.4,0.1,0.4,0.4c0,1,0.1,0.8-0.8,0.8c-0.9,0-1.7,0-2.6,0c-0.3,0-0.4-0.1-0.4-0.4
			C33.5,33.7,33.5,32.4,33.5,31z"/>
		<path class="st0" d="M50,16.5c0-1.4,0-2.7,0-4.1c0-0.3,0.1-0.5,0.4-0.4c0.3,0,0.6,0,0.9,0c0.3,0,0.4,0.1,0.4,0.4
			c0,0.8,0,1.6,0,2.4c0,1.5,0,3.1,0,4.6c0,0.4,0.1,0.5,0.5,0.5c0.5,0,0.9,0,1.4,0c0.2,0,0.3,0.1,0.3,0.3c0.1,0.8,0.1,0.9-0.8,0.9
			c-0.9,0-1.7,0-2.6,0c-0.4,0-0.5-0.1-0.5-0.5C50,19.1,50,17.8,50,16.5z"/>
		<path class="st0" d="M56.2,16.4c0,1.4,0,2.7,0,4.1c0,0.3-0.1,0.5-0.4,0.4c-0.3,0-0.6,0-0.9,0c-0.2,0-0.3-0.1-0.3-0.3
			c0-0.5,0-1.1,0-1.6c0-2.2,0-4.4,0-6.6c0-0.4,0.1-0.5,0.5-0.5c0.3,0,0.5,0,0.8,0s0.4,0.1,0.4,0.4C56.2,13.7,56.2,15.1,56.2,16.4z"
			/>
		<path class="st0" d="M35,11.2c0.2-0.7,0.4-1.3,0.6-2c0-0.1,0.2-0.1,0.2-0.1c0.4,0,0.8,0,1.3,0c-0.1,0.3-0.2,0.5-0.3,0.6
			c-0.2,0.4-0.4,0.7-0.6,1.1C35.9,11.3,35.8,11.4,35,11.2z"/>
		<path class="st0" d="M65.8,9c-0.5,0.8-0.8,1.5-1.3,2.1c-0.1,0.2-0.6,0.1-1,0.2c0.2-0.8,0.4-1.5,0.6-2.1c0-0.1,0.2-0.1,0.2-0.2
			C64.8,9,65.3,9,65.8,9z"/>
		<path class="st0" d="M62.4,82c-2.9,0-5.7,0-8.6,0c-0.6,0-0.6,0-0.6-0.6c0-1.2,0-2.4,0-3.6c0-0.5,0-0.5,0.5-0.5
			c5.8,0,11.5,0,17.3,0c0.5,0,0.5,0,0.5,0.5c0,1.2,0,2.4,0,3.6c0,0.6,0,0.6-0.6,0.6C68.2,82,65.3,82,62.4,82z"/>
		<path class="st0" d="M62.4,74.2c-2.9,0-5.7,0-8.6,0c-0.6,0-0.6,0-0.6-0.6c0-1.2,0-2.4,0-3.7c0-0.4,0.1-0.5,0.5-0.5
			c5.8,0,11.5,0,17.3,0c0.4,0,0.5,0.1,0.5,0.5c0,1.2,0,2.5,0,3.7c0,0.5,0,0.5-0.5,0.5C68.2,74.2,65.3,74.2,62.4,74.2z"/>
	</g>
</g>
</svg>
