<?xml version="1.0" encoding="utf-8"?>
<!-- Generator: Adobe Illustrator 24.3.0, SVG Export Plug-In . SVG Version: 6.00 Build 0)  -->
<svg version="1.1" id="Layer_1" xmlns="http://www.w3.org/2000/svg" xmlns:xlink="http://www.w3.org/1999/xlink" x="0px" y="0px"
	 viewBox="0 0 125 125" style="enable-background:new 0 0 125 125;" xml:space="preserve">
<style type="text/css">
	.st0{fill:#26BDE2;}
</style>
<g>
	<g>
		<path class="st0" d="M71.5,104.5c-0.1,0.1-0.2,0.2-0.3,0.3c-2.7,2.7-5.5,5.5-8.2,8.2c-0.4,0.4-0.4,0.4-0.8,0
			c-2.7-2.7-5.5-5.5-8.2-8.2c-0.1-0.1-0.2-0.2-0.3-0.4c0.2,0,0.3,0,0.5,0c0.9,0,1.9,0,2.8,0c0.4,0,0.5-0.1,0.5-0.5
			c-0.2-1.8-0.3-3.6-0.5-5.3c0-0.4-0.1-0.7-0.1-1.1c0-0.4-0.2-0.5-0.6-0.5c-2.8,0-5.6,0-8.3,0c-0.7,0-0.8-0.1-0.9-0.8
			c-1-6.2-2-12.4-3.1-18.5c-1.1-6.9-2.3-13.8-3.4-20.7c-0.3-1.8-0.6-3.6-0.9-5.3c-0.1-0.8,0-1,0.8-1c14.6,0,29.3,0,43.9,0
			c0.8,0,1,0.2,0.8,1c-0.9,5.9-1.8,11.9-2.8,17.8c-1.1,6.8-2.1,13.7-3.2,20.5c-0.3,2.2-0.7,4.3-1,6.5c-0.1,0.5-0.2,0.6-0.7,0.6
			c-2.9,0-5.8,0-8.6,0c-0.4,0-0.5,0.1-0.6,0.5c-0.2,2.1-0.4,4.2-0.5,6.2c-0.1,0.6,0,0.6,0.6,0.6c0.9,0,1.7,0,2.6,0
			c0.1,0,0.3,0,0.4,0C71.5,104.4,71.5,104.5,71.5,104.5z M62.5,52.6c-6.7,0-13.4,0-20.1,0c-0.1,0-0.3,0-0.4,0
			c-0.3,0-0.4,0.1-0.3,0.4c0.2,0.9,0.3,1.8,0.5,2.6c0.4,1.8,0.7,3.7,1.1,5.5c0.1,0.4,0.2,0.6,0.6,0.5c0.6-0.1,1.1-0.1,1.7-0.1
			c1.9-0.2,3.7-0.8,5.4-1.5c2.1-0.8,4.2-0.9,6.4-0.2c1.6,0.6,3.2,1.2,4.8,1.8c3.6,1.3,7.3,1.7,11.1,0.6c1.6-0.5,3.1-1,4.7-1.6
			c1.3-0.5,2.6-0.8,4-0.4c0.3,0.1,0.3-0.1,0.3-0.3c0.4-2.3,0.7-4.5,1.1-6.8c0.1-0.6,0.1-0.6-0.5-0.6C76.1,52.6,69.3,52.6,62.5,52.6z
			 M62.7,67.8c-0.1,0.1-0.2,0.2-0.2,0.3c-1.9,2.9-3.8,5.8-5.7,8.7c-1.1,1.7-1.7,3.6-1.6,5.7c0.1,2.2,1.1,3.9,2.8,5.2
			c2,1.5,4.4,1.6,6.7,1.2c3.2-0.7,5.4-3.4,5.5-6.7c0-1.8-0.5-3.5-1.4-5.1c-1.9-3-3.9-6-5.8-9C62.8,68,62.8,67.9,62.7,67.8z"/>
		<path class="st0" d="M15.7,22.1c2.4-2.2,6.2-1.4,7.4,1.6c0.6,1.6,0.7,3.2,0.6,4.9c-0.1,1.3-0.3,2.5-0.7,3.7
			c-0.8,2.1-2.4,3.2-4.6,3.4c-1.2,0.1-2.5,0.1-3.6-0.4c-1.6-0.7-2.5-2-3.1-3.6c-0.4-1.2-0.5-2.4-0.5-3.6c0-3,0-5.9,0-8.9
			c0-1.4,0.2-2.7,0.7-4c0.7-1.8,1.9-2.8,3.8-3.2c1.3-0.2,2.6-0.2,3.9,0.1c1.9,0.4,3,1.6,3.4,3.4c0.2,0.7,0.2,1.5,0.3,2.3
			c0,0.3-0.1,0.4-0.3,0.4c-1.2,0-2.3,0-3.5,0c-0.3,0-0.4-0.1-0.4-0.4c0-0.4,0-0.8-0.1-1.2c-0.1-0.9-0.5-1.3-1.3-1.3
			c-0.9-0.1-1.5,0.3-1.7,1.1c-0.2,0.7-0.3,1.5-0.3,2.3c-0.1,1.1,0,2.2,0,3.3C15.7,21.9,15.7,21.9,15.7,22.1z M15.7,27.6
			C15.7,27.6,15.7,27.6,15.7,27.6c0,0.6,0,1.3,0,1.9c0.1,0.6,0.2,1.3,0.4,1.9c0.2,0.7,0.9,1,1.5,1c0.7,0,1.2-0.4,1.4-1.2
			c0.1-0.6,0.3-1.1,0.3-1.7c0-1.3,0-2.6-0.1-3.8c-0.2-1.2-1.3-1.8-2.4-1.2c-0.3,0.1-0.5,0.3-0.7,0.6c-0.1,0.2-0.2,0.4-0.2,0.6
			C15.7,26.3,15.7,26.9,15.7,27.6z"/>
		<path class="st0" d="M86.1,32.6c0.2-0.9,0.4-1.8,0.6-2.7c0.2-1,0.4-2,0.6-2.9c0.1-0.3,0.2-0.4,0.5-0.4c1.3,0,1.2,0,1.3,1.2
			c0,2.5,0.1,4.9,0.1,7.4c0,0.2-0.1,0.3-0.3,0.3c0,0,0,0,0,0c-1.1,0-0.9,0.1-0.9-0.8c0-1.5-0.1-3.1-0.1-4.6c0-0.1,0-0.2-0.1-0.3
			c-0.2,1-0.4,2.1-0.7,3.1c-0.2,0.7-0.3,1.5-0.5,2.2c-0.1,0.4-0.3,0.4-0.6,0.4c-0.3,0-0.5,0-0.6-0.4c-0.3-1.6-0.7-3.2-1-4.9
			c0-0.1-0.1-0.3-0.2-0.4c0,0.2-0.1,0.5-0.1,0.7c0,1.5,0,2.9,0,4.4c0,0.5,0,0.5-0.6,0.6c-0.1,0-0.3,0-0.4,0c-0.2,0-0.3-0.1-0.3-0.3
			c0-2.1,0.1-4.3,0.1-6.4c0-0.6,0-1.2,0-1.7c0-0.3,0.1-0.4,0.4-0.4c0.1,0,0.3,0,0.4,0c1,0,0.8-0.2,1.1,0.9c0.3,1.6,0.7,3.2,1,4.8
			C86,32.4,86,32.5,86.1,32.6C86,32.6,86.1,32.6,86.1,32.6z"/>
		<path class="st0" d="M81.2,20.9c-0.5,0-1,0-1.4,0c-0.1,0-0.3-0.2-0.3-0.4c-0.3-1.1-0.6-2.2-0.9-3.3c-0.1-0.2-0.1-0.4-0.4-0.4
			c-0.3,0-0.5,0.1-0.5,0.4c0,1.1,0,2.1,0,3.2c0,0.3-0.1,0.5-0.5,0.5c-1.2,0-1.2,0-1.2-1.2c0-2.4,0-4.8,0-7.2c0-0.5,0-0.5,0.6-0.5
			c0.8,0,1.5,0,2.3,0.1c1.3,0.1,2,0.8,2,2.1c0,0.5,0,0.9-0.2,1.4c-0.1,0.3-0.3,0.6-0.6,0.8c-0.2,0.2-0.3,0.3-0.2,0.6
			c0.3,1.1,0.7,2.3,1,3.4C81.1,20.5,81.2,20.7,81.2,20.9z M79.5,14.5c0-1-0.4-1.4-1.4-1.4c-0.2,0-0.3,0.1-0.3,0.3c0,0.7,0,1.4,0,2.1
			c0,0.2,0.1,0.3,0.3,0.3C79.1,15.9,79.5,15.4,79.5,14.5z"/>
		<path class="st0" d="M63.4,20.9c-0.5,0-0.9,0-1.4,0c-0.1,0-0.3-0.2-0.3-0.4c-0.3-1.1-0.6-2.2-0.9-3.3c-0.1-0.2-0.1-0.4-0.4-0.4
			c-0.3,0-0.4,0.1-0.4,0.4c0,1.1,0,2.1,0,3.2c0,0.3-0.1,0.5-0.4,0.5c-0.3,0-0.5,0-0.8,0c-0.3,0-0.4-0.1-0.4-0.4c0-2.7,0-5.5,0-8.2
			c0-0.3,0.1-0.4,0.4-0.4c0.7,0,1.4,0,2.2,0.1c2,0.1,2.5,1.2,2.3,2.9c-0.1,0.6-0.3,1.1-0.8,1.5c-0.1,0.1-0.1,0.3-0.1,0.5
			c0.3,1.2,0.6,2.3,1,3.5C63.3,20.5,63.3,20.7,63.4,20.9z M61.7,14.5c0-1-0.4-1.4-1.4-1.4c-0.2,0-0.3,0.1-0.3,0.3c0,0.7,0,1.4,0,2
			c0,0.3,0.1,0.3,0.4,0.4C61.3,15.8,61.7,15.4,61.7,14.5z"/>
		<path class="st0" d="M64.3,16.4c0-0.7,0-1.5,0-2.2c0.1-1.5,0.9-2.3,2.3-2.3c1.3-0.1,2.1,0.4,2.5,1.3c0.2,0.4,0.3,0.8,0.3,1.2
			c0,1.5,0,3-0.1,4.5C69.2,20.3,68.4,21,67,21c-0.3,0-0.6,0-0.9,0c-1.1-0.2-1.8-1-1.9-2.3C64.3,18,64.3,17.2,64.3,16.4
			C64.3,16.4,64.3,16.4,64.3,16.4z M65.9,16.4C65.9,16.4,65.9,16.4,65.9,16.4c0,0.8,0,1.5,0,2.3c0,0.4,0.1,0.7,0.4,1
			c0.6,0.3,1.3,0,1.4-0.7c0.1-1.5,0-3.1,0.1-4.6c0-0.2,0-0.3-0.1-0.5c-0.1-0.5-0.4-0.8-1-0.8c-0.5,0-0.8,0.4-0.8,1
			C65.9,14.9,65.9,15.7,65.9,16.4z"/>
		<path class="st0" d="M60,30.5c0,0.3,0,0.5,0,0.8c0,1.3,0,2.5,0,3.8c0,0.3-0.1,0.5-0.4,0.4c-1.1,0-0.9,0.1-0.9-0.9c0-2.5,0-5,0-7.4
			c0-0.2-0.1-0.5,0.2-0.5c0.5-0.1,0.9,0,1,0.3c0.6,1.3,1.1,2.6,1.7,3.9c0.1,0.2,0.2,0.4,0.3,0.6c0-0.1,0-0.3,0-0.4
			c0-1.3,0-2.6,0-3.9c0-0.4,0.1-0.5,0.5-0.5c1,0,0.9-0.1,0.9,0.9c0,2.5,0,5,0,7.5c0,0.2,0.1,0.5-0.2,0.5c-0.5,0.1-0.8,0-1-0.3
			c-0.6-1.5-1.2-2.9-1.8-4.4C60.2,30.7,60.2,30.6,60,30.5C60.1,30.5,60.1,30.5,60,30.5z"/>
		<path class="st0" d="M98.4,31.4c0-0.1,0-0.3,0-0.4c0-1.3,0-2.6,0-3.9c0-0.4,0.1-0.5,0.5-0.5c1,0,0.9-0.1,0.9,0.9c0,2.5,0,5,0,7.5
			c0,0.2,0.1,0.5-0.2,0.5c-0.6,0.1-0.8,0-1-0.3c-0.6-1.4-1.2-2.9-1.8-4.3c-0.1-0.1-0.1-0.3-0.2-0.4c0,0-0.1,0-0.1,0
			c0,0.1,0,0.3,0,0.4c0,1.4,0,2.7,0,4.1c0,0.4-0.1,0.5-0.5,0.5c-1,0-0.9,0.1-0.9-0.9c0-2.5,0-4.9,0-7.4c0-0.2-0.2-0.5,0.2-0.6
			c0.6-0.1,0.9,0,1.1,0.4c0.6,1.4,1.2,2.7,1.8,4.1c0,0.1,0.1,0.2,0.2,0.3C98.3,31.4,98.3,31.4,98.4,31.4z"/>
		<path class="st0" d="M45.4,15.5c0,0.9,0,1.8,0,2.8c0,0.3,0,0.6,0.1,0.9c0.1,0.4,0.4,0.6,0.8,0.6c0.4,0,0.7-0.2,0.8-0.6
			c0.1-0.4,0.1-0.7,0.1-1.1c0-1.9,0-3.7,0-5.6c0-0.4,0.1-0.5,0.5-0.5c1,0,1,0,1,1c0,1.7,0,3.5,0,5.2c0,0.5-0.1,1.1-0.3,1.6
			c-0.1,0.5-0.5,0.8-0.9,1c-0.8,0.3-1.7,0.3-2.5,0c-0.9-0.3-1.2-1.1-1.2-1.9c-0.1-2.2,0-4.4,0-6.5c0-0.2,0.1-0.3,0.3-0.3
			c0,0,0,0,0,0c1.5,0,1.2-0.2,1.2,1.1C45.4,13.9,45.4,14.7,45.4,15.5z"/>
		<path class="st0" d="M37.8,20.9c0.3-1.3,0.5-2.5,0.8-3.8c0.3-1.6,0.6-3.1,1-4.7c0.1-0.3,0.2-0.5,0.6-0.5c1.2,0,1.2,0,1.5,1.2
			c0.5,2.4,1,4.8,1.5,7.3c0.1,0.3,0,0.5-0.4,0.5c-1,0-1,0-1.2-1c0,0,0-0.1,0-0.1c-0.1-0.3-0.1-0.8-0.3-0.9c-0.4-0.1-0.8-0.1-1.3-0.1
			c-0.1,0-0.2,0.2-0.2,0.3c-0.1,0.4-0.2,0.9-0.2,1.4c0,0.3-0.2,0.4-0.4,0.4C38.6,20.9,38.2,20.9,37.8,20.9z M40.5,14.4
			C40.4,14.4,40.4,14.4,40.5,14.4c-0.1,0-0.1,0-0.1,0c-0.2,1-0.3,2-0.5,3c0,0.2,0.1,0.3,0.3,0.3c0.2,0,0.4,0,0.6,0
			c0.1,0,0.2-0.2,0.2-0.3C40.8,16.5,40.6,15.5,40.5,14.4z"/>
		<path class="st0" d="M49.6,35.5c0.2-1,0.4-1.9,0.6-2.9c0.4-1.8,0.8-3.7,1.1-5.5c0.1-0.3,0.2-0.5,0.6-0.5c1.5,0,1.2-0.2,1.5,1.2
			c0.5,2.3,1,4.7,1.4,7c0,0.2,0.1,0.4,0.1,0.7c-0.5,0-0.9,0-1.3,0c-0.1,0-0.2-0.2-0.2-0.3c-0.1-0.5-0.2-0.9-0.3-1.4
			c0-0.2-0.1-0.3-0.4-0.4c-1.2-0.1-1.2-0.1-1.4,1.1c-0.2,1.1,0,0.9-1.1,0.9C50,35.5,49.8,35.5,49.6,35.5z M52.3,29c0,0-0.1,0-0.1,0
			c-0.2,1.1-0.4,2.2-0.5,3.3c0.4,0,0.8,0,1.2,0C52.6,31.2,52.4,30.1,52.3,29z"/>
		<path class="st0" d="M38.4,35.5c-0.5,0-0.9,0-1.3,0c-0.1,0-0.2-0.2-0.2-0.3c-0.1-0.4-0.2-0.9-0.2-1.4c0-0.2-0.2-0.3-0.4-0.3
			c-1.2-0.1-1.2-0.1-1.4,1.1c-0.2,1.1,0,0.9-1.1,0.9c-0.2,0-0.3,0-0.6,0c0.1-0.5,0.2-0.9,0.3-1.3c0.5-2.4,1-4.7,1.4-7.1
			c0.1-0.3,0.2-0.5,0.5-0.5c1.3,0,1.3,0,1.5,1.2c0.5,2.3,0.9,4.7,1.4,7C38.3,35,38.4,35.2,38.4,35.5z M35.8,29c0,0-0.1,0-0.1,0
			c-0.2,1-0.3,2-0.5,3c0,0.1,0.1,0.3,0.2,0.3c0.3,0,0.6-0.1,0.9-0.1c0,0,0-0.1,0-0.1C36.2,31.1,36,30.1,35.8,29z"/>
		<path class="st0" d="M54.2,12c0.4,0,0.9,0,1.3,0c1.5,0.1,1.9,1,2,2.2c0,0,0,0.1,0,0.1c0,1.9-0.7,2.6-2.6,2.6c-0.7,0-0.7,0-0.7,0.7
			c0,1,0,1.9,0,2.9c0,0.3-0.1,0.4-0.4,0.4c-1.2,0-1.2,0-1.2-1.2c0-2.4,0-4.8,0-7.2c0-0.5,0-0.5,0.5-0.5C53.5,12,53.8,12,54.2,12
			C54.2,12,54.2,12,54.2,12z M54.3,14.5C54.3,14.5,54.3,14.5,54.3,14.5c0,0.3,0,0.7,0,1c0,0.1,0.2,0.3,0.3,0.3
			c1,0.1,1.4-0.2,1.4-1.2c0-0.2,0-0.4,0-0.6c-0.1-0.5-0.3-0.7-0.8-0.7c-0.2,0-0.4,0-0.6,0c-0.2,0-0.3,0.1-0.3,0.3
			C54.3,13.8,54.3,14.2,54.3,14.5z"/>
		<path class="st0" d="M70.6,16.4c0-1.3,0-2.7,0-4c0-0.3,0.1-0.5,0.4-0.5c0.8,0,1.6,0,2.4,0.1c1.1,0.1,1.7,0.6,1.9,1.7
			c0.1,0.5,0.1,1,0,1.5c-0.1,1-0.9,1.6-1.9,1.7c-0.3,0-0.5,0-0.8,0c-0.3,0-0.4,0.1-0.4,0.4c0,1,0,2.1,0,3.1c0,0.4-0.1,0.5-0.5,0.5
			c-1.1,0-1.1,0-1.1-1.1C70.6,18.7,70.6,17.6,70.6,16.4z M72.2,14.5c0,0.3,0,0.7,0,1c0,0.1,0.1,0.3,0.2,0.3c0.7,0.3,1.4-0.2,1.5-0.9
			c0-0.3,0-0.7,0-1c0-0.4-0.3-0.6-0.7-0.6c-0.2,0-0.4,0-0.6,0c-0.2,0-0.3,0.1-0.3,0.3C72.2,13.8,72.2,14.2,72.2,14.5z"/>
		<path class="st0" d="M67.4,33.2c-0.1-0.3,0.1-0.4,0.3-0.4c0.3,0,0.7-0.2,0.9-0.1c0.2,0.1,0.2,0.5,0.2,0.8c0.2,0.6,0.4,0.8,0.8,0.9
			c0.4,0,0.7-0.2,0.8-0.6c0.1-0.6-0.1-1.1-0.6-1.5c-0.5-0.5-1-0.9-1.6-1.4c-0.9-0.8-1.1-1.7-0.9-2.8c0.2-1,1.2-1.6,2.4-1.5
			c1.2,0.1,1.9,0.8,2,2.1c0,0.2,0,0.4-0.3,0.4c0,0-0.1,0-0.1,0c-0.3,0-0.6,0.2-0.8,0.1c-0.2-0.1-0.2-0.5-0.2-0.7
			c-0.1-0.5-0.5-0.7-0.9-0.6c-0.4,0.1-0.7,0.4-0.6,0.9c0.1,0.3,0.2,0.7,0.4,0.9c0.4,0.5,0.9,0.8,1.4,1.3c0.8,0.7,1.4,1.5,1.4,2.7
			c0,1.1-0.8,2.2-2.4,2.1C68.2,35.5,67.5,34.8,67.4,33.2z"/>
		<path class="st0" d="M47.7,33.4c-0.2-0.4-0.3-0.8-0.6-1.1c-0.4-0.5-0.9-0.8-1.4-1.3c-0.7-0.6-1.2-1.3-1.2-2.3
			c0-1.6,1.1-2.4,2.6-2.2c1.2,0.1,1.9,0.9,1.9,2.1c0,0,0,0.1,0,0.1c-0.3,0.4-0.7,0.2-1.1,0.4c0,0-0.2-0.2-0.3-0.3
			c-0.1-0.2-0.1-0.4-0.1-0.6c-0.1-0.3-0.4-0.5-0.7-0.5c-0.4,0-0.6,0.2-0.7,0.6c-0.1,0.5,0,0.9,0.4,1.3c0.4,0.4,0.8,0.7,1.2,1.1
			c0.8,0.7,1.4,1.4,1.5,2.5c0.1,1.4-0.9,2.5-2.3,2.4c-1.4-0.1-2.2-0.8-2.3-2.3c0-0.3,0.1-0.5,0.4-0.6c0,0,0.1,0,0.1,0
			c0.8-0.2,0.8-0.2,1,0.6c0,0.1,0.1,0.2,0.1,0.3c0.2,0.5,0.6,0.7,1,0.6c0.4-0.1,0.5-0.4,0.5-0.9C47.6,33.4,47.6,33.4,47.7,33.4z"/>
		<path class="st0" d="M42.2,33.6c0-0.7-0.2-1.1-0.6-1.4c-0.5-0.5-1.1-1-1.6-1.5c-0.8-0.7-1-1.6-0.8-2.6c0.2-1.1,1.2-1.7,2.4-1.7
			c1.2,0.1,1.9,0.8,2,2c0,0.3-0.1,0.5-0.4,0.5c0,0,0,0,0,0c-0.3,0-0.6,0.2-0.8,0.1c-0.1-0.1-0.2-0.4-0.2-0.7
			c-0.1-0.5-0.5-0.8-0.9-0.7c-0.5,0.1-0.8,0.5-0.6,1c0.1,0.3,0.3,0.7,0.5,0.9c0.5,0.6,1.2,1,1.7,1.6c0.6,0.6,1,1.3,0.9,2.2
			c0,1.3-0.9,2.2-2.3,2.2c-1.4,0-2.3-0.9-2.4-2.3c0-0.3,0.1-0.4,0.4-0.5c0.3,0,0.6-0.2,0.9-0.1c0.2,0.1,0.2,0.5,0.3,0.8
			c0,0.1,0.1,0.2,0.1,0.3c0.2,0.4,0.6,0.6,1,0.5C42,34.2,42.2,34,42.2,33.6z"/>
		<path class="st0" d="M75.9,33.4c0-0.5-0.2-0.9-0.6-1.2c-0.6-0.5-1.2-1.1-1.8-1.6c-0.6-0.5-0.8-1.1-0.8-1.9c0-1.6,1.1-2.4,2.6-2.2
			c1.2,0.1,1.8,0.8,1.9,2c0,0.3,0,0.4-0.3,0.5c0,0-0.1,0-0.1,0c-0.3,0-0.6,0.2-0.8,0.1c-0.1-0.1-0.2-0.4-0.2-0.7
			c-0.1-0.5-0.5-0.8-0.9-0.7c-0.5,0.1-0.8,0.5-0.6,1c0.1,0.3,0.3,0.7,0.5,1c0.4,0.4,0.8,0.7,1.2,1.1c0.8,0.7,1.4,1.6,1.4,2.7
			c0,1.2-0.9,2.2-2.3,2.1c-1.4-0.1-2.2-0.9-2.3-2.4c0-0.3,0.1-0.4,0.3-0.4c0.3,0,0.7-0.2,0.9-0.1c0.2,0.1,0.2,0.5,0.2,0.8
			c0,0.1,0.1,0.2,0.1,0.3c0.2,0.4,0.6,0.6,1,0.5C75.7,34.3,75.9,34,75.9,33.4z"/>
		<path class="st0" d="M89.5,16.4c0-1.3,0-2.6,0-3.9c0-0.4,0.1-0.5,0.5-0.5c0.9,0,1.9,0,2.8,0c0.3,0,0.5,0.1,0.4,0.4
			c0,0.1,0,0.2,0,0.3c0,0.4-0.1,0.5-0.5,0.5c-0.4,0-0.8,0-1.3,0c-0.3,0-0.4,0.1-0.4,0.4c0,0.6,0,1.2,0,1.8c0,0.3,0.1,0.4,0.4,0.4
			c0.3,0,0.7,0,1,0c0.3,0,0.3,0.1,0.4,0.4c0,0.8,0,0.8-0.7,0.8c-1.1,0-1-0.1-1,1c0,0.5,0,1,0,1.5c0,0.3,0.1,0.5,0.5,0.4
			c0.4,0,0.9,0,1.3,0c0.3,0,0.4,0.1,0.4,0.4c0,0.1,0,0.3,0,0.4c0,0.2-0.1,0.3-0.3,0.3c-1,0-2.1,0-3.1,0c-0.3,0-0.3-0.2-0.3-0.4
			C89.5,19.1,89.5,17.8,89.5,16.4z"/>
		<path class="st0" d="M33.6,16.4c0-1.3,0-2.6,0-3.9c0-0.4,0.1-0.5,0.5-0.5c0.9,0,1.8,0,2.7,0c0.4,0,0.5,0.1,0.5,0.5
			c0,0.1,0,0.2,0,0.3c0,0.3-0.1,0.4-0.4,0.4c-0.4,0-0.9,0-1.3,0c-0.3,0-0.4,0.1-0.4,0.4c0,0.6,0,1.2,0,1.8c0,0.3,0.1,0.4,0.4,0.4
			c0.3,0,0.6,0,0.9,0c0.3,0,0.4,0.1,0.4,0.4c0,0.8,0,0.8-0.8,0.8c-1,0-0.9-0.1-0.9,0.9c0,0.6,0,1.1,0,1.7c0,0.3,0.1,0.4,0.4,0.4
			c0.4,0,0.9,0,1.3,0c0.3,0,0.4,0.1,0.4,0.4c0,0.1,0,0.2,0,0.3c0,0.4-0.1,0.5-0.5,0.5c-0.9,0-1.9,0-2.8,0c-0.3,0-0.4-0.1-0.4-0.5
			C33.6,19.1,33.6,17.8,33.6,16.4z"/>
		<path class="st0" d="M82.3,16.4c0-1.3,0-2.6,0-3.9c0-0.4,0.1-0.5,0.5-0.5c0.9,0,1.8,0,2.7,0c0.4,0,0.5,0.1,0.5,0.5
			c0,0.1,0,0.2,0,0.3c0,0.3-0.1,0.4-0.4,0.4c-0.4,0-0.9,0-1.3,0c-0.3,0-0.4,0.1-0.4,0.4c0,0.6,0,1.2,0,1.8c0,0.3,0.1,0.4,0.4,0.4
			c0.3,0,0.6,0,0.9,0c0.3,0,0.4,0.1,0.4,0.4c0,0.8,0,0.8-0.8,0.8c-1,0-0.9-0.1-0.9,0.9c0,0.6,0,1.1,0,1.7c0,0.3,0.1,0.4,0.4,0.4
			c0.4,0,0.9,0,1.3,0c0.3,0,0.4,0.1,0.4,0.4c0,0.1,0,0.2,0,0.3c0,0.4-0.1,0.5-0.5,0.5c-0.9,0-1.9,0-2.8,0c-0.3,0-0.4-0.1-0.4-0.5
			C82.3,19.1,82.3,17.8,82.3,16.4z"/>
		<path class="st0" d="M78.3,31c0-1.3,0-2.6,0-3.9c0-0.4,0.1-0.5,0.5-0.5c0.9,0,1.8,0,2.7,0c0.5,0,0.5,0.2,0.5,0.6
			c0,0.3,0,0.6-0.5,0.6c-0.4,0-0.8,0-1.2,0c-0.3,0-0.4,0.1-0.4,0.4c0,0.6,0,1.2,0,1.8c0,0.3,0.1,0.4,0.4,0.4c0.3,0,0.6,0,0.9,0
			c0.3,0,0.4,0.1,0.4,0.4c0,0.8,0,0.8-0.7,0.8c-1.1,0-0.9-0.1-1,1c0,0.5,0,1.1,0,1.6c0,0.3,0.1,0.4,0.4,0.4c0.4,0,0.9,0,1.3,0
			c0.3,0,0.4,0.1,0.4,0.4c0,0.1,0,0.2,0,0.4c0,0.2-0.1,0.3-0.3,0.3c-1.1,0-2.1,0-3.2,0c-0.3,0-0.3-0.2-0.3-0.4
			C78.3,33.7,78.3,32.4,78.3,31z"/>
		<path class="st0" d="M90.4,31c0-1.3,0-2.6,0-3.9c0-0.4,0.1-0.5,0.5-0.5c0.9,0,1.8,0,2.8,0c0.4,0,0.5,0.1,0.5,0.5
			c0,0.1,0,0.2,0,0.3c0,0.3-0.1,0.4-0.4,0.4c-0.5,0-0.9,0-1.4,0c-0.3,0-0.4,0.1-0.4,0.4c0,0.6,0,1.2,0,1.8c0,0.3,0.1,0.4,0.4,0.4
			c0.3,0,0.7,0,1,0c0.3,0,0.4,0.1,0.4,0.4c0,0.8,0,0.8-0.8,0.8c-1.1,0-0.9-0.1-0.9,0.9c0,0.5,0,1,0,1.5c0,0.5,0,0.6,0.5,0.6
			c0.4,0,0.8,0,1.2,0c0.3,0,0.4,0.1,0.4,0.4c0,0.1,0,0.2,0,0.4c0,0.3-0.1,0.4-0.4,0.4c-1,0-2,0-3,0c-0.3,0-0.4-0.2-0.4-0.4
			C90.4,33.7,90.4,32.4,90.4,31z"/>
		<path class="st0" d="M95.1,17.1c0-1.1,0-2.3,0-3.4c0-0.4-0.1-0.5-0.5-0.5c-0.1,0-0.2,0-0.2,0c-0.7,0-0.9-0.2-0.7-1
			c0-0.1,0.2-0.2,0.3-0.2c1.3,0,2.6,0,3.9,0c0.1,0,0.3,0.2,0.3,0.3c0.1,0.8,0.1,0.9-0.8,0.9c-0.7,0-0.7,0-0.7,0.7c0,2.2,0,4.4,0,6.5
			c0,0.4-0.1,0.5-0.5,0.5c-1.1,0-1.1,0-1.1-1.1C95.1,18.9,95.1,18,95.1,17.1z"/>
		<path class="st0" d="M101.9,31.6c0-1.1,0-2.2,0-3.3c0-0.5,0-0.5-0.6-0.5c-0.1,0-0.3,0-0.4,0c-0.6,0-0.6,0-0.6-0.6
			c0-0.6,0-0.6,0.6-0.6c1.2,0,2.3,0,3.5,0c0.5,0,0.5,0.3,0.5,0.6c0,0.4,0,0.6-0.5,0.6c-0.9,0-0.9,0-0.9,0.9c0,2.1,0,4.2,0,6.3
			c0,0.4-0.1,0.6-0.5,0.5c-0.2,0-0.4,0-0.6,0c-0.4,0-0.5-0.1-0.5-0.5C101.9,33.9,101.9,32.8,101.9,31.6z"/>
		<path class="st0" d="M57.4,31c0,1.3,0,2.6,0,3.9c0,0.4-0.1,0.5-0.5,0.5c-1.1,0-1.1,0-1.1-1.1c0-2.4,0-4.8,0-7.2
			c0-0.6,0-0.6,0.5-0.6c1.1,0,1.1,0,1.1,1.1C57.4,28.8,57.4,29.9,57.4,31z"/>
		<path class="st0" d="M64.6,31c0-1.3,0-2.6,0-3.9c0-0.4,0.1-0.5,0.5-0.5c0.3,0,0.5,0,0.8,0c0.2,0,0.3,0.1,0.3,0.3c0,0.5,0,1,0,1.5
			c0,2.2,0,4.3,0,6.5c0,0.4-0.1,0.5-0.5,0.5c-1.1,0-1.1,0-1.1-1.1C64.6,33.2,64.6,32.1,64.6,31z"/>
	</g>
</g>
</svg>
