<?xml version="1.0" encoding="utf-8"?>
<!-- Generator: Adobe Illustrator 25.0.1, SVG Export Plug-In . SVG Version: 6.00 Build 0)  -->
<svg version="1.1" id="Layer_1" xmlns="http://www.w3.org/2000/svg" xmlns:xlink="http://www.w3.org/1999/xlink" x="0px" y="0px"
	 viewBox="0 0 125 125" style="enable-background:new 0 0 125 125;" xml:space="preserve">
<style type="text/css">
	.st0{fill:#D2D1D3;}
</style>
<g>
	<g>
		<path class="st0" d="M78,83.7c0,8.5-6.9,15.4-15.4,15.3c-8.8,0-15.5-7.3-15.3-15.7c0.1-8.3,7.1-15.2,15.6-15.1
			C71.5,68.4,78,75.5,78,83.7z M65,76c0,0.7,0,1.5,0,2.2c0,0.4,0.1,0.7,0.5,0.9c1.9,1.2,2.8,3.6,2.2,5.8c-0.6,2.1-2.6,3.7-4.8,3.8
			c-2.3,0.1-4.3-1.2-5.2-3.4c-0.8-2.1-0.2-4.6,1.6-5.9c0.7-0.5,0.9-1.1,0.9-1.9c0-0.5,0-1,0-1.6c-2.5,0.6-6,3.7-5.5,8.3
			c0.4,4,3.8,7.3,8.1,7.2c4.4-0.1,7.8-3.6,7.9-7.9C70.7,80.2,67.7,76.1,65,76z M61.5,77c0,0.8,0,1.7,0,2.5c0,0.7,0.5,1.2,1.1,1.2
			s1.2-0.5,1.2-1.1c0-1.7,0-3.4,0-5.1c0-0.7-0.6-1.2-1.2-1.1c-0.6,0-1.1,0.5-1.1,1.2C61.5,75.3,61.5,76.2,61.5,77z"/>
		<path class="st0" d="M12.9,35.3c0.8-3.3,1.6-6.6,2.4-9.9s1.6-6.6,2.4-9.9c-0.2,0-0.4-0.1-0.6-0.1c-1.7,0-3.5,0-5.2,0
			c-0.6,0-0.6,0-0.6-0.6c0-0.7,0-1.4,0-2.1c0-0.7,0-0.7,0.7-0.7c2.9,0,5.9,0,8.8,0c0.3,0,0.6,0,0.9,0s0.4,0.1,0.4,0.4
			c0,1.4,0,2.7-0.4,4.1c-1.5,6.1-3,12.1-4.4,18.2c-0.1,0.4-0.3,0.6-0.7,0.6c-1.1,0-2.1,0-3.2,0C13.2,35.3,13.1,35.3,12.9,35.3z"/>
		<path class="st0" d="M70.4,45.3c1.1,0.4,1.3,1.3,1.3,2.3c0,0.9-0.3,1.7-1.2,2.2c-0.3,0.1-0.7,0.2-1,0.2c-0.8,0-1.6,0-2.4,0
			c-0.3,0-0.4-0.1-0.4-0.4c0-2.7,0-5.4,0-8.1c0-0.3,0.1-0.4,0.4-0.4c0.7,0,1.5,0,2.2,0c1.8,0.1,2.8,1.8,1.9,3.4
			C71,44.9,70.6,45.1,70.4,45.3z M68.2,47.4c0,0.4,0,0.8,0,1.1c0,0.1,0.1,0.3,0.1,0.3c0.3,0.2,1.2,0,1.4-0.3
			c0.3-0.4,0.4-1.5,0.1-2.1C69.6,46,69.1,46,68.5,46c-0.2,0-0.3,0.1-0.3,0.3C68.2,46.7,68.2,47.1,68.2,47.4z M68.2,43.5L68.2,43.5
			c0,0.3,0,0.6,0,0.9c0,0.1,0.1,0.3,0.1,0.3c0.3,0.2,1.2,0,1.4-0.3c0.3-0.4,0.3-1.3,0.1-1.7c-0.2-0.3-0.9-0.5-1.4-0.4
			c-0.1,0-0.2,0.2-0.2,0.3C68.2,42.9,68.2,43.2,68.2,43.5z"/>
		<path class="st0" d="M41.3,45.3c1.3,0.8,1.8,2.2,1.1,3.6c-0.4,0.8-1,1.1-1.8,1.2c-0.9,0-1.8,0-2.6,0c-0.4,0-0.4-0.2-0.4-0.5
			c0-2.2,0-4.4,0-6.7c0-0.5,0-0.9,0-1.4c0-0.2,0-0.4,0.3-0.4c0.9,0,1.8-0.1,2.7,0.1c1.3,0.1,1.9,1,1.8,2.3
			C42.3,44.3,42.2,45,41.3,45.3z M39.2,47.4c0,0.4,0,0.8,0,1.1c0,0.1,0.1,0.3,0.2,0.3c0.7,0.3,1.5-0.2,1.6-0.9c0-0.3,0.1-0.6,0-0.8
			c-0.1-0.9-0.6-1.3-1.5-1.2c-0.2,0-0.3,0.1-0.3,0.3C39.2,46.7,39.2,47,39.2,47.4z M39.2,43.5L39.2,43.5c0,0.3,0,0.6,0,0.9
			c0,0.1,0.1,0.3,0.1,0.3c0.4,0.2,1.2,0,1.4-0.4c0.3-0.5,0.3-1.1,0-1.6s-0.8-0.4-1.3-0.4c-0.1,0-0.3,0.2-0.3,0.3
			C39.2,42.9,39.2,43.2,39.2,43.5z"/>
		<path class="st0" d="M76.4,31.1c0,0.8,0.1,1.6,0,2.4c-0.2,1.8-1.3,2.2-2.6,2.2c-1.6-0.1-2.3-0.8-2.4-2.4c-0.1-1.4-0.1-2.9,0-4.3
			c0.1-1.9,1.2-2.5,2.9-2.4c1.5,0.1,2.2,1,2.2,2.7C76.5,29.8,76.5,30.4,76.4,31.1C76.5,31.1,76.4,31.1,76.4,31.1z M74.8,31L74.8,31
			c0-0.7,0-1.5,0-2.2c0-0.2,0-0.5-0.1-0.7c-0.1-0.4-0.4-0.5-0.8-0.5c-0.3,0-0.6,0.1-0.8,0.5C73,28.3,73,28.5,73,28.7
			c0,1.5,0,3.1,0,4.6c0,0.1,0,0.3,0.1,0.4c0.1,0.5,0.5,0.7,1,0.6c0.4-0.1,0.7-0.4,0.7-0.9C74.8,32.6,74.8,31.8,74.8,31z"/>
		<path class="st0" d="M96.2,20.9c-0.5,0-1,0-1.4,0c-0.1,0-0.2-0.2-0.3-0.4c-0.3-1.1-0.6-2.2-0.9-3.3c-0.1-0.2-0.1-0.4-0.4-0.4
			s-0.4,0.1-0.4,0.4c0,1.1,0,2.1,0,3.2c0,0.4-0.1,0.5-0.5,0.5c-0.3,0-0.5,0-0.8,0c-0.2,0-0.3-0.1-0.3-0.3c0-0.4,0-0.7,0-1.1
			c0-2.3,0-4.6,0-7c0-0.6,0-0.6,0.6-0.6c0.7,0,1.5,0,2.2,0.1c1.4,0.1,2,0.8,2,2.2c0,0.5-0.1,0.9-0.2,1.4c-0.1,0.3-0.3,0.5-0.5,0.7
			c-0.4,0.2-0.3,0.5-0.2,0.8c0.3,1.1,0.6,2.2,0.9,3.3C96.1,20.6,96.2,20.7,96.2,20.9z M93.3,15.8L93.3,15.8c0.3,0,0.7-0.1,0.9-0.3
			c0.4-0.5,0.4-1.2,0.2-1.8c-0.2-0.5-0.7-0.5-1.2-0.6c-0.3,0-0.4,0.1-0.4,0.4c0,0.6,0,1.2,0,1.9C92.8,15.7,92.9,15.9,93.3,15.8z"/>
		<path class="st0" d="M78.9,20.9c-0.5,0-1,0-1.4,0c-0.1,0-0.3-0.2-0.3-0.3c-0.3-1.1-0.6-2.2-0.9-3.3c-0.1-0.2-0.1-0.4-0.4-0.4
			s-0.4,0.1-0.4,0.4c0,1,0,2.1,0,3.1c0,0.4-0.1,0.5-0.5,0.5c-1.1,0-1.1,0-1.1-1.1c0-2.4,0-4.9,0-7.3c0-0.4,0.1-0.5,0.5-0.5
			c0.7,0,1.5,0,2.2,0.1c1.5,0.1,2.2,0.8,2.2,2.4c0,0.4-0.1,0.9-0.2,1.3c-0.1,0.2-0.3,0.5-0.5,0.6c-0.2,0.2-0.3,0.3-0.2,0.6
			c0.3,1.2,0.7,2.3,1,3.5C78.8,20.5,78.8,20.7,78.9,20.9z M77.2,14.5c0-1-0.4-1.5-1.4-1.3c-0.1,0-0.3,0.2-0.3,0.3c0,0.7,0,1.4,0,2.1
			c0,0.1,0.2,0.3,0.3,0.3C76.7,15.9,77.2,15.4,77.2,14.5z"/>
		<path class="st0" d="M60.3,45.6c0,0.9,0,1.8-0.1,2.6c-0.2,1.1-0.9,1.8-2,1.8c-0.8,0.1-1.7,0-2.5,0c-0.4,0-0.3-0.2-0.3-0.5
			c0-1.9,0-3.8,0-5.7c0-0.8,0-1.5,0-2.3c0-0.3,0.1-0.4,0.4-0.4c0.7,0,1.4,0,2.2,0c1.5,0,2.3,0.8,2.3,2.3
			C60.2,44.2,60.2,44.9,60.3,45.6C60.2,45.6,60.3,45.6,60.3,45.6z M58.5,45.6C58.5,45.6,58.6,45.6,58.5,45.6c0.1-0.7,0.1-1.3,0.1-2
			v-0.1c-0.1-0.9-0.4-1.2-1.2-1.2c-0.3,0-0.4,0.1-0.4,0.4c0,0.6,0,1.3,0,1.9c0,1.3,0,2.6,0,3.9c0,0.1,0.1,0.4,0.2,0.4
			c0.6,0.3,1.3-0.2,1.4-0.9C58.6,47.2,58.5,46.4,58.5,45.6z"/>
		<path class="st0" d="M43.4,31c0-1.3,0-2.6,0-3.9c0-0.4,0.1-0.5,0.5-0.5c0.7,0,1.4,0,2.1,0c1.4,0.1,2.2,0.7,2.3,2.1
			c0.1,1.6,0.1,3.2,0,4.9c-0.1,1.2-0.9,1.8-2,1.9c-0.8,0-1.6,0-2.4,0c-0.3,0-0.3-0.2-0.3-0.4C43.4,33.7,43.4,32.4,43.4,31z M45.1,31
			c0,1,0,1.9,0,2.9c0,0.1,0,0.3,0.1,0.4c0.5,0.3,1.4-0.2,1.4-0.8c0-1.6,0.1-3.2,0-4.7c0-0.8-0.4-1-1.2-1c-0.3,0-0.4,0.1-0.4,0.4
			C45.1,29.1,45.1,30.1,45.1,31z"/>
		<path class="st0" d="M51.8,20.9c-0.5,0-1,0-1.4,0c-0.1,0-0.3-0.2-0.3-0.4c-0.3-1.1-0.6-2.2-0.9-3.3c0-0.2-0.1-0.3-0.3-0.4
			c-0.3-0.1-0.5,0-0.5,0.4c0,1.1,0,2.1,0,3.2c0,0.3-0.1,0.5-0.4,0.4c-0.3,0-0.6,0-0.9,0c-0.1,0-0.2-0.2-0.3-0.3c0,0,0-0.1,0-0.2
			c0-2.7,0-5.3,0-8c0-0.4,0.1-0.5,0.5-0.5c0.8,0,1.5,0,2.3,0.1c1.3,0.1,1.9,0.7,2.1,1.9c0.1,1,0,1.9-0.9,2.5c-0.1,0.1-0.1,0.3,0,0.4
			c0.3,1.2,0.7,2.3,1,3.5C51.7,20.6,51.7,20.7,51.8,20.9z M48.4,14.5c0,0.3,0,0.7,0,1c0,0.2,0.1,0.3,0.3,0.3c0.5,0,0.9,0,1.2-0.5
			c0.3-0.6,0.3-1.2,0-1.8c-0.2-0.5-0.7-0.4-1.2-0.4c-0.2,0-0.3,0.1-0.3,0.3C48.4,13.8,48.4,14.1,48.4,14.5z"/>
		<path class="st0" d="M54.4,50.1c-0.5,0-1,0-1.5,0c-0.1,0-0.2-0.2-0.3-0.4c-0.3-1.1-0.6-2.2-0.9-3.3c0-0.1-0.2-0.3-0.3-0.4
			c-0.4-0.1-0.5,0-0.5,0.4c0,1,0,2.1,0,3.1c0,0.5,0,0.6-0.5,0.6c-1.1,0-1.1,0-1.1-1.1c0-2.4,0-4.9,0-7.3c0-0.5,0-0.5,0.5-0.5
			c0.9,0,1.8,0,2.6,0.1c1.1,0.1,1.7,0.8,1.7,1.9c0,0.4,0,0.9-0.1,1.3c-0.1,0.4-0.4,0.7-0.6,1c-0.2,0.2-0.3,0.4-0.2,0.6
			c0.3,1.1,0.6,2.2,1,3.4C54.4,49.6,54.4,49.8,54.4,50.1z M51,43.6c0,0.3,0,0.7,0,1c0,0.1,0.2,0.3,0.2,0.3c0.8,0,1.4-0.1,1.4-1.2
			c0-0.1,0-0.3,0-0.4c0-0.8-0.8-1.3-1.5-1c-0.1,0-0.2,0.2-0.2,0.3C51,43,51,43.3,51,43.6z"/>
		<path class="st0" d="M48.4,45.6c0,0.7,0,1.3,0,2c-0.1,1.8-1.1,2.7-2.9,2.5c-1.4-0.1-2.1-0.8-2.2-2.5c-0.1-1.5,0-3.1,0-4.6
			c0.1-1.3,0.9-2,2.2-2c2-0.1,2.8,0.8,2.8,2.7C48.4,44.4,48.4,45,48.4,45.6L48.4,45.6z M45,45.6L45,45.6c0,0.7,0,1.5,0,2.2
			c0,0.2,0,0.4,0.1,0.6c0.1,0.4,0.4,0.5,0.8,0.5c0.4,0,0.7-0.2,0.8-0.5c0.1-0.2,0.1-0.5,0.1-0.7c0-1.4,0-2.8,0-4.2
			c0-0.2,0-0.4,0-0.5c-0.1-0.6-0.6-0.9-1.2-0.7c-0.4,0.1-0.5,0.5-0.5,0.9C45,44,45,44.8,45,45.6z"/>
		<path class="st0" d="M37.9,15.9c0,1.5,0,3,0,4.4c0,0.6,0,0.6-0.6,0.6c-0.9,0-0.8,0.1-0.8-0.8c0-2.5,0-5,0-7.6
			c0-0.2-0.1-0.5,0.2-0.6c0.5-0.1,0.9,0,1,0.3c0.6,1.4,1.2,2.8,1.8,4.3c0,0,0.1,0.1,0.1,0.3c0-0.2,0-0.4,0-0.5c0-1.3,0-2.6,0-3.9
			c0-0.4,0.1-0.5,0.5-0.5c1,0,0.9-0.1,0.9,0.9c0,2.5,0,5,0,7.5c0,0.2,0.1,0.5-0.2,0.5c-0.5,0.1-0.9,0-1-0.3c-0.6-1.5-1.2-3-1.9-4.5
			C38.1,16.1,38,16,37.9,15.9C38,15.9,37.9,15.9,37.9,15.9z"/>
		<path class="st0" d="M84.8,16.4c0,0.9,0,1.8-0.1,2.6c-0.2,1.3-0.9,1.9-2.3,1.9c-0.2,0-0.4,0-0.5,0c-1.2-0.1-2.1-0.6-2.1-1.9
			c-0.1-1.8-0.1-3.6,0-5.4c0.1-1.2,0.8-1.7,1.9-1.9c0.5-0.1,1,0,1.5,0.1c1,0.2,1.6,1.1,1.6,2.3C84.7,15,84.7,15.7,84.8,16.4
			C84.7,16.4,84.7,16.4,84.8,16.4z M81.2,16.4C81.3,16.4,81.3,16.4,81.2,16.4c0.1,0.9,0,1.8,0.1,2.6c0,0.5,0.4,0.7,0.9,0.7
			s0.8-0.3,0.8-0.8c0-0.2,0.1-0.5,0.1-0.7c0-1.3,0-2.5,0-3.8c0-0.3,0-0.6-0.1-0.8c-0.1-0.4-0.3-0.6-0.7-0.6c-0.6-0.1-1,0.3-1,1.1
			C81.2,14.9,81.2,15.7,81.2,16.4z"/>
		<path class="st0" d="M58.9,30.5c0,1.5,0,3,0,4.4c0,0.5,0,0.6-0.6,0.6c-0.9,0-0.8,0.1-0.8-0.8c0-2.5,0-5,0-7.5
			c0-0.2-0.1-0.5,0.2-0.5c0.5-0.1,0.9,0,1.1,0.3c0.6,1.4,1.2,2.8,1.8,4.1c0,0.1,0.1,0.2,0.2,0.3c0-0.1,0-0.3,0-0.4
			c0-1.3,0-2.6,0-3.9c0-0.4,0.1-0.5,0.5-0.5c0.9,0,0.8-0.1,0.8,0.8c0,2.5,0,5,0,7.5c0,0.2,0.1,0.5-0.2,0.6c-0.5,0.1-0.9,0-1-0.4
			c-0.6-1.5-1.2-2.9-1.8-4.4C59.1,30.7,59,30.6,58.9,30.5C59,30.5,58.9,30.5,58.9,30.5z"/>
		<path class="st0" d="M56.4,20.2c-0.5,0.7-1.1,1-1.8,0.9c-1.1-0.1-1.7-0.6-1.9-1.7c-0.1-0.4-0.2-0.9-0.2-1.3c0-1.3,0-2.5,0.1-3.8
			c0.1-1.6,1-2.4,2.6-2.3c1.8,0.1,2.4,1.1,2.3,2.8c0,0.1-0.2,0.2-0.3,0.2c-0.3,0-0.6,0-0.9,0C56,15,56,14.9,56,14.6
			c0-0.3,0-0.6-0.1-0.9c-0.1-0.4-0.4-0.6-0.8-0.6c-0.4,0-0.7,0.2-0.8,0.6c-0.1,0.2-0.1,0.4-0.1,0.6c0,1.5,0,2.9,0,4.4
			c0,0.2,0,0.4,0.1,0.6c0.1,0.5,0.3,0.7,0.8,0.7c0.4,0,0.8-0.2,0.9-0.6c0.1-0.5,0.1-1,0.2-1.5c0-0.3-0.2-0.3-0.4-0.3
			s-0.5-0.1-0.5-0.1c-0.1-0.3,0-0.5,0-0.8c0,0,0.2-0.1,0.3-0.1c0.6,0,1.2,0,1.8,0c0.2,0,0.3,0.1,0.3,0.3c0,1.3,0,2.6,0,3.9
			c0,0.2-0.1,0.4-0.3,0.3c-0.1,0-0.2,0-0.3,0c-0.3,0-0.5-0.1-0.5-0.4C56.5,20.4,56.4,20.4,56.4,20.2z"/>
		<path class="st0" d="M56.4,30.1c0,1.2,0.1,2.3,0,3.5c-0.2,1.7-1.1,2.1-2.5,2c-1.6,0-2.3-0.8-2.4-2.4c-0.1-2.1,0-4.1-0.1-6.2
			c0-0.3,0.1-0.4,0.4-0.4c0.2,0,0.5,0,0.7,0c0.4,0,0.5,0.1,0.5,0.5c0,1.9,0,3.8,0,5.7c0,0.3,0,0.6,0.1,0.9c0.1,0.4,0.4,0.7,0.8,0.7
			c0.4,0,0.7-0.2,0.8-0.6c0.1-0.3,0.1-0.6,0.1-1c0-1.9,0-3.8,0-5.7c0-0.4,0.1-0.6,0.5-0.5c1.2,0,1-0.2,1.1,1.1
			C56.5,28.5,56.5,29.3,56.4,30.1C56.5,30.1,56.4,30.1,56.4,30.1z"/>
		<path class="st0" d="M82.4,30.2c0,1,0,2,0,3c0,0.1,0,0.3,0,0.4c-0.3,1.9-2.6,2.8-4.1,1.6c-0.6-0.5-0.8-1.2-0.8-1.9
			c0-2.1,0-4.2,0-6.3c0-0.2,0.1-0.3,0.3-0.3c0.2,0,0.4,0,0.7,0c0.6,0,0.6,0,0.6,0.6c0,1.9,0,3.7,0,5.6c0,0.4,0.1,0.7,0.1,1.1
			c0.1,0.4,0.4,0.6,0.8,0.6s0.7-0.2,0.8-0.6c0.1-0.3,0.1-0.6,0.1-0.8c0-2,0-3.9,0-5.9c0-0.4,0.1-0.5,0.5-0.5c1.2,0,1.1-0.2,1.1,1
			C82.4,28.5,82.4,29.3,82.4,30.2L82.4,30.2z"/>
		<path class="st0" d="M67.3,31c0,0.7,0,1.5,0,2.2c0,0.8,0.3,1.2,0.9,1.2S69,34,69,33.2c0-1.1,0-1.1,1.1-1.1c0.3,0,0.5,0.1,0.4,0.4
			c0,0.4,0,0.8-0.1,1.1c-0.2,1.5-1.1,2-2.5,1.9c-1.6-0.1-2.3-0.8-2.4-2.6c-0.1-1.4,0-2.9,0.1-4.3c0.1-1.3,0.7-2,2.1-2.1
			c0.4-0.1,0.9,0,1.4,0.1c0.9,0.2,1.4,0.9,1.4,1.9c0,0.3,0,0.6,0,0.9s-0.1,0.4-0.4,0.4c-1.2,0.1-1.2,0.1-1.2-1.1c0-0.4,0-0.8-0.5-1
			c-0.6-0.2-1.1,0.2-1.1,0.8C67.3,29.4,67.3,30.2,67.3,31L67.3,31z"/>
		<path class="st0" d="M65.9,50.1c-0.5,0-0.9,0-1.3,0c-0.1,0-0.2-0.2-0.2-0.3c-0.1-0.4-0.2-0.9-0.2-1.3c0-0.3-0.2-0.5-0.5-0.5
			c-1.1,0-1.1,0-1.3,1.1c-0.2,1.2,0,1-1.2,1c-0.5,0-0.5,0-0.4-0.5c0.5-2.7,1.1-5.3,1.6-8c0.1-0.3,0.2-0.4,0.5-0.4
			c1.3,0,1.3,0,1.6,1.3c0.5,2.3,0.9,4.7,1.4,7C65.8,49.6,65.9,49.8,65.9,50.1z M63.8,46.8c-0.2-1.1-0.4-2.2-0.5-3.2
			c-0.2,0.8-0.4,1.6-0.5,2.4c-0.1,1-0.1,1,0.9,0.9C63.8,46.9,63.8,46.9,63.8,46.8z"/>
		<path class="st0" d="M31.6,50.1c0.1-0.5,0.2-0.9,0.2-1.3c0.5-2.4,1-4.7,1.4-7.1c0.1-0.4,0.2-0.5,0.6-0.5c1.2,0,1.2,0,1.4,1.2
			c0.5,2.4,1,4.8,1.5,7.3c0.1,0.4,0,0.5-0.4,0.5c-1,0-1,0-1.2-1C35,48,35,48,33.9,48c-0.3,0-0.5,0.1-0.5,0.4c0,0.4-0.2,0.9-0.2,1.3
			c0,0.2-0.2,0.4-0.4,0.4C32.4,50.1,32,50.1,31.6,50.1z M34.3,43.7L34.3,43.7c-0.3,1-0.4,2-0.6,3c0,0.1,0.1,0.2,0.2,0.2
			c0.3,0,0.6,0,0.9,0C34.7,45.8,34.5,44.7,34.3,43.7z"/>
		<path class="st0" d="M85.7,16.5c0-1.3,0-2.7,0-4c0-0.4,0.1-0.5,0.5-0.5c0.9,0,1.7,0,2.6,0.1c0.8,0.1,1.4,0.5,1.6,1.4
			c0.2,0.7,0.2,1.3,0.1,2c-0.2,0.9-0.9,1.4-1.9,1.5c-0.2,0-0.4,0-0.6,0c-0.6,0-0.6,0-0.6,0.7c0,0.9,0,1.9,0,2.8
			c0,0.4-0.1,0.5-0.5,0.5c-1.1,0-1.1,0-1.1-1.1C85.7,18.7,85.7,17.6,85.7,16.5z M87.3,14.5L87.3,14.5c0,0.3,0,0.7,0,1
			c0,0.1,0.1,0.3,0.2,0.3c0.8,0.2,1.4-0.2,1.5-1c0-0.1,0-0.2,0-0.4c0-1-0.3-1.2-1.3-1.2c-0.3,0-0.5,0.1-0.4,0.4
			C87.3,13.9,87.3,14.2,87.3,14.5z"/>
		<path class="st0" d="M68.3,16.4c0-1.3,0-2.7,0-4c0-0.4,0.1-0.5,0.5-0.5c0.8,0,1.7,0,2.5,0.1c1.1,0.1,1.7,0.6,1.8,1.7
			c0.1,0.5,0.1,1,0,1.5c-0.1,1-0.9,1.6-1.9,1.7c-0.2,0-0.5,0-0.7,0c-0.5,0-0.5,0-0.5,0.6c0,1,0,2,0,3c0,0.3-0.1,0.5-0.4,0.4
			c-0.3,0-0.5,0-0.8,0c-0.4,0-0.5-0.1-0.5-0.5C68.3,19.1,68.3,17.8,68.3,16.4z M70,14.5L70,14.5c0,0.3,0,0.7,0,1
			c0,0.1,0.1,0.3,0.2,0.3c0.7,0.3,1.4-0.2,1.5-1c0-0.3,0-0.6,0-0.9c-0.1-0.4-0.3-0.7-0.7-0.7c-0.2,0-0.4,0-0.6,0
			c-0.1,0-0.3,0.2-0.3,0.3C70,13.8,70,14.1,70,14.5z"/>
		<path class="st0" d="M72,68.4c-1,0-1.6-1-1.1-1.9c0.8-1.5,1.7-2.9,2.5-4.3c0.3-0.4,0.5-0.9,0.8-1.3c0.4-0.6,1.1-0.8,1.8-0.5
			c0.6,0.3,0.8,1.1,0.5,1.7c-1.1,1.9-2.2,3.8-3.3,5.8C72.9,68.2,72.5,68.4,72,68.4z"/>
		<path class="st0" d="M40.7,69.6c0.1,0,0.4,0.1,0.6,0.2c1.9,1.1,3.7,2.1,5.6,3.2c0.6,0.4,0.8,1.1,0.5,1.8c-0.3,0.6-1.1,0.8-1.7,0.5
			c-1.9-1.1-3.8-2.2-5.7-3.3c-0.5-0.3-0.7-0.9-0.6-1.5C39.5,70,40,69.6,40.7,69.6z"/>
		<path class="st0" d="M46.2,91.6c0.6,0,1.1,0.4,1.3,0.9c0.2,0.6-0.1,1.2-0.6,1.5c-1.9,1.1-3.8,2.2-5.6,3.2
			c-0.7,0.4-1.4,0.2-1.8-0.4c-0.4-0.6-0.1-1.4,0.5-1.8c1.8-1.1,3.7-2.1,5.5-3.2C45.7,91.8,45.9,91.7,46.2,91.6z"/>
		<path class="st0" d="M49.9,60.2c0.5,0,0.9,0.2,1.1,0.7c1.1,1.9,2.2,3.8,3.2,5.6c0.3,0.6,0.1,1.4-0.4,1.7c-0.6,0.3-1.4,0.2-1.7-0.4
			c-1.1-1.9-2.2-3.8-3.3-5.7C48.3,61.2,49,60.2,49.9,60.2z"/>
		<path class="st0" d="M76.6,105.5c0,0.6-0.4,1.1-0.9,1.3c-0.6,0.2-1.2,0-1.5-0.5c-1.1-1.9-2.2-3.8-3.3-5.7
			c-0.3-0.6-0.1-1.4,0.5-1.7c0.6-0.4,1.4-0.1,1.8,0.5c1.1,1.9,2.2,3.7,3.2,5.6C76.5,105.1,76.6,105.3,76.6,105.5z"/>
		<path class="st0" d="M50,106.9c-1,0-1.6-1-1.1-1.8c1.1-1.9,2.2-3.8,3.3-5.7c0.3-0.6,1.2-0.8,1.7-0.5c0.6,0.3,0.8,1.1,0.5,1.7
			c-0.7,1.3-1.4,2.5-2.2,3.8c-0.4,0.6-0.7,1.3-1.1,1.9C50.9,106.7,50.5,106.9,50,106.9z"/>
		<path class="st0" d="M84.7,97.5c-0.2-0.1-0.4-0.1-0.6-0.2c-1.9-1.1-3.7-2.1-5.6-3.2c-0.7-0.4-0.9-1.2-0.5-1.8
			c0.4-0.6,1.1-0.8,1.8-0.4c1.9,1.1,3.7,2.1,5.6,3.2c0.6,0.3,0.8,0.9,0.6,1.5C85.8,97.1,85.3,97.4,84.7,97.5z"/>
		<path class="st0" d="M79.1,75.4c-0.6,0-1.1-0.4-1.3-0.9c-0.2-0.6,0-1.2,0.6-1.5c1.9-1.1,3.8-2.2,5.7-3.3c0.6-0.4,1.4-0.1,1.7,0.5
			c0.3,0.6,0.1,1.4-0.5,1.7c-1.9,1.1-3.8,2.2-5.6,3.2C79.5,75.3,79.3,75.3,79.1,75.4z"/>
		<path class="st0" d="M61.4,61.4c0-1.1,0-2.1,0-3.2c0-0.8,0.5-1.3,1.3-1.3c0.7,0,1.3,0.6,1.3,1.3c0,2.1,0,4.3,0,6.4
			c0,0.7-0.5,1.3-1.2,1.3s-1.3-0.6-1.3-1.3C61.4,63.5,61.4,62.4,61.4,61.4z"/>
		<path class="st0" d="M84.8,84.8c-1.1,0-2.1,0-3.2,0c-0.8,0-1.3-0.5-1.4-1.3c0-0.7,0.6-1.3,1.4-1.3c2.1,0,4.3,0,6.4,0
			c0.8,0,1.3,0.5,1.3,1.3c0,0.7-0.6,1.2-1.3,1.2C87,84.8,85.9,84.8,84.8,84.8z"/>
		<path class="st0" d="M63.9,105.7c0,1.1,0,2.1,0,3.2c0,0.8-0.6,1.3-1.3,1.3s-1.3-0.6-1.3-1.4c0-2.1,0-4.3,0-6.4
			c0-0.8,0.5-1.3,1.3-1.4c0.7,0,1.3,0.6,1.3,1.3C63.9,103.6,63.9,104.6,63.9,105.7z"/>
		<path class="st0" d="M40.4,84.8c-1.1,0-2.1,0-3.2,0c-0.8,0-1.3-0.6-1.3-1.3c0-0.7,0.6-1.2,1.3-1.2c2.2,0,4.3,0,6.5,0
			c0.8,0,1.3,0.5,1.3,1.3c0,0.7-0.6,1.3-1.3,1.3C42.6,84.8,41.5,84.8,40.4,84.8z"/>
		<path class="st0" d="M61.4,16.4c0-1.3,0-2.7,0-4c0-0.4,0.1-0.5,0.5-0.5c0.9,0,1.9,0,2.8,0c0.3,0,0.5,0.1,0.4,0.5
			c0,0.1,0,0.1,0,0.2c0,0.6,0,0.6-0.6,0.6c-0.4,0-0.8,0-1.1,0S63,13.3,63,13.6c0,0.6,0,1.2,0,1.8c0,0.2,0.1,0.3,0.3,0.3
			c0.3,0,0.7,0,1,0c0.2,0,0.3,0.1,0.3,0.3c0,0.8,0,0.8-0.8,0.8c-1,0-0.9-0.1-0.9,0.9c0,0.5,0,1.1,0,1.6c0,0.3,0.1,0.4,0.4,0.4
			c0.5,0,0.9,0,1.4,0c0.3,0,0.4,0.1,0.4,0.4c0,0.8,0,0.8-0.8,0.8c-0.9,0-1.7,0-2.6,0c-0.4,0-0.5-0.1-0.5-0.5
			C61.4,19.1,61.4,17.8,61.4,16.4z"/>
		<path class="st0" d="M99,12c0.5,0,1,0,1.5,0c0.3,0,0.4,0.1,0.4,0.4c0,1,0.1,0.8-0.8,0.8c-0.3,0-0.7,0-1,0c-0.1,0-0.3,0.2-0.3,0.3
			c0,0.7,0,1.3,0,2c0,0.1,0.2,0.3,0.3,0.3c0.3,0,0.7,0,1,0s0.4,0.1,0.4,0.4v0.1c0,0.7,0,0.7-0.7,0.7c-1,0-1,0-1,1c0,0.5,0,1,0,1.5
			c0,0.3,0.1,0.4,0.4,0.4c0.4,0,0.9,0,1.3,0c0.3,0,0.4,0.1,0.4,0.4c0,0.1,0,0.2,0,0.3c0,0.3-0.1,0.4-0.4,0.4c-1,0-2,0-2.9,0
			c-0.3,0-0.4-0.1-0.4-0.4c0-2.7,0-5.5,0-8.2c0-0.3,0.1-0.4,0.4-0.4C98,12,98.5,12,99,12z"/>
		<path class="st0" d="M42.3,16.4c0-1.3,0-2.7,0-4c0-0.4,0.1-0.5,0.5-0.5c0.9,0,1.9,0,2.8,0c0.3,0,0.4,0.1,0.4,0.4
			c0,0.8,0,0.8-0.8,0.8c-0.3,0-0.6,0-0.9,0c-0.3,0-0.4,0.1-0.4,0.4c0,0.6,0,1.2,0,1.7c0,0.3,0.1,0.4,0.4,0.4c0.3,0,0.7,0,1,0
			c0.1,0,0.2,0.2,0.3,0.3l0,0c0.1,0.8,0.1,0.8-0.8,0.8c-1,0-0.9-0.1-0.9,0.9c0,0.5,0,1.1,0,1.6c0,0.3,0.1,0.4,0.4,0.4
			c0.4,0,0.9,0,1.3,0c0.3,0,0.4,0.1,0.4,0.4c0,0.8,0,0.8-0.7,0.8c-0.8,0-1.7,0-2.5,0c-0.5,0-0.5,0-0.6-0.5
			C42.3,19.1,42.3,17.8,42.3,16.4z"/>
		<path class="st0" d="M32.1,16.4c0-1.3,0-2.7,0-4c0-0.3,0.1-0.5,0.4-0.4c1,0,1.9,0,2.9,0c0.3,0,0.4,0.1,0.4,0.4
			c0,0.8,0,0.8-0.8,0.8c-0.3,0-0.7,0-1,0c-0.2,0-0.3,0.1-0.3,0.3c0,0.6,0,1.2,0,1.9c0,0.2,0.1,0.3,0.3,0.3c0.3,0,0.6,0,0.9,0
			c0.3,0,0.4,0.1,0.4,0.4c0,0.8,0,0.8-0.7,0.8c-0.9,0-0.9,0-0.9,0.9c0,0.5,0,1,0,1.5c0,0.4,0.1,0.5,0.5,0.5s0.8,0,1.2,0
			c0.3,0,0.4,0.1,0.4,0.4v0.1c0,0.7,0,0.7-0.7,0.7c-0.9,0-1.7,0-2.6,0c-0.4,0-0.5-0.1-0.5-0.5C32.1,19.1,32.1,17.8,32.1,16.4z"/>
		<path class="st0" d="M32.1,31c0-1.3,0-2.6,0-3.9c0-0.3,0.1-0.5,0.5-0.5c0.9,0,1.9,0,2.8,0c0.3,0,0.5,0.1,0.4,0.5
			c0,0.1,0,0.2,0,0.4c0,0.2-0.1,0.3-0.3,0.3c-0.5,0-0.9,0-1.4,0c-0.3,0-0.4,0.1-0.4,0.4c0,0.6,0,1.2,0,1.8c0,0.3,0.1,0.4,0.4,0.4
			c0.3,0,0.7,0,1,0c0.1,0,0.2,0.2,0.3,0.3l0,0c0.1,0.8,0,0.8-0.8,0.8c-1.1,0-0.9-0.1-0.9,0.9c0,0.5,0,1.1,0,1.6
			c0,0.3,0.1,0.4,0.4,0.4c0.4,0,0.9,0,1.3,0c0.3,0,0.4,0.1,0.4,0.4c0,0.1,0,0.1,0,0.2c0,0.5,0,0.5-0.5,0.5c-0.9,0-1.9,0-2.8,0
			c-0.3,0-0.4-0.1-0.4-0.4C32.1,33.7,32.1,32.4,32.1,31z"/>
		<path class="st0" d="M76.9,45.6c0-1.3,0-2.6,0-3.9c0-0.4,0.1-0.5,0.5-0.5c0.9,0,1.9,0,2.8,0c0.4,0,0.5,0.1,0.5,0.5
			c0,0.1,0,0.1,0,0.2c0.1,0.4-0.1,0.6-0.5,0.5c-0.4,0-0.8,0-1.2,0c-0.3,0-0.4,0.1-0.4,0.4c0,0.6,0,1.2,0,1.8c0,0.2,0.1,0.3,0.3,0.3
			c0.3,0,0.6,0,0.9,0s0.4,0.1,0.4,0.4c0,0.8,0,0.8-0.7,0.8c-1.1,0-0.9-0.1-0.9,0.9c0,0.5,0,1.1,0,1.6c0,0.3,0.1,0.4,0.4,0.4
			c0.4,0,0.9,0,1.3,0c0.3,0,0.4,0.1,0.4,0.4c0,0.1,0,0.2,0,0.4s-0.1,0.3-0.3,0.3c-1,0-2.1,0-3.1,0c-0.3,0-0.3-0.2-0.3-0.4
			C76.9,48.3,76.9,46.9,76.9,45.6z"/>
		<path class="st0" d="M84.3,31.7c0-1.1,0-2.2,0-3.4c0-0.4-0.1-0.6-0.5-0.5c-0.1,0-0.3,0-0.4,0c-0.6,0-0.6,0-0.6-0.6s0-0.6,0.6-0.6
			c1.2,0,2.4,0,3.5,0c0.3,0,0.5,0.1,0.4,0.4c0,0.1,0,0.2,0,0.3c0,0.3-0.1,0.4-0.4,0.4c-1,0-1,0-1,1.1c0,2,0,4.1,0,6.1
			c0,0.4-0.1,0.5-0.5,0.5c-1.1,0-1.1,0-1.1-1.1C84.3,33.5,84.3,32.6,84.3,31.7z"/>
		<path class="st0" d="M37.4,31.6c0-1.1,0-2.3,0-3.4c0-0.3-0.1-0.5-0.4-0.5c-0.1,0-0.3,0-0.4,0c-0.6,0-0.6,0-0.6-0.7
			c0-0.4,0.1-0.5,0.5-0.5c1.2,0,2.4,0,3.6,0c0.5,0,0.5,0.2,0.5,0.6c0,0.6,0,0.6-0.5,0.6c-0.9,0-0.9,0-0.9,1c0,2.1,0,4.2,0,6.3
			c0,0.4-0.1,0.5-0.5,0.5c-1.1,0-1.1,0-1.1-1.1C37.4,33.5,37.4,32.5,37.4,31.6z"/>
		<path class="st0" d="M72.5,45.6c0-1.3,0-2.6,0-3.9c0-0.4,0.1-0.5,0.5-0.5c1.1,0,1.1,0,1.1,1.1c0,2,0,4,0,6.1c0,0.6,0,0.6,0.6,0.6
			c0.4,0,0.7,0,1.1,0c0.3,0,0.4,0.1,0.4,0.4c0,0.1,0,0.2,0,0.4s-0.1,0.3-0.3,0.3c-1,0-2.1,0-3.1,0c-0.3,0-0.3-0.2-0.3-0.4
			C72.5,48.3,72.5,46.9,72.5,45.6z"/>
		<path class="st0" d="M60.2,16.5c0,1.3,0,2.7,0,4c0,0.4-0.1,0.5-0.5,0.5c-1.1,0-1.1,0-1.1-1.1c0-2.4,0-4.9,0-7.3
			c0-0.4,0.1-0.5,0.5-0.5c1,0,1,0,1,1.1C60.2,14.2,60.2,15.3,60.2,16.5z"/>
		<path class="st0" d="M79.9,24.6c-0.3,0.5-0.4,0.9-0.7,1.1c-0.2,0.2-0.6,0-1,0c0.3-0.7,0.6-1.2,0.9-1.8c0-0.1,0.2-0.1,0.3-0.1
			c1-0.1,1.1-0.1,1.6,0.9c0.2,0.3,0.3,0.7,0.5,1C80.4,26.2,80.2,25.3,79.9,24.6z"/>
		<path class="st0" d="M50.8,27.5c0,0.4-0.1,0.8-0.1,1.2c-0.1,0.5-0.4,0.9-0.8,0.9c-0.1,0-0.3-0.1-0.4-0.2c0-0.1,0.1-0.3,0.2-0.3
			c0.3-0.2,0.4-0.5,0.3-0.9c0-0.1-0.2-0.2-0.3-0.2c-0.4,0-0.4-0.2-0.4-0.5c0-1.1-0.1-1,0.9-1c0.5,0,0.5,0,0.5,0.5
			C50.8,27.3,50.8,27.4,50.8,27.5L50.8,27.5z"/>
		<path class="st0" d="M35.7,9c-0.5,0.8-0.8,1.4-1.3,2c-0.1,0.2-0.5,0.2-0.8,0.2l-0.1-0.1c0.2-0.7,0.4-1.3,0.6-2
			C34.1,9,34.2,9,34.3,9C34.7,9,35.2,9,35.7,9z"/>
	</g>
</g>
</svg>
