<?xml version="1.0" encoding="utf-8"?>
<!-- Generator: Adobe Illustrator 24.3.0, SVG Export Plug-In . SVG Version: 6.00 Build 0)  -->
<svg version="1.1" id="Layer_1" xmlns="http://www.w3.org/2000/svg" xmlns:xlink="http://www.w3.org/1999/xlink" x="0px" y="0px"
	 viewBox="0 0 125 125" style="enable-background:new 0 0 125 125;" xml:space="preserve">
<style type="text/css">
	.st0{fill:#A21942;}
</style>
<g>
	<g>
		<path class="st0" d="M83.1,89.1c0,6.4,0,12.8,0,19.2c0,0.9-0.2,1.1-1,1.1c-3.3,0-6.7,0-10,0c-0.9,0-1-0.2-1-1c0-9.2,0-18.3,0-27.5
			c0-0.8,0.2-1.3,0.8-1.9c3.4-3.2,6.8-6.5,10.2-9.7c0.2-0.2,0.5-0.5,0.8-0.4c0.4,0.2,0.3,0.6,0.3,0.9C83.1,76.2,83.1,82.7,83.1,89.1
			z"/>
		<path class="st0" d="M68.1,96.4c0,4,0,7.9,0,11.9c0,0.8-0.2,1-1,1c-3.4,0-6.7,0-10.1,0c-0.8,0-1-0.2-1-1c0-7.8,0-15.7,0-23.5
			c0-0.3-0.1-0.7,0.3-0.8c0.4-0.2,0.6,0.2,0.8,0.4c1.5,1.5,2.9,3,4.4,4.5c0.3,0.3,0.4,0.3,0.7,0c1.6-1.6,3.2-3.2,4.8-4.8
			c0.2-0.2,0.5-0.6,0.9-0.4c0.4,0.2,0.3,0.6,0.3,0.9C68.1,88.5,68.1,92.5,68.1,96.4z"/>
		<path class="st0" d="M61.7,79.3c6.1-6.1,12.2-12.2,18.2-18.2c-0.5-0.5-1.1-1.1-1.6-1.6c-0.1-0.2-0.2-0.4-0.3-0.6
			c0.2-0.1,0.4-0.3,0.6-0.3c2.5-0.6,5-1.1,7.6-1.7c0.7-0.1,0.8,0,0.7,0.7c-0.5,2.6-1.1,5.1-1.6,7.7c0,0.1,0,0.2-0.1,0.2
			c-0.1,0.4-0.3,0.4-0.6,0.2c-0.5-0.5-1-1-1.5-1.5c-0.1-0.1-0.2-0.2-0.3-0.3c-0.1,0.1-0.3,0.3-0.4,0.4C75.6,70.8,69,77.4,62.4,84
			c-0.1,0.1-0.2,0.2-0.2,0.2c-0.4,0.3-0.4,0.3-0.8,0c-0.1-0.1-0.2-0.2-0.2-0.2c-2.5-2.5-5.1-5.1-7.6-7.6c-0.3-0.3-0.5-0.3-0.7,0
			c-3.8,3.8-7.5,7.5-11.3,11.3c-0.5,0.5-1,1-1.5,1.5c-0.3,0.3-0.5,0.3-0.7,0c-0.6-0.7-1.3-1.3-1.9-1.9c-0.4-0.4-0.4-0.4,0-0.8
			c3.5-3.5,7-7,10.5-10.5c1.6-1.6,3.2-3.2,4.8-4.8c0.4-0.4,0.4-0.4,0.8,0c2.6,2.6,5.2,5.2,7.8,7.8C61.6,79,61.6,79.1,61.7,79.3z"/>
		<path class="st0" d="M52.8,95.6c0,4.3,0,8.5,0,12.8c0,0.8-0.2,1-1,1c-3.4,0-6.8,0-10.1,0c-0.8,0-1-0.2-1-1c0-4.8,0-9.5,0-14.3
			c0-0.9,0.3-1.5,0.9-2.1c3.2-3,6.4-6.1,9.6-9.2c0.2-0.2,0.5-0.5,0.7-0.7c0.4-0.3,0.8-0.2,0.8,0.4c0,0.1,0,0.3,0,0.4
			C52.8,87.1,52.8,91.3,52.8,95.6z"/>
		<path class="st0" d="M20.8,23.1c0.2,0.1,0.3,0.2,0.5,0.3c0.9,0.7,1.4,1.5,1.8,2.6c0.6,2.1,0.6,4.1-0.1,6.2
			c-0.7,2.2-2.3,3.3-4.5,3.5c-1,0.1-2,0.1-2.9-0.1C13.4,35.2,12,34,11.4,32c-0.6-1.7-0.6-3.5-0.3-5.2c0.3-1.5,1-2.9,2.5-3.7
			c-0.1-0.1-0.1-0.1-0.2-0.2c-1.4-1.2-2-2.7-2.1-4.5c0-1,0-1.9,0.2-2.8c0.6-2.2,2.1-3.4,4.3-3.8c1-0.2,2.1-0.2,3.1,0.1
			c2.1,0.4,3.5,1.8,4,3.9c0.4,1.5,0.3,2.9-0.1,4.4c-0.3,1.1-0.8,2-1.7,2.7C21,22.9,21,23,20.8,23.1z M15.3,28.5
			c0.1,0.8,0.1,1.4,0.2,1.9c0,0.3,0.1,0.6,0.2,0.9c0.2,0.5,0.5,0.8,1,1c0.9,0.2,1.7-0.2,2-1.1c0.2-0.7,0.3-1.5,0.3-2.3
			c0-0.9,0-1.9-0.4-2.8c-0.2-0.5-0.5-0.8-1-1c-0.9-0.3-1.8,0.1-2.1,1C15.5,27,15.4,27.9,15.3,28.5z M18.9,18c-0.1-0.7-0.2-1.3-0.4-2
			c-0.1-0.4-0.5-0.7-1-0.8c-0.8-0.2-1.4,0.2-1.7,1c-0.4,1.4-0.4,2.8,0.1,4.2c0.2,0.7,0.7,1,1.3,1c0.6,0,1.1-0.4,1.2-1.1
			C18.7,19.6,18.8,18.8,18.9,18z"/>
		<path class="st0" d="M64.6,44.5c-0.3,1.6-0.7,3.1-1,4.7c0,0.1-0.1,0.3-0.1,0.4c0,0.4-0.2,0.5-0.6,0.5c-0.4,0-0.5-0.1-0.6-0.5
			c-0.3-1.6-0.7-3.2-1-4.8c0-0.1-0.1-0.2-0.1-0.3c0,0-0.1,0-0.1,0c0,1.7,0,3.4,0,5.1c0,0.4-0.1,0.5-0.5,0.5c-0.9,0-0.8,0.1-0.8-0.8
			c0-2,0.1-3.9,0.1-5.9c0-0.7,0-1.3,0.1-2c0-0.2,0.1-0.3,0.3-0.3c1.4-0.1,1.4-0.1,1.7,1.3c0.3,1.6,0.6,3.1,1,4.7
			c0.1-0.6,0.3-1.2,0.4-1.9c0.3-1.2,0.5-2.4,0.8-3.7c0.1-0.3,0.2-0.4,0.5-0.4c0.3,0,0.6,0,0.9,0c0.3,0,0.4,0.1,0.4,0.4
			c0,1.9,0.1,3.8,0.1,5.7c0,0.8,0,1.7,0.1,2.5c0,0.3-0.1,0.5-0.4,0.5c-1,0-0.9,0.1-0.9-0.9c0-1.6,0-3.2,0-4.7
			C64.6,44.5,64.6,44.5,64.6,44.5z"/>
		<path class="st0" d="M74.1,51.9c-0.7-0.3-1.1-0.9-1.5-1.4c-0.1-0.1-0.3-0.3-0.4-0.3c-1.6-0.1-2.3-0.7-2.5-2.3
			c-0.1-1.5-0.1-3.1,0-4.7c0.1-1.8,1.2-2.4,2.9-2.2c1.4,0.1,2.1,0.8,2.2,2.2c0.1,1.5,0.1,2.9,0,4.4c0,0.9-0.3,1.8-1.2,2.3
			c0.1,0.1,0.2,0.3,0.3,0.4c0.6,0.3,0.5,0.8,0.3,1.3C74.1,51.7,74.1,51.8,74.1,51.9z M71.3,45.6C71.3,45.6,71.3,45.6,71.3,45.6
			c0,0.3,0,0.5,0,0.8c0,0.6,0,1.2,0,1.7c0,0.5,0.3,0.8,0.8,0.8c0.5,0,0.8-0.2,0.9-0.7c0-0.2,0.1-0.3,0.1-0.5c0-1.4,0-2.8,0-4.3
			c0-0.2,0-0.5-0.1-0.7c-0.1-0.3-0.3-0.5-0.6-0.5c-0.7,0-1,0.2-1,0.9C71.3,44,71.3,44.8,71.3,45.6z"/>
		<path class="st0" d="M67.6,16.5c0-1.3,0-2.6,0-3.9c0-0.5,0-0.6,0.6-0.5c0.8,0,1.6,0,2.4,0.1c1.2,0.1,1.9,0.7,2,2
			c0.1,1.7,0.1,3.4,0,5c-0.1,1.2-0.9,1.8-2,1.9c-0.8,0.1-1.7,0-2.5,0c-0.3,0-0.3-0.2-0.3-0.4C67.6,19.2,67.6,17.8,67.6,16.5z
			 M69.3,19.7c1.2,0.2,1.5-0.3,1.5-1.1c0-1.4,0-2.9,0-4.3c0-0.8-0.3-1-1.1-1.1c-0.4,0-0.5,0.1-0.5,0.5c0,1.9,0,3.8,0,5.6
			C69.3,19.4,69.3,19.6,69.3,19.7z"/>
		<path class="st0" d="M41.6,20.9c-0.5,0-1,0-1.5,0c-0.1,0-0.2-0.2-0.3-0.4c-0.3-1.1-0.6-2.2-0.9-3.3c0-0.1-0.2-0.3-0.3-0.3
			c-0.3-0.1-0.4,0-0.4,0.4c0,1,0,2.1,0,3.1c0,0.6,0,0.6-0.6,0.6c-0.2,0-0.5,0-0.7,0c-0.3,0-0.4-0.1-0.4-0.4c0-0.1,0-0.1,0-0.2
			c0-2.7,0-5.3,0-8c0-0.3,0.1-0.5,0.5-0.5c0.9,0,1.7,0,2.6,0.1c1.2,0.1,1.8,0.7,1.9,1.9c0.1,0.5,0,1.1-0.1,1.6
			c-0.1,0.3-0.3,0.6-0.5,0.8c-0.3,0.2-0.3,0.4-0.2,0.7c0.3,1.2,0.7,2.3,1,3.5C41.6,20.6,41.6,20.7,41.6,20.9z M39.9,14.4
			c0-1.2-0.5-1.3-1.3-1.3c-0.1,0-0.3,0.2-0.3,0.3c0,0.7,0,1.4,0,2.1c0,0.2,0.1,0.3,0.3,0.3C39.5,15.8,39.9,15.4,39.9,14.4z"/>
		<path class="st0" d="M54.8,35.5c-0.5,0-1,0-1.4,0c-0.1,0-0.3-0.2-0.3-0.3c-0.3-1.1-0.6-2.2-0.9-3.3c-0.1-0.3-0.2-0.4-0.5-0.4
			c-0.3,0-0.2,0.3-0.2,0.5c0,1.1,0,2.1,0,3.2c0,0.3-0.1,0.5-0.4,0.4c-0.3,0-0.6,0-0.9,0c-0.3,0-0.4-0.1-0.4-0.4c0-0.6,0-1.1,0-1.7
			c0-2.1,0-4.2,0-6.3c0-0.5,0-0.6,0.6-0.5c0.7,0,1.5,0,2.2,0.1c1.5,0.1,2.2,0.9,2.2,2.4c0,0.8-0.1,1.6-0.9,2.1
			c-0.1,0-0.1,0.3-0.1,0.4c0.3,1.2,0.7,2.4,1,3.6C54.7,35.2,54.8,35.3,54.8,35.5z M51.4,29c0,0.3,0,0.6,0,1c0,0.3,0.1,0.3,0.4,0.3
			c0.9,0,1.3-0.4,1.3-1.5c0-0.8-0.4-1.2-1.3-1.1c-0.2,0-0.3,0.1-0.3,0.3C51.4,28.4,51.4,28.7,51.4,29z"/>
		<path class="st0" d="M53.7,45.6c0-0.7,0-1.3,0-2c0.1-1.9,1-2.7,3-2.6c1.3,0.1,2.1,0.8,2.1,2.2c0.1,1.5,0.1,3.1,0,4.6
			c-0.1,2.1-1.5,2.5-3.1,2.3c-1.3-0.2-2-1-2.1-2.5C53.7,47,53.7,46.3,53.7,45.6C53.7,45.6,53.7,45.6,53.7,45.6z M55.4,45.6
			C55.4,45.6,55.4,45.6,55.4,45.6c0,0.8,0,1.7,0,2.5c0,0.6,0.3,0.8,0.8,0.8c0.5,0,0.8-0.2,0.9-0.7c0-0.2,0.1-0.3,0.1-0.5
			c0-1.4,0-2.8,0-4.1c0-0.2,0-0.5-0.1-0.7c-0.1-0.3-0.3-0.5-0.7-0.5c-0.7,0-1,0.2-1,0.9C55.4,44,55.4,44.8,55.4,45.6z"/>
		<path class="st0" d="M60.7,31c0,0.8,0.1,1.7,0,2.5c-0.1,1.3-0.8,2-2.1,2.1c-0.5,0.1-1,0-1.5-0.1c-0.6-0.1-1-0.5-1.2-1.1
			c-0.2-0.5-0.3-1-0.3-1.5c0-1.2,0-2.4,0-3.7c0-0.3,0-0.6,0.1-0.9c0.3-1.4,1.3-2,3-1.8c1.3,0.1,1.9,0.8,2,2.1
			C60.8,29.4,60.7,30.2,60.7,31z M57.3,31c0,0.8,0,1.6,0,2.4c0,0.8,0.4,1.1,1,1c0.5,0,0.7-0.3,0.7-1c0-1.5,0-3.1,0-4.6
			c0-0.1,0-0.2,0-0.3c-0.1-0.6-0.5-0.8-1.1-0.7c-0.4,0.1-0.6,0.4-0.6,0.9C57.3,29.5,57.3,30.2,57.3,31z"/>
		<path class="st0" d="M47.3,45.7c0,0.6,0,1.3,0,1.9c0,1.9-1.2,2.9-3.1,2.6c-1.2-0.2-2-0.8-2-2.1c-0.1-1.7-0.1-3.4,0-5.1
			c0.1-1.5,1.3-2.2,2.9-2c1.4,0.2,2.2,1,2.2,2.5C47.3,44.2,47.3,44.9,47.3,45.7C47.3,45.7,47.3,45.7,47.3,45.7z M45.6,45.7
			C45.6,45.7,45.6,45.7,45.6,45.7c0-0.9,0-1.7,0-2.6c0-0.5-0.3-0.8-0.8-0.8c-0.6,0-0.8,0.2-0.9,0.7c0,0.1,0,0.3,0,0.4
			c0,1.5,0,2.9,0,4.4c0,0.2,0,0.3,0.1,0.5c0.1,0.5,0.4,0.7,0.9,0.6c0.5-0.1,0.7-0.3,0.8-0.9C45.6,47.3,45.6,46.5,45.6,45.7z"/>
		<path class="st0" d="M84.3,31.3c0-0.5,0-1,0-1.5c0-0.8,0-1.5,0-2.3c0-0.3,0-0.8,0.1-0.8c0.3-0.1,0.7-0.1,1.1-0.1
			c0.1,0,0.2,0.1,0.2,0.2c0,0.2,0,0.4,0,0.6c0,2.5,0,5,0,7.6c0,0.4-0.1,0.5-0.5,0.5c-0.5,0-0.7-0.1-0.9-0.6
			c-0.5-1.4-1.1-2.7-1.7-4.1c0-0.1-0.1-0.2-0.2-0.3c0,0.9,0,1.8,0,2.7c0,0.6,0,1.3,0,1.9c0,0.2-0.1,0.3-0.3,0.3
			c-1.4,0-1.1,0.2-1.1-1.1c0-2.5,0-4.9,0-7.4c0-0.4,0.1-0.5,0.5-0.5c0.5,0,0.7,0.1,0.9,0.6c0.5,1.3,1.1,2.6,1.7,3.9
			C84.1,31.1,84.2,31.2,84.3,31.3C84.3,31.3,84.3,31.3,84.3,31.3z"/>
		<path class="st0" d="M91.1,16.7c0-1.4,0-2.8,0-4.2c0-0.4,0.1-0.5,0.5-0.5c0.9,0,0.9,0,0.9,0.9c0,2.5,0,5.1,0,7.6
			c0,0.4-0.1,0.5-0.5,0.5c-0.5,0-0.7-0.1-0.9-0.6c-0.6-1.5-1.2-2.9-1.9-4.4c0,0.1,0,0.2,0,0.3c0,1.4,0,2.8,0,4.2
			c0,0.3-0.1,0.4-0.4,0.4c-1,0-1,0-1-1c0-2.5,0-5,0-7.4c0-0.6,0-0.5,0.5-0.6c0.5,0,0.7,0.1,0.9,0.6C89.8,13.9,90.5,15.3,91.1,16.7
			C91.1,16.7,91.1,16.7,91.1,16.7z"/>
		<path class="st0" d="M51.4,45.8c0-1.3,0-2.7,0-4c0-0.6,0-0.6,0.6-0.6c0.9,0,0.8-0.1,0.8,0.8c0,2.5,0,5.1,0,7.6
			c0,0.2,0.1,0.5-0.2,0.6c-0.5,0.1-0.9,0-1.1-0.4c-0.6-1.6-1.3-3.1-2-4.8c0,0.2,0,0.3,0,0.4c0,1.4,0,2.8,0,4.3
			c0,0.3-0.1,0.5-0.4,0.5c-1,0-1,0-1-1c0-2.5,0-5,0-7.4c0-0.6,0-0.5,0.5-0.6c0.5,0,0.7,0.2,0.9,0.6c0.5,1.3,1.1,2.5,1.6,3.8
			C51.3,45.6,51.3,45.7,51.4,45.8C51.4,45.8,51.4,45.8,51.4,45.8z"/>
		<path class="st0" d="M77.2,44.6c0,1.2,0,2.3,0,3.5c0,0.6,0.4,0.9,0.9,0.9c0.4,0,0.6-0.2,0.7-0.6c0.1-0.3,0.1-0.7,0.1-1
			c0-1.9,0-3.8,0-5.7c0-0.4,0.1-0.5,0.5-0.5c0.3,0,0.6,0,0.9,0c0.2,0,0.3,0.1,0.3,0.3c0,2.2,0,4.4-0.1,6.5c-0.1,1.6-1.3,2.4-3,2.2
			c-1.2-0.2-1.9-0.9-2-2.2c-0.1-1.2-0.1-2.3-0.1-3.5c0-1,0-2,0-2.9c0-0.3,0.1-0.4,0.4-0.4c1.2,0,1.2,0,1.2,1.2
			C77.2,43.1,77.2,43.8,77.2,44.6C77.2,44.6,77.2,44.6,77.2,44.6z"/>
		<path class="st0" d="M45.5,31c0,0.8,0,1.6,0,2.4c0,0.6,0.3,0.9,0.8,0.9c0.5,0,0.8-0.2,0.8-0.7c0-0.4,0-0.8,0-1.2
			c0-0.2,0.1-0.3,0.3-0.3c0.3,0,0.7,0,1,0c0.1,0,0.3,0.1,0.3,0.2c-0.1,0.7-0.1,1.4-0.2,2c-0.1,0.6-0.6,1-1.2,1.1
			c-0.6,0.2-1.3,0.2-1.9,0c-1-0.3-1.5-1.1-1.5-2c-0.1-1.6-0.1-3.3,0-4.9c0.1-1.6,1.1-2.3,3-2.1c1.3,0.1,1.9,0.9,2,2.1
			c0,1.5,0.3,1.2-1.2,1.3c-0.3,0-0.5-0.1-0.4-0.5c0-0.3,0-0.7,0-1c0-0.4-0.2-0.7-0.6-0.7c-0.4-0.1-0.8,0.1-0.9,0.5
			c-0.1,0.2-0.1,0.5-0.1,0.7C45.5,29.6,45.5,30.3,45.5,31C45.5,31,45.5,31,45.5,31z"/>
		<path class="st0" d="M79.4,16.5c0,0.7,0,1.3,0,2c0,0.3,0,0.5,0.1,0.8c0.1,0.4,0.4,0.6,0.8,0.6c0.4,0,0.6-0.2,0.7-0.6
			c0.1-0.4,0.1-0.9,0.1-1.3c0-0.2,0.1-0.3,0.3-0.3c0.3,0,0.7,0,1,0c0.3,0,0.3,0.1,0.3,0.3c0,0.5,0,0.9-0.1,1.4
			c-0.2,1.3-1.1,1.9-2.6,1.8c-1.5-0.1-2.1-0.8-2.2-2.4c-0.1-1.5-0.1-3,0-4.4c0.1-1.9,1.4-2.5,3.1-2.3c1.1,0.1,1.7,0.8,1.8,2
			c0,0.4,0,0.7,0.1,1.1c0,0.3-0.1,0.4-0.4,0.4c-0.4,0-0.9,0.1-1.1-0.1c-0.2-0.1-0.1-0.7-0.2-1.1c0-0.1,0-0.3,0-0.4
			c0-0.4-0.3-0.6-0.7-0.6c-0.4,0-0.7,0.1-0.8,0.5c-0.1,0.2-0.1,0.5-0.1,0.7C79.3,15,79.4,15.8,79.4,16.5z"/>
		<path class="st0" d="M36.5,45.6c0-0.8-0.1-1.6,0-2.4c0.2-1.8,1.2-2.3,2.8-2.2c1.4,0.1,2.1,0.8,2.1,2.2c0,1.5,0.2,1.2-1.1,1.2
			c-0.4,0-0.5-0.1-0.5-0.5c0-0.3,0-0.7,0-1.1c0-0.4-0.2-0.6-0.6-0.6c-0.4,0-0.8,0-0.9,0.4c-0.1,0.2-0.1,0.5-0.1,0.7
			c0,1.4,0,2.8,0,4.2c0,0.2,0,0.4,0.1,0.6c0.1,0.4,0.4,0.6,0.8,0.6c0.4,0,0.7-0.2,0.7-0.7c0-0.4,0.1-0.8,0.1-1.2
			c0-0.3,0.1-0.4,0.4-0.4c0.3,0,0.6,0,0.9,0c0.1,0,0.3,0.2,0.3,0.2c0,0.6,0,1.2-0.2,1.8c-0.2,0.9-0.9,1.3-1.8,1.4
			c-0.5,0-1,0-1.4-0.1c-1-0.2-1.5-1-1.6-1.9C36.4,47.3,36.5,46.5,36.5,45.6C36.4,45.6,36.5,45.6,36.5,45.6z"/>
		<path class="st0" d="M86.7,31c0-0.7,0-1.4,0-2.1c0.1-1.8,1.2-2.7,3-2.5c1.2,0.2,1.8,0.8,2,2.1c0.2,1.3,0.1,1.4-1.2,1.3
			c-0.3,0-0.4-0.1-0.4-0.4c0-0.3,0-0.7,0-1c0-0.5-0.3-0.7-0.7-0.7c-0.4,0-0.8,0.2-0.9,0.6c0,0.2-0.1,0.3-0.1,0.5
			c0,1.6,0,3.1,0.1,4.7c0,0.6,0.3,0.8,0.9,0.8c0.5,0,0.7-0.3,0.7-0.9c0-0.3,0-0.7,0-1c0-0.2,0.1-0.3,0.3-0.3c0.1,0,0.3,0,0.4,0
			c0.9,0,0.9,0,0.9,0.9c0,0.1,0,0.3,0,0.4c-0.2,2-2.4,2.9-4.1,1.7c-0.7-0.5-0.9-1.2-0.9-2C86.7,32.5,86.7,31.8,86.7,31
			C86.7,31,86.7,31,86.7,31z"/>
		<path class="st0" d="M52.2,20.9c0.2-0.9,0.4-1.8,0.5-2.7c0.4-2,0.8-4,1.2-5.9c0.1-0.3,0.2-0.4,0.5-0.4c0.4,0,1-0.1,1.3,0.1
			c0.3,0.2,0.2,0.8,0.3,1.2c0.5,2.3,0.9,4.6,1.4,7c0,0.2,0.1,0.4,0.1,0.7c-0.5,0-0.9,0-1.4,0c-0.1,0-0.2-0.2-0.2-0.3
			c-0.1-0.4-0.2-0.9-0.2-1.4c0-0.3-0.1-0.4-0.4-0.3c-0.2,0-0.5,0-0.7,0c-0.4-0.1-0.5,0.1-0.6,0.5c0,0.4-0.1,0.9-0.2,1.3
			c0,0.1-0.2,0.3-0.3,0.3C53.1,21,52.7,20.9,52.2,20.9z M55.4,17.6c-0.2-1-0.3-2.1-0.5-3.1c-0.2,0.8-0.3,1.6-0.4,2.4
			C54.3,17.8,54.4,17.9,55.4,17.6C55.3,17.7,55.3,17.7,55.4,17.6z"/>
		<path class="st0" d="M41.9,20.9c0.2-0.9,0.3-1.7,0.5-2.5c0.4-2,0.8-4,1.2-6c0.1-0.4,0.2-0.6,0.7-0.5c0.3,0,0.5,0,0.8,0
			c0.3,0,0.4,0.1,0.5,0.4c0.6,2.8,1.1,5.6,1.7,8.4c0,0.1,0,0.1,0,0.3c-0.5,0-0.9,0-1.4,0c-0.1,0-0.2-0.2-0.2-0.3
			c-0.1-0.5-0.2-1-0.3-1.4c0-0.1-0.2-0.2-0.3-0.3c0,0-0.1,0-0.1,0c-1.1,0-1.1,0-1.3,1.1c-0.2,1-0.2,1-1.2,1
			C42.4,20.9,42.2,20.9,41.9,20.9z M45.2,17.7c-0.2-1.1-0.3-2.1-0.5-3.2c0,0,0,0-0.1,0c-0.2,1-0.3,2.1-0.5,3.2
			C44.5,17.7,44.8,17.7,45.2,17.7z"/>
		<path class="st0" d="M80.3,35.5c-0.5,0-0.9,0-1.4,0c-0.1,0-0.2-0.2-0.2-0.3c-0.1-0.4-0.2-0.9-0.2-1.4c0-0.3-0.1-0.4-0.5-0.4
			c-1.1,0-1.1,0-1.3,1.1c-0.2,1.2,0,0.9-1.1,1c-0.2,0-0.4,0-0.6,0c0.1-0.6,0.2-1.3,0.4-1.9c0.5-2.2,0.9-4.5,1.4-6.7
			c0.1-0.3,0.2-0.4,0.5-0.4c0.1,0,0.1,0,0.2,0c1.1,0,1.1,0,1.3,1.1c0.5,2.5,1,5,1.5,7.4C80.2,35.2,80.2,35.3,80.3,35.5z M77.6,29.1
			C77.6,29.1,77.6,29.1,77.6,29.1c-0.2,1-0.4,1.9-0.5,2.9c0,0.2,0,0.4,0.3,0.4c0.1,0,0.3,0,0.4,0c0.2,0,0.3-0.1,0.3-0.3
			C78,31.1,77.8,30.1,77.6,29.1z"/>
		<path class="st0" d="M67.7,29.2c-0.1-0.4-0.1-0.7-0.2-0.9c-0.1-0.4-0.4-0.6-0.8-0.5c-0.4,0-0.6,0.3-0.6,0.7c0,0.4,0.1,0.8,0.4,1.1
			c0.4,0.4,0.9,0.8,1.4,1.2c0.8,0.7,1.4,1.5,1.4,2.7c0,1.1-0.7,1.9-1.8,2.1c-1.7,0.3-2.9-0.8-3-2.4c0-0.2,0.1-0.3,0.3-0.4
			c0,0,0.1,0,0.1,0c0.3-0.1,0.7-0.2,0.9-0.1c0.2,0.1,0.2,0.5,0.2,0.8c0.1,0.2,0.1,0.4,0.3,0.6c0.2,0.3,0.5,0.3,0.8,0.2
			c0.3-0.1,0.4-0.3,0.5-0.6c0-0.6-0.2-1.1-0.6-1.5c-0.5-0.5-1.1-1-1.6-1.4c-0.8-0.7-1.1-1.6-0.9-2.7c0.2-1.2,1.3-1.8,2.7-1.6
			c1.2,0.2,1.7,1,1.9,2.2c0,0.1-0.1,0.2-0.2,0.3C68.5,29,68.1,29.1,67.7,29.2z"/>
		<path class="st0" d="M71.3,32.6c0,0.3,0.1,0.5,0.1,0.7c0,0.2,0.1,0.4,0.2,0.5c0.2,0.4,0.6,0.5,0.9,0.4c0.3-0.1,0.5-0.4,0.5-0.8
			c0-0.5-0.3-1-0.7-1.3c-0.5-0.4-1-0.9-1.5-1.3c-0.6-0.5-1-1.2-1-2c0-1.3,0.7-2.2,2-2.3c1.5-0.2,2.5,0.7,2.6,2.1
			c0,0.2,0,0.4-0.3,0.4c-0.3,0-0.7,0.1-1.1,0.2c-0.1-0.3-0.1-0.6-0.2-0.8c-0.1-0.5-0.4-0.7-0.9-0.6c-0.4,0.1-0.6,0.4-0.6,0.8
			c0.1,0.3,0.2,0.7,0.4,1c0.4,0.5,0.9,0.9,1.4,1.3c0.9,0.8,1.4,1.7,1.3,2.9c-0.1,0.7-0.4,1.2-1,1.6c-1.5,0.9-3.4,0-3.7-1.7
			c-0.2-1-0.1-0.8,0.7-1C70.8,32.7,71,32.6,71.3,32.6z"/>
		<path class="st0" d="M47.1,12c0.5,0,0.9,0,1.3,0c0.1,0,0.3,0.2,0.3,0.4c0.3,1.7,0.7,3.5,1,5.2c0,0.1,0,0.2,0.1,0.3
			c0.2-1.2,0.4-2.5,0.7-3.7c0.1-0.6,0.2-1.3,0.3-1.9c0-0.2,0.1-0.3,0.4-0.3c0.4,0,0.8,0,1.2,0c0,0.3-0.1,0.5-0.1,0.7
			c-0.5,2.6-1.1,5.2-1.6,7.8c-0.1,0.4-0.2,0.5-0.6,0.5c-1.2,0-1.2,0-1.4-1.1c-0.5-2.5-1-4.9-1.5-7.4C47.2,12.3,47.2,12.2,47.1,12z"
			/>
		<path class="st0" d="M81.5,45.6c0-1.3,0-2.7,0-4c0-0.3,0.1-0.5,0.5-0.5c1,0,2,0,2.9,0c0.3,0,0.4,0.1,0.4,0.4
			c0,0.9,0.1,0.8-0.7,0.8c-0.3,0-0.7,0-1,0c-0.2,0-0.3,0.1-0.3,0.3c0,0.6,0,1.2,0,1.9c0,0.3,0.1,0.3,0.3,0.3c0.3,0,0.7,0,1,0
			c0.1,0,0.3,0.2,0.3,0.3c0,1.1,0.1,0.9-0.9,0.9c-0.9,0-0.8-0.1-0.8,0.8c0,0.5,0,1,0,1.5c0,0.6,0,0.6,0.6,0.6c0.4,0,0.8,0,1.2,0
			c0.3,0,0.4,0.1,0.4,0.4c0,1,0.1,0.8-0.8,0.9c-0.9,0-1.7,0-2.6,0c-0.3,0-0.4-0.1-0.4-0.4C81.5,48.3,81.5,47,81.5,45.6z"/>
		<path class="st0" d="M83.4,16.5c0-1.3,0-2.7,0-4c0-0.4,0.1-0.5,0.5-0.5c1,0,1.9,0,2.9,0c0.3,0,0.4,0.1,0.4,0.4
			c0,1,0.1,0.8-0.8,0.8c-0.3,0-0.7,0-1,0c-0.2,0-0.3,0.1-0.3,0.3c0,0.6,0,1.3,0,1.9c0,0.2,0.1,0.3,0.3,0.3c0.4,0,0.7,0,1.1,0
			c0.1,0,0.2,0.2,0.3,0.2c0,0,0,0,0,0c0,1.1,0.1,0.9-0.8,0.9c-1,0-0.8-0.1-0.8,0.8c0,0.6,0,1.1,0,1.7c0,0.3,0.1,0.4,0.4,0.4
			c0.5,0,0.9,0,1.4,0c0.2,0,0.3,0.1,0.3,0.3c0,1,0.1,0.8-0.8,0.8c-0.9,0-1.7,0-2.6,0c-0.4,0-0.5-0.1-0.5-0.5
			C83.4,19.1,83.4,17.8,83.4,16.5z"/>
		<path class="st0" d="M92.7,31c0-1.4,0-2.7,0-4.1c0-0.3,0.1-0.4,0.4-0.4c1,0,2,0,2.9,0c0.3,0,0.4,0.1,0.4,0.5
			c0,0.9,0.1,0.8-0.8,0.8c-0.4,0-0.7,0-1.1,0c-0.2,0-0.3,0.1-0.3,0.3c0,0.6,0,1.3,0,1.9c0,0.2,0.1,0.3,0.3,0.3c0.4,0,0.7,0,1.1,0
			c0.1,0,0.3,0.2,0.3,0.3c0,1.1,0.1,0.9-0.9,0.9c-0.9,0-0.8-0.1-0.8,0.8c0,0.5,0,1.1,0,1.6c0,0.3,0.1,0.4,0.4,0.4c0.5,0,0.9,0,1.4,0
			c0.3,0,0.4,0.1,0.4,0.4c0,1,0,0.8-0.8,0.8c-0.9,0-1.7,0-2.6,0c-0.4,0-0.5-0.1-0.5-0.5C92.7,33.7,92.7,32.4,92.7,31z"/>
		<path class="st0" d="M33.9,27.8c0,0.9,0,1.6,0,2.5c0.4,0,0.9,0,1.3,0c0.3,0,0.4,0.1,0.4,0.3c0,0.9,0,0.9-0.9,0.9
			c-0.8,0-0.8,0-0.8,0.8c0,0.5,0,1.1,0,1.6c0,0.4,0.1,0.4,0.4,0.4c0.4,0,0.9,0,1.3,0c0.3,0,0.4,0.1,0.4,0.4c0,1,0.1,0.8-0.8,0.8
			c-0.9,0-1.7,0-2.6,0c-0.3,0-0.4-0.1-0.4-0.4c0-2.7,0-5.5,0-8.2c0-0.3,0.1-0.4,0.4-0.4c1,0,2,0,3.1,0c0.3,0,0.4,0.1,0.4,0.4
			c0,1,0.1,0.8-0.9,0.9C34.7,27.8,34.3,27.8,33.9,27.8z"/>
		<path class="st0" d="M33.9,42.3c0,0.8,0,1.5,0,2.3c0,0.1,0.2,0.2,0.3,0.2c0.4,0,0.7,0,1.1,0c0.2,0,0.3,0.1,0.3,0.3
			c0,1.1,0.1,0.9-0.8,0.9c-0.9,0-0.9,0-0.9,0.9c0,0.5,0,1,0,1.5c0,0.4,0.1,0.5,0.5,0.5c0.4,0,0.8,0,1.3,0c0.3,0,0.4,0.1,0.4,0.4
			c0,1,0.1,0.8-0.8,0.8c-0.9,0-1.7,0-2.6,0c-0.3,0-0.5-0.1-0.5-0.4c0-2.7,0-5.4,0-8.1c0-0.3,0.1-0.4,0.4-0.4c1,0,2,0,3,0
			c0.3,0,0.4,0.1,0.4,0.4c0,1,0.1,0.8-0.8,0.8C34.8,42.3,34.4,42.3,33.9,42.3z"/>
		<path class="st0" d="M75.1,13.3c0,0.8,0,1.6,0,2.4c0.4,0,0.9,0,1.3,0c0.3,0,0.4,0.1,0.4,0.3c0,1,0,0.8-0.8,0.8
			c-0.9,0-0.9,0-0.9,0.9c0,0.6,0,1.1,0,1.7c0,0.2,0.1,0.3,0.3,0.3c0.5,0,0.9,0,1.4,0c0.3,0,0.4,0.1,0.4,0.4c0,0.9,0.1,0.8-0.8,0.8
			c-0.9,0-1.7,0-2.6,0c-0.3,0-0.5-0.1-0.5-0.4c0-2.7,0-5.4,0-8.1c0-0.3,0.1-0.4,0.4-0.4c1,0,2,0,3,0c0.3,0,0.4,0.1,0.4,0.4
			c0,1,0.1,0.8-0.8,0.8c-0.4,0-0.8,0-1.1,0C75.2,13.2,75.1,13.2,75.1,13.3z"/>
		<path class="st0" d="M33,17.1c0-1.1,0-2.3,0-3.4c0-0.3-0.1-0.5-0.4-0.4c-0.1,0-0.1,0-0.2,0c-0.8,0-1-0.2-0.8-1
			c0-0.1,0.2-0.2,0.3-0.2c1.4,0,2.7,0,4.1,0c0.1,0,0.2,0.1,0.2,0.1c0,0.3,0,0.6,0,1c0,0-0.1,0.1-0.2,0.1c-0.1,0-0.1,0-0.2,0
			c-1,0-1,0-1,1.1c0,2,0,4.1,0,6.1c0,0.4-0.1,0.6-0.5,0.5c-0.2,0-0.5,0-0.7,0c-0.4,0-0.5-0.1-0.5-0.5C33.1,19.3,33,18.2,33,17.1z"/>
		<path class="st0" d="M94.4,17.1c0-1.2,0-2.3,0-3.5c0-0.3-0.1-0.4-0.4-0.4c-0.1,0-0.2,0-0.2,0c-0.9,0-1-0.2-0.8-1
			c0-0.1,0.2-0.2,0.3-0.2c1.3,0,2.7,0,4,0c0.1,0,0.2,0.2,0.3,0.3c0,0,0,0,0,0c0,1.1,0.1,0.9-0.9,0.9c-0.6,0-0.6,0-0.6,0.6
			c0,2.2,0,4.4,0,6.7c0,0.4-0.1,0.5-0.5,0.5c-1.2,0-1.2,0-1.2-1.2C94.4,18.9,94.4,18,94.4,17.1z"/>
		<path class="st0" d="M37.7,31.7c0-1.2,0-2.3,0-3.5c0-0.3-0.1-0.4-0.4-0.4c-0.1,0-0.2,0-0.3,0c-0.9,0-1-0.2-0.8-1.1
			c0-0.1,0.2-0.2,0.3-0.2c1.3,0,2.7,0,4,0c0.2,0,0.3,0.1,0.3,0.3c0,1.2,0.1,0.9-0.9,1c-0.5,0-0.5,0-0.5,0.6c0,2.2,0,4.4,0,6.7
			c0,0.4-0.1,0.5-0.5,0.5c-1.2,0-1.2,0-1.2-1.2C37.7,33.4,37.7,32.6,37.7,31.7z"/>
		<path class="st0" d="M60.8,16.4c0-1.3,0-2.7,0-4c0-0.4,0.1-0.5,0.5-0.5c0.3,0,0.5,0,0.8,0c0.3,0,0.4,0.1,0.4,0.4
			c0,1.5,0,3.1,0,4.6c0,0.8,0,1.6,0,2.4c0,0.3,0.1,0.4,0.4,0.4c0.5,0,0.9,0,1.4,0c0.3,0,0.4,0.1,0.4,0.4c0,1,0.1,0.8-0.8,0.8
			c-0.8,0-1.7,0-2.5,0c-0.5,0-0.5,0-0.5-0.5C60.8,19.1,60.8,17.8,60.8,16.4z"/>
		<path class="st0" d="M63.5,31c0,1.3,0,2.7,0,4c0,0.4-0.1,0.5-0.5,0.5c-1.2,0-1.2,0-1.2-1.2c0-2.4,0-4.9,0-7.3c0-0.5,0-0.5,0.5-0.5
			c1.1,0,1.1,0,1.1,1.1C63.5,28.8,63.5,29.9,63.5,31z"/>
		<path class="st0" d="M58.2,16.4c0-1.3,0-2.7,0-4c0-0.4,0.1-0.5,0.5-0.5c1.2,0,1.2,0,1.2,1.2c0,2.4,0,4.9,0,7.3
			c0,0.5,0,0.5-0.5,0.5c-1.1,0-1.1,0-1.1-1.1C58.2,18.7,58.2,17.6,58.2,16.4z"/>
		<path class="st0" d="M67,45.6c0-1.3,0-2.7,0-4c0-0.3,0.1-0.4,0.4-0.5c1.2,0,1.2,0,1.2,1.2c0,2.4,0,4.8,0,7.2
			c0,0.4-0.1,0.5-0.5,0.5c-1.2,0-1.2,0-1.2-1.1C67,47.9,67,46.7,67,45.6z"/>
		<path class="st0" d="M35.9,38.2c-0.5,0.8-0.9,1.5-1.3,2.2c-0.1,0.2-0.6,0.1-1,0.2c0.2-0.8,0.4-1.5,0.7-2.2c0-0.1,0.2-0.1,0.3-0.1
			C35,38.2,35.4,38.2,35.9,38.2z"/>
		<path class="st0" d="M74.8,11.2c0.2-0.7,0.4-1.3,0.6-2c0-0.1,0.2-0.2,0.3-0.2c0.4,0,0.9,0,1.4,0c-0.2,0.4-0.4,0.7-0.6,1
			c-0.1,0.2-0.3,0.5-0.4,0.7C75.7,11.3,75.6,11.4,74.8,11.2z"/>
	</g>
</g>
</svg>
