<?xml version="1.0" encoding="utf-8"?>
<!-- Generator: Adobe Illustrator 24.3.0, SVG Export Plug-In . SVG Version: 6.00 Build 0)  -->
<svg version="1.1" id="Layer_1" xmlns="http://www.w3.org/2000/svg" xmlns:xlink="http://www.w3.org/1999/xlink" x="0px" y="0px"
	 viewBox="0 0 125 125" style="enable-background:new 0 0 125 125;" xml:space="preserve">
<style type="text/css">
	.st0{fill:#FD6925;}
</style>
<g>
	<g>
		<path class="st0" d="M36.9,94.4c0-2.4,0-4.7,0-7.1c0-0.6,0.2-0.9,0.7-1.2c3.9-2.2,7.8-4.5,11.6-6.7c0.3-0.2,0.4-0.4,0.4-0.8
			c0-4.4,0-8.8,0-13.3c0-0.7,0.2-1.1,0.8-1.4c4-2.3,8-4.6,11.9-6.9c0.6-0.4,1.1-0.4,1.8,0c4,2.3,8,4.6,12,6.9
			c0.6,0.3,0.8,0.7,0.8,1.3c0,4.4,0,8.8,0,13.2c0,0.4,0.1,0.7,0.5,0.9c3.8,2.2,7.6,4.4,11.5,6.6c0.5,0.3,0.8,0.7,0.8,1.3
			c0,4.7,0,9.4,0,14c0,0.6-0.2,0.9-0.7,1.2c-4,2.3-8,4.6-12,6.9c-0.6,0.4-1.1,0.4-1.8,0c-3.8-2.2-7.7-4.4-11.5-6.7
			c-0.3-0.2-0.5-0.1-0.8,0c-3.9,2.3-7.8,4.5-11.7,6.8c-0.5,0.3-0.9,0.3-1.3,0c-4.1-2.4-8.2-4.8-12.3-7.1c-0.4-0.2-0.6-0.6-0.6-1.1
			C36.9,99.2,36.9,96.8,36.9,94.4z M65,87.1c0.1,0.1,0.2,0.1,0.3,0.2c3.5,2,6.9,4,10.4,6c0.2,0.1,0.4,0.1,0.6,0
			c3.4-2,6.9-4,10.3-5.9c0.1-0.1,0.2-0.1,0.3-0.2c-0.1-0.1-0.2-0.1-0.2-0.2c-3.5-2-7-4-10.5-6c-0.3-0.2-0.5-0.1-0.7,0.1
			c-3.2,1.8-6.3,3.6-9.5,5.5C65.8,86.6,65.4,86.8,65,87.1z M76.9,107.6c0.2-0.1,0.4-0.2,0.5-0.3c3.4-1.9,6.7-3.9,10.1-5.8
			c0.3-0.2,0.4-0.4,0.4-0.7c0-3.9,0-7.9,0-11.8c0-0.1,0-0.3,0-0.4c-0.2,0.1-0.3,0.1-0.4,0.2c-3.4,2-6.8,3.9-10.2,5.9
			c-0.3,0.2-0.4,0.3-0.4,0.6c0,3.9,0,7.8,0,11.8C76.9,107.2,76.9,107.4,76.9,107.6z M38.7,88.6c0,0.2,0,0.4,0,0.5
			c0,3.9,0,7.8,0,11.7c0,0.3,0.1,0.5,0.4,0.7c3.4,2,6.8,3.9,10.2,5.9c0.1,0.1,0.2,0.1,0.4,0.2c0-0.2,0-0.4,0-0.5c0-3.9,0-7.8,0-11.7
			c0-0.3-0.1-0.5-0.4-0.7c-2.6-1.5-5.1-2.9-7.7-4.4C40.6,89.7,39.7,89.2,38.7,88.6z M61.5,72.4c-3.4-2-6.8-3.9-10.1-5.8
			c0,3.9,0,7.8,0,11.7C54.8,76.2,58.1,74.3,61.5,72.4z M51.4,95.9c0,3.9,0,7.8,0,11.7c3.4-2,6.7-3.9,10.1-5.8
			C58.1,99.8,54.8,97.9,51.4,95.9z M62.4,88.6c-3.4,2-6.7,3.9-10.1,5.8c3.4,2,6.7,3.9,10.1,5.8C62.4,96.3,62.4,92.5,62.4,88.6z
			 M62.4,73.9c-3.4,2-6.7,3.9-10.1,5.9c3.4,2,6.7,3.9,10.1,5.8C62.4,81.6,62.4,77.8,62.4,73.9z M64.2,85.6c3.4-2,6.7-3.9,10.1-5.8
			c-3.4-2-6.7-3.9-10.1-5.8C64.2,77.8,64.2,81.6,64.2,85.6z M75.1,78.2c0-3.9,0-7.7,0-11.6c-3.4,2-6.7,3.9-10.1,5.8
			C68.4,74.3,71.7,76.2,75.1,78.2z"/>
		<path class="st0" d="M18.9,25.4c-1.2,1.2-2.7,1.3-4.3,1c-1.2-0.2-2-0.9-2.6-2c-0.5-1-0.8-2-0.9-3.1c-0.2-1.8-0.2-3.6,0.4-5.4
			c0.8-2.7,2.7-4.2,5.6-4.2c0.7,0,1.4,0.1,2.1,0.2c1.8,0.4,3,1.5,3.7,3.2c0.5,1.1,0.7,2.3,0.7,3.6c0,3.2,0,6.5,0,9.7
			c0,1.4-0.3,2.8-0.8,4.1c-0.7,1.8-2.1,2.8-4,3.1c-1.2,0.2-2.4,0.2-3.6-0.1c-1.8-0.4-3-1.5-3.5-3.3c-0.2-0.8-0.2-1.7-0.3-2.5
			c0-0.3,0.1-0.4,0.4-0.4c1.2,0,2.4,0,3.5,0c0.3,0,0.3,0.1,0.4,0.4c0,0.5,0.1,1.1,0.2,1.6c0.2,0.7,0.6,0.9,1.3,1
			c0.8,0,1.2-0.2,1.5-0.8c0.1-0.4,0.3-0.8,0.3-1.3c0.1-1.6,0.1-3.1,0.2-4.7C19,25.4,18.9,25.4,18.9,25.4z M18.9,19.8
			c0-0.6,0.1-1.2,0-1.8c-0.1-0.7-0.2-1.4-0.4-2.1c-0.2-0.6-0.7-0.9-1.3-0.8c-0.6,0-1.1,0.3-1.3,0.9c-0.1,0.2-0.1,0.4-0.2,0.6
			c-0.3,1.7-0.2,3.3-0.1,5c0.1,0.6,0.4,1.2,1.1,1.4c0.7,0.2,1.3,0,1.9-0.5c0.2-0.3,0.4-0.5,0.4-0.9C18.9,21,18.9,20.4,18.9,19.8z"/>
		<path class="st0" d="M51.3,49.9c-0.5,0-1,0-1.4,0c-0.1,0-0.3-0.2-0.3-0.4c-0.3-1.1-0.6-2.2-0.9-3.3c-0.1-0.3-0.2-0.4-0.5-0.4
			c-0.3,0-0.2,0.3-0.2,0.5c0,1.1,0,2.1,0,3.2c0,0.3-0.1,0.5-0.4,0.4c-0.3,0-0.5,0-0.8,0c-0.4,0-0.5-0.1-0.5-0.5c0-1.6,0-3.1,0-4.7
			c0-1.1,0-2.2,0-3.4c0-0.3,0.1-0.5,0.4-0.5c0.9,0,1.8,0,2.8,0.1c1.1,0.1,1.6,0.7,1.7,1.8c0.1,0.5,0,1.1-0.1,1.6
			c-0.1,0.3-0.4,0.7-0.6,0.9c-0.2,0.2-0.2,0.3-0.2,0.5c0.3,1.2,0.7,2.4,1,3.6C51.2,49.6,51.3,49.7,51.3,49.9z M47.9,43.5
			c0,0.3,0,0.6,0,1c0,0.2,0.1,0.3,0.3,0.3c0.9,0,1.4-0.4,1.3-1.4c0-1-0.4-1.3-1.4-1.2c-0.1,0-0.3,0.2-0.3,0.3
			C47.9,42.8,47.9,43.1,47.9,43.5z"/>
		<path class="st0" d="M95.3,45.4c0-1.3,0-2.7,0-4c0-0.3,0.1-0.5,0.5-0.5c0.9,0,1.8,0,2.7,0.1c1.1,0.1,1.6,0.7,1.7,1.8
			c0,0.5,0,1.1-0.1,1.6c-0.1,0.3-0.4,0.7-0.6,0.9c-0.2,0.2-0.3,0.3-0.2,0.5c0.3,1.2,0.7,2.4,1,3.6c0.1,0.5,0.1,0.5-0.4,0.5
			c-1.4,0-1.1,0.2-1.5-1.1c-0.2-0.9-0.5-1.7-0.7-2.6c-0.1-0.3-0.2-0.4-0.5-0.4c-0.3,0-0.3,0.3-0.3,0.5c0,1.1,0,2.1,0,3.2
			c0,0.3-0.1,0.4-0.4,0.5c-1.3,0-1.3,0-1.3-1.2C95.3,47.6,95.3,46.5,95.3,45.4z M97,43.5c0,0.3,0,0.7,0,1c0,0.1,0.1,0.3,0.1,0.3
			c0.5,0.2,1.3-0.1,1.4-0.7c0.1-0.2,0.1-0.5,0.1-0.7c0-0.9-0.4-1.3-1.4-1.2c-0.1,0-0.3,0.2-0.3,0.3C97,42.8,97,43.1,97,43.5z"/>
		<path class="st0" d="M72.4,49.9c-0.5,0-1,0-1.5,0c-0.1,0-0.3-0.2-0.3-0.4c-0.3-1.1-0.6-2.2-0.9-3.3c-0.1-0.3-0.2-0.4-0.5-0.4
			c-0.3,0-0.3,0.3-0.3,0.5c0,1,0,2.1,0,3.1c0,0.3-0.1,0.5-0.4,0.5c-1.3,0-1.3,0-1.3-1.2c0-2.4,0-4.8,0-7.2c0-0.4,0.1-0.5,0.5-0.5
			c0.8,0,1.5,0,2.3,0c1.5,0.1,2.2,1,2.2,2.4c0,0.8-0.1,1.5-0.9,2c-0.1,0.1-0.1,0.3,0,0.5c0.3,1.2,0.6,2.3,1,3.4
			C72.3,49.5,72.3,49.7,72.4,49.9z M69,43.5C69,43.5,69,43.5,69,43.5c0,0.3,0,0.7,0,1c0,0.1,0.1,0.3,0.2,0.3c0.7,0.2,1.4-0.3,1.4-1
			c0-0.1,0-0.3,0-0.4c0-0.8-0.3-1.1-1.2-1.2c-0.3,0-0.5,0.1-0.5,0.5C69,42.9,69,43.2,69,43.5z"/>
		<path class="st0" d="M42,16.3c0-1.3,0-2.7,0-4c0-0.4,0.1-0.5,0.5-0.5c0.8,0,1.6,0,2.4,0.1c1.3,0.1,2,0.8,2.1,2.1
			c0.1,1.5,0.1,3,0,4.5c-0.1,1.5-0.9,2.2-2.3,2.3c-0.7,0-1.4,0-2.2,0c-0.3,0-0.4-0.1-0.4-0.4c0-0.7,0-1.4,0-2C42,17.6,42,17,42,16.3
			z M43.6,16.3c0,1,0,1.9,0,2.9c0,0.3,0.1,0.4,0.4,0.4c0.8,0,1.2-0.3,1.2-1.1c0-1.5,0-2.9,0-4.4c0-0.8-0.3-1.1-1.1-1.1
			c-0.3,0-0.4,0.1-0.4,0.4C43.6,14.4,43.6,15.4,43.6,16.3z"/>
		<path class="st0" d="M76.4,30.9c0,0.9,0,1.8-0.1,2.6c-0.2,1.2-0.8,1.8-2,1.9c-0.5,0.1-1,0-1.4-0.1c-1-0.2-1.6-1-1.6-2.1
			c-0.1-1.6-0.1-3.2,0-4.8c0.1-1.3,0.8-2,2-2.1c0.5-0.1,1,0,1.4,0.1c1,0.2,1.6,1.1,1.6,2.4C76.4,29.5,76.3,30.2,76.4,30.9
			C76.4,30.9,76.4,30.9,76.4,30.9z M74.6,30.9C74.6,30.9,74.6,30.9,74.6,30.9c0-0.7,0-1.4,0-2.1c0-0.2,0-0.4-0.1-0.6
			c-0.1-0.4-0.4-0.6-0.8-0.6c-0.4,0-0.8,0.2-0.8,0.6c0,1.8,0,3.6,0,5.4c0,0.3,0.2,0.5,0.6,0.6c0.6,0.2,1.1-0.2,1.1-0.8
			C74.7,32.5,74.6,31.7,74.6,30.9z"/>
		<path class="st0" d="M68.5,20.8c-0.5,0-1,0-1.5,0c-0.1,0-0.2-0.2-0.3-0.4c-0.3-1.1-0.6-2.1-0.8-3.2c-0.1-0.3-0.2-0.5-0.6-0.5
			c-0.4,0.1-0.2,0.4-0.3,0.6c0,1,0,2,0,3c0,0.3-0.1,0.5-0.4,0.4c-0.3,0-0.6,0-0.9,0c-0.2,0-0.3-0.1-0.3-0.3c0-2.8,0-5.5,0-8.3
			c0-0.2,0.1-0.3,0.3-0.3c0.9,0,1.7,0,2.6,0.1c1.3,0.1,2,0.9,2,2.2c0,0.4,0,0.8-0.1,1.2c-0.1,0.3-0.3,0.7-0.5,0.9
			c-0.4,0.3-0.4,0.5-0.2,0.9c0.3,1.1,0.6,2.2,0.9,3.2C68.5,20.4,68.5,20.5,68.5,20.8z M65.1,14.3c0,0.3,0,0.7,0,1
			c0,0.1,0.1,0.2,0.2,0.3c0.4,0.1,1.1-0.1,1.3-0.4c0.4-0.6,0.3-1.2,0.1-1.8c-0.2-0.5-0.8-0.4-1.2-0.5c-0.2,0-0.3,0.1-0.3,0.3
			C65.1,13.6,65.1,14,65.1,14.3z"/>
		<path class="st0" d="M52.8,30.9c0,0.9,0,1.8-0.1,2.6c-0.2,1.2-0.8,1.8-2,1.9c-0.5,0.1-1,0-1.4-0.1c-1-0.2-1.6-1-1.6-2.1
			c-0.1-1.6-0.1-3.1,0-4.7c0.1-1.3,0.8-2,2.1-2.2c0.5-0.1,1,0,1.4,0.1c1,0.2,1.6,1.1,1.6,2.3C52.8,29.4,52.7,30.2,52.8,30.9
			C52.8,30.9,52.8,30.9,52.8,30.9z M51,30.9c0-0.9,0-1.7,0-2.6c0-0.5-0.3-0.8-0.8-0.8c-0.5,0-0.8,0.2-0.9,0.7c0,0.2-0.1,0.5-0.1,0.7
			c0,1.3,0,2.6,0,3.9c0,0.3,0,0.5,0.1,0.8c0.1,0.3,0.2,0.5,0.5,0.6c0.6,0.2,1.1-0.1,1.1-0.8C51.1,32.6,51,31.7,51,30.9z"/>
		<path class="st0" d="M37.6,30.3c0,0.1,0,0.3,0,0.4c0,1.4,0,2.8,0,4.2c0,0.3-0.1,0.4-0.4,0.4c-1.2,0-1,0.1-1-1c0-2.5,0-5,0-7.5
			c0-0.5,0-0.5,0.5-0.6c0.5,0,0.7,0.1,0.9,0.6c0.5,1.3,1.1,2.6,1.6,3.9c0,0.1,0.1,0.2,0.2,0.3c0-0.1,0-0.3,0-0.4c0-1.3,0-2.5,0-3.8
			c0-0.4,0.1-0.5,0.5-0.5c1.1,0,0.9-0.1,0.9,0.9c0,2.5,0,5,0,7.4c0,0.2,0.2,0.5-0.2,0.6c-0.6,0.1-0.9,0-1-0.4
			c-0.6-1.4-1.2-2.9-1.8-4.3C37.8,30.5,37.7,30.4,37.6,30.3C37.6,30.3,37.6,30.3,37.6,30.3z"/>
		<path class="st0" d="M78.7,30.4c0,1.5,0,3,0,4.6c0,0.4-0.1,0.5-0.5,0.5c-1.1,0-0.9,0.1-0.9-0.9c0-2.5,0-5,0-7.5
			c0-0.2-0.1-0.5,0.2-0.6c0.6-0.1,0.9,0,1.1,0.3c0.6,1.4,1.2,2.8,1.8,4.1c0,0.1,0.1,0.2,0.2,0.4c0-0.2,0-0.4,0-0.5
			c0-1.3,0-2.6,0-3.9c0-0.4,0.1-0.5,0.5-0.5c1.1,0,0.9-0.1,0.9,0.9c0,2.5,0,5,0,7.6c0,0.2,0.1,0.5-0.2,0.5c-0.5,0.1-0.8,0-1-0.3
			c-0.6-1.5-1.2-2.9-1.8-4.4C78.9,30.6,78.8,30.5,78.7,30.4C78.8,30.3,78.7,30.4,78.7,30.4z"/>
		<path class="st0" d="M45.2,31.1c0-1.3,0-2.7,0-4c0-0.8-0.1-0.7,0.7-0.7c0.6,0,0.6,0,0.6,0.6c0,2.6,0,5.2,0,7.8
			c0,0.2,0.1,0.5-0.2,0.5c-0.6,0.1-0.8,0-1-0.3c-0.6-1.5-1.2-3-1.9-4.5c0-0.1-0.1-0.1-0.1-0.3c0,0.2,0,0.3,0,0.5c0,1.4,0,2.8,0,4.2
			c0,0.3-0.1,0.5-0.5,0.5c-1.1,0-0.9,0.1-0.9-1c0-2.5,0-5,0-7.5c0-0.2-0.1-0.5,0.2-0.6c0.5-0.1,0.9,0,1,0.3c0.6,1.4,1.2,2.8,1.8,4.3
			C45.1,31,45.1,31.1,45.2,31.1C45.2,31.1,45.2,31.1,45.2,31.1z"/>
		<path class="st0" d="M37.6,15.8c0,1.5,0,3,0,4.5c0,0.4-0.1,0.5-0.5,0.5c-1.1,0-0.9,0.1-0.9-0.9c0-2.5,0-5,0-7.5
			c0-0.2-0.1-0.5,0.2-0.5c0.5-0.1,0.9,0,1.1,0.3c0.6,1.3,1.2,2.7,1.7,4c0.1,0.1,0.1,0.3,0.2,0.4c0,0,0.1,0,0.1,0c0-0.1,0-0.3,0-0.4
			c0-1.2,0-2.5,0-3.7c0-0.4,0.1-0.6,0.5-0.5c1,0,0.9-0.1,0.9,0.9c0,2.5,0,5.1,0,7.6c0,0.2,0.1,0.5-0.2,0.5c-0.3,0-0.8,0.2-1-0.3
			c-0.6-1.4-1.2-2.8-1.7-4.2C37.8,16.1,37.8,15.9,37.6,15.8C37.7,15.8,37.6,15.8,37.6,15.8z"/>
		<path class="st0" d="M37.6,44.9c0,1.4,0,2.9,0,4.3c0,0.8,0.1,0.7-0.7,0.7c-0.1,0-0.1,0-0.2,0c-0.3,0-0.5-0.1-0.5-0.5
			c0-0.1,0-0.2,0-0.4c0-2.5,0-5,0-7.5c0-0.2-0.2-0.5,0.2-0.6c0.6-0.1,0.9,0,1.1,0.4c0.6,1.3,1.1,2.6,1.7,3.9
			c0.1,0.1,0.1,0.2,0.2,0.4c0-0.1,0-0.3,0-0.4c0-1.3,0-2.5,0-3.8c0-0.3,0.1-0.5,0.5-0.5c1.1,0,0.9-0.1,0.9,0.9c0,2.5,0,5,0,7.5
			c0,0.2,0.1,0.5-0.2,0.5c-0.5,0.1-0.9,0-1-0.3c-0.6-1.4-1.2-2.9-1.8-4.4C37.8,45.2,37.7,45,37.6,44.9
			C37.6,44.9,37.6,44.9,37.6,44.9z"/>
		<path class="st0" d="M49.4,15.3c0,1,0,1.9,0,2.9c0,0.3,0,0.5,0.1,0.8c0.1,0.4,0.4,0.6,0.8,0.6c0.4,0,0.7-0.2,0.8-0.6
			c0.1-0.3,0.1-0.6,0.1-0.9c0-1.9,0-3.9,0-5.8c0-0.4,0.1-0.5,0.5-0.5c1.1,0,1.1,0,1.1,1.1c0,1.7,0,3.5,0,5.2c0,0.3,0,0.6-0.1,0.9
			c-0.3,1.4-1.2,2-2.7,1.9c-1.5-0.1-2.2-0.9-2.2-2.5c-0.1-2.1,0-4.2,0-6.3c0-0.2,0.1-0.3,0.3-0.3c0,0,0,0,0,0
			c1.3-0.1,1.3-0.1,1.3,1.2C49.4,13.8,49.4,14.6,49.4,15.3z"/>
		<path class="st0" d="M90.9,44.5c0,1,0,2,0,3c0,0.2,0,0.5,0.1,0.7c0.1,0.4,0.4,0.6,0.8,0.6c0.4,0,0.7-0.2,0.8-0.6
			c0.1-0.3,0.1-0.7,0.1-1c0-1.9,0-3.8,0-5.7c0-0.4,0.1-0.5,0.5-0.5c1.1,0,1.1,0,1.1,1.1c0,1.7,0,3.4,0,5c0,0.4,0,0.8-0.1,1.1
			c-0.2,1.1-0.8,1.7-2,1.8c-0.4,0-0.9,0-1.3-0.1c-0.7-0.1-1.2-0.5-1.4-1.3c-0.1-0.5-0.2-1-0.2-1.4c0-1.9,0-3.9,0-5.8
			c0-0.4,0.1-0.5,0.5-0.5c1.2,0,1.2,0,1.2,1.1C90.9,42.9,90.9,43.7,90.9,44.5C90.9,44.5,90.9,44.5,90.9,44.5z"/>
		<path class="st0" d="M73.1,44.5c0-1,0-2.1,0-3.1c0-0.3,0.1-0.5,0.4-0.4c0.3,0,0.5,0,0.8,0c0.3,0,0.4,0.1,0.4,0.4
			c0,1.8,0,3.6,0,5.3c0,0.4,0,0.8,0.1,1.2c0.1,0.6,0.4,0.9,0.8,0.9c0.5,0,0.7-0.3,0.8-0.8c0-0.3,0.1-0.5,0.1-0.8c0-1.9,0-3.8,0-5.7
			c0-0.4,0.1-0.5,0.5-0.5c1.1,0,1.1,0,1.1,1.1c0,1.6,0,3.3,0,4.9c0,0.4,0,0.8-0.1,1.2c-0.2,1.1-0.8,1.7-2,1.8c-0.3,0-0.6,0-0.9,0
			c-1.3-0.1-2-0.9-2.1-2.4c0-0.1,0-0.2,0-0.4C73.1,46.4,73.1,45.4,73.1,44.5C73.1,44.5,73.1,44.5,73.1,44.5z"/>
		<path class="st0" d="M80.7,45.4c0,0.7,0,1.4,0,2.1c0,0.3,0,0.5,0.1,0.8c0.1,0.4,0.4,0.5,0.8,0.5c0.4,0,0.7-0.2,0.7-0.5
			c0.1-0.4,0.1-0.7,0.1-1.1c0-0.6,0-0.6,0.6-0.6c0.1,0,0.1,0,0.2,0c0.8,0,0.8-0.1,0.8,0.8c0,0.3,0,0.6-0.1,0.8
			c-0.2,1.1-0.7,1.7-1.8,1.8c-0.5,0.1-1,0-1.4-0.1c-0.9-0.2-1.5-0.9-1.6-2C79,47.2,79,46.4,79,45.6c0-0.8,0-1.7,0.1-2.5
			c0.1-1.4,0.8-2,2.1-2.2c0.4,0,0.8,0,1.2,0.1c0.9,0.2,1.3,0.8,1.5,1.6C84,43,84,43.5,84,43.9c0,0.3-0.1,0.4-0.4,0.4
			c-0.3,0-0.6,0-0.9,0c-0.2,0-0.3-0.1-0.3-0.3c0-0.3,0-0.6,0-0.9c0-0.6-0.2-0.8-0.8-0.9c-0.6,0-0.8,0.2-0.9,0.8c0,0.3,0,0.7,0,1.1
			C80.7,44.5,80.7,45,80.7,45.4z"/>
		<path class="st0" d="M58.4,35.4c0.2-1.1,0.4-2.1,0.6-3.1c0.4-1.8,0.8-3.6,1.1-5.5c0.1-0.4,0.2-0.5,0.6-0.5c0.2,0,0.4,0,0.6,0
			c0.7,0,0.7,0,0.8,0.6c0.5,2.6,1.1,5.2,1.6,7.8c0.1,0.5,0.1,0.5-0.4,0.5c-1,0-1,0-1.2-1c0,0,0,0,0,0c-0.2-1.1-0.2-1.1-1.4-1.1
			c-0.2,0-0.3,0.1-0.3,0.3c-0.1,0.5-0.2,1-0.2,1.4c0,0.2-0.1,0.4-0.4,0.4C59.3,35.4,58.9,35.4,58.4,35.4z M61.1,29
			C61.1,29,61.1,29,61.1,29c-0.2,1-0.4,1.9-0.6,2.9c0,0.2,0,0.4,0.3,0.4c0.3,0,0.5,0,0.8,0C61.5,31.1,61.3,30,61.1,29z"/>
		<path class="st0" d="M51.7,49.9c0.2-1,0.4-1.9,0.6-2.9c0.4-1.9,0.8-3.7,1.1-5.6c0.1-0.4,0.2-0.6,0.6-0.5c0.3,0,0.5,0,0.8,0
			c0.3,0,0.5,0.1,0.5,0.4c0.5,2.3,0.9,4.6,1.4,6.9c0.1,0.5,0.2,1,0.3,1.6c-0.5,0-0.9,0-1.4,0c-0.1,0-0.2-0.2-0.2-0.3
			c-0.1-0.5-0.2-1-0.3-1.4c0-0.2-0.1-0.3-0.3-0.3c-0.1,0-0.3,0-0.4,0c-0.9,0-0.7-0.1-0.9,0.8c-0.1,0.3-0.1,0.7-0.2,1
			c0,0.1-0.2,0.3-0.2,0.3C52.6,50,52.2,49.9,51.7,49.9z M54.9,46.7c-0.2-1.1-0.3-2.1-0.5-3.2c0,0-0.1,0-0.1,0
			c-0.2,1-0.3,2.1-0.5,3.2C54.2,46.7,54.5,46.7,54.9,46.7z"/>
		<path class="st0" d="M55,17.8c0,0.2,0,0.4,0.1,0.5c0.1,0.3,0.2,0.6,0.3,0.9c0.2,0.3,0.5,0.4,0.8,0.3c0.3-0.1,0.5-0.3,0.5-0.7
			c0-0.5-0.1-1-0.5-1.4c-0.6-0.6-1.2-1.1-1.8-1.6c-0.8-0.7-0.9-1.7-0.7-2.7c0.1-0.6,0.5-1,1-1.2c0.7-0.3,1.4-0.4,2.2-0.1
			c0.8,0.3,1.4,1.4,1.3,2.1c0,0.1-0.1,0.2-0.2,0.2c-0.1,0.1-0.2,0.1-0.4,0.1c-0.3,0-0.6,0.2-0.8,0.1c-0.1-0.1-0.1-0.4-0.2-0.7
			c-0.1-0.5-0.4-0.7-0.9-0.7c-0.5,0.1-0.7,0.3-0.6,0.9c0,0.5,0.3,0.8,0.6,1.1c0.6,0.6,1.3,1.1,1.9,1.8c0.7,0.7,0.9,1.6,0.6,2.5
			c-0.1,0.3-0.2,0.6-0.5,0.9c-0.6,0.7-1.9,0.9-2.9,0.5c-0.8-0.4-1.4-1.5-1.3-2.3c0-0.1,0.1-0.2,0.2-0.3C54.2,18,54.6,17.9,55,17.8z"
			/>
		<path class="st0" d="M59.9,50.1c-1.6,0-2.3-0.9-2.5-2.5c0,0,0-0.1,0-0.1c0-0.2,0.8-0.5,1.2-0.4c0.1,0,0.2,0.3,0.2,0.4
			c0.1,0.3,0.2,0.6,0.3,0.9c0.2,0.3,0.5,0.4,0.8,0.3c0.3-0.1,0.5-0.3,0.5-0.6c0.1-0.6-0.2-1.1-0.6-1.5c-0.5-0.5-1.1-0.9-1.6-1.4
			c-0.8-0.7-1.1-1.6-0.8-2.7c0.1-0.7,0.6-1.3,1.3-1.4c0.5-0.1,1.1-0.2,1.6-0.1c0.9,0.1,1.6,1.2,1.6,2.1c0,0.1-0.1,0.2-0.2,0.2
			c-0.1,0.1-0.2,0.1-0.3,0.1c-0.3,0-0.6,0.2-0.8,0.1c-0.1-0.1-0.1-0.5-0.2-0.7c-0.1-0.5-0.4-0.7-0.9-0.7c-0.4,0.1-0.7,0.4-0.6,0.9
			c0.1,0.4,0.3,0.7,0.5,1c0.4,0.5,0.9,0.8,1.4,1.3c0.7,0.7,1.2,1.4,1.3,2.5C62.2,49.1,61.3,50.1,59.9,50.1z"/>
		<path class="st0" d="M53.3,26.4c0.5,0,0.9,0,1.3,0c0.1,0,0.2,0.3,0.3,0.4c0.3,1.3,0.5,2.7,0.8,4c0.1,0.5,0.2,0.9,0.4,1.4
			c0.1-0.7,0.2-1.3,0.4-2c0.2-1.1,0.4-2.2,0.6-3.4c0.1-0.4,0.2-0.6,0.6-0.5c0.3,0,0.6,0,1,0c-0.1,0.8-0.3,1.4-0.4,2.1
			c-0.4,2.2-0.9,4.3-1.3,6.5c-0.1,0.4-0.2,0.5-0.6,0.5c-1.1,0-1.1,0-1.3-1.1c-0.5-2.5-1-5-1.5-7.5C53.3,26.8,53.3,26.6,53.3,26.4z"
			/>
		<path class="st0" d="M85.5,30.9c0-1.4,0-2.7,0-4.1c0-0.3,0.1-0.4,0.4-0.4c1,0,2,0,2.9,0c0.3,0,0.4,0.1,0.4,0.4
			c0,0.9,0.1,0.8-0.8,0.8c-0.4,0-0.7,0-1.1,0c-0.1,0-0.3,0.2-0.3,0.3c0,0.6,0,1.3,0,1.9c0,0.2,0.1,0.3,0.3,0.3c0.4,0,0.7,0,1.1,0
			c0.2,0,0.3,0.1,0.3,0.3c0.1,0.9,0.1,0.9-0.8,0.9c-1,0-0.8-0.1-0.9,0.8c0,0.5,0,1.1,0,1.6c0,0.3,0.1,0.4,0.4,0.4c0.4,0,0.9,0,1.3,0
			c0.3,0,0.4,0.1,0.4,0.4c0,0.8,0,0.8-0.8,0.8c-0.8,0-1.7,0-2.5,0c-0.3,0-0.5-0.1-0.5-0.5C85.5,33.6,85.5,32.2,85.5,30.9z"/>
		<path class="st0" d="M101.2,45.5c0-1.3,0-2.6,0-3.9c0-0.5,0-0.5,0.5-0.5c0.9,0,1.8,0,2.8,0c0.3,0,0.5,0.1,0.5,0.5
			c0,0.8,0.1,0.7-0.7,0.7c-0.4,0-0.7,0-1.1,0c-0.2,0-0.3,0.1-0.3,0.3c0,0.6,0,1.3,0,1.9c0,0.1,0.2,0.3,0.3,0.3c0.3,0,0.7,0,1.1,0
			c0.2,0,0.3,0.1,0.3,0.3c0.1,0.9,0.1,0.9-0.8,0.9c-1,0-0.9-0.1-0.9,0.9c0,0.6,0,1.1,0,1.7c0,0.2,0.1,0.3,0.3,0.3c0.5,0,0.9,0,1.4,0
			c0.3,0,0.4,0.1,0.4,0.4c0,0.8,0,0.8-0.8,0.8c-0.9,0-1.7,0-2.6,0c-0.3,0-0.5-0.1-0.5-0.5C101.2,48.2,101.2,46.8,101.2,45.5z"/>
		<path class="st0" d="M72.2,16.3c0-1.3,0-2.7,0-4c0-0.4,0.1-0.5,0.5-0.5c0.9,0,1.9,0,2.8,0c0.4,0,0.5,0.1,0.5,0.5
			c0,0.9,0.1,0.7-0.8,0.8c-0.3,0-0.7,0-1,0c-0.2,0-0.3,0.1-0.3,0.3c0,0.6,0,1.2,0,1.9c0,0.3,0.1,0.3,0.3,0.3c0.3,0,0.7,0,1,0
			c0.3,0,0.4,0.1,0.4,0.3c0,0.8,0,0.8-0.8,0.8c-0.9,0-0.9,0-0.9,0.9c0,0.5,0,1.1,0,1.6c0,0.3,0.1,0.4,0.4,0.4c0.4,0,0.9,0,1.3,0
			c0.3,0,0.4,0.1,0.4,0.4c0,0.8,0,0.8-0.8,0.8c-0.9,0-1.7,0-2.6,0c-0.3,0-0.4-0.1-0.4-0.4C72.2,19,72.2,17.6,72.2,16.3z"/>
		<path class="st0" d="M90.8,31.5c0-1.1,0-2.2,0-3.3c0-0.6,0-0.6-0.6-0.6c0,0,0,0,0,0c-1,0-0.9,0.2-0.9-1c0-0.1,0.2-0.3,0.3-0.3
			c1.4,0,2.7,0,4.1,0c0.1,0,0.2,0.1,0.2,0.2c0,0.3,0,0.6,0,0.9c0,0.1-0.1,0.2-0.2,0.2c-0.1,0-0.2,0-0.3,0c-0.9,0-0.9,0-0.9,0.9
			c0,2.1,0,4.2,0,6.3c0,0.4-0.1,0.6-0.5,0.5c-0.3,0-0.5,0-0.8,0c-0.3,0-0.4-0.1-0.4-0.4C90.8,33.8,90.8,32.7,90.8,31.5z"/>
		<path class="st0" d="M64.9,31.5c0-1.1,0-2.3,0-3.4c0-0.3-0.1-0.5-0.4-0.4c-0.1,0-0.1,0-0.2,0c-1,0-0.9,0.2-0.9-0.9
			c0-0.3,0.1-0.3,0.3-0.3c1.3,0,2.6,0,3.9,0c0.3,0,0.4,0.1,0.4,0.4c0,1.1,0.1,0.9-0.9,0.9c-0.6,0-0.6,0-0.6,0.6c0,2.2,0,4.4,0,6.6
			c0,0.6,0,0.6-0.6,0.6c-1.1,0-1.1,0-1.1-1.1C64.9,33.3,64.9,32.4,64.9,31.5z"/>
		<path class="st0" d="M42,45.5c0-1.3,0-2.7,0-4c0-0.4,0.1-0.5,0.5-0.5c0.9,0,1.8,0,2.7,0c0.3,0,0.5,0.1,0.4,0.4
			c0,0.8,0.1,0.7-0.7,0.7c-0.3,0-0.7,0-1,0c-0.2,0-0.3,0.1-0.3,0.3c0,0.6,0,1.3,0,1.9c0,0.2,0.1,0.3,0.3,0.3c0.3,0,0.6,0,0.9,0
			c0.3,0,0.4,0.1,0.4,0.4c0,1,0.1,0.8-0.8,0.8c-0.8,0-0.8,0-0.8,0.8c0,0.9,0,1.9,0,2.8c0,0.3-0.1,0.4-0.4,0.4C42,50,42,50,42,48.7
			C42,47.7,42,46.6,42,45.5z"/>
		<path class="st0" d="M63.7,46.1c0-1.1,0-2.2,0-3.3c0-0.4-0.1-0.5-0.5-0.5c-0.1,0-0.1,0-0.2,0c-0.9,0-0.9,0-0.8-0.9
			c0-0.1,0.2-0.3,0.3-0.3c1.3,0,2.7,0,4,0c0.2,0,0.3,0.1,0.3,0.3c0.1,0.9,0.1,0.9-0.9,0.9c-0.6,0-0.6,0-0.6,0.6c0,2.2,0,4.4,0,6.6
			c0,0.4-0.1,0.5-0.5,0.5c-1.2,0-1.2,0-1.2-1.2C63.7,47.9,63.7,47,63.7,46.1z"/>
		<path class="st0" d="M59.9,16.8c0-1.1,0-2.2,0-3.4c0-0.3-0.1-0.5-0.4-0.4c-0.1,0-0.1,0-0.2,0c-0.9,0-1-0.2-0.8-1
			c0-0.1,0.2-0.2,0.3-0.2c1.3,0,2.7,0,4,0c0.1,0,0.2,0.2,0.3,0.3c0,0.2,0,0.5,0,0.7c0,0.1-0.2,0.2-0.3,0.3c-0.2,0-0.4,0-0.6,0
			c-0.4,0-0.5,0.1-0.5,0.5c0,2.1,0,4.3,0,6.4c0,0.9,0.1,0.8-0.8,0.8c-1,0-0.9,0.1-0.9-0.9C59.9,18.9,59.9,17.9,59.9,16.8z"/>
		<path class="st0" d="M85.8,46.1c0-1.2,0-2.3,0-3.5c0-0.3-0.1-0.4-0.4-0.4c-0.1,0-0.1,0-0.2,0c-0.9,0-1,0-0.8-0.9
			c0-0.1,0.2-0.3,0.3-0.3c1.3,0,2.7,0,4,0c0.2,0,0.3,0.1,0.3,0.3c0,1.1,0.1,0.9-0.8,0.9c-0.6,0-0.6,0-0.6,0.6c0,2.2,0,4.4,0,6.6
			c0,0.4-0.1,0.5-0.5,0.5c-1.2,0-1.2,0-1.2-1.1C85.8,47.9,85.8,47,85.8,46.1z"/>
		<path class="st0" d="M70.2,30.9c0,1.3,0,2.7,0,4c0,0.3-0.1,0.5-0.5,0.5c-1.2,0-1.2,0-1.2-1.2c0-2.4,0-4.8,0-7.2
			c0-0.6,0-0.6,0.6-0.6c1.1,0,1.1,0,1.1,1.1C70.2,28.6,70.2,29.8,70.2,30.9z"/>
		<path class="st0" d="M33.4,30.8c0-1.3,0-2.7,0-4c0-0.3,0.1-0.4,0.4-0.4c1.2,0,1.2,0,1.2,1.2c0,2.4,0,4.9,0,7.3
			c0,0.4-0.1,0.5-0.5,0.5c-1.1,0-1.1,0-1.1-1.1C33.4,33.1,33.4,32,33.4,30.8z"/>
		<path class="st0" d="M35.1,45.5c0,1.3,0,2.7,0,4c0,0.3-0.1,0.4-0.4,0.4c-1.2,0-1.2,0-1.2-1.2c0-2.4,0-4.8,0-7.3
			c0-0.4,0.1-0.5,0.5-0.5c1.1,0,1.1,0,1.1,1.1C35.1,43.2,35.1,44.4,35.1,45.5z"/>
		<path class="st0" d="M71.1,16.3c0,1.3,0,2.7,0,4c0,0.3-0.1,0.4-0.4,0.4c-1.2,0-1.2,0-1.2-1.2c0-2.4,0-4.9,0-7.3
			c0-0.4,0.1-0.5,0.5-0.5c0.2,0,0.5,0,0.7,0c0.3,0,0.4,0.1,0.4,0.4C71,13.6,71.1,15,71.1,16.3z"/>
		<path class="st0" d="M35.1,16.3c0,1.3,0,2.7,0,4c0,0.3-0.1,0.4-0.4,0.4c-1.2,0-1.2,0-1.2-1.2c0-2.4,0-4.9,0-7.3
			c0-0.4,0.1-0.5,0.5-0.5c1.1,0,1.1,0,1.1,1.2C35.1,14.1,35.1,15.2,35.1,16.3z"/>
		<path class="st0" d="M77.3,20.9c-0.1-0.1-0.2-0.1-0.2-0.1c-0.2-0.1-0.6-0.1-0.6-0.2c-0.1-0.4,0-0.8,0-1.2c0,0,0.1-0.1,0.1-0.1
			c0,0,0.1,0,0.2,0c1.5,0,1.2-0.3,1.2,1.1c0,0.7-0.1,1.4-0.9,1.8c-0.4,0.1-0.5,0.1-0.5-0.3c0-0.1,0.1-0.2,0.2-0.3
			C76.9,21.4,77.1,21.2,77.3,20.9z"/>
	</g>
</g>
</svg>
