<?xml version="1.0" encoding="utf-8"?>
<!-- Generator: Adobe Illustrator 25.0.1, SVG Export Plug-In . SVG Version: 6.00 Build 0)  -->
<svg version="1.1" id="Layer_1" xmlns="http://www.w3.org/2000/svg" xmlns:xlink="http://www.w3.org/1999/xlink" x="0px" y="0px"
	 viewBox="0 0 125 125" style="enable-background:new 0 0 125 125;" xml:space="preserve">
<style type="text/css">
	.st0{fill:#D2D1D3;}
</style>
<g>
	<g>
		<path class="st0" d="M32.1,78c1-0.4,1.3-0.3,1.9,0.6c0.4,0.7,0.8,1.3,1.2,2c0.3,0.5,0.8,0.8,1.4,0.7c0.9,0,1.8,0,2.7,0
			c0.5,0,1-0.2,1.2-0.6c0.5-0.7,0.9-1.5,1.4-2.2c0.5-0.8,0.9-0.9,1.7-0.5c0.2-0.5,0.3-1,0.5-1.5c0.7-2.4,1.5-4.8,2.2-7.2
			c0.2-0.7,0.6-1.4,1.1-1.9c0.6-0.7,1.4-1,2.3-1c2.1,0,4.3,0,6.4,0c1.1,0,1.9,0.4,2.5,1.2c0.4,0.5,0.7,1.1,0.9,1.7
			c0.9,2.7,1.7,5.4,2.5,8.1c0.1,0.4,0.2,0.9,0.1,1.3c0,0.6-0.4,0.9-1,1c-0.5,0.1-1,0-1.3-0.4c-0.2-0.3-0.4-0.6-0.5-0.9
			c-0.7-2.3-1.4-4.6-2-6.9c0-0.1-0.1-0.3-0.1-0.4c-0.1-0.1-0.3-0.3-0.4-0.2c-0.1,0-0.3,0.2-0.3,0.4c0,0.2,0,0.4,0.1,0.6
			c1.2,4.3,2.4,8.6,3.6,12.9c0,0.1,0.1,0.3,0.1,0.4c-0.2,0-0.3,0-0.5,0c-0.8,0-1.5,0-2.3,0c-0.9,0-0.7-0.1-0.7,0.7c0,3,0,6,0,8.9
			c0,0.7-0.3,1.3-1,1.6c-0.7,0.3-1.3,0.2-1.9-0.3c-0.4-0.4-0.6-0.9-0.6-1.4c0-3,0-6.1,0-9.1c0-0.4-0.1-0.5-0.5-0.5
			c-0.3,0-0.4,0.1-0.4,0.5c0,3.1,0,6.2,0,9.2c0,0.7-0.3,1.3-1,1.6c-0.7,0.3-1.3,0.2-1.8-0.3c-0.4-0.4-0.6-0.9-0.6-1.4c0-3,0-6,0-9
			c0-0.6,0-0.6-0.6-0.6c-0.8,0-1.6,0-2.4,0c-0.1,0-0.3,0-0.5,0c0-0.2,0.1-0.3,0.1-0.5c1.2-4.3,2.4-8.6,3.6-13
			c0.1-0.2,0.1-0.4,0.1-0.6c0-0.1-0.2-0.3-0.3-0.3s-0.3,0.1-0.3,0.2c-0.1,0.1-0.1,0.3-0.2,0.5c-0.7,2.3-1.4,4.6-2,6.9l0,0
			c-0.4,1.4-1.4,1.8-2.6,0.8c-0.1,0.2-0.2,0.4-0.3,0.6c-0.7,1.3-1.5,2.7-2.2,4c-0.4,0.7-0.4,1.4-0.2,2.1c0.4,1.5,0.8,3,1.2,4.5
			c0,0.1,0.1,0.3,0.1,0.5c-0.5,0-0.9,0-1.4,0c0,0.2,0,0.4,0,0.5c0,1.2,0,2.5,0,3.7c0,0.8-0.5,1.4-1.3,1.4s-1.4-0.6-1.4-1.4
			c0-1.3,0-2.5,0-3.8c0-0.2,0-0.4-0.3-0.4c-0.4,0-0.4,0.2-0.4,0.5c0,1.3,0,2.5,0,3.8c0,1.1-1.1,1.7-2,1.2C35.2,96,35,95.6,35,95.1
			c0-1.2,0-2.4,0-3.7c0-0.2,0-0.3,0-0.6c-0.5,0-0.9,0-1.4,0c0.1-0.3,0.1-0.4,0.1-0.6c0.4-1.3,0.7-2.7,1.1-4c0.3-1,0.2-1.9-0.3-2.8
			c-0.8-1.3-1.4-2.6-2.1-3.8c-0.1-0.1-0.2-0.3-0.2-0.4c-0.1,0.1-0.2,0.1-0.2,0.2c-0.4,0.4-0.9,0.5-1.5,0.3s-0.8-0.6-0.9-1.2
			c0-0.4,0-0.7,0-1.1c0-2.2,0-4.5,0-6.7c0-0.2,0-0.4-0.1-0.6s-0.3-0.3-0.5-0.4c-0.1,0-0.4,0.2-0.4,0.3c-0.1,0.2-0.1,0.5-0.1,0.7
			c0,7.9,0,15.9,0,23.8c0,0.8-0.4,1.4-1.1,1.8c-0.7,0.3-1.4,0.2-2-0.2c-0.5-0.4-0.7-1-0.7-1.6c0-3.7,0-7.3,0-11c0-0.9,0-1.8,0-2.6
			c0-0.1,0-0.3-0.1-0.4s-0.3-0.3-0.5-0.3s-0.4,0.2-0.5,0.4c-0.1,0.1,0,0.3,0,0.5c0,4.5,0,9,0,13.5c0,1.1-0.6,1.8-1.5,2
			c-1.1,0.3-2.2-0.6-2.3-1.7c0-0.2,0-0.3,0-0.5c0-7.9,0-15.7,0-23.6c0-0.2,0-0.4-0.1-0.6s-0.3-0.4-0.4-0.3c-0.2,0-0.4,0.2-0.5,0.4
			c-0.1,0.1,0,0.3,0,0.5c0,2.5,0,5,0,7.5c0,0.6-0.1,1.1-0.7,1.5C18,79.9,18,80,18,80.1c-1,5.3-2,10.6-3,15.9
			c-0.1,0.6-0.4,0.9-0.9,0.8s-0.7-0.5-0.6-1c1-5.2,2-10.4,2.9-15.6c0-0.2-0.1-0.4-0.1-0.6C16.2,79.3,16,79,16,78.7
			c0-3.2,0-6.3,0-9.5c0-2.5,2.1-4.4,4.6-4.4c2.4,0,4.7,0,7.1,0c2.5,0,4.5,2,4.5,4.5c0,2.8,0,5.7,0,8.5C32.1,77.7,32.1,77.8,32.1,78z
			"/>
		<path class="st0" d="M103.5,82.5c0,4,0,7.9,0,11.9c0,0.4-0.1,0.8-0.2,1.2c-0.4,0.8-1.3,1.2-2.1,0.9c-0.9-0.2-1.5-0.9-1.5-1.9
			c0-4.5,0-8.9,0-13.4c0-0.2,0-0.5,0-0.7c0-0.3-0.2-0.4-0.5-0.4s-0.4,0.2-0.5,0.5c0,0.2,0,0.3,0,0.5c0,4.5,0,8.9,0,13.4
			c0,1.1-0.6,1.9-1.7,2.1s-2.1-0.7-2.2-1.7c0-0.2,0-0.3,0-0.5c0-7.8,0-15.6,0-23.4c0-0.3,0-0.5-0.1-0.8c-0.1-0.2-0.3-0.4-0.4-0.4
			c-0.2,0-0.4,0.2-0.5,0.3c-0.1,0.1-0.1,0.4-0.1,0.6c0,2.6,0,5.1,0,7.7c0,0.6-0.2,1-0.7,1.3c-0.8,0.4-1.8,0-2-0.9c0-0.2,0-0.3,0-0.5
			c0-3,0-6.1,0-9.1c0-2.4,1.6-4.2,3.9-4.6c0.2,0,0.4,0,0.6,0c2.4,0,4.8,0,7.2,0c2.5,0,4.6,2,4.6,4.5c0,3.1,0,6.2,0,9.3
			c0,0.9-0.6,1.5-1.4,1.5s-1.3-0.6-1.3-1.5c0-2.6,0-5.2,0-7.8c0-0.2,0-0.4-0.1-0.5c-0.1-0.2-0.3-0.3-0.5-0.4
			c-0.3-0.1-0.4,0.2-0.4,0.4c0,0.2,0,0.4,0,0.5C103.5,74.6,103.5,78.5,103.5,82.5z"/>
		<path class="st0" d="M64.9,85.1c0.2-0.7,0.4-1.4,0.6-2.1c1-3.8,2.1-7.6,3.1-11.4c0-0.2,0.1-0.4,0.1-0.6c0-0.1-0.2-0.3-0.3-0.3
			c-0.1,0-0.3,0.1-0.4,0.2s-0.1,0.2-0.1,0.3c-0.7,2.3-1.4,4.6-2,6.9c-0.1,0.3-0.2,0.6-0.4,0.9c-0.3,0.5-0.9,0.7-1.4,0.5
			c-0.6-0.2-1-0.6-1-1.2c0-0.3,0-0.7,0.1-1c0.8-2.8,1.7-5.6,2.6-8.4c0.3-0.9,0.8-1.6,1.6-2.2c0.5-0.3,1-0.5,1.6-0.5
			c2.2,0,4.5,0,6.7,0c0.7,0,1.4,0.3,1.9,0.8c0.6,0.6,1.1,1.3,1.3,2.1c0.8,2.7,1.6,5.3,2.5,8c0.2,0.5,0.3,1,0.1,1.5
			c-0.2,0.5-0.5,0.8-1,0.9s-0.9,0-1.2-0.4c-0.2-0.3-0.4-0.6-0.5-1c-0.7-2.2-1.3-4.5-2-6.7c0-0.1-0.1-0.2-0.1-0.3
			c-0.1-0.2-0.2-0.5-0.5-0.4s-0.3,0.4-0.2,0.6c0.1,0.6,0.3,1.1,0.4,1.7c1.1,3.9,2.1,7.7,3.2,11.6c0,0.1,0.1,0.3,0.1,0.4
			c-0.2,0-0.3,0-0.5,0c-0.8,0-1.7,0-2.5,0c-0.4,0-0.5,0.1-0.5,0.5c0,3,0,5.9,0,8.9c0,0.3,0,0.5-0.1,0.8c-0.2,0.8-0.9,1.3-1.7,1.2
			c-0.8,0-1.4-0.6-1.6-1.4c0-0.2-0.1-0.5-0.1-0.7c0-2.9,0-5.9,0-8.8c0-0.3-0.1-0.5-0.4-0.5c-0.4,0-0.5,0.1-0.5,0.5
			c0,3.1,0,6.2,0,9.3c0,0.8-0.6,1.5-1.4,1.6c-0.9,0.1-1.7-0.4-1.9-1.2c-0.1-0.3-0.1-0.6-0.1-0.9c0-2.9,0-5.8,0-8.7
			c0-0.6,0-0.6-0.6-0.6c-0.8,0-1.5,0-2.3,0C65.3,85.1,65.2,85.1,64.9,85.1z"/>
		<path class="st0" d="M83,84.2c-0.1,0.1-0.1,0.3-0.2,0.4c-0.4,1.4-0.8,2.7-1.3,4.1c-0.2,0.6-0.9,0.9-1.4,0.5
			c-0.3-0.2-0.5-0.6-0.3-1.1c0.4-1.1,0.8-2.1,1.2-3.2c0.4-1,0.8-1.9,1.2-2.8c0.5-1,1.2-1.5,2.4-1.4c1.2,0.1,2.3,0,3.5,0
			c1.6,0,2.2,0.4,2.7,1.9c0.6,1.6,1.3,3.2,1.9,4.8c0.3,0.7-0.1,1.3-0.7,1.5c-0.4,0.1-0.7,0-0.8-0.4c-0.5-1.2-0.9-2.5-1.4-3.7
			c-0.1-0.2-0.1-0.4-0.3-0.6c0,0.1,0,0.3,0,0.4c0,3.5,0,6.9,0,10.4c0,0.9-0.5,1.5-1.4,1.6c-0.8,0-1.5-0.6-1.5-1.5c0-1.4,0-2.7,0-4.1
			c0-0.3,0.1-0.7-0.4-0.7s-0.4,0.4-0.4,0.7c0,1.3,0,2.7,0,4c0,1-0.6,1.6-1.5,1.5c-0.6,0-1.1-0.4-1.2-1C83,95.2,83,95,83,94.7
			c0-3.4,0-6.7,0-10.1C83,84.4,83,84.3,83,84.2C83.1,84.2,83,84.2,83,84.2z"/>
		<path class="st0" d="M12.2,16.8c-0.6,0.2-1.1,0.4-1.7,0.6C10,17.6,9.4,17.8,8.8,18c0-0.4,0-0.7,0-1c0-0.7,0-1.3,0-2
			c0-0.3,0.1-0.4,0.4-0.5c1.2-0.6,2.4-1.3,3.5-2c0.4-0.3,0.8-0.5,1.3-0.4c0.7,0,1.4,0,2.2,0c0.5,0,0.6,0,0.6,0.6c0,4.6,0,9.2,0,13.9
			c0,2.8,0,5.6,0,8.5c0,0.4-0.1,0.5-0.5,0.5c-1.2,0-2.4,0-3.5,0c-0.4,0-0.5-0.1-0.5-0.5c0-5.9,0-11.7,0-17.6
			C12.2,17.2,12.2,17,12.2,16.8z"/>
		<path class="st0" d="M24,63.2c-1.9,0-3.4-1.5-3.4-3.4s1.5-3.4,3.4-3.4s3.5,1.6,3.5,3.4C27.5,61.7,25.9,63.2,24,63.2z"/>
		<path class="st0" d="M99.1,63.2c-1.9,0-3.4-1.5-3.4-3.4s1.5-3.4,3.4-3.4s3.4,1.5,3.4,3.4C102.6,61.7,101.1,63.2,99.1,63.2z"/>
		<path class="st0" d="M72.3,64.8c-1.8,0-3.3-1.4-3.3-3.2s1.4-3.3,3.2-3.3c1.8,0,3.3,1.5,3.3,3.3C75.6,63.4,74.1,64.8,72.3,64.8z"/>
		<path class="st0" d="M56.2,61.6c0,1.8-1.4,3.2-3.3,3.2c-1.8,0-3.2-1.4-3.2-3.3c0-1.8,1.5-3.3,3.3-3.3
			C54.8,58.3,56.2,59.8,56.2,61.6z"/>
		<path class="st0" d="M66.9,30.8c0.9,0.3,1.3,1,1.3,2c0,0.4,0,0.7-0.1,1.1c-0.2,1-1,1.7-2,1.7c-0.9,0-1.8,0-2.7,0
			c-0.3,0-0.3-0.1-0.3-0.4c0-2.7,0-5.5,0-8.2c0-0.3,0.1-0.4,0.4-0.4c0.9,0,1.7,0,2.6,0.1c1.7,0.1,2.6,2.2,1.6,3.5
			C67.4,30.4,67.1,30.6,66.9,30.8z M64.8,34.3c1.4,0.2,2-0.3,1.8-1.6c0-0.1,0-0.1,0-0.2c-0.1-0.8-0.8-1.3-1.6-1.1
			c-0.1,0-0.2,0.2-0.2,0.2C64.7,32.6,64.8,33.4,64.8,34.3z M64.8,29L64.8,29c0,0.2,0,0.3,0,0.5c0,0.8,0.1,0.8,0.9,0.7
			c0.4-0.1,0.7-0.3,0.8-0.7c0.1-0.5,0.2-1-0.2-1.5c-0.1-0.1-0.2-0.1-0.3-0.2c-0.3,0-0.6-0.1-0.9-0.1c-0.1,0-0.2,0.2-0.2,0.3
			C64.7,28.4,64.8,28.7,64.8,29z"/>
		<path class="st0" d="M26.4,31.1c0-1.3,0-2.7,0-4c0-0.3,0.1-0.5,0.4-0.4c0.8,0,1.7,0,2.5,0.1c1.2,0.1,1.9,0.7,2,1.9
			c0.1,1.7,0.1,3.3,0,5c-0.1,1.2-0.8,1.9-2,2c-0.8,0.1-1.7,0-2.6,0c-0.3,0-0.3-0.2-0.3-0.4C26.4,33.8,26.4,32.4,26.4,31.1z
			 M28.1,31.1c0,0.9,0,1.9,0,2.8c0,0.3,0.1,0.4,0.4,0.4c0.8,0,1.1-0.3,1.1-1.1c0-1.5,0-2.9,0-4.4c0-0.7-0.3-1-1-1.1
			c-0.4,0-0.5,0.1-0.5,0.5C28.1,29.2,28.1,30.2,28.1,31.1z"/>
		<path class="st0" d="M74,35.6c-0.5,0-1,0-1.5,0c-0.1,0-0.3-0.2-0.3-0.4c-0.3-1.1-0.6-2.2-0.9-3.3c0-0.1-0.2-0.3-0.3-0.3
			c-0.3-0.1-0.5,0-0.5,0.4c0,1.1,0,2.1,0,3.2c0,0.4-0.1,0.5-0.5,0.5c-1.2,0-1.2,0-1.2-1.2c0-2.4,0-4.8,0-7.2c0-0.4,0.1-0.6,0.5-0.5
			c0.8,0,1.6,0,2.4,0.1c1.3,0.1,1.9,0.7,2,2c0,0.5,0,1-0.1,1.5c0,0.2-0.2,0.6-0.4,0.7c-0.5,0.3-0.4,0.6-0.3,1.1
			c0.3,1.1,0.6,2.1,0.9,3.2C74,35.3,74,35.4,74,35.6z M70.7,29.1c0,0.3,0,0.7,0,1c0,0.1,0.2,0.3,0.3,0.3c0.9,0.1,1.3-0.3,1.3-1.3
			s-0.4-1.4-1.3-1.3c-0.2,0-0.3,0.1-0.3,0.3C70.7,28.5,70.7,28.8,70.7,29.1z"/>
		<path class="st0" d="M35,16.1c0,0.1,0,0.3,0,0.4c0,1.4,0,2.8,0,4.1c0,0.3-0.1,0.4-0.4,0.4c-1.3,0-1.1,0.2-1.1-1c0-2.5,0-5,0-7.4
			c0-0.4,0.1-0.6,0.5-0.5c0.8,0,0.6-0.1,0.9,0.6c0.6,1.3,1.1,2.6,1.7,3.8c0,0.1,0.1,0.2,0.2,0.3c0-0.6,0-1.1,0-1.7
			c0-0.9,0-1.8,0-2.6c0-0.3,0.1-0.4,0.4-0.4c1,0,1,0,1,1c0,2.5,0,5,0,7.4c0,0.2,0.1,0.5-0.2,0.5c-0.5,0.1-0.9,0-1.1-0.3
			c-0.6-1.5-1.2-2.9-1.8-4.4C35.1,16.2,35.1,16.1,35,16.1L35,16.1z"/>
		<path class="st0" d="M57,31.1c0-0.7,0-1.3,0-2c0.1-2.1,1.2-2.7,3-2.6c1.3,0.1,2.1,0.9,2.1,2.3c0,1.5,0,3,0,4.4
			c-0.1,1.5-1,2.4-2.5,2.4c-1.6,0-2.6-0.8-2.6-2.4C57,32.6,57,31.8,57,31.1L57,31.1z M60.4,31.1L60.4,31.1c0-0.7,0-1.4,0-2.2
			c0-0.2,0-0.4-0.1-0.6c-0.1-0.4-0.4-0.6-0.8-0.6c-0.5,0-0.8,0.2-0.8,0.6c0,1.8,0,3.6,0,5.4c0,0.4,0.3,0.6,0.7,0.6
			c0.6,0,0.9-0.2,0.9-0.9C60.4,32.7,60.4,31.9,60.4,31.1z"/>
		<path class="st0" d="M88.7,35.6c-0.5,0-0.9,0-1.4,0c-0.1,0-0.2-0.2-0.2-0.3c-0.1-0.4-0.2-0.9-0.2-1.4c0-0.3-0.1-0.4-0.5-0.4
			c-1.1,0-1.1,0-1.3,1.1c-0.2,1-0.2,1-1.1,1c-0.2,0-0.4,0-0.6,0c0.1-0.7,0.3-1.4,0.4-2.1c0.4-2.1,0.9-4.2,1.3-6.3
			c0.1-0.4,0.2-0.5,0.6-0.5c0.3,0,0.6,0,0.9,0s0.4,0.1,0.5,0.4c0.4,1.8,0.7,3.7,1.1,5.5c0.2,0.8,0.3,1.7,0.5,2.5
			C88.6,35.2,88.6,35.3,88.7,35.6z M86.6,32.4c-0.2-1.1-0.3-2.1-0.5-3.2c-0.2,0.8-0.3,1.6-0.5,2.4C85.4,32.5,85.5,32.6,86.6,32.4z"
			/>
		<path class="st0" d="M43.2,35.5c0.2-1,0.4-1.9,0.6-2.8c0.4-1.9,0.8-3.8,1.1-5.7c0.1-0.4,0.2-0.5,0.6-0.5c0.3,0,0.6,0,0.9,0
			c0.1,0,0.3,0.2,0.4,0.3c0.6,2.8,1.2,5.7,1.7,8.5c0,0,0,0.1,0,0.2c-0.5,0-0.9,0-1.4,0c-0.1,0-0.2-0.2-0.2-0.3
			c-0.1-0.5-0.2-0.9-0.2-1.4c0-0.2-0.1-0.3-0.4-0.3c-1.1,0-1.1,0-1.4,1.1c-0.2,1-0.2,1-1.2,1C43.6,35.6,43.4,35.6,43.2,35.5z
			 M46.4,32.4c-0.2-1.1-0.3-2.1-0.5-3.1h-0.1c-0.2,1-0.3,2.1-0.5,3.1C45.7,32.4,46.1,32.4,46.4,32.4z"/>
		<path class="st0" d="M51.6,31.1c0-1.3,0-2.7,0-4c0-0.3,0.1-0.5,0.4-0.4c0.7,0,1.5,0,2.2,0c1.3,0,2,0.6,2.2,1.9
			c0.1,0.4,0.1,0.8,0,1.2c-0.2,1.2-0.8,1.8-2,1.9c-0.1,0-0.3,0-0.4,0c-0.7,0.1-0.7,0.1-0.7,0.8c0,0.9,0,1.8,0,2.7
			c0,0.3-0.1,0.4-0.4,0.4c-1.3,0-1.3,0-1.3-1.2C51.6,33.3,51.6,32.2,51.6,31.1z M53.3,29.1L53.3,29.1c0,0.3,0,0.7,0,1
			c0,0.1,0.1,0.2,0.2,0.3c0.9,0.2,1.4-0.2,1.4-1.1c0-0.1,0-0.2,0-0.4c-0.1-0.9-0.3-1.1-1.2-1.1c-0.3,0-0.5,0.1-0.5,0.4
			C53.3,28.5,53.3,28.8,53.3,29.1z"/>
		<path class="st0" d="M86.3,79.6c-1.5,0-2.7-1.2-2.7-2.7s1.2-2.7,2.7-2.7s2.7,1.2,2.7,2.7C89.1,78.4,87.9,79.6,86.3,79.6z"/>
		<path class="st0" d="M38,79.6c-1.5,0-2.7-1.2-2.7-2.7s1.2-2.7,2.7-2.7s2.7,1.2,2.7,2.7S39.5,79.6,38,79.6z"/>
		<path class="st0" d="M32.3,31.1c0-1.3,0-2.7,0-4c0-0.4,0.1-0.5,0.5-0.5c1,0,1.9,0,2.9,0c0.3,0,0.5,0.1,0.4,0.4
			c0,0.9,0,0.8-0.8,0.8c-0.4,0-0.7,0-1.1,0c-0.1,0-0.3,0.2-0.3,0.3c0,0.6,0,1.3,0,2c0,0.1,0.2,0.2,0.3,0.3c0.3,0,0.7,0,1,0
			c0.2,0,0.4,0.1,0.4,0.3c0,1,0.1,0.9-0.8,0.9c-0.9,0-0.8-0.1-0.8,0.8c0,0.6,0,1.1,0,1.7c0,0.3,0.1,0.4,0.4,0.4c0.5,0,0.9,0,1.4,0
			c0.3,0,0.4,0.1,0.4,0.4c0,1,0.1,0.8-0.8,0.8c-0.8,0-1.6,0-2.4,0c-0.7,0-0.7,0-0.7-0.7C32.3,33.6,32.3,32.3,32.3,31.1z"/>
		<path class="st0" d="M76.5,30.3c0.5,0,0.9,0,1.3,0c0.3,0,0.3,0.1,0.4,0.4c0,0.9,0,0.9-0.8,0.9c-0.9,0-0.9,0-0.9,0.9
			c0,0.5,0,1.1,0,1.6c0,0.3,0.1,0.4,0.4,0.4c0.5,0,0.9,0,1.4,0c0.2,0,0.3,0.1,0.3,0.3c0,1,0.1,0.8-0.8,0.8s-1.7,0-2.6,0
			c-0.3,0-0.4-0.1-0.4-0.4c0-2.7,0-5.4,0-8.2c0-0.3,0.1-0.4,0.4-0.4c1,0,2,0,3,0c0.3,0,0.4,0.1,0.4,0.4c0,1,0.1,0.8-0.8,0.8
			c-0.3,0-0.7,0-1,0c-0.1,0-0.3,0.1-0.3,0.2C76.5,28.8,76.5,29.5,76.5,30.3z"/>
		<path class="st0" d="M80.7,34.4c0.7,0,1.3,0,2,0c0.3,0,0.5,0.1,0.5,0.5c0,0.8,0.1,0.7-0.7,0.7c-1,0-2,0-3,0
			c-0.3,0-0.5-0.1-0.4-0.4c0.1-0.4,0.1-0.8,0.2-1.2c0.6-1.9,1.3-3.8,2-5.7c0-0.1,0.1-0.3,0.1-0.5c-0.6,0-1.2,0-1.7,0
			c-0.4,0-0.5-0.1-0.5-0.5c0-0.7,0-0.7,0.7-0.7c0.9,0,1.8,0,2.8,0c0.4,0,0.5,0.1,0.5,0.5c0,0.3-0.1,0.5-0.1,0.8
			c-0.7,2-1.4,4-2.1,5.9C80.8,34,80.8,34.2,80.7,34.4z"/>
		<path class="st0" d="M26.4,16.5c0-1.3,0-2.7,0-4c0-0.4,0.1-0.5,0.5-0.5c1,0,1.9,0,2.9,0c0.3,0,0.4,0.1,0.4,0.4
			c0,0.8,0,0.8-0.8,0.8c-0.3,0-0.6,0-0.9,0c-0.2,0-0.4,0.1-0.3,0.3c0,0.6,0,1.2,0,1.9c0,0.3,0.1,0.3,0.3,0.3c0.3,0,0.6,0,0.9,0
			s0.3,0.1,0.4,0.4c0,0.8,0,0.8-0.8,0.8c-1,0-0.8-0.1-0.8,0.8s0,1.9,0,2.8c0,0.3-0.1,0.4-0.4,0.4c-1.3,0-1.3,0-1.3-1.3
			C26.4,18.7,26.4,17.6,26.4,16.5z"/>
		<path class="st0" d="M39.3,31.1c0-1.3,0-2.7,0-4c0-0.3,0.1-0.5,0.4-0.4c0.2,0,0.5,0,0.7,0c0.5,0,0.5,0,0.5,0.5c0,2.2,0,4.4,0,6.7
			c0,0.6,0,0.6,0.6,0.6c0.4,0,0.8,0,1.2,0c0.3,0,0.4,0.1,0.4,0.4c0,0.9,0.1,0.8-0.8,0.8c-0.9,0-1.7,0-2.6,0c-0.3,0-0.4-0.1-0.4-0.4
			C39.3,33.8,39.3,32.4,39.3,31.1z"/>
		<path class="st0" d="M32.4,16.5c0,1.3,0,2.7,0,4c0,0.4-0.1,0.5-0.5,0.5c-1.2,0-1.2,0-1.2-1.2c0-2.4,0-4.9,0-7.3
			c0-0.4,0.1-0.5,0.5-0.5c0.2,0,0.5,0,0.7,0c0.3,0,0.4,0.1,0.4,0.4C32.4,13.8,32.4,15.2,32.4,16.5z"/>
	</g>
</g>
</svg>
