<?xml version="1.0" encoding="utf-8"?>
<!-- Generator: Adobe Illustrator 25.0.1, SVG Export Plug-In . SVG Version: 6.00 Build 0)  -->
<svg version="1.1" id="Layer_1" xmlns="http://www.w3.org/2000/svg" xmlns:xlink="http://www.w3.org/1999/xlink" x="0px" y="0px"
	 viewBox="0 0 125 125" style="enable-background:new 0 0 125 125;" xml:space="preserve">
<style type="text/css">
	.st0{fill:#D2D1D3;}
</style>
<g>
	<g>
		<path class="st0" d="M30.9,23.9c0,2,0.1,4.1,0,6.1s-0.8,3.7-2.5,4.9c-1.3,0.9-2.7,1.1-4.2,1c-1.3-0.1-2.5-0.4-3.5-1.2
			c-1.3-1-1.9-2.4-2.1-4c-0.1-0.5-0.1-1.1-0.1-1.6c0-3.7,0-7.4,0-11.1c0-0.9,0.2-1.8,0.5-2.6c0.8-2.2,2.5-3.3,4.7-3.5
			c1-0.1,2.1-0.1,3.1,0.2c2.3,0.6,3.5,2.2,3.9,4.5c0.2,0.9,0.2,1.7,0.2,2.6C31,20.7,31,22.3,30.9,23.9C31,23.9,30.9,23.9,30.9,23.9z
			 M26.3,23.8C26.3,23.8,26.4,23.8,26.3,23.8c0-1.8,0-3.5,0-5.3c0-0.7-0.1-1.3-0.3-2c-0.2-0.6-0.7-0.9-1.4-0.9
			c-0.7,0-1.2,0.3-1.4,0.9c-0.1,0.5-0.3,1.1-0.3,1.6c0,3.8,0,7.5,0,11.3c0,0.5,0.2,1.1,0.3,1.6c0.2,0.6,0.7,0.9,1.4,0.8
			c0.6,0,1.1-0.3,1.3-0.9c0.2-0.4,0.3-0.9,0.3-1.4C26.4,27.7,26.3,25.8,26.3,23.8z"/>
		<path class="st0" d="M62.6,89.1c-3.6,0-7.3,0-10.9,0c-0.6,0-0.7,0-0.7-0.6c0-2,0-4.1,0-6.1c0-0.6,0-0.6,0.7-0.6
			c7.3,0,14.5,0,21.8,0c0.6,0,0.7,0,0.7,0.6c0,2,0,4.1,0,6.1c0,0.6,0,0.6-0.6,0.6C69.9,89.1,66.3,89.1,62.6,89.1z"/>
		<path class="st0" d="M62.6,74.7c-3.6,0-7.3,0-10.9,0c-0.6,0-0.7,0-0.7-0.6c0-2,0-4.1,0-6.1c0-0.6,0-0.6,0.6-0.6
			c7.3,0,14.5,0,21.8,0c0.6,0,0.7,0,0.7,0.7c0,2,0,4.1,0,6.1c0,0.6,0,0.6-0.6,0.6C69.9,74.7,66.3,74.7,62.6,74.7z"/>
		<path class="st0" d="M83.4,78.2c0-3.4,0-6.9,0-10.3c0-0.1,0-0.3,0-0.4c0-0.3,0.2-0.4,0.4-0.2c0.1,0.1,0.2,0.1,0.2,0.2
			c3.4,3.4,6.8,6.8,10.2,10.2c0.5,0.5,0.5,0.5,0,1c-3.4,3.4-6.8,6.8-10.2,10.2c-0.1,0.1-0.3,0.2-0.5,0.3c-0.1-0.2-0.2-0.4-0.2-0.6
			C83.4,85.1,83.4,81.6,83.4,78.2z"/>
		<path class="st0" d="M41.9,78.2c0,3.5,0,6.9,0,10.4c0,0.1,0,0.2,0,0.4c0,0.1-0.1,0.2-0.1,0.3c-0.1,0-0.2,0-0.3-0.1
			c-0.1,0-0.1-0.1-0.2-0.2c-3.4-3.4-6.8-6.8-10.3-10.3c-0.4-0.4-0.4-0.5,0-0.9c3.4-3.4,6.8-6.8,10.3-10.3c0.1-0.1,0.1-0.1,0.2-0.2
			c0.1,0,0.2-0.1,0.3-0.1c0.1,0.1,0.1,0.2,0.2,0.3c0,0.1,0,0.2,0,0.4C41.9,71.3,41.9,74.7,41.9,78.2z"/>
		<path class="st0" d="M62.7,57.4c-3.5,0-6.9,0-10.4,0c-0.1,0-0.2,0-0.4,0c-0.3,0-0.3-0.2-0.2-0.4c0.1-0.1,0.1-0.2,0.2-0.2
			c3.4-3.4,6.8-6.8,10.2-10.2c0.4-0.4,0.5-0.4,1,0c3.4,3.4,6.8,6.8,10.2,10.2c0.1,0.1,0.2,0.1,0.2,0.2c0.1,0.1,0.1,0.2,0.1,0.3
			s-0.2,0.1-0.3,0.1c-0.1,0-0.2,0-0.4,0C69.5,57.4,66.1,57.4,62.7,57.4z"/>
		<path class="st0" d="M62.6,98.9c3.5,0,6.9,0,10.4,0c0.1,0,0.3,0,0.4,0c0.3,0,0.3,0.2,0.2,0.4c-0.1,0.1-0.2,0.2-0.3,0.3
			c-3.4,3.4-6.8,6.8-10.2,10.2c-0.5,0.5-0.5,0.5-1,0c-3.4-3.4-6.8-6.8-10.1-10.1c-0.1-0.1-0.2-0.1-0.2-0.2c-0.1-0.1-0.1-0.2-0.1-0.3
			c0-0.1,0.2-0.1,0.3-0.1s0.2,0,0.4,0C55.7,98.9,59.2,98.9,62.6,98.9z"/>
		<path class="st0" d="M8.3,18c0-0.9,0.1-1.6,0-2.4c-0.1-0.7,0.2-1,0.8-1.3c1.2-0.5,2.4-1.2,3.4-2.1c0.1-0.1,0.3-0.1,0.4-0.1
			c0.9,0,1.9,0,2.8,0c0.3,0,0.4,0.1,0.4,0.4c0,0.8,0,1.6,0,2.4c0,6.6,0,13.3,0,19.9c0,0.8,0.1,0.7-0.7,0.7c-1.1,0-2.2,0-3.3,0
			c-0.6,0-0.6,0-0.6-0.6c0-5.8,0-11.7,0-17.5c0-0.2,0-0.3,0-0.6C10.5,17.2,9.4,17.6,8.3,18z"/>
		<path class="st0" d="M90,16.5c0-1.3,0-2.7,0-4c0-0.4,0.1-0.5,0.5-0.5c0.8,0,1.7,0,2.5,0.1c1.2,0.1,1.9,0.7,2,1.9
			c0.1,1.7,0.1,3.4,0,5.1c-0.1,1.2-0.8,1.8-2,1.9c-0.8,0.1-1.7,0-2.5,0C90,21,90,20.8,90,20.6C90,19.2,90,17.8,90,16.5z M91.8,19.8
			c1.1,0.1,1.5-0.2,1.5-1.2c0-1.4,0-2.8,0-4.3c0-0.8-0.3-1-1.1-1.1c-0.4,0-0.5,0.1-0.5,0.5c0,1.9,0,3.8,0,5.6
			C91.7,19.5,91.8,19.6,91.8,19.8z"/>
		<path class="st0" d="M90.9,31.1c0-1.3,0-2.7,0-4c0-0.4,0.1-0.5,0.5-0.5c0.8,0,1.5,0,2.3,0.1c1.3,0.1,2.1,0.7,2.1,2
			c0.1,1.6,0.1,3.3,0,4.9c-0.1,1.2-0.9,1.8-2.1,1.9c-0.8,0-1.7,0-2.5,0c-0.3,0-0.3-0.2-0.3-0.4C90.9,33.8,90.9,32.4,90.9,31.1z
			 M92.6,31.1c0,1,0,1.9,0,2.9c0,0.3,0.1,0.4,0.4,0.4c0.8,0,1.1-0.3,1.1-1.1c0-1.4,0-2.9,0-4.3c0-0.9-0.3-1.1-1.2-1.1
			c-0.3,0-0.4,0.1-0.4,0.4C92.6,29.2,92.6,30.1,92.6,31.1z"/>
		<path class="st0" d="M40.1,31.1c0-1.3,0-2.7,0-4c0-0.4,0.1-0.5,0.5-0.5c0.8,0,1.6,0,2.4,0.1c1.2,0.1,1.9,0.7,2,1.9
			c0.1,1.7,0.1,3.3,0,5c-0.1,1.2-0.9,1.9-2,1.9c-0.8,0.1-1.7,0-2.5,0c-0.3,0-0.3-0.2-0.3-0.4C40.1,33.8,40.1,32.4,40.1,31.1z
			 M41.8,31.1c0,1,0,1.9,0,2.9c0,0.3,0.1,0.4,0.3,0.4c0.8,0,1.2-0.3,1.2-1.1c0-1.5,0-2.9,0-4.4c0-0.8-0.3-1-1.1-1.1
			c-0.3,0-0.4,0.1-0.4,0.4C41.8,29.2,41.8,30.2,41.8,31.1z"/>
		<path class="st0" d="M45.2,21c-0.5,0-1,0-1.5,0c-0.1,0-0.2-0.2-0.3-0.4c-0.3-1.1-0.6-2.2-0.9-3.3c0-0.1-0.2-0.3-0.3-0.3
			c-0.3-0.1-0.5,0-0.5,0.4c0,1.1,0,2.1,0,3.2c0,0.4-0.1,0.5-0.5,0.5c-1.2,0-1.2,0-1.2-1.2c0-2.4,0-4.8,0-7.3c0-0.4,0.1-0.5,0.5-0.5
			c0.8,0,1.6,0,2.4,0.1c1.7,0.2,2.1,1.2,2.1,2.5c0,0.8-0.2,1.5-0.9,1.9C44,16.6,44,16.9,44,17c0.3,1.1,0.6,2.3,0.9,3.4
			C45.1,20.5,45.1,20.7,45.2,21z M43.4,14.5L43.4,14.5c0-1-0.4-1.4-1.3-1.3c-0.1,0-0.3,0.2-0.3,0.3c0,0.7,0,1.4,0,2
			c0,0.2,0.1,0.3,0.3,0.3C43,15.9,43.4,15.5,43.4,14.5z"/>
		<path class="st0" d="M50.3,16.5c0-1.3,0-2.7,0-4c0-0.4,0.1-0.5,0.5-0.5c0.8,0,1.7,0,2.5,0.1c1.2,0.1,1.9,0.8,1.9,2
			c0.1,1.6,0.1,3.2,0,4.8c-0.1,1.3-0.9,2-2.2,2.1c-0.8,0-1.6,0-2.4,0c-0.3,0-0.4-0.1-0.4-0.4C50.3,19.2,50.3,17.9,50.3,16.5z
			 M52,16.6c0,1,0,2,0,2.9c0,0.3,0.1,0.4,0.3,0.4c0.9,0,1.2-0.3,1.2-1.2c0-1.4,0-2.9,0-4.3c0-0.8-0.3-1.1-1.1-1.1
			c-0.3,0-0.4,0.1-0.4,0.4C52,14.6,52,15.6,52,16.6z"/>
		<path class="st0" d="M79.8,31.1c0-1.3,0-2.7,0-4c0-0.4,0.1-0.5,0.5-0.5c0.8,0,1.6,0,2.4,0.1c1.2,0.1,1.9,0.7,2,1.8
			c0.1,1.7,0.1,3.5,0,5.2c-0.1,1.2-0.9,1.8-2.1,1.8c-0.8,0-1.6,0-2.4,0c-0.3,0-0.4-0.1-0.4-0.4C79.8,33.8,79.8,32.4,79.8,31.1z
			 M81.4,34.3c1.1,0.2,1.5-0.1,1.5-1.2c0-1.4,0-2.8,0-4.3c0-0.9-0.6-1.3-1.5-1C81.4,30,81.4,32.2,81.4,34.3z"/>
		<path class="st0" d="M85.3,16.8c0-1.4,0-2.8,0-4.2c0-0.5,0-0.6,0.5-0.5c1,0,0.9-0.1,0.9,0.9c0,2.5,0,5,0,7.5
			c0,0.2,0.2,0.5-0.2,0.6c-0.6,0.1-0.9,0-1.1-0.4c-0.6-1.5-1.2-2.9-1.8-4.4c0-0.1-0.1-0.2-0.2-0.2c0,0.1,0,0.3,0,0.4
			c0,1.4,0,2.8,0,4.2c0,0.3-0.1,0.4-0.4,0.4c-1,0-1,0-1-1c0-2.5,0-5,0-7.5c0-0.4,0.1-0.5,0.5-0.5c0.5,0,0.7,0.2,0.9,0.6
			c0.5,1.3,1.1,2.5,1.6,3.8C85.1,16.5,85.1,16.7,85.3,16.8C85.2,16.8,85.3,16.8,85.3,16.8z"/>
		<path class="st0" d="M81.1,16.5c0,0.7,0,1.4,0,2.2c-0.1,1.7-1.2,2.6-2.8,2.4C76.8,21,76,20.2,76,18.7c0-1.4,0-2.8,0-4.2
			c0.1-2.1,1.3-2.8,3.2-2.5c1.2,0.2,1.9,1,2,2.3C81.1,15,81.1,15.8,81.1,16.5L81.1,16.5z M77.7,16.5c0,0.8,0,1.6,0,2.5
			c0,0.6,0.3,0.9,0.9,0.9c0.5,0,0.8-0.3,0.8-0.9c0-1.6,0-3.3,0-4.9c0-0.6-0.3-0.9-0.8-0.9s-0.8,0.3-0.9,0.9
			C77.6,14.9,77.7,15.7,77.7,16.5z"/>
		<path class="st0" d="M61.9,34.9c-0.6,0.9-1.3,1-2.2,0.8c-0.8-0.2-1.3-0.7-1.5-1.5C58.1,33.8,58,33.4,58,33c0-1.2,0-2.3,0-3.5
			c0-0.3,0-0.6,0.1-0.8c0.2-1.3,0.9-1.9,2.2-2c0.4,0,0.8,0,1.2,0.1c1,0.2,1.5,1,1.6,2.2c0,1,0,0.8-0.7,0.8c-0.8,0-0.8,0-0.9-0.9
			c0-0.8-0.5-1.1-1.2-0.9c-0.4,0.1-0.5,0.5-0.5,0.9c0,1.4,0,2.8,0,4.3c0,0.2,0,0.4,0,0.6c0.1,0.6,0.3,0.9,0.8,0.9
			c0.6,0,0.9-0.2,1-0.8c0.1-0.4,0.1-0.8,0.1-1.2c0-0.3-0.1-0.3-0.3-0.3c-0.6,0-0.8-0.3-0.6-0.9c0-0.1,0.2-0.2,0.3-0.2
			c0.6,0,1.2,0,1.9,0c0.3,0,0.3,0.1,0.3,0.4c0,1.3,0,2.6,0,3.9c0,0.3-0.1,0.4-0.4,0.4h-0.1C62.1,35.6,62.1,35.6,61.9,34.9z"/>
		<path class="st0" d="M64,30.1c0-1,0-2,0-3c0-0.3,0.1-0.5,0.4-0.5c1.2,0,1.2,0,1.2,1.2c0,1.7,0,3.4,0,5c0,0.3,0,0.7,0.1,1
			c0.1,0.4,0.4,0.6,0.8,0.6s0.7-0.2,0.8-0.6c0.1-0.3,0.1-0.6,0.1-0.8c0-2,0-3.9,0-5.9c0-0.4,0.1-0.5,0.5-0.5c1.2,0,1.2,0,1.2,1.2
			c0,1.6,0,3.3,0,4.9c0,0.6-0.1,1.1-0.2,1.7c-0.2,0.7-0.7,1.1-1.4,1.3c-0.6,0.2-1.3,0.2-1.9,0c-1-0.3-1.5-1.1-1.5-2.4
			C64,32.2,64,31.2,64,30.1L64,30.1z"/>
		<path class="st0" d="M57.7,15.5c0,1.1,0,2.3,0,3.4c0,0.2,0,0.3,0.1,0.5c0.1,0.3,0.4,0.5,0.8,0.5c0.4,0,0.6-0.2,0.7-0.5
			c0.1-0.3,0.1-0.7,0.1-1c0-1.9,0-3.8,0-5.7c0-0.4,0.1-0.5,0.5-0.5c1.1,0,1.1,0,1.1,1.1c0,1.9,0,3.7-0.1,5.6c-0.1,2.1-2.3,3.1-4.1,2
			c-0.6-0.4-0.9-1.1-0.9-1.8c-0.1-2.2-0.1-4.4-0.1-6.6c0-0.2,0.1-0.3,0.3-0.3c0.3,0,0.6,0,0.9,0c0.3,0,0.4,0.1,0.4,0.4
			C57.7,13.4,57.7,14.4,57.7,15.5L57.7,15.5z"/>
		<path class="st0" d="M63.6,16.5c0,0.7,0,1.4,0,2c0,0.2,0,0.5,0.1,0.7c0.1,0.4,0.3,0.6,0.8,0.6c0.4,0,0.7-0.2,0.7-0.6
			c0.1-0.4,0.1-0.8,0.1-1.3c0-0.3,0.1-0.4,0.4-0.4c0.2,0,0.4,0,0.5,0c0.8,0,0.8-0.1,0.7,0.8c0,0.5-0.1,0.9-0.2,1.4
			c-0.2,0.7-0.7,1.1-1.4,1.2c-0.6,0.1-1.2,0.1-1.7,0c-1-0.2-1.5-0.9-1.6-2c0-0.4-0.1-0.8-0.1-1.1c0-1.2,0-2.5,0.1-3.7
			c0.1-2,2.4-3,4.1-1.9c0.7,0.5,0.8,1.3,0.9,2.1c0,1.2,0.1,0.9-0.9,1c-0.1,0-0.1,0-0.2,0c-0.4,0.1-0.5-0.1-0.5-0.5
			c0-0.3,0-0.7,0-1.1c0-0.4-0.3-0.6-0.7-0.6c-0.4,0-0.7,0.2-0.8,0.5c-0.1,0.2-0.1,0.5-0.1,0.7C63.6,15.1,63.6,15.8,63.6,16.5z"/>
		<path class="st0" d="M67.6,16.5c0-0.7,0-1.4,0-2c0.1-2,1.2-2.7,3.1-2.5c1.2,0.1,1.8,0.9,1.9,2.2c0,1.4,0.2,1.1-1.1,1.1
			c-0.5,0-0.5,0-0.5-0.5c0-0.3,0-0.6,0-0.9c0-0.5-0.3-0.7-0.7-0.7c-0.4,0-0.8,0.2-0.9,0.6c0,0.1-0.1,0.3-0.1,0.4c0,1.6,0,3.2,0,4.8
			c0,0.4,0.2,0.7,0.6,0.8c0.6,0.1,1-0.2,1-0.8c0-0.4,0-0.7,0-1.1c0-0.3,0.1-0.4,0.4-0.4s0.7,0,1,0c0.1,0,0.3,0.2,0.3,0.2
			c0,0.6,0,1.3-0.2,1.9c-0.3,1-1.2,1.4-2.4,1.3c-1.5-0.1-2.3-0.9-2.3-2.4C67.5,18,67.6,17.3,67.6,16.5L67.6,16.5z"/>
		<path class="st0" d="M111.9,21c-0.5,0-0.9,0-1.3,0c-0.1,0-0.2-0.2-0.3-0.3c-0.1-0.5-0.2-1-0.3-1.4c0-0.1-0.2-0.2-0.3-0.3h-0.1
			c-1.1,0-1.1,0-1.3,1.1c-0.2,1-0.2,1-1.2,1c-0.2,0-0.3,0-0.6,0c0.1-0.7,0.3-1.3,0.4-1.9c0.4-2.2,0.9-4.3,1.3-6.5
			c0.1-0.4,0.2-0.5,0.7-0.5c1.2,0,1.2,0,1.4,1.2c0.5,2.4,1,4.9,1.5,7.3C111.9,20.6,111.9,20.8,111.9,21z M109.8,17.8
			c-0.2-1.1-0.3-2.1-0.5-3.2h-0.1c-0.2,1.1-0.3,2.1-0.5,3.2C109.1,17.8,109.4,17.8,109.8,17.8z"/>
		<path class="st0" d="M74.8,35.6c-0.5,0-0.9,0-1.4,0c-0.1,0-0.2-0.2-0.2-0.3c-0.1-0.5-0.2-0.9-0.3-1.4c0-0.2-0.1-0.3-0.4-0.3
			c-1.2,0-1.2,0-1.4,1.1c-0.2,0.9-0.2,0.9-1.1,0.9c-0.2,0-0.4,0-0.6,0c0.1-0.4,0.1-0.7,0.2-1c0.5-2.5,1-5,1.5-7.5
			c0.1-0.3,0.2-0.4,0.5-0.4c1.3,0,1.3,0,1.6,1.3c0.5,2.4,1,4.8,1.5,7.2C74.8,35.2,74.8,35.4,74.8,35.6z M72.2,29.2L72.2,29.2
			c-0.2,1-0.4,1.9-0.5,2.9c0,0.1,0.1,0.3,0.1,0.3c0.3,0,0.6,0,1,0C72.6,31.3,72.4,30.2,72.2,29.2z"/>
		<path class="st0" d="M90.3,35.6c-0.5,0-0.9,0-1.3,0c-0.1,0-0.2-0.2-0.2-0.3c-0.1-0.5-0.2-0.9-0.3-1.4c0-0.2-0.1-0.3-0.4-0.3
			c-1.2,0-1.2,0-1.4,1.1c-0.2,1-0.2,1-1.1,1c-0.2,0-0.4,0-0.6,0c0.2-0.8,0.3-1.5,0.5-2.3c0.4-2.1,0.9-4.2,1.3-6.2
			c0.1-0.3,0.2-0.5,0.5-0.4c0.4,0,1-0.1,1.2,0.1c0.3,0.2,0.3,0.8,0.3,1.2c0.5,2.4,1,4.8,1.5,7.2C90.3,35.2,90.3,35.4,90.3,35.6z
			 M88.2,32.4c-0.2-1.1-0.4-2.1-0.5-3.2h-0.1c-0.2,1-0.3,2.1-0.5,3.2C87.5,32.4,87.8,32.4,88.2,32.4z"/>
		<path class="st0" d="M53.3,29.2c-0.1-0.3-0.1-0.6-0.2-0.8c-0.1-0.5-0.4-0.7-0.9-0.6c-0.4,0.1-0.6,0.4-0.6,0.8s0.2,0.8,0.6,1.1
			c0.4,0.4,0.9,0.8,1.3,1.2c0.8,0.8,1.4,1.6,1.3,2.8c-0.1,0.9-0.7,1.7-1.6,1.9c-1.7,0.4-3-0.6-3.1-2.4c0-0.1,0.1-0.3,0.2-0.3
			c0.4-0.1,0.8-0.2,1.2-0.3c0.1,0.3,0.1,0.6,0.1,0.8c0.1,0.2,0.2,0.5,0.3,0.7c0.2,0.1,0.5,0.2,0.8,0.2c0.2,0,0.4-0.3,0.4-0.6
			c0.1-0.5-0.1-1-0.5-1.4c-0.5-0.5-1-0.9-1.6-1.4s-1-1.1-1.1-1.9c-0.1-1.7,1.1-2.8,2.8-2.5c1.3,0.2,1.7,1.2,1.7,2.2
			c0,0.1-0.1,0.3-0.2,0.3C54.1,29.1,53.7,29.2,53.3,29.2z"/>
		<path class="st0" d="M104.1,29.2c-0.1-0.4-0.1-0.6-0.2-0.9c-0.1-0.4-0.4-0.5-0.8-0.5s-0.6,0.3-0.6,0.6c-0.1,0.5,0.1,0.9,0.5,1.3
			c0.5,0.5,1,0.9,1.5,1.3c0.8,0.8,1.3,1.7,1.1,2.8c-0.1,0.7-0.5,1.3-1.1,1.6c-1.5,0.8-3.3-0.1-3.5-1.8c-0.1-0.9-0.2-0.7,0.6-0.9
			c0.2-0.1,0.5-0.1,0.8-0.1c0,0.3,0.1,0.5,0.1,0.8c0.1,0.7,0.6,1.1,1.1,0.9c0.4-0.1,0.7-0.7,0.4-1.3c-0.1-0.4-0.4-0.7-0.7-1
			c-0.5-0.5-1-0.9-1.5-1.4c-0.8-0.7-1-1.7-0.8-2.7c0.2-1.1,1.4-1.7,2.7-1.5c1.3,0.2,1.7,1.3,1.8,2.2c0,0.1-0.1,0.2-0.2,0.2
			C104.9,29.1,104.5,29.2,104.1,29.2z"/>
		<path class="st0" d="M113.7,18.1c0,0.3,0.1,0.5,0.1,0.7s0.1,0.4,0.2,0.5c0.2,0.4,0.5,0.5,0.9,0.4c0.3-0.1,0.5-0.4,0.5-0.8
			c0-0.5-0.2-0.9-0.6-1.2c-0.5-0.5-1-0.9-1.5-1.3c-0.9-0.8-1.3-1.7-1-2.9c0.1-0.2,0.1-0.5,0.3-0.7c0.5-0.8,1.7-1.2,2.8-0.8
			c0.8,0.3,1.4,1.1,1.4,2.1c0,0.1-0.1,0.3-0.2,0.3c-0.4,0.1-0.8,0.2-1.2,0.2c-0.1-0.3-0.1-0.5-0.1-0.8c-0.1-0.5-0.4-0.7-0.9-0.6
			c-0.4,0.1-0.7,0.4-0.6,0.9c0,0.5,0.3,0.8,0.6,1.1c0.5,0.4,0.9,0.8,1.4,1.2c0.8,0.8,1.3,1.7,1.2,2.8c-0.1,0.5-0.2,0.9-0.6,1.2
			c-1.2,1.3-3.5,0.7-4-1c-0.3-1.1-0.3-1.1,0.8-1.3C113.3,18.1,113.5,18.1,113.7,18.1z"/>
		<path class="st0" d="M98.3,30.3c0.5,0,0.9,0,1.3,0c0.2,0,0.3,0.1,0.3,0.3c0.1,0.9,0.1,0.9-0.8,0.9c-0.8,0-0.8,0-0.8,0.8
			c0,0.6,0,1.1,0,1.7c0,0.2,0.1,0.3,0.3,0.3c0.5,0,0.9,0,1.4,0c0.3,0,0.5,0.1,0.5,0.4c0,0.9,0.1,0.7-0.7,0.7c-0.9,0-1.8,0-2.6,0
			c-0.3,0-0.4-0.1-0.4-0.4c0-2.7,0-5.4,0-8.1c0-0.3,0.1-0.4,0.4-0.4c1,0,2,0,3,0c0.3,0,0.4,0.1,0.4,0.4c0,1,0.1,0.8-0.8,0.8
			c-0.3,0-0.7,0-1,0c-0.2,0-0.3,0.1-0.3,0.3C98.3,28.8,98.3,29.5,98.3,30.3z"/>
		<path class="st0" d="M95.9,16.5c0-1.4,0-2.7,0-4.1c0-0.3,0.1-0.4,0.4-0.4c1,0,2,0,3,0c0.3,0,0.4,0.1,0.4,0.4
			c0,0.9,0.1,0.8-0.8,0.8c-0.3,0-0.7,0-1,0c-0.2,0-0.3,0.1-0.3,0.3c0,0.6,0,1.3,0,1.9c0,0.2,0.1,0.3,0.3,0.3c0.4,0,0.7,0,1.1,0
			c0.1,0,0.3,0.2,0.3,0.3c0.1,0.9,0.1,0.9-0.8,0.9c-1,0-0.9-0.1-0.9,0.9c0,0.6,0,1.1,0,1.7c0,0.3,0.1,0.4,0.4,0.4c0.5,0,0.9,0,1.4,0
			c0.3,0,0.4,0.1,0.4,0.4c0,0.8,0,0.8-0.8,0.8c-0.9,0-1.8,0-2.6,0c-0.3,0-0.4-0.1-0.4-0.4C95.9,19.2,95.9,17.9,95.9,16.5z"/>
		<path class="st0" d="M45.9,31.1c0-1.3,0-2.7,0-4c0-0.4,0.1-0.5,0.5-0.5c1,0,1.9,0,2.9,0c0.3,0,0.5,0.1,0.4,0.4
			c0,0.9,0.1,0.8-0.8,0.8c-0.4,0-0.7,0-1.1,0c-0.2,0-0.3,0.1-0.3,0.3c0,0.6,0,1.3,0,1.9c0,0.2,0.1,0.3,0.3,0.3c0.3,0,0.7,0,1,0
			s0.4,0.1,0.4,0.4c0,1,0.1,0.9-0.8,0.9c-1,0-0.8-0.1-0.8,0.8c0,0.6,0,1.1,0,1.7c0,0.2,0.1,0.3,0.3,0.3c0.5,0,1,0,1.5,0
			c0.2,0,0.3,0.1,0.3,0.3c0,1,0.1,0.8-0.8,0.8c-0.8,0-1.7,0-2.5,0c-0.4,0-0.5-0.1-0.5-0.5C45.9,33.8,45.9,32.4,45.9,31.1z"/>
		<path class="st0" d="M45.9,16.5c0-1.3,0-2.7,0-4c0-0.3,0.1-0.4,0.4-0.4c1,0,2,0,2.9,0c0.3,0,0.4,0.1,0.4,0.4c0,1,0.1,0.8-0.8,0.8
			c-0.3,0-0.7,0-1,0c-0.2,0-0.3,0.1-0.3,0.3c0,0.6,0,1.3,0,1.9c0,0.2,0.1,0.3,0.3,0.3c0.4,0,0.7,0,1.1,0c0.2,0,0.3,0.1,0.3,0.3
			c0.1,0.9,0.1,0.9-0.8,0.9c-0.9,0-0.9,0-0.9,0.9c0,0.6,0,1.1,0,1.7c0,0.3,0.1,0.4,0.4,0.3c0.5,0,0.9,0,1.4,0c0.3,0,0.4,0.1,0.4,0.4
			c0,1,0.1,0.8-0.8,0.8c-0.9,0-1.7,0-2.6,0c-0.3,0-0.4-0.1-0.4-0.4C45.9,19.2,45.9,17.9,45.9,16.5z"/>
		<path class="st0" d="M75.4,31.1c0-1.3,0-2.7,0-4c0-0.4,0.1-0.5,0.5-0.5c1.2,0,1.2,0,1.2,1.2c0,2,0,4.1,0,6.1
			c0,0.4,0.1,0.5,0.5,0.5s0.8,0,1.3,0c0.3,0,0.4,0.1,0.4,0.4c0,1,0.1,0.8-0.8,0.8s-1.7,0-2.6,0c-0.4,0-0.5-0.1-0.5-0.5
			C75.4,33.8,75.4,32.4,75.4,31.1z"/>
		<path class="st0" d="M102.7,16.5c0-1.3,0-2.6,0-3.9c0-0.6,0-0.6,0.6-0.6c0.2,0,0.4,0,0.6,0c0.3,0,0.4,0.1,0.4,0.4
			c0,1.4,0,2.7,0,4.1c0,1,0,1.9,0,2.9c0,0.3,0.1,0.4,0.4,0.4c0.5,0,0.9,0,1.4,0c0.3,0,0.4,0.1,0.4,0.4c0,0.8,0,0.8-0.8,0.8
			c-0.9,0-1.7,0-2.6,0c-0.4,0-0.5-0.1-0.5-0.5C102.7,19.2,102.7,17.9,102.7,16.5z"/>
		<path class="st0" d="M75.1,16.5c0,1.3,0,2.7,0,4c0,0.4-0.1,0.5-0.5,0.5c-0.3,0-0.5,0-0.8,0s-0.4-0.1-0.4-0.4c0-2.7,0-5.4,0-8.1
			c0-0.3,0.1-0.5,0.5-0.4c0.3,0,0.6,0,0.9,0c0.4,0,0.4,0.2,0.4,0.4C75.1,13.8,75.1,15.2,75.1,16.5z"/>
		<path class="st0" d="M57.2,31.1c0,1.3,0,2.7,0,4c0,0.3-0.1,0.5-0.4,0.4c-0.3,0-0.6,0-0.9,0c-0.3,0-0.4-0.1-0.4-0.4
			c0-0.6,0-1.3,0-2c0-2,0-4.1,0-6.1c0-0.4,0.1-0.5,0.5-0.5c1.2,0,1.2,0,1.2,1.1C57.2,28.9,57.2,30,57.2,31.1z"/>
		<path class="st0" d="M80.3,9.1c-0.5,0.8-0.8,1.4-1.3,2.1c-0.1,0.2-0.6,0.2-0.9,0.2L78,11.3c0.2-0.7,0.4-1.3,0.6-2
			c0-0.1,0.1-0.2,0.2-0.2C79.3,9.1,79.8,9.1,80.3,9.1z"/>
	</g>
</g>
</svg>
