<?xml version="1.0" encoding="utf-8"?>
<!-- Generator: Adobe Illustrator 24.3.0, SVG Export Plug-In . SVG Version: 6.00 Build 0)  -->
<svg version="1.1" id="Layer_1" xmlns="http://www.w3.org/2000/svg" xmlns:xlink="http://www.w3.org/1999/xlink" x="0px" y="0px"
	 viewBox="0 0 125 125" style="enable-background:new 0 0 125 125;" xml:space="preserve">
<style type="text/css">
	.st0{fill:#FD9D24;}
</style>
<g>
	<g>
		<path class="st0" d="M62.6,85.1c0,8.7,0,17.3,0,26c0,0.8,0,0.8-0.8,0.8c-4.9,0-9.8,0-14.6,0c-0.7,0-0.8-0.1-0.8-0.8
			c0-17.4,0-34.7,0-52.1c0-0.7,0.1-0.8,0.8-0.8c4.9,0,9.8,0,14.7,0c0.7,0,0.8,0,0.8,0.8C62.6,67.7,62.6,76.4,62.6,85.1z M53,67.6
			c0-0.6,0-1.1,0-1.7c0-0.3-0.1-0.5-0.4-0.5c-1,0-2,0-3,0c-0.3,0-0.4,0.1-0.4,0.4c0,1.2,0,2.3,0,3.5c0,0.3,0.1,0.4,0.4,0.4
			c1,0,2.1,0,3.1,0c0.3,0,0.4-0.1,0.4-0.4C53,68.8,53,68.2,53,67.6z M53,85.7c0-0.6,0-1.2,0-1.7c0-0.3-0.1-0.4-0.4-0.4
			c-1,0-2.1,0-3.1,0c-0.3,0-0.4,0.1-0.4,0.4c0,1.2,0,2.3,0,3.5c0,0.3,0.1,0.4,0.4,0.4c1,0,2.1,0,3.1,0c0.3,0,0.4-0.1,0.4-0.4
			C53,86.9,53,86.3,53,85.7z M53,103.9c0-0.6,0-1.2,0-1.7c0-0.3-0.1-0.4-0.4-0.4c-1,0-2.1,0-3.1,0c-0.3,0-0.4,0.1-0.4,0.4
			c0,1.2,0,2.3,0,3.5c0,0.3,0.1,0.4,0.4,0.4c1,0,2,0,3,0c0.3,0,0.5-0.1,0.4-0.5C53,105,53,104.5,53,103.9z M53,76.7
			c0-0.6,0-1.2,0-1.8c0-0.3-0.1-0.4-0.4-0.4c-1,0-2.1,0-3.1,0c-0.3,0-0.4,0.1-0.4,0.4c0,1.2,0,2.4,0,3.5c0,0.3,0.1,0.4,0.4,0.4
			c1,0,2.1,0,3.1,0c0.3,0,0.4-0.1,0.4-0.4C53,77.8,53,77.3,53,76.7z M49.1,94.8c0,0.6,0,1.2,0,1.8c0,0.3,0.1,0.4,0.4,0.4
			c1,0,2.1,0,3.1,0c0.3,0,0.4-0.1,0.4-0.4c0-1.2,0-2.3,0-3.5c0-0.3-0.1-0.4-0.4-0.4c-1,0-2.1,0-3.1,0c-0.3,0-0.4,0.1-0.4,0.4
			C49.1,93.6,49.1,94.2,49.1,94.8z M60,76.7c0-0.6,0-1.1,0-1.7c0-0.3-0.1-0.5-0.4-0.5c-1,0-2,0-3,0c-0.3,0-0.5,0.1-0.5,0.4
			c0,1.2,0,2.3,0,3.5c0,0.3,0.1,0.4,0.4,0.4c1,0,2,0,3,0c0.3,0,0.4-0.1,0.4-0.5C60,77.8,60,77.2,60,76.7z M60,94.8
			c0-0.6,0-1.1,0-1.7c0-0.3-0.1-0.5-0.4-0.5c-1,0-2,0-3,0c-0.3,0-0.4,0.1-0.4,0.4c0,1.2,0,2.4,0,3.5c0,0.3,0.1,0.4,0.4,0.4
			c1,0,2.1,0,3.1,0c0.3,0,0.4-0.1,0.4-0.4C60,96,60,95.4,60,94.8z M60,67.7c0-0.6,0-1.2,0-1.7c0-0.3-0.1-0.5-0.4-0.5c-1,0-2,0-3,0
			c-0.3,0-0.4,0.1-0.4,0.4c0,1.1,0,2.3,0,3.4c0,0.3,0.1,0.5,0.4,0.4c1,0,2.1,0,3.1,0c0.3,0,0.4-0.1,0.4-0.4C60,68.8,60,68.2,60,67.7
			z M60,85.7c0-0.6,0-1.1,0-1.7c0-0.3-0.1-0.5-0.4-0.4c-1,0-2.1,0-3.1,0c-0.3,0-0.4,0.1-0.4,0.4c0,1.2,0,2.3,0,3.5
			c0,0.3,0.1,0.4,0.4,0.4c1,0,2.1,0,3.1,0c0.3,0,0.4-0.1,0.4-0.4C60,86.9,60,86.3,60,85.7z M60,103.9c0-0.6,0-1.2,0-1.8
			c0-0.3-0.1-0.4-0.4-0.4c-1,0-2.1,0-3.1,0c-0.3,0-0.4,0.1-0.4,0.4c0,1.2,0,2.4,0,3.5c0,0.3,0.1,0.4,0.4,0.4c1,0,2.1,0,3.1,0
			c0.3,0,0.4-0.1,0.4-0.4C60,105.1,60,104.5,60,103.9z"/>
		<path class="st0" d="M81,90c0,7.1,0,14.1,0,21.2c0,0.8-0.1,0.8-0.8,0.8c-4.9,0-9.7,0-14.6,0c-0.8,0-0.8-0.1-0.8-0.8
			c0-7.6,0-15.3,0-22.9c0-0.4,0.1-0.7,0.3-1c5-6.3,10-12.6,15-19c0.2-0.2,0.3-0.5,0.7-0.4c0.4,0.1,0.3,0.5,0.3,0.8
			C81,75.8,81,82.9,81,90z M72.1,86.5c0-1,0-2,0-3c0-0.2-0.1-0.5-0.3-0.6c-0.2-0.2-0.4,0.1-0.6,0.3c-1.4,1.7-2.7,3.4-4.1,5.1
			c-0.3,0.4-0.4,0.7-0.4,1.2c0,0.5,0.1,0.6,0.6,0.6c1.4,0,2.7,0,4.1,0c0.5,0,0.6-0.1,0.6-0.6C72.1,88.5,72.1,87.5,72.1,86.5z
			 M69.4,100.8c0.7,0,1.4,0,2.1,0c0.4,0,0.6-0.1,0.6-0.6c0-0.8,0-1.7,0-2.5c0-0.4-0.1-0.5-0.6-0.6c-1.4,0-2.8,0-4.2,0
			c-0.5,0-0.6,0.1-0.6,0.6c0,0.8,0,1.6,0,2.4c0,0.5,0.1,0.6,0.6,0.6C68.1,100.8,68.8,100.8,69.4,100.8z M76.5,100.8
			c0.7,0,1.4,0,2.2,0c0.4,0,0.5-0.2,0.5-0.5c0-0.9,0-1.7,0-2.6c0-0.4-0.2-0.5-0.5-0.5c-1.4,0-2.8,0-4.3,0c-0.4,0-0.5,0.2-0.5,0.5
			c0,0.8,0,1.7,0,2.5c0,0.5,0.1,0.6,0.6,0.6C75.1,100.8,75.8,100.8,76.5,100.8z M69.5,91.8c-0.7,0-1.5,0-2.2,0
			c-0.4,0-0.5,0.2-0.5,0.5c0,0.8,0,1.7,0,2.5c0,0.4,0.2,0.5,0.5,0.5c1.4,0,2.8,0,4.3,0c0.4,0,0.6-0.1,0.6-0.5c0-0.9,0-1.7,0-2.6
			c0-0.4-0.2-0.5-0.5-0.5C70.9,91.8,70.2,91.8,69.5,91.8z M69.4,106.1c0.7,0,1.4,0,2.1,0c0.5,0,0.6-0.1,0.6-0.6c0-0.8,0-1.6,0-2.4
			c0-0.5-0.1-0.6-0.6-0.6c-1.4,0-2.8,0-4.2,0c-0.5,0-0.6,0.1-0.6,0.6c0,0.8,0,1.7,0,2.5c0,0.4,0.1,0.6,0.6,0.6
			C68,106.1,68.7,106.1,69.4,106.1z M76.5,81.1c-0.7,0-1.4,0-2.2,0c-0.4,0-0.5,0.2-0.5,0.5c0,0.8,0,1.7,0,2.5c0,0.4,0.1,0.5,0.6,0.5
			c1.4,0,2.8,0,4.2,0c0.5,0,0.6-0.1,0.6-0.5c0-0.8,0-1.7,0-2.5c0-0.5-0.1-0.5-0.6-0.5C77.9,81.1,77.2,81.1,76.5,81.1z M76.5,102.5
			c-0.7,0-1.4,0-2.1,0c-0.5,0-0.6,0.1-0.6,0.5c0,0.8,0,1.7,0,2.5c0,0.4,0.2,0.5,0.5,0.5c1.4,0,2.8,0,4.3,0c0.4,0,0.5-0.2,0.5-0.5
			c0-0.8,0-1.7,0-2.5c0-0.5-0.1-0.6-0.6-0.6C77.9,102.5,77.2,102.5,76.5,102.5z M76.5,90.1c0.7,0,1.4,0,2.2,0c0.3,0,0.5-0.1,0.5-0.5
			c0-0.9,0-1.8,0-2.6c0-0.3-0.2-0.5-0.5-0.5c-1.4,0-2.9,0-4.3,0c-0.4,0-0.5,0.2-0.5,0.5c0,0.9,0,1.7,0,2.6c0,0.4,0.1,0.5,0.5,0.5
			C75.1,90,75.8,90.1,76.5,90.1z M76.5,91.8c-0.7,0-1.5,0-2.2,0c-0.3,0-0.5,0.1-0.5,0.5c0,0.9,0,1.8,0,2.6c0,0.3,0.2,0.5,0.5,0.5
			c1.4,0,2.9,0,4.3,0c0.3,0,0.5-0.2,0.5-0.5c0-0.9,0-1.7,0-2.6c0-0.4-0.2-0.5-0.5-0.5C77.9,91.8,77.2,91.8,76.5,91.8z M79.2,76.5
			c0-0.7,0-1.5,0-2.2c0-0.2-0.1-0.4-0.3-0.5c-0.1-0.1-0.4,0.1-0.5,0.2c-1.2,1.5-2.5,3-3.7,4.6c-0.1,0.1-0.2,0.4-0.1,0.6
			c0.1,0.1,0.4,0.2,0.5,0.2c1.2,0,2.3,0,3.5,0c0.5,0,0.6-0.1,0.6-0.6C79.2,78,79.2,77.3,79.2,76.5z"/>
		<path class="st0" d="M99.4,103.7c0,2.6,0,5.1,0,7.7c0,0.6-0.1,0.7-0.7,0.7c-5.1,0-10.1,0-15.2,0c-0.6,0-0.7-0.1-0.7-0.7
			c0-5.1,0-10.2,0-15.4c0-0.6,0.1-0.7,0.7-0.7c5.1,0,10.1,0,15.2,0c0.6,0,0.7,0.1,0.7,0.7C99.4,98.5,99.4,101.1,99.4,103.7z
			 M94.8,106.1c0.7,0,1.5,0,2.2,0c0.4,0,0.5-0.2,0.5-0.5c0-0.8,0-1.7,0-2.5c0-0.4-0.2-0.5-0.5-0.5c-1.5,0-2.9,0-4.4,0
			c-0.4,0-0.6,0.2-0.6,0.6c0,0.8,0,1.7,0,2.5c0,0.4,0.2,0.6,0.6,0.6C93.4,106.1,94.1,106.1,94.8,106.1z M94.8,100.8
			c0.7,0,1.5,0,2.2,0c0.5,0,0.6-0.1,0.6-0.6c0-0.8,0-1.6,0-2.4c0-0.5-0.1-0.6-0.6-0.6c-1.4,0-2.9,0-4.3,0c-0.4,0-0.6,0.2-0.6,0.6
			c0,0.8,0,1.7,0,2.5c0,0.4,0.2,0.6,0.6,0.6C93.4,100.8,94.1,100.8,94.8,100.8z M87.6,97.2c-0.7,0-1.4,0-2.2,0
			c-0.5,0-0.6,0.1-0.6,0.6c0,0.8,0,1.6,0,2.4c0,0.5,0.1,0.6,0.6,0.6c1.4,0,2.9,0,4.3,0c0.5,0,0.6-0.1,0.6-0.6c0-0.8,0-1.6,0-2.4
			c0-0.5-0.1-0.6-0.6-0.6C89.1,97.2,88.3,97.2,87.6,97.2z M87.6,106.1c0.7,0,1.4,0,2.2,0c0.5,0,0.6-0.1,0.6-0.5c0-0.8,0-1.7,0-2.5
			c0-0.4-0.1-0.6-0.6-0.6c-1.4,0-2.9,0-4.3,0c-0.4,0-0.6,0.1-0.6,0.6c0,0.8,0,1.7,0,2.5c0,0.5,0.1,0.6,0.6,0.6
			C86.2,106.1,86.9,106.1,87.6,106.1z"/>
		<path class="st0" d="M35.8,98.6c2.5,0,5.1,0,7.6,0c0.7,0,0.8,0.1,0.8,0.7c0,3.9,0,7.9,0,11.8c0,0.6-0.1,0.7-0.7,0.7
			c-1.5,0-3,0-4.5,0c-0.4,0-0.5-0.1-0.5-0.5c0-2.3,0-4.7,0-7c0-0.7-0.1-0.7-0.7-0.7c-1.4,0-2.7,0-4.1,0c-0.6,0-0.7,0.1-0.7,0.7
			c0,2.3,0,4.6,0,7c0,0.6,0,0.6-0.6,0.6c-1.4,0-2.8,0-4.2,0c-0.6,0-0.7-0.1-0.7-0.7c0-4,0-7.9,0-11.9c0-0.7,0.1-0.7,0.8-0.7
			C30.7,98.6,33.3,98.6,35.8,98.6z"/>
		<path class="st0" d="M11.9,16.8c-1.2,0.4-2.2,0.8-3.3,1.2c0-0.1-0.1-0.2-0.1-0.3c0-0.9,0-1.8,0-2.6c0-0.3,0.1-0.4,0.3-0.5
			c1.4-0.6,2.8-1.3,3.9-2.3c0.1-0.1,0.3-0.1,0.5-0.1c0.9,0,1.8,0,2.7,0c0.3,0,0.4,0.1,0.4,0.4c0,7.5,0,15,0,22.6
			c0,0.3-0.1,0.4-0.4,0.4c-1.2,0-2.4,0-3.5,0c-0.4,0-0.5-0.1-0.5-0.5c0-4.7,0-9.3,0-14c0-1.2,0-2.4,0-3.6
			C11.9,17.1,11.9,17,11.9,16.8z"/>
		<path class="st0" d="M21.7,16.8c-1.2,0.4-2.2,0.8-3.3,1.2c0-0.2,0-0.3,0-0.4c0-0.8,0-1.7,0-2.5c0-0.3,0.1-0.4,0.4-0.6
			c1.2-0.6,2.3-1.2,3.4-1.9c0.5-0.3,0.9-0.5,1.5-0.5c0.7,0,1.4,0,2,0c0.4,0,0.5,0.1,0.5,0.5c0,3.8,0,7.6,0,11.4c0,3.6,0,7.3,0,10.9
			c0,0.6,0,0.6-0.6,0.6c-1.1,0-2.2,0-3.4,0c-0.5,0-0.5,0-0.5-0.5c0-5.8,0-11.7,0-17.5C21.7,17.2,21.7,17,21.7,16.8z"/>
		<path class="st0" d="M35.8,97.1c-2.6,0-5.1,0-7.7,0c-0.2,0-0.5-0.1-0.6-0.2c-0.1-0.2,0-0.5,0.2-0.6c2.5-3.3,5-6.6,7.5-9.8
			c0,0,0.1-0.1,0.1-0.1c0.4-0.5,0.6-0.5,1,0c0.8,1,1.5,1.9,2.3,2.9c1.8,2.3,3.6,4.7,5.4,7c0.1,0.1,0.2,0.2,0.2,0.3
			c0.1,0.3,0,0.5-0.3,0.5c-0.1,0-0.3,0-0.4,0C40.9,97.1,38.4,97.1,35.8,97.1z"/>
		<path class="st0" d="M91.1,94c-2.5,0-5.1,0-7.6,0c-0.6,0-0.6-0.1-0.6-0.6c0-0.9,0-1.8,0-2.6c0-0.5,0.1-0.6,0.6-0.6
			c5.1,0,10.3,0,15.4,0c0.5,0,0.6,0.1,0.6,0.6c0,0.9,0,1.8,0,2.6c0,0.6,0,0.6-0.6,0.6C96.2,94,93.6,94,91.1,94z"/>
		<path class="st0" d="M49.8,32.6c0.1-0.7,0.3-1.3,0.4-2c0.3-1.2,0.5-2.4,0.7-3.5c0.1-0.3,0.2-0.4,0.5-0.4c1.6,0,1.2-0.2,1.3,1.2
			c0.1,2.4,0.1,4.8,0.1,7.1c0,0.2-0.1,0.5-0.1,0.5c-0.3,0.1-0.7,0-1,0c-0.1,0-0.1-0.3-0.1-0.4c0-1.6-0.1-3.2-0.1-4.9
			c0-0.1,0-0.2-0.1-0.3c-0.1,0.2-0.1,0.5-0.2,0.7c-0.3,1.5-0.7,3.1-1,4.6c-0.1,0.4-0.3,0.4-0.6,0.4c-0.3,0-0.5,0-0.6-0.4
			c-0.3-1.6-0.7-3.3-1-4.9c0-0.1-0.1-0.3-0.2-0.4c0,0.8,0,1.6,0,2.5c0,0.9,0,1.9-0.1,2.8c0,0.3-0.1,0.4-0.4,0.4
			c-0.9,0-0.9,0-0.9-0.8c0-2.5,0.1-5,0.1-7.4c0-0.7,0-0.7,0.7-0.7c1.3,0,1-0.2,1.2,1c0.3,1.5,0.6,3,0.9,4.6
			C49.7,32.3,49.7,32.5,49.8,32.6C49.8,32.6,49.8,32.6,49.8,32.6z"/>
		<path class="st0" d="M71.5,45.4c1.3,0.7,1.7,2.4,0.9,3.8c-0.4,0.8-1.2,1-2,1c-0.8,0-1.6,0-2.4,0c-0.3,0-0.4-0.1-0.4-0.4
			c0-2.7,0-5.5,0-8.2c0-0.3,0.1-0.4,0.4-0.4c0.8,0,1.5,0,2.3,0c1.8,0.1,2.8,1.8,1.9,3.4C72.1,44.9,71.8,45.1,71.5,45.4z M71.2,47.6
			c0-1.2-0.4-1.6-1.5-1.5c-0.2,0-0.3,0.1-0.3,0.3c0,0.8,0,1.5,0,2.3c0,0.2,0.1,0.3,0.3,0.3C70.8,49,71.2,48.7,71.2,47.6z M69.4,43.6
			c0,0.3,0,0.6,0,0.9c0,0.1,0,0.2,0.1,0.3c0.3,0.2,1.2,0,1.4-0.4c0.2-0.5,0.3-1.1,0-1.6c-0.3-0.5-0.8-0.4-1.2-0.4
			c-0.1,0-0.3,0.2-0.3,0.3C69.3,43,69.4,43.3,69.4,43.6z"/>
		<path class="st0" d="M60,16.5c0-1.3,0-2.7,0-4c0-0.4,0.1-0.5,0.5-0.5c0.8,0,1.5,0,2.3,0.1c1.3,0.1,2,0.7,2.1,2
			c0.1,1.6,0.1,3.3,0,4.9c-0.1,1.3-0.9,1.9-2.2,2c-0.7,0-1.5,0-2.2,0c-0.3,0-0.4-0.1-0.4-0.4C60,19.2,60,17.9,60,16.5z M61.7,16.5
			c0,1,0,1.9,0,2.9c0,0.3,0.1,0.4,0.4,0.4c0.8,0,1.1-0.3,1.1-1.1c0-1.5,0-2.9,0-4.4c0-0.8-0.3-1.1-1.1-1.1c-0.4,0-0.5,0.1-0.5,0.5
			C61.7,14.6,61.7,15.6,61.7,16.5z"/>
		<path class="st0" d="M72.5,31c0,0.8,0,1.5,0,2.3c-0.1,1.4-0.9,2.2-2.3,2.2c-0.7,0-1.5,0-2.2,0c-0.3,0-0.4-0.1-0.4-0.4
			c0-2.7,0-5.4,0-8.2c0-0.3,0.1-0.4,0.4-0.4c0.8,0,1.7,0,2.5,0.1c1.3,0.1,2,0.8,2,2C72.5,29.5,72.5,30.3,72.5,31z M69.2,31.1
			c0,1,0,1.9,0,2.9c0,0.3,0.1,0.4,0.4,0.4c0.9,0,1.2-0.3,1.2-1.2c0-1.4,0-2.9,0-4.3c0-0.8-0.3-1.1-1.2-1.1c-0.3,0-0.4,0.1-0.4,0.4
			C69.2,29.2,69.2,30.1,69.2,31.1z"/>
		<path class="st0" d="M45.5,45.7c0,0.7,0,1.3,0,2c-0.1,1.9-1.2,2.8-3,2.5c-1.2-0.2-2-0.8-2-2.1c-0.1-1.7-0.1-3.4,0-5
			c0.1-1.2,0.8-1.9,2.1-2c0.4,0,0.9,0,1.3,0.1c1,0.2,1.5,0.9,1.6,1.8C45.5,43.9,45.5,44.8,45.5,45.7C45.5,45.7,45.5,45.7,45.5,45.7z
			 M43.8,45.7C43.8,45.7,43.8,45.7,43.8,45.7c0-0.8,0-1.6,0-2.4c0-0.6-0.3-0.9-0.8-0.9c-0.6,0-0.9,0.2-1,0.8c0,0.1,0,0.3,0,0.4
			c0,1.4,0,2.8,0,4.1c0,0.2,0,0.5,0.1,0.7c0.1,0.2,0.3,0.4,0.5,0.5c0.6,0.2,1.1-0.1,1.2-0.8C43.8,47.3,43.8,46.5,43.8,45.7z"/>
		<path class="st0" d="M45.9,31.1c0,0.9,0.1,1.7,0,2.6c-0.1,1.3-0.8,1.8-2,2c-0.4,0.1-0.9,0-1.4-0.1c-1-0.2-1.6-1-1.6-2.1
			c-0.1-1.6-0.1-3.1,0-4.7c0.1-1.6,1.2-2.4,2.9-2.2c1.4,0.2,2.1,1,2.2,2.5C46,29.7,45.9,30.4,45.9,31.1
			C45.9,31.1,45.9,31.1,45.9,31.1z M44.3,31.1C44.3,31.1,44.2,31.1,44.3,31.1c0-0.8,0-1.7,0-2.5c0-0.5-0.3-0.8-0.8-0.8
			c-0.5,0-0.8,0.2-0.9,0.8c0,0.2,0,0.3,0,0.5c0,1.4,0,2.8,0,4.2c0,0.2,0,0.4,0.1,0.5c0.1,0.5,0.4,0.8,1,0.7c0.5,0,0.7-0.3,0.8-0.9
			C44.3,32.7,44.3,31.9,44.3,31.1z"/>
		<path class="st0" d="M49.3,16.5c0-1.3,0-2.7,0-4c0-0.4,0.1-0.5,0.5-0.5c0.8,0,1.6,0,2.4,0.1c1.3,0.1,2,0.8,2,2.1
			c0,1.5,0.1,3,0,4.5c-0.1,1.4-0.9,2.2-2.3,2.3c-0.7,0-1.4,0-2.1,0c-0.3,0-0.4-0.1-0.4-0.4c0-0.7,0-1.4,0-2S49.3,17.2,49.3,16.5z
			 M50.9,16.5c0,1,0,1.9,0,2.9c0,0.1,0.1,0.3,0.2,0.4c0.6,0.2,1.4-0.2,1.4-0.8c0-1.6,0.1-3.1,0-4.7c0-0.8-0.3-1-1.1-1
			c-0.3,0-0.5,0.1-0.5,0.4C50.9,14.6,50.9,15.6,50.9,16.5z"/>
		<path class="st0" d="M62.8,31.4c0-1.4,0-2.8,0-4.3c0-0.4,0.1-0.5,0.5-0.5c1,0,0.9-0.1,0.9,0.9c0,2.5,0,5,0,7.4
			c0,0.2,0.2,0.6-0.2,0.6c-0.6,0.1-0.9,0-1.1-0.4c-0.6-1.4-1.1-2.8-1.7-4.1c-0.1-0.1-0.1-0.2-0.2-0.4c0,0.1,0,0.3,0,0.4
			c0,1.3,0,2.7,0,4c0,0.4-0.1,0.5-0.5,0.5c-1,0-0.9,0.1-0.9-0.9c0-2.5,0-4.9,0-7.4c0-0.2-0.2-0.5,0.2-0.6c0.6-0.1,0.9,0,1.1,0.4
			c0.6,1.3,1.2,2.7,1.7,4C62.6,31.2,62.6,31.3,62.8,31.4C62.7,31.4,62.8,31.4,62.8,31.4z"/>
		<path class="st0" d="M78.4,31.1c0-1.3,0-2.7,0-4c0-0.4,0.1-0.5,0.5-0.5c0.8,0,1.5,0,2.3,0.1c1.3,0.1,2.1,0.8,2.1,2.1
			c0,1.5,0.1,3,0,4.5c-0.1,1.5-0.9,2.2-2.4,2.3c-0.7,0-1.4,0-2,0c-0.4,0-0.5-0.1-0.5-0.5c0,0,0,0,0,0C78.4,33.7,78.4,32.4,78.4,31.1
			z M80,31.1c0,1,0,1.9,0,2.9c0,0.1,0.1,0.3,0.2,0.4c0.7,0.2,1.4-0.2,1.4-0.9c0-1.6,0-3.1,0-4.7c0-0.8-0.3-1-1.1-1
			c-0.3,0-0.4,0.1-0.4,0.4C80,29.2,80,30.1,80,31.1z"/>
		<path class="st0" d="M61,45.1c0,1.5,0,3,0,4.5c0,0.5,0,0.5-0.5,0.5c-1,0-0.9,0.1-0.9-0.9c0-2.5,0-5,0-7.4c0-0.2-0.2-0.5,0.2-0.6
			c0.6-0.1,0.9,0,1.1,0.4c0.6,1.4,1.2,2.7,1.8,4.1c0,0.1,0.1,0.1,0.2,0.2c0-0.1,0-0.3,0-0.4c0-1.3,0-2.5,0-3.8
			c0-0.3,0.1-0.5,0.5-0.5c1.1,0,0.9-0.1,0.9,0.9c0,2.5,0,5,0,7.5c0,0.2,0.1,0.4-0.2,0.5c-0.5,0.1-0.9,0-1-0.3
			c-0.6-1.4-1.2-2.9-1.8-4.4C61.2,45.4,61.1,45.2,61,45.1C61,45.1,61,45.1,61,45.1z"/>
		<path class="st0" d="M55.3,30.2c0,0.9,0,1.8,0,2.8c0,0.3,0,0.6,0.1,0.9c0.1,0.4,0.4,0.6,0.8,0.6c0.4,0,0.7-0.2,0.8-0.6
			c0.1-0.3,0.1-0.6,0.1-0.8c0-2,0-3.9,0-5.9c0-0.4,0.1-0.5,0.5-0.5c1.2,0,1.2,0,1.2,1.1c0,1.6,0,3.2,0,4.8c0,0.6-0.1,1.2-0.3,1.8
			c-0.1,0.5-0.5,0.9-1,1c-0.9,0.3-1.7,0.3-2.6-0.1c-0.6-0.3-0.9-0.9-1-1.5c-0.1-0.4-0.1-0.9-0.1-1.3c0-1.8,0-3.7,0-5.5
			c0-0.4,0.1-0.5,0.5-0.5c1.1,0,1.1,0,1.1,1.1C55.3,28.5,55.3,29.3,55.3,30.2z"/>
		<path class="st0" d="M46.9,15.6c0-1,0-2.1,0-3.1c0-0.3,0.1-0.5,0.5-0.5c1.1,0,1.1,0,1.1,1.1c0,1.7,0,3.3,0,5c0,0.3,0,0.6-0.1,0.9
			c-0.2,1.5-1,2.2-2.7,2.1c-1.6-0.1-2.3-0.9-2.3-2.6c0-2,0-4,0-6.1c0-0.3,0.1-0.4,0.4-0.4c0.2,0,0.5,0,0.7,0c0.4,0,0.5,0.1,0.5,0.5
			c0,1.9,0,3.8,0,5.7c0,0.3,0,0.7,0.1,1c0.1,0.4,0.4,0.6,0.8,0.6c0.4,0,0.7-0.2,0.8-0.6c0.1-0.4,0.1-0.8,0.1-1.2
			C46.9,17.2,46.9,16.4,46.9,15.6z"/>
		<path class="st0" d="M37,31.1c0,0.8,0,1.6,0,2.4c0,0.7,0.3,1,0.8,1c0.5,0,0.7-0.2,0.8-0.6c0.1-0.4,0.1-0.8,0.1-1.3
			c0-0.3,0.1-0.4,0.4-0.4c0.1,0,0.2,0,0.2,0c1,0,1,0,1,1c0,0.1,0,0.3,0,0.4c-0.1,1.2-0.7,1.9-1.9,2c-1.7,0.2-2.9-0.6-3-2.2
			c-0.1-1.5-0.1-3.1,0-4.6c0.1-1.7,1-2.4,2.7-2.3c1.4,0.1,2.2,0.8,2.2,2.3c0,1.3,0.2,1.1-1.1,1.1c-0.3,0-0.5-0.1-0.4-0.4
			c0-0.3,0-0.7,0-1.1c-0.1-0.4-0.3-0.6-0.7-0.7c-0.4,0-0.7,0.2-0.8,0.6C37,28.6,37,28.8,37,29C37,29.7,37,30.4,37,31.1
			C37,31.1,37,31.1,37,31.1z"/>
		<path class="st0" d="M37,16.5c0,0.8,0,1.6,0,2.4c0,0.7,0.3,1,0.9,1c0.4,0,0.7-0.2,0.7-0.6c0.1-0.4,0.1-0.8,0.1-1.2
			c0-0.3,0.1-0.4,0.4-0.4c1.4,0,1.2-0.2,1.2,1.2c0,1.5-0.8,2.2-2.3,2.3c-1.5,0.1-2.5-0.7-2.6-2.1c-0.1-1.6-0.1-3.3,0-4.9
			c0.1-1.6,1.3-2.3,3-2.1c1.2,0.2,1.8,0.8,1.9,2.1c0,0.3,0,0.7,0,1c0,0.2-0.1,0.3-0.3,0.3c-1.2,0.1-1.2,0.1-1.2-1.1
			c0-0.8-0.3-1.1-0.9-1.1c-0.5,0-0.8,0.3-0.8,0.9C37,14.9,37,15.7,37,16.5C37,16.5,37,16.5,37,16.5z"/>
		<path class="st0" d="M54.3,21c0.2-1.1,0.4-2.1,0.6-3c0.4-1.8,0.7-3.6,1.1-5.5c0.1-0.3,0.2-0.5,0.5-0.5c1.3,0,1.3,0,1.5,1.2
			c0.5,2.4,1,4.8,1.5,7.2c0.1,0.5,0.1,0.5-0.4,0.5c-1,0-1,0-1.2-1c-0.2-1.1-0.2-1.1-1.3-1.1c-0.3,0-0.5,0.1-0.5,0.4
			c0,0.4-0.2,0.9-0.2,1.3c0,0.3-0.1,0.4-0.4,0.4C55.2,21,54.8,21,54.3,21z M57,14.6c0,0-0.1,0-0.1,0c-0.2,1-0.3,2-0.5,3
			c0,0.1,0.1,0.2,0.1,0.2c0.3,0,0.6,0,1,0C57.4,16.7,57.2,15.6,57,14.6z"/>
		<path class="st0" d="M72.6,35.6c0.1-0.7,0.3-1.4,0.4-2.1c0.4-2.1,0.9-4.2,1.3-6.3c0.1-0.4,0.2-0.6,0.7-0.6c1.2,0,1.2,0,1.4,1.2
			c0.5,2.4,1,4.9,1.5,7.3c0,0.1,0,0.3,0.1,0.5c-0.5,0-0.9,0-1.3,0c-0.1,0-0.2-0.2-0.3-0.3c-0.1-0.4-0.2-0.9-0.2-1.4
			c0-0.3-0.1-0.3-0.4-0.3c-1.2,0-1.2,0-1.4,1.1c-0.2,0.9-0.2,0.9-1.2,0.9C73.1,35.6,72.9,35.6,72.6,35.6z M74.7,32.4
			c0.4,0,0.6,0,0.9,0c0.1,0,0.2-0.2,0.2-0.3c-0.1-1-0.3-2-0.5-3c0,0-0.1,0-0.1,0C75.1,30.2,74.9,31.3,74.7,32.4z"/>
		<path class="st0" d="M37.7,50.3c-1.7,0-2.3-1.1-2.5-2.5c0-0.1,0.1-0.2,0.2-0.3c0,0,0,0,0.1,0c0.3-0.1,0.7-0.2,1-0.1
			c0.2,0.1,0.2,0.5,0.3,0.8c0.1,0.2,0.2,0.4,0.3,0.6c0.2,0.3,0.6,0.4,0.8,0.2c0.2-0.1,0.4-0.4,0.4-0.6c0.1-0.5-0.1-1-0.5-1.4
			c-0.5-0.5-1-1-1.6-1.4c-0.9-0.7-1.2-1.6-1-2.7c0.1-0.7,0.5-1.2,1.2-1.5c0.7-0.3,1.3-0.3,2,0c0.8,0.3,1.4,1.3,1.3,2.1
			c0,0.1-0.3,0.2-0.4,0.3c-0.3,0-0.6,0.1-0.9,0c-0.1,0-0.1-0.4-0.1-0.6c-0.1-0.5-0.4-0.7-0.9-0.6c-0.4,0.1-0.7,0.5-0.6,0.9
			c0.1,0.3,0.3,0.7,0.5,1c0.4,0.4,0.8,0.7,1.2,1.1c0.7,0.7,1.3,1.4,1.4,2.4C40,49.3,39.2,50.3,37.7,50.3z"/>
		<path class="st0" d="M84.7,43.8c-0.1-0.3-0.1-0.6-0.2-0.9c-0.1-0.4-0.4-0.6-0.9-0.6c-0.4,0.1-0.6,0.3-0.6,0.7c0,0.6,0.2,1,0.6,1.3
			c0.5,0.4,0.9,0.8,1.4,1.2c0.7,0.6,1.1,1.4,1.1,2.3c0,1.3-0.9,2.3-2.2,2.3c-1.5,0-2.4-0.9-2.5-2.4c0-0.1,0-0.1,0-0.2
			c0.2-0.5,0.8-0.3,1.2-0.4c0.3-0.1,0.2,0.2,0.3,0.4c0.1,0.3,0.1,0.6,0.3,0.9c0.2,0.3,0.5,0.4,0.9,0.3c0.4-0.1,0.5-0.4,0.5-0.7
			c0-0.5-0.2-1-0.6-1.4c-0.6-0.5-1.2-1-1.7-1.5c-0.8-0.7-1-1.7-0.8-2.7c0.2-0.7,0.6-1.2,1.3-1.4c0.5-0.1,1.1-0.2,1.6-0.1
			c0.9,0.1,1.7,1.2,1.6,2.2c0,0.1-0.1,0.2-0.2,0.2C85.5,43.7,85.2,43.7,84.7,43.8z"/>
		<path class="st0" d="M89.4,32.6c0,0.3,0,0.5,0.1,0.7c0.1,0.3,0.2,0.6,0.3,0.8c0.2,0.3,0.5,0.3,0.8,0.2c0.3-0.1,0.4-0.3,0.4-0.7
			c0-0.6-0.2-1-0.6-1.4c-0.5-0.5-1-0.9-1.6-1.4c-0.9-0.7-1.1-1.6-0.9-2.7c0.2-1.1,1.3-1.8,2.6-1.6c1.2,0.1,1.7,0.8,1.9,2.2
			c0,0.1-0.1,0.2-0.2,0.3c-0.1,0.1-0.2,0-0.3,0.1c-0.3,0-0.6,0.2-0.8,0.1c-0.1-0.1-0.1-0.4-0.2-0.7c-0.1-0.5-0.4-0.7-0.9-0.7
			c-0.4,0.1-0.6,0.4-0.6,0.9c0,0.5,0.3,0.9,0.7,1.2c0.5,0.5,1.1,1,1.6,1.5c0.7,0.7,1,1.6,0.8,2.6c-0.1,0.8-0.6,1.4-1.4,1.6
			c-1.7,0.5-3.2-0.6-3.2-2.4c0-0.1,0.1-0.3,0.2-0.3C88.6,32.8,89,32.7,89.4,32.6z"/>
		<path class="st0" d="M49.2,43.8c-0.1-0.3-0.1-0.6-0.2-0.9c-0.1-0.5-0.4-0.6-0.9-0.6c-0.4,0.1-0.6,0.4-0.6,0.8
			c0,0.5,0.3,0.9,0.6,1.2c0.6,0.6,1.3,1.1,1.8,1.7c0.5,0.5,0.7,1.1,0.7,1.8c0,1.6-0.9,2.5-2.5,2.4c-1.6-0.1-2.1-1.2-2.2-2.5
			c0-0.1,0.1-0.2,0.2-0.3c0,0,0,0,0.1,0c0.3-0.1,0.7-0.2,1-0.1c0.2,0.1,0.2,0.5,0.3,0.8c0.1,0.2,0.1,0.4,0.2,0.5
			c0.2,0.3,0.5,0.4,0.9,0.3c0.3-0.1,0.5-0.3,0.5-0.6c0.1-0.5-0.1-1-0.5-1.4c-0.6-0.6-1.2-1.1-1.8-1.6c-0.8-0.7-1-1.6-0.7-2.6
			c0.2-0.7,0.6-1.2,1.4-1.4c0.4-0.1,0.9-0.1,1.4-0.1c1,0.1,1.8,1.1,1.7,2.1c0,0.1-0.1,0.2-0.2,0.3C49.9,43.7,49.6,43.7,49.2,43.8z"
			/>
		<path class="st0" d="M71.1,18.1c0.1,0.4,0.1,0.8,0.2,1.1c0.2,0.5,0.6,0.7,1,0.6c0.4-0.1,0.6-0.5,0.5-1c-0.1-0.5-0.3-0.9-0.7-1.2
			c-0.5-0.4-1-0.9-1.5-1.3c-0.7-0.6-1.1-1.3-1-2.2c0.1-1.5,1.2-2.4,2.8-2.1c1.2,0.2,1.6,1.1,1.7,2.1c0,0.1-0.1,0.3-0.2,0.3
			c-0.4,0.1-0.7,0.2-1.1,0.2c-0.1-0.3-0.1-0.5-0.2-0.8c-0.1-0.5-0.4-0.7-0.8-0.6c-0.5,0.1-0.8,0.4-0.7,0.9c0.1,0.3,0.2,0.7,0.5,1
			c0.3,0.4,0.7,0.6,1.1,1c0.4,0.4,0.8,0.8,1.1,1.3c0.5,0.6,0.5,1.4,0.4,2.1c-0.2,1-1,1.7-2.2,1.7c-1.7,0-2.4-1-2.5-2.5
			c0-0.1,0.1-0.3,0.2-0.3C70.3,18.2,70.7,18.2,71.1,18.1z"/>
		<path class="st0" d="M77.5,45.7c0-1.3,0-2.7,0-4c0-0.3,0.1-0.5,0.5-0.5c1,0,1.9,0,2.9,0c0.4,0,0.5,0.1,0.5,0.5c0,0.1,0,0.2,0,0.2
			c0,0.3-0.1,0.5-0.4,0.4c-0.4,0-0.9,0-1.3,0c-0.2,0-0.3,0.1-0.3,0.3c0,0.6,0,1.2,0,1.8c0,0.3,0.1,0.4,0.4,0.4c0.3,0,0.6,0,0.9,0
			c0.3,0,0.4,0.1,0.4,0.3c0,1,0.1,0.8-0.8,0.8c-0.9,0-0.8-0.1-0.8,0.9c0,0.5,0,1.1,0,1.6c0,0.3,0.1,0.4,0.4,0.4c0.4,0,0.9,0,1.3,0
			c0.3,0,0.5,0.1,0.4,0.4c0,0,0,0.1,0,0.1c0,0.7,0,0.7-0.7,0.7c-0.9,0-1.8,0-2.7,0c-0.3,0-0.5-0.1-0.5-0.5
			C77.5,48.4,77.5,47,77.5,45.7z"/>
		<path class="st0" d="M84,31c0-1.3,0-2.7,0-4c0-0.3,0.1-0.4,0.4-0.4c1,0,2,0,2.9,0c0.3,0,0.4,0.1,0.4,0.4c0,0.9,0.1,0.8-0.8,0.8
			c-0.3,0-0.7,0-1,0c-0.2,0-0.3,0.1-0.3,0.3c0,0.6,0,1.3,0,1.9c0,0.1,0.2,0.3,0.3,0.3c0.3,0,0.7,0,1.1,0c0.2,0,0.3,0.1,0.3,0.3
			c0,0.9,0.1,0.9-0.8,0.9c-1,0-0.9-0.1-0.9,0.9c0,0.5,0,1.1,0,1.6c0,0.3,0.1,0.4,0.4,0.4c0.4,0,0.9,0,1.3,0c0.3,0,0.4,0.1,0.4,0.4
			c0,0.7,0,0.7-0.7,0.7c-0.9,0-1.7,0-2.6,0c-0.4,0-0.5-0.1-0.5-0.5C84,33.7,84,32.4,84,31z"/>
		<path class="st0" d="M55.4,45.7c0-1.3,0-2.7,0-4c0-0.3,0.1-0.5,0.5-0.5c0.9,0,1.9,0,2.8,0c0.4,0,0.5,0.1,0.5,0.5
			c0,0.1,0,0.2,0,0.2c0,0.3-0.1,0.5-0.4,0.4c-0.4,0-0.9,0-1.3,0c-0.2,0-0.3,0.1-0.3,0.3c0,0.6,0,1.2,0,1.9c0,0.2,0.1,0.3,0.3,0.3
			c0.3,0,0.7,0,1,0c0.3,0,0.4,0.1,0.4,0.3c0,0.8,0.1,0.8-0.8,0.8C56.9,46.1,57,46,57,47c0,0.5,0,1.1,0,1.6c0,0.3,0.1,0.4,0.4,0.4
			c0.5,0,0.9,0,1.4,0c0.3,0,0.4,0.1,0.4,0.4c0,0.8,0,0.8-0.8,0.8c-0.8,0-1.7,0-2.5,0c-0.5,0-0.5,0-0.5-0.5
			C55.4,48.3,55.4,47,55.4,45.7z"/>
		<path class="st0" d="M65.7,16.5c0-1.3,0-2.7,0-4c0-0.3,0.1-0.5,0.4-0.4c1,0,2,0,2.9,0c0.3,0,0.4,0.1,0.4,0.4
			c0,0.9,0.1,0.8-0.8,0.8c-0.3,0-0.6,0-0.9,0c-0.3,0-0.4,0.1-0.4,0.4c0,0.6,0,1.2,0,1.7c0,0.3,0.1,0.4,0.4,0.4c0.3,0,0.7,0,1,0
			c0.1,0,0.2,0.2,0.3,0.3c0,0,0,0.1,0,0.1c0,0.8,0,0.8-0.7,0.8c-0.9,0-0.9,0-0.9,0.9c0,0.5,0,1.1,0,1.6c0,0.3,0.1,0.4,0.4,0.4
			c0.4,0,0.9,0,1.3,0c0.3,0,0.4,0.1,0.4,0.4c0,0.8,0,0.8-0.8,0.8c-0.9,0-1.7,0-2.6,0c-0.4,0-0.5-0.1-0.5-0.5
			C65.7,19.2,65.7,17.8,65.7,16.5z"/>
		<path class="st0" d="M76.6,12.1c0.5,0,0.9,0,1.3,0c0.1,0,0.2,0.2,0.3,0.3c0.3,0.9,0.5,1.7,0.8,2.6c0,0.1,0.1,0.2,0.2,0.4
			c0.1-0.2,0.1-0.2,0.2-0.3c0.2-0.8,0.5-1.6,0.7-2.5c0.2-0.6,0.2-0.6,0.8-0.6c0.3,0,0.5,0,0.9,0c-0.1,0.2-0.1,0.3-0.1,0.4
			c-0.5,1.5-1,3-1.4,4.4c-0.1,0.4-0.2,0.8-0.2,1.2c0,0.8,0,1.6,0,2.4c0,0.3-0.1,0.5-0.4,0.4c-0.3,0-0.5,0-0.8,0
			c-0.3,0-0.4-0.1-0.4-0.4c0-0.7,0-1.4,0-2.2c0-0.6-0.1-1.2-0.3-1.7c-0.4-1.4-0.9-2.8-1.4-4.2C76.7,12.4,76.7,12.3,76.6,12.1z"/>
		<path class="st0" d="M52,46.3c0-1.1,0-2.3,0-3.4c0-0.4-0.1-0.5-0.5-0.5c-0.1,0-0.2,0-0.2,0c-0.9,0-0.9,0-0.8-0.9
			c0-0.3,0.1-0.3,0.4-0.3c1.3,0,2.6,0,3.9,0c0.3,0,0.4,0.1,0.4,0.4c0,1,0.1,0.8-0.8,0.8c-0.6,0-0.6,0-0.6,0.6c0,2.2,0,4.4,0,6.6
			c0,0.4-0.1,0.5-0.5,0.5c-0.2,0-0.5,0-0.7,0c-0.3,0-0.4-0.1-0.4-0.4C52,48.6,52,47.5,52,46.3z"/>
		<path class="st0" d="M73.4,45.7c0-1.3,0-2.7,0-4c0-0.3,0.1-0.5,0.5-0.5c0.3,0,0.5,0,0.8,0c0.3,0,0.4,0.1,0.4,0.4
			c0,0.7,0,1.4,0,2.2c0,1.6,0,3.2,0,4.8c0,0.4,0.1,0.5,0.5,0.5c0.4,0,0.8,0,1.3,0c0.3,0,0.4,0.1,0.4,0.4c0,0.8,0,0.8-0.8,0.8
			c-0.9,0-1.7,0-2.6,0c-0.4,0-0.5-0.1-0.5-0.5C73.4,48.3,73.4,47,73.4,45.7z"/>
		<path class="st0" d="M42.6,16.5c0,1.3,0,2.7,0,4c0,0.3-0.1,0.5-0.5,0.5c-0.3,0-0.6,0-0.9,0c-0.2,0-0.3-0.1-0.3-0.3
			c0-2.8,0-5.5,0-8.3c0-0.2,0.1-0.3,0.3-0.3c1.3-0.1,1.3-0.1,1.3,1.2C42.6,14.3,42.6,15.4,42.6,16.5z"/>
		<path class="st0" d="M66.7,31.1c0,1.3,0,2.7,0,4c0,0.3-0.1,0.5-0.5,0.5c-0.3,0-0.5,0-0.8,0c-0.3,0-0.4-0.1-0.4-0.4
			c0-2.7,0-5.4,0-8.2c0-0.3,0.1-0.4,0.4-0.4c0.3,0,0.6,0,0.9,0c0.3,0,0.4,0.1,0.4,0.4C66.7,28.4,66.7,29.7,66.7,31.1z"/>
		<path class="st0" d="M66.8,45.7c0,1.3,0,2.7,0,4c0,0.4-0.1,0.5-0.5,0.5c-1.1,0-1.1,0-1.1-1.1c0-2.4,0-4.9,0-7.3
			c0-0.4,0.1-0.5,0.5-0.5c1.1,0,1.1,0,1.1,1.1C66.8,43.4,66.8,44.6,66.8,45.7z"/>
	</g>
</g>
</svg>
