<?xml version="1.0" encoding="utf-8"?>
<!-- Generator: Adobe Illustrator 24.3.0, SVG Export Plug-In . SVG Version: 6.00 Build 0)  -->
<svg version="1.1" id="Layer_1" xmlns="http://www.w3.org/2000/svg" xmlns:xlink="http://www.w3.org/1999/xlink" x="0px" y="0px"
	 viewBox="0 0 125 125" style="enable-background:new 0 0 125 125;" xml:space="preserve">
<style type="text/css">
	.st0{fill:#BF8B2E;}
</style>
<g>
	<g>
		<path class="st0" d="M48.9,91.8c-0.7-0.6-1.3-1.2-1.9-1.7c-0.2-0.2-0.4-0.4-0.6-0.5c-0.4-0.4-0.3-0.7,0.2-0.9
			c2-0.6,4.1-1.1,6.1-1.7c1.6-0.4,3.1-0.9,4.7-1.3c0.1,0,0.2-0.1,0.3-0.1c0.5-0.1,0.7,0.1,0.6,0.6c-0.2,1.2-0.4,2.3-0.6,3.4
			c-0.4,2.6-0.9,5.3-1.3,7.9c0,0.2-0.2,0.4-0.3,0.5c-0.2,0-0.4,0-0.6-0.2c-0.7-0.6-1.4-1.3-2.1-1.9c-0.3-0.2-0.4-0.2-0.7,0
			c-1.9,1.4-4,2.5-6.4,3c-6,1.3-11.6,0.3-16.5-3.6c-3.5-2.8-5.6-6.5-6.2-11c-0.5-3.7-0.4-7.3,0.7-10.9c2.1-6.7,6.7-10.7,13.5-12
			c6.9-1.4,12.9,0.6,17.9,5.5c2.9,2.8,5.1,6.2,7.1,9.7c1.1,2,2.1,4.1,3.2,6.1c1.5,2.7,3.3,5.2,5.8,7.3c2.8,2.3,6,3.9,9.7,4.3
			c3.7,0.4,6.9-0.6,9.6-3.3c1.6-1.6,2.5-3.5,2.9-5.7c0.7-3,0.7-6.1,0-9.1c-1.1-4.7-4.1-7.6-8.7-8.8c-1.6-0.4-3.2-0.7-4.9-0.5
			c-2.9,0.3-5.5,1.4-7.8,3.3c-1.8,1.4-3.3,3.1-4.7,5c-0.1,0.1-0.2,0.2-0.3,0.4c-0.4,0.5-0.8,0.5-1.1-0.1C66.2,74,65.6,73,65,71.9
			c-0.2-0.3-0.3-0.6-0.5-0.8c-0.2-0.3-0.2-0.5,0-0.7c3.7-4.7,8.2-8.1,14.3-9.2c2.3-0.4,4.6-0.2,6.9,0.2c3.2,0.6,6.1,1.9,8.6,4
			c2.7,2.3,4.4,5.3,5.3,8.7c1.3,5.1,1.2,10.2-0.7,15.1c-2.4,6.1-7,9.6-13.5,10.5c-3.8,0.5-7.4-0.2-10.9-1.8
			c-5.8-2.5-9.8-6.9-12.9-12.2c-1.3-2.2-2.4-4.5-3.6-6.7c-1.6-2.8-3.4-5.5-5.6-7.8c-2.1-2.1-4.5-3.7-7.5-4.3
			c-4.1-0.9-7.8,0-11.1,2.4c-1.9,1.4-3.1,3.4-3.7,5.7c-0.9,3.1-1,6.2-0.3,9.3c0.9,4,3.3,6.9,7.1,8.4c4,1.6,7.9,1.5,11.7-0.6
			C48.5,92,48.7,91.9,48.9,91.8z"/>
		<path class="st0" d="M23.8,31.9c0.2,0,0.4,0,0.5,0c2,0,3.9,0,5.9,0c0.4,0,0.5,0.1,0.5,0.5c0,0.9,0,1.8,0,2.6
			c0,0.3-0.1,0.4-0.5,0.4c-3.7,0-7.4,0-11.1,0c-0.3,0-0.4-0.1-0.4-0.4c0-0.8,0-1.6,0-2.4c0-0.3,0.1-0.5,0.2-0.8
			c2.1-3.2,4.2-6.4,6.2-9.6c0.7-1,1.3-2.1,1.5-3.3c0.1-0.7,0.2-1.5,0-2.2c-0.2-0.8-0.7-1.1-1.4-1.2c-0.8-0.1-1.5,0.3-1.8,1
			c-0.4,0.8-0.4,1.7-0.5,2.6c0,1,0,1-1,1c-0.9,0-1.9,0-2.8,0c-0.3,0-0.5-0.1-0.5-0.5c0-1.2,0-2.4,0.3-3.5c0.7-2.6,2.5-4.1,5.3-4.3
			c0.9,0,1.9,0,2.8,0.2c2.3,0.5,3.7,2.1,4.1,4.5c0.3,2.2-0.1,4.3-1.3,6.2c-1.9,2.9-3.8,5.8-5.8,8.7C24.1,31.5,24,31.7,23.8,31.9z"/>
		<path class="st0" d="M11.8,16.8c-1.1,0.4-2.2,0.8-3.3,1.2c0-0.2,0-0.3,0-0.4c0-0.9,0-1.7,0-2.6c0-0.3,0.1-0.4,0.3-0.5
			c1.4-0.6,2.8-1.3,3.9-2.3c0.1-0.1,0.3-0.1,0.5-0.1c0.8,0,1.7,0,2.5,0c0.7,0,0.7,0,0.7,0.6c0,7,0,14,0,21c0,0.4,0,0.9,0,1.3
			c0,0.3-0.1,0.4-0.4,0.4c-1.2,0-2.4,0-3.6,0c-0.4,0-0.5-0.1-0.5-0.5c0-3.2,0-6.4,0-9.6c0-2.7,0-5.3,0-8
			C11.8,17.2,11.8,17,11.8,16.8z"/>
		<path class="st0" d="M78.9,32.6c0.2-0.7,0.3-1.4,0.5-2.2c0.2-1.1,0.5-2.3,0.7-3.4c0.1-0.3,0.2-0.4,0.5-0.4c0.3,0,0.6,0,0.9,0
			c0.3,0,0.4,0.1,0.4,0.4c0,1.4,0,2.9,0.1,4.3c0,1.3,0,2.5,0.1,3.8c0,0.4-0.1,0.5-0.5,0.5c-0.8,0-0.8,0-0.8-0.8c0-1.5-0.1-3-0.1-4.5
			c0-0.1,0-0.1-0.1-0.2c-0.1,0.4-0.2,0.7-0.2,1.1c-0.3,1.3-0.6,2.7-0.8,4c-0.1,0.4-0.3,0.4-0.6,0.4c-0.3,0-0.5,0-0.6-0.4
			c-0.3-1.6-0.7-3.3-1-4.9c0-0.1-0.1-0.3-0.2-0.4c0,0.4,0,0.9,0,1.3c0,1.3-0.1,2.7-0.1,4c0,0.3-0.1,0.4-0.4,0.4
			c-1,0-0.9,0.2-0.9-0.9c0-1.4,0-2.8,0.1-4.3c0-1.1,0.1-2.2,0.1-3.3c0-0.4,0.1-0.5,0.5-0.5c1.2,0,1.2,0,1.5,1.2
			c0.3,1.5,0.6,2.9,0.9,4.4C78.8,32.4,78.8,32.5,78.9,32.6C78.9,32.6,78.9,32.6,78.9,32.6z"/>
		<path class="st0" d="M86.7,45.4c1.4,0.7,1.7,2.8,0.7,4c-0.5,0.6-1.1,0.7-1.8,0.7c-0.8,0-1.5,0-2.3,0c-0.3,0-0.4-0.1-0.4-0.4
			c0-2.7,0-5.5,0-8.2c0-0.3,0.1-0.4,0.4-0.4c0.8,0,1.6,0,2.4,0c1.8,0.1,2.7,1.9,1.8,3.4C87.3,44.9,87,45.1,86.7,45.4z M84.6,47.5
			C84.6,47.5,84.6,47.5,84.6,47.5c0,0.4,0,0.8,0,1.2c0,0.1,0.1,0.3,0.2,0.3c0.8,0.1,1.6,0,1.6-1.2c0-0.1,0-0.3,0-0.4
			c0-1-0.4-1.4-1.4-1.3c-0.3,0-0.4,0.1-0.4,0.4C84.6,46.8,84.6,47.1,84.6,47.5z M84.6,43.6C84.6,43.6,84.6,43.6,84.6,43.6
			c0,0.3,0,0.6,0,0.9c0,0.1,0.1,0.3,0.2,0.3c0.4,0,0.9,0.1,1.2-0.3c0.4-0.5,0.4-1.1,0.2-1.6c-0.2-0.4-0.6-0.5-1-0.5
			c-0.6,0-0.6,0-0.6,0.6C84.6,43.2,84.6,43.4,84.6,43.6z"/>
		<path class="st0" d="M57.3,16.5c0-1.3,0-2.6,0-3.9c0-0.6,0-0.6,0.6-0.6c0.7,0,1.5,0,2.2,0.1c1.4,0.1,2,0.7,2.1,2
			c0.1,1.6,0.1,3.3,0,4.9c-0.1,1.2-0.9,1.8-2.1,1.9c-0.8,0.1-1.7,0-2.5,0c-0.3,0-0.3-0.2-0.3-0.4C57.3,19.2,57.3,17.9,57.3,16.5z
			 M59,16.5c0,1,0,2,0,2.9c0,0.3,0.1,0.4,0.4,0.4c0.8,0,1.1-0.3,1.1-1.1c0-1.5,0-3,0-4.4c0-0.8-0.3-1-1.1-1.1
			c-0.3,0-0.5,0.1-0.5,0.4C59,14.6,59,15.6,59,16.5z"/>
		<path class="st0" d="M40.3,45.7c0-1.3,0-2.7,0-4c0-0.4,0.1-0.5,0.5-0.5c0.7,0,1.5,0,2.2,0c1.5,0.1,2.3,0.9,2.2,2.4
			c0,0.8-0.1,1.6-0.9,2.1c-0.1,0.1-0.1,0.3-0.1,0.4c0.3,1.2,0.7,2.4,1,3.6c0.1,0.5,0.1,0.5-0.4,0.5c-1.2,0-1.2,0-1.4-1.1
			c-0.2-0.9-0.5-1.7-0.7-2.6c-0.1-0.3-0.2-0.4-0.5-0.4c-0.3,0-0.3,0.3-0.3,0.5c0,1.1,0,2.1,0,3.2c0,0.3-0.1,0.4-0.4,0.5
			c-1.2,0-1.2,0-1.2-1.2C40.3,47.9,40.3,46.8,40.3,45.7z M41.9,43.7c0,0.3,0,0.7,0,1c0,0.1,0.1,0.3,0.2,0.3c0.4,0.1,0.8,0.1,1.2-0.3
			c0.3-0.3,0.4-1.3,0.2-1.8c-0.2-0.5-0.7-0.5-1.2-0.5c-0.2,0-0.3,0.1-0.3,0.3C42,43,41.9,43.4,41.9,43.7z"/>
		<path class="st0" d="M50.7,21c-0.5,0-1,0-1.4,0c-0.1,0-0.3-0.2-0.3-0.4c-0.3-1.1-0.6-2.2-0.9-3.3c0-0.1-0.2-0.3-0.3-0.4
			c-0.3-0.1-0.5,0-0.5,0.4c0,1.1,0,2.2,0,3.3c0,0.3-0.1,0.4-0.4,0.4c-0.3,0-0.7,0-1,0c-0.1,0-0.2-0.2-0.3-0.3c0-0.1,0-0.2,0-0.2
			c0-2.6,0-5.3,0-7.9c0-0.5,0-0.5,0.5-0.5c0.8,0,1.6,0,2.4,0.1c1.2,0.1,1.8,0.7,2,1.9c0.1,1,0,1.9-0.9,2.5c-0.1,0.1-0.1,0.3,0,0.4
			c0.3,1.1,0.6,2.3,1,3.4C50.6,20.6,50.7,20.8,50.7,21z M47.3,14.5c0,0.4,0,0.7,0,1.1c0,0.1,0.1,0.3,0.2,0.3
			c0.7,0.1,1.4-0.1,1.4-1.1c0-0.2,0-0.3,0-0.5c0-1-0.6-1.1-1.4-1.1c-0.1,0-0.2,0.2-0.2,0.3C47.3,13.8,47.3,14.2,47.3,14.5z"/>
		<path class="st0" d="M87.9,31.1c0,0.8,0.1,1.6,0,2.4c-0.1,1.3-0.8,2-2.1,2.1c-0.4,0-0.9,0-1.4-0.1c-0.7-0.1-1.2-0.6-1.4-1.2
			c-0.1-0.5-0.2-0.9-0.3-1.4c0-1.2,0-2.4,0-3.7c0-0.3,0-0.6,0.1-0.9c0.2-1.1,0.8-1.6,1.9-1.8c0.5-0.1,1,0,1.5,0.1
			c0.9,0.2,1.3,0.8,1.5,1.6c0,0.1,0.1,0.3,0.1,0.4C87.9,29.5,87.9,30.3,87.9,31.1C87.9,31.1,87.9,31.1,87.9,31.1z M84.5,31.1
			C84.5,31.1,84.5,31.1,84.5,31.1c0,0.1,0,0.1,0,0.2c0,0.8,0,1.5,0,2.3c0,0.6,0.3,0.9,0.8,0.9c0.5,0,0.8-0.2,0.9-0.8
			c0-0.2,0-0.3,0-0.5c0-1.4,0-2.8,0-4.2c0-0.2,0-0.5-0.1-0.7c-0.1-0.2-0.3-0.4-0.5-0.5c-0.6-0.2-1.1,0.2-1.1,0.9
			C84.5,29.5,84.5,30.3,84.5,31.1z"/>
		<path class="st0" d="M58.4,30.8c-0.1,1.1,0,2-0.1,2.8c-0.1,1.2-0.8,1.9-2,2c-0.4,0.1-0.9,0-1.4-0.1c-0.7-0.1-1.2-0.6-1.4-1.3
			c-0.1-0.4-0.2-0.8-0.2-1.2c0-1.5,0-3,0.1-4.5c0.1-1.2,0.8-1.9,2-2.1c0.5-0.1,0.9,0,1.4,0.1c0.8,0.2,1.4,0.7,1.5,1.6
			C58.3,29.1,58.3,30.1,58.4,30.8z M56.6,31.1C56.6,31.1,56.6,31.1,56.6,31.1c0-0.8,0-1.7,0-2.5c0-0.5-0.3-0.8-0.8-0.8
			c-0.5,0-0.8,0.2-0.9,0.8c0,0.2,0,0.4,0,0.6c0,1.3,0,2.7,0,4c0,0.2,0,0.4,0,0.6c0.1,0.6,0.5,0.8,1.1,0.7c0.4-0.1,0.7-0.4,0.7-0.9
			C56.6,32.7,56.6,31.9,56.6,31.1z"/>
		<path class="st0" d="M87.9,16.5c0,0.9,0,1.7-0.1,2.5c-0.2,1.2-0.8,1.9-2.1,2c-0.4,0-0.8,0-1.2-0.1c-1-0.2-1.6-0.9-1.7-2
			c-0.1-1.7-0.1-3.3,0-5c0.1-1.5,1.3-2.3,3-2c1.3,0.2,2,1,2,2.5C87.9,15.1,87.8,15.8,87.9,16.5C87.8,16.5,87.9,16.5,87.9,16.5z
			 M86.1,16.5C86.1,16.5,86.1,16.5,86.1,16.5c0-0.8,0-1.7,0-2.5c0-0.5-0.3-0.8-0.8-0.8c-0.5,0-0.8,0.2-0.9,0.8c0,0.2,0,0.4,0,0.6
			c0,1.3,0,2.7,0,4c0,0.3,0,0.5,0.1,0.8c0.1,0.3,0.3,0.5,0.7,0.6c0.6,0.1,1-0.2,1-0.9C86.1,18.2,86.1,17.3,86.1,16.5z"/>
		<path class="st0" d="M60.7,45.6c0-0.9,0-1.7,0.1-2.6c0.2-1.2,0.8-1.8,2-2c0.4,0,0.9,0,1.3,0c1,0.2,1.6,0.9,1.7,2
			c0.1,0.8,0.1,1.5,0.1,2.3c0,0.8,0,1.6,0,2.4c-0.1,2-1.4,2.5-3,2.3c-1.4-0.2-2-1-2.1-2.5C60.7,47,60.8,46.3,60.7,45.6
			C60.7,45.6,60.7,45.6,60.7,45.6z M62.5,45.6C62.5,45.6,62.5,45.6,62.5,45.6c0,0.2,0,0.4,0,0.6c0,0.7,0,1.4,0,2
			c0,0.5,0.3,0.8,0.8,0.8c0.5,0,0.8-0.2,0.9-0.7c0-0.2,0.1-0.4,0.1-0.6c0-1.4,0-2.7,0-4.1c0-0.3,0-0.5-0.1-0.8
			c-0.1-0.3-0.3-0.5-0.6-0.5c-0.7-0.1-1,0.2-1,0.9C62.4,44.1,62.5,44.8,62.5,45.6z"/>
		<path class="st0" d="M62.4,31.4c0-1.4,0-2.8,0-4.2c0-0.6,0-0.6,0.6-0.6c0.9,0,0.8-0.1,0.8,0.8c0,2.5,0,5.1,0,7.6
			c0,0.2,0.1,0.5-0.2,0.5c-0.6,0.1-0.9,0-1-0.3c-0.6-1.4-1.1-2.8-1.7-4.1c-0.1-0.1-0.1-0.3-0.3-0.4c0,0.1,0,0.3,0,0.4
			c0,1.3,0,2.7,0,4c0,0.4-0.1,0.5-0.5,0.5c-1,0-1,0-1-1c0-2.5,0-5,0-7.4c0-0.2-0.1-0.5,0.2-0.5c0.5-0.1,0.9,0,1.1,0.3
			c0.6,1.4,1.2,2.7,1.8,4.1C62.2,31.2,62.3,31.3,62.4,31.4C62.4,31.4,62.4,31.4,62.4,31.4z"/>
		<path class="st0" d="M51.3,16.5c0-0.6,0-1.3,0-1.9c0.1-2.1,1.2-2.8,3.1-2.6c1.2,0.1,1.9,0.7,2,2.1c0.1,1.7,0.1,3.4,0,5.1
			c-0.1,1.2-0.8,1.8-2.1,2c-0.4,0-0.9,0-1.3-0.1c-1-0.2-1.6-1-1.7-2.2c0-0.1,0-0.2,0-0.2C51.3,17.9,51.3,17.2,51.3,16.5
			C51.3,16.5,51.3,16.5,51.3,16.5z M53,16.5C53,16.5,53,16.5,53,16.5c0,0.8,0,1.7,0,2.5c0,0.6,0.3,0.8,0.9,0.8
			c0.5,0,0.8-0.3,0.8-0.9c0-1.6,0-3.3,0-4.9c0-0.6-0.3-0.8-0.8-0.9c-0.5,0-0.9,0.2-0.9,0.8C53,14.9,53,15.7,53,16.5z"/>
		<path class="st0" d="M90.1,16c0,1.5,0,3,0,4.5c0,0.4-0.1,0.5-0.5,0.5c-1.1,0-0.9,0.1-0.9-0.9c0-2.5,0-5,0-7.4
			c0-0.2-0.2-0.5,0.2-0.6c0.6-0.1,0.9,0,1.1,0.4c0.6,1.4,1.2,2.7,1.8,4.1c0,0.1,0.1,0.2,0.2,0.2c0-0.1,0-0.3,0-0.4
			c0-1.3,0-2.6,0-3.9c0-0.4,0.1-0.5,0.5-0.5c1.1,0,0.9-0.1,0.9,0.9c0,2.5,0,5,0,7.6c0,0.2,0.1,0.5-0.2,0.5c-0.3,0-0.8,0.2-1-0.3
			c-0.6-1.5-1.2-2.9-1.8-4.4C90.3,16.2,90.2,16.1,90.1,16C90.2,16,90.1,16,90.1,16z"/>
		<path class="st0" d="M70,45.9c0-1.3,0-2.6,0-3.9c0-0.9-0.1-0.8,0.8-0.8c0.5,0,0.5,0,0.5,0.6c0,2.6,0,5.2,0,7.8
			c0,0.2,0.1,0.5-0.2,0.5c-0.5,0.1-0.9,0-1-0.3c-0.6-1.4-1.2-2.9-1.8-4.3c-0.1-0.1-0.1-0.3-0.2-0.4c0,0.1,0,0.3,0,0.4
			c0,1.4,0,2.8,0,4.2c0,0.3-0.1,0.4-0.4,0.4c-1.2,0-1,0.1-1-1c0-2.4,0-4.9,0-7.3c0-0.2-0.2-0.6,0.2-0.6c0.6-0.1,0.9,0,1.1,0.4
			c0.6,1.3,1.1,2.6,1.7,3.9C69.8,45.7,69.9,45.8,70,45.9C70,45.9,70,45.9,70,45.9z"/>
		<path class="st0" d="M71.5,30c0,1.2,0,2.3,0,3.5c0,0.1,0,0.3,0.1,0.4c0.1,0.4,0.4,0.5,0.8,0.5c0.4,0,0.6-0.2,0.7-0.5
			c0.1-0.4,0.1-0.7,0.1-1.1c0-1.9,0-3.8,0-5.7c0-0.4,0.1-0.5,0.5-0.5c1.1,0,1.1,0,1.1,1.1c0,1.8,0,3.6,0,5.4c0,0.1,0,0.2,0,0.4
			c-0.1,1.4-0.8,2-2.1,2.2c-0.4,0-0.8,0-1.2-0.1c-1-0.2-1.5-0.9-1.6-2.1c-0.1-2.2-0.1-4.4-0.1-6.5c0-0.2,0.1-0.4,0.3-0.3
			c0,0,0,0,0,0c1.2-0.1,1.2-0.1,1.2,1.2C71.4,28.5,71.4,29.3,71.5,30C71.4,30,71.5,30,71.5,30z"/>
		<path class="st0" d="M68,15.6c0,0.9,0,1.8,0,2.6c0,0.3,0,0.5-0.1,0.8c-0.2,1.4-0.9,2-2.3,2c-1.6,0.1-2.5-0.7-2.6-2.3
			c-0.1-2.1,0-4.3-0.1-6.4c0-0.3,0.1-0.4,0.4-0.4c0.3,0,0.6,0,0.9,0c0.3,0,0.4,0.1,0.4,0.4c0,1.8,0,3.7,0,5.5c0,0.4,0,0.8,0.1,1.2
			c0.1,0.5,0.4,0.7,0.8,0.7c0.4,0,0.7-0.2,0.8-0.7c0.1-0.3,0.1-0.7,0.1-1c0-1.9,0-3.7,0-5.6c0-0.4,0.1-0.5,0.5-0.5
			c1.1,0,1.1,0,1.1,1.1C68,14,68,14.8,68,15.6z"/>
		<path class="st0" d="M76,16.5c0,0.7,0,1.4,0,2c0,0.2,0,0.5,0.1,0.7c0.1,0.5,0.4,0.7,0.8,0.6c0.4,0,0.7-0.2,0.7-0.7
			c0-0.4,0-0.8,0-1.1c0-0.3,0.1-0.4,0.4-0.4c0.2,0,0.3,0,0.5,0c0.8,0,0.7-0.1,0.7,0.8c0,0.3,0,0.6-0.1,0.9c-0.2,1.1-0.8,1.6-1.9,1.8
			c-0.4,0-0.8,0-1.2,0c-1.1-0.2-1.7-0.9-1.8-2.1c-0.1-1.6-0.1-3.2,0-4.7c0.1-2,2.5-3,4.1-1.8c0.5,0.3,0.7,0.8,0.8,1.3
			c0,0.1,0,0.2,0.1,0.4c0.2,1.2-0.1,1.5-1.3,1.3c-0.1,0-0.3-0.2-0.3-0.3c0-0.3,0-0.7,0-1.1c0-0.5-0.3-0.8-0.7-0.8
			c-0.5,0-0.8,0.2-0.9,0.7C76.1,14.8,76.1,15.6,76,16.5C76.1,16.5,76.1,16.5,76,16.5z"/>
		<path class="st0" d="M68.8,16.5c0-0.7,0-1.3,0-2c0.1-1.9,1.1-2.8,3-2.6c1.2,0.1,1.9,0.9,2,2.2c0.1,1.5,0.2,1.1-1.1,1.2
			c-0.4,0-0.5-0.1-0.5-0.5c0-0.3,0-0.6,0-0.9c0-0.5-0.3-0.7-0.7-0.8c-0.5,0-0.8,0.2-0.9,0.7c0,0.1-0.1,0.3-0.1,0.4
			c0,1.6,0,3.2,0,4.7c0,0.4,0.2,0.7,0.6,0.8c0.6,0.1,1-0.2,1-0.8c0-0.4,0-0.7,0-1.1c0-0.2,0.1-0.3,0.3-0.3c0.3,0,0.7,0,1,0
			c0.1,0,0.3,0.2,0.3,0.3c0,0.5,0,1-0.1,1.5c-0.2,1.1-0.9,1.8-2.5,1.7c-1.5-0.1-2.2-0.9-2.3-2.4C68.8,18,68.8,17.2,68.8,16.5
			C68.8,16.5,68.8,16.5,68.8,16.5z"/>
		<path class="st0" d="M49.2,31.1c0,0.7,0,1.4,0,2.1c0,0.2,0,0.4,0.1,0.6c0.1,0.5,0.4,0.6,0.9,0.6c0.4,0,0.7-0.2,0.7-0.7
			c0-0.4,0-0.8,0-1.1c0-0.3,0.1-0.4,0.4-0.4c0.3,0,0.6,0,0.9,0c0.1,0,0.3,0.1,0.3,0.2c0,0.7,0.1,1.5-0.3,2.2
			c-0.2,0.3-0.5,0.7-0.9,0.8c-0.8,0.4-1.7,0.4-2.6,0c-0.8-0.4-1.1-1.2-1.2-2c-0.1-1.5-0.1-3.1,0-4.6c0.1-1.6,1.2-2.4,2.8-2.3
			c1.4,0.1,2,0.7,2.1,2.2c0.1,1.5,0.2,1.2-1,1.2c-0.5,0-0.5,0-0.5-0.5c0-0.3,0-0.6,0-0.9c0-0.5-0.3-0.7-0.7-0.7
			c-0.4,0-0.8,0.2-0.9,0.6c-0.1,0.7-0.1,1.3-0.1,2C49.2,30.6,49.2,30.8,49.2,31.1C49.2,31.1,49.2,31.1,49.2,31.1z"/>
		<path class="st0" d="M77,50.1c0.1-0.6,0.2-1.1,0.3-1.7c0.5-2.2,0.9-4.5,1.4-6.7c0.1-0.4,0.2-0.6,0.7-0.6c1.2,0,1.2,0,1.4,1.2
			c0.5,2.4,1,4.8,1.5,7.2c0,0.2,0,0.3,0.1,0.5c-0.5,0-0.9,0-1.4,0c-0.1,0-0.2-0.2-0.2-0.3c-0.1-0.4-0.2-0.9-0.2-1.3
			c0-0.1,0-0.3-0.1-0.3c-0.4-0.1-0.8-0.1-1.3-0.1c-0.1,0-0.3,0.2-0.3,0.3c-0.1,0.5-0.2,1-0.3,1.5c0,0.1-0.1,0.3-0.2,0.3
			C78,50.2,77.5,50.1,77,50.1z M79.2,47c0.3,0,0.6,0,0.9,0c0.1,0,0.2-0.2,0.2-0.2c-0.1-1-0.3-2-0.5-3c0,0-0.1,0-0.1,0
			C79.5,44.8,79.3,45.9,79.2,47z"/>
		<path class="st0" d="M40.3,16.5c0-1.3,0-2.7,0-4c0-0.3,0.1-0.5,0.4-0.5c0.7,0,1.5,0,2.2,0c1.3,0,2,0.6,2.2,1.9
			c0.1,0.4,0.1,0.9,0,1.4c-0.2,1-0.9,1.6-1.9,1.7c-0.2,0-0.5,0-0.7,0c-0.4,0-0.5,0.1-0.5,0.5c0,1,0,2,0,3c0,0.4-0.1,0.5-0.5,0.5
			c-1.2,0-1.2,0-1.2-1.2C40.3,18.7,40.3,17.6,40.3,16.5z M41.9,14.5c0,0.3,0,0.7,0,1c0,0.2,0.1,0.3,0.3,0.3c1,0.1,1.3-0.3,1.3-1.2
			c0-0.3,0-0.5-0.1-0.8c-0.1-0.3-0.3-0.5-0.6-0.5c-0.2,0-0.4,0-0.6,0c-0.2,0-0.3,0.1-0.3,0.3C42,13.9,41.9,14.2,41.9,14.5z"/>
		<path class="st0" d="M66.9,26.5c1.5,0,2,0.9,2.2,2.2c0,0.1-0.1,0.3-0.2,0.3c-0.4,0-0.8,0.4-1.1,0c-0.1-0.1-0.1-0.4-0.1-0.7
			c-0.1-0.5-0.4-0.7-0.9-0.6c-0.4,0.1-0.6,0.3-0.6,0.8c0,0.3,0.2,0.7,0.4,1c0.4,0.5,0.9,0.9,1.4,1.3c0.8,0.7,1.4,1.6,1.3,2.7
			c0,1.1-0.7,1.9-1.8,2.1c-1.6,0.3-2.9-0.7-2.9-2.4c0-0.2,0-0.4,0.3-0.4c0,0,0.1,0,0.1,0c0.3-0.1,0.7-0.2,0.9-0.1
			c0.2,0.1,0.2,0.5,0.2,0.8c0,0.1,0.1,0.3,0.1,0.4c0.2,0.4,0.6,0.6,0.9,0.4c0.3-0.1,0.5-0.4,0.5-0.8c0-0.5-0.3-1-0.7-1.3
			c-0.6-0.5-1.1-1-1.7-1.5c-0.7-0.6-0.9-1.5-0.8-2.4C64.8,27.2,65.6,26.5,66.9,26.5z"/>
		<path class="st0" d="M74.7,50.3c-1.8,0-2.4-1.3-2.5-2.5c0-0.1,0.1-0.2,0.2-0.3c0.2-0.1,0.4-0.1,0.7-0.1c0.5-0.1,0.5-0.1,0.6,0.4
			c0.1,0.3,0.1,0.6,0.3,0.8c0.2,0.3,0.5,0.4,0.9,0.3c0.4-0.1,0.5-0.4,0.5-0.7c0-0.6-0.2-1.1-0.6-1.4c-0.5-0.5-1-0.9-1.5-1.3
			c-0.9-0.7-1.1-1.7-0.9-2.7c0.1-0.8,0.6-1.3,1.3-1.5c0.5-0.1,1.1-0.1,1.6-0.1c0.9,0.2,1.6,1.2,1.5,2.1c0,0.1-0.1,0.2-0.2,0.2
			c-0.1,0-0.2,0-0.3,0.1c-0.3,0-0.6,0.2-0.8,0.1c-0.1-0.1-0.2-0.5-0.2-0.7c-0.1-0.5-0.4-0.7-0.9-0.6c-0.4,0.1-0.6,0.4-0.6,0.9
			c0.1,0.3,0.2,0.7,0.4,0.9c0.4,0.5,0.9,0.9,1.4,1.3c0.7,0.6,1.2,1.3,1.3,2.2C77.1,49.1,76.2,50.3,74.7,50.3z"/>
		<path class="st0" d="M53.4,43.8c-0.1-0.3-0.1-0.6-0.2-0.8c-0.1-0.5-0.4-0.7-0.9-0.6c-0.4,0.1-0.6,0.4-0.6,0.8
			c0,0.4,0.2,0.8,0.6,1.1c0.5,0.4,0.9,0.8,1.4,1.2c0.7,0.6,1.2,1.4,1.2,2.3c0.1,1.5-1,2.5-2.6,2.3c-1.3-0.1-2.2-1.3-2.1-2.5
			c0-0.1,0.1-0.2,0.2-0.2c0.4-0.1,0.8-0.2,1.2-0.3c0,0.3,0.1,0.5,0.1,0.8c0.1,0.3,0.2,0.5,0.3,0.7c0.2,0.3,0.5,0.4,0.8,0.2
			c0.2-0.1,0.4-0.4,0.5-0.6c0.1-0.5-0.1-1-0.5-1.4c-0.5-0.5-1-0.9-1.5-1.4c-0.9-0.7-1.3-1.7-1.1-2.8c0.1-0.7,0.5-1.2,1.2-1.5
			c0.6-0.2,1.2-0.3,1.8-0.1c0.9,0.2,1.5,1.2,1.4,2.1c0,0.1-0.1,0.2-0.2,0.3C54.2,43.7,53.8,43.7,53.4,43.8z"/>
		<path class="st0" d="M100.3,43.8c-0.1-0.3-0.1-0.6-0.2-0.9c-0.1-0.4-0.4-0.6-0.8-0.6c-0.4,0.1-0.7,0.4-0.6,0.8
			c0.1,0.4,0.2,0.7,0.4,1c0.4,0.5,0.9,0.8,1.3,1.2c0.7,0.7,1.3,1.4,1.4,2.4c0.1,1.6-1,2.6-2.6,2.4C98,50.1,97,49,97.1,47.7
			c0-0.1,0.1-0.2,0.2-0.3c0.3-0.1,0.6-0.1,0.9-0.2c0.2,0,0.3,0.1,0.3,0.3c0.1,0.3,0.1,0.6,0.2,0.9c0.2,0.4,0.6,0.6,1,0.5
			c0.3-0.1,0.5-0.4,0.5-0.8c0-0.5-0.2-0.9-0.6-1.3c-0.6-0.5-1.1-1-1.7-1.5c-0.8-0.7-1-1.6-0.8-2.7c0.1-0.7,0.6-1.2,1.2-1.4
			c0.6-0.2,1.2-0.2,1.8-0.1c0.9,0.2,1.6,1.3,1.5,2.1c0,0.1-0.1,0.2-0.2,0.2C101.1,43.7,100.7,43.7,100.3,43.8z"/>
		<path class="st0" d="M55.5,45.7c0-1.3,0-2.7,0-4c0-0.4,0.1-0.5,0.5-0.5c0.8,0,1.5,0,2.3,0c1.2,0,1.9,0.7,2.1,1.9
			c0,0.4,0,0.8,0,1.3c-0.1,1-0.7,1.6-1.7,1.8c-0.3,0.1-0.6,0.1-0.9,0.1c-0.6,0-0.6,0-0.6,0.6c0,1,0,2,0,3c0,0.3-0.1,0.4-0.4,0.4
			c-1.2,0-1.2,0-1.2-1.2C55.5,47.9,55.5,46.8,55.5,45.7z M57.2,43.6c0,0.3,0,0.7,0,1c0,0.1,0,0.2,0.1,0.3c0.5,0.3,1.4-0.1,1.5-0.7
			c0.1-0.4,0-0.8,0-1.2c0-0.4-0.3-0.6-0.6-0.6c-0.2,0-0.5-0.1-0.7,0c-0.1,0-0.3,0.2-0.3,0.3C57.2,43,57.2,43.3,57.2,43.6z"/>
		<path class="st0" d="M46,45.7c0-1.3,0-2.7,0-4c0-0.3,0.1-0.5,0.5-0.5c1,0,1.9,0,2.9,0c0.4,0,0.5,0.1,0.5,0.5c0,0,0,0.1,0,0.1
			c0,0.6,0,0.6-0.6,0.6c-0.4,0-0.8,0-1.1,0c-0.3,0-0.4,0.1-0.4,0.3c0,0.6,0,1.2,0,1.8c0,0.3,0.1,0.4,0.4,0.3c0.3,0,0.6,0,0.9,0
			c0.3,0,0.4,0.1,0.3,0.4c0,1,0.1,0.8-0.8,0.8c-0.9,0-0.8-0.1-0.8,0.9c0,0.6,0,1.1,0,1.7c0,0.3,0.1,0.4,0.4,0.4c0.4,0,0.9,0,1.3,0
			c0.3,0,0.4,0.1,0.4,0.4c0,0.8,0,0.8-0.8,0.8c-0.8,0-1.7,0-2.5,0c-0.6,0-0.6,0-0.6-0.6C46,48.3,46,47,46,45.7z"/>
		<path class="st0" d="M93,45.7c0-1.3,0-2.7,0-4c0-0.4,0.1-0.5,0.5-0.5c1,0,1.9,0,2.9,0c0.4,0,0.5,0.1,0.5,0.5c0,0.1,0,0.2,0,0.2
			c0,0.4-0.1,0.5-0.5,0.5c-0.4,0-0.9,0-1.3,0c-0.2,0-0.4,0.1-0.4,0.3c0,0.6,0,1.3,0,1.9c0,0.1,0.2,0.3,0.3,0.3c0.3,0,0.7,0,1.1,0
			c0.1,0,0.3,0.2,0.3,0.3c0,1.1,0.1,0.9-0.8,0.9c-0.9,0-0.8-0.1-0.8,0.8c0,0.5,0,1,0,1.5c0,0.6,0,0.6,0.6,0.6c0.4,0,0.8,0,1.2,0
			c0.3,0,0.4,0.1,0.4,0.4c0,0.8,0,0.8-0.8,0.8c-0.9,0-1.7,0-2.6,0c-0.3,0-0.4-0.1-0.4-0.4C93,48.4,93,47,93,45.7z"/>
		<path class="st0" d="M39.7,26.6c0.5,0,0.9,0,1.3,0c0.1,0,0.3,0.2,0.3,0.4c0.3,0.9,0.6,1.8,0.8,2.7c0,0.1,0.1,0.2,0.1,0.4
			c0.2-0.5,0.3-0.9,0.4-1.3c0.2-0.6,0.4-1.2,0.5-1.8c0.1-0.3,0.2-0.4,0.5-0.4c0.4,0,0.7,0,1.2,0c-0.2,0.7-0.4,1.3-0.6,1.9
			c-0.3,0.9-0.6,1.8-0.9,2.7c-0.2,0.6-0.4,1.3-0.3,2c0,0.7,0,1.3,0,2c0,0.3-0.1,0.4-0.4,0.4c-1.2,0-1.3,0-1.2-1.1
			c0.1-1.5-0.1-2.9-0.7-4.3c-0.4-1-0.7-1.9-1-2.9C39.8,27,39.8,26.9,39.7,26.6z"/>
		<path class="st0" d="M88.7,45.7c0-1.3,0-2.6,0-3.9c0-0.4,0.1-0.5,0.5-0.5c1.2,0,1.2,0,1.2,1.2c0,2,0,4.1,0,6.1
			c0,0.4,0.1,0.5,0.5,0.5c0.4,0,0.8,0,1.2,0c0.3,0,0.4,0.1,0.4,0.4c0,0.9,0.1,0.8-0.8,0.8c-0.9,0-1.7,0-2.6,0
			c-0.4,0-0.5-0.1-0.5-0.5C88.7,48.4,88.7,47,88.7,45.7z"/>
		<path class="st0" d="M81.8,16.6c0,1.3,0,2.6,0,3.9c0,0.4-0.1,0.5-0.5,0.5c-1.2,0-1.2,0-1.2-1.1c0-2.4,0-4.8,0-7.3
			c0-0.5,0-0.5,0.5-0.6c1.1,0,1.1,0,1.1,1.1C81.8,14.3,81.8,15.4,81.8,16.6z"/>
		<path class="st0" d="M84.8,11.4c0.2-0.8,0.4-1.4,0.6-2.1c0-0.1,0.1-0.2,0.2-0.2c0.4,0,0.9,0,1.4,0c-0.5,0.8-0.8,1.5-1.3,2.1
			C85.6,11.4,85.2,11.3,84.8,11.4z"/>
	</g>
</g>
</svg>
