<?xml version="1.0" encoding="utf-8"?>
<!-- Generator: Adobe Illustrator 25.0.1, SVG Export Plug-In . SVG Version: 6.00 Build 0)  -->
<svg version="1.1" id="Layer_1" xmlns="http://www.w3.org/2000/svg" xmlns:xlink="http://www.w3.org/1999/xlink" x="0px" y="0px"
	 viewBox="0 0 125 125" style="enable-background:new 0 0 125 125;" xml:space="preserve">
<style type="text/css">
	.st0{fill:#D2D1D3;}
</style>
<g>
	<g>
		<path class="st0" d="M63.5,101.8c-8.4,0.1-16.4-1.6-24-5.2c-8.4-4-15.4-9.7-21-17.2c-0.7-1-0.7-0.7,0-1.6
			c4.9-6.5,10.9-11.7,18.1-15.6c5.8-3.2,12.1-5.3,18.7-6.2c2.3-0.3,4.6-0.5,6.9-0.5c6.3-0.2,12.5,0.7,18.5,2.6
			c7.3,2.3,13.8,6.1,19.6,11.1c3.1,2.7,6,5.7,8.4,9.1c0.2,0.3,0.2,0.6,0,0.9c-2.9,4.1-6.4,7.6-10.4,10.7c-6.6,5.2-14,8.8-22.3,10.7
			c-3.2,0.7-6.5,1.2-9.8,1.3C65.3,101.8,64.4,101.8,63.5,101.8z M53.4,62.7c0.2,0,0.3,0,0.4,0c1-0.1,2.1-0.2,3.1-0.2
			c0.6,0,1.2,0.1,1.8,0.2c0.6,0.1,0.8,0.5,0.7,1.1c-0.1,0.6,0.1,1.1,0.6,1.4c0.2,0.2,0.5,0.4,0.7,0.6c0.4,0.3,0.4,0.5,0,0.8
			c-0.8,0.5-1.5,0.9-2.3,1.3c-0.2,0.1-0.5,0.2-0.8,0.3c-0.1,0-0.4-0.1-0.4-0.2c-0.1-0.1,0-0.4,0.1-0.4c0.3-0.2,0.6-0.4,0.9-0.6
			c0.3-0.2,0.6-0.3,0.8-0.5c0.3-0.2,0.3-0.4,0-0.4C58.7,66,58.3,66,58,66c-1.5,0.3-3,0.6-4.6,0.7c-0.9,0-1.6,0.4-2.3,0.9
			c-0.6,0.5-0.6,1,0.1,1.3c0.6,0.3,1.3,0.5,1.9,0.7c0.6,0.2,1,0,1.4-0.4c0.2-0.2,0.4-0.5,0.6-0.7c0.3-0.4,0.8-0.4,1.2-0.2
			c0.3,0.2,0.3,0.3,0,0.5c-0.4,0.3-0.8,0.6-1.1,1c-0.6,0.6-1.2,0.7-2,0.5c-1.1-0.4-2.3-0.4-3.3,0.3c-0.3,0.2-0.7,0.4-1,0.6
			c-0.3,0.1-0.5,0.3-0.4,0.7c0.1,0.3,0,0.6-0.3,0.8c-0.2,0.2-0.5,0.3-0.8,0.1c-0.4-0.2-0.9-0.2-1.3-0.2c-0.9,0.2-1.2,0.7-0.8,1.5
			c0.2,0.4,0.5,0.5,0.9,0.4c0.5-0.2,1-0.4,1.5-0.5c0.8-0.2,1.6-0.4,2.2-1c0.3-0.2,0.6-0.2,0.9,0c0.2,0.2,0.3,0.4,0.5,0.6
			c0.3,0.4,0.5,0.9,0.8,1.3c0.1,0.1,0.2,0.2,0.4,0.4l0.1-0.1c0-0.2-0.1-0.3-0.1-0.5c-0.1-0.2-0.2-0.5-0.2-0.7c0-0.1,0-0.3,0.1-0.3
			s0.3,0,0.3,0.1c0.2,0.2,0.4,0.4,0.6,0.7c0.2,0.2,0.3,0.3,0.6,0.2c0.4-0.2,0.8-0.2,1,0.1c0.2,0.3,0.2,0.9-0.1,1.2
			c-0.4,0.4-1,0.7-1.6,0.7c-0.9,0-1.7-0.4-2.5-0.7c-1.2-0.4-2.4-0.8-3.6-1c-0.4-0.1-1,0.2-1.3,0.5c-0.4,0.3-0.6,0.8-0.9,1.2
			c-0.1,0.2-0.2,0.4-0.2,0.6c0,0.9-0.1,1.7,0,2.6c0.1,2,0.5,4,1.3,5.9c0.2,0.5,0.8,0.7,1.2,0.4c0.5-0.2,0.9-0.5,1.4-0.7
			s0.7-0.2,1.1,0.2c0.1,0.1,0.3,0.3,0.4,0.4c0.4,0.2,0.6,0.6,0.6,1s0.2,0.4,0.5,0.3c0.5-0.2,0.6-0.1,0.7,0.4
			c0.1,0.4,0.1,0.7,0.2,1.1c0.1,0.4,0.2,0.7,0.7,0.7c0,0.4,0,0.9,0.1,1.3c0.1,0.6,0.2,1.1,0.3,1.7c0.1,0.4,0.4,0.6,0.9,0.6
			c1.1-0.1,2.1-0.5,2.6-1.5c0.3-0.6,0.6-1.3,0.8-1.9c0.2-0.4,0.3-0.9,0.7-1.1c0.1,0,0.2-0.2,0.2-0.2c0.2-0.9,0.6-1.8,0.5-2.8
			c-0.1-0.6,0.1-1.2,0.5-1.6c0.3-0.3,0.7-0.6,0.9-0.9c0.5-0.5,0.6-1.3-0.2-1.7c-0.3-0.1-0.5-0.3-0.7-0.4c-1.1-0.7-1.7-1.7-1.8-3
			c0-0.2,0.1-0.3,0.1-0.5c0.1,0.1,0.3,0.1,0.4,0.3c0.5,0.5,1,1.1,1.5,1.6c0.8,0.8,1.2,0.9,2.2,0.4c0.2-0.1,0.3-0.2,0.5-0.3
			c0.7-0.6,0.8-1.2,0.1-1.8c-0.6-0.6-1.2-1.1-1.7-1.7c-0.3-0.3-0.6-0.6-0.8-0.9c-0.1-0.1-0.1-0.4-0.1-0.4c0.1-0.1,0.3-0.1,0.5-0.1
			s0.3,0.2,0.5,0.3c0.6,0.4,1.3,0.8,1.9,1.2c0.5,0.3,0.9,0.7,1,1.3c0.1,0.7,0.5,1.2,1.2,1.5c0.3,0.1,0.6,0.2,0.9,0.3
			c1.1,0.3,2.1,0.8,2.9,1.7c0.3,0.3,0.6,0.3,0.8-0.1c0.5-0.7,0.9-1.4,0.7-2.3c-0.1-0.3,0.1-0.6,0.4-0.8c0.7-0.4,1.4-0.1,1.7,0.6
			c0.3,0.8,0.7,1.6,1,2.5c0.5,1.4,1.7,2.1,2.9,2.9c0.1,0.1,0.4,0.1,0.4,0c0.1-0.1,0.1-0.3,0.1-0.4c-0.2-0.4-0.3-0.8-0.6-1.2
			c-0.6-0.9-0.4-1.8,0.1-2.7c0.2-0.3,0.5-0.5,0.8-0.6c0.6-0.2,1.2-0.4,1.7-0.8c0.6-0.3,0.6-0.5,0.2-1c-0.3-0.4-0.4-0.9-0.3-1.4
			c0-0.2,0.1-0.4,0.2-0.4s0.3,0,0.5,0.1s0.3,0.3,0.4,0.5c0.4,0.4,0.9,0.5,1.4,0.3c0.6-0.3,0.8-0.9,0.6-1.7c-1.9-8-9.3-14-17.6-14.3
			c-3.7-0.1-7.2,0.7-10.4,2.6C53.7,62.5,53.6,62.6,53.4,62.7z M72,89.3c0.2,0.7,0.4,1.6,0.7,2.5c0.1,0.3,0.4,0.3,0.6,0.2
			c0.3-0.2,0.6-0.4,1-0.5c0.4-0.2,0.4-0.2,0.4,0.3c0,0.3,0.2,0.5,0.4,0.3c0.5-0.4,0.9-0.2,1.4,0c0.3,0.1,0.5,0.1,0.7-0.2
			c1.6-1.6,2.8-3.5,3.7-5.5c0.4-0.8,0.3-1.5-0.1-2.3c-0.3-0.5-0.4-0.6-0.9-0.2c-0.8,0.6-1.7,1-2.7,1.2s-2,0.5-2.9,0.8
			C72.9,86.2,72,87.6,72,89.3z M74.9,93.8c-0.3-0.1-0.5-0.2-0.7-0.3c-1-0.2-1.9-0.2-2.8,0.3c-0.5,0.3-1,0.6-1.4,1
			c-0.6,0.6-1.2,0.7-1.9,0.4c-0.2-0.1-0.5-0.2-0.8-0.3c-1-0.3-2-0.7-3-0.9c-1.5-0.4-3.1-0.5-4.6,0.1c-0.8,0.3-1.5,0.8-1.9,1.6
			c-0.3,0.6-0.1,1,0.5,1.2c4.3,1.1,8.5,0.8,12.6-0.9C72.4,95.5,73.6,94.8,74.9,93.8z M82,82.5c0-0.1,0.1-0.1,0.1-0.2
			c0.3-1.5,0.4-3.1,0.3-4.7c0-0.6-0.4-1.1-1-1.3c-0.2-0.1-0.4,0-0.6-0.1c0.1,0.2,0.2,0.4,0.3,0.5c0.2,0.3,0.2,0.6,0,1
			c-0.2,0.3-0.4,0.7-0.4,1.1c-0.1,1.3,0.4,2.4,1.2,3.4C81.8,82.4,81.9,82.5,82,82.5z M46,71.6L46,71.6c0.3,0,0.6,0,0.8-0.1
			s0.5-0.3,0.7-0.5c0.7-0.7,1.4-1.4,2.3-1.9c0.2-0.1,0.3-0.3,0.3-0.4s-0.3-0.3-0.4-0.4c-0.8-0.3-2,0.1-2.4,0.9
			c-0.3,0.6-0.6,1.2-0.9,1.8C46.1,71.2,46,71.4,46,71.6z M59.4,88.5c0.1,0,0.1,0,0.2,0c0.2-0.4,0.4-0.7,0.5-1.1
			c0.4-0.9,0.7-1.8,1-2.8c0-0.1,0.1-0.2,0.1-0.3c0-0.2,0-0.5-0.1-0.6s-0.5-0.1-0.6,0c-0.3,0.3-0.7,0.6-0.8,1c-0.2,1-0.3,2.1-0.5,3.2
			C59.3,88.2,59.4,88.4,59.4,88.5z M48.9,67.5c1-0.1,2-0.9,2.1-1.8c0.1-0.5-0.2-0.7-0.6-0.7c-0.5,0-0.9,0.2-1.1,0.6
			c-0.2,0.3-0.5,0.6-0.7,1c-0.1,0.2-0.2,0.4-0.2,0.5C48.5,67.3,48.7,67.4,48.9,67.5z M78.3,83.6c0.2-0.1,0.4,0,0.6-0.1
			c0.1-0.1,0.2-0.3,0.2-0.4c-0.1-0.5-0.5-0.7-1-0.8c-0.3-0.1-0.6,0.1-0.8,0.3c-0.3,0.3-0.2,0.5,0.1,0.7C77.7,83.4,78,83.5,78.3,83.6
			z M67.9,81.8c0.3-0.1,0.4-0.1,0.6-0.2c0.1,0,0.2-0.2,0.2-0.3c-0.1-0.5-0.5-0.7-0.9-0.8c-0.4-0.1-0.6,0.1-0.9,0.3
			c-0.2,0.3-0.2,0.5,0.1,0.7C67.3,81.6,67.6,81.7,67.9,81.8z M77.4,81.6c0.4,0,0.7-0.2,0.5-0.4c-0.3-0.3-0.6-0.7-0.9-0.9
			c-0.2-0.2-0.5,0.1-0.5,0.4C76.5,81.2,76.9,81.6,77.4,81.6z"/>
		<path class="st0" d="M28.4,23.1c1.8,0.8,2.5,2.3,2.7,4.1c0.2,1.7,0.1,3.4-0.5,5c-0.8,2.2-2.4,3.4-4.8,3.5c-0.8,0.1-1.7,0-2.5-0.1
			c-2.1-0.3-3.5-1.5-4.2-3.5c-0.4-1.3-0.5-2.6-0.5-3.9c0-0.2,0.1-0.3,0.3-0.3c1.3,0,2.5,0,3.8,0c0.3,0,0.4,0.1,0.4,0.4
			c0.1,0.8,0.1,1.5,0.2,2.3c0.2,1,0.7,1.4,1.7,1.4c0.8,0,1.3-0.3,1.5-1.2c0.1-0.8,0.2-1.7,0.2-2.5c0-0.7-0.2-1.3-0.3-2
			c-0.2-0.8-0.9-1.2-1.7-1.3c-0.3,0-0.6-0.1-0.9-0.1c-0.4,0-0.4-0.1-0.4-0.5c0-0.8,0-1.6,0-2.4c0-0.4,0.1-0.5,0.5-0.5
			c0.3,0,0.6,0,1-0.1c0.8-0.1,1.4-0.6,1.7-1.4c0.4-1.2,0.4-2.5,0-3.7c-0.2-0.9-0.7-1.2-1.7-1.2c-0.8,0-1.3,0.3-1.5,1.2
			c-0.2,0.8-0.2,1.6-0.2,2.4c0,0.5,0,0.5-0.6,0.5c-1.2,0-2.3,0-3.5,0c-0.3,0-0.5-0.1-0.4-0.4c0.1-1,0-2,0.2-2.9
			c0.5-2.5,2.5-4.1,5-4.3c1.1-0.1,2.2-0.1,3.3,0.2c1.8,0.5,3.1,1.7,3.7,3.5c0.5,1.5,0.5,3.1,0.1,4.6C30.5,21.5,29.9,22.3,28.4,23.1z
			"/>
		<path class="st0" d="M11.8,16.8c-1.1,0.4-2.2,0.8-3.3,1.2c0-0.6,0-1,0-1.5s0-1,0-1.5c0-0.3,0.1-0.4,0.3-0.5
			c1.1-0.6,2.3-1.1,3.3-1.9c0.6-0.4,1.1-0.6,1.8-0.6c0.6,0,1.3,0,1.9,0c0.4,0,0.5,0.1,0.5,0.5c0,3.8,0,7.6,0,11.4c0,3.7,0,7.3,0,11
			c0,0.4-0.1,0.5-0.5,0.5c-1.2,0-2.3,0-3.5,0c-0.5,0-0.5,0-0.5-0.5c0-5.8,0-11.7,0-17.5C11.8,17.2,11.8,17,11.8,16.8z"/>
		<path class="st0" d="M90.4,32.6c0.2-1,0.4-2,0.6-3c0.2-0.9,0.4-1.7,0.6-2.6c0.1-0.3,0.2-0.4,0.5-0.4c1.3,0,1.3,0,1.3,1.2
			c0,2.4,0.1,4.8,0.1,7.1c0,0.6,0,0.6-0.5,0.6c-0.9,0-0.7,0-0.7-0.7c0-1.6,0-3.2,0-4.8h-0.1c-0.1,0.5-0.2,1-0.3,1.5
			c-0.3,1.2-0.5,2.4-0.8,3.7c-0.1,0.3-0.2,0.5-0.5,0.4c-0.3,0-0.6,0-0.7-0.4c-0.3-1.7-0.7-3.5-1.1-5.2c0,0.1,0,0.2,0,0.4
			c0,1.6-0.1,3.2-0.1,4.8c0,0.3-0.1,0.4-0.4,0.4c-0.9,0-0.9,0.1-0.9-0.9c0-1.9,0.1-3.8,0.1-5.6c0-0.7,0-1.4,0.1-2.1
			c0-0.2,0.1-0.3,0.3-0.3c1.4-0.1,1.4-0.1,1.6,1.3C89.6,29.4,89.9,31,90.4,32.6C90.3,32.6,90.3,32.6,90.4,32.6z"/>
		<path class="st0" d="M46.5,31.1c0-0.6,0-1.3,0-1.9c0.1-2,1.1-2.8,3-2.6c1.3,0.1,2,0.8,2.1,2c0.1,1.7,0.1,3.4,0,5
			c-0.1,1.2-0.8,1.9-2,2.1c-0.5,0.1-1,0-1.4-0.1c-0.8-0.1-1.2-0.7-1.4-1.4c-0.1-0.4-0.2-0.8-0.2-1.3C46.5,32.3,46.5,31.7,46.5,31.1
			L46.5,31.1z M50,31.1L50,31.1c-0.1-0.9,0-1.7-0.1-2.6c0-0.5-0.4-0.7-0.8-0.7c-0.5,0-0.8,0.3-0.9,0.8c0,0.1,0,0.3,0,0.4
			c0,1.4,0,2.8,0,4.2c0,0.2,0,0.4,0.1,0.6c0.1,0.4,0.4,0.6,0.8,0.6c0.4,0,0.7-0.2,0.8-0.6C50,33.6,50,33.3,50,33
			C50,32.4,50,31.7,50,31.1z"/>
		<path class="st0" d="M61.4,16.5c0-0.9,0-1.7,0.1-2.5c0.1-1.2,0.8-1.8,1.9-1.9c0.5-0.1,1,0,1.5,0.1c0.7,0.1,1.1,0.6,1.4,1.2
			c0.1,0.4,0.3,0.8,0.3,1.3c0,1.4,0.1,2.9,0,4.3c-0.1,1.8-1.3,2.4-2.8,2.3c-1.5-0.1-2.2-0.9-2.3-2.6C61.4,17.9,61.4,17.2,61.4,16.5
			L61.4,16.5z M63.1,16.5L63.1,16.5c0,0.2,0,0.4,0,0.6c0,0.6,0,1.3,0,1.9c0,0.5,0.3,0.8,0.8,0.8c0.5,0,0.8-0.2,0.9-0.7
			c0-0.2,0.1-0.3,0.1-0.5c0-1.4,0-2.8,0-4.2c0-0.2,0-0.3-0.1-0.5c-0.1-0.6-0.6-0.9-1.1-0.7c-0.4,0.1-0.6,0.4-0.6,0.9
			C63.1,14.9,63.1,15.7,63.1,16.5z"/>
		<path class="st0" d="M57.9,35.6c-0.5,0-1,0-1.5,0c-0.1,0-0.2-0.2-0.3-0.4c-0.3-1.1-0.6-2.2-0.9-3.3c-0.1-0.2-0.1-0.4-0.4-0.4
			c-0.3,0-0.4,0.1-0.4,0.4c0,1.1,0,2.2,0,3.3c0,0.3-0.1,0.4-0.4,0.4c-0.3,0-0.6,0-0.9,0c-0.4,0-0.4-0.2-0.4-0.5c0-1.8,0-3.5,0-5.3
			c0-0.9,0-1.8,0-2.8c0-0.3,0.1-0.4,0.4-0.4c0.8,0,1.6,0,2.4,0.1c1.4,0.1,2.1,0.9,2.1,2.3c0,0.5-0.1,1.1-0.3,1.5
			c-0.1,0.3-0.4,0.5-0.7,0.8C57.1,32.6,57.5,34.1,57.9,35.6z M54.5,29.1c0,0.3,0,0.7,0,1c0,0.1,0.1,0.2,0.1,0.3
			c0.3,0.2,1.1,0,1.3-0.3c0.4-0.6,0.4-1.2,0.1-1.8c-0.2-0.5-0.8-0.5-1.2-0.5c-0.1,0-0.3,0.2-0.3,0.3C54.5,28.4,54.5,28.8,54.5,29.1z
			"/>
		<path class="st0" d="M69.1,16c0,1.5,0,3,0,4.5c0,0.4-0.1,0.5-0.5,0.5c-0.9,0-0.9,0-0.9-0.9c0-2.5,0-5,0-7.6c0-0.5,0-0.5,0.5-0.5
			s0.7,0.1,0.9,0.6c0.5,1.3,1.1,2.5,1.6,3.8c0.1,0.1,0.1,0.2,0.3,0.3c0-0.1,0-0.3,0-0.4c0-1.2,0-2.5,0-3.7c0-0.4,0.1-0.5,0.5-0.5
			c1.1,0,0.9-0.1,0.9,0.9c0,2.5,0,5,0,7.5c0,0.2,0.1,0.5-0.2,0.6c-0.6,0.1-0.9,0-1-0.3c-0.6-1.5-1.2-3-1.9-4.5
			C69.3,16.1,69.2,16.1,69.1,16C69.2,16,69.2,16,69.1,16z"/>
		<path class="st0" d="M54.2,16.5c0,0.8,0,1.6,0,2.4c0,0.6,0.3,0.9,0.9,0.9c0.4,0,0.7-0.2,0.7-0.6c0-0.3,0.1-0.7,0.1-1.1
			c0-0.5,0-0.5,0.5-0.5c0.1,0,0.2,0,0.3,0c0.8,0,0.8-0.1,0.8,0.8c0,0.1,0,0.2,0,0.4c-0.1,0.9-0.3,1.7-1.1,2.1c-1,0.4-2,0.4-2.9-0.2
			c-0.5-0.4-0.8-0.9-0.8-1.5c-0.1-1.6-0.1-3.3,0-4.9c0.1-1.7,1.1-2.5,3.1-2.3c1.1,0.1,1.6,0.7,1.8,1.7c0.1,0.4,0.1,0.9,0.1,1.3
			c0,0.1-0.2,0.3-0.3,0.3c-0.3,0-0.6,0-1,0c-0.2,0-0.3-0.1-0.3-0.3c0-0.4,0-0.7-0.1-1.1c0-0.5-0.3-0.7-0.7-0.7s-0.8,0.2-0.9,0.6
			c-0.1,0.3-0.1,0.5-0.1,0.8C54.1,15.2,54.2,15.9,54.2,16.5L54.2,16.5z"/>
		<path class="st0" d="M48.2,16.5c0,0.8,0,1.6,0,2.4c0,0.7,0.3,1,0.9,1c0.4,0,0.7-0.2,0.7-0.6c0.1-0.4,0.1-0.8,0.1-1.2
			c0-0.3,0.1-0.4,0.4-0.4c0.1,0,0.1,0,0.2,0c1.2,0,1-0.2,1,1c0,0.2,0,0.4-0.1,0.6c-0.2,1.1-0.8,1.7-1.9,1.8c-0.4,0-0.8,0-1.2-0.1
			c-1-0.2-1.5-0.9-1.7-1.9c-0.1-0.4-0.1-0.9-0.1-1.3c0-1.2,0-2.4,0-3.5c0.1-1.8,1.2-2.5,3-2.3c1.2,0.1,1.8,0.8,1.9,2
			c0,0.3,0,0.7,0,1c0,0.2-0.1,0.3-0.3,0.3c-0.3,0-0.6,0-0.9,0c-0.3,0-0.4-0.1-0.4-0.4c0-0.4,0-0.7,0-1.1c0-0.4-0.3-0.6-0.7-0.7
			c-0.4,0-0.8,0.2-0.9,0.6c-0.1,0.2-0.1,0.4-0.1,0.6C48.2,15.1,48.2,15.8,48.2,16.5L48.2,16.5z"/>
		<path class="st0" d="M73.5,31.1c0-0.7,0-1.4,0-2.1c0.1-1.8,1.2-2.7,2.9-2.5c1.3,0.2,1.9,0.8,2,2.1c0,0.3,0,0.6,0,0.9
			c0,0.2-0.1,0.3-0.3,0.3c-0.3,0-0.7,0-1,0s-0.4-0.1-0.3-0.4c0-0.3,0-0.7,0-1c0-0.5-0.3-0.7-0.7-0.8c-0.5,0-0.8,0.2-0.9,0.7
			c0,0.2-0.1,0.3-0.1,0.5c0,1.6,0,3.1,0,4.7c0,0.4,0.2,0.7,0.6,0.8c0.6,0.1,1-0.2,1-0.8c0-0.3,0-0.7,0-1s0.1-0.4,0.4-0.4
			c0.1,0,0.1,0,0.2,0c1.1,0,1.1,0,1,1.1c0,0.2,0,0.4-0.1,0.6c-0.2,1-0.7,1.6-1.8,1.7c-0.4,0.1-0.9,0-1.4,0c-1.1-0.2-1.7-1.1-1.7-2.3
			C73.5,32.6,73.5,31.8,73.5,31.1L73.5,31.1z"/>
		<path class="st0" d="M40.5,21c0.3-1.6,0.6-3.1,0.9-4.7c0.3-1.3,0.5-2.6,0.8-3.9c0.1-0.3,0.2-0.5,0.5-0.4c0.3,0,0.7,0,1,0
			s0.4,0.1,0.4,0.4c0.4,1.8,0.7,3.7,1.1,5.5c0.2,0.9,0.4,1.7,0.5,2.6c0,0.1,0,0.3,0.1,0.5c-0.5,0-0.9,0-1.3,0
			c-0.1,0-0.2-0.2-0.3-0.3c-0.1-0.5-0.2-0.9-0.2-1.4c0-0.3-0.2-0.4-0.4-0.4c-1.1,0-1.1,0-1.3,1.1c-0.2,1-0.2,1-1.2,1
			C40.9,21,40.7,21,40.5,21z M42.6,17.8c0.4,0,0.7,0,1.1,0c-0.2-1.1-0.3-2.1-0.5-3.1h-0.1C43,15.7,42.8,16.7,42.6,17.8z"/>
		<path class="st0" d="M99.6,35.6c-0.5,0-0.9,0-1.3,0c-0.1,0-0.2-0.2-0.3-0.3c-0.1-0.5-0.2-1-0.3-1.4c0-0.2-0.1-0.3-0.3-0.3
			c-1.2-0.1-1.2-0.1-1.4,1.1c-0.2,1-0.2,1-1.2,1c-0.2,0-0.3,0-0.6,0c0.1-0.7,0.3-1.4,0.4-2.1c0.4-2.1,0.9-4.2,1.3-6.3
			c0.1-0.4,0.2-0.5,0.6-0.5c1.3,0,1.3,0,1.5,1.2c0.5,2.4,1,4.9,1.5,7.3C99.6,35.2,99.6,35.4,99.6,35.6z M97,29.2
			C97,29.2,96.9,29.2,97,29.2c-0.3,1-0.4,2.1-0.6,3.1c0.4,0,0.7,0,1.1,0C97.3,31.3,97.2,30.3,97,29.2z"/>
		<path class="st0" d="M40.9,31.1c0-1.3,0-2.7,0-4c0-0.3,0.1-0.5,0.5-0.5c0.9,0,1.8,0,2.7,0.1s1.5,0.6,1.6,1.5
			c0.1,0.6,0.1,1.2,0.1,1.8c-0.1,1-0.8,1.5-1.8,1.6c-0.3,0-0.6,0.1-0.9,0.1c-0.3,0-0.5,0.1-0.4,0.4c0,1,0,2,0,3
			c0,0.4-0.1,0.5-0.5,0.5c-0.3,0-0.5,0-0.8,0S41,35.5,41,35.2C40.9,33.8,40.9,32.4,40.9,31.1z M42.6,29.1c0,0.3,0,0.7,0,1
			c0,0.1,0.1,0.3,0.2,0.3c0.3,0,0.7,0,1-0.1c0.4-0.2,0.5-0.6,0.5-1c0-0.5,0.1-1.1-0.4-1.3c-0.3-0.1-0.6-0.1-0.9-0.1
			c-0.2,0-0.3,0.1-0.3,0.3C42.6,28.4,42.6,28.8,42.6,29.1z"/>
		<path class="st0" d="M61.6,31.1c0-1.3,0-2.7,0-4c0-0.3,0.1-0.5,0.5-0.5c1,0,1.9,0,2.9,0c0.3,0,0.5,0.1,0.5,0.4
			c0,0.9,0.1,0.8-0.8,0.8c-0.3,0-0.7,0-1,0c-0.2,0-0.3,0.1-0.3,0.3c0,0.6,0,1.3,0,1.9c0,0.2,0.1,0.3,0.3,0.3c0.4,0,0.7,0,1.1,0
			c0.1,0,0.2,0.2,0.3,0.3l0,0c0,1.1,0.1,0.9-0.8,0.9c-1,0-0.8-0.1-0.9,0.9c0,0.5,0,1,0,1.5c0,0.3,0.1,0.5,0.4,0.4c0.4,0,0.9,0,1.3,0
			c0.3,0,0.4,0.1,0.4,0.4c0,0.8,0,0.8-0.8,0.8c-0.9,0-1.7,0-2.6,0c-0.3,0-0.5-0.1-0.5-0.5C61.6,33.8,61.6,32.4,61.6,31.1z"/>
		<path class="st0" d="M79.5,31.1c0-1.3,0-2.7,0-4c0-0.4,0.1-0.5,0.5-0.5c1.2,0,1.2,0,1.2,1.2c0,2,0,4,0,6.1c0,0.5,0,0.5,0.5,0.5
			c0.4,0,0.8,0,1.2,0c0.3,0,0.4,0.1,0.4,0.3c0,1,0.1,0.8-0.8,0.8c-0.8,0-1.7,0-2.5,0c-0.4,0-0.5-0.1-0.5-0.5
			C79.6,33.7,79.5,32.4,79.5,31.1z"/>
		<path class="st0" d="M66.3,31.1c0-1.3,0-2.7,0-4c0-0.4,0.1-0.5,0.5-0.5c1.2,0,1.2,0,1.2,1.2c0,2.1,0,4.1,0,6.2
			c0,0.4,0.1,0.5,0.5,0.5s0.9,0,1.3,0c0.2,0,0.3,0.1,0.3,0.3c0,0.8,0,0.8-0.8,0.8c-0.9,0-1.7,0-2.6,0c-0.3,0-0.4-0.1-0.4-0.4
			C66.3,33.8,66.3,32.4,66.3,31.1z"/>
		<path class="st0" d="M84.2,31.1c0-1.4,0-2.7,0-4.1c0-0.3,0.1-0.5,0.4-0.4c0.3,0,0.6,0,0.9,0c0.2,0,0.3,0.1,0.3,0.3
			c0,2.8,0,5.5,0,8.3c0,0.2-0.1,0.3-0.3,0.3c-1.3,0.1-1.3,0.1-1.3-1.2C84.2,33.3,84.2,32.2,84.2,31.1z"/>
		<path class="st0" d="M58.6,16.5c0-1.3,0-2.7,0-4c0-0.4,0.1-0.5,0.5-0.5c0.2,0,0.4,0,0.6,0c0.4,0,0.5,0.1,0.5,0.5
			c0,2.1,0,4.2,0,6.3c0,0.6,0,1.2,0,1.7c0,0.3-0.1,0.4-0.4,0.4c-1.3,0-1.3,0-1.3-1.2C58.6,18.7,58.6,17.6,58.6,16.5z"/>
		<path class="st0" d="M63.6,11.3c0.2-0.7,0.4-1.3,0.6-2c0-0.1,0.2-0.1,0.2-0.1c0.4,0,0.8,0,1.3,0c-0.1,0.2-0.2,0.4-0.3,0.6
			c-0.2,0.4-0.5,0.8-0.7,1.1C64.4,11.4,64.3,11.4,63.6,11.3z"/>
	</g>
</g>
</svg>
