<?xml version="1.0" encoding="utf-8"?>
<!-- Generator: Adobe Illustrator 24.3.0, SVG Export Plug-In . SVG Version: 6.00 Build 0)  -->
<svg version="1.1" id="Layer_1" xmlns="http://www.w3.org/2000/svg" xmlns:xlink="http://www.w3.org/1999/xlink" x="0px" y="0px"
	 viewBox="0 0 125 125" style="enable-background:new 0 0 125 125;" xml:space="preserve">
<style type="text/css">
	.st0{fill:#0A97D9;}
</style>
<g>
	<g>
		<path class="st0" d="M44.8,95.3c-0.7,1.1-1.4,2.1-2.1,3.1c-2.3,3.1-5.2,5.5-8.8,6.9c-1.3,0.5-2.6,0.8-3.9,0.9c-0.1,0-0.2,0-0.3,0
			c-0.5,0-0.6-0.3-0.4-0.7c0.6-1,1.1-2,1.6-3.1c1.4-2.9,2.4-5.8,2.8-9c0.4-2.8,0-5.5-0.7-8.2c-0.8-2.9-2-5.6-3.5-8.2
			c-0.1-0.2-0.3-0.6-0.2-0.8c0.1-0.4,0.5-0.2,0.8-0.2c3.5,0.4,6.5,1.9,9.2,4.2c2.1,1.8,3.9,4,5.3,6.5c0,0.1,0.1,0.1,0.1,0.2
			c0,0,0,0,0.1,0.1c0.2-0.1,0.4-0.3,0.6-0.4C49.9,83,54.7,80.1,60,78c2.7-1,5.5-1.8,8.4-2c3.5-0.2,6.9,0.3,10.1,1.5
			c4.1,1.5,7.7,3.9,10.9,6.7c2.2,1.9,4.2,4,5.9,6.3c0.4,0.5,0.4,0.5,0,1c-3.8,4.8-8.2,8.8-13.6,11.7c-3.8,2-7.8,3.1-12.1,3
			c-3-0.1-5.9-0.7-8.7-1.7c-4.8-1.7-9.2-4.3-13.4-7.2c-0.8-0.6-1.6-1.2-2.4-1.8C45,95.4,44.9,95.4,44.8,95.3z M81.8,88.7
			c0-2.2-1.8-4.1-4.1-4.1c-2.2,0-4.1,1.9-4.1,4.1c0,2.3,1.8,4.1,4.1,4C80,92.7,81.8,90.9,81.8,88.7z"/>
		<path class="st0" d="M95.1,53.9c0,0.4,0,0.8,0,1.1c0,0.3-0.1,0.5-0.3,0.7c-1.6,1.3-3.5,2.3-5.6,2.4c-1.6,0.1-3.2-0.2-4.7-0.9
			c-1.5-0.7-2.8-1.6-4-2.7c-0.5-0.4-0.5-0.4-1,0c-1.3,1.2-2.7,2.1-4.3,2.7c-2.6,1-5.2,0.8-7.8-0.1c-1.8-0.6-3.4-1.5-4.8-2.7
			c-0.3-0.3-0.5-0.3-0.8,0c-2.1,1.7-4.5,2.9-7.2,3.4c-3.1,0.5-5.9-0.3-8.4-2.1c-0.5-0.3-0.9-0.7-1.4-1.1c-0.5-0.4-0.5-0.4-1,0
			c-1.4,1.3-2.9,2.3-4.7,3c-3.2,1.2-6.2,0.7-8.9-1.3c-1-0.7-1-0.8-1-2c0-0.5,0-1,0-1.5c0-0.7,0.2-0.8,0.8-0.5c2,0.9,4,1.5,6.2,1.4
			c2.7-0.1,5-1,7.1-2.7c0.3-0.2,0.6-0.5,0.8-0.7c0.3-0.3,0.5-0.3,0.8,0c2.3,1.7,4.8,2.9,7.6,3.2c3.2,0.4,6-0.5,8.4-2.5
			c0.3-0.2,0.5-0.4,0.7-0.6c0.4-0.3,0.5-0.3,0.9,0c1.5,1.4,3.3,2.4,5.3,2.9c2.4,0.6,4.8,0.2,7.1-0.6c1.6-0.6,3.1-1.4,4.4-2.5
			c0.3-0.2,0.5-0.1,0.7,0.1c1.1,1,2.2,1.8,3.5,2.4c3.5,1.5,6.9,1.2,10.4-0.3c0.2-0.1,0.3-0.2,0.5-0.2c0.4-0.2,0.6,0,0.6,0.4
			C95.1,53,95.1,53.4,95.1,53.9C95.1,53.9,95.1,53.9,95.1,53.9z"/>
		<path class="st0" d="M95.1,64c0,0.2,0,0.3,0,0.5c0.2,0.9-0.3,1.4-0.9,1.9c-1.7,1.2-3.5,2-5.6,2c-1.8,0-3.4-0.5-5-1.4
			c-1.1-0.6-2.2-1.4-3.1-2.3c-0.4-0.4-0.5-0.4-0.9,0c-1.6,1.5-3.4,2.6-5.5,3.1c-2.9,0.7-5.6,0.2-8.2-1.1c-1.2-0.6-2.3-1.4-3.4-2.1
			c-0.3-0.2-0.5-0.1-0.8,0.1c-1.9,1.5-4,2.6-6.3,3.2c-3.8,0.9-7.1-0.1-10.1-2.5c-0.2-0.2-0.5-0.4-0.7-0.6c-0.3-0.3-0.5-0.3-0.8,0
			c-1.2,1.1-2.5,2-3.9,2.7c-3.8,1.7-7.4,1.1-10.5-1.6c-0.1-0.1-0.2-0.3-0.2-0.5c0-0.8,0-1.7,0-2.5c0-0.5,0.2-0.6,0.7-0.4
			c1.5,0.7,3.1,1.2,4.8,1.4c3.1,0.3,5.9-0.5,8.4-2.4c0.4-0.3,0.8-0.6,1.2-1c0.3-0.3,0.5-0.2,0.8,0c2.3,1.7,4.9,2.9,7.7,3.2
			c3,0.3,5.7-0.5,8-2.3c0.3-0.3,0.7-0.6,1-0.8c0.4-0.3,0.5-0.3,0.9,0c1.6,1.4,3.3,2.5,5.4,2.9c2.4,0.5,4.8,0.2,7.1-0.7
			c1.6-0.6,3-1.4,4.3-2.4c0.3-0.2,0.5-0.1,0.8,0.1c1.4,1.3,3,2.3,4.8,2.9c3.2,1,6.2,0.6,9.2-0.8c0.9-0.4,1-0.3,1,0.6
			C95.1,63.4,95.1,63.7,95.1,64z"/>
		<path class="st0" d="M29.4,19.3c0,2.2,0,4.4,0,6.7c0,0.4,0.1,0.6,0.5,0.5c0.5,0,1,0,1.5,0c0.2,0,0.3,0.1,0.3,0.3
			c0,0.9,0,1.8,0,2.7c0,0.2-0.1,0.3-0.3,0.3c-0.5,0-1,0-1.5,0c-0.4,0-0.5,0.1-0.5,0.5c0,1.5,0,3,0,4.5c0,0.5,0,0.6-0.5,0.6
			c-1,0-2,0-3,0c-0.4,0-0.5-0.1-0.5-0.5c0-1.5,0-3,0-4.5c0-0.4-0.1-0.5-0.5-0.5c-2,0-4,0-6,0c-0.6,0-0.6,0-0.6-0.6c0-0.3,0-0.7,0-1
			c-0.1-1.3,0.2-2.5,0.7-3.7c1.7-4,3.4-8,5.1-12c0.2-0.4,0.4-0.6,0.8-0.5c1.3,0,2.7,0,4,0c0.4,0,0.5,0.1,0.5,0.5
			C29.4,14.8,29.4,17.1,29.4,19.3z M21.8,26.5c0.2,0,0.4,0,0.5,0c0.8,0,1.6,0,2.4,0c0.5,0,0.5,0,0.5-0.5c0-2.9,0-5.9,0-8.8
			c0-0.1,0-0.2,0-0.3c0,0,0,0-0.1,0C24.1,20.1,23,23.2,21.8,26.5z"/>
		<path class="st0" d="M11.9,16.8c-1.1,0.4-2.2,0.8-3.3,1.2c0-0.4,0-0.7,0-1.1c0-0.6,0-1.2,0-1.9c0-0.3,0.1-0.4,0.4-0.5
			c1.1-0.6,2.3-1.1,3.3-1.9c0.6-0.4,1.1-0.6,1.8-0.6c0.6,0,1.2,0,1.9,0c0.5,0,0.5,0,0.5,0.5c0,4.4,0,8.9,0,13.3c0,3,0,6,0,9
			c0,0.5,0,0.5-0.5,0.5c-1.2,0-2.3,0-3.5,0c-0.4,0-0.5-0.1-0.5-0.5c0-5.8,0-11.7,0-17.5C11.9,17.2,11.9,17,11.9,16.8z"/>
		<path class="st0" d="M60.4,32.6c0.3-1.5,0.7-3.1,1-4.6c0-0.2,0.1-0.5,0.1-0.7c0.2-0.8,0-0.7,0.9-0.7c1,0,0.9-0.2,0.9,0.9
			c0,2.5,0.1,4.9,0.1,7.4c0,0.2-0.1,0.5-0.1,0.5c-0.3,0.1-0.7,0-1,0c0,0-0.1-0.3-0.1-0.4c0-1.6-0.1-3.2-0.1-4.8c0-0.1,0-0.3-0.1-0.4
			c-0.2,1-0.4,2.1-0.7,3.1c-0.1,0.7-0.3,1.4-0.4,2.1c-0.1,0.4-0.3,0.5-0.6,0.5c-0.3,0-0.5-0.1-0.6-0.4c-0.3-1.6-0.7-3.2-1-4.7
			c0-0.1-0.1-0.3-0.1-0.4c0,0-0.1,0-0.1,0c0,0.5,0,1.1,0,1.6c0,1.2,0,2.3,0,3.5c0,0.4-0.1,0.5-0.5,0.5c-0.9,0-0.8,0.1-0.8-0.8
			c0-2.3,0.1-4.6,0.1-6.9c0-0.1,0-0.3,0-0.4c0.1-0.7,0.1-0.7,0.8-0.7c1,0,0.8-0.1,1,0.8c0.3,1.6,0.7,3.2,1,4.8
			C60.3,32.4,60.3,32.5,60.4,32.6C60.4,32.6,60.4,32.6,60.4,32.6z"/>
		<path class="st0" d="M55.3,30.8c1.1,0.6,1.5,1.6,1.2,3c-0.3,1.1-1.1,1.7-2.3,1.7c-0.7,0-1.5,0-2.2,0c-0.3,0-0.5-0.1-0.5-0.4
			c0-2.7,0-5.4,0-8.1c0-0.3,0.1-0.4,0.4-0.4c0.8,0,1.7,0,2.5,0.1c1.7,0.1,2.6,2.1,1.6,3.5C55.8,30.4,55.5,30.6,55.3,30.8z
			 M53.1,32.9C53.1,32.9,53.1,32.9,53.1,32.9c0,0.4,0,0.8,0,1.2c0,0.1,0.1,0.3,0.2,0.3c1,0.1,1.6-0.1,1.7-1.2c0-0.1,0-0.2,0-0.3
			c0-1-0.5-1.4-1.5-1.4c-0.3,0-0.4,0.1-0.4,0.4C53.1,32.2,53.1,32.6,53.1,32.9z M53.1,29c0,0.3,0,0.6,0,0.9c0,0.1,0.1,0.3,0.1,0.3
			c0.6,0.3,1.4-0.2,1.5-0.8c0-0.3,0.1-0.6,0-0.9c-0.1-0.2-0.3-0.5-0.5-0.6c-0.3-0.1-0.7-0.1-1-0.1c-0.1,0-0.2,0.2-0.2,0.3
			C53.1,28.4,53.1,28.7,53.1,29z"/>
		<path class="st0" d="M48.6,16.5c0-1.3,0-2.7,0-4c0-0.3,0.1-0.5,0.4-0.4c0.8,0,1.7,0,2.5,0.1c1.2,0.1,1.9,0.8,2,1.9
			c0.1,1.6,0.1,3.2,0,4.8c-0.1,1.3-0.8,2-2.1,2.1c-0.8,0-1.6,0-2.4,0c-0.3,0-0.3-0.2-0.3-0.4C48.6,19.2,48.6,17.9,48.6,16.5z
			 M50.2,16.5c0,1,0,2,0,2.9c0,0.3,0.1,0.4,0.4,0.4c0.8,0,1.1-0.3,1.1-1.2c0-1.4,0-2.9,0-4.4c0-0.8-0.3-1.1-1.1-1.1
			c-0.4,0-0.5,0.1-0.5,0.5C50.2,14.6,50.2,15.6,50.2,16.5z"/>
		<path class="st0" d="M81.6,31.3c0-0.1,0-0.3,0-0.4c0-1.2,0-2.5,0-3.7c0-0.3,0.1-0.5,0.5-0.5c1.1,0,1-0.1,1,0.9c0,2.5,0,4.9,0,7.4
			c0,0.2,0.2,0.5-0.2,0.6c-0.6,0.1-0.9,0-1-0.4c-0.6-1.4-1.2-2.8-1.8-4.2c-0.1-0.1-0.1-0.2-0.2-0.4c0,0.1,0,0.3,0,0.4
			c0,1.4,0,2.7,0,4.1c0,0.4-0.1,0.5-0.5,0.5c-1.1,0-0.9,0.1-0.9-0.9c0-2.5,0-5,0-7.5c0-0.2-0.1-0.5,0.2-0.5c0.5-0.1,0.9,0,1.1,0.3
			c0.6,1.4,1.2,2.7,1.8,4.1c0,0.1,0.1,0.2,0.1,0.3C81.5,31.3,81.6,31.3,81.6,31.3z"/>
		<path class="st0" d="M74.9,35.5c-0.5,0-1,0-1.5,0c-0.1,0-0.2-0.2-0.3-0.4c-0.3-1.1-0.6-2.2-0.9-3.3c-0.1-0.2-0.1-0.4-0.4-0.4
			c-0.3,0-0.4,0.1-0.4,0.4c0,1.1,0,2.2,0,3.3c0,0.3-0.1,0.5-0.4,0.4c-0.3,0-0.5,0-0.8,0c-0.4,0-0.5-0.1-0.5-0.5c0-2.2,0-4.4,0-6.7
			c0-0.5,0-1,0-1.5c0-0.2,0.1-0.3,0.3-0.3c0.9,0,1.7,0,2.6,0.1c1.3,0.1,2,0.9,2,2.2c0,0.5-0.1,1-0.2,1.4c-0.1,0.2-0.3,0.5-0.5,0.7
			c-0.3,0.2-0.3,0.4-0.2,0.6c0.3,1.1,0.6,2.3,1,3.4C74.8,35.2,74.8,35.3,74.9,35.5z M71.5,29.1c0,0.3,0,0.7,0,1
			c0,0.1,0.1,0.2,0.2,0.3c0.6,0.2,1.3-0.2,1.5-0.8c0.1-0.2,0.1-0.5,0-0.8c-0.1-0.9-0.6-1.1-1.5-1c-0.1,0-0.2,0.2-0.2,0.3
			C71.5,28.4,71.5,28.8,71.5,29.1z"/>
		<path class="st0" d="M47.2,30.2c0,1,0,2,0,3c0,0.3,0.1,0.5,0.1,0.8c0.1,0.4,0.4,0.5,0.8,0.5c0.4,0,0.6-0.2,0.7-0.5
			c0.1-0.3,0.1-0.7,0.1-1c0-1.9,0-3.8,0-5.7c0-0.4,0.1-0.5,0.5-0.5c1.1,0,1.1,0,1.1,1.1c0,1.7,0,3.4,0,5.1c0,0.5-0.1,1.1-0.3,1.6
			c-0.2,0.6-0.6,0.9-1.1,1.1c-0.7,0.2-1.5,0.2-2.2,0c-0.8-0.3-1.1-0.9-1.3-1.7c-0.1-0.3-0.1-0.7-0.1-1c0-1.9,0-3.8,0-5.7
			c0-0.3,0.1-0.5,0.5-0.5c1.2,0,1.2,0,1.2,1.1C47.1,28.5,47.1,29.4,47.2,30.2C47.2,30.2,47.2,30.2,47.2,30.2z"/>
		<path class="st0" d="M59,21c-0.4,0-0.9,0-1.3,0c-0.1,0-0.2-0.2-0.2-0.3c-0.1-0.4-0.2-0.9-0.2-1.4c0-0.3-0.2-0.4-0.4-0.4
			c-1.4,0-1.1-0.2-1.3,1.1c-0.2,1.2,0,0.9-1.1,1c-0.2,0-0.3,0-0.6,0c0-0.2,0.1-0.4,0.1-0.5c0.5-2.6,1.1-5.3,1.6-7.9
			c0.1-0.3,0.2-0.5,0.6-0.5c0.3,0,0.6,0,0.9,0c0.2,0,0.4,0.1,0.4,0.3c0.6,2.8,1.1,5.5,1.7,8.3C59,20.7,59,20.8,59,21z M57,17.7
			c-0.2-1.1-0.3-2.1-0.5-3.2c-0.2,0.8-0.3,1.6-0.5,2.4c-0.2,0.9-0.1,1,0.9,0.9C56.9,17.8,56.9,17.8,57,17.7z"/>
		<path class="st0" d="M83.5,35.6c0.2-1.1,0.4-2,0.6-3c0.4-1.8,0.8-3.7,1.1-5.5c0.1-0.3,0.2-0.5,0.5-0.5c1.3,0,1.3,0,1.5,1.3
			c0.5,2.4,1,4.8,1.5,7.2c0.1,0.5,0.1,0.5-0.4,0.5c-1,0-1,0-1.2-1c-0.2-1.1-0.2-1-1.3-1.1c-0.3,0-0.5,0.1-0.5,0.4
			c0,0.4-0.1,0.8-0.2,1.2c0,0.3-0.1,0.4-0.4,0.4C84.3,35.5,84,35.6,83.5,35.6z M86.8,32.4c-0.2-1.1-0.4-2.2-0.5-3.3
			c-0.2,1-0.4,2-0.6,2.9c0,0.1,0.1,0.4,0.2,0.4C86.1,32.5,86.4,32.4,86.8,32.4z"/>
		<path class="st0" d="M64,35.6c0.2-1.2,0.5-2.3,0.7-3.4c0.3-1.7,0.7-3.4,1-5.1c0.1-0.3,0.2-0.5,0.5-0.4c0.1,0,0.1,0,0.2,0
			c1.3,0,1-0.2,1.3,1c0.5,2.5,1,4.9,1.5,7.4c0.1,0.5,0.1,0.5-0.4,0.5c-1,0-1,0-1.2-1c-0.2-1.1-0.2-1-1.3-1.1c-0.3,0-0.5,0.1-0.5,0.4
			c0,0.4-0.1,0.8-0.2,1.2c0,0.4-0.2,0.5-0.6,0.5C64.7,35.5,64.4,35.6,64,35.6z M66.7,29.1C66.7,29.1,66.7,29.1,66.7,29.1
			c-0.2,1-0.4,2-0.6,3c0,0.1,0.1,0.3,0.1,0.3c0.2,0,0.5,0,0.8,0c0.1,0,0.2-0.2,0.1-0.2C67,31.2,66.9,30.1,66.7,29.1z"/>
		<path class="st0" d="M41.7,32.7c0,0.3,0.1,0.5,0.1,0.8c0.1,0.2,0.2,0.5,0.3,0.7c0.2,0.3,0.6,0.4,0.9,0.2c0.2-0.1,0.4-0.4,0.4-0.7
			c0.1-0.5-0.1-1-0.5-1.4c-0.5-0.5-1.1-0.9-1.6-1.4c-0.5-0.5-0.9-1-1-1.8c-0.2-1.7,0.9-2.8,2.6-2.6c1.2,0.1,1.9,1,1.9,2.2
			c0,0.1-0.2,0.2-0.3,0.3c0,0-0.1,0-0.2,0c-0.3,0-0.6,0.2-0.8,0.1c-0.2-0.1-0.2-0.5-0.2-0.7c-0.1-0.5-0.4-0.7-0.9-0.6
			c-0.4,0.1-0.6,0.4-0.6,0.9c0,0.4,0.2,0.8,0.6,1c0.5,0.4,0.9,0.8,1.4,1.2c0.7,0.6,1.2,1.3,1.2,2.3c0.1,1.2-0.6,2.2-1.8,2.4
			c-1.9,0.3-2.8-0.8-2.9-2.5c0-0.1,0.1-0.3,0.2-0.3C40.9,32.8,41.3,32.7,41.7,32.7z"/>
		<path class="st0" d="M40.1,12.1c0.5,0,0.9,0,1.3,0c0.1,0,0.2,0.2,0.2,0.4c0.3,1.7,0.7,3.5,1,5.2c0,0.1,0.1,0.2,0.2,0.3
			c0.2-0.9,0.3-1.9,0.5-2.8c0.2-0.9,0.3-1.8,0.5-2.7c0-0.3,0.2-0.4,0.4-0.4c0.3,0,0.7,0,1.1,0c-0.1,0.5-0.2,1-0.3,1.4
			c-0.5,2.3-1,4.7-1.4,7C43.5,20.9,43.4,21,43,21c-1.1,0-1.1,0-1.3-1.1c-0.5-2.4-1-4.9-1.5-7.3C40.2,12.4,40.1,12.3,40.1,12.1z"/>
		<path class="st0" d="M77.3,31.1c0,1.3,0,2.7,0,4c0,0.3-0.1,0.5-0.5,0.5c-1.2,0-1.2,0-1.2-1.2c0-2.4,0-4.8,0-7.2
			c0-0.4,0.1-0.6,0.5-0.5c0.2,0,0.5,0,0.7,0c0.3,0,0.4,0.1,0.4,0.4C77.3,28.4,77.3,29.7,77.3,31.1z"/>
		<path class="st0" d="M45.9,16.5c0-1.3,0-2.7,0-4c0-0.4,0.1-0.5,0.5-0.5c1.1,0,1.1,0,1.1,1.1c0,2.4,0,4.9,0,7.3
			c0,0.5,0,0.5-0.5,0.5c-1.1,0-1.1,0-1.1-1.1C45.9,18.8,45.9,17.7,45.9,16.5z"/>
	</g>
</g>
</svg>
