<?xml version="1.0" encoding="utf-8"?>
<!-- Generator: Adobe Illustrator 24.3.0, SVG Export Plug-In . SVG Version: 6.00 Build 0)  -->
<svg version="1.1" id="Layer_1" xmlns="http://www.w3.org/2000/svg" xmlns:xlink="http://www.w3.org/1999/xlink" x="0px" y="0px"
	 viewBox="0 0 125 125" style="enable-background:new 0 0 125 125;" xml:space="preserve">
<style type="text/css">
	.st0{fill:#56C02B;}
</style>
<g>
	<g>
		<path class="st0" d="M40.1,75c-0.5-0.5-1-0.9-1.4-1.4c-1.5-1.8-1.8-3.8-0.8-5.9c1-2.1,2.7-3.2,5-3.4c0.4,0,0.5-0.1,0.6-0.5
			c0.4-3.4,3.4-6.2,6.9-6.5c4.7-0.4,8.6,3.3,8.4,8c0,0.8-0.4,1.7-0.6,2.5c0,0.1-0.1,0.2-0.1,0.4c0.2,0.1,0.3,0.1,0.4,0.1
			c3.9,1.1,6.4,4.7,6.2,8.8c-0.2,4.2-3.7,7.8-7.9,8.1c-1,0.1-2.1,0-3.1,0c-3,0-5.9,0-8.9,0c-2.6,0-4.9-1.6-5.8-4
			c-0.8-2.1-0.4-4.1,0.9-5.9C39.9,75.2,40,75.1,40.1,75z"/>
		<path class="st0" d="M61.9,109.1c-8.5,0-17.1,0-25.6,0c-0.8,0-0.8,0-0.8-0.8c0-0.8,0-1.6,0-2.4c0-0.4,0.2-0.6,0.5-0.5
			c0.1,0,0.2,0,0.4,0c17,0,34,0,51,0c0.9,0,0.9,0,0.9,0.9c0,0.7,0,1.5,0,2.2c0,0.6,0,0.6-0.6,0.6c-6.9,0-13.9,0-20.8,0
			C65.3,109.1,63.6,109.1,61.9,109.1z"/>
		<path class="st0" d="M61.9,102.7c-8.6,0-17.2,0-25.7,0c-0.7,0-0.7,0-0.7-0.7c0-0.8,0-1.7,0-2.5c0-0.5,0.1-0.5,0.6-0.5
			c0.1,0,0.2,0,0.4,0c17,0,34.1,0,51.1,0c0.8,0,0.8,0,0.8,0.8c0,0.8,0,1.6,0,2.4c0,0.4-0.1,0.5-0.5,0.5c-1.3,0-2.6,0-3.9,0
			C76.6,102.7,69.3,102.7,61.9,102.7z"/>
		<path class="st0" d="M23.2,20.9c0.8-0.5,1.6-0.8,2.4-0.9c2.5-0.4,4.3,0.7,5.2,3c0.6,1.7,0.7,3.4,0.6,5.2c0,1.1-0.1,2.1-0.3,3.1
			c-0.5,2.7-2.2,4.2-4.9,4.4c-0.9,0.1-1.8,0-2.7-0.1c-2.2-0.3-3.6-1.6-4-3.9c-0.2-0.9-0.2-1.9-0.3-2.8c0-0.2,0.1-0.3,0.3-0.3
			c1.2,0,2.5,0,3.7,0c0.3,0,0.3,0.1,0.4,0.4c0.1,0.8,0.1,1.5,0.3,2.3c0.2,0.9,0.9,1.3,1.9,1.2c0.5-0.1,0.9-0.3,1-0.7
			c0.2-0.6,0.4-1.2,0.4-1.8c0.1-1.6,0.2-3.2-0.1-4.8c0-0.2-0.1-0.4-0.1-0.6c-0.2-0.7-0.6-1.2-1.3-1.3c-0.8-0.1-1.4,0.1-1.8,0.8
			c-0.2,0.3-0.3,0.6-0.4,0.9c-0.1,0.2-0.2,0.3-0.4,0.3c-1,0-2.1,0-3.1,0c-0.3,0-0.4-0.1-0.4-0.4c0.1-2.4,0.1-4.8,0.2-7.3
			c0-1.7,0.1-3.4,0.1-5.2c0-0.4,0.1-0.5,0.5-0.5c3.3,0,6.6,0,9.8,0c0.4,0,0.5,0.1,0.5,0.5c0,1,0,1.9,0,2.9c0,0.4-0.1,0.5-0.5,0.5
			c-2,0-4,0-6.1,0c-0.6,0-0.6,0-0.6,0.6c-0.1,1.3-0.1,2.5-0.2,3.8C23.2,20.5,23.2,20.6,23.2,20.9z"/>
		<path class="st0" d="M12.1,16.8C11,17.2,9.9,17.6,8.8,18c0-0.4,0-0.8,0-1.2c0-0.6,0-1.2,0-1.8c0-0.3,0.1-0.4,0.4-0.6
			c1.1-0.6,2.3-1.1,3.3-1.9c0.6-0.4,1.1-0.6,1.8-0.6c0.6,0,1.2,0,1.9,0c0.4,0,0.5,0.1,0.5,0.5c0,2.3,0,4.6,0,6.8
			c0,5.2,0,10.3,0,15.5c0,0.6,0,0.6-0.6,0.6c-1.1,0-2.2,0-3.4,0c-0.5,0-0.5,0-0.5-0.6c0-5.8,0-11.7,0-17.5
			C12.1,17.2,12.1,17,12.1,16.8z"/>
		<path class="st0" d="M87,79.1c0,0.6-0.3,0.9-0.7,0.6c-1.5-0.8-3-0.6-4.6-0.2c-1.1,0.3-2,0.9-2.9,1.7c-0.7,0.6-0.8,0.6-1.5,0
			c-1.6-1.4-3.5-2.2-5.7-2c-0.5,0-1,0.2-1.5,0.4c-0.3,0.1-0.5,0.3-0.8,0c-0.2-0.2-0.1-0.7,0.1-1c0.9-0.9,1.9-1.4,3.2-1.7
			c1.9-0.3,3.5,0.2,5.1,1.3c0.3,0.2,0.6,0.3,0.9,0c1.3-0.9,2.7-1.5,4.4-1.4c1.5,0.1,2.8,0.7,3.9,1.8C87,78.9,87,79,87,79.1z"/>
		<path class="st0" d="M93.8,32.6c0.4-1.7,0.7-3.3,1.1-5c0.2-1.1,0-0.9,1.1-0.9c0.1,0,0.2,0,0.2,0c0.4,0,0.5,0.1,0.5,0.5
			c0,1.2,0,2.4,0.1,3.7c0,1.4,0,2.9,0.1,4.3c0,0.4-0.1,0.5-0.5,0.5c-0.9,0-0.8,0-0.8-0.8c0-1.6,0-3.2,0-4.8c-0.1,0-0.1,0-0.2,0
			c-0.1,0.5-0.2,1-0.3,1.5c-0.3,1.2-0.5,2.4-0.8,3.7c-0.1,0.4-0.2,0.4-0.6,0.4c-0.3,0-0.5,0-0.6-0.4c-0.3-1.6-0.7-3.1-1-4.7
			c0-0.1-0.1-0.3-0.1-0.4c0,0-0.1,0-0.1,0c0,0.6,0,1.1,0,1.7c0,1.1,0,2.2,0,3.3c0,0.4-0.1,0.5-0.5,0.5c-0.9,0-0.8,0.1-0.8-0.8
			c0-2.3,0.1-4.6,0.1-6.9c0-0.3,0-0.6,0-0.9c0-0.2,0.1-0.4,0.3-0.3c0.3,0,0.6,0,0.9,0c0.3,0,0.5,0.1,0.6,0.5
			c0.3,1.7,0.7,3.5,1.1,5.2C93.6,32.4,93.7,32.5,93.8,32.6C93.7,32.6,93.7,32.6,93.8,32.6z"/>
		<path class="st0" d="M74.7,45.7c0-1.3,0-2.7,0-4c0-0.3,0.1-0.5,0.5-0.5c0.8,0,1.5,0,2.3,0c1.3,0.1,2.1,0.8,2.1,2.1
			c0,0.5,0,0.9-0.2,1.4c-0.1,0.3-0.3,0.6-0.5,0.8c-0.4,0.3-0.4,0.5-0.2,0.9c0.3,1.1,0.6,2.2,1,3.4c0.1,0.3,0,0.4-0.3,0.4
			c-1.2,0-1.2,0-1.5-1.1c-0.2-0.8-0.4-1.6-0.6-2.4c-0.1-0.3-0.1-0.6-0.5-0.5c-0.4,0.1-0.3,0.4-0.3,0.6c0,1,0,2,0,3
			c0,0.3-0.1,0.5-0.5,0.5c-0.3,0-0.5,0-0.8,0c-0.3,0-0.4-0.1-0.4-0.4C74.8,48.4,74.7,47,74.7,45.7z M76.4,43.6
			C76.4,43.6,76.4,43.6,76.4,43.6c0,0.3,0,0.7,0,1c0,0.1,0.1,0.3,0.2,0.3c0.3,0.1,1,0,1.2-0.3c0.3-0.3,0.4-1.3,0.1-1.8
			c-0.2-0.4-0.6-0.6-1.2-0.5c-0.1,0-0.3,0.2-0.3,0.3C76.4,43,76.4,43.3,76.4,43.6z"/>
		<path class="st0" d="M48.8,16.6c0-1.3,0-2.7,0-4c0-0.5,0-0.5,0.5-0.5c0.8,0,1.6,0,2.4,0.1c1.2,0.1,1.9,0.8,1.9,2
			c0.1,1.6,0.1,3.2,0,4.8c-0.1,1.3-0.9,2-2.2,2.1c-0.7,0-1.5,0-2.2,0c-0.3,0-0.4-0.1-0.4-0.4C48.8,19.2,48.8,17.9,48.8,16.6z
			 M50.4,16.5c0,1,0,2,0,3c0,0.3,0.1,0.4,0.4,0.4c0.9,0,1.2-0.3,1.2-1.2c0-1.4,0-2.9,0-4.3c0-0.8-0.3-1.1-1.2-1.1
			c-0.3,0-0.4,0.1-0.4,0.4C50.5,14.6,50.4,15.6,50.4,16.5z"/>
		<path class="st0" d="M40.7,31.1c0-1.3,0-2.7,0-4c0-0.3,0.1-0.5,0.4-0.4c0.8,0,1.6,0,2.4,0.1c1.3,0.1,2,0.8,2.1,2.1
			c0,1.5,0,3,0,4.5c0,1.5-0.9,2.3-2.4,2.3c-0.7,0-1.4,0-2.1,0c-0.3,0-0.4-0.1-0.4-0.4C40.7,33.8,40.7,32.4,40.7,31.1z M42.4,31.1
			c0,1,0,2,0,2.9c0,0.1,0.1,0.4,0.2,0.4c0.7,0.1,1.3,0,1.3-0.9c0-1.6,0.1-3.1,0-4.7c0-0.7-0.4-1-1.2-1c-0.3,0-0.4,0.1-0.4,0.4
			C42.4,29.2,42.4,30.1,42.4,31.1z"/>
		<path class="st0" d="M68.2,31.1c0,0.8,0.1,1.6,0,2.4c-0.1,1.3-0.8,2-2.1,2.2c-0.4,0-0.9,0-1.4-0.1c-1-0.2-1.4-0.9-1.5-1.8
			c-0.1-0.3-0.1-0.6-0.1-0.9c0-1.2,0-2.5,0-3.7c0-1.9,1.2-2.8,3-2.6c1.4,0.2,2.1,1,2.1,2.7C68.2,29.9,68.2,30.5,68.2,31.1
			C68.2,31.1,68.2,31.1,68.2,31.1z M64.7,31.1C64.7,31.1,64.7,31.1,64.7,31.1c0,0.1,0,0.2,0,0.3c0,0.7,0,1.5,0,2.2
			c0,0.6,0.3,0.8,0.8,0.8c0.5,0,0.8-0.2,0.9-0.8c0-0.2,0-0.3,0-0.5c0-1.4,0-2.8,0-4.2c0-0.2,0-0.3,0-0.5c-0.1-0.6-0.6-0.9-1.2-0.7
			c-0.4,0.1-0.5,0.5-0.5,0.9C64.7,29.5,64.7,30.3,64.7,31.1z"/>
		<path class="st0" d="M54.5,50.1c-0.5,0-1,0-1.5,0c-0.1,0-0.2-0.2-0.3-0.4c-0.3-1.1-0.6-2.2-0.9-3.3c-0.1-0.2-0.1-0.4-0.4-0.4
			c-0.3,0-0.4,0.1-0.4,0.4c0,1.1,0,2.2,0,3.3c0,0.3-0.1,0.4-0.4,0.4c-0.2,0-0.5,0-0.7,0c-0.4,0-0.5-0.1-0.5-0.5c0-2.2,0-4.4,0-6.5
			c0-0.5,0-1,0-1.5c0-0.3,0.1-0.5,0.4-0.5c0.6,0,1.3,0,2,0c1.9,0,2.8,1,2.5,2.9c-0.1,0.6-0.3,1.2-0.8,1.5c-0.1,0.1-0.1,0.3-0.1,0.4
			c0.3,1.2,0.7,2.4,1,3.6C54.4,49.8,54.4,49.9,54.5,50.1z M51.1,43.7C51.1,43.7,51.1,43.7,51.1,43.7c0,0.4,0,0.7,0,1.1
			c0,0.1,0.1,0.3,0.2,0.3c0.8,0.1,1.4-0.3,1.4-1.1c0-0.2,0-0.5,0-0.7c-0.1-0.6-0.9-1-1.5-0.8c-0.1,0-0.1,0.2-0.1,0.3
			C51.1,43,51.1,43.3,51.1,43.7z"/>
		<path class="st0" d="M60.3,50.2c-0.5,0-1,0-1.4,0c-0.1,0-0.3-0.2-0.3-0.4c-0.3-1.1-0.6-2.2-0.9-3.3c0-0.1-0.2-0.3-0.3-0.4
			c-0.3-0.1-0.5,0-0.5,0.4c0,1.1,0,2.1,0,3.2c0,0.4-0.1,0.5-0.5,0.5c-0.3,0-0.5,0-0.8,0c-0.3,0-0.4-0.1-0.4-0.4c0-0.5,0-1,0-1.5
			c0-2.2,0-4.3,0-6.5c0-0.4,0.1-0.5,0.5-0.5c0.6,0,1.2,0,1.8,0c2,0,2.8,1,2.5,3c-0.1,0.6-0.3,1.1-0.8,1.5c-0.1,0.1-0.1,0.3-0.1,0.4
			c0.3,1.2,0.7,2.3,1,3.5C60.2,49.8,60.2,49.9,60.3,50.2z M57.4,42.4c-0.2,0.1-0.5-0.1-0.5,0.3c0,0.7,0,1.4,0,2.1
			c0,0.1,0.1,0.2,0.1,0.2c0.5,0.2,1.3-0.2,1.5-0.7c0.1-0.3,0.1-0.6,0.1-0.8C58.5,42.6,58.1,42.4,57.4,42.4z"/>
		<path class="st0" d="M67.6,63.8c1.2,0,2.3,0.4,3.2,1c0.2,0.1,0.4,0.1,0.6,0c1.4-1.1,2.9-1.6,4.7-1.3c0.9,0.2,1.6,0.6,2.3,1.1
			c0.3,0.2,0.3,0.5,0.2,0.8c-0.1,0.3-0.4,0.3-0.6,0.2c-1.1-0.5-2.2-0.4-3.3,0c-1,0.3-1.9,0.9-2.7,1.7c-0.5,0.5-0.7,0.5-1.2,0.1
			c-1.5-1.1-3.1-1.7-5-1.3c-0.3,0.1-0.7,0.2-1,0.4c-0.3,0.2-0.5,0.3-0.8,0c-0.2-0.2-0.2-0.7,0-0.9c0.8-0.8,1.7-1.4,2.9-1.6
			C67.1,63.8,67.4,63.8,67.6,63.8z"/>
		<path class="st0" d="M49.8,91.5c0-1.2,0-2.4,0-3.7c0-0.4,0.1-0.5,0.5-0.5c0.9,0,1.8,0,2.7,0c0.3,0,0.5,0.1,0.5,0.5
			c0,2.5,0,4.9,0,7.4c0,0.3-0.1,0.5-0.5,0.5c-0.9,0-1.8,0-2.8,0c-0.3,0-0.4-0.1-0.4-0.5C49.8,94,49.8,92.7,49.8,91.5z"/>
		<path class="st0" d="M59.1,31.1c0,0.8,0,1.6,0,2.4c0,0.7,0.4,1,0.9,1c0.4,0,0.6-0.2,0.7-0.6c0.1-0.4,0.1-0.8,0.1-1.3
			c0-0.3,0.1-0.4,0.4-0.4c0.3,0,0.6,0,0.9,0c0.2,0,0.3,0.1,0.3,0.3c-0.1,0.6-0.1,1.2-0.2,1.8c-0.2,0.7-0.7,1.2-1.4,1.3
			c-0.6,0.1-1.2,0.1-1.8,0c-0.9-0.2-1.5-0.9-1.6-2c-0.1-0.8-0.1-1.6-0.1-2.4c0-0.8,0-1.6,0.1-2.4c0.1-1.7,1.1-2.4,2.8-2.3
			c1.3,0.1,2,0.8,2.1,2.1c0,0.3,0,0.6,0,0.9c0,0.2-0.1,0.3-0.3,0.3c-0.3,0-0.6,0-0.9,0c-0.3,0-0.4-0.1-0.4-0.4c0-0.4,0-0.8-0.1-1.1
			c0-0.4-0.3-0.6-0.7-0.6c-0.4,0-0.7,0.2-0.8,0.6c-0.1,0.3-0.1,0.6-0.1,0.9C59.1,29.8,59.1,30.5,59.1,31.1
			C59.1,31.1,59.1,31.1,59.1,31.1z"/>
		<path class="st0" d="M54,21c0.1-0.5,0.2-1,0.3-1.5c0.5-2.3,1-4.7,1.4-7c0.1-0.3,0.2-0.4,0.5-0.4c0.3,0,0.6,0,0.9,0
			c0.3,0,0.4,0.1,0.5,0.4c0.5,2.6,1,5.1,1.5,7.6c0.1,0.3,0.1,0.6,0.2,0.9c-0.5,0-0.9,0-1.4,0c-0.1,0-0.2-0.2-0.2-0.3
			c-0.1-0.5-0.2-0.9-0.2-1.4c0-0.3-0.2-0.4-0.4-0.4c-1.4,0-1.1-0.2-1.3,1.1c-0.2,1.2,0,0.9-1.1,1C54.4,21,54.2,21,54,21z M56.7,14.5
			C56.7,14.5,56.6,14.5,56.7,14.5c-0.2,0.9-0.3,1.7-0.5,2.6c-0.1,0.8-0.1,0.8,0.7,0.7c0.1,0,0.3-0.2,0.3-0.3
			C57,16.5,56.8,15.5,56.7,14.5z"/>
		<path class="st0" d="M97.3,35.6c0.1-0.7,0.3-1.4,0.4-2c0.4-2.2,0.9-4.3,1.3-6.5c0.1-0.3,0.2-0.5,0.5-0.4c0.1,0,0.1,0,0.2,0
			c1.1,0,1.1,0,1.3,1c0.5,2.5,1,5,1.5,7.4c0.1,0.3,0,0.5-0.4,0.5c-1.4,0-1,0.2-1.3-1.1c-0.2-1-0.2-1-1.2-1c-0.4,0-0.6,0.1-0.6,0.5
			c0,0.4-0.1,0.8-0.2,1.2c0,0.2-0.2,0.3-0.4,0.3C98.2,35.5,97.8,35.6,97.3,35.6z M100.6,32.4c-0.2-1.1-0.3-2.1-0.5-3.2
			c-0.2,0.8-0.3,1.6-0.5,2.4c-0.2,1-0.2,1,0.9,0.9C100.5,32.4,100.5,32.4,100.6,32.4z"/>
		<path class="st0" d="M72,29.2c-0.1-0.4-0.1-0.7-0.2-0.9c-0.1-0.4-0.4-0.5-0.8-0.5c-0.4,0-0.6,0.2-0.7,0.6c-0.1,0.4,0,0.8,0.4,1.2
			c0.5,0.4,0.9,0.8,1.4,1.3c0.9,0.8,1.5,1.6,1.4,2.9c-0.1,1-0.7,1.8-1.7,2c-1.7,0.3-3-0.7-3-2.4c0-0.1,0.1-0.3,0.2-0.3
			c0.4-0.1,0.8-0.2,1.2-0.3c0,0.3,0.1,0.5,0.1,0.7c0.1,0.2,0.2,0.5,0.3,0.7c0.2,0.3,0.5,0.4,0.8,0.3c0.3-0.1,0.5-0.3,0.5-0.6
			c0.1-0.5-0.1-1-0.5-1.4c-0.5-0.5-1-1-1.6-1.4c-0.5-0.5-0.9-1-1.1-1.7c-0.3-1.7,0.9-3,2.6-2.7c1.1,0.2,1.7,0.8,1.9,2.2
			c0,0.1-0.1,0.3-0.2,0.3C72.8,29.1,72.4,29.2,72,29.2z"/>
		<path class="st0" d="M78,32.6c0,0.2,0,0.3,0.1,0.5c0.1,0.3,0.2,0.7,0.3,1c0.2,0.3,0.5,0.4,0.8,0.3c0.3-0.1,0.5-0.3,0.5-0.6
			c0.1-0.6-0.2-1.1-0.6-1.5c-0.5-0.5-1.1-0.9-1.6-1.4c-0.6-0.5-0.9-1.1-1-1.9c-0.1-1.7,1-2.7,2.7-2.5c1.2,0.1,1.8,0.9,1.9,2.2
			c0,0.1-0.1,0.2-0.2,0.3c0,0-0.1,0-0.2,0c-0.3,0-0.6,0.2-0.9,0.1c-0.2-0.1-0.2-0.5-0.3-0.7c-0.1-0.5-0.4-0.7-0.9-0.6
			c-0.4,0.1-0.7,0.4-0.6,0.8c0.1,0.3,0.2,0.7,0.4,1c0.4,0.5,0.9,0.8,1.4,1.3c0.8,0.7,1.4,1.6,1.4,2.7c0,1.1-0.7,1.9-1.8,2.1
			c-1.7,0.3-2.9-0.7-2.9-2.4c0-0.1,0.1-0.3,0.2-0.3C77.2,32.8,77.6,32.7,78,32.6z"/>
		<path class="st0" d="M106.2,29.2c-0.1-0.3-0.1-0.6-0.2-0.9c-0.1-0.4-0.4-0.6-0.8-0.5c-0.4,0-0.6,0.3-0.7,0.7
			c0,0.4,0.1,0.8,0.4,1.1c0.4,0.4,0.9,0.8,1.4,1.2c0.9,0.8,1.5,1.7,1.4,2.9c-0.1,1-0.7,1.7-1.6,1.9c-1.7,0.4-3-0.6-3.1-2.4
			c0-0.1,0.1-0.3,0.2-0.3c0.4-0.1,0.8-0.2,1.2-0.3c0.1,0.3,0.1,0.6,0.1,0.8c0.1,0.2,0.1,0.4,0.3,0.6c0.2,0.3,0.5,0.4,0.8,0.3
			c0.3-0.1,0.5-0.3,0.5-0.6c0.1-0.5-0.1-1-0.5-1.4c-0.5-0.5-1-1-1.6-1.4c-0.8-0.6-1.2-1.5-1.1-2.5c0.1-1.3,1.2-2.1,2.6-2
			c1.2,0.1,1.9,1,1.9,2.1c0,0.1-0.1,0.3-0.2,0.3C106.9,29.1,106.6,29.2,106.2,29.2z"/>
		<path class="st0" d="M86.1,47.2c0.1,0.4,0.1,0.8,0.3,1.1c0.1,0.2,0.3,0.5,0.6,0.6c0.5,0.2,0.9-0.1,0.9-0.6c0.1-0.5-0.1-1-0.5-1.4
			c-0.5-0.5-1.1-1-1.6-1.4c-0.9-0.7-1.2-1.6-1-2.8c0.1-0.8,0.6-1.3,1.3-1.5c0.5-0.1,1.1-0.2,1.7-0.1c0.9,0.2,1.6,1.2,1.5,2.1
			c0,0.1-0.1,0.2-0.2,0.2c-0.4,0.1-0.8,0.2-1.2,0.2c-0.1-0.3-0.1-0.6-0.2-0.8c-0.1-0.5-0.4-0.7-0.9-0.6c-0.4,0.1-0.7,0.4-0.6,0.9
			c0.1,0.4,0.3,0.7,0.5,1c0.4,0.4,0.8,0.8,1.3,1.1c0.7,0.6,1.3,1.3,1.3,2.3c0.1,1.7-1,2.8-2.7,2.5c-1.5-0.2-1.9-1.4-2-2.5
			c0-0.1,0.1-0.2,0.2-0.3C85.3,47.4,85.7,47.3,86.1,47.2z"/>
		<path class="st0" d="M68.3,43.8c-0.1-0.3-0.1-0.6-0.2-0.9c-0.1-0.4-0.4-0.6-0.9-0.5c-0.4,0.1-0.6,0.3-0.6,0.8
			c0,0.6,0.3,0.9,0.7,1.3c0.6,0.5,1.2,1,1.7,1.6c0.5,0.5,0.8,1.2,0.8,2c0,1.4-0.9,2.3-2.2,2.3c-1.5,0-2.4-0.9-2.5-2.4
			c0-0.2,0.1-0.4,0.3-0.4c0,0,0.1,0,0.1,0c0.3-0.1,0.7-0.2,0.9-0.1c0.2,0.1,0.2,0.5,0.3,0.8c0.1,0.5,0.4,0.8,0.8,0.9
			c0.4,0,0.7-0.2,0.8-0.6c0.1-0.6-0.1-1.1-0.5-1.5c-0.6-0.5-1.2-1.1-1.8-1.6c-0.8-0.7-0.9-1.6-0.7-2.6c0.1-0.7,0.6-1.2,1.3-1.4
			c0.6-0.2,1.1-0.2,1.7-0.1c0.9,0.2,1.6,1.2,1.5,2.1c0,0.1-0.1,0.2-0.2,0.2C69.1,43.7,68.7,43.7,68.3,43.8z"/>
		<path class="st0" d="M45.6,12c-0.1,0.7-0.3,1.4-0.4,2c-0.4,2.2-0.9,4.4-1.3,6.5c-0.1,0.3-0.2,0.4-0.5,0.4c-1.2,0-1.2,0-1.4-1.1
			c-0.5-2.4-1-4.8-1.5-7.2c0-0.2-0.1-0.4-0.1-0.6c0.5,0,0.9,0,1.3,0c0.1,0,0.2,0.2,0.3,0.4c0.3,1.6,0.6,3.2,0.9,4.9
			c0,0.2,0.1,0.4,0.2,0.6c0-0.2,0.1-0.3,0.1-0.5c0.3-1.6,0.6-3.3,0.9-4.9c0.1-0.3,0.2-0.4,0.5-0.4C44.8,12.1,45.1,12,45.6,12z"/>
		<path class="st0" d="M86.2,31.1c0-1.3,0-2.7,0-4c0-0.3,0.1-0.5,0.5-0.5c1,0,1.9,0,2.9,0c0.3,0,0.5,0.1,0.5,0.4
			c0,0.9,0.1,0.8-0.8,0.8c-0.3,0-0.7,0-1,0c-0.2,0-0.3,0.1-0.3,0.3c0,0.6,0,1.2,0,1.9c0,0.3,0.1,0.3,0.3,0.3c0.3,0,0.6,0,0.9,0
			c0.2,0,0.4,0.1,0.4,0.3c0,0.9,0,0.9-0.8,0.9c-0.9,0-0.8-0.1-0.8,0.8c0,0.6,0,1.1,0,1.7c0,0.2,0.1,0.3,0.3,0.3c0.5,0,0.9,0,1.4,0
			c0.3,0,0.4,0.1,0.4,0.4c0,0.9,0.1,0.8-0.8,0.8c-0.9,0-1.7,0-2.6,0c-0.4,0-0.5-0.1-0.5-0.5C86.2,33.8,86.2,32.4,86.2,31.1z"/>
		<path class="st0" d="M80.5,45.7c0-1.3,0-2.7,0-4c0-0.4,0.1-0.5,0.5-0.5c1,0,1.9,0,2.9,0c0.3,0,0.5,0.1,0.4,0.4c0,0.1,0,0.2,0,0.4
			c0,0.3-0.1,0.4-0.4,0.4c-0.5,0-0.9,0-1.4,0c-0.2,0-0.3,0.1-0.3,0.3c0,0.6,0,1.2,0,1.9c0,0.2,0.1,0.3,0.3,0.3c0.3,0,0.7,0,1,0
			c0.2,0,0.3,0.1,0.3,0.3c0,1.1,0.1,0.9-0.8,0.9c-0.9,0-0.8-0.1-0.8,0.8c0,0.5,0,1.1,0,1.6c0,0.4,0.1,0.5,0.5,0.5c0.4,0,0.8,0,1.3,0
			c0.3,0,0.4,0.1,0.4,0.4c0,0.8,0,0.8-0.8,0.8c-0.9,0-1.7,0-2.6,0c-0.3,0-0.5-0.1-0.4-0.4C80.5,48.4,80.5,47,80.5,45.7z"/>
		<path class="st0" d="M53.2,31.1c0-1.3,0-2.7,0-4c0-0.4,0.1-0.5,0.5-0.5c0.9,0,1.9,0,2.8,0c0.4,0,0.5,0.1,0.5,0.5
			c0,0.7,0,0.7-0.7,0.7c-0.4,0-0.7,0-1.1,0c-0.2,0-0.3,0.1-0.3,0.3c0,0.6,0,1.3,0,1.9c0,0.2,0.1,0.3,0.3,0.3c0.3,0,0.7,0,1,0
			c0.1,0,0.2,0.2,0.3,0.3c0,0,0,0.1,0,0.1c0,1,0.1,0.8-0.8,0.8c-1,0-0.8-0.1-0.8,0.9c0,0.5,0,1.1,0,1.6c0,0.3,0.1,0.4,0.4,0.4
			c0.4,0,0.9,0,1.3,0c0.3,0,0.4,0.1,0.4,0.4c0,0.8,0.1,0.7-0.7,0.7c-0.8,0-1.6,0-2.4,0c-0.6,0-0.6,0-0.6-0.7
			C53.2,33.6,53.2,32.4,53.2,31.1z"/>
		<path class="st0" d="M45.1,45.7c0-1.3,0-2.7,0-4c0-0.3,0.1-0.5,0.4-0.4c1,0,1.9,0,2.9,0c0.3,0,0.5,0.1,0.4,0.4c0,0.1,0,0.2,0,0.3
			c0,0.3-0.1,0.4-0.4,0.4c-0.4,0-0.9,0-1.3,0c-0.3,0-0.4,0.1-0.4,0.4c0,0.6,0,1.2,0,1.8c0,0.3,0.1,0.4,0.4,0.4c0.3,0,0.7,0,1,0
			c0.1,0,0.2,0.2,0.3,0.3c0,0,0,0.1,0,0.1c0,0.8,0,0.8-0.8,0.8c-1,0-0.9-0.1-0.9,0.9c0,0.5,0,1.1,0,1.6c0,0.3,0.1,0.4,0.4,0.4
			c0.5,0,0.9,0,1.4,0c0.3,0,0.4,0.1,0.4,0.4c0,0.8,0,0.8-0.8,0.8c-0.9,0-1.8,0-2.6,0c-0.3,0-0.4-0.1-0.4-0.4
			C45.1,48.4,45.1,47,45.1,45.7z"/>
		<path class="st0" d="M46.5,31.1c0-1.3,0-2.7,0-4c0-0.4,0.1-0.5,0.5-0.5c0.9,0,1.9,0,2.8,0c0.3,0,0.5,0.1,0.5,0.5
			c0,0.8,0.1,0.7-0.7,0.7c-0.4,0-0.7,0-1.1,0c-0.2,0-0.3,0.1-0.3,0.3c0,0.6,0,1.3,0,1.9c0,0.2,0.1,0.3,0.3,0.3c0.4,0,0.7,0,1.1,0
			c0.2,0,0.3,0.1,0.3,0.3c0.1,0.9,0.1,0.9-0.8,0.9c-1,0-0.9-0.1-0.9,0.9c0,0.5,0,1.1,0,1.6c0,0.3,0.1,0.4,0.4,0.4c0.5,0,0.9,0,1.4,0
			c0.3,0,0.4,0.1,0.4,0.4c0,0.8,0,0.8-0.7,0.8c-0.9,0-1.7,0-2.6,0c-0.3,0-0.5-0.1-0.4-0.4C46.5,33.8,46.5,32.4,46.5,31.1z"/>
		<path class="st0" d="M61,45.7c0-1.3,0-2.7,0-4c0-0.4,0.1-0.5,0.5-0.5c0.9,0,1.9,0,2.8,0c0.3,0,0.5,0.1,0.4,0.4
			c0,0.8,0.1,0.7-0.7,0.7c-0.4,0-0.7,0-1.1,0c-0.2,0-0.3,0.1-0.3,0.3c0,0.6,0,1.3,0,1.9c0,0.2,0.1,0.3,0.3,0.3c0.3,0,0.7,0,1,0
			c0.3,0,0.4,0.1,0.4,0.4c0,0.8,0,0.8-0.8,0.8c-1,0-0.9-0.1-0.9,0.9c0,0.5,0,1,0,1.5c0,0.5,0,0.5,0.6,0.5c0.4,0,0.8,0,1.2,0
			c0.3,0,0.4,0.1,0.4,0.4c0,0.8,0,0.8-0.8,0.8c-0.9,0-1.7,0-2.6,0c-0.3,0-0.4-0.1-0.4-0.4C61,48.4,61,47,61,45.7z"/>
		<path class="st0" d="M76.5,57.3c1.6,0,2.6,0.6,3.5,1.5c0.3,0.3,0.5,0.4,1,0.3c2-0.5,3.8,0.1,4.7,1.8c0.1,0.2,0.1,0.5,0.1,0.7
			c-0.1,0.4-0.5,0.4-0.7,0.2c-1.3-1.1-2.7-1.1-4.2-0.6c-0.2,0.1-0.4,0.2-0.6,0.2c-0.5,0.2-0.7,0.1-1-0.3c-0.5-0.8-1.2-1.5-2.1-2
			c-0.6-0.3-1.3-0.5-2-0.3c-0.3,0.1-0.5,0-0.6-0.3c-0.1-0.3,0-0.6,0.3-0.7C75.5,57.5,76.2,57.4,76.5,57.3z"/>
		<path class="st0" d="M82.8,31.7c0-1.1,0-2.2,0-3.3c0-0.4-0.1-0.5-0.5-0.5c0,0-0.1,0-0.1,0c-1,0-0.9,0.2-0.8-1
			c0-0.1,0.2-0.3,0.3-0.3c1.3,0,2.7,0,4,0c0.1,0,0.2,0.2,0.3,0.3c0,0.2,0,0.5,0,0.7c0,0.1-0.2,0.3-0.3,0.3c-0.2,0-0.5,0-0.7,0
			c-0.3,0-0.4,0.1-0.4,0.4c0,1.7,0,3.5,0,5.2c0,0.5,0,1.1,0,1.6c0,0.3-0.1,0.4-0.4,0.4c-1.3,0-1.3,0-1.3-1.2
			C82.8,33.5,82.8,32.6,82.8,31.7z"/>
		<path class="st0" d="M41.6,46.3c0-1.1,0-2.2,0-3.3c0-0.5,0-0.5-0.6-0.5c0,0-0.1,0-0.1,0c-0.9,0-0.9,0-0.8-0.9
			c0-0.1,0.2-0.3,0.3-0.3c1.4,0,2.7,0,4.1,0c0.1,0,0.2,0.2,0.3,0.3c0,0,0,0,0,0c0,1.1,0.1,0.9-0.8,0.9c-0.6,0-0.6,0-0.6,0.6
			c0,2.2,0,4.4,0,6.6c0,0.4-0.1,0.6-0.5,0.5c-0.2,0-0.5,0-0.7,0c-0.3,0-0.4-0.1-0.4-0.4C41.6,48.6,41.6,47.4,41.6,46.3z"/>
		<path class="st0" d="M71.3,46.3c0-1.1,0-2.3,0-3.4c0-0.4-0.1-0.5-0.5-0.5c-0.2,0-0.4,0-0.6,0c-0.4,0-0.5-0.1-0.5-0.5
			c0-0.1,0-0.2,0-0.4c0-0.3,0.1-0.4,0.4-0.4c1.3,0,2.6,0,3.9,0c0.2,0,0.4,0.1,0.4,0.3c0,1.1,0.1,0.9-0.8,0.9c-0.6,0-0.6,0-0.6,0.6
			c0,2.2,0,4.4,0,6.6c0,0.4-0.1,0.5-0.5,0.5c-1.1,0-1.1,0-1.1-1.1C71.3,48.1,71.3,47.2,71.3,46.3z"/>
		<path class="st0" d="M47.8,16.6c0,1.3,0,2.7,0,4c0,0.3-0.1,0.5-0.5,0.5c-1.2,0-1.2,0-1.2-1.2c0-2.4,0-4.8,0-7.2
			c0-0.6,0-0.6,0.6-0.6c1.1,0,1.1,0,1.1,1.1C47.8,14.3,47.8,15.4,47.8,16.6z"/>
		<path class="st0" d="M75.8,31.1c0,1.3,0,2.7,0,4c0,0.3-0.1,0.5-0.5,0.5c-0.3,0-0.6,0-0.9,0c-0.2,0-0.3-0.1-0.3-0.3
			c0-0.4,0-0.8,0-1.3c0-2.3,0-4.5,0-6.8c0-0.4,0.1-0.5,0.5-0.5c1.1,0,1.1,0,1.1,1.1C75.8,28.9,75.8,30,75.8,31.1z"/>
	</g>
</g>
</svg>
