<?xml version="1.0" encoding="utf-8"?>
<!-- Generator: Adobe Illustrator 25.0.1, SVG Export Plug-In . SVG Version: 6.00 Build 0)  -->
<svg version="1.1" id="Layer_1" xmlns="http://www.w3.org/2000/svg" xmlns:xlink="http://www.w3.org/1999/xlink" x="0px" y="0px"
	 viewBox="0 0 125 125" style="enable-background:new 0 0 125 125;" xml:space="preserve">
<style type="text/css">
	.st0{fill:#D2D1D3;}
</style>
<g>
	<g>
		<path class="st0" d="M80.1,68.2c0.5-2.4,2.1-4.1,3.7-5.8c0.7-0.8,1.4-1.6,2.2-2.4c0.1,0.1,0.3,0.2,0.5,0.3
			c-0.2,0.3-0.4,0.6-0.6,0.9c-1,1.1-2,2.1-3,3.2s-1.8,2.4-2.2,4c-0.1,0.3,0,0.4,0.2,0.6c0.5,0.4,1.1,0.8,1.6,1.3c-0.3,0-0.7,0-1,0
			c-1,0-1.1,0.1-0.9,1.1c0.2,1.1,0.5,2.1,0.7,3.2c0,0.2,0.2,0.4-0.1,0.5c-0.2,0.1-0.5,0.1-0.6-0.3c-0.2-1.3-0.5-2.5-0.7-3.8
			c-0.1-0.5-0.1-0.5-0.5-0.4c-0.2,0-0.4,0.1-0.6,0.2c-2.8,0.8-4.3,2.5-4.7,5.7C74,77.7,74,79,74,80.3c-0.1,3-1,5.8-3.1,8
			c-1.6,1.7-3.5,2.8-5.6,3.6c-1.8,0.7-3.6,1.2-5.4,1.4c-0.6,0.1-0.6,0.1-0.6,0.7c0,1.6,0,3.1,0,4.7c0,0.4,0.1,0.5,0.5,0.5
			c1.9,0,3.7,0.1,5.6,0.1c0.6,0,1.2,0,1.7,0.1c1.7,0.1,3.4-0.2,5.1-0.4c0.9-0.1,1.7-0.2,2.6-0.3c0.3,0,0.3-0.1,0.3-0.4
			c0-0.8,0-1.7,0-2.5c0-0.7,0.3-1,1-1c3.2,0,6.4,0,9.6,0c0.7,0,1,0.3,1,1c0,3.2,0,6.4,0,9.6c0,0.7-0.3,1-1,1c-3.2,0-6.4,0-9.6,0
			c-0.7,0-1-0.4-1-1c0-0.8,0-1.6,0-2.4c0-0.3,0-0.4-0.4-0.5c-2-0.2-4.1-0.5-6.1-0.6c-1.6-0.1-3.2,0.1-4.8,0.1c-2,0-4,0.1-5.9,0.1
			c-3.8,0.1-7.5,0.2-11.3,0.2c-2.4,0.1-4.7,0.1-7.1,0.2c-1,0-2,0-3,0.1c-0.3,0-0.4-0.1-0.4-0.4c0-1,0-2.1,0-3.1c0-0.2,0-0.4,0.3-0.4
			c2.3,0.1,4.5,0.1,6.8,0.1C46.6,98.9,50,99,53.4,99c0.6,0,0.6,0,0.6-0.5c0-1.5,0-3,0-4.5c0-0.3-0.1-0.4-0.4-0.4
			c-3.7-0.3-7-1.5-10-3.5c-1.6-1.1-3.2-2-4.9-2.8c0.4,0.1,0.9,0.1,1.3,0.2c1.8,0.2,3.5,0.2,5.2-0.4c0.8-0.3,1.6-0.8,2.3-1.2
			c1.1-0.7,2.1-1.4,3.2-2c0.7-0.4,1.5-0.6,2.2-0.8c-0.6-0.1-1.3-0.3-2-0.5c-3.1-1-5.1-3.1-6.4-6c-0.8-1.7-1.1-3.5-1.5-5.3
			c-0.3-1.3-0.6-2.6-1-3.8c-0.6-2-1.5-3.9-3.6-4.9c0.3,0,0.5-0.1,0.8-0.1c3.2-0.2,6.3,0.2,9.2,1.6c2.1,1.1,4,2.5,5.7,4.1
			c1.1,1.1,2.2,2.2,3.5,3c1.6,1.1,3.4,1.7,5.4,1.7c2.4-0.1,4.3-1.1,6-2.6c1.2-1.1,2.5-2.1,3.8-3.1c0.7-0.5,1.5-0.9,2.3-1.2
			c1.3-0.5,2.4-0.1,3.4,0.9C79,67.2,79.6,67.7,80.1,68.2z M57.7,93.7c-0.6,0-1.2,0-1.7,0c-0.3,0-0.3,0.2-0.3,0.4c0,1.6,0,3.1,0,4.7
			c0,0.3,0.1,0.4,0.4,0.4c0.4,0,0.9,0,1.3,0c0.3,0,0.4-0.1,0.4-0.4c0-1.6,0-3.2,0-4.9C57.7,93.8,57.7,93.8,57.7,93.7z"/>
		<path class="st0" d="M23.7,22.2c2.3-2.2,6.1-1.5,7.4,1.3c0.5,1.2,0.7,2.5,0.7,3.8c0,1.6-0.1,3.1-0.6,4.6c-0.8,2.5-2.4,3.7-5,3.8
			c-0.8,0-1.6,0-2.4-0.1c-2.2-0.4-3.4-1.9-4.1-4c-0.4-1.2-0.5-2.4-0.5-3.6c0-3,0-5.9,0-8.9c0-1.3,0.2-2.6,0.7-3.9c0.7-1.9,2-3,4-3.3
			c1.4-0.2,2.7-0.2,4,0.2c2,0.5,3,2,3.3,4c0.1,0.6,0.1,1.2,0.2,1.7c0,0.3-0.1,0.4-0.3,0.4c-1.2,0-2.4,0-3.6,0
			c-0.3,0-0.3-0.1-0.4-0.4c0-0.5-0.1-1-0.2-1.5c-0.1-0.7-0.5-1-1.2-1.1s-1.3,0.2-1.5,0.8c-0.2,0.5-0.4,1.1-0.4,1.7
			C23.8,19.1,23.8,20.6,23.7,22.2z M23.8,27.4L23.8,27.4c0.1,0.9,0,1.7,0.1,2.6c0,0.6,0.2,1.1,0.4,1.6c0.3,0.6,0.9,0.9,1.5,0.8
			s1-0.5,1.2-1c0.1-0.6,0.3-1.2,0.3-1.8c0-1.3,0-2.6-0.1-3.8c-0.1-1-0.8-1.4-1.6-1.4c-0.5,0-0.9,0.2-1.3,0.6
			c-0.3,0.2-0.4,0.5-0.4,0.9C23.8,26.4,23.8,26.9,23.8,27.4z"/>
		<path class="st0" d="M12.3,16.8c-1.1,0.4-2.2,0.8-3.3,1.2c0-0.2,0-0.3,0-0.4c0-0.9,0-1.8,0-2.6c0-0.3,0.1-0.4,0.3-0.5
			c1.4-0.6,2.8-1.3,3.9-2.3c0.1-0.1,0.3-0.1,0.4-0.1c0.9,0,1.9,0,2.8,0c0.3,0,0.4,0.1,0.4,0.4c0,7.5,0,15,0,22.6
			c0,0.3-0.1,0.4-0.4,0.4c-1.2,0-2.4,0-3.6,0c-0.4,0-0.5-0.1-0.5-0.5c0-4.4,0-8.7,0-13.1c0-1.5,0-3,0-4.6
			C12.3,17.1,12.3,17,12.3,16.8z"/>
		<path class="st0" d="M81,90.8c1.8,0,3.6,0,5.4,0c0.7,0,1.2,0.4,1.5,1c0.2,0.6,0,1.3-0.5,1.7c-0.3,0.2-0.7,0.4-1,0.4
			c-3.5,0-7,0-10.5,0c-1,0-1.7-0.7-1.7-1.6s0.7-1.5,1.7-1.5C77.6,90.7,79.3,90.8,81,90.8z"/>
		<path class="st0" d="M81,110.5c-1.7,0-3.3,0-5,0c-0.2,0-0.4,0-0.6,0c-0.8-0.1-1.4-0.8-1.3-1.6c0.1-0.8,0.7-1.4,1.5-1.4
			c2.7,0,5.3,0,8,0c0.9,0,1.8,0,2.7,0c0.9,0,1.5,0.6,1.6,1.4c0.1,0.9-0.5,1.5-1.4,1.7c-0.4,0-0.7,0-1.1,0
			C84,110.5,82.5,110.5,81,110.5z"/>
		<path class="st0" d="M60.2,45.7c0-1.3,0-2.6,0-3.9c0-0.4,0.1-0.5,0.5-0.5c0.7,0,1.4,0,2.2,0c1.4,0.1,2.2,0.7,2.3,2.1
			c0.1,1.5,0.1,3.1,0,4.6c-0.1,1.6-0.9,2.2-2.6,2.3c-0.6,0-1.2,0-1.9,0c-0.3,0-0.4-0.1-0.4-0.5C60.2,48.4,60.2,47,60.2,45.7z
			 M61.9,45.6c0,1,0,2,0,3c0,0.3,0.1,0.4,0.4,0.4c0.8,0,1.2-0.3,1.2-1.1c0-1.4,0-2.9,0-4.3c0-0.8-0.3-1.1-1.1-1.1
			c-0.3,0-0.4,0.1-0.4,0.4C61.9,43.7,61.9,44.7,61.9,45.6z"/>
		<path class="st0" d="M90.1,31.1c0-0.6,0-1.3,0-1.9c0.1-1.9,1-2.8,3-2.6c1.3,0.1,2,0.8,2.1,2.1c0.1,1.7,0.1,3.3,0,5
			c-0.1,1.3-0.8,1.9-2.1,2.1c-0.5,0.1-0.9,0-1.4-0.1c-1-0.2-1.4-0.9-1.5-1.8C90.1,32.9,90.1,32,90.1,31.1L90.1,31.1z M91.8,31.1
			L91.8,31.1c0,0.8,0,1.7,0,2.5c0,0.6,0.3,0.9,0.8,0.9s0.8-0.2,0.9-0.8c0-0.2,0.1-0.4,0.1-0.6c0-1.3,0-2.7,0-4c0-0.3,0-0.6-0.1-0.8
			c-0.1-0.2-0.3-0.4-0.5-0.5c-0.6-0.2-1.1,0.1-1.2,0.8C91.8,29.4,91.8,30.2,91.8,31.1z"/>
		<path class="st0" d="M52.8,30.6c0,1.3,0,2.6,0,3.9c0,1,0,1-1,1c-0.3,0-0.4-0.1-0.4-0.4c0-2.7,0-5.4,0-8.1c0-0.3,0.1-0.4,0.5-0.4
			c0.9,0,0.7-0.1,1,0.6c0.6,1.4,1.2,2.7,1.8,4.1c0-0.1,0-0.2,0-0.4c0-1.3,0-2.6,0-3.9c0-0.4,0.1-0.5,0.5-0.5c1.1,0,0.9-0.1,0.9,0.9
			c0,2.5,0,5,0,7.5c0,0.2,0.1,0.5-0.2,0.5c-0.5,0.1-0.9,0-1-0.3c-0.6-1.4-1.2-2.9-1.8-4.4C52.9,30.8,52.9,30.7,52.8,30.6L52.8,30.6z
			"/>
		<path class="st0" d="M46.3,45.6c0-0.7,0-1.3,0-2c0.1-2,1.1-2.7,3-2.6c1.3,0.1,2,0.7,2.1,2c0.1,1.7,0.2,3.3,0,5
			c-0.1,1.8-1.4,2.3-3,2.1c-1.3-0.1-1.9-0.9-2-2.2C46.2,47.2,46.3,46.4,46.3,45.6L46.3,45.6z M49.7,45.7L49.7,45.7
			c0-0.4,0-0.8,0-1.2s0-0.8,0-1.3c0-0.6-0.3-0.8-0.8-0.8c-0.6,0-0.8,0.2-0.9,0.7c0,0.2,0,0.3,0,0.5c0,1.4,0,2.7,0,4.1
			c0,0.2,0,0.5,0.1,0.7c0.1,0.3,0.3,0.5,0.6,0.6c0.6,0.1,1-0.2,1.1-0.9C49.7,47.3,49.7,46.5,49.7,45.7z"/>
		<path class="st0" d="M99.7,31.3c0-0.1,0-0.3,0-0.4c0-1.3,0-2.5,0-3.8c0-0.4,0.1-0.5,0.5-0.5c1.1,0,0.9-0.1,0.9,0.9
			c0,2.5,0,5,0,7.5c0,0.2,0.1,0.5-0.2,0.5c-0.6,0.1-0.9,0-1-0.3c-0.6-1.4-1.2-2.9-1.8-4.3c-0.1-0.1-0.1-0.2-0.2-0.4
			c0,0.1,0,0.3,0,0.4c0,1.4,0,2.8,0,4.2c0,0.3-0.1,0.4-0.4,0.4c-1.2,0-1,0.1-1-1c0-2.5,0-5,0-7.5c0-0.2-0.1-0.5,0.2-0.5
			c0.5-0.1,0.9,0,1.1,0.3c0.6,1.3,1.2,2.7,1.7,4C99.6,30.9,99.6,31.1,99.7,31.3L99.7,31.3z"/>
		<path class="st0" d="M68.6,15.6c0-1,0-2.1,0-3.1c0-0.4,0.1-0.5,0.5-0.5c1.2,0,1.2,0,1.2,1.2c0,1.7,0,3.3,0,5c0,0.3,0,0.6-0.1,0.8
			c-0.2,1.5-1,2.2-2.7,2.1c-1.6-0.1-2.2-0.9-2.3-2.6c0-2,0-4.1,0-6.1c0-0.3,0.1-0.4,0.4-0.4s0.6,0,0.9,0s0.4,0.1,0.4,0.4
			c0,1.4,0,2.8,0,4.3c0,0.6,0,1.2,0,1.8c0,0.3,0.1,0.5,0.1,0.8c0.1,0.4,0.4,0.5,0.8,0.5s0.6-0.2,0.7-0.5c0.1-0.4,0.1-0.7,0.1-1.1
			C68.6,17.3,68.6,16.5,68.6,15.6z"/>
		<path class="st0" d="M78.5,30c0-1,0-2,0-3c0-0.3,0.1-0.5,0.4-0.4c0.3,0,0.6,0,0.9,0c0.2,0,0.3,0.1,0.3,0.3c0,2.2,0,4.4-0.1,6.5
			c0,1.4-0.8,2.1-2.2,2.2c-0.4,0-0.8,0-1.2-0.1c-1-0.2-1.5-1-1.6-2.1c0-2.1,0-4.3,0-6.4c0-0.3,0.1-0.4,0.4-0.4s0.6,0,0.9,0
			s0.4,0.1,0.4,0.4c0,1.5,0,2.9,0,4.4c0,0.7,0,1.4,0.1,2.2c0,0.6,0.4,0.9,0.9,0.8c0.4,0,0.6-0.2,0.7-0.5s0.1-0.7,0.1-1
			C78.5,31.9,78.5,31,78.5,30z"/>
		<path class="st0" d="M82.9,31.1c0,0.8,0,1.6,0,2.4c0,0.6,0.3,0.9,0.8,0.9s0.8-0.2,0.8-0.7c0-0.4,0-0.8,0-1.2
			c0-0.2,0.1-0.4,0.3-0.3c0.1,0,0.2,0,0.2,0c1.1,0,1.1,0,1,1.1c0,0.4-0.1,0.9-0.3,1.3c-0.2,0.5-0.6,0.9-1.1,1
			c-0.6,0.2-1.3,0.2-1.9,0c-1.1-0.3-1.5-1.1-1.6-2.1c-0.1-1.6-0.1-3.2,0-4.8c0.1-1.5,0.9-2.4,2.9-2.2c1.3,0.1,1.9,0.8,2,2.1
			c0,0.3,0,0.6,0,0.9s-0.1,0.3-0.3,0.3c-1.2,0.1-1.2,0.1-1.3-1.2c0-0.8-0.4-1.1-1.1-0.9c-0.4,0.1-0.6,0.4-0.6,0.8
			C82.9,29.5,82.9,30.3,82.9,31.1L82.9,31.1z"/>
		<path class="st0" d="M84.4,16.5c0-0.7,0-1.5,0-2.2c0.1-2.1,2.3-3.2,4-2c0.7,0.4,0.9,1.2,0.9,1.9c0,1.4,0.2,1.1-1.1,1.1
			c-0.6,0-0.6,0-0.6-0.6c0-0.3,0-0.6,0-0.9c0-0.5-0.3-0.7-0.7-0.7c-0.4,0-0.8,0.2-0.8,0.6C86,13.9,86,14.2,86,14.4
			c0,1.3,0,2.6,0,3.9c0,0.2,0,0.5,0.1,0.7c0.1,0.5,0.4,0.7,0.9,0.7c0.4,0,0.7-0.3,0.7-0.8c0-0.4,0-0.7,0-1.1c0-0.3,0.1-0.4,0.4-0.4
			c0.1,0,0.2,0,0.3,0c1.2,0,1-0.2,1,1.1c0,0.3,0,0.5-0.1,0.8c-0.2,1-0.8,1.5-1.8,1.6c-0.2,0-0.5,0.1-0.7,0c-1.5-0.1-2.3-0.9-2.3-2.4
			C84.4,18,84.4,17.3,84.4,16.5z"/>
		<path class="st0" d="M93,21c0.1-0.6,0.2-1.2,0.3-1.7c0.5-2.3,0.9-4.5,1.4-6.8c0.1-0.4,0.2-0.5,0.6-0.5c0.2,0,0.4,0,0.6,0
			c0.6,0,0.6,0,0.8,0.6c0.5,2.6,1.1,5.3,1.6,7.9c0.1,0.4,0,0.5-0.4,0.5c-1.4,0-1,0.2-1.3-1.1c-0.2-1-0.2-0.9-1.1-1
			c-0.4,0-0.6,0.1-0.6,0.6c0,0.4-0.1,0.8-0.2,1.2c0,0.2-0.1,0.3-0.4,0.3C93.9,21,93.5,21,93,21z M95.1,17.8c0.4,0,0.7,0,1.1,0
			c-0.2-1.1-0.3-2.1-0.5-3.2h-0.1C95.5,15.7,95.3,16.7,95.1,17.8z"/>
		<path class="st0" d="M51.1,21c-0.5,0-0.9,0-1.3,0c-0.1,0-0.2-0.2-0.3-0.3c-0.1-0.5-0.2-0.9-0.3-1.4c0-0.3-0.2-0.4-0.4-0.4
			c-1.1,0-1.1,0-1.3,1.1c-0.2,1-0.2,1-1.1,1c-0.2,0-0.3,0-0.6,0c0-0.2,0-0.4,0.1-0.6c0.5-2.6,1.1-5.3,1.6-7.9
			c0.1-0.3,0.2-0.5,0.6-0.5c0.4,0,0.9-0.1,1.2,0.1c0.2,0.2,0.2,0.7,0.3,1.1c0.5,2.4,1,4.9,1.5,7.3C51.1,20.7,51.1,20.8,51.1,21z
			 M49,17.8c-0.2-1.1-0.3-2.1-0.5-3.2h-0.1c-0.2,1-0.3,2.1-0.5,3.2C48.3,17.8,48.6,17.8,49,17.8z"/>
		<path class="st0" d="M71.1,50.2c-0.5,0-0.9,0-1.3,0c-0.1,0-0.2-0.2-0.3-0.3c-0.1-0.5-0.2-0.9-0.3-1.4c0-0.1,0-0.2,0-0.2
			c-0.4-0.1-0.8-0.1-1.3-0.1c-0.1,0-0.3,0.2-0.3,0.3c-0.1,0.5-0.2,0.9-0.3,1.4c0,0.3-0.2,0.3-0.4,0.3c-0.4,0-0.8,0-1.2,0
			c0.1-0.5,0.2-0.9,0.2-1.3c0.5-2.4,1-4.8,1.5-7.2c0.1-0.3,0.2-0.5,0.5-0.4c0.1,0,0.2,0,0.4,0c1.1,0,0.9-0.2,1.1,0.9
			c0.5,2.5,1,5,1.5,7.5C71,49.8,71,49.9,71.1,50.2z M68.4,43.8L68.4,43.8c-0.3,1-0.4,2.1-0.6,3.1c0.4,0,0.7,0,1.1,0
			C68.8,45.9,68.6,44.8,68.4,43.8z"/>
		<path class="st0" d="M43.2,50.3c-1.8,0-2.4-1.2-2.5-2.5l0,0c0-0.3,0.6-0.5,1.2-0.5c0.3,0,0.2,0.2,0.3,0.4c0.1,0.3,0.1,0.6,0.3,0.9
			c0.2,0.3,0.5,0.5,0.9,0.4c0.3-0.1,0.5-0.3,0.5-0.7c0.1-0.6-0.2-1.1-0.6-1.5c-0.5-0.5-1.1-0.9-1.6-1.4c-0.9-0.8-1.1-1.7-0.8-2.8
			c0.1-0.6,0.5-1,1-1.3c0.7-0.3,1.4-0.3,2.1-0.1c0.8,0.3,1.5,1.4,1.3,2.1c0,0.1-0.2,0.2-0.3,0.2c-0.4,0.1-0.7,0.1-1.1,0.1
			c0,0,0-0.3-0.1-0.4c-0.1-0.3-0.2-0.6-0.4-0.8c-0.4-0.4-1.1,0-1.1,0.5c-0.1,0.5,0.1,0.9,0.4,1.2c0.5,0.4,0.9,0.8,1.4,1.3
			c0.7,0.7,1.3,1.4,1.3,2.5C45.5,49.4,44.6,50.3,43.2,50.3z"/>
		<path class="st0" d="M58.5,32.6c0,0.3,0.1,0.5,0.1,0.7c0.1,0.2,0.2,0.5,0.3,0.7c0.2,0.3,0.5,0.4,0.8,0.3c0.3-0.1,0.5-0.4,0.5-0.7
			c0-0.5-0.1-1-0.5-1.3c-0.5-0.5-1-1-1.6-1.4c-0.9-0.7-1.2-1.6-1-2.7c0.1-0.3,0.2-0.7,0.4-0.9c0.5-0.7,1.8-1,2.8-0.6
			c0.8,0.3,1.4,1.1,1.3,2.1c0,0.1-0.1,0.2-0.2,0.3c-0.4,0.1-0.8,0.2-1.2,0.2c-0.1-0.3-0.1-0.6-0.2-0.9c-0.1-0.4-0.4-0.6-0.8-0.6
			c-0.4,0-0.6,0.3-0.6,0.7c0,0.5,0.2,0.9,0.6,1.2c0.5,0.5,1.1,1,1.6,1.5c0.7,0.7,1.1,1.6,0.9,2.7c-0.1,0.7-0.4,1.2-1,1.5
			c-1.5,0.8-3.2,0-3.6-1.6c0-0.2-0.1-0.4-0.1-0.6c0-0.1,0.1-0.3,0.2-0.3C57.7,32.8,58.1,32.7,58.5,32.6z"/>
		<path class="st0" d="M73.1,47.2c0.1,0.4,0.1,0.6,0.2,0.9c0.1,0.2,0.2,0.5,0.4,0.6c0.2,0.1,0.5,0.2,0.7,0.1
			c0.2-0.1,0.4-0.4,0.4-0.6c0.1-0.5-0.1-1-0.5-1.4c-0.5-0.5-1-0.9-1.5-1.4c-0.7-0.6-1.1-1.3-1.1-2.3c0.1-1.5,1.1-2.3,2.6-2.1
			c1.3,0.1,1.8,1,1.9,2.2c0,0.1-0.1,0.2-0.2,0.3c-0.4,0.1-0.8,0.2-1.2,0.2c-0.1-0.3-0.1-0.6-0.1-0.8c-0.1-0.5-0.4-0.7-0.8-0.6
			c-0.4,0-0.6,0.3-0.6,0.8s0.2,0.8,0.6,1.2c0.5,0.4,0.9,0.8,1.4,1.2c0.6,0.5,1,1.2,1.1,2c0.2,1.7-1,2.9-2.7,2.7
			c-1.4-0.2-1.9-1.3-2-2.5c0-0.1,0.1-0.2,0.2-0.2C72.3,47.4,72.7,47.3,73.1,47.2z"/>
		<path class="st0" d="M110.1,29.2c-0.1-0.3-0.1-0.6-0.2-0.9c-0.1-0.5-0.4-0.7-0.9-0.6c-0.4,0.1-0.6,0.4-0.6,0.8
			c0,0.5,0.3,0.8,0.6,1.1c0.5,0.4,0.9,0.8,1.4,1.2c0.8,0.8,1.3,1.7,1.1,2.8c-0.1,0.7-0.4,1.2-1.1,1.6c-1.4,0.8-3.2,0-3.6-1.6
			c0-0.1,0-0.2-0.1-0.2c-0.1-0.7-0.1-0.7,0.6-0.8c0.2-0.1,0.5-0.1,0.8-0.1c0,0.3,0.1,0.5,0.1,0.7s0.1,0.4,0.2,0.5
			c0.2,0.4,0.5,0.6,0.9,0.5s0.5-0.4,0.5-0.9s-0.2-0.9-0.5-1.2c-0.5-0.5-1-0.9-1.5-1.3c-0.9-0.8-1.3-1.7-1-2.9
			c0.3-1.1,1.4-1.7,2.7-1.5c1.3,0.2,1.7,1.1,1.8,2.2c0,0.1-0.1,0.2-0.1,0.2C110.9,29.1,110.5,29.2,110.1,29.2z"/>
		<path class="st0" d="M72.6,18.1c0.1,0.4,0.1,0.7,0.2,1c0.1,0.2,0.3,0.5,0.5,0.7c0.5,0.3,1,0,1-0.5c0.1-0.6-0.1-1.1-0.6-1.5
			c-0.5-0.5-1.1-1-1.6-1.4c-0.8-0.7-1.1-1.6-0.9-2.6c0.1-0.4,0.2-0.8,0.5-1c0.7-0.8,1.7-0.8,2.6-0.6s1.2,0.9,1.3,1.7
			c0.1,0.6,0.1,0.6-0.5,0.7H75c-0.7,0.1-0.7,0.1-0.9-0.5c-0.2-0.7-0.7-1-1.2-0.6c-0.3,0.2-0.4,0.8-0.2,1.2c0.1,0.3,0.4,0.5,0.6,0.7
			c0.5,0.5,1,0.9,1.5,1.4c0.8,0.8,1.1,1.7,0.9,2.8c-0.1,0.6-0.4,1-0.9,1.3c-0.9,0.5-1.8,0.5-2.6,0c-0.8-0.5-1.1-1.3-1.1-2.2
			c0-0.1,0.1-0.2,0.2-0.3C71.8,18.2,72.2,18.1,72.6,18.1z"/>
		<path class="st0" d="M41,16.5c0-1.3,0-2.7,0-4c0-0.4,0.1-0.5,0.5-0.5c0.6,0,1.2,0,1.9,0c1.9,0,2.6,1,2.5,2.8
			C45.7,16.4,45,17,43.4,17c-0.8,0-0.8,0-0.8,0.8c0,0.9,0,1.8,0,2.7c0,0.3-0.1,0.5-0.5,0.5C41,21,41,21,41,19.8
			C41,18.7,41,17.6,41,16.5z M44.2,14.5c0-1.1-0.3-1.3-1.3-1.2c-0.1,0-0.3,0.1-0.3,0.2c0,0.7,0,1.5,0,2.2c0,0.1,0.1,0.2,0.2,0.2
			c0.8,0.2,1.4-0.2,1.4-1C44.3,14.7,44.2,14.6,44.2,14.5z"/>
		<path class="st0" d="M104.3,35.6c-0.5,0-1,0-1.5,0c-0.3,0-0.4-0.1-0.4-0.4c0-2.7,0-5.5,0-8.2c0-0.3,0.1-0.4,0.4-0.4
			c1,0,2.1,0,3.1,0c0.3,0,0.4,0.1,0.4,0.4c0,1,0,0.8-0.8,0.8c-0.3,0-0.7,0-1,0c-0.2,0-0.3,0.1-0.3,0.3c0,0.6,0,1.3,0,1.9
			c0,0.1,0.2,0.3,0.3,0.3c0.3,0,0.7,0,1.1,0c0.1,0,0.3,0.2,0.3,0.3c0,1.1,0.1,0.9-0.9,0.9c-0.9,0-0.8-0.1-0.8,0.8c0,0.5,0,1.1,0,1.6
			c0,0.3,0.1,0.5,0.4,0.4c0.4,0,0.9,0,1.3,0c0.3,0,0.4,0.1,0.4,0.4c0,0.8,0,0.8-0.8,0.8C105,35.6,104.7,35.6,104.3,35.6z"/>
		<path class="st0" d="M41,31.1c0-1.3,0-2.7,0-4c0-0.3,0.1-0.5,0.4-0.4c1,0,1.9,0,2.9,0c0.3,0,0.5,0.1,0.5,0.4
			c0,0.9,0.1,0.8-0.8,0.8c-0.3,0-0.7,0-1,0c-0.2,0-0.3,0.1-0.3,0.3c0,0.6,0,1.2,0,1.9c0,0.2,0.1,0.3,0.3,0.3c0.3,0,0.7,0,1,0
			s0.4,0.1,0.4,0.4c0,1,0.1,0.8-0.8,0.9c-0.9,0-0.8-0.1-0.8,0.8c0,0.6,0,1.1,0,1.7c0,0.3,0.1,0.4,0.4,0.4c0.4,0,0.9,0,1.3,0
			c0.3,0,0.4,0.1,0.4,0.4c0,0.9,0.1,0.8-0.8,0.8c-0.8,0-1.7,0-2.5,0c-0.4,0-0.5-0.1-0.5-0.5C41,33.8,41,32.4,41,31.1z"/>
		<path class="st0" d="M53.3,19.8c0.7,0,1.3,0,2,0c0.4,0,0.5,0.1,0.5,0.5c0,0.1,0,0.3,0,0.4S55.6,21,55.5,21c-1.2,0-2.4,0-3.5,0
			c-0.1,0-0.3-0.2-0.3-0.3c0-0.4,0-0.8,0.1-1.2c0.7-2,1.4-3.9,2-5.9c0-0.1,0.1-0.2,0.1-0.4c-0.6,0-1.1,0-1.6,0
			c-0.2,0-0.5-0.1-0.5-0.1c0-0.3,0-0.7,0-1c0,0,0.2-0.1,0.3-0.1c1.1,0,2.2,0,3.3,0c0.2,0,0.4,0.1,0.3,0.3c0,0.3,0,0.6-0.1,0.9
			c-0.7,2-1.4,4-2.1,5.9C53.4,19.4,53.4,19.6,53.3,19.8z"/>
		<path class="st0" d="M63.6,31.7c0-1.1,0-2.2,0-3.4c0-0.4-0.1-0.5-0.5-0.5H63c-1,0-0.9,0.2-0.9-1c0-0.1,0.2-0.3,0.3-0.3
			c1.3,0,2.7,0,4,0c0.1,0,0.2,0.2,0.3,0.3l0,0c0.1,0.9,0.1,0.9-0.9,0.9c-0.6,0-0.6,0-0.6,0.6c0,2.2,0,4.4,0,6.6
			c0,0.4-0.1,0.6-0.5,0.5c-0.3,0-0.5,0-0.8,0s-0.4-0.1-0.4-0.4C63.6,34,63.6,32.9,63.6,31.7z"/>
		<path class="st0" d="M71.3,31.7c0-1.2,0-2.3,0-3.5c0-0.3-0.1-0.4-0.4-0.4c-0.1,0-0.2,0-0.3,0c-0.8,0-1-0.2-0.8-1.1
			c0-0.1,0.2-0.2,0.3-0.2c1.4,0,2.7,0,4.1,0c0.1,0,0.2,0.1,0.2,0.1c0,0.3,0,0.6,0,1c0,0.1-0.1,0.1-0.2,0.1s-0.2,0-0.4,0
			c-1,0-0.8-0.1-0.9,0.9c0,2.1,0,4.2,0,6.3c0,0.4-0.1,0.6-0.5,0.5c-0.3,0-0.5,0-0.8,0s-0.4-0.1-0.4-0.4C71.3,34,71.3,32.9,71.3,31.7
			z"/>
		<path class="st0" d="M77.7,17.2c0-1,0-2.1,0-3.1c0-0.9,0.1-0.8-0.8-0.8c-0.1,0-0.2,0-0.3,0c-0.3,0-0.4-0.1-0.4-0.4
			c0-1-0.1-0.8,0.8-0.8c1.1,0,2.2,0,3.4,0c0.3,0,0.5,0.1,0.5,0.4c0,0.9,0.1,0.8-0.8,0.8c-0.1,0-0.1,0-0.2,0
			c-0.4-0.1-0.5,0.1-0.5,0.5c0,2.3,0,4.5,0,6.8c0,0.4-0.1,0.5-0.5,0.5c-1.2,0-1.2,0-1.2-1.2C77.7,18.9,77.7,18.1,77.7,17.2z"/>
		<path class="st0" d="M52.6,45.7c0-1.3,0-2.7,0-4c0-0.4,0.1-0.5,0.5-0.5c0.2,0,0.5,0,0.7,0c0.4,0,0.5,0.1,0.5,0.5
			c0,2.2,0,4.5,0,6.7c0,0.4,0.1,0.5,0.5,0.5s0.8,0,1.2,0c0.3,0,0.4,0.1,0.4,0.4c0,0.9,0.1,0.8-0.8,0.8c-0.8,0-1.7,0-2.5,0
			c-0.4,0-0.5-0.1-0.5-0.5C52.6,48.3,52.5,47,52.6,45.7z"/>
		<path class="st0" d="M35.3,100.6c0,0.4,0,0.8,0,1.3c0,1.1-0.6,1.6-1.8,1.6c-1,0-1.5-0.6-1.5-1.6c0-0.9,0-1.7,0-2.6
			c0-1,0.6-1.5,1.5-1.5c1.3,0,1.8,0.5,1.8,1.8c0,0.1,0,0.1,0,0.2C35.3,100.1,35.3,100.3,35.3,100.6L35.3,100.6z"/>
		<path class="st0" d="M63.9,15.9c0,1.3,0.1,2.5,0,3.8c-0.1,1-0.5,1.4-1.6,1.5c-0.1,0-0.3,0-0.4,0c-0.9,0-0.8,0.1-0.8-0.8
			c0-0.3,0-0.4,0.3-0.4c0.7-0.1,0.8-0.3,0.8-1c0-2.1,0-4.3,0-6.4c0-0.6,0-0.6,0.6-0.6c1.1,0,1.1,0,1.1,1.1
			C63.9,14,63.9,15,63.9,15.9L63.9,15.9z"/>
		<path class="st0" d="M87.3,31.1c0-1.4,0-2.7,0-4.1c0-0.3,0.1-0.4,0.4-0.4c1.2,0,1.2,0,1.2,1.2c0,2.4,0,4.9,0,7.3
			c0,0.4-0.1,0.5-0.5,0.5c-1.1,0-1.1,0-1.1-1.1C87.3,33.3,87.3,32.2,87.3,31.1z"/>
		<path class="st0" d="M90.5,16.5c0-1.4,0-2.7,0-4.1c0-0.3,0.1-0.4,0.4-0.4c1.2,0,1.2,0,1.2,1.2c0,2.4,0,4.8,0,7.3
			c0,0.4-0.1,0.5-0.5,0.5c-1.2,0-1.2,0-1.2-1.1C90.5,18.8,90.5,17.6,90.5,16.5z"/>
		<path class="st0" d="M69.1,31.1c0,1.3,0,2.7,0,4c0,0.4-0.1,0.5-0.5,0.5c-1.2,0-1.2,0-1.2-1.2c0-2.4,0-4.9,0-7.3
			c0-0.4,0.1-0.5,0.5-0.5c1.1,0,1.1,0,1.1,1.1C69.1,28.9,69.1,30,69.1,31.1z"/>
		<path class="st0" d="M81.6,16.5c0-1.4,0-2.7,0-4.1c0-0.3,0.1-0.5,0.4-0.4c0.2,0,0.5,0,0.7,0c0.5,0,0.5,0,0.5,0.5
			c0,2.2,0,4.3,0,6.5c0,0.5,0,1.1,0,1.6c0,0.3-0.1,0.4-0.4,0.4c-1.3,0.1-1.3,0.1-1.3-1.2C81.6,18.7,81.6,17.6,81.6,16.5z"/>
		<path class="st0" d="M48.4,31.1c0-1.4,0-2.7,0-4.1c0-0.3,0.1-0.4,0.4-0.4c1.2,0,1.2,0,1.2,1.2c0,2.4,0,4.8,0,7.2
			c0,0.4-0.1,0.6-0.5,0.5c-0.2,0-0.5,0-0.7,0c-0.3,0-0.4-0.1-0.4-0.4C48.4,33.8,48.4,32.4,48.4,31.1z"/>
		<path class="st0" d="M58.9,45.7c0,1.3,0,2.7,0,4c0,0.4-0.1,0.5-0.5,0.5c-0.2,0-0.5,0-0.7,0c-0.4,0-0.5-0.1-0.5-0.5
			c0-2.4,0-4.9,0-7.3c0-0.3,0-0.5,0-0.8s0.1-0.4,0.4-0.4c0.3,0,0.5,0,0.8,0s0.4,0.1,0.4,0.4C58.9,43,58.9,44.3,58.9,45.7z"/>
		<path class="st0" d="M90.9,56.1c-0.1,1-0.4,2.1-1.5,2.9c-0.7,0.5-1.6,0.6-2.4,0.6c-0.2,0-0.3-0.1-0.3-0.3c0-2.2,0.9-3.8,3.4-4
			c0.1,0,0.1,0,0.2,0C90.9,55.2,91,55.2,90.9,56.1z"/>
		<path class="st0" d="M83.9,61.3c-2.4-1.3-2.9-3.4-1.3-5.6C85.1,56.9,85.5,59.2,83.9,61.3z"/>
		<path class="st0" d="M78.5,61.7c0-0.8,0.3-1.6,0.8-2.3c0.1-0.1,0.3-0.2,0.3-0.1c1.2,0.5,2.1,1.9,2,3.1c0,0.8-0.3,1.5-0.8,2.2
			c0,0.1-0.2,0.1-0.3,0.1C79.5,64.3,78.5,62.8,78.5,61.7z"/>
		<path class="st0" d="M85.7,63.1c0.9-1.6,2.9-2.1,4.5-1c0.9,0.6,0.9,0.5,0.1,1.3C88.8,64.6,87.1,64.6,85.7,63.1z"/>
		<path class="st0" d="M87.9,66.7c-1.7,1.6-3.8,1.5-5.1-0.6C84.4,64.5,86.6,64.6,87.9,66.7z"/>
		<path class="st0" d="M57.2,21.1C57.1,21,57.1,21,57,21c-0.2,0-0.6-0.1-0.6-0.1c-0.1-0.4,0-0.8,0-1.2c0,0,0.2-0.1,0.3-0.1
			c0.3,0,0.7,0,1,0c0.1,0,0.3,0.2,0.3,0.3c0,0.4,0,0.9,0,1.3c0,0.8-0.5,1.2-1.2,1.3c-0.2-0.3-0.3-0.5,0.1-0.7
			C57,21.6,57.1,21.4,57.2,21.1z"/>
		<path class="st0" d="M48.4,40.4c0.2-0.7,0.4-1.3,0.6-2c0-0.1,0.2-0.2,0.3-0.2c0.4,0,0.8,0,1.3,0c-0.1,0.2-0.2,0.3-0.2,0.5
			c-0.3,0.4-0.5,0.9-0.8,1.3C49.2,40.5,49.2,40.6,48.4,40.4z"/>
	</g>
</g>
</svg>
