<?xml version="1.0" encoding="utf-8"?>
<!-- Generator: Adobe Illustrator 24.3.0, SVG Export Plug-In . SVG Version: 6.00 Build 0)  -->
<svg version="1.1" id="Layer_1" xmlns="http://www.w3.org/2000/svg" xmlns:xlink="http://www.w3.org/1999/xlink" x="0px" y="0px"
	 viewBox="0 0 125 125" style="enable-background:new 0 0 125 125;" xml:space="preserve">
<style type="text/css">
	.st0{fill:#19486A;}
</style>
<g>
	<g>
		<path class="st0" d="M94.6,76c-0.1,5.1-2.1,9.3-5.9,12.6c-0.3,0.3-0.4,0.5-0.3,0.9c2.3,9.1-3.7,18.4-12.9,20
			c-4.2,0.8-8.1,0-11.7-2.2c-0.3-0.2-0.5-0.2-0.8,0c-2.9,1.9-6.1,2.7-9.5,2.6c-7.8-0.3-14.3-6-15.6-13.7c-0.4-2.3-0.3-4.5,0.3-6.7
			c0.1-0.4,0-0.6-0.3-0.8c-3.3-2.8-5.3-6.4-5.8-10.7c-1-8.7,4.9-16.5,13.2-18c0.7-0.1,1.4-0.2,2.1-0.3c0.3,0,0.4-0.1,0.6-0.4
			c2.3-5.5,6.3-9,12.2-10.2c7.7-1.6,15.5,2.7,18.4,10.1c0.2,0.4,0.4,0.6,0.8,0.6c3.9,0.3,7.3,1.8,10.2,4.5c2.8,2.7,4.5,6.1,4.9,10
			C94.6,74.8,94.6,75.4,94.6,76z M51.4,59.8c2.6,0.5,5,1.5,7.1,3.1c2.1,1.6,3.7,3.6,4.9,6c1.2-2.5,2.8-4.4,4.9-6
			c2.1-1.6,4.4-2.6,7-3.1c-1.5-3.8-6-8.1-12.6-7.8c-2.9,0.1-5.5,1.2-7.7,3C53.4,56.4,52.2,57.9,51.4,59.8z M39.7,85.6
			c2.8-4.8,6.9-7.6,12.4-8.5c-4-3.9-5.7-8.6-5.2-14.1c-4.1,0.3-9.1,3.3-10.9,8.8C34.3,77.2,36.2,82.6,39.7,85.6z M41.4,90.9
			c-0.9,3.5,0,9.5,5.1,13.2c4.8,3.5,10.7,3,14.1,0.7c-3.7-4.1-5.1-8.8-4.3-14.3C51.4,93,46.4,93.1,41.4,90.9z M79.7,63.1
			c0.5,5.4-1.2,10.1-5.1,14c5.5,0.9,9.6,3.7,12.4,8.5c3.6-3.1,5.4-8.7,3.5-14C88.5,66.1,83.5,63.3,79.7,63.1z M85.3,90.9
			c-5,2.2-10,2.1-15-0.4c0.5,2.6,0.4,5.2-0.4,7.6c-0.7,2.5-2,4.7-3.8,6.6c3.6,2.2,9.6,2.6,14.3-1C85.3,100,86.2,94.2,85.3,90.9z
			 M66.5,81.8c0.1,0.1,0.1,0.2,0.2,0.3c3.2,6.1,11,8.7,17.1,5.7c0.3-0.2,0.3-0.3,0.2-0.6c-2.7-5-8.3-7.7-13.9-6.7
			C68.9,80.8,67.7,81.2,66.5,81.8z M63.3,84.2c-2.1,1.9-4.3,5.9-3.8,10.6c0.4,3.1,1.6,5.7,3.9,7.9C68.4,97.8,68.5,89.2,63.3,84.2z
			 M60.1,81.9c-6.1-3.3-14.4-0.8-17.5,5.7C48.5,90.9,56.9,88.5,60.1,81.9z M65.3,78c3.8-0.7,6.8-2.6,9-5.8c1.8-2.7,2.4-5.8,1.9-9
			C68.8,64.2,64.1,71.4,65.3,78z M50.4,63.1c-0.5,3.8,0.4,7.1,2.7,10.1c2.1,2.6,4.9,4.2,8.2,4.8C62.5,71.4,57.9,64.2,50.4,63.1z"/>
		<path class="st0" d="M19.6,34.7c1.7-6.8,3.3-13.6,5-20.4c-0.2,0-0.4,0-0.6,0c-1.8,0-3.6,0-5.4,0c-0.4,0-0.6-0.1-0.6-0.5
			c0-0.9,0-1.7,0-2.6c0-0.3,0.1-0.4,0.4-0.4c3.4,0,6.8,0,10.2,0c0.3,0,0.4,0.1,0.4,0.4c0.2,2.1-0.4,4.1-0.9,6.1
			c-1.4,5.6-2.7,11.2-4.1,16.8c-0.1,0.5-0.3,0.6-0.8,0.6c-1.1,0-2.2,0-3.3,0C19.9,34.7,19.8,34.7,19.6,34.7z"/>
		<path class="st0" d="M10.8,15.6c-1.2,0.4-2.3,0.8-3.5,1.2c0-0.4,0-0.7,0-1c0-0.7,0-1.4,0-2.1c0-0.2,0.1-0.4,0.3-0.5
			c1.5-0.6,2.9-1.3,4.1-2.4c0.1-0.1,0.3-0.1,0.4-0.1c0.9,0,1.9,0,2.8,0c0.4,0,0.5,0.2,0.5,0.5c0,5.9,0,11.8,0,17.7
			c0,1.8,0,3.5,0,5.3c0,0.4-0.1,0.5-0.5,0.5c-1.2,0-2.4,0-3.7,0c-0.4,0-0.5-0.1-0.5-0.5c0-6,0-12,0-18C10.8,16,10.8,15.9,10.8,15.6z
			"/>
		<path class="st0" d="M68.3,30.2c0,1.4,0,2.8,0,4.2c0,0.3-0.1,0.5-0.4,0.5c-0.3,0-0.6,0-0.8,0c-0.4,0-0.5-0.1-0.5-0.5
			c0-1,0-2.1,0-3.1c0-0.4-0.1-0.6-0.5-0.5c-0.4,0-0.9-0.1-1.1,0.1c-0.2,0.2-0.1,0.8-0.1,1.2c0,0.8,0,1.6,0,2.5
			c0,0.3-0.1,0.4-0.4,0.4c-0.3,0-0.6,0-1,0c-0.3,0-0.4-0.1-0.4-0.4c0-0.5,0-0.9,0-1.4c0-2.3,0-4.6,0-6.8c0-0.6,0-0.6,0.5-0.6
			c1.2,0,1.2,0,1.2,1.2c0,0.7,0,1.5,0,2.2c0,0.3,0.1,0.4,0.4,0.4c0.3,0,0.6,0,1,0c0.3,0,0.4-0.1,0.4-0.4c0-1,0-2,0-3
			c0-0.4,0.1-0.5,0.5-0.5c1.3,0,1.3,0,1.3,1.3C68.3,28,68.3,29.1,68.3,30.2z"/>
		<path class="st0" d="M76.9,19.9c-0.5,0-1,0-1.5,0c-0.1,0-0.3-0.2-0.3-0.4c-0.3-1.1-0.6-2.3-0.9-3.4c0-0.1-0.2-0.3-0.3-0.3
			c-0.3-0.1-0.5,0-0.5,0.4c0,1.1,0,2.2,0,3.2c0,0.4-0.1,0.5-0.5,0.5c-1.2,0-1.2,0-1.2-1.3c0-2.5,0-5,0-7.4c0-0.4,0.1-0.5,0.5-0.5
			c0.8,0,1.6,0,2.3,0.1c1.8,0.1,2.4,1.2,2.2,2.9c-0.1,0.7-0.3,1.3-0.9,1.7c-0.1,0-0.1,0.3-0.1,0.4c0.3,1.2,0.7,2.5,1,3.7
			C76.8,19.6,76.8,19.7,76.9,19.9z M73.4,13.3c0,0.3,0,0.7,0,1c0,0.1,0.1,0.3,0.1,0.3c0.3,0.2,1.1-0.1,1.3-0.4
			c0.4-0.6,0.3-1.2,0.1-1.8c-0.2-0.5-0.8-0.5-1.2-0.5c-0.2,0-0.3,0.1-0.3,0.3C73.4,12.6,73.4,13,73.4,13.3z"/>
		<path class="st0" d="M88.3,15.4c0,1.4,0,2.7,0,4.1c0,0.3-0.1,0.5-0.4,0.5c-1.3,0-1.3,0-1.3-1.2c0-0.8,0-1.7,0-2.5
			c0-0.3-0.1-0.4-0.4-0.4c-0.3,0-0.7,0-1,0c-0.3,0-0.4,0.1-0.4,0.4c0,1.1,0,2.1,0,3.2c0,0.4-0.1,0.6-0.5,0.5c-0.3,0-0.5,0-0.8,0
			c-0.3,0-0.4-0.1-0.4-0.4c0-2.8,0-5.6,0-8.3c0-0.4,0.1-0.5,0.5-0.4c0.3,0,0.6,0,0.9,0c0.3,0,0.4,0.1,0.4,0.4c0,1,0,2,0,3
			c0,0.3,0.1,0.4,0.4,0.4c0.3,0,0.7,0,1,0c0.3,0,0.4-0.1,0.4-0.4c0-1,0-2,0-3c0-0.4,0.1-0.5,0.5-0.5c0.3,0,0.6,0,0.8,0
			c0.3,0,0.4,0.1,0.4,0.4C88.3,12.6,88.3,14,88.3,15.4z"/>
		<path class="st0" d="M44.1,30.2c0-0.7,0-1.3,0-2c0-1.9,1.2-2.9,3.1-2.6c1.4,0.2,2.1,0.9,2.2,2.6c0.1,1.5,0,3.1,0,4.6
			c-0.1,1.4-0.8,2.1-2.2,2.2c-0.5,0.1-1,0-1.4-0.1c-1-0.2-1.4-1-1.6-1.9C44.1,32.1,44.1,31.2,44.1,30.2C44,30.2,44.1,30.2,44.1,30.2
			z M45.8,30.3C45.8,30.3,45.8,30.3,45.8,30.3c0,0.1,0,0.2,0,0.3c0,0.7,0,1.5,0,2.2c0,0.6,0.3,0.8,0.8,0.9c0.6,0,0.9-0.2,0.9-0.8
			c0-1.8,0.1-3.5,0-5.3c0-0.6-0.5-0.9-1.1-0.7c-0.4,0.1-0.6,0.4-0.6,0.9C45.8,28.7,45.8,29.5,45.8,30.3z"/>
		<path class="st0" d="M87.2,30.3c0,0.9,0.1,1.7,0,2.6c-0.1,1.3-0.8,1.9-2.1,2.1c-0.5,0.1-1,0-1.5-0.1c-0.9-0.2-1.5-0.9-1.6-2
			c-0.1-0.6-0.1-1.2-0.1-1.8c0-1,0-2.1,0.1-3.1c0.1-1.9,1.3-2.5,3-2.4c1.5,0.1,2.2,1,2.3,2.7C87.3,29,87.3,29.6,87.2,30.3
			C87.2,30.3,87.2,30.3,87.2,30.3z M85.5,30.3C85.5,30.3,85.5,30.3,85.5,30.3c0-0.7,0-1.4,0-2.1c0-0.2,0-0.4,0-0.6
			c-0.1-0.6-0.7-0.9-1.3-0.7c-0.4,0.2-0.5,0.6-0.5,1c0,1.5,0,3.1,0,4.6c0,0.2,0,0.4,0.1,0.6c0.1,0.3,0.3,0.5,0.7,0.5
			c0.7,0.1,1-0.2,1-1C85.5,31.9,85.5,31.1,85.5,30.3z"/>
		<path class="st0" d="M54.7,15.5c0.4,1.5,0.8,2.9,1.3,4.5c-0.6,0-1.1,0-1.6,0c-0.1,0-0.2-0.2-0.2-0.4c-0.3-1.1-0.6-2.3-0.9-3.4
			c0-0.2-0.1-0.4-0.4-0.4c-0.3,0-0.4,0.1-0.4,0.4c0,1.1,0,2.2,0,3.3c0,0.3-0.1,0.5-0.4,0.5c-1.3,0-1.3,0-1.3-1.3c0-2.5,0-4.9,0-7.4
			c0-0.6,0-0.6,0.6-0.6c0.8,0,1.7,0,2.5,0.1c1.3,0.1,1.9,0.9,2,2.2c0,0.1,0,0.3,0,0.4C55.7,14.2,55.6,15,54.7,15.5z M52.4,14.6
			c1.1,0.2,1.7-0.2,1.7-1.3c0-0.1,0-0.2,0-0.2c-0.1-0.8-0.7-1.3-1.5-1.1c-0.1,0-0.2,0.2-0.2,0.2C52.4,13,52.4,13.8,52.4,14.6z"/>
		<path class="st0" d="M54.2,30.4c0.4,1.5,0.8,2.9,1.2,4.5c-0.6,0-1.1,0-1.6,0c-0.1,0-0.2-0.2-0.3-0.4c-0.3-1.1-0.6-2.3-0.9-3.4
			c-0.1-0.2-0.1-0.4-0.4-0.4c-0.3,0-0.4,0.1-0.4,0.4c0,1.1,0,2.2,0,3.4c0,0.3-0.1,0.4-0.4,0.4c-0.3,0-0.6,0-1,0
			c-0.2,0-0.3-0.1-0.3-0.3c0-2.8,0-5.7,0-8.5c0-0.2,0.1-0.3,0.3-0.3c0.9,0,1.9,0,2.8,0.1c1.3,0.1,1.9,0.9,1.9,2.2c0,0.1,0,0.3,0,0.4
			C55.3,29.2,55,29.9,54.2,30.4z M51.9,28.2c0,0.3,0,0.7,0,1c0,0.1,0.1,0.2,0.1,0.3c0.3,0.2,1.1,0,1.3-0.3c0.4-0.6,0.4-1.2,0.1-1.8
			c-0.2-0.6-0.8-0.5-1.3-0.5c-0.1,0-0.3,0.2-0.3,0.3C51.9,27.6,51.9,27.9,51.9,28.2z"/>
		<path class="st0" d="M64.6,15.7c0-0.2,0-0.4,0-0.5c0-1.3,0-2.7,0-4c0-0.3,0.1-0.4,0.4-0.4c1.2,0,1-0.2,1,1c0,2.6,0,5.1,0,7.7
			c0,0.2,0.1,0.5-0.2,0.5c-0.5,0.1-0.9,0-1.1-0.3c-0.6-1.4-1.2-2.9-1.8-4.3c-0.1-0.2-0.1-0.3-0.3-0.5c0,0.1,0,0.3,0,0.4
			c0,1.4,0,2.9,0,4.3c0,0.3-0.1,0.5-0.5,0.5c-1,0-1,0-1-1c0-2.6,0-5.1,0-7.7c0-0.6,0-0.5,0.5-0.6c0.5-0.1,0.8,0.2,0.9,0.6
			c0.5,1.3,1.1,2.7,1.7,4C64.5,15.4,64.5,15.5,64.6,15.7z"/>
		<path class="st0" d="M79.9,34.2c-0.8,1.4-3.2,1-3.6-0.4c-0.2-0.5-0.3-1.1-0.3-1.6c0-1.2,0-2.5,0-3.7c0-0.3,0-0.7,0.1-1
			c0.3-1.4,1.3-2,2.9-1.8c1.8,0.2,2.2,1.4,2.1,2.9c0,0.1-0.1,0.2-0.2,0.2c-0.1,0-0.2,0-0.2,0c-0.4,0-0.8,0.1-1-0.1
			c-0.2-0.2-0.1-0.7-0.2-1c-0.1-0.5-0.3-0.8-0.8-0.8c-0.5,0-0.9,0.3-0.9,0.8c0,1.7,0,3.4,0,5.2c0,0.6,0.3,0.8,0.8,0.9
			c0.6,0,0.9-0.2,1-0.8c0-0.2,0.1-0.5,0.1-0.7c0-0.2,0.1-0.6,0-0.7c-0.1-0.1-0.5-0.1-0.7-0.1c-0.1,0-0.2-0.2-0.2-0.2
			c-0.1-0.8-0.1-0.9,0.7-0.9c0.5,0,0.9,0,1.4,0c0.3,0,0.4,0.1,0.4,0.4c0,1.3,0,2.6,0,4c0,0.3-0.1,0.4-0.4,0.4
			C80.1,34.9,80.1,34.9,79.9,34.2z"/>
		<path class="st0" d="M44.6,19.9c0.1-0.7,0.2-1.3,0.4-1.9c0.5-2.3,0.9-4.6,1.4-6.9c0.1-0.3,0.2-0.4,0.5-0.4c0.2,0,0.4,0,0.7,0
			c0.8,0,0.7,0,0.8,0.7c0.6,2.7,1.1,5.4,1.6,8.1c0,0.1,0,0.2,0.1,0.4c-0.5,0-1,0-1.4,0c-0.1,0-0.2-0.2-0.2-0.3
			c-0.1-0.5-0.2-1-0.3-1.4c0-0.3-0.1-0.4-0.4-0.4c-1.2,0-1.2,0-1.4,1.1c-0.2,1-0.2,1-1.2,1C45.1,19.9,44.9,19.9,44.6,19.9z
			 M47.4,13.4C47.4,13.4,47.4,13.4,47.4,13.4c-0.2,1-0.4,2-0.5,2.9c0,0.1,0.1,0.3,0.2,0.3c0.3,0,0.5,0,0.9,0
			C47.8,15.5,47.6,14.5,47.4,13.4z"/>
		<path class="st0" d="M93.1,34.9c-0.5,0-0.9,0-1.4,0c-0.1,0-0.2-0.2-0.3-0.4c-0.1-0.5-0.2-1-0.3-1.4c0-0.2-0.1-0.3-0.4-0.3
			c-0.1,0-0.2,0-0.3,0c-0.9,0-0.9,0-1.1,0.9c-0.2,1.2-0.2,1.2-1.4,1.2c-0.1,0-0.2,0-0.4,0c0.1-0.4,0.1-0.8,0.2-1.2
			c0.5-2.5,1-5,1.5-7.5c0.1-0.4,0.2-0.6,0.6-0.5c0.3,0,0.6,0,0.9,0c0.2,0,0.4,0.1,0.4,0.3c0.6,2.9,1.2,5.8,1.7,8.6
			C93.1,34.7,93.1,34.7,93.1,34.9z M90.4,28.3C90.4,28.3,90.3,28.3,90.4,28.3c-0.2,0.9-0.3,1.7-0.5,2.6c-0.1,0.8-0.1,0.8,0.7,0.8
			c0.2,0,0.3-0.1,0.3-0.3C90.7,30.3,90.6,29.3,90.4,28.3z"/>
		<path class="st0" d="M92.2,15.3c0-1.4,0-2.7,0-4.1c0-0.4,0.1-0.5,0.5-0.5c0.9,0,1.8,0,2.7,0.1c1,0.1,1.7,0.7,1.8,1.8
			c0.1,0.6,0.1,1.1,0,1.7c-0.2,0.9-0.9,1.5-1.9,1.6c-0.3,0-0.6,0-1,0c-0.3,0-0.4,0.1-0.4,0.4c0,1.1,0,2.2,0,3.2
			c0,0.4-0.1,0.5-0.5,0.5c-1.3,0-1.3,0-1.3-1.3C92.2,17.6,92.2,16.5,92.2,15.3z M93.9,13.3C93.9,13.3,93.9,13.3,93.9,13.3
			c0,0.3,0,0.7,0,1c0,0.1,0.1,0.3,0.2,0.3c1,0.1,1.5-0.1,1.5-1.1c0-0.1,0-0.2,0-0.3c0-1-0.2-1.2-1.2-1.2c-0.3,0-0.5,0.1-0.4,0.4
			C93.9,12.7,93.9,13,93.9,13.3z"/>
		<path class="st0" d="M78.9,16.9c0.1,0.3,0.1,0.6,0.2,0.9c0.1,0.2,0.1,0.4,0.2,0.6c0.2,0.3,0.5,0.4,0.8,0.3
			c0.4-0.1,0.5-0.4,0.5-0.7c0-0.6-0.2-1.1-0.6-1.5c-0.5-0.5-1.1-1-1.7-1.5c-0.9-0.8-1.1-1.8-0.8-2.9c0.1-0.5,0.4-0.9,0.9-1.2
			c0.8-0.4,1.7-0.5,2.5-0.1c0.7,0.3,1.2,1.3,1.2,2.1c0,0.1-0.1,0.2-0.2,0.2c-0.1,0.1-0.2,0.1-0.3,0.1c-0.3,0-0.6,0.2-0.8,0.1
			c-0.2-0.1-0.2-0.5-0.2-0.7c-0.1-0.5-0.4-0.7-0.8-0.7c-0.5,0.1-0.7,0.4-0.6,0.9c0,0.3,0.2,0.7,0.4,0.9c0.4,0.5,0.9,0.9,1.4,1.3
			c0.8,0.7,1.4,1.5,1.4,2.7c0,1.5-1,2.4-2.5,2.3c-1.6-0.1-2.3-1-2.4-2.5c0-0.1,0.1-0.3,0.2-0.4C78.1,17.1,78.5,17,78.9,16.9z"/>
		<path class="st0" d="M101.1,28.4c-0.1-0.4-0.1-0.7-0.2-1c-0.1-0.4-0.4-0.5-0.8-0.4c-0.4,0.1-0.6,0.3-0.6,0.7
			c0,0.5,0.1,0.9,0.4,1.2c0.5,0.4,1,0.9,1.5,1.3c0.7,0.6,1.3,1.4,1.4,2.4c0.1,1.3-0.6,2.3-1.9,2.5c-1.9,0.3-2.9-0.8-3-2.5
			c0-0.1,0.1-0.3,0.2-0.3c0.4-0.1,0.8-0.2,1.3-0.3c0,0.3,0.1,0.5,0.1,0.7c0.1,0.3,0.2,0.6,0.3,0.8c0.2,0.3,0.5,0.4,0.9,0.3
			c0.3-0.1,0.4-0.4,0.5-0.7c0-0.6-0.2-1.1-0.6-1.5c-0.5-0.5-1-0.9-1.6-1.4c-0.8-0.7-1.1-1.5-1-2.5c0.2-1.2,0.9-1.9,2.2-2
			c1.5-0.1,2.4,0.7,2.5,2.3c0,0.1-0.1,0.3-0.2,0.3C101.9,28.2,101.5,28.3,101.1,28.4z"/>
		<path class="st0" d="M99,16.9c0,0.3,0.1,0.6,0.1,0.8c0,0.2,0.1,0.4,0.2,0.5c0.2,0.4,0.5,0.5,0.9,0.4c0.4-0.1,0.5-0.4,0.5-0.8
			c0-0.6-0.3-1-0.7-1.4c-0.5-0.5-1.1-0.9-1.6-1.4c-0.9-0.8-1.1-1.7-0.9-2.8c0.1-0.6,0.5-1.1,1.1-1.4c0.7-0.3,1.4-0.3,2.1-0.1
			c0.8,0.3,1.5,1.4,1.4,2.2c0,0.1-0.1,0.2-0.2,0.2c-0.4,0.1-0.8,0.2-1.2,0.2c0-0.3-0.1-0.5-0.1-0.7c-0.1-0.6-0.5-0.9-0.9-0.7
			c-0.5,0.1-0.7,0.5-0.6,1.1c0.1,0.3,0.3,0.6,0.5,0.8c0.6,0.6,1.2,1.1,1.7,1.6c0.6,0.6,1,1.4,1,2.3c0,1.4-1.1,2.4-2.5,2.3
			c-1.8-0.1-2.2-1.3-2.3-2.6c0-0.1,0.1-0.3,0.2-0.3C98.2,17.1,98.6,17,99,16.9z"/>
		<path class="st0" d="M39.9,15.3c0-1.4,0-2.7,0-4.1c0-0.4,0.1-0.5,0.5-0.5c0.7,0,1.4,0,2.2,0c1.5,0,2.3,0.8,2.4,2.3
			c0,0.1,0,0.1,0,0.2c0,1.8-0.7,2.6-2.6,2.6c-0.1,0-0.2,0-0.3,0c-0.3,0-0.4,0.1-0.4,0.4c0,1.1,0,2.1,0,3.2c0,0.3-0.1,0.5-0.5,0.5
			c-0.3,0-0.6,0-0.8,0c-0.4,0-0.5-0.1-0.5-0.5C39.9,18.1,39.9,16.7,39.9,15.3z M41.7,13.3c0,0.3,0,0.7,0,1c0,0.1,0.1,0.3,0.1,0.3
			c0.7,0.3,1.4-0.2,1.5-0.9c0-0.4,0-0.7,0-1.1c0-0.4-0.3-0.6-0.7-0.6c-0.2,0-0.4,0-0.6,0c-0.1,0-0.3,0.2-0.3,0.3
			C41.7,12.6,41.7,13,41.7,13.3z"/>
		<path class="st0" d="M69.2,30.2c0-1.4,0-2.7,0-4.1c0-0.4,0.1-0.5,0.5-0.4c1,0,2,0,3,0c0.4,0,0.5,0.1,0.5,0.5
			c0,0.9,0.1,0.8-0.8,0.8c-0.3,0-0.7,0-1,0c-0.2,0-0.4,0.1-0.4,0.3c0,0.6,0,1.3,0,1.9c0,0.3,0.1,0.3,0.4,0.3c0.3,0,0.7,0,1,0
			c0.3,0,0.4,0.1,0.4,0.4c0,1.1,0.1,0.9-0.9,0.9c-1,0-0.9-0.1-0.9,0.9c0,0.5,0,1.1,0,1.6c0,0.3,0.1,0.5,0.4,0.4c0.5,0,0.9,0,1.4,0
			c0.3,0,0.4,0.1,0.4,0.4c0,1,0,0.8-0.8,0.8c-0.9,0-1.8,0-2.7,0c-0.4,0-0.5-0.1-0.5-0.5C69.2,33,69.2,31.6,69.2,30.2z"/>
		<path class="st0" d="M67.1,15.3c0-1.4,0-2.7,0-4.1c0-0.4,0.1-0.5,0.5-0.5c1,0,2,0,3,0c0.3,0,0.4,0.1,0.4,0.4c0,1,0.1,0.8-0.8,0.9
			c-0.3,0-0.7,0-1,0c-0.2,0-0.4,0.1-0.3,0.3c0,0.6,0,1.3,0,1.9c0,0.2,0.1,0.3,0.3,0.3c0.3,0,0.7,0,1,0c0.3,0,0.3,0.1,0.3,0.3
			c0,1.1,0.1,0.9-0.9,0.9c-1,0-0.8-0.1-0.8,0.8c0,0.6,0,1.2,0,1.7c0,0.3,0.1,0.4,0.4,0.4c0.5,0,0.9,0,1.4,0c0.3,0,0.4,0.1,0.4,0.3
			c0,1,0.1,0.8-0.8,0.9c-0.9,0-1.7,0-2.6,0c-0.3,0-0.5-0.1-0.4-0.5C67.1,18.1,67.1,16.7,67.1,15.3z"/>
		<path class="st0" d="M39.9,30.3c0-1.4,0-2.7,0-4.1c0-0.4,0.1-0.5,0.5-0.5c1,0,1.9,0,2.9,0c0.3,0,0.4,0.1,0.4,0.4
			c0,0.9,0.1,0.8-0.8,0.8c-0.4,0-1-0.1-1.2,0.1c-0.2,0.2-0.1,0.8-0.1,1.2c0,0.3,0,0.7,0,1c0,0.2,0.1,0.3,0.3,0.3c0.3,0,0.7,0,1,0
			c0.1,0,0.2,0.2,0.3,0.3c0,0,0,0,0,0c0,1.1,0.1,0.9-0.9,0.9c-0.9,0-0.8-0.1-0.8,0.8c0,1,0,1.9,0,2.9c0,0.3-0.1,0.4-0.4,0.4
			c-0.3,0-0.6,0-0.9,0c-0.3,0-0.5-0.1-0.5-0.5C39.9,33,39.9,31.7,39.9,30.3z"/>
		<path class="st0" d="M57.6,16c0-1.2,0-2.3,0-3.5c0-0.3-0.1-0.5-0.4-0.4c-0.1,0-0.1,0-0.2,0c-1,0-0.9,0.2-0.9-0.9
			c0-0.3,0.1-0.4,0.4-0.4c1.3,0,2.7,0,4,0c0.2,0,0.3,0.1,0.4,0.3c0.1,1,0.1,1-0.9,1c-0.6,0-0.6,0-0.6,0.6c0,2.3,0,4.5,0,6.8
			c0,0.4-0.1,0.6-0.5,0.6c-1.2,0-1.2,0-1.2-1.3C57.6,17.8,57.6,16.9,57.6,16z"/>
		<path class="st0" d="M59.5,30.9c0-1.2,0-2.3,0-3.5c0-0.3-0.1-0.5-0.5-0.4c-0.1,0-0.1,0-0.2,0c-1,0-0.9,0.2-0.9-1
			c0-0.2,0.1-0.3,0.3-0.3c1.4,0,2.7,0,4.1,0c0.2,0,0.3,0.1,0.3,0.3c0,1.2,0.1,1-0.9,1c-0.6,0-0.6,0-0.6,0.6c0,2.3,0,4.5,0,6.8
			c0,0.4-0.1,0.6-0.5,0.5c-0.2,0-0.5,0-0.7,0c-0.4,0-0.5-0.1-0.5-0.5C59.5,33.2,59.5,32,59.5,30.9z"/>
		<path class="st0" d="M95.3,29.7c0,1.2,0,2.4,0,3.6c0,0.3,0.1,0.4,0.4,0.4c0.5,0,1,0,1.5,0c0.2,0,0.3,0.1,0.3,0.3
			c0,1.1,0.1,0.9-0.8,0.9c-0.9,0-1.8,0-2.7,0c-0.3,0-0.4-0.1-0.4-0.4c0-2.8,0-5.6,0-8.4c0-0.3,0.1-0.4,0.4-0.4c0.3,0,0.6,0,1,0
			c0.3,0,0.4,0.1,0.4,0.4C95.3,27.3,95.3,28.5,95.3,29.7z"/>
		<path class="st0" d="M91.1,15.4c0,1.4,0,2.7,0,4.1c0,0.3-0.1,0.5-0.4,0.5c-0.3,0-0.6,0-0.9,0c-0.2,0-0.4-0.1-0.4-0.3
			c0-2.8,0-5.7,0-8.5c0-0.3,0.1-0.4,0.4-0.3c0.3,0,0.6,0,1,0c0.3,0,0.4,0.1,0.4,0.4C91.1,12.5,91.1,14,91.1,15.4z"/>
	</g>
</g>
</svg>
