<?xml version="1.0" encoding="utf-8"?>
<!-- Generator: Adobe Illustrator 24.3.0, SVG Export Plug-In . SVG Version: 6.00 Build 0)  -->
<svg version="1.1" id="Layer_1" xmlns="http://www.w3.org/2000/svg" xmlns:xlink="http://www.w3.org/1999/xlink" x="0px" y="0px"
	 viewBox="0 0 125 125" style="enable-background:new 0 0 125 125;" xml:space="preserve">
<style type="text/css">
	.st0{fill:#DDA83A;}
</style>
<g>
	<g>
		<path class="st0" d="M60.8,80.1c10.6,0,21.1,0,31.7,0c0.2,0,0.3,0,0.5,0c0.7,0,1,0.5,0.9,1.1c-0.6,3.2-1.6,6.2-3.1,9
			c-4,7.2-10,12-17.7,14.9c-1,0.4-1,0.4-1,1.4c0,0.3,0,0.6,0,0.9c0,0.5-0.3,0.8-0.7,0.8c-0.2,0-0.4,0-0.5,0c-6.5,0-13,0-19.4,0
			c-0.2,0-0.5,0-0.7-0.1c-0.4-0.1-0.6-0.4-0.6-0.8c0-0.4,0-0.9,0-1.3c0-0.3-0.1-0.5-0.4-0.6c-2.7-0.8-5.2-2-7.6-3.5
			c-5.1-3.1-9-7.3-11.7-12.6c-1.3-2.5-2.2-5.2-2.7-7.9c-0.2-1,0.1-1.4,1.1-1.4C39.5,80.1,50.2,80.1,60.8,80.1z"/>
		<path class="st0" d="M16.3,31.9c0.3,0,0.4,0,0.6,0c1.9,0,3.9,0,5.8,0c0.4,0,0.5,0.1,0.5,0.5c0,0.9,0,1.7,0,2.6
			c0,0.3-0.1,0.5-0.4,0.5c-3.7,0-7.4,0-11.1,0c-0.3,0-0.4-0.1-0.4-0.4c0-0.3,0-0.7,0-1c-0.2-1.2,0.3-2.2,1-3.2c2-3,3.9-6.1,5.9-9.1
			c0.8-1.2,1.3-2.4,1.3-3.9c0-0.3-0.1-0.7-0.1-1c-0.2-0.7-0.7-1.1-1.4-1.2c-0.8-0.1-1.4,0.3-1.8,0.9c-0.4,0.8-0.4,1.7-0.5,2.6
			c0,1,0,1-1,1c-0.9,0-1.9,0-2.8,0c-0.3,0-0.5-0.1-0.5-0.4c0-1.2,0-2.3,0.3-3.5c0.7-2.7,2.5-4.2,5.3-4.4c0.8,0,1.6,0,2.4,0.1
			c2.5,0.4,4,2.1,4.4,4.5c0.4,2.4-0.3,4.6-1.6,6.6c-1.8,2.8-3.7,5.5-5.5,8.3C16.5,31.5,16.4,31.7,16.3,31.9z"/>
		<path class="st0" d="M48.4,77.4c0.1-0.6,0.3-1.2,0.4-1.8c0.3-1.7-0.2-3.2-1.1-4.6c-0.6-0.9-1.3-1.7-2-2.6c-1.5-1.9-2.3-4-2.4-6.4
			c-0.1-3.5,1-6.6,2.9-9.5c0.7-1,2.2-1.2,3.1-0.4c0.7,0.6,0.9,1.4,0.4,2.2c-1.1,1.8-1.9,3.7-2.2,5.8c-0.3,2.6,0.3,4.9,2.1,6.9
			c1.7,1.9,2.9,4,3.2,6.5c0.1,1.2,0.1,2.4-0.2,3.5c0,0.1-0.2,0.3-0.4,0.3c-1.3,0-2.5,0-3.8,0C48.6,77.5,48.5,77.5,48.4,77.4z"/>
		<path class="st0" d="M61.3,77.4c0.1-0.6,0.3-1.1,0.4-1.7c0.3-1.8-0.2-3.4-1.1-4.8c-0.5-0.8-1.1-1.4-1.7-2.1c-2.5-3-3.1-6.3-2.4-10
			c0.4-2.2,1.3-4.2,2.5-6c0.7-1,2.1-1.3,3.1-0.6c0.8,0.5,1,1.5,0.5,2.3c-1.1,1.8-1.9,3.8-2.2,5.9c-0.3,2.6,0.3,4.8,2.1,6.8
			c1.7,1.9,2.9,3.9,3.3,6.5c0.2,1.2,0.1,2.4-0.2,3.6c-0.1,0.2-0.1,0.4-0.4,0.4c-1.3,0-2.5,0-3.8,0C61.4,77.5,61.4,77.5,61.3,77.4z"
			/>
		<path class="st0" d="M74.2,77.4c0.1-0.6,0.3-1.1,0.4-1.6c0.3-1.8-0.2-3.4-1.1-4.9c-0.5-0.7-1.1-1.4-1.7-2.1
			c-2.6-3.2-3.2-6.8-2.2-10.8c0.5-1.9,1.3-3.7,2.4-5.4c0.7-1.1,2.4-1.3,3.3-0.4c0.6,0.6,0.7,1.4,0.2,2.1c-1.1,1.7-1.8,3.4-2.1,5.4
			c-0.5,2.8,0.2,5.3,2.1,7.4c1.7,1.8,2.8,3.9,3.2,6.3c0.2,1.2,0.1,2.4-0.2,3.6c0,0.1-0.2,0.3-0.3,0.3c-1.3,0-2.5,0-3.8,0
			C74.2,77.5,74.2,77.5,74.2,77.4z"/>
		<path class="st0" d="M46.9,15.3c0,0.7,0,1.4,0,2.1c0,1,0,2.1,0,3.1c0,0.3-0.1,0.4-0.4,0.4c-0.9,0-0.8,0.1-0.8-0.8
			c0-2.6,0.1-5.1,0.1-7.7c0-0.3,0.1-0.4,0.4-0.4c1.3,0,1.3,0,1.5,1.2c0.3,1.6,0.7,3.2,1.1,4.8c0.1-0.2,0.1-0.4,0.2-0.6
			c0.4-1.7,0.7-3.3,1-5c0.1-0.3,0.2-0.4,0.5-0.4c0.3,0,0.6,0,0.9,0c0.3,0,0.4,0.1,0.4,0.4c0,1.6,0,3.2,0.1,4.8c0,1.1,0,2.2,0.1,3.3
			c0,0.4-0.1,0.5-0.5,0.5c-0.8,0-0.8,0-0.8-0.8c0-1.6,0-3.2,0-4.7c-0.1,0-0.1,0-0.2,0c0,0.1-0.1,0.2-0.1,0.3c-0.3,1.6-0.7,3.2-1,4.7
			c-0.1,0.4-0.2,0.5-0.6,0.5c-0.4,0-0.5-0.1-0.6-0.5c-0.3-1.8-0.7-3.5-1.1-5.2C47,15.3,46.9,15.3,46.9,15.3z"/>
		<path class="st0" d="M56.9,16.2c1.3,0.8,1.7,2.7,0.8,4c-0.4,0.5-0.9,0.8-1.5,0.8c-0.9,0-1.8,0-2.7,0c-0.3,0-0.3-0.1-0.3-0.4
			c0-2.8,0-5.5,0-8.3c0-0.2,0.1-0.3,0.3-0.3c0.9,0,1.8,0,2.6,0.1c1.6,0.2,2.5,2.1,1.5,3.5C57.4,15.9,57.1,16,56.9,16.2z M54.7,18.3
			c0,0.4,0,0.8,0,1.2c0,0.2,0.1,0.3,0.3,0.3c1.1,0.1,1.5-0.3,1.5-1.4c0-0.1,0-0.2,0-0.4c0-0.9-0.7-1.4-1.6-1.2
			c-0.1,0-0.2,0.2-0.2,0.3C54.7,17.6,54.7,17.9,54.7,18.3z M54.7,14.5C54.7,14.5,54.7,14.5,54.7,14.5c0,0.3,0,0.6,0,0.9
			c0,0.1,0.1,0.3,0.1,0.3c0.3,0.2,1.1,0,1.3-0.3c0.3-0.3,0.3-1.3,0.1-1.7c-0.2-0.3-0.8-0.5-1.3-0.4c-0.1,0-0.2,0.2-0.2,0.3
			C54.7,13.9,54.7,14.2,54.7,14.5z"/>
		<path class="st0" d="M55.1,31.1c0,0.8,0.1,1.7,0,2.5c-0.1,1.3-0.8,2-2.2,2.1c-0.4,0-0.8,0-1.2-0.1c-1-0.2-1.5-1-1.6-2
			c-0.1-1.7-0.1-3.4,0-5.1c0.1-1.2,0.8-1.8,2-2c0.5-0.1,1,0,1.4,0.1c1,0.2,1.5,0.9,1.6,1.9C55.1,29.4,55.1,30.2,55.1,31.1
			C55.1,31.1,55.1,31.1,55.1,31.1z M53.4,31.1C53.4,31.1,53.4,31.1,53.4,31.1c0-0.8,0-1.6,0-2.4c0-0.7-0.6-1.1-1.3-0.8
			c-0.4,0.2-0.5,0.6-0.5,1c0,1.5,0,3.1,0,4.6c0,0.2,0,0.4,0.1,0.5c0.1,0.2,0.3,0.4,0.6,0.5c0.6,0.2,1.1-0.2,1.1-0.9
			C53.5,32.7,53.4,31.9,53.4,31.1z"/>
		<path class="st0" d="M33.6,16.5c0-1.3,0-2.7,0-4c0-0.4,0.1-0.5,0.5-0.5c1.2,0,1.2,0,1.2,1.1c0,0.7,0,1.5,0,2.2
			c0,0.3,0.1,0.4,0.4,0.4c0.3,0,0.7,0,1,0c0.3,0,0.4-0.1,0.4-0.4c0-1,0-1.9,0-2.9c0-0.4,0.1-0.5,0.5-0.5c0.2,0,0.5,0,0.7,0
			c0.4,0,0.5,0.1,0.5,0.5c0,2.7,0,5.3,0,8c0,0.4-0.1,0.5-0.5,0.5C37,21,37,21,37,19.8c0-0.8,0-1.6,0-2.4c0-0.3-0.1-0.5-0.4-0.4
			c-0.3,0-0.7,0-1,0c-0.3,0-0.4,0.1-0.4,0.4c0,1.1,0,2.1,0,3.2c0,0.3-0.1,0.5-0.4,0.4c-0.3,0-0.5,0-0.8,0c-0.3,0-0.4-0.1-0.4-0.4
			C33.6,19.2,33.6,17.9,33.6,16.5z"/>
		<path class="st0" d="M49.1,35.5c-0.5,0-1,0-1.4,0c-0.1,0-0.2-0.2-0.3-0.4c-0.3-1.1-0.6-2.2-0.9-3.3c-0.1-0.2-0.1-0.4-0.4-0.4
			c-0.3,0-0.4,0.1-0.4,0.4c0,1.1,0,2.1,0,3.2c0,0.4-0.1,0.6-0.5,0.5c-0.3,0-0.5,0-0.8,0c-0.2,0-0.3-0.1-0.3-0.3c0-0.3,0-0.6,0-0.9
			c0-2.4,0-4.8,0-7.2c0-0.4,0.1-0.5,0.5-0.5c0.7,0,1.4,0,2.1,0c1.9,0.1,2.5,1.2,2.3,3c-0.1,0.6-0.3,1.1-0.8,1.5
			C48,31.2,48,31.4,48,31.5c0.3,1.2,0.7,2.3,1,3.5C49,35.2,49,35.3,49.1,35.5z M45.7,29.1c0,0.4,0,0.7,0,1.1c0,0.1,0.1,0.2,0.2,0.3
			c0.3,0.1,1,0,1.2-0.3c0.4-0.6,0.4-1.2,0.1-1.8c-0.2-0.5-0.8-0.5-1.2-0.5c-0.2,0-0.3,0.1-0.3,0.3C45.7,28.4,45.7,28.8,45.7,29.1z"
			/>
		<path class="st0" d="M64.1,21c-0.5,0-1,0-1.4,0c-0.1,0-0.3-0.2-0.3-0.4c-0.3-1.1-0.6-2.2-0.9-3.3c-0.1-0.2-0.1-0.4-0.4-0.4
			c-0.3,0-0.4,0.1-0.4,0.4c0,1,0,2.1,0,3.1c0,0.6,0,0.6-0.6,0.6c-0.2,0-0.5,0-0.7,0c-0.2,0-0.3-0.1-0.3-0.3c0-0.4,0-0.7,0-1.1
			c0-2.3,0-4.7,0-7c0-0.4,0.1-0.5,0.5-0.5c0.7,0,1.4,0,2.1,0.1c1.9,0.1,2.4,1.2,2.2,3c-0.1,0.6-0.3,1.1-0.8,1.5
			C63,16.6,63,16.8,63,17c0.3,1.2,0.7,2.4,1,3.6C64.1,20.7,64.1,20.8,64.1,21z M60.8,14.5c0,0.3,0,0.7,0,1c0,0.1,0.1,0.3,0.1,0.3
			c0.5,0.2,1.3-0.2,1.5-0.7c0.1-0.3,0.1-0.6,0.1-0.9c-0.1-0.8-0.7-1.2-1.5-1c-0.1,0-0.2,0.2-0.2,0.3C60.7,13.8,60.8,14.2,60.8,14.5z
			"/>
		<path class="st0" d="M33.4,31.1c0-0.7,0-1.4,0-2.1c0.1-2.1,2.2-3.2,4-2.1c0.7,0.4,0.9,1.2,1,2c0,1.3,0.2,1.1-1,1.1
			c-0.6,0-0.6,0-0.6-0.6c0-0.3,0-0.6,0-0.9c0-0.4-0.3-0.7-0.7-0.7c-0.4,0-0.8,0.2-0.9,0.6c-0.1,0.2-0.1,0.5-0.1,0.8
			c0,1.3,0,2.6,0,3.9c0,0.2,0,0.5,0.1,0.7c0.1,0.5,0.4,0.7,0.9,0.7c0.4,0,0.7-0.3,0.8-0.7c0-0.4,0-0.8,0-1.2c0-0.2,0.1-0.3,0.3-0.3
			c0.1,0,0.2,0,0.4,0c1.1,0,0.9-0.2,0.9,0.9c0,2.3-1.5,2.9-3.4,2.4c-1-0.2-1.5-1.1-1.6-2.2C33.4,32.6,33.4,31.8,33.4,31.1
			C33.4,31.1,33.4,31.1,33.4,31.1z"/>
		<path class="st0" d="M44.8,21c-0.5,0-0.9,0-1.3,0c-0.1,0-0.3-0.2-0.3-0.3c-0.1-0.5-0.2-0.9-0.3-1.4c0-0.3-0.2-0.3-0.4-0.3
			c-1.2,0-1.2,0-1.4,1.1C41,21,41,21,40,21c-0.1,0-0.3,0-0.5,0c0-0.2,0-0.3,0.1-0.5c0.5-2.7,1.1-5.3,1.6-8c0.1-0.4,0.2-0.5,0.6-0.5
			c1.2,0,1.2,0,1.5,1.2c0.5,2.4,1,4.9,1.5,7.3C44.7,20.6,44.7,20.8,44.8,21z M42.2,14.7c0,0-0.1,0-0.1,0c-0.2,1-0.3,2.1-0.5,3.2
			c0.3,0,0.6,0,0.9,0c0.1,0,0.2-0.2,0.2-0.3C42.5,16.6,42.3,15.6,42.2,14.7z"/>
		<path class="st0" d="M65.2,16.5c0-1.3,0-2.7,0-4c0-0.4,0.1-0.5,0.5-0.5c0.9,0,1.9,0,2.8,0c0.3,0,0.4,0.1,0.4,0.4
			c0,0.9,0.1,0.8-0.8,0.8c-0.3,0-0.7,0-1,0c-0.2,0-0.3,0.1-0.3,0.3c0,0.6,0,1.2,0,1.9c0,0.2,0.1,0.3,0.3,0.3c0.3,0,0.7,0,1,0
			c0.2,0,0.3,0.1,0.3,0.3c0.1,0.8,0.1,0.8-0.8,0.9c-1,0-0.8-0.1-0.9,0.8c0,0.6,0,1.1,0,1.7c0,0.3,0.1,0.4,0.4,0.4c0.4,0,0.9,0,1.3,0
			c0.3,0,0.4,0.1,0.4,0.4c0,0.1,0,0.1,0,0.2c0,0.5,0,0.5-0.5,0.5c-0.9,0-1.9,0-2.8,0c-0.3,0-0.4-0.1-0.4-0.4
			C65.2,19.2,65.2,17.9,65.2,16.5z"/>
		<path class="st0" d="M39.4,31.1c0-1.3,0-2.7,0-4c0-0.4,0.1-0.5,0.5-0.5c0.9,0,1.8,0,2.8,0c0.4,0,0.5,0.1,0.5,0.5
			c0,0.1,0,0.1,0,0.2c0,0.3-0.1,0.5-0.5,0.5c-0.4,0-0.9,0-1.3,0c-0.3,0-0.4,0.1-0.4,0.4c0,0.6,0,1.2,0,1.8c0,0.3,0.1,0.4,0.4,0.3
			c0.3,0,0.7,0,1,0c0.1,0,0.2,0.2,0.3,0.3c0,0,0,0.1,0,0.1c0,0.8,0,0.8-0.8,0.8c-1,0-0.9-0.1-0.9,0.9c0,0.5,0,1.1,0,1.6
			c0,0.3,0.1,0.4,0.4,0.4c0.5,0,0.9,0,1.4,0c0.3,0,0.4,0.1,0.4,0.4c0,0,0,0.1,0,0.1c0,0.7,0,0.7-0.6,0.7c-0.8,0-1.7,0-2.5,0
			c-0.6,0-0.6,0-0.6-0.7C39.4,33.6,39.4,32.4,39.4,31.1z"/>
	</g>
</g>
</svg>
