<?xml version="1.0" encoding="utf-8"?>
<!-- Generator: Adobe Illustrator 24.3.0, SVG Export Plug-In . SVG Version: 6.00 Build 0)  -->
<svg version="1.1" id="Layer_1" xmlns="http://www.w3.org/2000/svg" xmlns:xlink="http://www.w3.org/1999/xlink" x="0px" y="0px"
	 viewBox="0 0 125 125" style="enable-background:new 0 0 125 125;" xml:space="preserve">
<style type="text/css">
	.st0{fill:#4C9F38;}
</style>
<g>
	<g>
		<path class="st0" d="M84,52.9c-0.1,0.2-0.1,0.4-0.2,0.6c-5,16.8-10.1,33.5-15.1,50.3c-0.1,0.3-0.2,0.6-0.3,0.8
			c-0.4,0.5-0.9,0.7-1.5,0.6c-0.6-0.1-1-0.6-1.1-1.2c-0.6-3.5-1.2-7-1.8-10.5c-0.8-4.9-1.7-9.8-2.6-14.8c-0.1,0.2-0.2,0.3-0.3,0.4
			c-2.1,3.9-4.2,7.8-6.3,11.7c-0.5,1-1.7,1.2-2.4,0.4c-0.2-0.2-0.3-0.5-0.4-0.8c-0.8-5.4-1.5-10.7-2.3-16.1
			c-0.2-1.1-0.3-2.1-0.5-3.2c-0.1,0.1-0.1,0.2-0.2,0.4c-1.6,3.6-3.2,7.1-4.8,10.7c-0.3,0.8-0.8,1.1-1.7,1.1C36,83,29.5,83,23,83
			c-1.1,0-1.8-0.9-1.5-1.8c0.2-0.6,0.7-1,1.3-1c0.1,0,0.3,0,0.4,0c6.1,0,12.1,0,18.2,0c0.4,0,0.6-0.1,0.8-0.5
			c2.1-4.8,4.2-9.6,6.4-14.3c0.1-0.1,0.1-0.2,0.2-0.4c0.3-0.6,0.9-1,1.5-0.9c0.7,0.1,1.1,0.5,1.2,1.3c0.3,1.9,0.5,3.7,0.8,5.6
			c0.5,3.7,1.1,7.4,1.6,11.1c0.2,1.1,0.3,2.2,0.5,3.4c0.1-0.2,0.2-0.3,0.3-0.4c2.1-3.8,4.1-7.6,6.2-11.4c0.3-0.5,0.6-0.8,1.2-0.9
			c0.9-0.1,1.5,0.4,1.6,1.3c0.4,2.2,0.8,4.4,1.1,6.6c0.9,5.4,1.9,10.8,2.8,16.3c0,0.1,0.1,0.2,0.1,0.4c0.4-1.2,0.7-2.3,1-3.4
			C72.2,82,75.8,70,79.4,58c0.9-3.2,1.9-6.3,2.9-9.5c0.3-1.1,1.5-1.5,2.3-0.8c0.2,0.2,0.4,0.4,0.5,0.7c1.8,3.7,3.6,7.4,5.4,11.2
			c0.7,1.5,1.5,3.1,2.2,4.6c0.1,0.3,0.2,0.6,0.2,0.9c0,0.6-0.5,1.1-1.1,1.3c-0.6,0.1-1.2-0.2-1.5-0.7c-0.4-0.8-0.8-1.7-1.2-2.6
			c-1.6-3.3-3.2-6.6-4.8-10C84.1,53.1,84,53,84,52.9z"/>
		<path class="st0" d="M93.4,74.7c0.4-0.3,0.6-0.6,0.9-0.9c0.6-0.5,1.2-1,1.8-1.4c1.8-1.1,4-0.9,5.6,0.5c2.7,2.4,2.9,6.9,0.3,9.5
			c-2.8,2.8-5.6,5.6-8.3,8.4c-0.1,0.1-0.2,0.1-0.3,0.2c-0.1-0.1-0.2-0.1-0.3-0.2c-2.8-2.8-5.6-5.6-8.4-8.4c-2.5-2.5-2.4-6.9,0.2-9.3
			c1.1-1,2.4-1.5,3.9-1.4c0.5,0,1.1,0.2,1.6,0.5c0.9,0.6,1.7,1.4,2.6,2.1C93.2,74.4,93.3,74.6,93.4,74.7z"/>
		<path class="st0" d="M20.8,23.1c2,0.9,2.6,2.5,2.8,4.4c0.1,1.5,0.1,3-0.4,4.5c-0.8,2.3-2.4,3.6-4.9,3.8c-0.9,0-1.8,0-2.7-0.1
			c-2.1-0.3-3.5-1.7-4.1-3.7c-0.4-1.2-0.4-2.4-0.4-3.7c0-0.2,0.1-0.3,0.3-0.3c1.3,0,2.5,0,3.8,0c0.3,0,0.3,0.2,0.3,0.4
			c0.1,0.9,0.1,1.8,0.3,2.6c0.2,0.7,0.7,1.1,1.4,1.1c1,0,1.5-0.3,1.7-1.3c0.3-1.3,0.3-2.7,0-4c-0.3-1.1-0.9-1.6-2-1.7
			c-0.2,0-0.4-0.1-0.6-0.1c-0.4,0-0.5-0.1-0.5-0.5c0-0.8,0-1.6,0-2.4c0-0.3,0.1-0.4,0.4-0.4c0.4,0,0.7,0,1.1-0.1
			c0.8-0.1,1.4-0.6,1.6-1.4c0.4-1.2,0.4-2.5,0-3.7c-0.3-1-1.4-1.5-2.4-1.1c-0.4,0.2-0.7,0.5-0.8,0.9c-0.1,0.8-0.2,1.6-0.3,2.5
			c0,0.6,0,0.6-0.6,0.6c-1.2,0-2.3,0-3.5,0c-0.3,0-0.4-0.1-0.4-0.4c0.1-0.9,0-1.9,0.2-2.7c0.5-2.6,2.4-4.3,5.1-4.5
			c1-0.1,2,0,2.9,0.2c2.4,0.5,4,2.2,4.2,4.6c0.1,1,0.1,2,0,2.9C23.2,21.1,22.4,22.4,20.8,23.1z"/>
		<path class="st0" d="M45.3,30.8c1.3,0.8,1.7,2.4,0.9,3.7c-0.4,0.7-1,1-1.7,1c-0.9,0-1.8,0-2.7,0c-0.4,0-0.3-0.2-0.3-0.5
			c0-2.4,0-4.8,0-7.2c0-0.3,0-0.6,0-0.9c0-0.2,0.1-0.4,0.3-0.3c0.9,0,1.8,0,2.7,0.1c1.6,0.2,2.5,2.2,1.5,3.6
			C45.8,30.5,45.5,30.6,45.3,30.8z M43.2,32.9c0,0.4,0,0.8,0,1.2c0,0.1,0.1,0.3,0.2,0.3c0.9,0.2,1.6-0.2,1.6-1.2c0-0.1,0-0.3,0-0.4
			c0-1-0.5-1.4-1.5-1.3c-0.2,0-0.3,0.1-0.3,0.3C43.2,32.2,43.2,32.5,43.2,32.9z M43.2,29C43.2,29,43.2,29,43.2,29c0,0.3,0,0.6,0,0.9
			c0,0.1,0.1,0.3,0.2,0.3c0.4,0,0.9,0.1,1.2-0.3c0.4-0.5,0.4-1,0.2-1.6c-0.2-0.5-0.6-0.5-1-0.5c-0.6,0-0.6,0-0.6,0.5
			C43.2,28.6,43.2,28.8,43.2,29z"/>
		<path class="st0" d="M60.2,16.5c0,0.8,0,1.6,0,2.4c-0.1,1.3-0.8,2-2.1,2.1c-0.8,0-1.6,0-2.4,0c-0.3,0-0.3-0.1-0.3-0.3
			c0-2.8,0-5.5,0-8.3c0-0.2,0.1-0.3,0.3-0.3c0.9,0,1.8,0,2.6,0.1c1.2,0.1,1.8,0.8,1.9,1.9c0,0.2,0,0.4,0.1,0.5
			C60.2,15.2,60.2,15.8,60.2,16.5C60.2,16.5,60.2,16.5,60.2,16.5z M57,16.5c0,1,0,2,0,3c0,0.3,0.1,0.4,0.3,0.4
			c0.9,0,1.2-0.3,1.2-1.2c0-1.4,0-2.9,0-4.3c0-0.8-0.3-1.1-1.2-1.1c-0.3,0-0.4,0.1-0.4,0.4C57,14.6,57,15.6,57,16.5z"/>
		<path class="st0" d="M58.5,31.4c0-0.3,0-0.5,0-0.8c0-1.2,0-2.4,0-3.6c0-0.3,0.1-0.4,0.4-0.4c1.2,0,1-0.1,1,1c0,2.5,0,5,0,7.5
			c0,0.2-0.1,0.4-0.2,0.5c-0.4,0.2-0.9,0-1-0.3c-0.6-1.4-1.2-2.9-1.8-4.3c-0.1-0.1-0.1-0.2-0.3-0.4c0,0.1,0,0.3,0,0.4
			c0,1.3,0,2.7,0,4c0,0.4-0.1,0.5-0.5,0.5c-1.1,0-0.9,0.1-0.9-0.9c0-2.5,0-5,0-7.5c0-0.2-0.1-0.5,0.2-0.5c0.5-0.1,0.9,0,1.1,0.3
			c0.6,1.4,1.2,2.7,1.8,4.1C58.3,31.1,58.3,31.3,58.5,31.4C58.4,31.4,58.4,31.4,58.5,31.4z"/>
		<path class="st0" d="M86.4,35.6c-0.5,0-1,0-1.5,0c-0.1,0-0.2-0.2-0.3-0.3c-0.3-1.1-0.6-2.2-0.9-3.3c-0.1-0.2-0.1-0.4-0.4-0.4
			c-0.3,0-0.4,0.1-0.4,0.4c0,1.1,0,2.1,0,3.2c0,0.4-0.1,0.5-0.5,0.5c-1.2,0-1.2,0-1.2-1.1c0-2.4,0-4.8,0-7.3c0-0.5,0-0.6,0.5-0.5
			c0.8,0,1.5,0,2.3,0.1c1.4,0.1,2.1,0.9,2.1,2.2c0,0.4,0,0.8-0.1,1.2c-0.1,0.3-0.3,0.6-0.5,0.8c-0.4,0.2-0.4,0.5-0.3,0.8
			c0.3,1.1,0.6,2.2,0.9,3.3C86.3,35.2,86.3,35.3,86.4,35.6z M83,29.1c0,0.3,0,0.7,0,1c0,0.1,0.1,0.2,0.2,0.3c0.3,0.1,1,0,1.3-0.3
			c0.3-0.3,0.4-1.3,0.1-1.8c-0.3-0.5-0.8-0.5-1.2-0.5c-0.1,0-0.3,0.2-0.3,0.3C83,28.4,83,28.8,83,29.1z"/>
		<path class="st0" d="M52.5,15.5c0-1,0-2,0-3c0-0.3,0.1-0.5,0.4-0.5c1.2,0,1.2,0,1.2,1.2c0,1.9,0,3.7-0.1,5.6
			c0,0.9-0.3,1.7-1.2,2.1c-1,0.4-2,0.4-3-0.2c-0.6-0.4-0.8-1.1-0.8-1.8c-0.1-2.2-0.1-4.3-0.1-6.5c0-0.3,0.1-0.4,0.4-0.4
			c0.3,0,0.5,0,0.8,0c0.4,0,0.5,0.1,0.5,0.5c0,1.9,0,3.8,0,5.6c0,0.3,0,0.7,0.1,1c0.1,0.4,0.4,0.6,0.8,0.6c0.4,0,0.7-0.2,0.8-0.7
			c0.1-0.4,0.1-0.9,0.1-1.3C52.5,17.1,52.5,16.3,52.5,15.5z"/>
		<path class="st0" d="M38.5,21c0.2-0.9,0.3-1.7,0.5-2.6c0.4-2,0.8-3.9,1.2-5.9c0.1-0.3,0.2-0.5,0.6-0.5c0.4,0,0.9-0.1,1.2,0.1
			c0.2,0.2,0.2,0.7,0.3,1.1c0.5,2.4,1,4.8,1.5,7.2c0,0.1,0,0.3,0.1,0.5c-0.5,0-0.9,0-1.3,0c-0.1,0-0.2-0.2-0.2-0.3
			c-0.1-0.4-0.2-0.9-0.2-1.4c0-0.3-0.1-0.4-0.4-0.4c-1.2,0-1.2,0-1.4,1.1C40,21,40,21,39,21C38.9,21,38.7,21,38.5,21z M41.7,17.8
			c-0.2-1.1-0.3-2.1-0.5-3.2c0,0-0.1,0-0.1,0c-0.2,1-0.3,2.1-0.5,3.2C41,17.8,41.3,17.8,41.7,17.8z"/>
		<path class="st0" d="M80.5,35.6c-0.4,0-0.9,0-1.3,0c-0.1,0-0.2-0.2-0.2-0.3c-0.1-0.4-0.2-0.9-0.2-1.4c0-0.3-0.1-0.4-0.5-0.4
			c-1.1,0-1.1,0-1.3,1.1c-0.2,1-0.2,1-1.2,1c-0.2,0-0.3,0-0.6,0c0.2-0.9,0.3-1.7,0.5-2.6c0.4-2,0.8-4,1.2-5.9
			c0.1-0.3,0.2-0.5,0.5-0.4c0.3,0,0.7,0,1,0c0.1,0,0.3,0.2,0.4,0.3c0.6,2.8,1.1,5.6,1.7,8.4C80.5,35.4,80.5,35.4,80.5,35.6z
			 M77.9,29.1C77.9,29.1,77.9,29.1,77.9,29.1c-0.2,1-0.4,2-0.5,2.9c0,0.1,0.1,0.3,0.2,0.4c0.3,0,0.6,0,0.9,0
			C78.3,31.3,78.1,30.2,77.9,29.1z"/>
		<path class="st0" d="M34.7,18.1c0,0.2,0,0.4,0.1,0.5c0.1,0.3,0.2,0.7,0.3,0.9c0.2,0.3,0.5,0.4,0.8,0.3c0.3-0.1,0.4-0.3,0.5-0.6
			c0-0.6-0.1-1-0.6-1.4c-0.6-0.5-1.2-1-1.8-1.6c-0.8-0.7-1-1.7-0.7-2.7c0.1-0.6,0.5-1,1-1.2c0.7-0.3,1.4-0.4,2.1-0.1
			c0.8,0.3,1.4,1.3,1.4,2.1c0,0.1-0.1,0.2-0.2,0.2c-0.1,0.1-0.2,0.1-0.4,0.1c-0.3,0-0.6,0.2-0.8,0.1c-0.1-0.1-0.1-0.4-0.2-0.7
			c-0.1-0.5-0.4-0.7-0.8-0.7c-0.5,0.1-0.7,0.4-0.7,0.9c0,0.4,0.2,0.8,0.5,1c0.4,0.4,0.9,0.8,1.3,1.2c0.9,0.9,1.5,1.9,1.2,3.2
			c-0.1,0.5-0.4,1-0.9,1.2c-0.9,0.5-1.8,0.5-2.7,0.1c-0.8-0.5-1.1-1.3-1.1-2.2c0-0.1,0.1-0.3,0.2-0.3C33.9,18.2,34.3,18.2,34.7,18.1
			z"/>
		<path class="st0" d="M66.9,32.6c0.1,0.3,0.1,0.6,0.2,0.9c0.1,0.2,0.2,0.5,0.4,0.7c0.2,0.1,0.6,0.2,0.8,0.2
			c0.2-0.1,0.4-0.4,0.4-0.6c0.1-0.6-0.1-1-0.5-1.4c-0.6-0.5-1.1-1-1.7-1.5c-0.8-0.7-1-1.6-0.8-2.5c0.2-1.2,1.4-1.9,2.7-1.7
			c1.3,0.2,1.7,1.2,1.8,2.2c0,0.1-0.1,0.2-0.2,0.2c-0.1,0-0.2,0-0.2,0.1c-0.3,0-0.6,0.2-0.9,0.1c-0.2-0.1-0.2-0.5-0.2-0.7
			c-0.1-0.5-0.4-0.7-0.9-0.6c-0.4,0.1-0.6,0.3-0.6,0.8c0,0.5,0.3,0.9,0.7,1.2c0.6,0.5,1.2,1,1.7,1.6c0.7,0.7,1,1.6,0.8,2.6
			c-0.1,0.7-0.6,1.3-1.3,1.5c-1.7,0.7-3.5-0.5-3.4-2.4c0-0.1,0.1-0.2,0.2-0.3C66.1,32.8,66.5,32.7,66.9,32.6z"/>
		<path class="st0" d="M50.5,31.1c0-1.3,0-2.6,0-3.9c0-0.4,0.1-0.5,0.5-0.5c0.9,0,1.9,0,2.8,0c0.3,0,0.5,0.1,0.5,0.5
			c0,0.1,0,0.2,0,0.2c0,0.4-0.1,0.5-0.5,0.5c-0.4,0-0.8,0-1.3,0c-0.3,0-0.4,0.1-0.4,0.4c0,0.6,0,1.2,0,1.8c0,0.3,0.1,0.4,0.4,0.4
			c0.3,0,0.7,0,1,0c0.1,0,0.3,0.2,0.3,0.3c0,1.1,0.1,0.9-0.8,0.9c-0.9,0-0.8-0.1-0.8,0.8c0,0.5,0,1.1,0,1.6c0,0.3,0.1,0.5,0.5,0.4
			c0.4,0,0.9,0,1.3,0c0.3,0,0.4,0.1,0.4,0.4c0,0.9,0.1,0.8-0.8,0.8c-0.8,0-1.7,0-2.5,0c-0.4,0-0.5-0.1-0.5-0.5
			C50.5,33.7,50.5,32.4,50.5,31.1z"/>
		<path class="st0" d="M61.1,31.1c0-1.3,0-2.7,0-4c0-0.3,0.1-0.5,0.4-0.5c1,0,2,0,3,0c0.3,0,0.4,0.1,0.4,0.4c0,0.8,0,0.8-0.8,0.8
			c-0.3,0-0.7,0-1,0c-0.2,0-0.4,0.1-0.4,0.3c0,0.6,0,1.2,0,1.8c0,0.3,0.1,0.4,0.4,0.3c0.3,0,0.7,0,1,0c0.2,0,0.3,0.1,0.3,0.3
			c0,1.1,0.1,0.9-0.8,0.9c-0.9,0-0.8-0.1-0.8,0.8c0,0.5,0,1.1,0,1.6c0,0.4,0.1,0.5,0.5,0.5c0.4,0,0.8,0,1.3,0c0.3,0,0.4,0.1,0.4,0.4
			c0,0.8,0,0.8-0.8,0.8c-0.9,0-1.7,0-2.6,0c-0.4,0-0.5-0.1-0.5-0.5C61.1,33.7,61.1,32.4,61.1,31.1z"/>
		<path class="st0" d="M35.7,29.9c0.2-0.6,0.3-1.2,0.5-1.7c0.1-0.4,0.2-0.8,0.3-1.2c0.1-0.3,0.2-0.4,0.6-0.4c0.3,0,0.7,0,1.1,0
			c0,0.2-0.1,0.4-0.1,0.5c-0.5,1.5-1,3-1.5,4.5c-0.1,0.4-0.2,0.8-0.2,1.2c0,0.8,0,1.5,0,2.3c0,0.3-0.1,0.5-0.4,0.5
			c-1.1,0-1.2,0-1.1-1.1c0.1-1.5-0.2-3-0.7-4.4c-0.4-1-0.7-1.9-1-2.9c0-0.1-0.1-0.3-0.1-0.5c0.5,0,1,0,1.4,0c0.1,0,0.2,0.2,0.2,0.3
			c0.3,0.8,0.5,1.6,0.8,2.4c0.1,0.2,0.1,0.3,0.2,0.5C35.6,29.9,35.6,29.9,35.7,29.9z"/>
		<path class="st0" d="M73.6,31.8c0,1.1,0,2.2,0,3.3c0,0.3-0.1,0.5-0.5,0.5c-1.2,0-1.2,0-1.2-1.2c0-2,0-4,0-6c0-0.4-0.1-0.5-0.5-0.5
			c-0.1,0-0.2,0-0.4,0c-0.6,0-0.6,0-0.6-0.6c0-0.6,0-0.6,0.6-0.6c1.2,0,2.3,0,3.5,0c0.4,0,0.5,0.1,0.5,0.5c0,0.9,0.1,0.8-0.8,0.8
			c-0.7,0-0.7,0-0.7,0.7C73.6,29.6,73.6,30.7,73.6,31.8z"/>
		<path class="st0" d="M44.6,16.5c0-1.3,0-2.5,0-3.8c0-0.6,0-0.6,0.6-0.6c0.2,0,0.4,0,0.6,0c0.4,0,0.5,0.1,0.5,0.5
			c0,2.2,0,4.4,0,6.6c0,0.8,0,0.7,0.7,0.7c0.3,0,0.7,0,1,0c0.3,0,0.4,0.1,0.4,0.4c0,0.8,0,0.8-0.7,0.8c-0.9,0-1.7,0-2.6,0
			c-0.4,0-0.5-0.1-0.5-0.5C44.6,19.2,44.6,17.8,44.6,16.5z"/>
		<path class="st0" d="M47.6,31.1c0-1.3,0-2.7,0-4c0-0.4,0.1-0.5,0.5-0.5c1.2,0,1.2,0,1.2,1.2c0,2.4,0,4.8,0,7.2
			c0,0.6,0,0.6-0.6,0.6c-0.2,0-0.5,0-0.7,0c-0.3,0-0.4-0.1-0.4-0.4C47.6,33.8,47.6,32.4,47.6,31.1z"/>
	</g>
</g>
</svg>
