<?xml version="1.0" encoding="utf-8"?>
<!-- Generator: Adobe Illustrator 25.0.1, SVG Export Plug-In . SVG Version: 6.00 Build 0)  -->
<svg version="1.1" id="Layer_1" xmlns="http://www.w3.org/2000/svg" xmlns:xlink="http://www.w3.org/1999/xlink" x="0px" y="0px"
	 viewBox="0 0 125 125" style="enable-background:new 0 0 125 125;" xml:space="preserve">
<style type="text/css">
	.st0{fill:#D2D1D3;}
</style>
<g>
	<g>
		<path class="st0" d="M58,102.2c0-0.2,0-0.3,0-0.5c0-11.4,0-22.7,0-34.1c0-0.3,0.1-0.5,0.4-0.7c7.1-4.1,14.2-8.2,21.3-12.3
			c0.1-0.1,0.3-0.2,0.5-0.3c0,0.2,0,0.4,0,0.5c0,13.4,0,26.8,0,40.2c0,0.4-0.1,0.5-0.5,0.6c-7.1,2.1-14.2,4.3-21.3,6.4
			C58.3,102.1,58.2,102.2,58,102.2z"/>
		<path class="st0" d="M33.5,54.3c0.2,0.1,0.3,0.2,0.5,0.2c7.1,4.1,14.2,8.2,21.3,12.3c0.3,0.2,0.4,0.3,0.4,0.6
			c0,11.4,0,22.8,0,34.2c0,0.1,0,0.3,0,0.5c-0.2,0-0.3-0.1-0.5-0.1C48.1,99.9,41,97.7,34,95.6c-0.4-0.1-0.4-0.4-0.4-0.6
			c0-8.7,0-17.5,0-26.2c0-4.6,0-9.3,0-13.9C33.5,54.7,33.5,54.6,33.5,54.3z"/>
		<path class="st0" d="M82.5,54.2c0.2,0.1,0.3,0.1,0.3,0.2c0.6,0.5,1.2,0.9,1.8,1.4c0.2,0.1,0.2,0.4,0.3,0.6c0,0.1,0,0.2,0,0.3
			c0,13.6,0,27.3,0,40.9c0,0.8,0,0.6-0.6,0.9c-7.1,2.2-14.2,4.5-21.3,6.7c-1.5,0.5-2.9,0.9-4.4,1.4c-0.3,0.1-0.6,0.1-0.8,0.1
			c-2,0.2-3.8-0.4-5.6-0.9c-7.6-2.1-15.2-4.2-22.9-6.3c-0.4-0.1-0.5-0.3-0.5-0.7c0-14.1,0-28.2,0-42.3c0-0.3,0.1-0.6,0.4-0.8
			c0.6-0.4,1.1-0.9,1.7-1.3c0.1-0.1,0.2-0.1,0.4-0.3c0,0.3,0,0.5,0,0.7c0,14.1,0,28.1,0,42.2c0,0.7-0.1,0.6,0.6,0.8
			c7.8,2.2,15.5,4.4,23.3,6.5c1.1,0.3,2.3,0.3,3.5-0.1c7.8-2.5,15.6-5,23.4-7.5c0.4-0.1,0.6-0.3,0.6-0.8c0-13.7,0-27.4,0-41.1
			C82.5,54.7,82.5,54.5,82.5,54.2z"/>
		<path class="st0" d="M94.8,103.8c-0.2-0.6-0.4-1.3-0.5-1.9c-0.6-2.2-1.3-4.4-1.9-6.6c-0.1-0.3-0.1-0.6-0.1-0.9
			c0-11.9,0-23.9,0-35.8c0-0.4,0.1-0.5,0.5-0.5c1.4,0,2.8,0,4.1,0c0.6,0,0.6,0,0.6,0.6c0,11.1,0,22.2,0,33.3c0,1.9-0.2,3.7-0.8,5.5
			c-0.6,1.9-1.1,3.9-1.7,5.9C95,103.5,94.9,103.7,94.8,103.8C94.9,103.8,94.9,103.8,94.8,103.8z"/>
		<path class="st0" d="M21.8,19.3c0,2.2,0,4.5,0,6.7c0,0.4,0.1,0.5,0.5,0.5c0.5,0,1,0,1.5,0c0.3,0,0.4,0.1,0.4,0.3
			c0,0.9,0,1.8,0,2.7c0,0.3-0.1,0.4-0.4,0.4c-0.5,0-1,0-1.5,0c-0.4,0-0.5,0.1-0.5,0.5c0,1.5,0,3,0,4.5c0,0.4-0.1,0.5-0.5,0.5
			c-1.1,0-2.1,0-3.2,0c-0.3,0-0.4-0.1-0.4-0.4c0-1.5,0-3,0-4.5c0-0.7,0.1-0.6-0.6-0.6c-1.9,0-3.9,0-5.8,0c-0.6,0-0.5,0-0.6-0.6
			c-0.2-2,0.3-3.8,1.1-5.6c1.7-3.7,3.2-7.5,4.8-11.2c0.2-0.4,0.3-0.5,0.7-0.5c1.4,0,2.7,0,4.1,0c0.4,0,0.5,0.1,0.5,0.5
			C21.8,14.8,21.8,17,21.8,19.3z M17.7,17L17.7,17c-1.2,3.1-2.3,6.3-3.4,9.5c1.2,0,2.3,0,3.4,0C17.7,23.3,17.7,20.2,17.7,17z"/>
		<path class="st0" d="M33.5,31.1c0-1.3,0-2.6,0-3.9c0-0.5,0-0.5,0.5-0.5c0.8,0,1.5,0,2.3,0.1c1.3,0.1,2,0.7,2.1,2
			c0.1,1.7,0.1,3.4,0,5c-0.1,1.1-0.9,1.8-2,1.9c-0.8,0.1-1.7,0-2.6,0c-0.3,0-0.3-0.2-0.3-0.4C33.5,33.8,33.5,32.4,33.5,31.1z
			 M35.3,27.9c0,2.2,0,4.3,0,6.5c1.1,0.2,1.5-0.1,1.5-1.2c0-1.4,0-2.8,0-4.2C36.7,28,36.3,27.7,35.3,27.9z"/>
		<path class="st0" d="M38.3,16.5c0-1.3,0-2.7,0-4c0-0.4,0.1-0.5,0.5-0.5c0.8,0,1.7,0,2.5,0.1c1.1,0.1,1.8,0.8,1.9,1.9
			c0.1,1.6,0.1,3.3,0,4.9c-0.1,1.3-0.9,2-2.2,2.1c-0.8,0-1.5,0-2.3,0c-0.3,0-0.4-0.1-0.4-0.4C38.3,19.2,38.3,17.9,38.3,16.5z
			 M40,16.5c0,1,0,2,0,3c0,0.3,0.1,0.4,0.3,0.4c0.8,0,1.2-0.3,1.2-1.2c0-1.4,0-2.9,0-4.3c0-0.8-0.3-1-1.1-1.1
			c-0.3,0-0.4,0.1-0.4,0.4C40,14.6,40,15.6,40,16.5z"/>
		<path class="st0" d="M77.5,31.1c0-1.3,0-2.7,0-4c0-0.3,0.1-0.5,0.4-0.4c0.8,0,1.7,0,2.5,0.1c1.2,0.1,1.9,0.8,2,2
			c0.1,1.6,0.1,3.2,0,4.9c-0.1,1.3-0.9,2-2.2,2.1c-0.8,0-1.5,0-2.3,0c-0.3,0-0.4-0.1-0.4-0.4C77.5,33.8,77.5,32.4,77.5,31.1z
			 M79.2,34.3c1.1,0.2,1.5-0.1,1.5-1.2c0-1.4,0-2.8,0-4.3c0-0.8-0.3-1-1.1-1.1c-0.4,0-0.5,0.1-0.5,0.5c0,1.9,0,3.7,0,5.6
			C79.2,34.1,79.2,34.2,79.2,34.3z"/>
		<path class="st0" d="M76.7,16.5c0,0.8,0.1,1.7,0,2.5c-0.2,1.6-1.2,2.2-2.8,2.1c-1.5-0.1-2.3-0.9-2.3-2.4c-0.1-1.5-0.1-3.1,0-4.6
			c0-1.4,0.9-2.2,2.3-2.2c0.3,0,0.5,0,0.8,0c1.3,0.2,2,1,2,2.4C76.7,15.1,76.7,15.8,76.7,16.5L76.7,16.5z M75,16.5L75,16.5
			c0-0.8,0-1.7,0-2.5c0-0.5-0.3-0.8-0.8-0.8s-0.8,0.2-0.9,0.8c0,0.2,0,0.3,0,0.5c0,1.4,0,2.7,0,4.1c0,0.2,0,0.5,0.1,0.7
			c0.1,0.4,0.3,0.5,0.7,0.6c0.6,0,0.9-0.2,1-0.9C75,18.2,75,17.4,75,16.5z"/>
		<path class="st0" d="M81.2,16.8c0-1.4,0-2.8,0-4.3c0-0.4,0.1-0.5,0.5-0.5c1.1,0,0.9-0.1,0.9,0.9c0,2.5,0,5,0,7.6
			c0,0.2,0.1,0.5-0.2,0.5c-0.6,0.1-0.9,0-1-0.3c-0.6-1.4-1.2-2.8-1.8-4.3c-0.1-0.1-0.1-0.2-0.2-0.5c0,0.2,0,0.4,0,0.5
			c0,1.4,0,2.7,0,4.1c0,0.3-0.1,0.4-0.4,0.4c-1,0-1,0-1-1c0-2.5,0-5,0-7.5c0-0.4,0.1-0.5,0.5-0.5c0.5,0,0.8,0.2,1,0.6
			c0.5,1.3,1.1,2.6,1.6,3.8C81.1,16.6,81.1,16.7,81.2,16.8L81.2,16.8z"/>
		<path class="st0" d="M65.9,31.1c0-1.3,0-2.7,0-4c0-0.4,0.1-0.5,0.5-0.5c0.8,0,1.6,0,2.4,0.1c1.2,0.1,1.9,0.7,2,1.8
			c0.1,1.7,0.1,3.5,0,5.2c-0.1,1.1-0.9,1.8-2,1.8c-0.8,0-1.7,0-2.5,0c-0.3,0-0.3-0.2-0.3-0.4C65.9,33.8,65.9,32.4,65.9,31.1z
			 M67.6,34.3c1.1,0.2,1.5-0.1,1.5-1.1c0-1.4,0-2.8,0-4.2c0-1-0.5-1.3-1.5-1.1C67.6,30,67.6,32.2,67.6,34.3z"/>
		<path class="st0" d="M49.4,15.6c0,1.2,0.1,2.3,0,3.5c-0.1,1.5-1,2.2-2.8,2.1c-1.5-0.1-2.1-0.8-2.2-2.5c-0.1-2.1,0-4.2,0-6.3
			c0-0.2,0.1-0.3,0.3-0.3h0.1c1.2,0,1.2,0,1.2,1.2c0,1.7,0,3.3,0,5c0,0.3,0,0.7,0.1,1c0.1,0.4,0.4,0.6,0.8,0.6
			c0.4,0,0.7-0.2,0.8-0.6s0.1-0.8,0.1-1.1c0-1.9,0-3.7,0-5.6c0-0.4,0.1-0.5,0.5-0.5c0.3,0,0.5,0,0.8,0s0.4,0.1,0.4,0.4
			C49.5,13.5,49.5,14.5,49.4,15.6L49.4,15.6z"/>
		<path class="st0" d="M48.4,31.1c0,0.7,0,1.4,0,2.1c0,0.2,0,0.5,0.1,0.7c0.1,0.4,0.4,0.6,0.8,0.6c0.4,0,0.6-0.2,0.7-0.6
			c0.1-0.4,0.1-0.9,0.1-1.3c0-0.2,0.1-0.3,0.3-0.3c0.3,0,0.7,0,1,0c0.1,0,0.3,0.2,0.3,0.2c-0.1,0.7-0.1,1.4-0.3,2.1
			c-0.1,0.5-0.6,0.8-1.1,1c-0.7,0.2-1.4,0.2-2.2,0c-0.9-0.3-1.3-1-1.4-1.8c-0.1-1.7-0.1-3.5,0-5.2c0.1-1.4,1-2.1,2.9-2
			c1.4,0.1,1.9,0.8,2,2.4c0.1,1.1,0.1,0.9-0.9,0.9c-0.9,0-0.7,0.1-0.8-0.7c0-0.2,0-0.5,0-0.7c-0.1-0.5-0.3-0.7-0.7-0.7
			c-0.5,0-0.8,0.2-0.8,0.7c-0.1,0.6-0.1,1.2-0.1,1.7C48.4,30.5,48.4,30.8,48.4,31.1L48.4,31.1z"/>
		<path class="st0" d="M52.3,16.5c0,0.7,0,1.3,0,2c0,0.3,0,0.5,0.1,0.8c0.1,0.4,0.3,0.6,0.8,0.6c0.4,0,0.7-0.2,0.7-0.6
			C54,18.8,54,18.4,54,18c0-0.2,0.1-0.3,0.3-0.3c0.3,0,0.7,0,1,0c0.1,0,0.3,0.2,0.3,0.2c0,0.7,0,1.5-0.3,2.1c-0.2,0.4-0.5,0.8-1,0.9
			c-0.8,0.3-1.6,0.3-2.4,0c-0.8-0.3-1.2-1-1.2-1.8c-0.1-1.7-0.1-3.4,0-5.1c0.1-1.5,1.4-2.3,3.1-2c1.2,0.2,1.8,0.9,1.9,2.3
			c0,1.3,0.1,1-1,1.1c-0.6,0-0.6,0-0.6-0.6c0-0.3,0-0.5,0-0.8c-0.1-0.5-0.3-0.7-0.8-0.7c-0.4,0-0.8,0.2-0.8,0.7
			c-0.1,0.6-0.1,1.2-0.1,1.9C52.3,16,52.3,16.2,52.3,16.5z"/>
		<path class="st0" d="M64.2,16.5c0,0.9,0,1.7,0,2.6c0,0.6,0.3,0.8,0.9,0.8c0.5,0,0.7-0.3,0.7-0.9c0-0.3,0-0.7,0-1s0.1-0.4,0.3-0.4
			c0.1,0,0.3,0,0.4,0c1,0,0.8-0.1,0.8,0.8c0,0.3,0,0.6-0.1,0.9c-0.2,1-0.8,1.6-1.8,1.7c-0.4,0-0.9,0-1.3,0c-1-0.2-1.7-1-1.7-2.2
			c-0.1-1.6-0.1-3.1,0-4.7c0.1-1.7,1.3-2.5,3.1-2.2c1.2,0.2,1.8,0.9,1.9,2.2c0,1.4,0.2,1.1-1.1,1.2c-0.6,0-0.6,0-0.6-0.6
			c0-0.3,0-0.6,0-0.9c0-0.5-0.3-0.7-0.7-0.8c-0.5,0-0.8,0.2-0.8,0.7c0,0.1-0.1,0.2-0.1,0.4C64.1,15,64.1,15.7,64.2,16.5
			C64.1,16.5,64.2,16.5,64.2,16.5z"/>
		<path class="st0" d="M61.6,21c-0.5,0-0.9,0-1.4,0c-0.1,0-0.2-0.2-0.2-0.4c-0.1-0.5-0.2-0.9-0.2-1.4c0-0.2-0.1-0.3-0.3-0.3
			c-1.2-0.1-1.2-0.1-1.4,1.1c-0.2,1-0.2,1-1.1,1c-0.2,0-0.4,0-0.6,0c0.1-0.4,0.1-0.8,0.2-1.2c0.5-2.5,1-4.9,1.5-7.4
			c0.1-0.4,0.2-0.5,0.6-0.5c1.3,0,1.3,0,1.5,1.3c0.5,2.5,1,4.9,1.5,7.4C61.6,20.8,61.6,20.8,61.6,21z M59,14.6L59,14.6
			c-0.2,1.1-0.4,2.1-0.6,3.2c0.4,0,0.7,0,1.1,0C59.4,16.7,59.2,15.7,59,14.6z"/>
		<path class="st0" d="M57.6,35.6c-0.5,0-0.9,0-1.3,0c-0.1,0-0.2-0.2-0.2-0.3c-0.1-0.5-0.2-0.9-0.3-1.4c0-0.3-0.1-0.4-0.4-0.4
			c-1.1,0-1.1,0-1.3,1.1s0,0.9-1.1,0.9c-0.2,0-0.4,0-0.6,0c0-0.2,0-0.3,0-0.4c0.6-2.7,1.1-5.4,1.7-8.2c0.1-0.3,0.2-0.4,0.4-0.4
			c0.4,0,0.7,0,1.1,0c0.1,0,0.3,0.1,0.3,0.3c0.6,2.8,1.2,5.7,1.7,8.5C57.6,35.4,57.6,35.5,57.6,35.6z M55,29.2
			C55,29.2,54.9,29.2,55,29.2c-0.2,0.8-0.3,1.7-0.5,2.5c-0.1,0.7-0.2,0.7,0.7,0.7c0.3,0,0.3-0.1,0.3-0.3
			C55.3,31.1,55.1,30.2,55,29.2z"/>
		<path class="st0" d="M76.7,35.6c-0.5,0-0.9,0-1.4,0c-0.1,0-0.2-0.2-0.2-0.3c-0.1-0.5-0.2-0.9-0.2-1.4c0-0.3-0.1-0.4-0.4-0.4
			c-1.1,0-1.1,0-1.3,1.1c-0.2,1.1,0,0.9-1.1,0.9c-0.2,0-0.4,0-0.7,0c0.1-0.6,0.2-1.2,0.4-1.8c0.5-2.2,0.9-4.5,1.4-6.7
			c0.1-0.3,0.2-0.4,0.5-0.4c0.1,0,0.2,0,0.3,0c1,0,1,0,1.2,1c0.5,2.5,1,5,1.5,7.5C76.7,35.2,76.7,35.4,76.7,35.6z M74.1,29.2
			L74.1,29.2c-0.2,0.8-0.3,1.7-0.5,2.5c-0.1,0.7-0.1,0.7,0.6,0.7c0.3,0,0.4-0.1,0.3-0.4C74.4,31.1,74.2,30.1,74.1,29.2z"/>
		<path class="st0" d="M94.9,56.1c-0.8,0-1.5,0-2.3,0c-0.3,0-0.4-0.1-0.4-0.4c0-0.9,0-1.8,0-2.7c0-1.4,1.2-2.5,2.7-2.4
			c1.4,0,2.5,1.2,2.6,2.5c0,0.9,0,1.7,0,2.6c0,0.3-0.1,0.4-0.4,0.4C96.4,56.1,95.6,56.1,94.9,56.1z"/>
		<path class="st0" d="M33.5,16.5c0-1.3,0-2.7,0-4c0-0.4,0.1-0.5,0.5-0.5c1,0,1.9,0,2.9,0c0.3,0,0.5,0.1,0.5,0.5
			c0,0.9,0.1,0.8-0.8,0.8c-0.4,0-0.7,0-1.1,0c-0.2,0-0.3,0.1-0.3,0.3c0,0.6,0,1.3,0,1.9c0,0.2,0.1,0.3,0.3,0.3c0.3,0,0.7,0,1,0
			c0.2,0,0.3,0.1,0.3,0.3c0,1.1,0.1,0.9-0.8,0.9c-1,0-0.8-0.1-0.8,0.8c0,0.6,0,1.1,0,1.7c0,0.3,0.1,0.4,0.4,0.4c0.5,0,0.9,0,1.4,0
			c0.2,0,0.3,0.1,0.3,0.3c0,1,0.1,0.8-0.8,0.8c-0.8,0-1.6,0-2.4,0c-0.6,0-0.7,0-0.7-0.6C33.5,19.1,33.5,17.8,33.5,16.5z"/>
		<path class="st0" d="M41.3,30.3c0.5,0,0.9,0,1.4,0c0.2,0,0.3,0.1,0.3,0.3c0,1.1,0.1,0.9-0.8,0.9c-0.8,0-0.8,0-0.8,0.8
			c0,0.5,0,1.1,0,1.6c0,0.3,0.1,0.4,0.4,0.4c0.5,0,0.9,0,1.4,0c0.3,0,0.4,0.1,0.4,0.4c0,1,0.1,0.8-0.8,0.8c-0.9,0-1.8,0-2.6,0
			c-0.3,0-0.4-0.1-0.4-0.4c0-2.7,0-5.5,0-8.2c0-0.3,0.1-0.4,0.4-0.4c1,0,2,0,3,0c0.3,0,0.4,0.1,0.4,0.4c0,1,0.1,0.8-0.8,0.8
			c-0.3,0-0.7,0-1,0c-0.1,0-0.3,0.2-0.3,0.2C41.2,28.8,41.3,29.5,41.3,30.3z"/>
		<path class="st0" d="M58.4,31.1c0-1.4,0-2.7,0-4.1c0-0.3,0.1-0.4,0.4-0.4c1.2,0,1.2,0,1.2,1.2c0,2,0,4,0,6c0,0.6,0,0.6,0.5,0.6
			c0.4,0,0.8,0,1.3,0c0.3,0,0.3,0.1,0.4,0.4c0,0.8,0,0.8-0.8,0.8c-0.9,0-1.8,0-2.6,0c-0.3,0-0.4-0.1-0.4-0.4
			C58.4,33.8,58.4,32.5,58.4,31.1z"/>
		<path class="st0" d="M70.3,16.5c0,1.3,0,2.7,0,4c0,0.3-0.1,0.5-0.5,0.5c-0.3,0-0.6,0-0.9,0s-0.4-0.1-0.4-0.4c0-2.7,0-5.5,0-8.2
			c0-0.3,0.1-0.4,0.4-0.4s0.6,0,0.9,0s0.4,0.1,0.4,0.4C70.3,13.8,70.3,15.2,70.3,16.5z"/>
		<path class="st0" d="M64.7,31.1c0,1.3,0,2.7,0,4c0,0.4-0.1,0.5-0.5,0.5c-1.2,0-1.2,0-1.2-1.2c0-2.4,0-4.8,0-7.3
			c0-0.4,0.1-0.5,0.5-0.5c1.2,0,1.2,0,1.2,1.2C64.7,28.9,64.7,30,64.7,31.1z"/>
		<path class="st0" d="M73.7,11.3c0.2-0.7,0.4-1.3,0.6-2c0-0.1,0.2-0.2,0.3-0.2c0.4,0,0.9,0,1.4,0c-0.2,0.4-0.4,0.7-0.6,1
			c-0.1,0.2-0.3,0.5-0.4,0.7C74.5,11.4,74.4,11.4,73.7,11.3z"/>
	</g>
</g>
</svg>
