<?xml version="1.0" encoding="utf-8"?>
<!-- Generator: Adobe Illustrator 24.3.0, SVG Export Plug-In . SVG Version: 6.00 Build 0)  -->
<svg version="1.1" id="Layer_1" xmlns="http://www.w3.org/2000/svg" xmlns:xlink="http://www.w3.org/1999/xlink" x="0px" y="0px"
	 viewBox="0 0 125 125" style="enable-background:new 0 0 125 125;" xml:space="preserve">
<style type="text/css">
	.st0{fill:#FF3A21;}
</style>
<g>
	<g>
		<path class="st0" d="M74.6,59.8c2.2-2.2,4.4-4.4,6.6-6.6c-0.1,0-0.3,0-0.4,0c-1.7,0-3.4,0-5.1,0c-0.5,0-0.6,0-0.6-0.6
			c0-1.5,0-2.9,0-4.4c0-0.5,0-0.6,0.5-0.6c4.9,0,9.8,0,14.6,0c0.5,0,0.5,0,0.5,0.6c0,4.9,0,9.7,0,14.6c0,0.5,0,0.6-0.6,0.6
			c-1.5,0-3,0-4.4,0c-0.5,0-0.5,0-0.5-0.5c0-1.6,0-3.1,0-4.7c0-0.1,0-0.3,0-0.4c-2.2,2.2-4.3,4.3-6.5,6.5c0.5,0.9,1.1,1.9,1.6,2.9
			c1.2,2.4,1.8,4.9,1.9,7.6c0.5,9.6-6,18.3-15.4,20.5c-0.3,0.1-0.7,0.2-1,0.2c-0.2,0-0.3,0.1-0.3,0.4c0,1.7,0,3.5,0,5.2
			c0,0.4,0.2,0.4,0.4,0.3c1.7,0,3.5,0,5.2,0c0.5,0,0.6,0,0.6,0.5c0,1.6,0,3.2,0,4.8c0,0.5,0,0.5-0.5,0.5c-1.7,0-3.4,0-5.1,0
			c-0.6,0-0.6,0-0.6,0.6c0,1.6,0,3.2,0,4.8c0,0.5,0,0.6-0.6,0.6c-1.6,0-3.2,0-4.8,0c-0.5,0-0.5,0-0.5-0.5c0-1.6,0-3.3,0-4.9
			c0-0.4-0.1-0.5-0.5-0.5c-1.7,0-3.4,0-5.2,0c-0.5,0-0.5,0-0.5-0.5c0-1.6,0-3.2,0-4.8c0-0.4,0.1-0.5,0.5-0.5c1.7,0,3.5,0,5.2,0
			c0.4,0,0.5-0.1,0.5-0.5c0-1.6,0-3.2,0-4.8c0-0.3-0.1-0.5-0.5-0.6c-8.1-1.2-14.8-7.5-16.5-15.6c-1.9-8.7,2.3-17.8,10.2-21.9
			c3.4-1.8,7-2.5,10.8-2.3c3.9,0.3,7.5,1.6,10.6,4C74.5,59.7,74.6,59.8,74.6,59.8z M77,75.6c0-8.1-6.6-14.7-14.6-14.7
			c-8.1,0-14.7,6.5-14.8,14.6c-0.1,7.8,6.2,14.8,14.7,14.8C70.4,90.4,77,83.7,77,75.6z"/>
		<path class="st0" d="M15.3,20.9c1.3-0.9,2.6-1.1,4.1-1c1.5,0.1,2.5,1,3.2,2.3c0.7,1.3,0.9,2.7,1,4.1c0.1,1.8,0,3.5-0.4,5.2
			c-0.6,2.6-2.3,4.1-4.9,4.2c-0.9,0.1-1.8,0-2.7-0.1c-2.3-0.4-3.5-1.6-4-3.9c-0.2-0.9-0.2-1.8-0.3-2.7c0-0.3,0.1-0.4,0.4-0.4
			c1.2,0,2.4,0,3.6,0c0.3,0,0.4,0.1,0.4,0.4c0.1,0.8,0.1,1.5,0.3,2.2c0.2,0.8,0.7,1.1,1.4,1.2c0.9,0,1.4-0.2,1.6-1
			c0.2-0.4,0.3-0.9,0.3-1.3c0-1.6,0-3.2-0.1-4.8c0-0.3-0.1-0.6-0.2-0.9c-0.2-0.7-0.6-1.1-1.3-1.2c-0.7-0.1-1.4,0.1-1.8,0.8
			c-0.2,0.3-0.3,0.7-0.4,1c-0.1,0.2-0.2,0.3-0.4,0.3c-1.1,0-2.1,0-3.2,0c-0.2,0-0.3-0.1-0.3-0.3c0-1.9,0.1-3.9,0.1-5.8
			c0-1.8,0.1-3.7,0.1-5.5c0-0.5,0-0.9,0-1.4c0-0.3,0.1-0.3,0.4-0.3c0.1,0,0.1,0,0.2,0c3.2,0,6.4,0,9.7,0c0.6,0,0.6,0,0.6,0.6
			c0,1,0,2,0,2.9c0,0.3-0.1,0.4-0.4,0.4c-2.1,0-4.1,0-6.2,0c-0.4,0-0.5,0.1-0.5,0.5c0,1.3-0.1,2.6-0.2,3.9
			C15.3,20.5,15.3,20.7,15.3,20.9z"/>
		<path class="st0" d="M33.5,31.1c0-1.3,0-2.7,0-4c0-0.4,0.1-0.5,0.5-0.5c0.8,0,1.5,0,2.3,0.1c1.3,0.1,2,0.7,2.1,2
			c0.1,1.6,0.1,3.3,0,4.9c-0.1,1.2-0.9,1.9-2.1,1.9c-0.8,0-1.5,0-2.3,0c-0.3,0-0.4-0.1-0.4-0.4C33.5,33.8,33.5,32.4,33.5,31.1z
			 M35.2,31.1c0,1,0,2,0,2.9c0,0.1,0.1,0.3,0.2,0.3c0.8,0.1,1.3-0.1,1.3-1c0-1.5,0-3,0-4.4c0-0.8-0.3-1.1-1.1-1.1
			c-0.3,0-0.5,0.1-0.4,0.4C35.2,29.2,35.2,30.1,35.2,31.1z"/>
		<path class="st0" d="M59,16.6c0-1.4,0-2.7,0-4.1c0-0.4,0.1-0.5,0.5-0.5c0.8,0,1.7,0,2.5,0.1c1.2,0.1,1.9,0.7,1.9,1.9
			c0.1,1.7,0.1,3.3,0,5c-0.1,1.2-0.8,1.9-2,2c-0.8,0.1-1.7,0-2.5,0C59,21,59,20.8,59,20.6C59,19.3,59,17.9,59,16.6z M60.7,16.5
			c0,1,0,2,0,2.9c0,0.3,0.1,0.4,0.4,0.4c0.8,0,1.1-0.3,1.1-1.1c0-1.5,0-2.9,0-4.4c0-0.8-0.3-1-1.1-1.1c-0.4,0-0.4,0.1-0.4,0.4
			C60.7,14.6,60.7,15.6,60.7,16.5z"/>
		<path class="st0" d="M79.2,31.1c0,0.9,0.1,1.8,0,2.6c-0.1,1.2-0.8,1.8-2,1.9c-0.5,0.1-1,0-1.4-0.1c-1-0.2-1.6-1-1.6-2.1
			c-0.1-1.6-0.1-3.2,0-4.8c0.1-1.5,1.3-2.3,2.9-2.1c1.4,0.2,2.1,1,2.2,2.5C79.2,29.7,79.2,30.4,79.2,31.1
			C79.2,31.1,79.2,31.1,79.2,31.1z M77.5,31.1c0-0.8,0-1.7,0-2.5c0-0.5-0.3-0.8-0.8-0.8c-0.5,0-0.8,0.2-0.9,0.7c0,0.2,0,0.3,0,0.5
			c0,1.4,0,2.8,0,4.2c0,0.2,0,0.4,0.1,0.6c0.1,0.4,0.3,0.6,0.7,0.6c0.6,0,0.9-0.2,1-0.8C77.5,32.8,77.5,31.9,77.5,31.1z"/>
		<path class="st0" d="M70.6,16.5c0-1.3,0-2.7,0-4c0-0.3,0.1-0.5,0.4-0.4c0.8,0,1.7,0,2.5,0.1c1.2,0.1,1.9,0.7,1.9,1.8
			c0.1,1.7,0.1,3.5,0,5.2c-0.1,1.2-0.9,1.8-2.1,1.9c-0.8,0-1.6,0-2.4,0c-0.3,0-0.3-0.2-0.3-0.4C70.6,19.2,70.6,17.9,70.6,16.5z
			 M72.3,19.8c0.3,0,0.5,0,0.8-0.1c0.5-0.1,0.7-0.3,0.7-0.8c0-1.6,0.1-3.1,0-4.7c0-0.8-0.3-1-1.1-1c-0.3,0-0.4,0.1-0.4,0.4
			c0,1.9,0,3.8,0,5.7C72.2,19.5,72.2,19.7,72.3,19.8z"/>
		<path class="st0" d="M73.2,35.6c-0.5,0-1,0-1.5,0c-0.1,0-0.2-0.2-0.3-0.4c-0.3-1.1-0.6-2.2-0.9-3.3c0-0.1-0.1-0.3-0.3-0.4
			c-0.3-0.1-0.5,0-0.5,0.4c0,1.1,0,2.2,0,3.2c0,0.3-0.1,0.4-0.4,0.4c-1.3,0-1.3,0-1.3-1.2c0-2.4,0-4.8,0-7.3c0-0.4,0.1-0.5,0.5-0.5
			c0.8,0,1.5,0,2.3,0.1c1.4,0.1,2.1,0.8,2.1,2.2c0,0.7,0,1.5-0.5,1.9c-0.5,0.4-0.4,0.8-0.3,1.3c0.3,1,0.6,2,0.9,3
			C73.1,35.2,73.2,35.3,73.2,35.6z M69.8,29.1c0,0.3,0,0.7,0,1c0,0.2,0.1,0.3,0.3,0.3c0.9,0,1.3-0.4,1.3-1.4c0-0.9-0.3-1.2-1.2-1.3
			c-0.4,0-0.5,0.1-0.5,0.5C69.8,28.6,69.8,28.8,69.8,29.1z"/>
		<path class="st0" d="M59,30.6c0,1.5,0,3,0,4.4c0,0.5,0,0.5-0.5,0.5c-0.9,0-0.9,0-0.9-0.9c0-2.5,0-5,0-7.6c0-0.4,0.1-0.5,0.5-0.5
			c0.5,0,0.7,0.1,0.9,0.6c0.6,1.4,1.2,2.8,1.9,4.2c0-0.1,0-0.2,0-0.3c0-1.3,0-2.7,0-4c0-0.3,0.1-0.4,0.4-0.4c1.1,0,1-0.1,1,0.9
			c0,2.5,0,4.9,0,7.4c0,0.2,0.2,0.6-0.2,0.7c-0.6,0.2-0.9,0-1.1-0.4c-0.6-1.4-1.2-2.8-1.7-4.2C59.2,30.8,59.1,30.7,59,30.6
			C59,30.6,59,30.6,59,30.6z"/>
		<path class="st0" d="M40.2,20.3c-0.7,1.3-3.1,1-3.6-0.6c-0.1-0.3-0.2-0.7-0.2-1.1c0-1.5-0.1-3,0-4.4c0.1-2,1.4-2.5,3.1-2.3
			c1.3,0.1,1.9,0.9,1.9,2.3c0,0.9,0.1,0.8-0.7,0.8c-0.8,0-0.8,0-0.8-0.8c0-0.1,0-0.1,0-0.2c-0.1-0.7-0.3-0.9-0.9-0.9
			c-0.5,0-0.8,0.3-0.8,1c0,1.6,0,3.1,0,4.7c0,0.7,0.3,1,0.8,1c0.5,0,0.8-0.2,0.9-0.7c0.1-0.4,0.1-0.9,0.1-1.4c0-0.1-0.2-0.2-0.4-0.2
			c-0.2-0.1-0.5-0.1-0.5-0.1c-0.1-0.3,0-0.6,0-0.9c0,0,0.2-0.1,0.3-0.1c0.6,0,1.2,0,1.9,0c0.3,0,0.3,0.1,0.3,0.3c0,1.3,0,2.6,0,3.9
			c0,0.2-0.1,0.4-0.3,0.3c-0.1,0-0.2,0-0.2,0c-0.4,0-0.6,0-0.6-0.5C40.3,20.5,40.3,20.4,40.2,20.3z"/>
		<path class="st0" d="M50.6,34.9c-0.5,0.8-1.2,0.9-1.9,0.8c-1.1-0.2-1.6-0.7-1.8-2c-0.2-1.8-0.2-3.6,0-5.3c0.2-1.1,0.8-1.7,1.9-1.8
			c0.5-0.1,1,0,1.5,0.1c0.9,0.2,1.3,0.8,1.5,1.8c0.2,1.2,0.2,1.2-1,1.1c-0.6,0-0.5,0-0.6-0.5c0-0.2,0-0.4-0.1-0.6
			c-0.1-0.5-0.3-0.7-0.8-0.7c-0.4,0-0.7,0.2-0.8,0.6c0,0.2-0.1,0.4-0.1,0.6c0,1.3,0,2.7,0,4c0,0.2,0,0.5,0.1,0.7
			c0.1,0.5,0.3,0.7,0.8,0.7c0.5,0,0.8-0.2,0.9-0.7c0.1-0.5,0.1-0.9,0.1-1.4c0-0.3-0.3-0.2-0.4-0.2c-0.2,0-0.4-0.1-0.4-0.1
			c0-0.3,0-0.6,0-0.9c0,0,0.2-0.1,0.3-0.1c0.6,0,1.2,0,1.8,0c0.2,0,0.3,0.1,0.3,0.3c0,1.3,0,2.6,0,3.9c0,0.2-0.1,0.3-0.3,0.3
			C50.8,35.6,50.8,35.6,50.6,34.9z"/>
		<path class="st0" d="M42.5,15.5c0-1,0-2.1,0-3.1c0-0.3,0.1-0.4,0.4-0.4c1.2,0,1.2,0,1.2,1.2c0,1.8,0,3.6,0,5.4
			c0,0.2,0,0.5,0.1,0.7c0.1,0.4,0.4,0.5,0.8,0.5c0.4,0,0.6-0.2,0.7-0.5c0.1-0.4,0.1-0.7,0.1-1.1c0-1.9,0-3.8,0-5.6
			c0-0.5,0-0.5,0.5-0.6c1.1,0,1.1,0,1.1,1.1c0,1.7,0,3.4,0,5c0,0.4,0,0.7-0.1,1.1c-0.3,1.3-0.9,2-2.7,1.9c-1.5-0.1-2.2-0.9-2.3-2.5
			C42.5,17.6,42.5,16.6,42.5,15.5C42.5,15.5,42.5,15.5,42.5,15.5z"/>
		<path class="st0" d="M69.8,21c-0.5,0-0.9,0-1.3,0c-0.1,0-0.2-0.2-0.3-0.3c-0.1-0.5-0.2-1-0.3-1.4c0-0.1-0.2-0.2-0.3-0.3
			c0,0-0.1,0-0.1,0c-1.1,0-1.1,0-1.3,1.1C66,21,66,21,65,21c-0.2,0-0.3,0-0.6,0c0.1-0.7,0.3-1.3,0.4-2c0.4-2.1,0.9-4.3,1.3-6.4
			c0.1-0.6,0.1-0.6,0.7-0.6c1.1,0,1.1,0,1.4,1.1c0.5,2.5,1,5,1.5,7.4C69.7,20.7,69.7,20.8,69.8,21z M67.2,14.6
			C67.1,14.6,67.1,14.6,67.2,14.6c-0.3,1-0.4,2.1-0.6,3.2c0.4,0,0.7,0,1.1,0C67.5,16.7,67.3,15.7,67.2,14.6z"/>
		<path class="st0" d="M53.6,21c-0.5,0-0.9,0-1.3,0c-0.1,0-0.2-0.2-0.2-0.3c-0.1-0.5-0.2-0.9-0.3-1.4c0-0.2-0.1-0.3-0.4-0.4
			c-1.2,0-1.2,0-1.4,1.1c-0.2,1.1,0,0.9-1.1,0.9c-0.2,0-0.4,0-0.6,0c0.1-0.5,0.2-1,0.3-1.5c0.5-2.4,1-4.7,1.4-7.1
			c0.1-0.3,0.2-0.5,0.5-0.4c0.3,0,0.7,0,1,0c0.3,0,0.4,0.1,0.4,0.4c0.6,2.8,1.1,5.5,1.7,8.3C53.6,20.8,53.6,20.9,53.6,21z M51,14.6
			C51,14.6,51,14.6,51,14.6c-0.2,0.9-0.4,1.9-0.5,2.9c0,0.1,0.1,0.3,0.2,0.3c0.3,0,0.6,0,0.9,0C51.3,16.7,51.2,15.6,51,14.6z"/>
		<path class="st0" d="M52.9,31.1c0-1.3,0-2.7,0-4c0-0.3,0.1-0.4,0.4-0.4c1,0,2,0,2.9,0c0.3,0,0.4,0.1,0.4,0.4
			c0,0.9,0.1,0.8-0.8,0.8c-0.3,0-0.7,0-1,0c-0.2,0-0.3,0.1-0.3,0.3c0,0.6,0,1.3,0,1.9c0,0.2,0.1,0.3,0.3,0.3c0.3,0,0.7,0,1,0
			c0.3,0,0.4,0.1,0.4,0.4c0,1,0.1,0.9-0.8,0.9c-1,0-0.8-0.1-0.9,0.9c0,0.5,0,1,0,1.5c0,0.5,0,0.5,0.5,0.5c0.4,0,0.8,0,1.2,0
			c0.3,0,0.4,0.1,0.4,0.4c0,0.9,0,0.8-0.8,0.8c-0.9,0-1.7,0-2.6,0c-0.4,0-0.5-0.1-0.5-0.5C52.9,33.7,52.9,32.4,52.9,31.1z"/>
		<path class="st0" d="M41.5,35.6c-0.5,0-1,0-1.5,0c-0.3,0-0.4-0.1-0.4-0.4c0-2.7,0-5.5,0-8.2c0-0.3,0.1-0.4,0.4-0.4
			c1,0,2.1,0,3.1,0c0.2,0,0.3,0.1,0.3,0.3c0,1.1,0.1,0.9-0.8,0.9c-0.3,0-0.7,0-1,0c-0.3,0-0.3,0.1-0.3,0.3c0,0.6,0,1.2,0,1.9
			c0,0.2,0.1,0.3,0.3,0.3c0.4,0,0.7,0,1.1,0c0.2,0,0.3,0.1,0.3,0.3c0.1,0.9,0.1,0.9-0.8,0.9c-0.9,0-0.9,0-0.9,0.9c0,0.6,0,1.1,0,1.7
			c0,0.2,0.1,0.3,0.3,0.3c0.5,0,0.9,0,1.4,0c0.3,0,0.4,0.1,0.4,0.4c0,0.8,0,0.8-0.8,0.8C42.2,35.6,41.9,35.6,41.5,35.6z"/>
		<path class="st0" d="M63.5,31.1c0-1.3,0-2.7,0-4c0-0.3,0.1-0.5,0.4-0.4c1,0,2,0,2.9,0c0.3,0,0.4,0.1,0.4,0.4
			c0,0.9,0.1,0.8-0.8,0.8c-0.3,0-0.7,0-1,0c-0.2,0-0.3,0.1-0.3,0.3c0,0.6,0,1.2,0,1.9c0,0.3,0.1,0.3,0.3,0.3c0.3,0,0.7,0,1,0
			c0.2,0,0.4,0.1,0.4,0.3c0,0.9,0.1,0.9-0.9,0.9c-1,0-0.8-0.1-0.8,0.8c0,0.5,0,1.1,0,1.6c0,0.3,0.1,0.4,0.4,0.4c0.4,0,0.9,0,1.3,0
			c0.3,0,0.3,0.1,0.4,0.4c0,0.8,0,0.8-0.8,0.8c-0.9,0-1.8,0-2.6,0c-0.3,0-0.4-0.1-0.4-0.4C63.5,33.8,63.5,32.4,63.5,31.1z"/>
		<path class="st0" d="M54.4,16.5c0-1.3,0-2.7,0-4c0-0.3,0.1-0.5,0.4-0.4c0.3,0,0.5,0,0.8,0c0.4,0,0.5,0.1,0.5,0.5
			c0,2.2,0,4.4,0,6.6c0,0.9-0.1,0.8,0.8,0.8c0.3,0,0.6,0,0.9,0c0.4,0,0.5,0.1,0.4,0.5c0,0.1,0,0.2,0,0.4c0,0.2-0.1,0.3-0.3,0.3
			c-1.1,0-2.1,0-3.2,0c-0.3,0-0.3-0.2-0.3-0.4C54.4,19.2,54.4,17.9,54.4,16.5z"/>
		<path class="st0" d="M33.6,16.5c0-1.4,0-2.7,0-4.1c0-0.3,0.1-0.4,0.4-0.4c1.2,0,1.2,0,1.2,1.2c0,2.4,0,4.8,0,7.3
			c0,0.4-0.1,0.5-0.5,0.5c-1.2,0-1.2,0-1.2-1.1C33.6,18.8,33.6,17.6,33.6,16.5z"/>
		<path class="st0" d="M56.6,23.7c-0.4,0.7-0.7,1.2-1.1,1.8C55.2,26,55,26,54.4,25.8c0.2-0.7,0.4-1.3,0.6-2c0-0.1,0.1-0.2,0.2-0.2
			C55.6,23.7,56.1,23.7,56.6,23.7z"/>
		<path class="st0" d="M62.4,82c-2.8,0-5.7,0-8.5,0c-0.6,0-0.6,0-0.6-0.6c0-1.2,0-2.4,0-3.7c0-0.4,0.1-0.5,0.5-0.5
			c5.8,0,11.6,0,17.3,0c0.4,0,0.5,0.2,0.5,0.5c0,1.2,0,2.5,0,3.7c0,0.5,0,0.5-0.5,0.5C68.1,82,65.3,82,62.4,82z"/>
		<path class="st0" d="M62.4,74.3c-2.9,0-5.7,0-8.6,0c-0.6,0-0.6,0-0.6-0.6c0-1.2,0-2.4,0-3.7c0-0.4,0.1-0.5,0.5-0.5
			c5.8,0,11.5,0,17.3,0c0.4,0,0.5,0.1,0.5,0.5c0,1.2,0,2.5,0,3.7c0,0.5,0,0.5-0.5,0.5C68.1,74.3,65.3,74.3,62.4,74.3z"/>
	</g>
</g>
</svg>
