<?xml version="1.0" encoding="utf-8"?>
<!-- Generator: Adobe Illustrator 25.0.1, SVG Export Plug-In . SVG Version: 6.00 Build 0)  -->
<svg version="1.1" id="Layer_1" xmlns="http://www.w3.org/2000/svg" xmlns:xlink="http://www.w3.org/1999/xlink" x="0px" y="0px"
	 viewBox="0 0 125 125" style="enable-background:new 0 0 125 125;" xml:space="preserve">
<style type="text/css">
	.st0{fill:#D2D1D3;}
</style>
<g>
	<g>
		<path class="st0" d="M71.5,104.5c-0.1,0.1-0.2,0.2-0.3,0.3c-2.7,2.7-5.5,5.5-8.2,8.2c-0.4,0.4-0.4,0.4-0.8,0
			c-2.7-2.7-5.5-5.5-8.2-8.2c-0.1-0.1-0.2-0.2-0.3-0.4c0.2,0,0.3,0,0.5,0c1,0,1.9,0,2.9,0c0.3,0,0.4-0.1,0.4-0.5
			c-0.2-2.1-0.4-4.2-0.5-6.4c0-0.6-0.1-0.6-0.7-0.6c-2.8,0-5.6,0-8.3,0c-0.6,0-0.7-0.1-0.8-0.7c-0.9-5.6-1.9-11.3-2.8-16.9
			c-0.7-4-1.3-8-2-12c-0.9-5.3-1.8-10.6-2.6-15.9c-0.1-0.7,0.1-0.9,0.7-0.9c14.7,0,29.3,0,44,0c0.8,0,0.9,0.2,0.8,0.9
			c-1.1,7.3-2.3,14.7-3.4,22C81,79.5,80,85.7,79.1,91.8c-0.2,1.4-0.4,2.9-0.7,4.3c-0.1,0.6-0.2,0.7-0.8,0.7c-2.8,0-5.7,0-8.5,0
			c-0.6,0-0.6,0-0.6,0.6c-0.2,2.1-0.4,4.1-0.5,6.2c-0.1,0.6,0,0.6,0.6,0.6c0.9,0,1.7,0,2.6,0c0.1,0,0.3,0,0.4,0
			C71.5,104.5,71.5,104.5,71.5,104.5z M62.5,52.6c-6.7,0-13.4,0-20,0c-0.1,0-0.3,0-0.4,0c-0.3,0-0.4,0.1-0.4,0.4
			c0.2,0.9,0.4,1.8,0.5,2.7c0.4,1.8,0.7,3.6,1,5.4c0.1,0.4,0.2,0.6,0.6,0.5c0.5-0.1,1.1-0.1,1.6-0.1c1.9-0.2,3.7-0.8,5.4-1.5
			c2.1-0.8,4.2-0.9,6.4-0.2c1.6,0.5,3.2,1.2,4.8,1.8c3.6,1.3,7.3,1.7,11.1,0.6c1.6-0.5,3.1-1,4.7-1.6c1.3-0.5,2.5-0.8,3.8-0.4
			c0.3,0.1,0.4,0,0.5-0.3c0.4-2.3,0.7-4.5,1.1-6.8c0.1-0.5,0.1-0.5-0.5-0.5C76,52.6,69.3,52.6,62.5,52.6z M62.6,67.8
			c-0.1,0.1-0.2,0.2-0.2,0.2c-2,3-4,6.1-5.9,9.1c-1,1.6-1.4,3.3-1.4,5.1c0.1,2.8,1.9,5.3,4.5,6.2c1.3,0.5,2.6,0.5,4,0.4
			c3.2-0.1,5.9-2.6,6.4-5.8c0.3-2.2-0.2-4.2-1.4-6.1c-1.9-3-3.9-6-5.8-8.9C62.8,68.1,62.7,68,62.6,67.8z"/>
		<path class="st0" d="M15.8,22.1c1.4-1.7,5.4-1.6,6.8,0.6c0.6,1,1,2.1,1.1,3.3c0.2,1.8,0.1,3.5-0.3,5.2c-0.1,0.4-0.2,0.7-0.3,1.1
			c-0.8,2.1-2.4,3.2-4.6,3.4c-1.2,0.1-2.4,0.1-3.6-0.4c-1.7-0.7-2.6-2-3.1-3.6c-0.4-1.2-0.5-2.4-0.5-3.6c0-3,0-5.9,0-8.9
			c0-1.4,0.2-2.7,0.7-4c0.7-1.8,1.9-2.8,3.8-3.2c1.3-0.2,2.5-0.2,3.8,0c2.1,0.4,3.3,1.8,3.7,3.8c0.1,0.6,0.1,1.3,0.2,1.9
			c0,0.3-0.1,0.4-0.4,0.4c-1.1,0-2.3,0-3.4,0c-0.3,0-0.4-0.1-0.4-0.4c0-0.5-0.1-1-0.2-1.5c-0.1-0.6-0.5-0.9-1.1-1s-1.3,0-1.6,0.6
			c-0.2,0.5-0.4,1-0.4,1.5C15.9,18.9,15.9,20.5,15.8,22.1C15.7,22.1,15.7,22.1,15.8,22.1z M15.7,27.7L15.7,27.7c0,0.6,0,1.3,0,1.9
			c0.1,0.7,0.2,1.3,0.4,1.9c0.2,0.7,0.9,1,1.5,0.9c0.7-0.1,1.1-0.4,1.3-1.2c0.1-0.6,0.3-1.2,0.3-1.8c0-1.3,0-2.5-0.1-3.8
			c-0.2-1.3-1.3-1.8-2.5-1.2c-0.2,0.1-0.5,0.3-0.7,0.5c-0.1,0.2-0.3,0.4-0.3,0.7C15.7,26.4,15.7,27,15.7,27.7z"/>
		<path class="st0" d="M70.4,18.1c0.3-1.3,0.6-2.6,0.8-3.9c0.1-0.6,0.3-1.2,0.4-1.7c0-0.3,0.2-0.4,0.4-0.4c0.3,0,0.5,0,0.8,0
			c0.4,0,0.5,0.1,0.5,0.5c0,1,0,2.1,0,3.1c0,1.6,0.1,3.2,0.1,4.8c0,0.2-0.1,0.5-0.1,0.5c-0.3,0-0.7,0-1,0c0,0-0.1-0.3-0.1-0.4
			c0-1.7-0.1-3.3-0.1-5c0-0.1,0-0.2-0.1-0.3c-0.2,0.9-0.4,1.8-0.6,2.8c-0.2,0.9-0.4,1.8-0.6,2.7c0.1,0.2-0.2,0.2-0.4,0.2
			c-0.3,0-0.5,0-0.6-0.4c-0.3-1.7-0.7-3.4-1.1-5.2c0-0.1-0.1-0.2-0.2-0.3c0,0.3,0,0.7,0,1c0,1.4-0.1,2.9-0.1,4.3
			c0,0.4-0.1,0.5-0.5,0.5c-0.8,0-0.8,0-0.7-0.7c0-2.1,0.1-4.2,0.1-6.3c0-0.5,0-1,0-1.5c0-0.3,0.1-0.4,0.4-0.4c1.3,0,1.3-0.1,1.5,1.2
			c0.3,1.5,0.6,3.1,1,4.6C70.3,17.9,70.3,18,70.4,18.1L70.4,18.1z"/>
		<path class="st0" d="M72,32.6c0.3-1.2,0.5-2.4,0.8-3.5c0.1-0.7,0.3-1.4,0.4-2c0.1-0.3,0.2-0.4,0.5-0.4s0.5,0,0.8,0
			s0.4,0.1,0.4,0.4c0,1.5,0,2.9,0.1,4.4c0,1.2,0,2.4,0.1,3.5c0,0.4-0.1,0.6-0.5,0.5c-0.1,0-0.1,0-0.2,0c-0.4,0.1-0.5-0.1-0.5-0.5
			c0-1.7,0-3.3-0.1-5c0-0.1,0-0.2-0.1-0.3c-0.2,0.9-0.4,1.8-0.6,2.6c-0.2,0.9-0.4,1.8-0.5,2.7c-0.1,0.4-0.2,0.5-0.6,0.5
			s-0.5-0.1-0.6-0.5c-0.3-1.7-0.7-3.3-1-5c0-0.1-0.1-0.2-0.1-0.3c0,0.1,0,0.2,0,0.3c0,1.7-0.1,3.4-0.1,5c0,0.3-0.1,0.4-0.5,0.4
			c-0.8,0-0.8,0-0.8-0.8c0-2.5,0.1-4.9,0.1-7.4c0-0.1,0-0.2,0-0.3c0-0.3,0.2-0.4,0.5-0.4c1.5,0,1.1-0.2,1.4,1.2
			c0.3,1.5,0.6,2.9,0.9,4.4C71.8,32.2,71.9,32.4,72,32.6C71.9,32.6,71.9,32.6,72,32.6z"/>
		<path class="st0" d="M94.3,31.1c0-0.9-0.1-1.8,0-2.6c0.1-1.2,0.8-1.7,1.9-1.9c0.4,0,0.9,0,1.4,0.1c1,0.2,1.6,0.8,1.7,2.1
			c0.1,1.6,0.1,3.2,0,4.8c-0.1,1.4-1.1,2.2-2.6,2.1c-0.3,0-0.5,0-0.8-0.1c-1-0.2-1.6-1.1-1.7-2.3C94.2,32.5,94.3,31.8,94.3,31.1
			L94.3,31.1z M95.9,31.1L95.9,31.1c0,0.7,0,1.3,0,2c0,0.2,0,0.5,0.1,0.7c0.1,0.4,0.4,0.7,0.8,0.7c0.5,0,0.8-0.2,0.9-0.7
			c0-0.2,0.1-0.4,0.1-0.6c0-1.4,0-2.8,0-4.2c0-0.2-0.1-0.5-0.1-0.7c-0.1-0.3-0.3-0.5-0.6-0.5c-0.7-0.1-1.1,0.3-1.1,1.1
			C95.9,29.6,95.9,30.3,95.9,31.1z"/>
		<path class="st0" d="M87.2,31.4c0-1.1,0-2.2,0-3.4c0-0.3,0-0.7,0-1s0.1-0.4,0.4-0.4c1,0,0.9-0.1,0.9,0.9c0,2.5,0,5,0,7.4
			c0,0.2,0.1,0.5-0.2,0.6c-0.5,0.1-0.8,0-1-0.3c-0.6-1.5-1.2-3-1.9-4.5c0-0.1-0.1-0.2-0.2-0.3c0,0.1,0,0.3,0,0.4c0,1.4,0,2.8,0,4.2
			c0,0.3-0.1,0.5-0.5,0.5c-1.1,0-0.9,0.1-0.9-0.9c0-2.5,0-4.9,0-7.4c0-0.2-0.1-0.5,0.2-0.6c0.5-0.1,0.9,0,1.1,0.4
			c0.6,1.4,1.2,2.8,1.8,4.1C87,31.3,87,31.4,87.2,31.4C87.1,31.4,87.2,31.4,87.2,31.4z"/>
		<path class="st0" d="M55.9,31.4c0-0.1,0-0.3,0-0.4c0-1.3,0-2.6,0-3.9c0-0.3,0.1-0.5,0.4-0.5c1,0,0.9-0.1,0.9,0.9c0,2.5,0,5,0,7.5
			c0,0.2,0.1,0.5-0.2,0.5c-0.5,0.1-0.8,0-0.9-0.3c-0.6-1.4-1.2-2.9-1.8-4.3c-0.1-0.1-0.1-0.3-0.2-0.4H54c0,0.1,0,0.3,0,0.4
			c0,1.3,0,2.7,0,4c0,0.6,0,0.6-0.5,0.6c-1,0-0.8,0.1-0.8-0.9c0-2.5,0-5,0-7.4c0-0.2-0.1-0.5,0.2-0.6c0.5-0.1,0.9,0,1.1,0.3
			c0.6,1.3,1.1,2.6,1.7,4C55.8,31.1,55.8,31.2,55.9,31.4C55.8,31.4,55.8,31.4,55.9,31.4z"/>
		<path class="st0" d="M48.7,15.6c0-1,0-2,0-3c0-0.3,0.1-0.5,0.5-0.5c1.3,0,1.1-0.2,1.1,1.1c0,1.6,0,3.2,0,4.8
			c0,0.6-0.1,1.2-0.3,1.8c-0.2,0.6-0.6,1.1-1.3,1.2c-0.6,0.1-1.2,0.1-1.7,0c-0.8-0.1-1.3-0.6-1.5-1.4c-0.1-0.4-0.2-0.8-0.2-1.2
			c0-2,0-3.9,0-5.9c0-0.4,0.1-0.5,0.5-0.5c1.1,0,1.1,0,1.1,1c0,1.7,0,3.3,0,5c0,0.4,0,0.7,0.1,1.1c0.1,0.5,0.4,0.7,0.8,0.7
			c0.5,0,0.7-0.2,0.8-0.7c0.1-0.4,0.1-0.8,0.1-1.2C48.7,17.2,48.7,16.4,48.7,15.6z"/>
		<path class="st0" d="M42.9,20.2c-0.4,0.7-1,1-1.7,0.9c-1.3-0.1-2-0.7-2.1-2c-0.1-1.7-0.1-3.4,0-5.1c0.1-1.3,0.8-1.9,2.1-2
			c0.4,0,0.9,0,1.3,0.1c0.9,0.2,1.3,0.9,1.4,1.7c0.2,1.5,0.1,1.2-1.2,1.2c-0.1,0-0.2-0.2-0.2-0.3c-0.1-0.3,0-0.6-0.1-0.9
			c-0.1-0.4-0.3-0.6-0.7-0.7c-0.5,0-0.8,0.2-0.9,0.6c-0.1,0.3-0.1,0.6-0.1,0.9c0,1.4,0,2.8,0.1,4.2c0,0.4,0.1,0.7,0.5,0.9
			c0.5,0.3,1.2,0.1,1.3-0.5c0.1-0.5,0.1-1,0.1-1.5c0-0.1-0.2-0.2-0.4-0.2c-0.5-0.1-0.7-0.5-0.5-0.9c0.1-0.1,0.2-0.1,0.3-0.1
			c0.5,0,1.1,0,1.6,0c0.3,0,0.4,0.1,0.4,0.4c0,1.2,0,2.5,0,3.7c0,0.3-0.1,0.5-0.4,0.4c-0.3,0-0.7,0.2-0.7-0.4
			C43,20.5,43,20.4,42.9,20.2z"/>
		<path class="st0" d="M56.3,21c-0.5,0-0.9,0-1.3,0c-0.1,0-0.2-0.2-0.2-0.3c-0.1-0.4-0.2-0.9-0.2-1.3c0-0.3-0.2-0.4-0.5-0.4
			c-1.4,0-1.1-0.2-1.3,1.1c-0.2,1.2,0,0.9-1.1,1c-0.2,0-0.3,0-0.5,0c0-0.2,0-0.3,0.1-0.4c0.5-2.7,1.1-5.4,1.6-8.1
			c0.1-0.3,0.2-0.4,0.5-0.4s0.6,0,0.9,0c0.3,0,0.4,0.1,0.5,0.4c0.5,2.6,1,5.1,1.5,7.7C56.2,20.4,56.2,20.6,56.3,21z M53.7,14.5
			C53.7,14.5,53.6,14.5,53.7,14.5c-0.2,0.9-0.4,1.7-0.5,2.6c-0.1,0.8-0.1,0.8,0.7,0.8c0.3,0,0.4-0.1,0.3-0.4
			c-0.1-0.8-0.3-1.6-0.4-2.4C53.8,14.9,53.7,14.7,53.7,14.5z"/>
		<path class="st0" d="M33.1,20.9c0.2-1.2,0.5-2.3,0.7-3.4c0.3-1.7,0.7-3.4,1-5.1c0.1-0.4,0.2-0.5,0.6-0.5c1.2,0,1.2,0,1.4,1.2
			c0.5,2.4,1,4.9,1.5,7.3c0.1,0.4,0,0.5-0.4,0.5c-1,0-1,0-1.2-1c0-0.2-0.1-0.3-0.1-0.5c-0.1-0.6-0.1-0.6-0.7-0.6
			c-1.1,0-0.9-0.1-1.1,0.9v0.1c-0.1,0.3-0.1,0.9-0.3,1C34.1,21.1,33.6,20.9,33.1,20.9z M35.8,14.5C35.8,14.5,35.7,14.5,35.8,14.5
			c-0.2,0.9-0.4,1.8-0.5,2.7C35.2,18,35.2,18,36,18c0.3,0,0.4-0.1,0.3-0.4c-0.1-0.7-0.2-1.3-0.3-2C35.9,15.2,35.9,14.8,35.8,14.5z"
			/>
		<path class="st0" d="M82.9,21c0.1-0.6,0.2-1,0.3-1.5c0.5-2.3,1-4.6,1.4-7c0.1-0.3,0.2-0.5,0.6-0.5c1.2,0,1.2,0,1.5,1.2
			c0.5,2.4,1,4.8,1.5,7.2c0.1,0.5,0.1,0.5-0.4,0.5c-1.2,0-0.9,0.1-1.2-1c-0.3-1.3,0.1-1-1.3-1.1c-0.3,0-0.4,0.1-0.5,0.4
			c-0.1,0.4-0.2,0.9-0.2,1.3c0,0.2-0.2,0.4-0.4,0.3C83.7,21,83.4,21,82.9,21z M85.6,14.5L85.6,14.5c-0.1,0.1-0.1,0.1-0.1,0.2
			c-0.1,0.8-0.3,1.6-0.4,2.4C85,17.9,85,18,85.8,17.9l0,0c0.1-0.1,0.2-0.2,0.2-0.3C86,16.5,85.8,15.5,85.6,14.5z"/>
		<path class="st0" d="M68,35.5c-0.5,0-0.9,0-1.3,0c-0.1,0-0.2-0.2-0.3-0.3c-0.1-0.4-0.2-0.9-0.2-1.3c0-0.3-0.1-0.4-0.5-0.4
			c-0.3,0-0.5,0-0.8,0s-0.4,0.1-0.5,0.4c-0.1,0.4-0.1,0.9-0.2,1.3c0,0.1,0,0.3-0.1,0.3c-0.5,0-0.9,0-1.4,0c0,0-0.1-0.2,0-0.3
			c0.5-2.7,1.1-5.5,1.7-8.2c0-0.2,0.2-0.3,0.4-0.3c0.3,0,0.6,0,0.9,0s0.5,0.1,0.5,0.4c0.3,1.5,0.6,3,0.9,4.5
			c0.2,1.1,0.5,2.2,0.7,3.3C67.9,35.1,67.9,35.3,68,35.5z M65.9,32.4c-0.2-1.1-0.4-2.2-0.5-3.3c-0.1,0.1-0.1,0.2-0.2,0.3
			c-0.1,0.7-0.2,1.4-0.3,2.1C64.7,32.6,64.7,32.6,65.9,32.4z"/>
		<path class="st0" d="M51.6,35.5c-0.4,0-0.8,0-1.2,0c-0.1,0-0.2-0.2-0.2-0.3c-0.1-0.4-0.2-0.9-0.2-1.4c0-0.3-0.1-0.4-0.4-0.4
			c-1.2,0-1.2,0-1.4,1.1s0,0.9-1.1,0.9c-0.2,0-0.3,0-0.6,0c0.1-0.6,0.2-1.1,0.3-1.7c0.5-2.2,0.9-4.5,1.4-6.7
			c0.1-0.3,0.2-0.5,0.5-0.4c0.3,0,0.6,0,0.9,0c0.1,0,0.3,0.2,0.4,0.3c0.6,2.8,1.1,5.6,1.7,8.4C51.7,35.4,51.7,35.4,51.6,35.5z
			 M49.1,29.1L49.1,29.1c-0.2,0.9-0.4,1.7-0.5,2.6c-0.1,0.8-0.1,0.8,0.7,0.8c0.2,0,0.3-0.1,0.3-0.4c-0.1-0.5-0.2-1-0.2-1.5
			C49.3,30.1,49.2,29.6,49.1,29.1z"/>
		<path class="st0" d="M74.7,16.5c0-1.3,0-2.6,0-3.9c0-0.4,0.1-0.5,0.5-0.5c0.8,0,1.6,0,2.4,0.1c1.1,0.1,1.6,0.6,1.8,1.7
			c0.1,0.5,0.1,1.1,0,1.6c-0.1,1-0.9,1.6-1.9,1.6c-0.3,0-0.5,0-0.8,0s-0.4,0.1-0.4,0.4c0,1,0,2.1,0,3.1c0,0.3-0.1,0.5-0.4,0.4
			c-0.2,0-0.5,0-0.7,0c-0.4,0-0.5-0.1-0.5-0.5C74.8,19.2,74.7,17.8,74.7,16.5z M76.9,13.2c-0.2,0.1-0.6-0.2-0.6,0.3c0,0.7,0,1.3,0,2
			c0,0.1,0.2,0.3,0.3,0.3c1,0.1,1.4-0.2,1.4-1.2c0-0.1,0-0.3,0-0.4C78,13.5,77.7,13.2,76.9,13.2z"/>
		<path class="st0" d="M42.8,28.7c0,0.4,0.2,0.8,0.5,1.1c0.4,0.3,0.7,0.7,1.1,1c0.8,0.7,1.4,1.4,1.5,2.5c0.2,1.4-0.9,2.6-2.3,2.5
			c-1.4-0.1-2.2-0.8-2.3-2.2c0-0.3,0-0.5,0.4-0.6l0,0c0.8-0.2,0.8-0.2,1,0.6c0.1,0.6,0.4,0.9,0.9,0.9c0.4,0,0.7-0.2,0.7-0.6
			c0.1-0.6-0.1-1.1-0.5-1.5c-0.5-0.4-0.9-0.9-1.4-1.3c-0.7-0.6-1.2-1.3-1.2-2.3c0-1.6,1-2.4,2.5-2.3c1.2,0.1,1.9,0.9,2,2.1l0,0
			c-0.2,0.5-0.7,0.3-1.1,0.4c-0.2,0.1-0.3-0.1-0.3-0.3c0-0.2,0-0.3-0.1-0.5c-0.1-0.5-0.5-0.7-0.9-0.6C43.1,27.8,42.8,28.1,42.8,28.7
			z"/>
		<path class="st0" d="M58.5,31.1c0-1.3,0-2.6,0-3.9c0-0.4,0.1-0.5,0.5-0.5c0.9,0,1.9,0,2.8,0c0.5,0,0.4,0.3,0.4,0.6
			c0,0.3,0,0.6-0.4,0.5c-0.4,0-0.8,0-1.3,0c-0.3,0-0.4,0.1-0.4,0.4c0,0.6,0,1.2,0,1.8c0,0.3,0.1,0.4,0.4,0.4c0.3,0,0.6,0,0.9,0
			c0.3,0,0.4,0.1,0.4,0.4v0.1c0,0.7,0,0.7-0.7,0.7c-1,0-1,0-1,1c0,0.5,0,1,0,1.5c0,0.3,0.1,0.5,0.4,0.5c0.4,0,0.9,0,1.3,0
			c0.3,0,0.4,0.1,0.4,0.4c0,0.1,0,0.2,0,0.3c0,0.4-0.1,0.5-0.5,0.5c-0.9,0-1.9,0-2.8,0c-0.3,0-0.4-0.1-0.4-0.4
			C58.5,33.8,58.5,32.4,58.5,31.1z"/>
		<path class="st0" d="M79.2,31.1c0-1.3,0-2.7,0-4c0-0.4,0.1-0.5,0.5-0.5c0.9,0,1.9,0,2.8,0c0.3,0,0.5,0.1,0.5,0.5
			c0,0.7,0,0.7-0.7,0.7c-0.4,0-0.8,0-1.1,0c-0.2,0-0.3,0.1-0.3,0.3c0,0.6,0,1.3,0,1.9c0,0.2,0.1,0.3,0.4,0.3s0.7,0,1,0
			s0.4,0.1,0.4,0.4c0,0.8,0,0.8-0.7,0.8c-1.1,0-0.9-0.1-0.9,1c0,0.5,0,1.1,0,1.6c0,0.3,0.1,0.4,0.4,0.4c0.4,0,0.9,0,1.3,0
			c0.3,0,0.5,0.1,0.4,0.4c0,0.1,0,0.2,0,0.4s-0.1,0.3-0.3,0.3c-1,0-2.1,0-3.1,0c-0.3,0-0.3-0.2-0.3-0.4
			C79.2,33.8,79.2,32.4,79.2,31.1z"/>
		<path class="st0" d="M38.1,26.7c-0.3,0.9-0.6,1.7-0.8,2.5c0,0.1,0,0.2-0.1,0.2c-0.7,1.8-1.1,3.6-0.9,5.5c0,0.6,0,0.6-0.5,0.6
			c-1,0-1,0-1-1c0.1-1.6-0.2-3.1-0.8-4.6c-0.4-0.9-0.6-1.8-0.9-2.8c0-0.1-0.1-0.3-0.1-0.5c0.5,0,0.9,0,1.3,0c0.1,0,0.2,0.2,0.3,0.4
			c0.3,0.8,0.5,1.7,0.8,2.5c0,0.2,0.1,0.3,0.2,0.6c0.1-0.2,0.1-0.4,0.2-0.5c0.2-0.8,0.5-1.7,0.7-2.5c0.1-0.4,0.3-0.5,0.7-0.5
			C37.5,26.7,37.8,26.7,38.1,26.7z"/>
		<path class="st0" d="M90.7,31.7c0-1.1,0-2.2,0-3.4c0-0.4-0.1-0.5-0.5-0.5c-0.2,0-0.4,0-0.6,0c-0.3,0-0.4-0.1-0.4-0.4
			c0-0.1,0-0.2,0-0.4c0-0.3,0.1-0.4,0.4-0.4c1.3,0,2.6,0,3.9,0c0.3,0,0.4,0.1,0.4,0.4c0,0.8,0,0.8-0.7,0.8c-0.1,0-0.2,0-0.3,0
			c-0.4,0-0.5,0.1-0.5,0.5c0,2.2,0,4.5,0,6.7c0,0.5,0,0.5-0.5,0.5c-1.1,0-1.1,0-1.1-1.1C90.7,33.5,90.7,32.6,90.7,31.7z"/>
		<path class="st0" d="M59.8,16.5c0-1.3,0-2.6,0-3.9c0-0.4,0.1-0.5,0.5-0.5c1.1,0,1.1,0,1.1,1.1c0,2,0,4.1,0,6.1
			c0,0.5,0,0.5,0.5,0.5c0.4,0,0.8,0,1.2,0c0.3,0,0.4,0.1,0.4,0.4v0.1c0,0.7,0,0.7-0.7,0.7c-0.9,0-1.7,0-2.6,0
			c-0.4,0-0.5-0.1-0.5-0.5C59.8,19.2,59.8,17.8,59.8,16.5z"/>
		<path class="st0" d="M82,16.5c0,1.3,0,2.7,0,4c0,0.3-0.1,0.5-0.4,0.5c-0.2,0-0.5,0-0.7,0c-0.4,0-0.5-0.1-0.5-0.5c0-2.7,0-5.3,0-8
			c0-0.3,0.1-0.5,0.4-0.5s0.5,0,0.8,0s0.4,0.1,0.4,0.4C82,13.8,82,15.2,82,16.5z"/>
		<path class="st0" d="M64.3,16.5c0-1.3,0-2.7,0-4c0-0.3,0.1-0.5,0.5-0.5c1.1,0,1.1,0,1.1,1.1c0,2.4,0,4.9,0,7.3
			c0,0.4-0.1,0.5-0.5,0.5c-1.1,0-1.1,0-1.1-1.1C64.3,18.8,64.3,17.6,64.3,16.5z"/>
		<path class="st0" d="M77.9,31.2c0,1.3,0,2.6,0,3.9c0,0.3-0.1,0.5-0.4,0.5c-1.2,0-1.2,0-1.2-1.1c0-2.4,0-4.8,0-7.2
			c0-0.6,0-0.6,0.5-0.6c1.1,0,1.1,0,1.1,1.1C77.9,28.9,77.9,30,77.9,31.2z"/>
	</g>
</g>
</svg>
