<?xml version="1.0" encoding="utf-8"?>
<!-- Generator: Adobe Illustrator 24.3.0, SVG Export Plug-In . SVG Version: 6.00 Build 0)  -->
<svg version="1.1" id="Layer_1" xmlns="http://www.w3.org/2000/svg" xmlns:xlink="http://www.w3.org/1999/xlink" x="0px" y="0px"
	 viewBox="0 0 125 125" style="enable-background:new 0 0 125 125;" xml:space="preserve">
<style type="text/css">
	.st0{fill:#FCC30B;}
</style>
<g>
	<g>
		<path class="st0" d="M77.9,83.7c-0.1,8.6-7,15.4-15.4,15.3C53.7,99,47,91.7,47.2,83.3c0.2-8.1,6.9-15.1,15.6-15
			C71.5,68.5,78,75.6,77.9,83.7z M60.2,76c-2.4,0.5-6,3.5-5.5,8.3c0.4,4.1,3.9,7.4,8.3,7.2c4.5-0.2,7.8-4,7.6-8.3
			c-0.1-2.3-1-4.2-2.7-5.7C67,76.8,66.1,76.3,65,76c0,0.9,0,1.7,0,2.4c0,0.3,0.1,0.5,0.4,0.7c1.9,1.2,2.7,3,2.4,5.2
			c-0.4,2.7-2.8,4.6-5.5,4.4c-2.7-0.2-4.9-2.4-4.9-5.1c0-1.9,0.8-3.5,2.5-4.5c0.1-0.1,0.3-0.2,0.3-0.4C60.2,77.9,60.2,77,60.2,76z
			 M61.5,77c0,0.8,0,1.7,0,2.5c0,0.7,0.5,1.2,1.1,1.2c0.6,0,1.2-0.5,1.2-1.1c0-1.7,0-3.4,0-5.2c0-0.7-0.6-1.1-1.2-1.1
			c-0.6,0-1.1,0.5-1.1,1.2C61.5,75.4,61.5,76.2,61.5,77z"/>
		<path class="st0" d="M12.8,35.4c1.6-6.6,3.2-13.2,4.9-19.8c-0.2,0-0.4,0-0.6,0c-1.7,0-3.5,0-5.2,0c-0.4,0-0.5-0.1-0.5-0.5
			c0-0.8,0-1.6,0-2.4c0-0.3,0.1-0.5,0.4-0.5c3.3,0,6.6,0,9.8,0c0.4,0,0.4,0.1,0.5,0.5c0.2,2-0.4,3.8-0.8,5.7c-1.3,5.5-2.7,11-4,16.6
			c-0.1,0.4-0.3,0.6-0.7,0.6c-1.1,0-2.1,0-3.2,0C13.2,35.4,13.1,35.4,12.8,35.4z"/>
		<path class="st0" d="M84.3,32.6c0.2-0.8,0.3-1.5,0.5-2.3c0.2-1,0.5-2.1,0.7-3.1c0.1-0.3,0.2-0.5,0.6-0.5c1.2,0,1.2,0,1.2,1.2
			c0,2.4,0.1,4.8,0.1,7.3c0,0.3-0.1,0.5-0.4,0.4c-0.9,0-0.8,0.1-0.8-0.8c0-1.6-0.1-3.2-0.1-4.8c0,0,0-0.1-0.1-0.2
			c-0.2,0.9-0.4,1.8-0.6,2.7c-0.2,0.9-0.4,1.7-0.5,2.6c-0.1,0.4-0.3,0.4-0.6,0.4c-0.3,0-0.5,0-0.6-0.4c-0.3-1.7-0.7-3.4-1.1-5.1
			c0-0.1,0-0.2-0.1-0.2c0,0-0.1,0-0.1,0c0,0.2,0,0.5,0,0.7c0,1.5-0.1,3-0.1,4.6c0,0.3-0.1,0.5-0.5,0.5c-0.9,0-0.8,0-0.8-0.7
			c0-2.6,0.1-5.1,0.1-7.7c0-0.3,0.1-0.4,0.5-0.4c1.2,0,1.2,0,1.5,1.2c0.3,1.4,0.6,2.9,0.9,4.3C84.1,32.3,84.2,32.4,84.3,32.6
			C84.3,32.6,84.3,32.6,84.3,32.6z"/>
		<path class="st0" d="M88.4,20.9c0.1,0.1,0.2,0.2,0.3,0.3c0.5,0.6,0.6,0.7,0.2,1.5c-0.5-0.2-0.9-0.6-1.3-1.1
			c-0.3-0.4-0.6-0.6-1.1-0.6c-1.1,0-1.9-0.8-2-2.1c-0.1-1.6-0.1-3.3,0-5c0.1-1.2,0.7-1.9,1.9-2c0.5-0.1,1,0,1.5,0.1
			c0.7,0.1,1.2,0.6,1.4,1.2c0.1,0.4,0.2,0.8,0.2,1.2c0,1.4,0.1,2.7,0,4.1C89.4,19.7,89.3,20,88.4,20.9z M87.8,16.5
			c0-0.8,0-1.6,0-2.4c0-0.7-0.5-1-1.1-0.9c-0.4,0.1-0.7,0.4-0.7,1c0,0.9,0,1.8,0,2.7c0,0.7,0,1.4,0,2.1c0,0.6,0.2,0.9,0.6,1
			c0.6,0.2,1.1-0.2,1.1-0.9C87.9,18.1,87.8,17.3,87.8,16.5z"/>
		<path class="st0" d="M103.1,16.2c1.2,0.8,1.6,2.1,1.1,3.5c-0.3,0.9-1,1.2-1.9,1.3c-0.9,0.1-1.7,0-2.6,0c-0.3,0-0.3-0.1-0.3-0.4
			c0-2.7,0-5.5,0-8.2c0-0.3,0.1-0.4,0.4-0.4c0.8,0,1.6,0,2.4,0.1c1.6,0.1,2.1,1.1,2,2.4C104,15.4,103.9,15.6,103.1,16.2z
			 M101.5,19.8c0.8,0,1.2-0.3,1.3-1.1c0-0.2,0-0.4,0-0.6c-0.1-0.9-0.5-1.3-1.4-1.3c-0.3,0-0.4,0.1-0.4,0.4c0,0.7,0,1.4,0,2.1
			C100.9,19.8,100.9,19.8,101.5,19.8z M100.9,14.4c0,0.3,0,0.6,0,1c0,0.1,0,0.2,0.1,0.3c0.4,0.3,1.3-0.1,1.5-0.5
			c0.5-1.1,0-1.8-1.1-1.9c-0.1,0-0.1,0-0.2,0c-0.2,0-0.3,0.1-0.3,0.3C100.9,13.8,100.9,14.1,100.9,14.4z"/>
		<path class="st0" d="M51.8,21c-0.5,0-1,0-1.4,0c-0.1,0-0.3-0.2-0.3-0.4c-0.3-1.1-0.6-2.2-0.9-3.3c0-0.2-0.1-0.3-0.3-0.4
			c-0.3-0.1-0.5,0-0.5,0.4c0,1.1,0,2.1,0,3.2c0,0.3-0.1,0.5-0.4,0.4c-0.2,0-0.5,0-0.7,0c-0.4,0-0.5-0.1-0.5-0.5c0-1.2,0-2.5,0-3.7
			c0-1.4,0-2.8,0-4.3c0-0.4,0.1-0.5,0.5-0.5c0.8,0,1.5,0,2.3,0.1c1.3,0.1,1.9,0.7,2.1,1.9c0.1,0.9,0,1.9-0.9,2.5
			c-0.1,0.1-0.1,0.3,0,0.4c0.3,1.2,0.7,2.3,1,3.5C51.7,20.6,51.7,20.8,51.8,21z M48.9,15.9c0.3-0.1,0.7-0.2,0.9-0.4
			c0.5-0.5,0.4-1.2,0.2-1.8c-0.2-0.5-0.7-0.5-1.2-0.6c-0.3,0-0.4,0.1-0.4,0.4c0,0.6,0,1.3,0,1.9C48.4,15.8,48.5,15.9,48.9,15.9z"/>
		<path class="st0" d="M59.5,31.1c0-0.9-0.1-1.8,0-2.7c0.1-1.1,0.8-1.7,1.9-1.8c0.3,0,0.5-0.1,0.8,0c1.5,0.1,2.2,0.8,2.3,2.4
			c0.1,1.5,0.1,3,0,4.5c-0.1,1.8-1.3,2.2-2.7,2.1c-1.6-0.1-2.3-0.9-2.4-2.5C59.4,32.5,59.4,31.8,59.5,31.1
			C59.5,31.1,59.5,31.1,59.5,31.1z M62.9,31.1C62.9,31.1,62.9,31.1,62.9,31.1c0-0.8,0-1.5,0-2.3c0-0.2,0-0.4-0.1-0.6
			c-0.1-0.4-0.4-0.5-0.8-0.5c-0.4,0-0.7,0.1-0.8,0.5c-0.1,0.2-0.1,0.5-0.1,0.8c0,1.4,0,2.8,0,4.2c0,0.2,0,0.4,0.1,0.6
			c0.1,0.5,0.5,0.7,1,0.6c0.5-0.1,0.7-0.4,0.7-0.9C62.9,32.7,62.9,31.9,62.9,31.1z"/>
		<path class="st0" d="M39.8,16.8c0-1.4,0-2.8,0-4.1c0-0.6,0-0.6,0.6-0.6c0.9,0,0.8-0.1,0.8,0.8c0,2.5,0,5.1,0,7.6
			c0,0.2,0.1,0.5-0.2,0.5c-0.5,0.1-0.8,0-1-0.3c-0.6-1.4-1.2-2.8-1.7-4.2c-0.1-0.2-0.1-0.3-0.3-0.5c0,0.1,0,0.3,0,0.4
			c0,1.4,0,2.8,0,4.1c0,0.4-0.1,0.5-0.5,0.5c-1.1,0-0.9,0.1-0.9-0.9c0-2.5,0-5,0-7.5c0-0.2-0.1-0.5,0.2-0.5c0.5-0.1,0.9,0,1.1,0.3
			c0.6,1.4,1.2,2.7,1.8,4.1C39.6,16.6,39.6,16.7,39.8,16.8C39.7,16.8,39.8,16.8,39.8,16.8z"/>
		<path class="st0" d="M50.4,31.1c0,0.8,0.1,1.7,0,2.5c-0.2,1.8-1.3,2.1-2.6,2.1c-1.6,0-2.4-0.9-2.5-2.5c0-1.4,0-2.8,0-4.2
			c0-0.3,0-0.5,0.1-0.8c0.3-1.2,1.2-1.7,2.7-1.6c1.5,0.1,2.3,0.9,2.3,2.6C50.4,29.8,50.4,30.4,50.4,31.1
			C50.4,31.1,50.4,31.1,50.4,31.1z M46.9,31.1C46.9,31.1,46.9,31.1,46.9,31.1c0,0.6,0,1.2,0,1.7c0,0.3,0,0.6,0.1,0.9
			c0.1,0.5,0.4,0.7,0.9,0.7c0.4,0,0.7-0.2,0.8-0.7c0-0.2,0.1-0.5,0.1-0.7c0-1.3,0-2.6,0-3.9c0-0.2,0-0.5-0.1-0.7
			c-0.1-0.5-0.4-0.7-0.9-0.7c-0.6,0-0.9,0.4-0.9,1.1C46.9,29.6,46.9,30.3,46.9,31.1z"/>
		<path class="st0" d="M103.9,30.6c0,1.4,0,2.9,0,4.3c0,0.6,0,0.6-0.6,0.6c-0.8,0-0.8,0.1-0.8-0.8c0-2.5,0-5.1,0-7.6
			c0-0.2-0.1-0.5,0.2-0.5c0.5-0.1,0.9,0,1,0.3c0.6,1.3,1.2,2.7,1.7,4c0.1,0.1,0.1,0.3,0.2,0.4c0,0,0.1,0,0.1,0c0-0.1,0-0.3,0-0.4
			c0-1.3,0-2.5,0-3.8c0-0.3,0.1-0.5,0.4-0.5c1.1,0,0.9-0.1,0.9,0.9c0,2.5,0,5,0,7.4c0,0.2,0.1,0.5-0.2,0.5c-0.5,0.1-0.9,0-1-0.3
			c-0.6-1.4-1.2-2.8-1.8-4.2C104.1,30.8,104.1,30.7,103.9,30.6C104,30.6,104,30.6,103.9,30.6z"/>
		<path class="st0" d="M68.8,31.4c0-0.1,0-0.3,0-0.4c0-1.3,0-2.6,0-3.9c0-0.3,0.1-0.5,0.5-0.5c1.1,0,0.9-0.1,0.9,0.9
			c0,2.5,0,5,0,7.5c0,0.2,0.1,0.5-0.2,0.5c-0.3,0-0.8,0.2-1-0.3c-0.6-1.4-1.2-2.8-1.8-4.2c-0.1-0.1-0.1-0.3-0.2-0.4c0,0-0.1,0-0.1,0
			c0,0.1,0,0.3,0,0.4c0,1.4,0,2.7,0,4.1c0,0.4-0.1,0.5-0.5,0.5c-1.1,0-0.9,0.1-0.9-0.9c0-2.4,0-4.9,0-7.3c0-0.2-0.2-0.5,0.2-0.6
			c0.6-0.1,0.9,0,1.1,0.4c0.6,1.4,1.2,2.7,1.8,4.1C68.7,31.3,68.7,31.3,68.8,31.4C68.8,31.4,68.8,31.4,68.8,31.4z"/>
		<path class="st0" d="M41.1,30.6c0,1.5,0,2.9,0,4.4c0,0.6,0,0.6-0.6,0.6c-0.9,0-0.8,0.1-0.8-0.8c0-2.5,0-5,0-7.4
			c0-0.2-0.2-0.5,0.2-0.6c0.6-0.1,0.9,0,1.1,0.4c0.6,1.3,1.2,2.7,1.7,4c0,0.1,0.1,0.2,0.2,0.3c0-0.1,0-0.3,0-0.4c0-1.3,0-2.6,0-3.9
			c0-0.3,0.1-0.5,0.4-0.5c1.1,0,0.9-0.1,0.9,0.9c0,2.5,0,4.9,0,7.4c0,0.2,0.1,0.5-0.2,0.6c-0.5,0.1-0.9,0-1-0.4
			c-0.6-1.4-1.2-2.8-1.8-4.2C41.3,30.8,41.2,30.7,41.1,30.6C41.1,30.6,41.1,30.6,41.1,30.6z"/>
		<path class="st0" d="M94.6,31.4c0-0.8,0-1.6,0-2.5c0-0.6,0-1.2,0-1.9c0-0.3,0.1-0.4,0.4-0.4c1,0,0.9-0.1,0.9,0.9
			c0,2.5,0,4.9,0,7.4c0,0.2,0.1,0.5-0.2,0.6c-0.5,0.1-0.8,0-1-0.4c-0.6-1.4-1.2-2.8-1.7-4.2c-0.1-0.1-0.1-0.3-0.3-0.4
			c0,0.1,0,0.3,0,0.4c0,1.4,0,2.7,0,4.1c0,0.4-0.1,0.6-0.5,0.5c-1,0-0.9,0.1-0.9-0.9c0-2.5,0-4.9,0-7.4c0-0.2-0.2-0.5,0.2-0.6
			c0.6-0.1,0.9,0,1.1,0.4c0.6,1.3,1.1,2.6,1.7,3.9C94.3,31.1,94.4,31.3,94.6,31.4C94.5,31.4,94.5,31.4,94.6,31.4z"/>
		<path class="st0" d="M56.3,20.2c-0.5,0.7-1.1,1-1.8,0.9c-1.1-0.1-1.7-0.6-1.9-1.7c-0.1-0.4-0.2-0.9-0.2-1.3c0-1.3,0-2.5,0.1-3.8
			c0.1-1.6,1-2.4,2.6-2.3c1.8,0.1,2.4,1.1,2.3,2.8c0,0.1-0.2,0.2-0.3,0.2c-0.3,0-0.6,0-0.9,0c-0.3,0-0.3-0.1-0.3-0.4
			c0-0.3,0-0.6-0.1-0.9c-0.1-0.4-0.4-0.6-0.8-0.6c-0.4,0-0.7,0.2-0.8,0.6c-0.1,0.2-0.1,0.4-0.1,0.6c0,1.4,0,2.8,0,4.3
			c0,0.2,0,0.4,0.1,0.6c0.1,0.5,0.3,0.6,0.8,0.7c0.4,0,0.8-0.2,0.9-0.6c0.1-0.5,0.1-1,0.2-1.5c0-0.3-0.2-0.3-0.4-0.3
			c-0.2,0-0.5-0.1-0.5-0.1c-0.1-0.3,0-0.5,0-0.8c0,0,0.2-0.1,0.2-0.1c0.6,0,1.2,0,1.9,0c0.1,0,0.3,0.2,0.3,0.3c0,1.3,0,2.6,0,3.9
			c0,0.1-0.2,0.2-0.3,0.3c-0.1,0-0.2,0-0.4,0c-0.3,0-0.5-0.1-0.5-0.4C56.4,20.5,56.4,20.4,56.3,20.2z"/>
		<path class="st0" d="M95.4,15.6c0,1,0,1.9,0,2.9c0,0.3,0,0.6-0.1,0.8c-0.2,1.1-0.9,1.6-2,1.7c-0.1,0-0.3,0-0.4,0
			c-1.6,0-2.4-0.7-2.5-2.4c0-2.1,0-4.2,0-6.3c0-0.3,0.1-0.4,0.4-0.4c1.5,0,1.2-0.2,1.2,1.1c0,1.7,0,3.4,0,5.1c0,0.3,0.1,0.6,0.1,1
			c0.1,0.4,0.4,0.6,0.8,0.6c0.4,0,0.7-0.2,0.8-0.6c0.1-0.3,0.1-0.6,0.1-1c0-1.9,0-3.8,0-5.7c0-0.4,0.1-0.5,0.5-0.5
			c1.1,0,1.1,0,1.1,1C95.4,13.9,95.4,14.8,95.4,15.6C95.4,15.6,95.4,15.6,95.4,15.6z"/>
		<path class="st0" d="M55.4,31.1c0,0.8,0,1.6,0,2.4c0,0.6,0.2,0.9,0.6,1c0.5,0.1,0.9-0.1,1-0.6c0.1-0.4,0.1-0.8,0.1-1.3
			c0-0.3,0.1-0.4,0.4-0.4c1.4,0,1.2-0.3,1.2,1.2c-0.1,1.7-1,2.4-2.6,2.3c-1.5-0.1-2.2-0.8-2.2-2.3c-0.1-1.6-0.1-3.1,0-4.7
			c0.1-1.3,0.7-2,2-2.1c0.4-0.1,0.9,0,1.4,0.1c0.8,0.2,1.3,0.8,1.5,1.8c0,0.1,0,0.2,0,0.3c0,1.2,0,1.3-1.2,1.1
			c-0.2,0-0.3-0.1-0.3-0.3c0-0.3,0-0.6,0-0.9c0-0.6-0.3-0.9-0.8-0.9c-0.5,0-0.8,0.3-0.9,0.8C55.4,29.4,55.4,30.2,55.4,31.1
			C55.4,31.1,55.4,31.1,55.4,31.1z"/>
		<path class="st0" d="M66.2,21c-0.5,0-0.9,0-1.3,0c-0.1,0-0.2-0.2-0.3-0.3c-0.1-0.5-0.2-0.9-0.3-1.4c0-0.3-0.2-0.4-0.4-0.4
			c-1.2,0-1.2,0-1.4,1.1c-0.2,1-0.2,1-1.2,1c-0.2,0-0.3,0-0.5,0c0.1-0.4,0.1-0.7,0.2-1c0.5-2.5,1-5,1.5-7.5c0.1-0.3,0.2-0.4,0.5-0.4
			c1.3,0,1.3,0,1.5,1.2c0.5,2.3,1,4.7,1.4,7C66.1,20.5,66.1,20.7,66.2,21z M63.6,14.5C63.6,14.5,63.5,14.5,63.6,14.5
			c-0.3,1.1-0.4,2.2-0.6,3.3c0.4,0,0.7,0,1.2,0C64,16.7,63.8,15.6,63.6,14.5z"/>
		<path class="st0" d="M68.9,21c0-0.2,0-0.3,0.1-0.4c0.5-2.7,1.1-5.3,1.6-8c0.1-0.4,0.2-0.5,0.6-0.5c1.2,0,1.2,0,1.5,1.2
			c0.5,2.4,1,4.7,1.4,7.1c0,0.2,0.1,0.4,0.1,0.6c-0.5,0-0.9,0-1.4,0c-0.1,0-0.2-0.2-0.2-0.3c-0.1-0.4-0.2-0.9-0.2-1.4
			c0-0.3-0.2-0.4-0.4-0.4c-1.2,0-1.1,0-1.4,1.1c-0.2,1.1,0,0.9-1.1,0.9C69.3,21,69.1,21,68.9,21z M71.6,14.5
			C71.5,14.5,71.5,14.5,71.6,14.5c-0.3,1-0.4,2.1-0.6,3.1c0,0.1,0.1,0.2,0.2,0.2c0.3,0,0.5,0,0.8,0c0.1,0,0.2-0.2,0.2-0.2
			C71.9,16.6,71.7,15.6,71.6,14.5z"/>
		<path class="st0" d="M80.5,35.5c-0.5,0-0.9,0-1.3,0c-0.1,0-0.2-0.2-0.2-0.3c-0.1-0.4-0.2-0.9-0.2-1.4c0-0.3-0.2-0.4-0.5-0.4
			c-1.1,0-1.1,0-1.3,1.1c-0.2,1.1,0,0.9-1.1,0.9c-0.2,0-0.3,0-0.6,0c0-0.2,0-0.3,0.1-0.4c0.5-2.7,1.1-5.3,1.6-8
			c0.1-0.3,0.2-0.4,0.5-0.4c1.3,0,1.3,0,1.5,1.2c0.5,2.3,0.9,4.7,1.4,7C80.4,35.1,80.5,35.3,80.5,35.5z M77.9,29.1
			C77.9,29.1,77.9,29.1,77.9,29.1c-0.3,1-0.4,2-0.6,3c0,0.1,0.1,0.3,0.2,0.3c0.3,0,0.6,0,0.9,0C78.3,31.3,78.1,30.2,77.9,29.1z"/>
		<path class="st0" d="M101.8,35.5c-0.5,0-0.9,0-1.2,0c-0.1,0-0.3-0.2-0.3-0.3c-0.1-0.5-0.2-0.9-0.3-1.4c0-0.1-0.2-0.3-0.3-0.3
			c-1.2-0.1-1.2-0.1-1.4,1.1c-0.2,0.9-0.2,0.9-1.1,0.9c-0.2,0-0.3,0-0.6,0c0-0.2,0-0.4,0.1-0.5c0.5-2.6,1.1-5.3,1.6-7.9
			c0.1-0.4,0.2-0.5,0.6-0.5c1.2,0,1.2,0,1.4,1.1c0.5,2.4,1,4.9,1.5,7.3C101.8,35.2,101.8,35.3,101.8,35.5z M99.3,29.1
			C99.3,29.1,99.2,29.1,99.3,29.1c-0.3,1.1-0.4,2.2-0.6,3.3c0.3,0,0.6,0,0.8,0c0.3,0,0.4-0.1,0.3-0.4C99.6,31.1,99.4,30.1,99.3,29.1
			z"/>
		<path class="st0" d="M77.8,14.6c-0.1-0.3-0.1-0.6-0.2-0.8c-0.1-0.4-0.4-0.6-0.8-0.6c-0.4,0-0.7,0.3-0.7,0.8c0,0.4,0.2,0.7,0.4,1
			c0.3,0.4,0.8,0.7,1.1,1c0.4,0.4,0.8,0.7,1.1,1.1c0.5,0.7,0.6,1.5,0.5,2.3c-0.2,0.9-0.9,1.5-1.7,1.6c-1.3,0.1-2.2-0.3-2.6-1.2
			c-0.2-0.4-0.2-0.8-0.3-1.3c0-0.1,0.1-0.3,0.2-0.3c0.4-0.1,0.8-0.2,1.2-0.3c0,0.3,0.1,0.5,0.1,0.7c0,0.2,0.1,0.4,0.2,0.6
			c0.2,0.4,0.6,0.5,0.9,0.4c0.4-0.1,0.5-0.4,0.5-0.8c0-0.6-0.2-1-0.6-1.4c-0.5-0.5-1-0.9-1.5-1.3c-0.9-0.8-1.1-1.7-0.9-2.8
			c0-0.2,0.1-0.4,0.3-0.6c0.5-0.8,1.7-1.1,2.7-0.8c0.8,0.2,1.4,1.1,1.4,2c0,0.1-0.1,0.3-0.2,0.3C78.6,14.5,78.2,14.6,77.8,14.6z"/>
		<path class="st0" d="M72,68.4c-1,0-1.6-1-1.1-1.9c0.8-1.5,1.6-2.9,2.5-4.3c0.3-0.4,0.5-0.9,0.8-1.3c0.4-0.6,1.1-0.8,1.8-0.5
			c0.6,0.3,0.8,1.1,0.5,1.7c-1.1,1.9-2.2,3.8-3.3,5.7C72.8,68.3,72.4,68.4,72,68.4z"/>
		<path class="st0" d="M39.3,70.9c0-1,1-1.6,1.9-1c1.4,0.8,2.8,1.6,4.2,2.4c0.5,0.3,1,0.6,1.5,0.8c0.6,0.4,0.8,1.1,0.5,1.7
			c-0.3,0.6-1.1,0.8-1.7,0.5c-1.9-1.1-3.9-2.2-5.8-3.3C39.4,71.8,39.3,71.4,39.3,70.9z"/>
		<path class="st0" d="M40.6,97.6c-0.6,0-1.1-0.4-1.3-1c-0.2-0.6,0.1-1.2,0.6-1.5c1.9-1.1,3.7-2.2,5.6-3.2c0.7-0.4,1.5-0.2,1.8,0.4
			c0.4,0.6,0.1,1.4-0.6,1.8c-1.8,1-3.6,2.1-5.5,3.1C41.1,97.4,40.8,97.5,40.6,97.6z"/>
		<path class="st0" d="M76.6,105.6c-0.1,0.6-0.4,1.1-0.9,1.2c-0.6,0.2-1.2-0.1-1.5-0.6c-1.1-1.9-2.2-3.8-3.3-5.7
			c-0.3-0.6-0.1-1.4,0.5-1.7c0.6-0.3,1.4-0.2,1.7,0.4c0.6,1,1.2,2,1.7,3c0.5,0.9,1,1.7,1.5,2.6C76.4,105.1,76.5,105.4,76.6,105.6z"
			/>
		<path class="st0" d="M49.9,60.3c0.5,0,0.9,0.2,1.1,0.6c1.1,1.9,2.2,3.8,3.2,5.6c0.3,0.6,0.1,1.4-0.4,1.7c-0.6,0.3-1.4,0.2-1.7-0.4
			c-1.1-1.9-2.2-3.8-3.3-5.7C48.3,61.3,48.9,60.3,49.9,60.3z"/>
		<path class="st0" d="M49.9,106.9c-0.9,0-1.6-1-1.1-1.8c1.1-2,2.2-3.9,3.3-5.8c0.3-0.5,1.1-0.7,1.7-0.4c0.6,0.3,0.8,1.1,0.4,1.7
			c-0.6,1.1-1.3,2.3-1.9,3.4c-0.4,0.8-0.9,1.5-1.3,2.3C50.8,106.7,50.4,106.9,49.9,106.9z"/>
		<path class="st0" d="M84.6,97.5c-0.2-0.1-0.4-0.1-0.6-0.2c-1.9-1.1-3.7-2.1-5.6-3.2c-0.7-0.4-0.9-1.2-0.5-1.8
			c0.4-0.6,1.1-0.8,1.8-0.4c1.9,1.1,3.7,2.1,5.6,3.2c0.6,0.3,0.8,0.9,0.6,1.5C85.7,97.1,85.3,97.4,84.6,97.5z"/>
		<path class="st0" d="M79,75.4c-0.6-0.1-1.1-0.4-1.2-0.9c-0.2-0.6,0-1.2,0.5-1.5c1.9-1.1,3.8-2.2,5.7-3.3c0.6-0.3,1.4-0.1,1.7,0.5
			c0.3,0.6,0.2,1.4-0.5,1.7c-1.9,1.1-3.8,2.2-5.7,3.3C79.4,75.3,79.2,75.4,79,75.4z"/>
		<path class="st0" d="M84.7,84.8c-1.1,0-2.1,0-3.2,0c-0.8,0-1.3-0.6-1.3-1.3c0-0.7,0.6-1.2,1.3-1.2c2.2,0,4.3,0,6.5,0
			c0.8,0,1.3,0.5,1.3,1.3c0,0.7-0.6,1.3-1.3,1.3C86.9,84.8,85.8,84.8,84.7,84.8z"/>
		<path class="st0" d="M63.8,61.4c0,1.1,0,2.1,0,3.2c0,0.8-0.6,1.3-1.3,1.3c-0.7,0-1.2-0.6-1.2-1.3c0-2.1,0-4.3,0-6.4
			c0-0.8,0.5-1.3,1.3-1.3c0.7,0,1.3,0.5,1.3,1.3C63.9,59.3,63.8,60.4,63.8,61.4z"/>
		<path class="st0" d="M61.3,105.7c0-1.1,0-2.1,0-3.2c0-0.8,0.5-1.3,1.3-1.3c0.7,0,1.2,0.6,1.3,1.3c0,2.2,0,4.3,0,6.5
			c0,0.8-0.5,1.3-1.2,1.3c-0.7,0-1.3-0.6-1.3-1.3C61.3,107.9,61.3,106.8,61.3,105.7z"/>
		<path class="st0" d="M40.4,84.8c-1.1,0-2.1,0-3.2,0c-0.7,0-1.3-0.5-1.3-1.2c0-0.7,0.6-1.3,1.3-1.3c2.2,0,4.3,0,6.5,0
			c0.8,0,1.3,0.5,1.3,1.3c0,0.7-0.6,1.3-1.3,1.3C42.6,84.8,41.5,84.8,40.4,84.8z"/>
		<path class="st0" d="M109.6,16.5c0-1.3,0-2.7,0-4c0-0.3,0.1-0.5,0.5-0.5c0.9,0,1.9,0,2.8,0c0.3,0,0.5,0.1,0.5,0.4
			c0,0.9,0.1,0.8-0.8,0.8c-0.4,0-0.7,0-1.1,0c-0.1,0-0.3,0.2-0.3,0.3c0,0.6,0,1.3,0,1.9c0,0.1,0.2,0.3,0.3,0.3c0.3,0,0.7,0,1,0
			c0.2,0,0.4,0.1,0.4,0.3c0,0.8,0,0.8-0.8,0.8c-1.1,0-0.9-0.1-0.9,0.9c0,0.5,0,1.1,0,1.6c0,0.3,0.1,0.4,0.4,0.4c0.4,0,0.9,0,1.3,0
			c0.3,0,0.4,0.1,0.4,0.4c0,0.1,0,0.2,0,0.3c0,0.3-0.1,0.4-0.4,0.4c-1,0-2,0-2.9,0c-0.3,0-0.4-0.1-0.4-0.4
			C109.6,19.2,109.6,17.9,109.6,16.5z"/>
		<path class="st0" d="M80,16.5c0-1.3,0-2.7,0-4c0-0.3,0.1-0.4,0.4-0.4c1,0,1.9,0,2.9,0c0.3,0,0.4,0.1,0.4,0.4
			c0,0.9,0.1,0.8-0.8,0.8c-0.3,0-0.6,0-0.9,0c-0.3,0-0.4,0.1-0.4,0.4c0,0.6,0,1.2,0,1.7c0,0.3,0.1,0.4,0.4,0.4c0.3,0,0.7,0,1,0
			c0.1,0,0.2,0.2,0.3,0.3c0,0,0,0,0,0c0.1,0.8,0.1,0.8-0.8,0.8c-1.1,0-0.9-0.1-0.9,0.9c0,0.5,0,0.9,0,1.4c0,0.6,0,0.6,0.7,0.6
			c0.4,0,0.7,0,1.1,0c0.3,0,0.4,0.1,0.4,0.4c0,0.1,0,0.2,0,0.4c0,0.2-0.1,0.3-0.3,0.3c-1,0-2.1,0-3.1,0C80,21,80,20.8,80,20.6
			C80,19.2,80,17.9,80,16.5z"/>
		<path class="st0" d="M42.3,16.5c0-1.3,0-2.7,0-4c0-0.3,0.1-0.5,0.5-0.5c0.9,0,1.9,0,2.8,0c0.3,0,0.5,0.1,0.5,0.4
			c0,0.9,0.1,0.8-0.8,0.8c-0.4,0-0.7,0-1.1,0c-0.1,0-0.3,0.2-0.3,0.3c0,0.6,0,1.3,0,1.9c0,0.1,0.2,0.3,0.3,0.3c0.3,0,0.6,0,1,0
			c0.3,0,0.4,0.1,0.4,0.3c0,0.8,0,0.8-0.8,0.8c-1,0-0.9-0.1-0.9,0.9c0,0.5,0,1.1,0,1.6c0,0.3,0.1,0.4,0.4,0.4c0.4,0,0.9,0,1.3,0
			c0.3,0,0.4,0.1,0.4,0.4c0,0.7,0,0.7-0.7,0.7c-0.9,0-1.7,0-2.6,0c-0.4,0-0.5-0.1-0.5-0.5C42.3,19.2,42.3,17.8,42.3,16.5z"/>
		<path class="st0" d="M32,16.5c0-1.3,0-2.7,0-4c0-0.4,0.1-0.5,0.5-0.5c0.9,0,1.8,0,2.8,0c0.3,0,0.5,0.1,0.5,0.5
			c0,0.8,0.1,0.7-0.7,0.7c-0.3,0-0.7,0-1,0c-0.2,0-0.4,0.1-0.3,0.3c0,0.6,0,1.3,0,1.9c0,0.2,0.1,0.3,0.3,0.3c0.3,0,0.7,0,1,0
			c0.2,0,0.3,0.1,0.4,0.3c0.1,0.8,0,0.8-0.8,0.8c-1,0-0.9-0.1-0.9,0.9c0,0.6,0,1.1,0,1.7c0,0.3,0.1,0.4,0.4,0.4c0.5,0,0.9,0,1.4,0
			c0.3,0,0.4,0.1,0.4,0.4c0,0.8,0,0.8-0.7,0.8c-0.9,0-1.7,0-2.6,0c-0.3,0-0.4-0.1-0.4-0.4C32,19.2,32,17.9,32,16.5z"/>
		<path class="st0" d="M112.7,31.1c0-1.3,0-2.6,0-3.9c0-0.4,0.1-0.5,0.5-0.5c0.9,0,1.8,0,2.8,0c0.3,0,0.5,0.1,0.4,0.4
			c0,0.1,0,0.3,0,0.4c0,0.2-0.1,0.3-0.3,0.3c-0.5,0-0.9,0-1.4,0c-0.3,0-0.4,0.1-0.4,0.4c0,0.6,0,1.2,0,1.9c0,0.2,0.1,0.3,0.3,0.3
			c0.3,0,0.7,0,1,0c0.3,0,0.4,0.1,0.4,0.4c0,0.8,0,0.8-0.8,0.8c-1.1,0-0.9-0.1-0.9,0.9c0,0.5,0,0.9,0,1.4c0,0.6,0,0.6,0.6,0.6
			c0.4,0,0.7,0,1.1,0c0.3,0,0.5,0.1,0.4,0.4c0,0.1,0,0.2,0,0.4c0,0.2-0.1,0.3-0.3,0.3c-1,0-2.1,0-3.1,0c-0.3,0-0.3-0.2-0.3-0.4
			C112.7,33.8,112.7,32.5,112.7,31.1z"/>
		<path class="st0" d="M31.5,26.7c0.5,0,0.9,0,1.4,0c0.1,0,0.2,0.2,0.2,0.3c0.3,0.8,0.5,1.7,0.8,2.6c0,0.1,0.1,0.2,0.2,0.4
			c0.1-0.2,0.1-0.3,0.2-0.5c0.2-0.8,0.5-1.6,0.7-2.4c0.1-0.3,0.2-0.4,0.5-0.4c0.3,0,0.7,0,1.1,0c-0.1,0.2-0.1,0.4-0.1,0.6
			c-0.5,1.5-1,2.9-1.4,4.4c-0.1,0.4-0.2,0.8-0.2,1.2c0,0.8,0,1.5,0,2.3c0,0.3-0.1,0.5-0.4,0.5c-1.1,0-1.2,0-1.1-1.1
			c0.1-1.6-0.2-3.1-0.7-4.5c-0.4-0.9-0.6-1.9-0.9-2.8C31.6,27,31.5,26.9,31.5,26.7z"/>
		<path class="st0" d="M109.2,31.7c0-1.1,0-2.2,0-3.4c0-0.4-0.1-0.6-0.5-0.5c-0.1,0-0.1,0-0.2,0c-0.8,0-0.9-0.2-0.7-0.9
			c0-0.1,0.2-0.2,0.3-0.2c1.3,0,2.6,0,3.9,0c0.1,0,0.2,0.2,0.3,0.3c0,0,0,0.1,0,0.1c0,0.8,0,0.8-0.7,0.8c-0.1,0-0.2,0-0.2,0
			c-0.4,0-0.5,0.1-0.5,0.5c0,2.2,0,4.4,0,6.6c0,0.6,0,0.6-0.6,0.6c-1,0-1,0-1-1C109.2,33.6,109.2,32.7,109.2,31.7z"/>
		<path class="st0" d="M72.1,31.7c0-1.1,0-2.3,0-3.4c0-0.3-0.1-0.5-0.4-0.4c-0.2,0-0.5,0-0.7,0c-0.2,0-0.3-0.1-0.3-0.3
			c0-0.8-0.1-0.8,0.8-0.8c1.1,0,2.2,0,3.3,0c0.4,0,0.5,0.1,0.5,0.5c0,0.1,0,0.2,0,0.4c0,0.2-0.1,0.4-0.3,0.3c-0.2,0-0.4,0-0.6,0
			c-0.5,0-0.6,0-0.6,0.5c0,1.7,0,3.4,0,5c0,0.5,0,1.1,0,1.6c0,0.4-0.1,0.6-0.5,0.5c-0.2,0-0.5,0-0.7,0c-0.3,0-0.4-0.1-0.4-0.4
			C72.1,34,72.1,32.8,72.1,31.7z"/>
		<path class="st0" d="M105.2,16.5c0-1.3,0-2.7,0-4c0-0.3,0.1-0.4,0.4-0.4c1.2,0,1.2,0,1.2,1.2c0,2,0,4.1,0,6.1
			c0,0.4,0.1,0.5,0.5,0.5c0.4,0,0.8,0,1.2,0c0.3,0,0.4,0.1,0.4,0.4c0,0.7,0,0.7-0.7,0.7c-0.9,0-1.7,0-2.6,0c-0.4,0-0.5-0.1-0.5-0.5
			C105.2,19.2,105.2,17.8,105.2,16.5z"/>
		<path class="st0" d="M88.5,31.1c0-1.3,0-2.6,0-3.9c0-0.4,0.1-0.5,0.5-0.5c1.1,0,1.1,0,1.1,1.1c0,2.4,0,4.8,0,7.2
			c0,0.4-0.1,0.5-0.5,0.5c-1.1,0-1.1,0-1.1-1.1C88.5,33.3,88.5,32.2,88.5,31.1z"/>
		<path class="st0" d="M96.5,16.6c0-1.3,0-2.7,0-4c0-0.4,0.1-0.5,0.5-0.5c1.1,0,1.1,0,1.1,1.1c0,2.4,0,4.9,0,7.3
			c0,0.5,0,0.5-0.5,0.5c-1,0-1,0-1-1C96.5,18.8,96.5,17.7,96.5,16.6z"/>
		<path class="st0" d="M60.2,16.5c0,1.3,0,2.7,0,4c0,0.4-0.1,0.5-0.5,0.5c-1.1,0-1.1,0-1.1-1.1c0-2.4,0-4.9,0-7.3
			c0-0.4,0.1-0.5,0.5-0.5c1,0,1.1,0,1.1,1.1C60.2,14.2,60.2,15.4,60.2,16.5z"/>
		<path class="st0" d="M59,11.2c0.2-0.7,0.4-1.3,0.6-2c0-0.1,0.2-0.1,0.3-0.1c0.4,0,0.8,0,1.3,0C61,9.5,60.8,9.7,60.6,10
			c-0.2,0.3-0.3,0.6-0.5,0.8C59.8,11.4,59.7,11.4,59,11.2z"/>
	</g>
</g>
</svg>
