<?xml version="1.0" encoding="utf-8"?>
<!-- Generator: Adobe Illustrator 24.3.0, SVG Export Plug-In . SVG Version: 6.00 Build 0)  -->
<svg version="1.1" id="Layer_1" xmlns="http://www.w3.org/2000/svg" xmlns:xlink="http://www.w3.org/1999/xlink" x="0px" y="0px"
	 viewBox="0 0 125 125" style="enable-background:new 0 0 125 125;" xml:space="preserve">
<style type="text/css">
	.st0{fill:#A21942;}
</style>
<g>
	<g>
		<path class="st0" d="M83,89.1c0,6.4,0,12.8,0,19.2c0,0.9-0.2,1.1-1,1.1c-3.3,0-6.7,0-10,0c-0.9,0-1-0.2-1-1c0-9.1,0-18.3,0-27.4
			c0-0.8,0.2-1.3,0.8-1.9c3.4-3.2,6.8-6.5,10.2-9.7c0.2-0.2,0.5-0.5,0.8-0.4c0.4,0.2,0.3,0.6,0.3,0.9C83,76.3,83,82.7,83,89.1z"/>
		<path class="st0" d="M68,96.4c0,4,0,7.9,0,11.9c0,0.8-0.2,1-1,1c-3.4,0-6.7,0-10.1,0c-0.8,0-1-0.2-1-1c0-7.8,0-15.7,0-23.5
			c0-0.3-0.1-0.7,0.3-0.8c0.2,0,0.6,0.2,0.8,0.4c1.5,1.5,2.9,2.9,4.4,4.4c0.4,0.4,0.4,0.4,0.8,0c1.6-1.6,3.1-3.2,4.7-4.8
			c0.2-0.2,0.5-0.6,0.9-0.4c0.4,0.2,0.3,0.6,0.3,0.9C68,88.5,68,92.5,68,96.4z"/>
		<path class="st0" d="M61.7,79.3c6.1-6.1,12.2-12.2,18.2-18.2c-0.5-0.5-1.1-1.1-1.7-1.7c-0.1-0.1-0.3-0.4-0.2-0.5
			c0-0.1,0.3-0.2,0.5-0.3c2.5-0.6,5.1-1.2,7.6-1.7c0.6-0.1,0.8,0,0.7,0.7c-0.5,2.6-1.1,5.1-1.7,7.7c0,0.2-0.2,0.5-0.3,0.5
			c-0.1,0-0.4-0.1-0.5-0.3c-0.6-0.5-1.1-1.1-1.7-1.7c-0.2,0.2-0.3,0.3-0.4,0.4c-6.6,6.6-13.3,13.3-19.9,19.9c-0.5,0.5-0.5,0.5-1.1,0
			c-2.6-2.6-5.1-5.1-7.7-7.7c-0.3-0.3-0.4-0.3-0.7,0C49.2,80,45.6,83.6,42,87.2c-0.7,0.7-1.3,1.3-2,1.9c-0.2,0.2-0.4,0.3-0.7,0
			c-0.7-0.7-1.3-1.3-2-2c-0.3-0.3-0.3-0.5,0-0.7c0.9-0.9,1.7-1.7,2.6-2.6c4.2-4.2,8.5-8.5,12.7-12.7c0.5-0.5,0.5-0.5,1,0
			c2.6,2.6,5.2,5.2,7.7,7.7C61.5,79,61.6,79.2,61.7,79.3z"/>
		<path class="st0" d="M52.8,95.6c0,4.3,0,8.5,0,12.8c0,0.8-0.2,1-1,1c-3.4,0-6.7,0-10.1,0c-0.8,0-1-0.2-1-1c0-4.8,0-9.5,0-14.3
			c0-0.9,0.3-1.5,0.9-2.1c3.2-3,6.4-6.1,9.6-9.2c0.2-0.2,0.5-0.5,0.7-0.7c0.4-0.3,0.8-0.2,0.8,0.4c0,0.1,0,0.3,0,0.4
			C52.8,87.1,52.8,91.4,52.8,95.6z"/>
		<path class="st0" d="M20.8,23.1c0.2,0.1,0.3,0.2,0.5,0.3c0.9,0.7,1.5,1.5,1.8,2.6c0.6,2.1,0.6,4.2-0.1,6.2
			c-0.7,2.1-2.3,3.2-4.5,3.4c-1,0.1-2,0.1-2.9-0.1c-2.1-0.3-3.4-1.6-4.1-3.6c-0.6-1.7-0.6-3.5-0.3-5.2c0.3-1.7,0.9-2.5,2.5-3.7
			c0-0.1-0.1-0.1-0.1-0.2c-1.4-1.2-2-2.7-2.1-4.5c0-0.9,0-1.9,0.2-2.8c0.6-2.2,2.1-3.4,4.3-3.8c1-0.2,2.1-0.2,3.1,0.1
			c2.1,0.4,3.5,1.8,4,3.9c0.4,1.5,0.3,2.9-0.1,4.4c-0.3,1.1-0.8,2-1.7,2.7C21,22.9,20.9,23,20.8,23.1z M17.2,25.1
			c-0.8,0-1.3,0.3-1.5,1.1c-0.5,1.7-0.5,3.4,0,5.1c0.2,0.7,0.7,1.1,1.5,1.1c0.7,0,1.3-0.3,1.5-1.1c0.5-1.7,0.5-3.5,0-5.2
			C18.5,25.5,17.9,25.1,17.2,25.1z M18.9,18.1c-0.1-0.7-0.2-1.3-0.4-2c-0.1-0.5-0.5-0.8-1-0.9c-0.8-0.2-1.5,0.2-1.7,1
			c-0.5,1.4-0.4,2.8,0.1,4.2c0.2,0.7,0.8,1,1.3,1c0.7,0,1.1-0.4,1.2-1C18.6,19.6,18.7,18.9,18.9,18.1z"/>
		<path class="st0" d="M58.4,20.4c0-0.3,0.2-0.4,0.5-0.4c0.6,0,0.8-0.3,0.8-0.9c0-1,0-1.9,0-2.9c0-1.2,0-2.5,0-3.7
			c0-0.3,0.1-0.4,0.4-0.5c1.3,0,1.3,0,1.3,1.3c0,2,0,4.1,0,6.1c0,1.2-0.5,1.7-1.7,1.8c-0.4,0-0.9,0.1-1.3-0.1c-0.3-0.1-0.7-0.1-1,0
			c-0.3,0-0.4-0.1-0.5-0.4c-0.1-0.5-0.2-0.9-0.2-1.4c0-0.2-0.1-0.3-0.4-0.3c-1.2,0-1.2,0-1.3,1.1c-0.2,1-0.2,1-1.2,1
			c-0.2,0-0.3,0-0.6,0c0-0.3,0.1-0.4,0.1-0.6c0.5-2.6,1.1-5.3,1.6-7.9c0.1-0.4,0.2-0.5,0.6-0.5c0.4,0,0.9-0.1,1.2,0.1
			c0.3,0.2,0.2,0.7,0.3,1.1C57.4,15.6,57.9,18,58.4,20.4z M56.4,17.8c-0.2-1.1-0.3-2.1-0.5-3.2c0,0,0,0-0.1,0
			c-0.2,1-0.3,2.1-0.5,3.2C55.7,17.8,56,17.8,56.4,17.8z"/>
		<path class="st0" d="M64.5,44.6c-0.4,1.7-0.7,3.4-1.1,5.1c-0.1,0.4-0.7,0.7-1,0.5c-0.1-0.1-0.1-0.2-0.2-0.4
			c-0.3-1.6-0.7-3.2-1-4.8c0-0.1-0.1-0.2-0.1-0.4c0,0-0.1,0-0.1,0c0,1.7,0,3.4,0,5.1c0,0.4-0.1,0.5-0.5,0.5c-1,0-0.9,0.1-0.8-0.9
			c0-1.9,0.1-3.8,0.1-5.6c0-0.7,0.1-1.4,0.1-2.1c0-0.3,0.1-0.4,0.4-0.3c0.3,0,0.7,0,1,0c0.3,0,0.4,0.1,0.5,0.4
			c0.3,1.7,0.7,3.5,1.1,5.2c0,0.1,0.1,0.2,0.1,0.3c0.2-0.9,0.4-1.8,0.6-2.6c0.2-0.9,0.4-1.9,0.6-2.8c0.1-0.3,0.2-0.5,0.6-0.5
			c0.3,0,0.6,0,0.9,0c0.3,0,0.4,0.1,0.4,0.4c0,1.9,0.1,3.7,0.1,5.6c0,0.9,0,1.8,0.1,2.6c0,0.3-0.1,0.4-0.4,0.4c-1,0-0.9,0.1-0.9-0.9
			c0-1.6,0-3.1,0-4.7C64.6,44.6,64.6,44.6,64.5,44.6z"/>
		<path class="st0" d="M67.1,32.5c0.4-1.8,0.8-3.6,1.1-5.4c0.1-0.4,0.2-0.5,0.6-0.5c1.2,0,1.2,0,1.2,1.2c0,2.4,0.1,4.7,0.1,7.1
			c0,0.1,0,0.2,0,0.3c0.1,0.4-0.2,0.5-0.5,0.4c-0.3-0.1-0.8,0.3-0.8-0.4c0-1.4-0.1-2.8-0.1-4.2c0-0.4,0-0.7-0.1-1.1
			c-0.2,1.2-0.5,2.3-0.7,3.5c-0.1,0.6-0.3,1.2-0.4,1.7c-0.1,0.5-0.4,0.4-0.7,0.4c-0.3,0-0.5-0.1-0.5-0.4c-0.3-1.6-0.7-3.2-1-4.7
			c0-0.1-0.1-0.3-0.1-0.4c0,0-0.1,0-0.1,0c0,1.3,0,2.5,0,3.8c0,0.4,0,0.9,0,1.3c0,0.3-0.1,0.4-0.4,0.4c-1.1,0-1,0.2-0.9-0.9
			c0-2.4,0.1-4.7,0.1-7.1c0-1,0-1,1-1c0.8,0,0.7-0.1,0.9,0.7c0.3,1.7,0.7,3.3,1,5C67,32.4,67,32.5,67.1,32.5
			C67,32.5,67.1,32.5,67.1,32.5z"/>
		<path class="st0" d="M51.6,16.2c1.3,0.8,1.7,2.2,1.1,3.6c-0.3,0.8-1,1.2-1.8,1.2C50,21,49,21,48.1,21c-0.3,0-0.3-0.2-0.3-0.4
			c0-2.7,0-5.4,0-8.1c0,0,0-0.1,0-0.1c0-0.2,0.1-0.3,0.3-0.3c0.9,0,1.8,0,2.7,0.1c1.2,0.1,1.8,0.8,1.8,2c0,0,0,0.1,0,0.1
			C52.7,15,52.5,15.8,51.6,16.2z M51.3,18.4c0-1.1-0.4-1.6-1.5-1.6c-0.2,0-0.3,0.1-0.3,0.3c0,0.8,0,1.5,0,2.3c0,0.2,0.1,0.3,0.3,0.3
			C50.9,19.9,51.3,19.5,51.3,18.4z M49.5,14.5c0,0.3,0,0.6,0,0.9c0,0.1,0,0.2,0.1,0.3c0.5,0.3,1.4-0.2,1.5-0.7c0.1-0.3,0.1-0.6,0-1
			c-0.1-0.5-0.6-0.8-1.4-0.7c-0.5,0.1-0.2,0.5-0.3,0.7C49.4,14.1,49.5,14.3,49.5,14.5z"/>
		<path class="st0" d="M41.6,21c-0.5,0-1,0-1.5,0c-0.1,0-0.3-0.2-0.3-0.4c-0.3-1.1-0.6-2.2-0.9-3.3c0-0.1-0.1-0.3-0.2-0.3
			c-0.3-0.1-0.5,0-0.5,0.4c0,1.1,0,2.2,0,3.3c0,0.3-0.1,0.5-0.4,0.4c-0.3,0-0.6,0-0.9,0c-0.3,0-0.4-0.1-0.4-0.4c0-2.7,0-5.4,0-8.1
			c0-0.3,0.1-0.5,0.4-0.4c0.9,0,1.7,0,2.6,0.1c1.2,0.1,1.8,0.7,1.9,1.9c0.1,0.5,0,1.1-0.1,1.6c-0.1,0.3-0.2,0.6-0.5,0.8
			c-0.4,0.3-0.4,0.5-0.3,0.9c0.3,1.1,0.6,2.2,0.9,3.3C41.5,20.7,41.6,20.8,41.6,21z M38.2,14.5c0,0.4,0,0.7,0,1.1
			c0,0.1,0.1,0.2,0.2,0.3c0.7,0.2,1.4-0.3,1.4-1c0-0.2,0-0.3,0-0.5c0-1-0.6-1.1-1.4-1.1c-0.1,0-0.2,0.2-0.2,0.3
			C38.2,13.8,38.2,14.2,38.2,14.5z"/>
		<path class="st0" d="M50.4,35.6c-0.5,0-1,0-1.5,0c-0.1,0-0.2-0.2-0.3-0.3c-0.3-1.1-0.6-2.2-0.9-3.3c0-0.1-0.1-0.3-0.3-0.4
			c-0.3-0.1-0.5,0-0.5,0.4c0,1.1,0,2.1,0,3.2c0,0.4-0.1,0.5-0.5,0.5c-0.3,0-0.6,0-0.9,0c-0.3,0-0.4-0.1-0.4-0.4c0,0,0-0.1,0-0.1
			c0-2.7,0-5.3,0-8c0-0.4,0.1-0.5,0.5-0.5c0.8,0,1.6,0,2.4,0.1c1.2,0.1,1.9,0.7,2,1.9c0,0.5,0,1-0.1,1.5c0,0.3-0.2,0.6-0.4,0.7
			c-0.6,0.3-0.4,0.8-0.3,1.2c0.3,1,0.6,2.1,0.9,3.1C50.3,35.2,50.3,35.4,50.4,35.6z M47,29.1c0,0.3,0,0.6,0,1c0,0.2,0.1,0.3,0.3,0.3
			c0.9,0.1,1.3-0.4,1.3-1.4c0-0.9-0.4-1.3-1.3-1.2c-0.2,0-0.3,0.1-0.3,0.3C47,28.5,47,28.8,47,29.1z"/>
		<path class="st0" d="M70.7,16.5c0-1.4,0-2.7,0-4.1c0-0.3,0.1-0.4,0.4-0.4c0.9,0,1.7,0,2.6,0.1c1.1,0.1,1.8,0.8,1.9,1.9
			c0.1,1.6,0.1,3.3,0,4.9c-0.1,1.2-0.9,2-2.2,2c-0.8,0-1.6,0-2.4,0c-0.3,0-0.4-0.1-0.4-0.4C70.7,19.2,70.7,17.9,70.7,16.5z
			 M73.9,16.5C73.9,16.5,73.9,16.5,73.9,16.5c0.1-0.7,0.1-1.3,0.1-2c0,0,0-0.1,0-0.1c-0.1-0.9-0.3-1.1-1.2-1.1
			c-0.3,0-0.4,0.1-0.4,0.4c0,0.4,0,0.8,0,1.1c0,1.6,0,3.1,0,4.7c0,0.1,0.1,0.3,0.2,0.4c0.6,0.2,1.3-0.2,1.3-0.8
			C73.9,18.1,73.9,17.3,73.9,16.5z"/>
		<path class="st0" d="M53.7,45.7c0-0.7,0-1.4,0-2c0.1-1.8,1.1-2.7,2.9-2.5c1.4,0.1,2.1,0.8,2.2,2.2c0.1,1.5,0.1,3.1,0,4.6
			c-0.1,2.1-1.5,2.5-3,2.4c-1.3-0.1-2.1-1-2.1-2.5C53.6,47,53.7,46.4,53.7,45.7C53.7,45.7,53.7,45.7,53.7,45.7z M57.2,45.7
			C57.1,45.7,57.1,45.7,57.2,45.7c0-0.8,0-1.6,0-2.4c0-0.7-0.3-0.9-0.9-0.9c-0.5,0-0.8,0.3-0.8,1c0,0.5,0,1.1,0,1.6c0,1,0,2.1,0,3.1
			c0,0.6,0.2,0.9,0.7,1c0.6,0.1,1-0.3,1-1.1C57.2,47.2,57.2,46.4,57.2,45.7z"/>
		<path class="st0" d="M80.4,45.7c0,0.9,0,1.7-0.1,2.6c-0.2,1.3-1,2-2.3,2c-0.2,0-0.5,0-0.7,0c-1.2-0.2-1.9-0.9-2-2.1
			c-0.1-1-0.1-1.9-0.1-2.9c0-0.6,0-1.2,0-1.8c0.1-1.9,1.3-2.5,2.9-2.3c1.4,0.1,2.1,1,2.2,2.5C80.4,44.3,80.4,45,80.4,45.7
			C80.4,45.7,80.4,45.7,80.4,45.7z M78.6,45.7C78.6,45.7,78.6,45.7,78.6,45.7c0-0.8,0-1.7,0-2.5c0-0.5-0.3-0.8-0.8-0.8
			c-0.6,0-0.8,0.1-1,0.7c0,0.2,0,0.4,0,0.6c0,1.3,0,2.7,0,4c0,0.2,0,0.4,0.1,0.6c0.1,0.6,0.6,0.8,1.1,0.7c0.4-0.1,0.6-0.4,0.6-1
			C78.6,47.2,78.6,46.4,78.6,45.7z"/>
		<path class="st0" d="M62.3,16.5c0-0.9-0.1-1.7,0-2.6c0.1-1.2,0.9-1.9,2.2-2c0.2,0,0.4,0,0.6,0c1.3,0,2.1,0.8,2.3,2.1
			c0.1,0.9,0.1,1.8,0.1,2.7c0,0.7,0,1.5-0.1,2.2c-0.2,1.7-1.2,2.4-2.9,2.2c-1.5-0.2-2.2-1-2.2-2.7C62.2,17.8,62.2,17.1,62.3,16.5
			C62.2,16.5,62.3,16.5,62.3,16.5z M63.9,16.5C63.9,16.5,63.9,16.5,63.9,16.5c0,0.7,0,1.4,0,2c0,0.2,0,0.5,0.1,0.7
			c0.1,0.5,0.3,0.6,0.8,0.6c0.5,0,0.7-0.2,0.8-0.6c0-0.2,0.1-0.3,0.1-0.5c0-1.4,0-2.9,0-4.3c0-0.2,0-0.5-0.1-0.6
			c-0.1-0.2-0.3-0.4-0.5-0.5c-0.6-0.2-1.1,0.2-1.1,0.9C63.9,14.9,63.9,15.7,63.9,16.5z"/>
		<path class="st0" d="M47.3,45.7c0,0.6,0,1.3,0,1.9c0,1.9-1.2,2.9-3.1,2.6c-1.2-0.2-2-0.8-2.1-2.1c-0.1-1.7-0.1-3.4,0-5.1
			c0.1-1.5,1.3-2.2,2.9-2c1.4,0.2,2.2,0.9,2.2,2.5C47.3,44.3,47.3,45,47.3,45.7C47.3,45.7,47.3,45.7,47.3,45.7z M45.5,45.7
			C45.5,45.7,45.5,45.7,45.5,45.7c0-0.8,0-1.6,0-2.4c0-0.6-0.3-0.9-0.8-0.9c-0.6,0-0.8,0.2-0.9,0.8c0,0.2-0.1,0.5-0.1,0.7
			c0,1.2,0,2.4,0,3.7c0,0.3,0,0.6,0.1,0.8c0.1,0.5,0.5,0.7,0.9,0.7c0.5-0.1,0.7-0.3,0.7-0.9C45.5,47.3,45.5,46.5,45.5,45.7z"/>
		<path class="st0" d="M93.4,31.1c0,0.9,0,1.8-0.1,2.7c-0.2,1.2-0.8,1.7-2,1.9c-0.5,0.1-1.1,0-1.6-0.1c-0.9-0.2-1.4-1-1.4-1.9
			c-0.1-1.7-0.1-3.4,0-5.1c0.1-1.6,1.3-2.2,3-2c1.3,0.1,2,0.9,2.1,2.3C93.4,29.6,93.4,30.4,93.4,31.1C93.4,31.1,93.4,31.1,93.4,31.1
			z M89.9,31.1C89.9,31.1,89.9,31.1,89.9,31.1c0,0.8,0,1.7,0,2.5c0,0.6,0.3,0.8,0.9,0.8c0.5,0,0.8-0.3,0.8-0.9c0-1.6,0-3.3,0-4.9
			c0-0.6-0.3-0.9-0.8-0.9c-0.5,0-0.8,0.2-0.8,0.8C89.9,29.4,89.9,30.2,89.9,31.1z"/>
		<path class="st0" d="M94.2,16.8c0-0.5,0-1.1,0-1.6c0-0.9,0-1.8,0-2.7c0-0.3,0.1-0.4,0.4-0.4c1.2,0,1-0.2,1,1c0,2.5,0,5,0,7.4
			c0,0.2,0.1,0.5-0.2,0.6c-0.6,0.1-0.9,0-1-0.3c-0.6-1.4-1.2-2.9-1.8-4.4c0-0.1-0.1-0.2-0.2-0.3c0,0.1,0,0.3,0,0.4
			c0,1.4,0,2.8,0,4.2c0,0.3-0.1,0.4-0.4,0.4c-1.2,0-1,0.2-1-1c0-2.5,0-5,0-7.5c0-0.4,0.1-0.5,0.5-0.5c0.5,0,0.7,0.1,0.9,0.6
			c0.5,1.3,1.1,2.5,1.6,3.8C94,16.5,94.1,16.7,94.2,16.8C94.2,16.8,94.2,16.8,94.2,16.8z"/>
		<path class="st0" d="M51.4,45.8c0-0.4,0-0.9,0-1.3c0-0.8,0-1.6,0-2.4c0-0.9,0.3-1.1,1.2-0.9c0.1,0,0.2,0.2,0.2,0.2
			c0,0.2,0,0.4,0,0.6c0,2.5,0,5,0,7.6c0,0.4-0.1,0.5-0.5,0.5c-0.5,0-0.7-0.1-0.9-0.6c-0.6-1.4-1.2-2.8-1.7-4.2
			c0-0.1-0.1-0.2-0.2-0.2c0,1.3,0,2.6,0,3.9c0,0.3,0,0.5,0,0.8c0,0.2-0.1,0.3-0.3,0.3c-1.1,0.1-1.1,0.1-1.1-1c0-2.5,0-5,0-7.5
			c0-0.4,0.1-0.5,0.5-0.5c0.8,0,0.6-0.1,0.9,0.6c0.6,1.3,1.2,2.7,1.7,4C51.3,45.8,51.4,45.8,51.4,45.8z"/>
		<path class="st0" d="M79.7,30.6c0,1.5,0,3,0,4.5c0,0.4-0.1,0.5-0.5,0.5c-1,0-1,0-1-1c0-2.5,0-5,0-7.4c0-0.6,0-0.5,0.5-0.6
			c0.5,0,0.7,0.1,0.9,0.6c0.5,1.3,1.1,2.5,1.6,3.8c0,0.1,0.1,0.2,0.2,0.4c0-0.2,0-0.4,0-0.5c0-1.3,0-2.5,0-3.8
			c0-0.3,0.1-0.5,0.5-0.5c1.1,0,0.9-0.1,0.9,0.9c0,2.5,0,5,0,7.5c0,0.2,0.1,0.5-0.2,0.5c-0.6,0.1-0.9,0-1-0.3
			C81.1,33.7,80.4,32.1,79.7,30.6C79.8,30.6,79.7,30.6,79.7,30.6z"/>
		<path class="st0" d="M57.1,31.1c0,0.7,0,1.4,0,2.1c0,0.2,0,0.5,0.1,0.7c0.1,0.4,0.4,0.5,0.8,0.5c0.4,0,0.7-0.2,0.7-0.6
			c0.1-0.4,0.1-0.8,0.1-1.3c0-0.3,0.1-0.4,0.4-0.4c0.2,0,0.4,0,0.5,0c0.8,0,0.7-0.2,0.7,0.8c0,0.5-0.1,1-0.2,1.5
			c-0.2,0.6-0.7,1.1-1.3,1.2c-0.6,0.1-1.2,0.1-1.8,0c-1-0.2-1.5-0.9-1.6-1.9c-0.1-1.7-0.1-3.5,0-5.2c0.1-1.5,1.3-2.2,2.9-2
			c1.4,0.2,1.9,0.8,2,2.4c0.1,1.2,0.1,1-0.9,1c-0.9,0-0.7,0.1-0.7-0.7c0-0.2,0-0.5,0-0.7c-0.1-0.5-0.3-0.7-0.7-0.7
			c-0.5,0-0.8,0.2-0.8,0.7c-0.1,0.5-0.1,1-0.1,1.5C57.1,30.3,57.1,30.7,57.1,31.1C57.1,31.1,57.1,31.1,57.1,31.1z"/>
		<path class="st0" d="M71.3,45.7c0,0.8,0,1.6,0,2.4c0,0.6,0.2,0.9,0.6,1c0.5,0.1,0.9-0.1,1-0.7c0-0.4,0.1-0.8,0.1-1.2
			c0-0.2,0.1-0.4,0.3-0.3c0.1,0,0.2,0,0.4,0c1,0,0.9-0.2,0.9,1c0,0.2,0,0.4,0,0.6c-0.2,1.5-1.3,2.2-2.9,1.9
			c-1.1-0.2-1.8-0.8-1.9-1.9c-0.1-1.7-0.1-3.4,0-5.1c0.1-1.7,1.2-2.3,2.9-2.2c1.4,0.1,2,0.8,2.1,2.2c0,0.3,0,0.6,0,0.9
			c0,0.1-0.2,0.3-0.3,0.3c-0.4,0-0.8,0.1-1.1,0c-0.4-0.2-0.1-0.7-0.2-1c0-0.1,0-0.3,0-0.4c0-0.4-0.2-0.6-0.6-0.7
			c-0.5-0.1-0.8,0.1-0.9,0.5c-0.1,0.3-0.1,0.6-0.1,0.9C71.2,44.4,71.2,45,71.3,45.7C71.2,45.7,71.2,45.7,71.3,45.7z"/>
		<path class="st0" d="M41.2,31.1c0,0.8,0,1.5,0,2.3c0,0.7,0.3,1,0.8,1c0.4,0,0.7-0.2,0.7-0.6c0-0.4,0.1-0.8,0.1-1.3
			c0-0.2,0.1-0.4,0.3-0.3c0.1,0,0.2,0,0.3,0c1,0,1,0,1,1c0,0.2,0,0.4,0,0.6c-0.2,1.1-0.7,1.7-1.9,1.9c-0.5,0.1-1,0-1.4-0.1
			c-1-0.2-1.4-1-1.6-1.9c-0.1-0.4-0.1-0.7-0.1-1.1c0-1.3,0-2.5,0.1-3.8c0.1-1.7,1.1-2.4,2.9-2.3c1.3,0.1,2,0.8,2,2.1
			c0,0.3,0,0.7,0,1c0,0.1-0.2,0.2-0.3,0.3c0,0-0.1,0-0.1,0c-0.4,0-0.8,0.1-1.1-0.1c-0.2-0.2-0.1-0.7-0.1-1c0-0.1,0-0.3,0-0.4
			c0-0.4-0.3-0.6-0.7-0.6c-0.4,0-0.7,0.1-0.9,0.5c-0.1,0.2-0.1,0.4-0.1,0.6C41.2,29.7,41.2,30.4,41.2,31.1
			C41.2,31.1,41.2,31.1,41.2,31.1z"/>
		<path class="st0" d="M38.2,45.7c0,0.8,0,1.6,0,2.4c0,0.7,0.4,1.1,1,1c0.4,0,0.6-0.3,0.6-0.6c0-0.4,0.1-0.8,0.1-1.2
			c0-0.3,0.1-0.4,0.4-0.4c0.1,0,0.2,0,0.3,0c1.1,0,0.9-0.2,0.9,1c0,0.2,0,0.5,0,0.7c-0.3,1.5-1.3,2-2.9,1.8c-1.1-0.1-1.9-0.8-1.9-2
			c-0.1-1.7-0.1-3.5,0-5.2c0.1-1.4,1.3-2.2,2.8-2c1.4,0.2,2,0.8,2.1,2.2c0,1.5,0.2,1.1-1.1,1.2c-0.4,0-0.5-0.1-0.5-0.5
			c0-0.3,0-0.7,0-1c0-0.4-0.2-0.6-0.6-0.6c-0.5,0-0.8,0.1-0.9,0.5c-0.1,0.2-0.1,0.5-0.1,0.7C38.1,44.2,38.2,44.9,38.2,45.7
			C38.2,45.7,38.2,45.7,38.2,45.7z"/>
		<path class="st0" d="M80.7,16.5c0-0.7,0-1.3,0-2c0.1-2.1,1.2-2.8,3.2-2.6c1.1,0.1,1.6,0.7,1.7,1.7c0.1,0.4,0.1,0.9,0.1,1.3
			c0,0.2-0.1,0.3-0.3,0.3c-0.3,0-0.7,0-1,0c-0.2,0-0.3-0.1-0.3-0.3c0-0.3,0-0.7,0-1c0-0.6-0.3-0.8-0.8-0.9c-0.5,0-0.8,0.3-0.8,0.8
			c0,1-0.1,1.9-0.1,2.9c0,0.7,0,1.4,0.1,2.1c0,0.5,0.3,0.8,0.7,0.8c0.5,0,0.8-0.2,0.9-0.7c0-0.4,0-0.7,0-1.1c0-0.3,0.1-0.4,0.4-0.4
			c0.3,0,0.7,0,1,0c0.1,0,0.3,0.2,0.3,0.3c0,0.5,0,1-0.1,1.5c-0.2,1.2-1,1.8-2.6,1.7c-1.5-0.1-2.2-1-2.3-2.5
			C80.7,17.9,80.7,17.2,80.7,16.5C80.7,16.5,80.7,16.5,80.7,16.5z"/>
		<path class="st0" d="M47.3,21c-0.5,0-0.9,0-1.4,0c-0.1,0-0.2-0.2-0.2-0.3c-0.1-0.5-0.2-0.9-0.2-1.4c0-0.2-0.1-0.3-0.3-0.3
			c-1.2-0.1-1.2-0.1-1.4,1.1c-0.2,1-0.2,1-1.2,1c-0.2,0-0.3,0-0.6,0c0.1-0.7,0.3-1.4,0.4-2.1c0.4-2.1,0.9-4.2,1.3-6.4
			c0.1-0.4,0.2-0.6,0.7-0.6c1.2,0,1.2,0,1.4,1.1c0.5,2.5,1,5,1.5,7.5C47.2,20.8,47.2,20.8,47.3,21z M45.1,17.8
			c-0.2-1.1-0.3-2.1-0.5-3.2c0,0,0,0-0.1,0c-0.2,1-0.3,2.1-0.5,3.1C44.4,17.8,44.8,17.8,45.1,17.8z"/>
		<path class="st0" d="M76.5,16.6c0-1.4,0-2.7,0-4.1c0-0.3,0.1-0.5,0.5-0.5c1,0,2,0,2.9,0c0.3,0,0.4,0.1,0.4,0.4
			c0,1,0.1,0.8-0.8,0.8c-0.4,0-1-0.1-1.2,0.1c-0.2,0.2-0.1,0.8-0.1,1.2c0,0.3,0,0.6,0,0.9c0,0.2,0.1,0.3,0.3,0.3c0.3,0,0.7,0,1,0
			c0.2,0,0.3,0.1,0.3,0.3c0,1.1,0.1,0.9-0.8,0.9c-0.8,0-0.8,0-0.8,0.9c0,0.6,0,1.1,0,1.7c0,0.3,0.1,0.4,0.3,0.4c0.5,0,0.9,0,1.4,0
			c0.3,0,0.4,0.1,0.4,0.3c0,1,0.1,0.8-0.8,0.8c-0.9,0-1.7,0-2.6,0c-0.3,0-0.4-0.1-0.4-0.4C76.5,19.2,76.5,17.9,76.5,16.6z"/>
		<path class="st0" d="M51.1,31.1c0-1.3,0-2.7,0-4c0-0.4,0.1-0.5,0.5-0.5c0.9,0,1.9,0,2.8,0c0.3,0,0.5,0.1,0.5,0.5
			c0,0.9,0.1,0.8-0.8,0.8c-0.3,0-0.7,0-1,0c-0.2,0-0.4,0.1-0.3,0.3c0,0.6,0,1.2,0,1.9c0,0.3,0.1,0.3,0.3,0.3c0.3,0,0.7,0,1,0
			c0.3,0,0.4,0.1,0.4,0.3c0,1,0.1,0.9-0.8,0.9c-1,0-0.8-0.1-0.8,0.8c0,0.5,0,1,0,1.5c0,0.4,0.1,0.5,0.5,0.5c0.4,0,0.9,0,1.3,0
			c0.3,0,0.4,0.1,0.4,0.4c0,1,0,0.8-0.8,0.8c-0.9,0-1.7,0-2.6,0c-0.4,0-0.5-0.1-0.5-0.5C51.1,33.8,51.1,32.4,51.1,31.1z"/>
		<path class="st0" d="M33.9,42.4c0,0.9,0,1.6,0,2.5c0.4,0,0.8,0,1.2,0c0.3,0,0.4,0.1,0.4,0.4c0,0.8,0,0.8-0.8,0.8
			c-0.9,0-0.9,0-0.9,0.9c0,0.5,0,1.1,0,1.6c0,0.3,0.1,0.4,0.4,0.4c0.5,0,0.9,0,1.4,0c0.2,0,0.3,0.1,0.3,0.3c0,0.9,0.1,0.9-0.8,0.9
			c-0.9,0-1.7,0-2.6,0c-0.3,0-0.4-0.1-0.4-0.4c0-2.7,0-5.4,0-8.1c0-0.3,0.1-0.5,0.4-0.4c1,0,2,0,2.9,0c0.3,0,0.5,0.1,0.4,0.4
			c0,0.9,0.1,0.7-0.8,0.8C34.8,42.4,34.4,42.4,33.9,42.4z"/>
		<path class="st0" d="M88.2,15.8c0.5,0,0.9,0,1.4,0c0.2,0,0.3,0.1,0.3,0.3c0,1.1,0.1,0.9-0.8,0.9c-1,0-0.9-0.1-0.9,0.9
			c0,0.5,0,1.1,0,1.6c0,0.3,0.1,0.4,0.4,0.4c0.5,0,0.9,0,1.4,0c0.3,0,0.4,0.1,0.4,0.4c0,0.9,0,0.8-0.8,0.8c-0.9,0-1.8,0-2.7,0
			c-0.3,0-0.4-0.1-0.4-0.4c0-2.8,0-5.5,0-8.3c0-0.3,0.1-0.4,0.4-0.4c1,0,2,0,3,0c0.3,0,0.4,0.1,0.4,0.3c0,1.1,0.1,0.9-0.9,0.9
			c-0.3,0-0.6,0-0.9,0c-0.1,0-0.3,0.1-0.3,0.2C88.2,14.2,88.2,15,88.2,15.8z"/>
		<path class="st0" d="M73.9,31.1c0-1.3,0-2.7,0-4c0-0.3,0.1-0.5,0.4-0.5c1,0,1.9,0,2.9,0c0.3,0,0.4,0.1,0.4,0.4
			c0,0.9,0.1,0.8-0.8,0.8c-0.4,0-1-0.1-1.2,0.1c-0.2,0.2-0.1,0.8-0.1,1.2c0,0.3,0,0.6,0,0.9c0,0.2,0.1,0.3,0.3,0.3c0.3,0,0.7,0,1,0
			c0.2,0,0.3,0.1,0.3,0.3c0,1.1,0.1,0.9-0.8,0.9c-0.9,0-0.8-0.1-0.8,0.8c0,0.6,0,1.1,0,1.7c0,0.3,0.1,0.4,0.4,0.3c0.5,0,1,0,1.5,0
			c0.2,0,0.3,0.1,0.3,0.3c0,1.1,0.1,0.9-0.8,0.9c-0.8,0-1.6,0-2.4,0c-0.6,0-0.6,0-0.6-0.6C73.9,33.7,73.9,32.4,73.9,31.1z"/>
		<path class="st0" d="M102.7,13.3c0,0.9,0,1.6,0,2.5c0.4,0,0.9,0,1.3,0c0.3,0,0.4,0.1,0.4,0.4c0,1,0,0.8-0.8,0.8
			c-0.9,0-0.9,0-0.9,0.9c0,0.5,0,1.1,0,1.6c0,0.3,0.1,0.4,0.4,0.4c0.5,0,0.9,0,1.4,0c0.3,0,0.4,0.1,0.4,0.4c0,1,0.1,0.8-0.8,0.8
			c-0.9,0-1.7,0-2.6,0c-0.3,0-0.4-0.1-0.4-0.4c0-2.7,0-5.4,0-8.1c0-0.3,0.1-0.4,0.4-0.4c1,0,2,0,3,0c0.3,0,0.4,0.1,0.4,0.4
			c0,1,0.1,0.8-0.8,0.9C103.5,13.3,103.1,13.3,102.7,13.3z"/>
		<path class="st0" d="M31.6,26.6c0.5,0,1,0,1.4,0c0.1,0,0.2,0.2,0.2,0.3c0.3,0.9,0.5,1.7,0.8,2.6c0,0.1,0.1,0.2,0.2,0.5
			c0.2-0.6,0.4-1.2,0.5-1.7c0.1-0.5,0.3-0.9,0.4-1.4c0.1-0.2,0.2-0.3,0.4-0.3c0.4,0,0.8,0,1.2,0c-0.1,0.3-0.1,0.4-0.2,0.6
			c-0.5,1.4-1,2.9-1.4,4.3c-0.1,0.4-0.2,0.8-0.2,1.2c0,0.8,0,1.6,0,2.4c0,0.3-0.1,0.4-0.4,0.4c-0.3,0-0.5,0-0.8,0
			c-0.3,0-0.4-0.1-0.4-0.4c0-0.9,0-1.7,0-2.6c0-0.3,0-0.5-0.1-0.8c-0.5-1.6-1-3.1-1.5-4.7C31.7,26.9,31.7,26.8,31.6,26.6z"/>
		<path class="st0" d="M84.8,31.7c0-1.1,0-2.2,0-3.3c0-0.4-0.1-0.5-0.5-0.5c0,0-0.1,0-0.1,0c-1,0-0.9,0.2-0.9-1
			c0-0.1,0.2-0.3,0.3-0.3c1.3,0,2.7,0,4,0c0.2,0,0.3,0.1,0.3,0.3c0,1.2,0.1,1-0.9,1c-0.6,0-0.6,0-0.6,0.6c0,2.2,0,4.4,0,6.6
			c0,0.4-0.1,0.6-0.5,0.5c-0.2,0-0.5,0-0.7,0c-0.4,0-0.5-0.1-0.5-0.5C84.8,34,84.8,32.8,84.8,31.7z"/>
		<path class="st0" d="M33,17.2c0-1.2,0-2.3,0-3.5c0-0.3-0.1-0.5-0.4-0.4c-0.1,0-0.1,0-0.2,0c-1,0-0.8,0.2-0.9-0.9
			c0-0.3,0.1-0.4,0.4-0.4c1.3,0,2.6,0,3.9,0c0.2,0,0.3,0.1,0.4,0.3c0.1,0.9,0.1,0.9-0.9,0.9c-0.6,0-0.6,0-0.6,0.6c0,2.2,0,4.4,0,6.6
			c0,0.4-0.1,0.5-0.5,0.5C33,21,33,21,33,19.8C33,18.9,33,18,33,17.2z"/>
		<path class="st0" d="M99.2,13.3c0,0.2,0,0.4,0,0.6c0,2.2,0,4.5,0,6.7c0,0.4-0.1,0.5-0.5,0.5c-0.2,0-0.5,0-0.7,0
			c-0.4,0-0.5-0.1-0.5-0.5c0-2.2,0-4.5,0-6.7c0-0.5,0-0.5-0.5-0.5c0,0-0.1,0-0.1,0c-0.9,0-1,0-0.9-1c0-0.1,0.2-0.3,0.3-0.3
			c1.4,0,2.7,0,4.1,0c0.1,0,0.2,0.1,0.3,0.1c0,0.3,0,0.6,0,1c0,0.1-0.2,0.1-0.3,0.1C99.9,13.3,99.6,13.3,99.2,13.3z"/>
		<path class="st0" d="M72.9,31.1c0,1.3,0,2.7,0,4c0,0.4-0.1,0.5-0.5,0.5c-0.3,0-0.6,0-0.9,0c-0.1,0-0.2-0.2-0.3-0.3
			c0-0.1,0-0.2,0-0.2c0-2.6,0-5.3,0-7.9c0-0.4,0.1-0.5,0.5-0.5c1.2,0,1.2,0,1.2,1.2C72.9,28.9,72.9,30,72.9,31.1z"/>
		<path class="st0" d="M68.6,45.7c0,1.3,0,2.7,0,4c0,0.4-0.1,0.5-0.5,0.5c-1.2,0-1.2,0-1.2-1.2c0-2.4,0-4.8,0-7.3
			c0-0.4,0.1-0.5,0.5-0.5c1.2,0,1.2,0,1.2,1.1C68.6,43.4,68.6,44.6,68.6,45.7z"/>
		<path class="st0" d="M62.9,31.1c0,1.3,0,2.7,0,4c0,0.4-0.1,0.6-0.5,0.5c-0.3,0-0.5,0-0.8,0c-0.3,0-0.4-0.1-0.4-0.4
			c0-1.3,0-2.6,0-3.9c0-1.4,0-2.8,0-4.3c0-0.4,0.1-0.5,0.5-0.5c0.3,0,0.5,0,0.8,0c0.3,0,0.4,0.1,0.4,0.4
			C62.9,28.3,62.9,29.7,62.9,31.1z"/>
		<path class="st0" d="M58.1,38.2c-0.5,0.8-0.9,1.5-1.3,2.1c-0.1,0.2-0.6,0.1-1,0.2c0.2-0.6,0.3-1.1,0.4-1.5c0.3-1,0.1-0.8,1.1-0.8
			C57.6,38.2,57.8,38.2,58.1,38.2z"/>
	</g>
</g>
</svg>
