<?xml version="1.0" encoding="utf-8"?>
<!-- Generator: Adobe Illustrator 25.0.1, SVG Export Plug-In . SVG Version: 6.00 Build 0)  -->
<svg version="1.1" id="Layer_1" xmlns="http://www.w3.org/2000/svg" xmlns:xlink="http://www.w3.org/1999/xlink" x="0px" y="0px"
	 viewBox="0 0 125 125" style="enable-background:new 0 0 125 125;" xml:space="preserve">
<style type="text/css">
	.st0{fill:#D2D1D3;}
</style>
<g>
	<g>
		<path class="st0" d="M36.9,94.4c0-2.3,0-4.7,0-7c0-0.6,0.2-0.9,0.7-1.2c3.9-2.2,7.7-4.5,11.6-6.7c0.3-0.2,0.4-0.4,0.4-0.7
			c0-4.4,0-8.9,0-13.3c0-0.6,0.2-1,0.8-1.4c4-2.3,8-4.6,12-6.9c0.6-0.4,1.1-0.4,1.7,0c4,2.3,8,4.6,12,6.9c0.5,0.3,0.8,0.7,0.8,1.3
			c0,4.4,0,8.9,0,13.3c0,0.4,0.1,0.6,0.5,0.8c3.8,2.2,7.5,4.4,11.3,6.5c0.7,0.4,0.9,0.8,0.9,1.6c0,4.6,0,9.2,0,13.9
			c0,0.6-0.2,0.9-0.7,1.2c-4,2.3-8,4.6-12,7c-0.6,0.4-1.1,0.4-1.8,0c-3.8-2.2-7.6-4.4-11.5-6.6c-0.3-0.2-0.5-0.1-0.7,0
			c-3.9,2.3-7.8,4.5-11.7,6.8c-0.5,0.3-0.9,0.3-1.4,0c-4.1-2.4-8.2-4.7-12.3-7.1c-0.4-0.3-0.6-0.6-0.6-1.1
			C36.9,99.2,36.9,96.8,36.9,94.4z M86.9,87.1c-0.1-0.1-0.2-0.1-0.3-0.2c-3.5-2-6.9-4-10.4-6c-0.2-0.1-0.4-0.1-0.7,0
			c-3.4,2-6.9,4-10.3,6C65.1,87,65,87,64.9,87.1c0.1,0.1,0.2,0.1,0.2,0.2c3.5,2,6.9,4,10.4,6c0.2,0.1,0.4,0.1,0.6,0
			c3.4-2,6.8-4,10.3-5.9C86.7,87.3,86.8,87.2,86.9,87.1z M76.9,107.6c0.2-0.1,0.3-0.2,0.5-0.2c3.4-1.9,6.8-3.9,10.1-5.8
			c0.3-0.2,0.4-0.3,0.4-0.6c0-3.9,0-7.9,0-11.8c0-0.1,0-0.3,0-0.4c-0.1,0.1-0.2,0.1-0.3,0.2c-3.4,2-6.8,4-10.3,5.9
			C77,95,76.9,95.2,77,95.5c0,3.9,0,7.9,0,11.8C76.8,107.3,76.9,107.4,76.9,107.6z M38.7,88.6c0,0.2,0,0.4,0,0.5c0,3.9,0,7.8,0,11.7
			c0,0.3,0.1,0.5,0.4,0.7c3.4,2,6.8,3.9,10.2,5.9c0.1,0.1,0.2,0.1,0.4,0.2c0-0.2,0-0.4,0-0.5c0-3.9,0-7.8,0-11.7
			c0-0.3-0.1-0.5-0.4-0.7c-2.6-1.5-5.1-2.9-7.7-4.4C40.6,89.7,39.7,89.2,38.7,88.6z M51.4,66.6c0,3.9,0,7.8,0,11.7
			c3.4-2,6.7-3.9,10.1-5.8C58.1,70.4,54.8,68.5,51.4,66.6z M51.4,107.6c3.4-2,6.7-3.9,10.1-5.8c-3.4-2-6.7-3.9-10.1-5.8
			C51.4,99.9,51.4,103.7,51.4,107.6z M62.3,88.6c-3.4,2-6.7,3.9-10.1,5.8c3.4,2,6.7,3.9,10.1,5.8C62.3,96.4,62.3,92.5,62.3,88.6z
			 M52.2,79.7c3.4,2,6.7,3.9,10.1,5.8c0-3.9,0-7.8,0-11.7C58.9,75.9,55.6,77.8,52.2,79.7z M74.2,79.7c-3.4-2-6.7-3.9-10.1-5.8
			c0,3.9,0,7.8,0,11.7C67.5,83.6,70.8,81.7,74.2,79.7z M75.1,66.6c-3.4,2-6.7,3.9-10.1,5.8c3.4,2,6.7,3.9,10.1,5.8
			C75.1,74.3,75.1,70.5,75.1,66.6z"/>
		<path class="st0" d="M18.9,25.5c-0.6,0.6-1.3,1-2.1,1.1c-2.5,0.3-4.3-0.5-5.2-2.9c-0.6-1.5-0.8-3.2-0.6-4.8
			c0.1-1.1,0.2-2.2,0.6-3.2c0.7-2.4,2.5-3.7,5-3.9c0.8,0,1.7,0,2.5,0.2c1.8,0.3,3.1,1.5,3.8,3.2c0.5,1.1,0.7,2.3,0.7,3.6
			c0,3.2,0,6.5,0,9.7c0,1.4-0.2,2.8-0.8,4.1c-0.7,1.8-2.1,2.9-4,3.1c-1.2,0.2-2.4,0.2-3.6-0.1c-1.8-0.4-3-1.4-3.5-3.2
			c-0.2-0.8-0.3-1.7-0.4-2.6c0-0.2,0.1-0.4,0.3-0.4c1.2,0,2.4,0,3.6,0c0.2,0,0.3,0.1,0.3,0.3c0.1,0.6,0.1,1.1,0.2,1.6
			c0.1,0.6,0.5,0.9,1.2,0.9c0.6,0,1.2-0.1,1.5-0.7c0.2-0.5,0.3-1,0.4-1.5C18.9,28.5,18.9,27,18.9,25.5L18.9,25.5z M18.9,19.9
			c0-0.6,0.1-1.2,0-1.8c-0.1-0.7-0.2-1.5-0.4-2.2c-0.2-0.6-0.7-0.8-1.3-0.8c-0.6,0-1,0.3-1.3,0.8c-0.1,0.2-0.2,0.5-0.2,0.7
			c-0.3,1.6-0.2,3.3-0.1,4.9c0.1,0.7,0.4,1.3,1.1,1.5s1.4,0,1.9-0.6c0.2-0.2,0.3-0.5,0.3-0.8C18.9,21.1,18.9,20.5,18.9,19.9z"/>
		<path class="st0" d="M51.3,50c-0.5,0-1,0-1.5,0c-0.1,0-0.2-0.2-0.3-0.4c-0.3-1.1-0.6-2.2-0.9-3.3c0-0.1-0.2-0.3-0.3-0.4
			c-0.3-0.1-0.5,0-0.5,0.4c0,1.1,0,2.1,0,3.2c0,0.4-0.1,0.5-0.5,0.5c-0.3,0-0.5,0-0.8,0c-0.4,0-0.5-0.1-0.5-0.5c0-2.7,0-5.3,0-8
			c0-0.4,0.1-0.5,0.5-0.5c0.9,0,1.8,0,2.7,0.1c1.1,0.1,1.6,0.7,1.7,1.8c0.1,0.5,0,1.1-0.1,1.6c-0.1,0.3-0.3,0.6-0.6,0.8
			S49.9,45.7,50,46c0.3,1.2,0.7,2.3,1,3.5C51.2,49.7,51.2,49.8,51.3,50z M47.9,43.5c0,0.3,0,0.7,0,1c0,0.1,0.1,0.2,0.1,0.3
			c0.3,0.2,1,0,1.2-0.3c0.3-0.3,0.4-1.4,0.1-1.8c-0.3-0.5-0.7-0.5-1.2-0.5c-0.2,0-0.3,0.1-0.3,0.3C47.9,42.8,47.9,43.2,47.9,43.5z"
			/>
		<path class="st0" d="M104.8,50c-0.5,0-1,0-1.5,0c-0.1,0-0.2-0.2-0.2-0.4c-0.3-1.1-0.6-2.2-0.9-3.3c0-0.1-0.2-0.3-0.3-0.3
			c-0.3-0.1-0.4,0-0.4,0.4c0,1.1,0,2.1,0,3.2c0,0.4-0.1,0.5-0.5,0.5c-0.2,0-0.4,0-0.6,0c-0.6,0-0.6,0-0.6-0.6c0-1.2,0-2.4,0-3.6
			c0-1.4,0-2.9,0-4.3c0-0.4,0.1-0.5,0.5-0.5c0.9,0,1.8,0,2.7,0.1c1,0.1,1.6,0.7,1.7,1.8c0.1,0.6,0,1.2-0.2,1.7
			c-0.1,0.3-0.3,0.6-0.5,0.7c-0.3,0.2-0.3,0.4-0.2,0.7c0.3,1.2,0.7,2.3,1,3.5C104.7,49.7,104.7,49.8,104.8,50z M101.4,43.5
			L101.4,43.5c0,0.3,0,0.7,0,1c0,0.1,0.1,0.2,0.2,0.3c0.4,0.2,1.1-0.1,1.3-0.4c0.3-0.6,0.3-1.2,0-1.8c-0.2-0.3-0.8-0.5-1.3-0.4
			c-0.4,0.1-0.1,0.5-0.2,0.7C101.4,43.1,101.4,43.3,101.4,43.5z"/>
		<path class="st0" d="M76.8,50c-0.5,0-1,0-1.5,0c-0.1,0-0.2-0.2-0.3-0.3c-0.3-1.1-0.6-2.2-0.9-3.3c0-0.1-0.2-0.3-0.3-0.3
			c-0.3-0.1-0.5,0-0.5,0.4c0,1.1,0,2.1,0,3.2c0,0.4-0.1,0.5-0.5,0.5c-0.3,0-0.6,0-0.9,0c-0.2,0-0.3-0.1-0.3-0.3c0-0.4,0-0.8,0-1.1
			c0-2.3,0-4.6,0-6.9c0-0.4,0.1-0.6,0.5-0.5c0.7,0,1.5,0,2.2,0c1.5,0.1,2.3,1,2.2,2.5c0,0.8-0.2,1.5-0.9,2c-0.1,0.1-0.1,0.3-0.1,0.5
			c0.3,1.1,0.6,2.3,0.9,3.4C76.7,49.6,76.7,49.7,76.8,50z M73.4,43.5L73.4,43.5c0,0.3,0,0.7,0,1c0,0.1,0.1,0.3,0.2,0.3
			c0.7,0.2,1.4-0.2,1.4-1c0-0.2,0-0.3,0-0.5c0-0.8-0.4-1.1-1.1-1.1c-0.4,0-0.6,0.1-0.5,0.5C73.4,43,73.4,43.2,73.4,43.5z"/>
		<path class="st0" d="M41.9,16.3c0-1.3,0-2.7,0-4c0-0.4,0.1-0.5,0.5-0.5c0.8,0,1.6,0,2.4,0.1c1.3,0.1,2,0.8,2.1,2.1
			c0.1,1.5,0.1,3,0,4.5s-0.9,2.2-2.3,2.3c-0.7,0-1.4,0-2.2,0c-0.3,0-0.4-0.1-0.4-0.4C41.9,19.1,41.9,17.7,41.9,16.3z M43.6,16.4
			c0,1,0,1.9,0,2.9c0,0.3,0.1,0.4,0.4,0.4c0.8,0,1.2-0.3,1.2-1.1c0-1.5,0-2.9,0-4.4c0-0.9-0.3-1.1-1.2-1.1c-0.3,0-0.4,0.1-0.4,0.4
			C43.6,14.4,43.6,15.4,43.6,16.4z"/>
		<path class="st0" d="M82.1,31.2c0-1.4,0-2.9,0-4.3c0-0.4,0.1-0.5,0.5-0.5c1.1,0,0.9-0.1,0.9,0.9c0,2.5,0,5,0,7.5
			c0,0.2,0.1,0.5-0.3,0.5c-0.5,0.1-0.8,0-1-0.3c-0.6-1.4-1.2-2.8-1.8-4.2c0-0.1-0.1-0.2-0.3-0.3c0,0.1,0,0.3,0,0.4c0,1.3,0,2.7,0,4
			c0,0.4-0.1,0.5-0.5,0.5c-1.1,0-0.9,0.1-0.9-0.9c0-2.5,0-5,0-7.5c0-0.6,0-0.5,0.6-0.6c0.4,0,0.7,0.1,0.8,0.5c0.5,1.3,1.1,2.6,1.7,4
			C81.9,31,82,31.1,82.1,31.2L82.1,31.2z"/>
		<path class="st0" d="M77.8,30.9c0,0.8,0.1,1.6,0,2.4c-0.1,1.3-0.8,2-2,2.1c-1.9,0.2-2.9-0.6-3-2.2c-0.1-1.6-0.1-3.2,0-4.9
			c0.1-1.2,0.8-1.9,2-2c0.5-0.1,1.1,0,1.6,0.1c1,0.3,1.3,1.1,1.4,2C77.9,29.3,77.8,30.1,77.8,30.9L77.8,30.9z M74.4,30.9L74.4,30.9
			c0,0.1,0,0.2,0,0.2c0,0.7,0,1.5,0,2.2c0,0.6,0.3,0.8,0.8,0.9c0.5,0,0.8-0.2,0.9-0.8c0-0.2,0-0.3,0-0.5c0-1.4,0-2.8,0-4.1
			c0-0.2,0-0.5-0.1-0.7s-0.3-0.4-0.5-0.5c-0.6-0.2-1.1,0.1-1.1,0.9C74.4,29.3,74.4,30.1,74.4,30.9z"/>
		<path class="st0" d="M68.5,20.8c-0.5,0-1,0-1.5,0c-0.1,0-0.2-0.2-0.3-0.4c-0.3-1.1-0.6-2.2-0.9-3.3c-0.1-0.2-0.1-0.4-0.4-0.4
			S65,16.8,65,17.1c0,1.1,0,2.1,0,3.2c0,0.3-0.1,0.5-0.4,0.5c-1.2,0-1.2,0-1.2-1.2c0-2.4,0-4.9,0-7.3c0-0.4,0.1-0.5,0.5-0.5
			c0.8,0,1.6,0,2.4,0.1c1.4,0.1,2,0.9,2,2.2c0,0.4,0,0.8-0.1,1.1s-0.3,0.7-0.5,0.8c-0.4,0.3-0.4,0.6-0.2,1c0.3,1.1,0.6,2.1,0.9,3.2
			C68.4,20.5,68.4,20.6,68.5,20.8z M65.1,14.4c0,0.4,0,0.7,0,1.1c0,0.1,0.1,0.2,0.2,0.3c0.4,0.1,1.1-0.1,1.3-0.4
			c0.4-0.6,0.3-1.2,0.1-1.8c-0.2-0.5-0.8-0.4-1.2-0.5c-0.2,0-0.3,0.1-0.3,0.3C65.1,13.7,65.1,14,65.1,14.4z"/>
		<path class="st0" d="M47.6,30.9c0-0.7,0-1.4,0-2.2c0.1-1.5,0.9-2.3,2.5-2.4c1.7,0,2.6,0.8,2.7,2.5c0,1.4,0,2.8,0,4.1
			c0,0.4-0.1,0.8-0.3,1.2c-0.2,0.6-0.6,0.9-1.2,1.1c-0.8,0.3-1.6,0.3-2.3,0c-1-0.4-1.3-1.2-1.3-2.2C47.5,32.4,47.6,31.6,47.6,30.9
			L47.6,30.9z M51,30.9L51,30.9c0-0.8,0-1.6,0-2.4v-0.1c-0.1-0.5-0.3-0.8-0.8-0.8s-0.8,0.2-0.9,0.7c0,0.2-0.1,0.5-0.1,0.7
			c0,1.3,0,2.6,0,3.9c0,0.3,0,0.5,0.1,0.8s0.2,0.5,0.5,0.6c0.6,0.2,1.1-0.1,1.1-0.8C51,32.6,51,31.8,51,30.9z"/>
		<path class="st0" d="M39.5,31.2c0-0.2,0-0.4,0-0.6c0-1.2,0-2.4,0-3.6c0-0.3,0.1-0.5,0.4-0.5c1.2,0,1-0.1,1,0.9c0,2.5,0,5,0,7.5
			c0,0.2,0.1,0.5-0.2,0.5c-0.5,0.1-0.9,0-1-0.3c-0.6-1.5-1.2-2.9-1.8-4.4c-0.1-0.1-0.1-0.2-0.2-0.5c0,0.2,0,0.4,0,0.5
			c0,1.4,0,2.8,0,4.2c0,0.3-0.1,0.5-0.4,0.4c-1.2,0-1,0.1-1-1c0-2.5,0-5,0-7.5c0-0.2-0.1-0.5,0.2-0.6c0.6-0.1,0.9,0,1.1,0.3
			c0.6,1.4,1.2,2.8,1.8,4.2C39.3,31,39.3,31.1,39.5,31.2C39.4,31.2,39.4,31.2,39.5,31.2z"/>
		<path class="st0" d="M45.2,31.2c0-1.3,0-2.6,0-3.9c0-0.9-0.1-0.8,0.8-0.8c0.6,0,0.6,0,0.6,0.6c0,2.6,0,5.3,0,7.9
			c0,0.2,0.1,0.5-0.2,0.5c-0.6,0.1-0.8,0-1-0.3c-0.6-1.5-1.2-3-1.9-4.5c0-0.1-0.1-0.1-0.1-0.3c0,0.2,0,0.3,0,0.4c0,1.4,0,2.8,0,4.2
			c0,0.4-0.1,0.5-0.5,0.5c-1.1,0-0.9,0.1-0.9-0.9c0-2.5,0-5,0-7.5c0-0.2-0.1-0.5,0.2-0.6c0.5-0.1,0.9,0,1,0.3
			c0.6,1.4,1.2,2.8,1.8,4.3C45.1,31.1,45.1,31.1,45.2,31.2L45.2,31.2z"/>
		<path class="st0" d="M39.5,16.5c0-1.3,0-2.6,0-3.9c0-0.7,0-0.7,0.7-0.7s0.7,0,0.7,0.7c0,2.6,0,5.1,0,7.7c0,0.2,0.2,0.5-0.2,0.6
			c-0.6,0.1-0.8,0-1-0.4c-0.6-1.4-1.2-2.9-1.8-4.3c0-0.1-0.1-0.2-0.2-0.3c0,0.1,0,0.3,0,0.4c0,1.4,0,2.8,0,4.2
			c0,0.3-0.1,0.4-0.4,0.4c-1.2,0-1,0.2-1-1c0-2.5,0-5,0-7.4c0-0.2-0.1-0.5,0.2-0.5c0.5-0.1,0.9,0,1.1,0.3c0.6,1.3,1.2,2.7,1.7,4
			c0.1,0.1,0.1,0.3,0.2,0.4C39.4,16.6,39.4,16.5,39.5,16.5z"/>
		<path class="st0" d="M39.5,45.7c0-0.1,0-0.3,0-0.4c0-1.3,0-2.5,0-3.8c0-0.3,0.1-0.5,0.4-0.4c1.1,0,0.9-0.1,0.9,0.9
			c0,2.5,0,5,0,7.5c0,0.2,0.1,0.5-0.2,0.5c-0.5,0.1-0.9,0-1-0.3c-0.6-1.4-1.2-2.9-1.8-4.3c-0.1-0.1-0.1-0.3-0.2-0.4
			c0,0.1,0,0.3,0,0.4c0,1.4,0,2.8,0,4.2c0,0.3-0.1,0.4-0.4,0.4c-1.3,0-1,0.1-1-1c0-2.5,0-4.9,0-7.4c0-0.5,0-0.5,0.5-0.6
			c0.5,0,0.7,0.1,0.9,0.6c0.5,1.3,1.1,2.5,1.6,3.8C39.3,45.5,39.3,45.6,39.5,45.7C39.4,45.7,39.4,45.7,39.5,45.7z"/>
		<path class="st0" d="M49.4,15.4c0,1,0,1.9,0,2.9c0,0.3,0,0.5,0.1,0.8c0.1,0.4,0.4,0.6,0.8,0.6c0.4,0,0.7-0.2,0.8-0.6
			c0.1-0.3,0.1-0.6,0.1-0.9c0-1.9,0-3.8,0-5.8c0-0.5,0-0.5,0.5-0.6c1.1,0,1.1,0,1.1,1.1c0,1.7,0,3.5,0,5.2c0,0.3,0,0.6-0.1,0.9
			c-0.3,1.4-1.2,2-2.7,1.9s-2.2-0.8-2.2-2.4c-0.1-2.1,0-4.2,0-6.3c0-0.2,0.1-0.3,0.3-0.3c0.3,0,0.5,0,0.8,0c0.4,0,0.5,0.1,0.5,0.5
			C49.3,13.4,49.4,14.4,49.4,15.4z"/>
		<path class="st0" d="M97.1,44.6c0-1,0-2,0-3c0-0.3,0.1-0.5,0.5-0.5c1.2,0,1.2,0,1.2,1.2c0,1.7,0,3.3,0,5c0,0.4-0.1,0.9-0.2,1.3
			c-0.2,0.9-0.8,1.4-1.7,1.5c-0.4,0-0.7,0.1-1.1,0c-1.2-0.1-1.9-0.7-2-1.9c-0.1-0.4-0.1-0.9-0.1-1.3c0-1.8,0-3.5,0-5.3
			c0-0.4,0.1-0.5,0.5-0.5c0.2,0,0.5,0,0.7,0c0.4,0,0.5,0.1,0.5,0.5c0,2,0,4,0,6c0,0.3,0,0.5,0.1,0.8c0.1,0.4,0.4,0.5,0.8,0.5
			s0.7-0.2,0.8-0.5c0.1-0.3,0.1-0.6,0.1-0.9C97.1,46.4,97.1,45.5,97.1,44.6z"/>
		<path class="st0" d="M77.6,44.6c0-1,0-2,0-3c0-0.4,0.1-0.6,0.5-0.5c0.2,0,0.4,0,0.6,0c0.3,0,0.4,0.1,0.4,0.4c0,1.7,0,3.3,0,5
			c0,0.5,0,1,0.1,1.5c0.1,0.6,0.4,0.9,0.9,0.8c0.4,0,0.6-0.2,0.7-0.6c0.1-0.3,0.1-0.6,0.1-1c0-1.9,0-3.8,0-5.7
			c0-0.4,0.1-0.5,0.5-0.5c0.2,0,0.4,0,0.6,0c0.4,0,0.5,0.1,0.5,0.5c0,1.9,0,3.8,0,5.6c0,0.6-0.1,1.1-0.3,1.7
			c-0.2,0.5-0.6,0.9-1.1,1.1c-0.7,0.2-1.4,0.2-2.2,0c-0.8-0.3-1.2-0.9-1.3-1.7c-0.1-0.9-0.1-1.8-0.1-2.7
			C77.6,45.3,77.6,44.9,77.6,44.6z"/>
		<path class="st0" d="M65.9,30.9c0,0.7,0,1.3,0,2c0,0.3,0,0.5,0.1,0.8c0.1,0.4,0.4,0.6,0.8,0.6s0.7-0.2,0.7-0.6
			c0.1-0.4,0.1-0.8,0.1-1.3c0-0.3,0.1-0.4,0.4-0.4c0.1,0,0.3,0,0.4,0c0.9,0,0.8-0.2,0.8,0.8c0,0.3,0,0.6-0.1,0.8
			c-0.2,1.1-0.7,1.6-1.8,1.8c-0.5,0.1-1,0-1.4-0.1c-0.9-0.2-1.6-0.9-1.6-2c-0.1-1.6-0.1-3.2,0-4.8c0.1-1.3,0.8-2,2.1-2.1
			c0.4,0,0.9,0,1.3,0.1c0.9,0.2,1.3,0.8,1.4,1.6c0.1,0.4,0.1,0.8,0.1,1.3c0,0.3-0.1,0.4-0.4,0.4s-0.6,0-0.9,0
			c-0.2,0-0.3-0.1-0.3-0.3c0-0.4,0-0.7,0-1.1c0-0.5-0.3-0.7-0.7-0.8c-0.5,0-0.8,0.2-0.9,0.7C65.9,29.2,65.9,30,65.9,30.9L65.9,30.9z
			"/>
		<path class="st0" d="M85.2,45.5c0,0.7,0,1.4,0,2.1c0,0.2,0,0.4,0.1,0.6c0.1,0.5,0.4,0.7,0.8,0.7c0.5,0,0.7-0.3,0.8-0.8
			c0-0.4,0-0.8,0-1.1c0-0.2,0.1-0.3,0.3-0.3c0.3,0,0.7,0,1,0c0.1,0,0.3,0.2,0.3,0.3c0,0.6-0.1,1.3-0.2,1.9c-0.1,0.6-0.6,1-1.2,1.2
			c-0.7,0.2-1.4,0.2-2.1,0c-0.9-0.3-1.3-1.1-1.4-2c-0.1-0.4-0.1-0.9-0.1-1.3c0-1.2,0-2.3,0.1-3.5c0.1-1.5,0.9-2.2,2.4-2.2
			c1.7,0,2.4,0.7,2.5,2.4c0.1,1.2,0.1,0.9-0.9,1c-0.8,0-0.7,0.1-0.7-0.7c0-0.3,0-0.5,0-0.8c-0.1-0.5-0.3-0.6-0.7-0.6
			c-0.5,0-0.8,0.1-0.9,0.6c0,0.2-0.1,0.4-0.1,0.6C85.2,44.1,85.2,44.8,85.2,45.5z"/>
		<path class="st0" d="M58.4,35.4c0.2-0.8,0.3-1.5,0.4-2.1c0.4-2.1,0.9-4.3,1.3-6.4c0.1-0.3,0.2-0.5,0.5-0.4c0.3,0,0.6,0,0.9,0
			c0.3,0,0.4,0.1,0.5,0.4c0.5,2.5,1,5,1.5,7.5c0,0.2,0.1,0.5,0.1,0.7c0.1,0.2,0,0.4-0.3,0.4h-0.1c-1.1,0-1.1,0-1.3-1
			c-0.2-1.1-0.2-1-1.3-1.1c-0.3,0-0.5,0.1-0.5,0.4c0,0.4-0.2,0.9-0.2,1.3c0,0.3-0.1,0.4-0.4,0.4C59.2,35.4,58.8,35.4,58.4,35.4z
			 M61.1,29C61.1,29,61,29,61.1,29c-0.2,1-0.4,1.9-0.6,2.9c0,0.1,0.1,0.3,0.2,0.3c0.3,0,0.6,0,0.9,0C61.4,31.1,61.3,30.1,61.1,29z"
			/>
		<path class="st0" d="M77,20.8c-0.5,0-0.9,0-1.3,0c-0.1,0-0.3-0.2-0.3-0.3c-0.1-0.5-0.2-0.9-0.3-1.4c0-0.2-0.1-0.3-0.4-0.3
			c-1.2,0-1.2-0.1-1.4,1.1c-0.2,1-0.2,1-1.2,1c-0.1,0-0.3,0-0.5,0c0.1-0.3,0.1-0.6,0.1-0.9c0.5-2.5,1-5,1.5-7.5
			c0.1-0.6,0.1-0.6,0.7-0.6c1.1,0,1.1,0,1.4,1.1c0.5,2.5,1,4.9,1.5,7.4C76.9,20.5,77,20.6,77,20.8z M73.8,17.7c0.3,0,0.5,0,0.7,0
			c0.3,0,0.5-0.1,0.4-0.5c-0.1-0.2-0.1-0.5-0.1-0.7c-0.1-0.7-0.2-1.4-0.3-2h-0.1C74.1,15.5,74,16.5,73.8,17.7z"/>
		<path class="st0" d="M110.5,50c-0.5,0-0.9,0-1.3,0c-0.1,0-0.2-0.2-0.3-0.3c-0.1-0.5-0.2-1-0.3-1.4c0-0.2-0.1-0.3-0.3-0.3l0,0
			c-1.1,0-1.1,0-1.4,1.1c-0.2,1-0.2,1-1.3,1c-0.1,0-0.3,0-0.5,0c0.1-0.6,0.2-1.2,0.3-1.7c0.5-2.2,0.9-4.5,1.4-6.7
			c0.1-0.4,0.2-0.5,0.6-0.5c1.2,0,1.2,0,1.5,1.2c0.5,2.4,1,4.9,1.5,7.3C110.5,49.6,110.5,49.8,110.5,50z M108.4,46.8
			c-0.2-1.1-0.3-2.1-0.5-3.1h-0.1c-0.2,1-0.3,2.1-0.5,3.1C107.7,46.8,108,46.8,108.4,46.8z"/>
		<path class="st0" d="M57,50c-0.5,0-0.9,0-1.3,0c-0.1,0-0.2-0.2-0.2-0.3c-0.1-0.5-0.2-1-0.3-1.4c0-0.2-0.1-0.3-0.4-0.3
			c-1.2,0-1.2,0-1.4,1.1c-0.2,1-0.2,1-1.3,1c-0.1,0-0.3,0-0.5,0c0.1-0.3,0.1-0.6,0.2-0.9c0.5-2.5,1-5,1.5-7.6
			c0.1-0.4,0.2-0.5,0.6-0.5c0.4,0,0.9-0.1,1.1,0.1c0.2,0.2,0.2,0.7,0.3,1.1c0.5,2.4,1,4.9,1.5,7.3C56.9,49.6,57,49.8,57,50z
			 M54.4,43.6C54.4,43.6,54.3,43.6,54.4,43.6c-0.3,1-0.4,2.1-0.6,3.2c0.3,0,0.6,0,0.9,0c0.1,0,0.2-0.2,0.2-0.3
			C54.7,45.6,54.5,44.6,54.4,43.6z"/>
		<path class="st0" d="M55,17.9c0.1,0.3,0.1,0.6,0.2,0.9c0.1,0.2,0.2,0.5,0.4,0.6s0.5,0.2,0.7,0.1s0.4-0.4,0.4-0.6
			c0.1-0.5-0.1-1-0.5-1.4c-0.5-0.5-1.1-1-1.7-1.5c-0.9-0.8-1.1-1.7-0.9-2.9c0.1-0.5,0.5-1,1-1.2c0.7-0.3,1.5-0.4,2.2-0.1
			c0.8,0.3,1.4,1.2,1.3,2.1c0,0.1-0.1,0.2-0.2,0.2c-0.1,0.1-0.2,0.1-0.3,0.1c-0.3,0-0.6,0.2-0.8,0.1c-0.2-0.1-0.2-0.5-0.2-0.7
			c-0.1-0.5-0.4-0.7-0.9-0.7c-0.5,0.1-0.6,0.3-0.6,0.9c0,0.5,0.3,0.8,0.6,1.1c0.6,0.6,1.3,1.1,1.8,1.7c0.7,0.7,0.9,1.6,0.6,2.6
			c-0.1,0.4-0.3,0.7-0.6,1c-0.8,0.9-3.3,1-3.9-0.9c-0.4-1.1-0.3-1.3,0.9-1.5C54.7,18,54.8,17.9,55,17.9z"/>
		<path class="st0" d="M65.1,43.6C65,43.3,65,43,64.9,42.8c-0.1-0.5-0.4-0.7-0.9-0.6c-0.4,0.1-0.6,0.4-0.6,0.8
			c0,0.4,0.2,0.8,0.5,1.1c0.5,0.4,0.9,0.8,1.4,1.2c0.8,0.7,1.3,1.5,1.3,2.6S66,49.8,65,50c-1.2,0.3-2.3-0.2-2.8-1.2
			C62,48.4,62,48,61.9,47.6v-0.1c0-0.3,0.6-0.5,1.2-0.5c0.3,0,0.2,0.2,0.3,0.4c0.1,0.3,0.1,0.6,0.3,0.9c0.2,0.4,0.6,0.5,0.9,0.4
			c0.4-0.1,0.5-0.5,0.5-0.8c0-0.5-0.2-1-0.6-1.4c-0.5-0.5-1.1-0.9-1.6-1.4c-0.8-0.7-1.1-1.7-0.8-2.7c0.1-0.7,0.6-1.1,1.2-1.4
			c0.6-0.2,1.2-0.2,1.8-0.1c0.9,0.2,1.6,1.2,1.5,2.2c0,0.1-0.1,0.2-0.2,0.2C65.9,43.5,65.5,43.6,65.1,43.6z"/>
		<path class="st0" d="M55.9,32.3c0.2-1.1,0.4-2.2,0.6-3.3c0.1-0.7,0.3-1.4,0.4-2.2c0-0.3,0.2-0.4,0.4-0.4c0.4,0,0.7,0,1.1,0
			c-0.2,0.8-0.3,1.5-0.4,2.2c-0.4,2.1-0.9,4.2-1.3,6.3c-0.1,0.4-0.2,0.6-0.7,0.6c-1,0-1,0-1.2-1c-0.5-2.5-1-5-1.5-7.5
			c-0.1-0.4,0-0.5,0.4-0.5c1.2,0,1-0.2,1.2,1C55.2,29.1,55.5,30.7,55.9,32.3L55.9,32.3z"/>
		<path class="st0" d="M87,30.9c0-1.3,0-2.6,0-3.9c0-0.4,0.1-0.6,0.5-0.5c0.9,0,1.9,0,2.8,0c0.3,0,0.5,0.1,0.5,0.5
			c0,0.1,0,0.1,0,0.2c0,0.5,0,0.5-0.5,0.5c-0.4,0-0.8,0-1.2,0c-0.2,0-0.4,0.1-0.4,0.3c0,0.6,0,1.3,0,1.9c0,0.1,0.2,0.3,0.3,0.3
			c0.3,0,0.7,0,1.1,0c0.1,0,0.3,0.2,0.3,0.3c0,1.1,0.1,0.9-0.8,0.9s-0.8-0.1-0.8,0.8c0,0.6,0,1.1,0,1.7c0,0.3,0.1,0.4,0.4,0.4
			c0.5,0,0.9,0,1.4,0c0.3,0,0.4,0.1,0.4,0.4c0,0.8,0,0.8-0.8,0.8s-1.6,0-2.4,0c-0.5,0-0.6,0-0.6-0.5C87,33.6,87,32.3,87,30.9z"/>
		<path class="st0" d="M57.6,45.5c0-1.3,0-2.7,0-4c0-0.4,0.1-0.5,0.5-0.5c1,0,1.9,0,2.9,0c0.3,0,0.5,0.1,0.4,0.4l0,0
			c0,0.8,0,0.7-0.7,0.7c-0.4,0-0.8,0-1.1,0c-0.1,0-0.3,0.2-0.3,0.3c0,0.6,0,1.3,0,1.9c0,0.1,0.2,0.3,0.3,0.3c0.3,0,0.6,0,0.9,0
			c0.3,0,0.4,0.1,0.4,0.4c0,0.8,0,0.8-0.8,0.8c-1,0-0.8-0.1-0.9,0.9c0,0.5,0,1,0,1.5c0,0.4,0.1,0.5,0.5,0.5s0.8,0,1.3,0
			c0.2,0,0.3,0.1,0.3,0.3c0,1,0.1,0.8-0.8,0.9c-0.8,0-1.7,0-2.5,0c-0.4,0-0.5-0.1-0.5-0.5C57.7,48.2,57.6,46.9,57.6,45.5z"/>
		<path class="st0" d="M41.9,45.5c0-1.3,0-2.7,0-4c0-0.4,0.1-0.5,0.5-0.5c0.9,0,1.8,0,2.7,0c0.3,0,0.5,0.1,0.4,0.4
			c0,0.8,0.1,0.7-0.7,0.7c-0.3,0-0.7,0-1,0c-0.2,0-0.3,0.1-0.3,0.3c0,0.6,0,1.3,0,1.9c0,0.2,0.1,0.3,0.3,0.3c0.3,0,0.6,0,0.9,0
			c0.3,0,0.4,0.1,0.4,0.4c0,1,0.1,0.8-0.8,0.8c-0.8,0-0.8,0-0.8,0.8c0,0.9,0,1.9,0,2.8c0,0.3-0.1,0.4-0.4,0.4c-1.3,0-1.3,0-1.3-1.2
			C41.9,47.7,41.9,46.6,41.9,45.5z"/>
		<path class="st0" d="M68.2,46.1c0-1.1,0-2.2,0-3.3c0-0.5,0-0.5-0.5-0.5h-0.1c-1,0-0.9,0.2-0.8-0.9c0-0.1,0.2-0.3,0.3-0.3
			c1.4,0,2.7,0,4.1,0c0.1,0,0.2,0.1,0.3,0.2c0,0.3,0,0.6,0,0.8c0,0.1-0.1,0.1-0.2,0.2c-0.1,0-0.2,0-0.2,0c-1,0-1,0-1,1
			c0,2.1,0,4.1,0,6.2c0,0.4-0.1,0.5-0.5,0.5c-1.2,0-1.2,0-1.2-1.2C68.2,47.9,68.2,47,68.2,46.1z"/>
		<path class="st0" d="M59.9,17c0-1.1,0-2.3,0-3.4c0-0.4-0.1-0.5-0.5-0.5c-0.1,0-0.2,0-0.2,0c-0.2,0-0.7,0-0.7-0.1
			c-0.1-0.3-0.1-0.6,0-1c0-0.1,0.2-0.2,0.3-0.2c1.3,0,2.7,0,4,0c0.1,0,0.3,0.2,0.3,0.3c0.1,0.9,0.1,0.9-0.8,1c-0.6,0-0.6,0-0.6,0.6
			c0,2.2,0,4.4,0,6.6c0,0.5,0,0.5-0.5,0.5c-1.2,0-1.2,0-1.2-1.1C59.9,18.8,59.9,17.9,59.9,17z"/>
		<path class="st0" d="M90.2,46.2c0-1.2,0-2.3,0-3.5c0-0.3-0.1-0.5-0.4-0.4c-0.1,0-0.3,0-0.4,0c-0.6,0-0.6,0-0.6-0.6s0-0.6,0.6-0.6
			c1.2,0,2.4,0,3.5,0c0.3,0,0.4,0.1,0.4,0.4c0,0.9,0.1,0.8-0.8,0.8c-0.1,0-0.2,0-0.2,0c-0.3,0-0.4,0.1-0.4,0.4c0,1.2,0,2.3,0,3.5
			c0,1.1,0,2.2,0,3.4c0,0.3-0.1,0.5-0.5,0.5c-1.2,0-1.2,0-1.2-1.2C90.2,47.9,90.2,47,90.2,46.2z"/>
		<path class="st0" d="M70.1,30.9c0-1.4,0-2.7,0-4.1c0-0.3,0.1-0.4,0.4-0.4c1.2,0,1.2,0,1.2,1.2c0,2.4,0,4.9,0,7.3
			c0,0.4-0.1,0.5-0.5,0.5c-1.1,0-1.1,0-1.1-1.1C70.1,33.2,70.1,32.1,70.1,30.9z"/>
		<path class="st0" d="M33.4,30.9c0-1.4,0-2.7,0-4.1c0-0.3,0.1-0.4,0.4-0.4c1.2,0,1.2,0,1.2,1.2c0,2.4,0,4.9,0,7.3
			c0,0.4-0.1,0.5-0.5,0.5c-1.1,0-1.1,0-1.1-1.1C33.4,33.2,33.4,32.1,33.4,30.9z"/>
		<path class="st0" d="M69.4,16.3c0-1.3,0-2.7,0-4c0-0.4,0.1-0.5,0.5-0.5c0.3,0,0.5,0,0.8,0s0.4,0.1,0.4,0.4c0,0.9,0,1.8,0,2.6
			c0,1.8,0,3.7,0,5.5c0,0.4-0.1,0.5-0.5,0.5c-1.2,0-1.2,0-1.2-1.2C69.4,18.6,69.4,17.5,69.4,16.3z"/>
		<path class="st0" d="M35.1,16.3c0,1.4,0,2.7,0,4.1c0,0.3-0.1,0.4-0.4,0.4c-1.2,0-1.2,0-1.2-1.2c0-2.4,0-4.9,0-7.3
			c0-0.4,0.1-0.5,0.5-0.5c1.1,0,1.1,0,1.1,1.2C35.1,14.1,35.1,15.2,35.1,16.3z"/>
		<path class="st0" d="M35.1,45.5c0,1.4,0,2.7,0,4.1c0,0.3-0.1,0.4-0.4,0.4c-1.2,0-1.2,0-1.2-1.2c0-2.4,0-4.8,0-7.3
			c0-0.4,0.1-0.5,0.5-0.5c1.1,0,1.1,0,1.1,1.1C35.1,43.3,35.1,44.4,35.1,45.5z"/>
		<path class="st0" d="M78.9,20.4c0,0.2,0,0.5,0,0.7c-0.1,0.6-0.4,1-0.9,1.2c-0.1,0-0.3,0-0.4-0.1s-0.2-0.3,0.1-0.5
			c0.1-0.1,0.3-0.2,0.3-0.3c0.1-0.1,0.1-0.3,0.1-0.4c0,0-0.2-0.1-0.4-0.1c-0.3,0-0.4-0.1-0.4-0.4c0-1.4-0.2-1.1,1.2-1.1
			c0.3,0,0.4,0.1,0.4,0.4C78.9,19.9,78.9,20.1,78.9,20.4L78.9,20.4z"/>
		<path class="st0" d="M77.1,23.5c-0.5,0.8-0.8,1.5-1.3,2.1c-0.1,0.2-0.5,0.1-0.8,0.2l-0.1-0.1c0.2-0.7,0.4-1.4,0.6-2
			c0-0.1,0.1-0.1,0.2-0.1C76.1,23.5,76.5,23.5,77.1,23.5z"/>
	</g>
</g>
</svg>
