<?xml version="1.0" encoding="utf-8"?>
<!-- Generator: Adobe Illustrator 26.3.1, SVG Export Plug-In . SVG Version: 6.00 Build 0)  -->
<svg version="1.1" id="Layer_1" xmlns="http://www.w3.org/2000/svg" xmlns:xlink="http://www.w3.org/1999/xlink" x="0px" y="0px"
	 viewBox="0 0 30 30" style="enable-background:new 0 0 30 30;" xml:space="preserve">
<style type="text/css">
	.st0{fill:none;stroke:#969696;stroke-miterlimit:10;}
</style>
<g>
	<path class="st0" d="M3.8,5C-0.1,5,4.1,17,0,17"/>
	<path class="st0" d="M3.8,29C-0.1,29,4.1,17,0,17"/>
</g>
<g>
	<path class="st0" d="M20,5c3.9,0-0.3,12,3.8,12"/>
	<path class="st0" d="M20,29c3.9,0-0.3-12,3.8-12"/>
</g>
<g>
	<g>
		<g>
			<path class="st0" d="M7.8,2C3.9,2,8.1,14,4,14"/>
			<path class="st0" d="M7.8,26C3.9,26,8.1,14,4,14"/>
		</g>
		<g>
			<path class="st0" d="M24,2c3.9,0-0.3,12,3.8,12"/>
			<path class="st0" d="M24,26c3.9,0-0.3-12,3.8-12"/>
		</g>
	</g>
	<line class="st0" x1="9.9" y1="8" x2="17.9" y2="8"/>
	<line class="st0" x1="9.9" y1="11" x2="17.9" y2="11"/>
	<line class="st0" x1="9.9" y1="14" x2="17.9" y2="14"/>
	<line class="st0" x1="9.9" y1="17" x2="17.9" y2="17"/>
	<line class="st0" x1="9.9" y1="20" x2="17.9" y2="20"/>
</g>
</svg>
