<?xml version="1.0" encoding="utf-8"?>
<!-- Generator: Adobe Illustrator 26.5.0, SVG Export Plug-In . SVG Version: 6.00 Build 0)  -->
<svg version="1.1" id="Layer_1" xmlns="http://www.w3.org/2000/svg" xmlns:xlink="http://www.w3.org/1999/xlink" x="0px" y="0px"
	 viewBox="0 0 120 120" style="enable-background:new 0 0 120 120;" xml:space="preserve">
<style type="text/css">
	.st0{fill:#0468B1;}
	.st1{fill:none;stroke:#969696;stroke-miterlimit:10;}
	.st2{fill:#969696;}
	.st3{fill:#FFFFFF;}
	.st4{fill:none;stroke:#FFFFFF;stroke-miterlimit:10;}
	.st5{fill:none;stroke:#FFFFFF;stroke-width:2;stroke-miterlimit:10;}
</style>
<circle class="st0" cx="60" cy="60" r="45"/>
<path class="st1" d="M166,47.2l-19.3,19.3c-1.6,1.6-1.8,4.1-0.2,5.7l0,0c1.6,1.6,3.9,1.6,5.7-0.2l3.9-3.9l-5.5,5.5
	c-1.6,1.6-1.8,4.1-0.2,5.7l0,0c1.6,1.6,3.9,1.6,5.7-0.2l5.5-5.5l-3.9,3.9c-1.6,1.6-1.8,4.1-0.2,5.7l0,0c1.6,1.6,3.9,1.6,5.7-0.2
	l5.5-5.5l-0.9,0.9c-1.6,1.6-1.8,4.1-0.2,5.7l0,0c1.6,1.6,3.9,1.6,5.7-0.2l26.2-26.2l-21.6-21.6c0,0-6,2.8-14.2,2.3
	c-8.3-0.5-16.8-4.4-16.8-4.4c-3,0.2-4.8,3.4-4.6,6c0.2,2.5,3,4.8,6.7,6.7c4.4,2.1,12.4,4.1,12.4,4.1"/>
<path class="st1" d="M179.4,50.9c0,0,8-2.1,12.4-4.1c3.7-1.8,6.4-4.1,6.7-6.7c0.2-2.5-1.6-5.7-4.6-6c0,0-8.5,3.9-16.8,4.4
	c-8.3,0.5-14.2-2.3-14.2-2.3l-21.6,21.6L167.5,84c1.8,1.8,4.1,1.8,5.7,0.2l0,0c1.6-1.6,1.4-4.1-0.2-5.7l-0.9-0.9l5.5,5.5
	c1.8,1.8,4.1,1.8,5.7,0.2l0,0c1.6-1.6,1.4-4.1-0.2-5.7l-3.9-3.9l5.5,5.5c1.8,1.8,4.1,1.8,5.7,0.2l0,0c1.6-1.6,1.4-4.1-0.2-5.7
	l-5.5-5.5l3.9,3.9c1.8,1.8,4.1,1.8,5.7,0.2l0,0c1.6-1.6,1.4-4.1-0.2-5.7l-19.3-19.3"/>
<path class="st1" d="M76,172.7c1.8,1.8,4.1,1.8,5.7,0.2l0,0c1.6-1.6,1.4-4.1-0.2-5.7l-0.9-0.9l5.5,5.5c1.8,1.8,4.1,1.8,5.7,0.2l0,0
	c1.6-1.6,1.4-4.1-0.2-5.7l-3.9-3.9l5.5,5.5c1.8,1.8,4.1,1.8,5.7,0.2l0,0c1.6-1.6,1.4-4.1-0.2-5.7l-5.5-5.5l3.9,3.9
	c1.8,1.8,4.1,1.8,5.7,0.2l0,0c1.6-1.6,1.4-4.1-0.2-5.7l-11.9-11.9c-1.6-1.6-4.1-1.8-5.7-0.2l0,0c-1.6,1.6-1.6,3.9,0.2,5.7l3.9,3.9
	l-5.5-5.5c-1.6-1.6-4.1-1.8-5.7-0.2l0,0c-1.6,1.6-1.6,3.9,0.2,5.7l5.5,5.5l-3.9-3.9c-1.6-1.6-4.1-1.8-5.7-0.2l0,0
	c-1.6,1.6-1.6,3.9,0.2,5.7l5.5,5.5l-0.9-0.9c-1.6-1.6-4.1-1.8-5.7-0.2l0,0c-1.6,1.6-1.6,3.9,0.2,5.7L76,172.7z"/>
<path class="st1" d="M51.4-61.2L32.1-41.9c-1.6,1.6-1.8,4.1-0.2,5.7l0,0c1.6,1.6,3.9,1.6,5.7-0.2l3.9-3.9L36-34.8
	c-1.6,1.6-1.8,4.1-0.2,5.7l0,0c1.6,1.6,3.9,1.6,5.7-0.2l5.5-5.5l-3.9,3.9c-1.6,1.6-1.8,4.1-0.2,5.7l0,0c1.6,1.6,3.9,1.6,5.7-0.2
	l5.5-5.5l-0.9,0.9c-1.6,1.6-1.8,4.1-0.2,5.7l0,0c1.6,1.6,3.9,1.6,5.7-0.2l26.2-26.2L63.3-72.2c0,0-6,2.8-14.2,2.3
	s-16.8-4.4-16.8-4.4c-3,0.2-4.8,3.4-4.6,6c0.2,2.5,3,4.8,6.7,6.7c4.4,2.1,12.4,4.1,12.4,4.1"/>
<path class="st1" d="M74.8-57.5c0,0,8-2.1,12.4-4.1c3.7-1.8,6.4-4.1,6.7-6.7c0.2-2.5-1.6-5.7-4.6-6c0,0-8.5,3.9-16.8,4.4
	s-14.2-2.3-14.2-2.3L36.7-50.6l26.2,26.2c1.8,1.8,4.1,1.8,5.7,0.2l0,0c1.6-1.6,1.4-4.1-0.2-5.7l-0.9-0.9l5.5,5.5
	c1.8,1.8,4.1,1.8,5.7,0.2l0,0c1.6-1.6,1.4-4.1-0.2-5.7l-3.9-3.9l5.5,5.5c1.8,1.8,4.1,1.8,5.7,0.2l0,0c1.6-1.6,1.4-4.1-0.2-5.7
	l-5.5-5.5l3.9,3.9c1.8,1.8,4.1,1.8,5.7,0.2l0,0c1.6-1.6,1.4-4.1-0.2-5.7L70.2-61.2"/>
<path class="st1" d="M-78.6,47.2l-19.3,19.3c-1.6,1.6-1.8,4.1-0.2,5.7l0,0c1.6,1.6,3.9,1.6,5.7-0.2l3.9-3.9l-5.5,5.5
	c-1.6,1.6-1.8,4.1-0.2,5.7l0,0c1.6,1.6,3.9,1.6,5.7-0.2l5.5-5.5l-3.9,3.9c-1.6,1.6-1.8,4.1-0.2,5.7l0,0c1.6,1.6,3.9,1.6,5.7-0.2
	l5.5-5.5l-0.9,0.9c-1.6,1.6-1.8,4.1-0.2,5.7l0,0c1.6,1.6,3.9,1.6,5.7-0.2l26.2-26.2l-21.6-21.6c0,0-6,2.8-14.2,2.3
	s-16.8-4.4-16.8-4.4c-3,0.2-4.8,3.4-4.6,6c0.2,2.5,3,4.8,6.7,6.7c4.4,2.1,12.4,4.1,12.4,4.1"/>
<path class="st1" d="M-72.7,59.5c0,0,8-2.1,12.4-4.1c3.7-1.8,6.4-4.1,6.7-6.7s-1.6-5.7-4.6-6c0,0-8.5,3.9-16.8,4.4
	s-14.2-2.3-14.2-2.3l-21.6,21.6l26.2,26.2c1.8,1.8,4.1,1.8,5.7,0.2l0,0c1.6-1.6,1.4-4.1-0.2-5.7l-0.9-0.9l5.5,5.5
	c1.8,1.8,4.1,1.8,5.7,0.2l0,0c1.6-1.6,1.4-4.1-0.2-5.7l-3.9-3.9l5.5,5.5c1.8,1.8,4.1,1.8,5.7,0.2l0,0c1.6-1.6,1.4-4.1-0.2-5.7
	l-5.5-5.5l3.9,3.9c1.8,1.8,4.1,1.8,5.7,0.2l0,0c1.6-1.6,1.4-4.1-0.2-5.7l-19.3-19.3"/>
<g>
	<path class="st1" d="M-22.3,163.9l-5.2,5l-4.4,4.2c-1.3,1.3-1.5,3.4-0.2,4.7l0,0c1.3,1.3,3.2,1.3,4.7-0.2l3.2-3.2l-4.5,4.5
		c-1.3,1.3-1.5,3.4-0.2,4.7l0,0c1.3,1.3,3.2,1.3,4.7-0.2l4.5-4.5l-3.2,3.2c-1.3,1.3-1.5,3.4-0.2,4.7l0,0c1.3,1.3,3.2,1.3,4.7-0.2
		l4.5-4.5l-0.7,0.7c-1.3,1.3-1.5,3.4-0.2,4.7l0,0c1.3,1.3,3.2,1.3,4.7-0.2l21.3-21.3l-17.6-17.6l-3.2,3.1"/>
	<path class="st1" d="M-9.6,151.6l-3.2-3.1l-17.6,17.6l2.9,2.9"/>
	<path class="st1" d="M-19.9,166.4c0,0,2.4,6.3,4.5,9.6c1.8,2.8,4,4.8,6,4.7c2.1-0.1,4.5-1.9,4.4-4.3c0,0-4-6.5-5.1-13.1
		s0.5-11.7,0.5-11.7"/>
</g>
<g>
	<path class="st1" d="M270.7,28.3l-3.2-3.1l-17.6,17.6L271.2,64c1.5,1.5,3.4,1.5,4.7,0.2l0,0c1.3-1.3,1.1-3.4-0.2-4.7l3.7,3.7
		c1.5,1.5,3.4,1.5,4.7,0.2l0,0c1.3-1.3,1.1-3.4-0.2-4.7l-3.2-3.2l4.5,4.5c1.5,1.5,3.4,1.5,4.7,0.2l0,0c1.3-1.3,1.1-3.4-0.2-4.7
		l-4.5-4.5l3.2,3.2c1.5,1.5,3.4,1.5,4.7,0.2l0,0c1.3-1.3,1.1-3.4-0.2-4.7l-4.4-4.2"/>
	<path class="st1" d="M288.5,45.6l5.5-5.5l-17.6-17.6l-5.8,5.7c0,0,1.7,5.1,0.5,11.7s-4.4,10.9-4.4,10.9c-0.1,2.4,2.3,4.2,4.4,4.3
		c2.1,0.1,4.2-1.9,6-4.7c2.1-3.3,3.3-8.7,3.3-8.7C283.8,41.7,288.5,45.6,288.5,45.6z"/>
	<g>
		<g>
			<path class="st2" d="M247.8,87.2c5.3-1.9,9.8-6.1,13-10.7c1.1-1.6,2.3-3.5,2.6-5.5c0.2-1.5-0.6-2.9-2.3-2.7
				c-2.1,0.2-3.8,2.5-4.9,4.1c-1.5,2.1-2.8,4.7-3.2,7.2c-0.4,2.3-0.4,5,1.6,6.6c1,0.7,2.3,1.2,3.5,1.3c1.6,0.1,3.3-0.6,4.7-1.4
				c2.3-1.3,4.2-3.1,5.9-5c1.6-1.8,3.1-3.8,4-6c0.6-1.4,0.8-3.2-1.1-3.7c-1.1-0.3-2.2,0.4-3,1.1c-1.2,1-2.1,2.4-2.9,3.8
				c-1.4,2.7-2.5,6.4-0.8,9.2c1.7,2.8,5.3,1.9,7.6,0.5c2-1.2,3.9-2.8,5.6-4.5c0.9-0.8,1.7-1.7,2.4-2.7c0.5-0.7,1-1.5,1.2-2.3
				c0.2-0.8,0-1.4-0.6-1.9c-0.9-0.7-2.1-0.6-3.1-0.1c-1.3,0.6-2.3,1.8-3,3c-0.8,1.3-1.5,2.9-1.5,4.5c0,2.4,1.6,4.6,4,5
				c3,0.5,5.6-1.4,7.4-3.5c0.9-1.1,1.7-2.3,2.3-3.6c0.3-0.6-0.6-1.1-0.9-0.5c-1.1,2.3-2.7,4.6-4.9,5.9c-1.8,1.1-4.3,1.3-5.8-0.4
				c-1.9-2.2-0.9-5.2,0.6-7.4c0.7-0.9,1.6-1.9,2.7-2.2c0.6-0.2,1.6-0.1,1.8,0.6c0.1,0.5-0.3,1.2-0.5,1.6c-0.5,0.8-1.1,1.5-1.7,2.2
				c-1.5,1.6-3.1,3.1-4.9,4.5c-1.7,1.3-4.1,2.9-6.3,2.3c-2.9-0.8-2.5-5-1.8-7.1c0.5-1.5,1.3-3,2.2-4.3c0.7-0.9,1.5-2,2.6-2.4
				c0.6-0.2,1.5-0.2,1.8,0.3c0.2,0.4,0,1.1-0.2,1.5c-0.6,1.9-1.9,3.6-3.2,5.1c-1.5,1.8-3.1,3.4-5,4.8c-2.1,1.5-4.8,2.8-7.4,1.8
				c-0.8-0.3-1.5-0.8-2-1.5c-0.6-0.8-0.7-1.8-0.6-2.8c0.1-2.4,0.9-4.6,2-6.7c1-1.9,2.3-3.9,4.1-5.1c0.8-0.6,2.3-1,2.5,0.4
				c0.2,1.4-0.8,3-1.4,4.2c-2.4,4.1-6.1,7.8-10.2,10.2c-1,0.6-2.1,1.2-3.3,1.6C247,86.5,247.2,87.4,247.8,87.2L247.8,87.2z"/>
		</g>
	</g>
	<g>
		<g>
			<path class="st2" d="M282.2,93.5c-10-2.6-20.6-2.9-30.8-0.8c-2.9,0.6-5.7,1.3-8.5,2.3c-0.6,0.2-0.3,1.2,0.3,1
				c9.6-3.3,20-4.4,30.1-3.1c2.9,0.4,5.8,0.9,8.6,1.6C282.6,94.6,282.9,93.7,282.2,93.5L282.2,93.5z"/>
		</g>
	</g>
</g>
<g>
	<g>
		<path class="st1" d="M-93.2-59.4l-5.2,5l-4.4,4.2c-1.3,1.3-1.5,3.4-0.2,4.7l0,0c1.3,1.3,3.2,1.3,4.7-0.2l3.2-3.2l-4.5,4.5
			c-1.3,1.3-1.5,3.4-0.2,4.7l0,0c1.3,1.3,3.2,1.3,4.7-0.2l4.5-4.5l-3.2,3.2c-1.3,1.3-1.5,3.4-0.2,4.7l0,0c1.3,1.3,3.2,1.3,4.7-0.2
			l3.7-3.7c-1.3,1.3-1.5,3.4-0.2,4.7l0,0c1.3,1.3,3.2,1.3,4.7-0.2l21.3-21.3l-17.6-17.6l-3.2,3.1"/>
		<path class="st1" d="M-80.6-71.7l-5.8-5.7l-17.6,17.6l5.5,5.5"/>
		<path class="st1" d="M-90.4-58.2c0,0,1.3,5.4,3.3,8.7c1.8,2.8,4,4.8,6,4.7c2.1-0.1,4.5-1.9,4.4-4.3c0,0-3.2-4.3-4.4-10.9
			s0.5-11.7,0.5-11.7"/>
	</g>
	<g>
		<g>
			<g>
				<path class="st2" d="M-109-12.7c5.3-1.9,9.8-6.1,13-10.7c1.1-1.6,2.3-3.5,2.6-5.5c0.2-1.5-0.6-2.9-2.3-2.7
					c-2.1,0.2-3.8,2.5-4.9,4.1c-1.5,2.1-2.8,4.7-3.2,7.2c-0.4,2.3-0.4,5,1.6,6.6c1,0.7,2.3,1.2,3.5,1.3c1.6,0.1,3.3-0.6,4.7-1.4
					c2.3-1.3,4.2-3.1,5.9-5c1.6-1.8,3.1-3.8,4-6c0.6-1.4,0.8-3.2-1.1-3.7c-1.1-0.3-2.2,0.4-3,1.1c-1.2,1-2.1,2.4-2.9,3.8
					c-1.4,2.7-2.5,6.4-0.8,9.2c1.7,2.8,5.3,1.9,7.6,0.5c2-1.2,3.9-2.8,5.6-4.5c0.9-0.8,1.7-1.7,2.4-2.7c0.5-0.7,1-1.5,1.2-2.3
					c0.2-0.8,0-1.4-0.6-1.9c-0.9-0.7-2.1-0.6-3.1-0.1c-1.3,0.6-2.3,1.8-3,3c-0.8,1.3-1.5,2.9-1.5,4.5c0,2.4,1.6,4.6,4,5
					c3,0.5,5.6-1.4,7.4-3.5c0.9-1.1,1.7-2.3,2.3-3.6c0.3-0.6-0.6-1.1-0.9-0.5c-1.1,2.3-2.7,4.6-4.9,5.9c-1.8,1.1-4.3,1.3-5.8-0.4
					c-1.9-2.2-0.9-5.2,0.6-7.4c0.7-0.9,1.6-1.9,2.7-2.2c0.6-0.2,1.6-0.1,1.8,0.6c0.1,0.5-0.3,1.2-0.5,1.6c-0.5,0.8-1.1,1.5-1.7,2.2
					c-1.5,1.6-3.1,3.1-4.9,4.5c-1.7,1.3-4.1,2.9-6.3,2.3c-2.9-0.8-2.5-5-1.8-7.1c0.5-1.5,1.3-3,2.2-4.3c0.7-0.9,1.5-2,2.6-2.4
					c0.6-0.2,1.5-0.2,1.8,0.3c0.2,0.4,0,1.1-0.2,1.5c-0.6,1.9-1.9,3.6-3.2,5.1c-1.5,1.8-3.1,3.4-5,4.8c-2.1,1.5-4.8,2.8-7.4,1.8
					c-0.8-0.3-1.5-0.8-2-1.5c-0.6-0.8-0.7-1.8-0.6-2.8c0.1-2.4,0.9-4.6,2-6.7c1-1.9,2.3-3.9,4.1-5.1c0.8-0.6,2.3-1,2.5,0.4
					c0.2,1.4-0.8,3-1.4,4.2c-2.4,4.1-6.1,7.8-10.2,10.2c-1,0.6-2.1,1.2-3.3,1.6C-109.9-13.5-109.6-12.5-109-12.7L-109-12.7z"/>
			</g>
		</g>
		<g>
			<g>
				<path class="st2" d="M-74.6-6.5c-10-2.6-20.6-2.9-30.8-0.8c-2.9,0.6-5.7,1.3-8.5,2.3c-0.6,0.2-0.3,1.2,0.3,1
					c9.6-3.3,20-4.4,30.1-3.1c2.9,0.4,5.8,0.9,8.6,1.6C-74.3-5.3-74-6.3-74.6-6.5L-74.6-6.5z"/>
			</g>
		</g>
	</g>
</g>
<g>
	<g>
		<path class="st2" d="M-97.9,140.1c5.7-2.1,10.7-6.3,14.1-11.3c1.1-1.6,2.5-3.6,2.5-5.6c0-2-1.8-2-3.3-1.5
			c-2.4,0.9-4.2,2.8-5.6,4.9c-1.6,2.4-2.9,5.2-3.1,8.2c-0.2,2.6,0.8,4.6,3.4,5.5c2.9,1,6.4-0.6,8.8-2.2c2.4-1.6,4.4-3.8,6.1-6
			c1.3-1.7,2.9-3.8,3.2-6c0.3-2.2-2.4-1.2-3.5-0.7c-2.5,1.2-4.7,3.3-6,5.7c-1.3,2.3-2,5.8-0.1,7.9c2.3,2.6,5.7,1.5,8.3,0
			c2.1-1.2,3.9-3.1,5.5-5c1.3-1.6,3.2-3.6,3.6-5.7c0.4-2.3-3.2-0.5-4,0c-2.4,1.5-4.7,4.5-5.1,7.3c-0.3,2.4,1.7,4.2,3.9,4.3
			c3.1,0.2,6.4-1.6,8.6-3.7c1.2-1.2,2.3-2.5,3-4c0.1-0.3-0.9,0.1-0.9,0.1c-0.4,0.1-1.2,0.4-1.3,0.8c-1.2,2.4-3.6,5.5-6.5,5.8
			c-1.7,0.2-3.6-0.6-4.3-2.3c-1-2.3,0.8-5,2.2-6.7c0.4-0.5,0.8-0.9,1.3-1.4c0.2-0.1,0.4-0.3,0.5-0.4c-0.7,0.6-0.3-0.1-0.1,0.2
			c0.3,0.5,0.4,0.6,0.3,1.2c-0.4,1.5-1.6,3-2.5,4.2c-1.3,1.6-2.7,3.2-4.3,4.5c-1,0.8-2,1.4-3.3,1.2c-1.2-0.1-2.2-1-2.9-1.9
			c-1.3-1.9-0.9-4.6,0-6.5c0.9-2,2.5-4.1,4.4-5.2c0.2-0.1,0.3-0.1,0-0.1c0.1,0,0.4,0,0.5,0c0.2,0.1,0.3,0.2,0.4,0.4
			c0.2,0.4,0,1.1-0.2,1.5c-1.2,3.7-4.3,7.2-7.2,9.6c-2,1.8-4.4,2.9-7.1,1.6c-1.7-0.8-2.5-2.4-2.6-4.3c-0.1-4.2,2.4-9,5.4-11.7
			c0.2-0.2,0.4-0.3,0.6-0.5c0.3-0.2,0.3-0.2,0,0c-0.3,0.1-0.2,0.1,0,0.1c0.2,0.2,0.7,0.2,0.9,0.4c0.3,0.4,0.4,0.9,0.4,1.4
			c-0.1,1.7-1.2,3.5-2.1,4.9c-2.8,4.2-7,8.5-11.8,10.3c-0.3,0.1-1.3,0.4-1.3,0.8C-98.9,140.5-98,140.2-97.9,140.1L-97.9,140.1z"/>
	</g>
</g>
<g>
	<g>
		<path class="st2" d="M-63.4,146.4c-13.1-3.4-27-2.9-39.8,1.5c-1,0.3,1.1,1.5,1.8,1.3c12.3-4.2,25.6-4.7,38.2-1.5
			c0.4,0.1,1,0.1,1.1-0.4C-62.1,146.8-63.1,146.5-63.4,146.4L-63.4,146.4z"/>
	</g>
</g>
<g>
	<g>
		<path class="st3" d="M39.9,53.3c5.2-1.9,9.7-6,12.9-10.5c1.1-1.6,2.4-3.5,2.7-5.5c0.2-1.4-0.3-2.9-2-2.9c-2,0-3.7,2.2-4.8,3.6
			c-1.5,2.1-2.8,4.5-3.4,7c-0.5,2.2-0.8,5.2,1.1,6.9c0.8,0.7,1.8,1.2,2.8,1.5c1.7,0.4,3.5-0.1,5.1-0.8c2.3-1.1,4.2-2.8,5.9-4.6
			c1.7-1.8,3.3-3.8,4.4-6c0.6-1.2,1.4-3.1,0.1-4.1c-2.3-1.6-4.7,1.2-5.8,2.9c-1.8,2.7-3.2,6.2-2.3,9.5c0.4,1.3,1.1,2.4,2.4,2.9
			c1.5,0.6,3.2,0.2,4.6-0.4c2.2-1,4.2-2.7,5.9-4.4c1.6-1.6,3.4-3.4,4.2-5.6c0.3-0.8,0.3-1.7-0.3-2.3c-0.7-0.8-1.8-0.6-2.6-0.1
			c-1.2,0.7-2.2,1.9-2.9,3.1c-0.7,1.2-1.3,2.6-1.5,4c-0.2,1.2-0.1,2.5,0.4,3.6c0.6,1.2,1.7,1.8,3,2.1c2.9,0.5,5.6-1.4,7.4-3.6
			c0.9-1.1,1.7-2.3,2.3-3.6c0.3-0.6-0.6-1.1-0.9-0.5c-1.1,2.3-2.8,4.6-5,5.9c-1.9,1.1-5.2,1.4-6.1-1.1c-0.8-2.2,0.3-4.9,1.5-6.7
			c0.6-1,1.5-2.1,2.6-2.5c0.7-0.3,1.2,0.1,1.2,0.9c0,0.7-0.5,1.4-0.9,2c-0.6,0.9-1.3,1.7-2,2.5c-1.5,1.6-3.1,3.1-5,4.4
			c-1.8,1.2-5.1,2.9-6.8,0.7c-1.8-2.3-0.8-5.9,0.4-8.2c0.6-1.3,1.4-2.5,2.4-3.5c0.6-0.6,1.5-1.4,2.5-1.3c1.5,0.2,0.8,1.8,0.4,2.8
			c-0.9,1.9-2.2,3.6-3.6,5.1c-1.5,1.7-3.1,3.2-5,4.4c-1,0.7-2.2,1.2-3.4,1.5c-1.4,0.3-2.7,0.2-3.9-0.5c-1.9-1-2.2-2.9-2-4.9
			c0.2-2.3,1.1-4.4,2.3-6.4c1-1.7,2.3-3.7,4.1-4.8c0.9-0.6,2.2-0.5,2.2,0.8c0,1.5-0.9,3-1.6,4.2c-2.4,4-6.1,7.6-10.1,10
			c-1,0.6-2.1,1.1-3.2,1.5C39,52.5,39.3,53.5,39.9,53.3L39.9,53.3z"/>
	</g>
</g>
<g>
	<g>
		<path class="st3" d="M78.3,60.6c-10-2.6-20.6-2.9-30.8-0.8c-2.9,0.6-5.7,1.3-8.5,2.3c-0.6,0.2-0.3,1.2,0.3,1
			c9.6-3.3,20-4.4,30.1-3.1c2.9,0.4,5.8,0.9,8.6,1.6C78.7,61.7,78.9,60.7,78.3,60.6L78.3,60.6z"/>
	</g>
</g>
<polyline class="st4" points="67.1,78.6 67.1,84.1 52.1,84.1 52.1,69.1 57.6,69.1 "/>
<polyline class="st5" points="61.1,68.1 68.1,68.1 68.1,75.1 "/>
<line class="st5" x1="68.1" y1="68.1" x2="58.1" y2="78.1"/>
</svg>
