<?xml version="1.0" encoding="utf-8"?>
<!-- Generator: Adobe Illustrator 26.5.0, SVG Export Plug-In . SVG Version: 6.00 Build 0)  -->
<svg version="1.1" xmlns="http://www.w3.org/2000/svg" xmlns:xlink="http://www.w3.org/1999/xlink" x="0px" y="0px"
	 viewBox="0 0 30 30" style="enable-background:new 0 0 30 30;" xml:space="preserve">
<style type="text/css">
	.st0{display:none;}
	.st1{fill:none;stroke:#969696;stroke-miterlimit:10;}
</style>
<g id="Layer_2" class="st0">
	
		<image style="display:inline;overflow:visible;" width="158" height="166" xlink:href="../../../../../../Desktop/Screen Shot 2022-09-19 at 15.28.23.png"  transform="matrix(0.5 0 0 0.5 -101.3217 -26.7917)">
	</image>
</g>
<g id="Layer_1">
	<path class="st1" d="M17.2,12.3c0,0,1.4-1.5,1-4.7c-0.4-2.9-3.6-6.2-8.6-5.6C7.8,2.2,6.3,2.9,5.9,4.7c0,0,2.1,0.6,3.2,2
		c1.5,1.8,0.7,4.2,1.9,6.3"/>
	<path class="st1" d="M13.7,10.5c0,0-0.3,4.5,5,4.6"/>
	<path class="st1" d="M15.7,17.5c-0.5,4.4-3.1,7.7-6.2,7.7S4,21.9,3.4,17.5c-0.1,0.1-0.2,0.1-0.3,0.2c-0.7,0.2-1.5-0.6-1.9-1.7
		s0-2.2,0.7-2.4c0.1,0,0.4-0.1,0.7-0.1c-0.2-0.8-0.4-1.6-0.4-2.2c0-2.8,1.4-5.3,3.7-6.6"/>
	<g>
		<path class="st1" d="M-18.5,12.9c0,0,0.1-3-0.6-5.3c-0.9-2.8-3.6-6.2-8.6-5.6c-1.8,0.2-3.3,0.9-3.7,2.7c0,0,2.1,0.6,3.2,2
			c1.5,1.8,0.8,4.5,2.4,6.4s3.2,1.5,3.2,1.5"/>
		<path class="st1" d="M-21.4,12.6c0,0,0.2,1.4,2.3,2.4"/>
		<path class="st1" d="M-19.6,16.5c-0.4,0.8-1.1,1.3-1.6,1.2c-0.1,0-0.2-0.1-0.3-0.2c-0.5,4.4-3.1,7.7-6.2,7.7s-5.6-3.3-6.2-7.7
			c-0.1,0.1-0.2,0.1-0.3,0.2c-0.7,0.2-1.5-0.6-1.9-1.7s0-2.2,0.7-2.4c0.1,0,0.4-0.1,0.7-0.1c-0.2-0.8-0.4-1.6-0.4-2.2
			c0-2.8,1.4-5.3,3.7-6.6"/>
		<line class="st1" x1="-32.4" y1="22.1" x2="-32.4" y2="28.1"/>
		<line class="st1" x1="-23.1" y1="22.1" x2="-23.1" y2="28.1"/>
	</g>
	<path class="st1" d="M11.3,18c0,0.3-0.8,0.7-1.7,0.7S7.9,18.4,7.9,18"/>
	<path class="st1" d="M52.5,12.3c0,0,1.4-1.5,1-4.7c-0.4-2.9-3.6-6.2-8.6-5.6c-1.8,0.2-3.3,0.9-3.7,2.7c0,0,2.1,0.6,3.2,2
		c1.5,1.8,0.7,4.2,1.9,6.3"/>
	<path class="st1" d="M49,10.5c0,0-0.3,4.5,5,4.6"/>
	<path class="st1" d="M51,17.5c-0.5,4.4-3.1,7.7-6.2,7.7s-5.6-3.3-6.2-7.7c-0.1,0.1-0.2,0.1-0.3,0.2c-0.7,0.2-1.5-0.6-1.9-1.7
		s0-2.2,0.7-2.4c0.1,0,0.4-0.1,0.7-0.1c-0.2-0.8-0.4-1.6-0.4-2.2c0-2.8,1.4-5.3,3.7-6.6"/>
	<line class="st1" x1="40.2" y1="22.1" x2="40.2" y2="28.1"/>
	<line class="st1" x1="49.5" y1="22.1" x2="49.5" y2="28.1"/>
	<path class="st1" d="M46.5,18c0,0.3-0.8,0.7-1.7,0.7c-0.9,0-1.7-0.4-1.7-0.7"/>
	<line class="st1" x1="15.1" y1="29" x2="4" y2="29"/>
</g>
<g id="Layer_3">
</g>
</svg>
