<?xml version="1.0" encoding="utf-8"?>
<!-- Generator: Adobe Illustrator 26.5.0, SVG Export Plug-In . SVG Version: 6.00 Build 0)  -->
<svg version="1.1" id="Layer_1" xmlns="http://www.w3.org/2000/svg" xmlns:xlink="http://www.w3.org/1999/xlink" x="0px" y="0px"
	 viewBox="0 0 45 45" style="enable-background:new 0 0 45 45;" xml:space="preserve">
<style type="text/css">
	.st0{fill:none;stroke:#969696;stroke-miterlimit:10;}
	.st1{fill:#32BEE1;stroke:#FFFFFF;stroke-width:0.5;stroke-miterlimit:10;}
	.st2{fill:#969696;stroke:#969696;stroke-width:0.5;stroke-miterlimit:10;}
	.st3{fill:#969696;}
</style>
<path class="st0" d="M-15.3,29.1c0,0,6.4-3.4,7.3-7.4s-1.2-6.1-3.7-5.9c-2.5,0.3-3.7,2.6-3.7,4.7c0-2-1.2-4.4-3.7-4.7
	s-4.5,1.9-3.7,5.9S-15.3,29.1-15.3,29.1z"/>
<path class="st1" d="M-37.3,27c0,0-1.3,2.1-1.7,3.6c-0.4,1.2-0.4,2.3,0,2.9s1.6,0.9,2.2,0.3c0,0,1-2.7,2.7-4.6s3.6-2.6,3.6-2.6v-9.4
	h-11.4c-0.7,0-1.3,0.6-1.3,1.2l0,0c0,0.7,0.6,1.2,1.3,1.2h0.4h-2.4c-0.7,0-1.3,0.6-1.3,1.2l0,0c0,0.7,0.6,1.2,1.3,1.2h1.7h-2.4
	c-0.7,0-1.3,0.6-1.3,1.2l0,0c0,0.7,0.6,1.2,1.3,1.2h2.4h-1.7c-0.7,0-1.3,0.6-1.3,1.2l0,0c0,0.7,0.6,1.2,1.3,1.2h8.4"/>
<path class="st2" d="M67.5,27c0,0-1.3,2.2-1.8,3.6c-0.4,1.2-0.5,2.3,0,2.9s1.6,0.9,2.3,0.3c0,0,1-2.7,2.7-4.6s3.6-2.6,3.6-2.6v-9.4
	H62.9c-1.3,0-2.5,1-3.3,3.6s-0.3,4.2,0,4.8c0.4,0.8,0.6,1.2,1.3,1.2h8.4L67.5,27z"/>
<path class="st3" d="M23.9,29.2c0,0-2.1,3.5-2.7,6c-0.6,2-0.6,3.8,0,4.8s2.6,1.5,3.5,0.5c0,0,1.6-4.5,4.3-7.6
	c2.7-3.1,5.7-4.3,5.7-4.3V12.9H16.6c-1.1,0-2.1,1-2.1,2l0,0c0,1.2,1,2,2.1,2h0.6h-3.8c-1.1,0-2.1,1-2.1,2l0,0c0,1.2,1,2,2.1,2h2.7
	h-3.8c-1.1,0-2.1,1-2.1,2l0,0c0,1.2,1,2,2.1,2h3.8h-2.7c-1.1,0-2.1,1-2.1,2l0,0c0,1.2,1,2,2.1,2h13.4"/>
</svg>
