<?xml version="1.0" encoding="utf-8"?>
<!-- Generator: Adobe Illustrator 27.1.1, SVG Export Plug-In . SVG Version: 6.00 Build 0)  -->
<svg version="1.1" id="Layer_1" xmlns="http://www.w3.org/2000/svg" xmlns:xlink="http://www.w3.org/1999/xlink" x="0px" y="0px"
	 viewBox="0 0 30 30" style="enable-background:new 0 0 30 30;" xml:space="preserve">
<style type="text/css">
	.st0{fill:#646464;}
	.st1{fill:none;stroke:#FFFFFF;stroke-width:2;stroke-linecap:round;stroke-linejoin:round;stroke-miterlimit:10;}
</style>
<path class="st0" d="M25,3.1H5c-0.8,0-1.5,0.7-1.5,1.5v21c0,0.8,0.7,1.5,1.5,1.5h20c0.8,0,1.5-0.7,1.5-1.5v-21
	C26.5,3.8,25.8,3.1,25,3.1z M21.3,11.1L13,20.3c-0.2,0.2-0.5,0.3-0.7,0.3c0,0,0,0,0,0c-0.3,0-0.6-0.1-0.7-0.3l-2.9-3.2
	c-0.4-0.4-0.3-1,0.1-1.4c0.4-0.4,1-0.3,1.4,0.1l2.2,2.4l7.6-8.4c0.4-0.4,1-0.4,1.4-0.1C21.7,10,21.7,10.7,21.3,11.1z"/>
<path class="st0" d="M-28.5,27.1h-20c-0.8,0-1.5-0.7-1.5-1.5v-21c0-0.8,0.7-1.5,1.5-1.5h20c0.8,0,1.5,0.7,1.5,1.5v21
	C-27,26.4-27.7,27.1-28.5,27.1z"/>
<polyline class="st1" points="-44.1,16.4 -41.2,19.6 -32.9,10.4 "/>
</svg>
