<?xml version="1.0" encoding="utf-8"?>
<!-- Generator: Adobe Illustrator 26.5.0, SVG Export Plug-In . SVG Version: 6.00 Build 0)  -->
<svg version="1.1" id="Layer_1" xmlns="http://www.w3.org/2000/svg" xmlns:xlink="http://www.w3.org/1999/xlink" x="0px" y="0px"
	 viewBox="0 0 45 45" style="enable-background:new 0 0 45 45;" xml:space="preserve">
<style type="text/css">
	.st0{fill:none;stroke:#969696;stroke-miterlimit:10;}
	.st1{fill:#969696;stroke:#969696;stroke-width:0.5;stroke-miterlimit:10;}
	.st2{fill:#969696;}
</style>
<path class="st0" d="M-15.3,29.1c0,0,6.4-3.4,7.3-7.4s-1.2-6.1-3.7-5.9c-2.5,0.3-3.7,2.6-3.7,4.7c0-2-1.2-4.4-3.7-4.7
	s-4.5,1.9-3.7,5.9S-15.3,29.1-15.3,29.1z"/>
<path class="st1" d="M72.1,21.2c0,0,1.3-2.2,1.8-3.6c0.4-1.2,0.5-2.3,0-2.9c-0.5-0.6-1.6-0.9-2.3-0.3c0,0-1,2.7-2.7,4.6
	s-3.6,2.6-3.6,2.6V31h11.4c1.3,0,2.5-1,3.3-3.6s0.3-4.2,0-4.8c-0.4-0.8-0.6-1.2-1.3-1.2h-8.4L72.1,21.2z"/>
<path class="st2" d="M21,14.9c0,0,2.1-3.6,2.9-6c0.6-2,0.8-3.8,0-4.8c-0.8-1-2.6-1.5-3.7-0.5c0,0-1.6,4.5-4.3,7.6s-5.7,4.3-5.7,4.3
	V31h18.2c1.3,0,2.1-0.8,2.1-2l0,0c0-1.2-1-2-2.1-2h-0.6h3.8c1.3,0,2.1-0.8,2.1-2l0,0c0-1.2-1-2-2.1-2h-2.7h3.8c1.3,0,2.1-0.8,2.1-2
	l0,0c0-1.2-1-2-2.1-2h-3.8h2.7c1.3,0,2.1-0.8,2.1-2l0,0c0-1.2-1-2-2.1-2H18.1L21,14.9z"/>
<path class="st2" d="M-32.2,21.2c0,0,1.3-2.2,1.8-3.6c0.4-1.2,0.5-2.3,0-2.9c-0.5-0.6-1.6-0.9-2.3-0.3c0,0-1,2.7-2.7,4.6
	s-3.6,2.6-3.6,2.6V31h11.4c0.8,0,1.3-0.5,1.3-1.2l0,0c0-0.7-0.6-1.2-1.3-1.2H-28h2.4c0.8,0,1.3-0.5,1.3-1.2l0,0
	c0-0.7-0.6-1.2-1.3-1.2h-1.7h2.4c0.8,0,1.3-0.5,1.3-1.2l0,0c0-0.7-0.6-1.2-1.3-1.2h-2.4h1.7c0.8,0,1.3-0.5,1.3-1.2l0,0
	c0-0.7-0.6-1.2-1.3-1.2H-34"/>
</svg>
