<?xml version="1.0" encoding="utf-8"?>
<!-- Generator: Adobe Illustrator 26.5.0, SVG Export Plug-In . SVG Version: 6.00 Build 0)  -->
<svg version="1.1" id="Layer_1" xmlns="http://www.w3.org/2000/svg" xmlns:xlink="http://www.w3.org/1999/xlink" x="0px" y="0px"
	 viewBox="0 0 30 30" style="enable-background:new 0 0 30 30;" xml:space="preserve">
<style type="text/css">
	.st0{fill:none;stroke:#969696;stroke-miterlimit:10;}
</style>
<path class="st0" d="M-22.8,21.6c0,0,6.4-3.4,7.3-7.4c0.9-4-1.2-6.1-3.7-5.9c-2.5,0.3-3.7,2.6-3.7,4.7c0-2-1.2-4.4-3.7-4.7
	c-2.5-0.3-4.5,1.9-3.7,5.9S-22.8,21.6-22.8,21.6z"/>
<path class="st0" d="M14.1,9.7c0,0,1.3-2.2,1.8-3.6c0.4-1.2,0.5-2.3,0-2.9c-0.5-0.6-1.6-0.9-2.3-0.3c0,0-1,2.7-2.7,4.6
	s-3.6,2.6-3.6,2.6v9.4h11.4c0.8,0,1.3-0.5,1.3-1.2l0,0c0-0.7-0.6-1.2-1.3-1.2h-0.4h2.4c0.8,0,1.3-0.5,1.3-1.2l0,0
	c0-0.7-0.6-1.2-1.3-1.2H19h2.4c0.8,0,1.3-0.5,1.3-1.2l0,0c0-0.7-0.6-1.2-1.3-1.2H19h1.7c0.8,0,1.3-0.5,1.3-1.2l0,0
	c0-0.7-0.6-1.2-1.3-1.2h-8.4"/>
</svg>
