<?xml version="1.0" encoding="utf-8"?>
<!-- Generator: Adobe Illustrator 26.5.0, SVG Export Plug-In . SVG Version: 6.00 Build 0)  -->
<svg version="1.1" id="Layer_1" xmlns="http://www.w3.org/2000/svg" xmlns:xlink="http://www.w3.org/1999/xlink" x="0px" y="0px"
	 viewBox="0 0 45 45" style="enable-background:new 0 0 45 45;" xml:space="preserve">
<style type="text/css">
	.st0{fill:none;stroke:#969696;stroke-miterlimit:10;}
</style>
<path class="st0" d="M-15.3,29.1c0,0,6.4-3.4,7.3-7.4s-1.2-6.1-3.7-5.9c-2.5,0.3-3.7,2.6-3.7,4.7c0-2-1.2-4.4-3.7-4.7
	s-4.5,1.9-3.7,5.9S-15.3,29.1-15.3,29.1z"/>
<path class="st0" d="M21.2,14.9c0,0,1.9-3.3,2.7-5.4c0.6-1.8,0.8-3.4,0-4.4c-0.7-0.8-2.4-1.2-3.4-0.3c0,0-1.5,4.1-4.1,6.9
	S11,15.6,11,15.6v14.1h17.1c1.2,0,1.9-0.8,1.9-1.8l0,0c0-1-0.9-1.8-1.9-1.8h-0.6h3.6c1.2,0,1.9-0.8,1.9-1.8l0,0
	c0-1.1-0.9-1.8-1.9-1.8h-2.6h3.6c1.2,0,1.9-0.8,1.9-1.8l0,0c0-1.1-0.9-1.8-2-1.8h-3.5H31c1.2,0,2-0.8,2-1.8l0,0c0-1-0.9-1.8-2-1.8
	H18.5"/>
</svg>
