<?xml version="1.0" encoding="utf-8"?>
<!-- Generator: Adobe Illustrator 26.5.0, SVG Export Plug-In . SVG Version: 6.00 Build 0)  -->
<svg version="1.1" id="Layer_1" xmlns="http://www.w3.org/2000/svg" xmlns:xlink="http://www.w3.org/1999/xlink" x="0px" y="0px"
	 viewBox="0 0 30 30" style="enable-background:new 0 0 30 30;" xml:space="preserve">
<style type="text/css">
	.st0{fill:none;stroke:#969696;stroke-miterlimit:10;}
	.st1{fill:none;stroke:#969696;stroke-linejoin:bevel;stroke-miterlimit:10;}
</style>
<polyline class="st0" points="0.5,15 0.5,2.2 11.5,2.2 "/>
<polyline class="st0" points="22.5,15 22.5,27.8 11.5,27.8 "/>
<g>
	<path class="st1" d="M11.5,23.3v4.5h11V15h-3.6v0.7c0.5,0.5,0.8,1.2,0.8,1.9c0,1.6-1.2,2.8-2.7,2.8s-2.7-1.3-2.7-2.8
		c0-0.8,0.3-1.5,0.9-2.1V15h-3.7v4.6H11c-0.5-0.6-1.3-1-2.1-1c-1.5,0-2.7,1.2-2.7,2.7c0,1.6,1.2,2.8,2.7,2.8c0.8,0,1.5-0.3,2-0.8
		H11.5z"/>
</g>
<path class="st1" d="M14.1,5.9c-0.8,0-1.5,0.3-2.1,0.9h-0.5V2.2h-11V15h3.7v-0.6c-0.5-0.5-0.9-1.2-0.9-2c0-1.5,1.2-2.7,2.7-2.7
	s2.7,1.2,2.7,2.7c0,0.8-0.3,1.5-0.8,2V15h3.6v-4.5h0.7c0.5,0.5,1.2,0.8,1.9,0.8c1.6,0,2.8-1.2,2.8-2.7S15.6,5.9,14.1,5.9z"/>
</svg>
