<?xml version="1.0" encoding="utf-8"?>
<!-- Generator: Adobe Illustrator 26.3.1, SVG Export Plug-In . SVG Version: 6.00 Build 0)  -->
<svg version="1.1" id="Layer_1" xmlns="http://www.w3.org/2000/svg" xmlns:xlink="http://www.w3.org/1999/xlink" x="0px" y="0px"
	 viewBox="0 0 30 30" style="enable-background:new 0 0 30 30;" xml:space="preserve">
<style type="text/css">
	.st0{fill:#646464;}
</style>
<g>
	<path class="st0" d="M11.8,29.6l1.4-7.4c-0.6-0.1-1.1-0.4-1.6-0.6L7.5,28C8.8,28.7,10.3,29.3,11.8,29.6z"/>
	<path class="st0" d="M29.3,19.6l-7.2-2.1c-0.2,0.6-0.5,1.1-0.8,1.6l6,4.5C28.1,22.4,28.8,21,29.3,19.6z"/>
	<path class="st0" d="M15.5,0v7.5c0.6,0,1.2,0.1,1.7,0.3l2.7-7C18.5,0.4,17,0.1,15.5,0z"/>
	<path class="st0" d="M20.9,1.2l-2.7,7c0.5,0.3,1,0.6,1.5,0.9l5.1-5.6C23.6,2.6,22.3,1.8,20.9,1.2z"/>
	<path class="st0" d="M28.6,8.8l-6.7,3.3c0.2,0.5,0.4,1.1,0.5,1.7l7.5-0.7C29.7,11.6,29.2,10.1,28.6,8.8z"/>
	<path class="st0" d="M14.5,0c-1.6,0.1-3,0.3-4.4,0.8l2.7,7c0.6-0.2,1.1-0.3,1.7-0.3V0z"/>
	<path class="st0" d="M0.1,13.1l7.5,0.7c0.1-0.6,0.3-1.2,0.5-1.7L1.4,8.8C0.7,10.1,0.3,11.6,0.1,13.1z"/>
	<path class="st0" d="M22.5,28l-4-6.4c-0.5,0.3-1.1,0.5-1.6,0.6l1.4,7.4C19.8,29.3,21.2,28.7,22.5,28z"/>
	<path class="st0" d="M2.7,23.6l6-4.5c-0.3-0.5-0.6-1-0.8-1.6l-7.2,2.1C1.2,21,1.9,22.4,2.7,23.6z"/>
	<path class="st0" d="M5.3,3.6l5.1,5.5c0.5-0.4,1-0.7,1.5-0.9l-2.7-7C7.7,1.8,6.4,2.6,5.3,3.6z"/>
	<path class="st0" d="M15.9,22.4c-0.3,0-0.6,0.1-0.9,0.1c-0.3,0-0.6,0-0.9-0.1l-1.4,7.4c0.7,0.1,1.5,0.2,2.3,0.2
		c0.8,0,1.5-0.1,2.3-0.2L15.9,22.4z"/>
	<path class="st0" d="M12,29.7L12,29.7C12,29.7,12,29.7,12,29.7z"/>
	<path class="st0" d="M10.6,21.1c-0.5-0.3-0.9-0.7-1.3-1.2l-6,4.5c1,1.2,2.1,2.2,3.3,3L10.6,21.1z"/>
	<path class="st0" d="M30,14.1l-7.5,0.7c0,0.1,0,0.1,0,0.2c0,0.5-0.1,1.1-0.2,1.6l7.2,2c0.3-1.2,0.5-2.4,0.5-3.6
		C30,14.7,30,14.4,30,14.1z"/>
	<path class="st0" d="M7.7,16.6c-0.1-0.5-0.2-1-0.2-1.6c0-0.1,0-0.1,0-0.2L0,14.1c0,0.3,0,0.6,0,0.9c0,1.3,0.2,2.5,0.5,3.6L7.7,16.6
		z"/>
	<path class="st0" d="M18,29.7C18,29.7,18,29.7,18,29.7L18,29.7z"/>
	<path class="st0" d="M20.7,19.9c-0.4,0.4-0.8,0.8-1.3,1.2l4,6.4c1.3-0.8,2.4-1.9,3.3-3.1L20.7,19.9z"/>
	<path class="st0" d="M29.9,13.5C29.9,13.5,29.9,13.5,29.9,13.5L29.9,13.5z"/>
	<path class="st0" d="M20.4,9.8c0.4,0.4,0.8,0.9,1.1,1.4l6.7-3.4c-0.7-1.3-1.7-2.5-2.7-3.6L20.4,9.8z"/>
	<path class="st0" d="M0.1,13.5L0.1,13.5C0.1,13.5,0.1,13.5,0.1,13.5z"/>
	<path class="st0" d="M8.5,11.2c0.3-0.5,0.7-1,1.1-1.4L4.5,4.3c-1.1,1.1-2,2.3-2.7,3.6L8.5,11.2z"/>
</g>
</svg>
